<?xml version="1.0" encoding="UTF-8"?>
<svg width="46px" height="48px" viewBox="0 0 46 48" version="1.1" xmlns="http://www.w3.org/2000/svg" xmlns:xlink="http://www.w3.org/1999/xlink">
    <!-- Generator: sketchtool 50.2 (55047) - http://www.bohemiancoding.com/sketch -->
    <title>8664949B-C48C-45C2-93F3-B67E7ECED7DB</title>
    <desc>Created with sketchtool.</desc>
    <defs></defs>
    <g id="Future-Project-Desktop" stroke="none" stroke-width="1" fill="none" fill-rule="evenodd">
        <g id="Future-Schools" transform="translate(-164.000000, -2290.000000)">
            <g id="future-schools/dream-directors" transform="translate(48.000000, 1866.000000)">
                <g id="bulb-icon" transform="translate(117.000000, 425.000000)">
                    <path d="M34.7141028,21.05374 C34.7141028,14.00574 28.8941945,8.30454 21.7567083,8.41174 C15.0249101,8.51274 9.4688,13.87934 9.20520367,20.54554 C9.0380844,24.76994 10.9637908,28.55674 14.0377358,30.96954 C14.7257908,31.50974 15.2192771,32.25534 15.403956,33.10574 L16.4781211,38.05294 C16.6234422,38.72254 17.2208734,39.20074 17.9121578,39.20074 L21.9902312,39.20074 L26.0689101,39.20074 C26.7597908,39.20074 27.357222,38.72274 27.502745,38.05354 L28.5876073,33.06354 C28.7686532,32.23074 29.2264147,31.47814 29.8987266,30.94734 C32.8332037,28.63114 34.7141028,25.06014 34.7141028,21.05374" id="Fill-1" fill="#5CD8FF"></path>
                    <path d="M25.3337064,21.36556 C25.3337064,23.21496 23.8207523,24.71396 21.9545872,24.71396 C20.088422,24.71396 18.5754679,23.21496 18.5754679,21.36556 C18.5754679,19.51636 20.088422,18.01716 21.9545872,18.01716 C23.8207523,18.01716 25.3337064,19.51636 25.3337064,21.36556 Z" id="Stroke-3" stroke="#FFFFFF" stroke-width="1.4" stroke-linecap="round" stroke-linejoin="round"></path>
                    <path d="M21.9545468,25.2055 L21.9545468,42.7001" id="Stroke-5" stroke="#FFFFFF" stroke-width="1.4" stroke-linecap="round" stroke-linejoin="round"></path>
                    <path d="M18.5754881,42.70004 L25.3337266,42.70004" id="Stroke-7" stroke="#FFFFFF" stroke-width="1.4" stroke-linecap="round" stroke-linejoin="round"></path>
                    <path d="M19.1809927,45.6434 L24.728222,45.6434" id="Stroke-9" stroke="#FFFFFF" stroke-width="1.4" stroke-linecap="round" stroke-linejoin="round"></path>
                    <path d="M21.9545468,0.09994 L21.9545468,5.37994" id="Stroke-11" stroke="#FFFFFF" stroke-width="1.4" stroke-linecap="round" stroke-linejoin="round"></path>
                    <path d="M38.0108532,6.5435 L34.2432018,10.2769" id="Stroke-13" stroke="#FFFFFF" stroke-width="1.4" stroke-linecap="round" stroke-linejoin="round"></path>
                    <path d="M5.63115229,6.5435 L9.39880367,10.2769" id="Stroke-15" stroke="#FFFFFF" stroke-width="1.4" stroke-linecap="round" stroke-linejoin="round"></path>
                    <path d="M5.83298716,36.47698 L9.60063853,32.74358" id="Stroke-17" stroke="#FFFFFF" stroke-width="1.4" stroke-linecap="round" stroke-linejoin="round"></path>
                    <path d="M38.2126881,36.47698 L34.4450367,32.74358" id="Stroke-19" stroke="#FFFFFF" stroke-width="1.4" stroke-linecap="round" stroke-linejoin="round"></path>
                    <path d="M43.8081963,21.77522 L38.479756,21.77522" id="Stroke-21" stroke="#FFFFFF" stroke-width="1.4" stroke-linecap="round" stroke-linejoin="round"></path>
                    <path d="M5.42931743,21.77522 L0.100877064,21.77522" id="Stroke-23" stroke="#FFFFFF" stroke-width="1.4" stroke-linecap="round" stroke-linejoin="round"></path>
                </g>
            </g>
        </g>
    </g>
</svg>