<?xml version="1.0" encoding="UTF-8"?>
<svg width="66px" height="76px" viewBox="0 0 66 76" version="1.1" xmlns="http://www.w3.org/2000/svg" xmlns:xlink="http://www.w3.org/1999/xlink">
    <!-- Generator: sketchtool 50.2 (55047) - http://www.bohemiancoding.com/sketch -->
    <title>33E5B4A0-4944-4C9E-915E-950EA33F43C6</title>
    <desc>Created with sketchtool.</desc>
    <defs>
        <polygon id="path-1" points="0 0.272992 65.9239327 0.272992 65.9239327 75.6959696 0 75.6959696"></polygon>
    </defs>
    <g id="Future-Project-Desktop" stroke="none" stroke-width="1" fill="none" fill-rule="evenodd">
        <g id="Future-Schools" transform="translate(-584.000000, -1693.000000)">
            <g id="future-schools/locations" transform="translate(1.000000, 1523.000000)">
                <g id="Group-12" transform="translate(583.000000, 170.000000)">
                    <path d="M44.21903,38.6024432 C44.1933655,38.5988144 44.1692107,38.5927664 44.1426404,38.5921616 C44.1375075,38.5921616 44.1329784,38.5936736 44.1281475,38.5936736 C44.1595488,38.5936736 44.1888365,38.5982096 44.21903,38.6024432" id="Fill-1" fill="#4598FA"></path>
                    <path d="M21.7347733,68.3092864 C21.7347733,67.9566464 22.0206719,67.6708864 22.3737871,67.6708864 L24.9535659,67.6708864 L24.8875659,60.7591424 L23.5849023,62.0611744 C23.462635,62.1833824 23.2993078,62.2481344 23.1332433,62.2481344 C23.0456488,62.2481344 22.9571419,62.2301984 22.8735014,62.1928064 C22.6320083,62.0851904 22.4817594,61.8401664 22.4954461,61.5762944 L23.7737779,37.2544704 L23.4063677,37.2544704 C20.6994553,37.2544704 19.4220359,34.9446784 19.4220359,33.5760704 L19.4220359,30.5403264 C19.4220359,30.1879904 19.7079346,29.9019264 20.0607456,29.9019264 C19.7079346,29.9019264 19.4220359,30.1876864 19.4220359,30.5403264 L19.4220359,29.7909664 C19.1778055,29.6602464 19.0159991,29.4115744 18.9995751,29.1288544 C18.9302295,27.9177184 18.8669668,25.2221504 19.4220359,22.6655104 C19.6571419,21.5832704 20.0026535,20.5256544 20.5060175,19.6163904 C21.0720359,18.5943424 21.8366627,17.7595584 22.8668101,17.2862304 C22.887188,17.2768064 22.9084783,17.2685984 22.9300728,17.2609984 L30.0632433,14.8679104 C29.5878608,14.3936704 29.2405244,13.7938784 29.0656396,13.1250784 C13.9814461,15.3141824 2.3572341,28.3232544 2.3572341,43.9968864 C2.3572341,56.0395424 9.21971336,66.5089984 19.2404599,71.7070944 L19.2404599,71.6888544 C19.2404599,71.3362144 19.5263585,71.0507584 19.8791696,71.0507584 L21.7347733,71.0507584 L21.7347733,68.3092864 Z" id="Fill-3" fill="#5CD8FF"></path>
                    <path d="M38.3993171,13.172776 C38.2019253,13.889 37.8019714,14.520712 37.2639346,15.003768 L42.6692433,16.530456 C43.1537502,16.667256 43.534847,16.81956 43.8688009,17.008952 C48.3598424,19.554648 48.6396581,28.243272 48.6499991,29.959352 C48.6515198,30.228088 48.5040083,30.463384 48.2755935,30.592888 L48.4729853,33.279944 C48.4751143,33.313688 48.4769392,33.431336 48.4714645,33.611304 C48.4094184,35.67364 47.5702756,37.636872 46.1486903,39.132856 L45.2578424,40.070392 C45.3305336,40.171624 45.3749392,40.295048 45.3785889,40.429416 L45.9731972,62.484008 C45.9801926,62.737848 45.8357226,62.971624 45.6057871,63.07924 C45.5191051,63.119976 45.4266442,63.139432 45.3350959,63.139432 C45.182718,63.139432 45.032165,63.08532 44.9129392,62.980744 L43.5619161,61.793016 L43.5619161,67.67116 L45.3347917,67.67116 C45.6876028,67.67116 45.9735014,67.956616 45.9735014,68.309256 L45.9735014,71.050728 L47.8291051,71.050728 C48.0915843,71.050728 48.3163493,71.209112 48.4148931,71.435288 C58.1555198,66.149336 64.7835014,55.832488 64.7835014,43.99716 C64.7835014,28.435704 53.3253539,15.499592 38.3993171,13.172776" id="Fill-5" fill="#5CD8FF"></path>
                    <g id="Group-9" transform="translate(0.000000, 0.031008)">
                        <mask id="mask-2" fill="white">
                            <use xlink:href="#path-1"></use>
                        </mask>
                        <g id="Clip-8"></g>
                        <path d="M32.96773,75.0831056 C15.1018037,75.0831056 0.618909677,60.6069296 0.618909677,42.7499696 C0.618909677,26.0275376 13.3201078,12.2706256 29.605988,10.5901136 L29.605988,9.9736016 L29.605988,5.3634416 L36.6543014,5.3634416 L36.6543014,10.0119056 L36.6543014,10.6272016 C52.7835456,12.4563696 65.3162461,26.1391056 65.3162461,42.7499696 C65.3162461,60.6069296 50.8333521,75.0831056 32.96773,75.0831056 Z M29.6859788,3.5798736 L36.5496747,3.5798736 L36.9402,3.5798736 L36.8273613,4.0866416 L29.4797668,4.0866416 L29.3672323,3.5798736 L29.6859788,3.5798736 Z M31.717988,1.5494576 L34.5179696,1.5494576 C35.5888728,1.5494576 35.836753,1.7239536 35.8936286,2.3033776 L30.3420249,2.3033776 C30.3992046,1.7239536 30.6464765,1.5494576 31.717988,1.5494576 Z M37.9317207,10.1781936 L37.9317207,4.9636816 C37.9444949,4.9317616 37.9554442,4.8983216 37.9633521,4.8636656 L38.3599604,3.0804016 C38.4016286,2.8913136 38.3557023,2.6931056 38.2343475,2.5420176 C38.1132968,2.3912336 37.9298959,2.3033776 37.7364581,2.3033776 L37.1722645,2.3033776 C37.101094,1.3092976 36.7069189,0.2729616 34.5179696,0.2729616 L31.717988,0.2729616 C29.5284304,0.2729616 29.1345594,1.3092976 29.0633889,2.3033776 L28.5709742,2.3033776 C28.3772323,2.3033776 28.1941355,2.3912336 28.0727806,2.5420176 C27.95173,2.6931056 27.9054995,2.8913136 27.9474719,3.0800976 L28.3285687,4.7946576 L28.3285687,10.1310736 C12.3395364,12.3894896 -3.04147465e-05,26.1555216 -3.04147465e-05,42.7499696 C-3.04147465e-05,55.7864016 7.61490968,67.0781776 18.6320433,72.4164176 C19.0526793,72.6200976 19.479094,72.8140496 19.9094627,73.0000976 C23.9144765,74.7332016 28.3276562,75.6959696 32.9619512,75.6959696 C37.1220802,75.6959696 41.1036747,74.9195536 44.7723014,73.5074736 C44.8884857,73.4627856 45.0052783,73.4184016 45.1208544,73.3724976 C45.6138774,73.1761136 46.1011217,72.9684816 46.5822829,72.7496016 C47.0129558,72.5532176 47.4387622,72.3477136 47.8597023,72.1336976 C58.569647,66.6869296 65.9239327,55.5611376 65.9239327,42.7499696 C65.9239327,26.2719536 53.7574258,12.5804016 37.9317207,10.1781936 Z" id="Fill-7" fill="#000000" mask="url(#mask-2)"></path>
                    </g>
                    <path d="M47.8065069,70.2192272 C47.7082673,69.9930512 47.4835023,69.8346672 47.2207189,69.8346672 L45.3654194,69.8346672 L45.3654194,67.0931952 C45.3654194,66.7405552 45.0792166,66.4550992 44.7264055,66.4550992 L42.95353,66.4550992 L42.95353,60.5769552 L44.304553,61.7646832 C44.4237788,61.8692592 44.5743318,61.9233712 44.7267097,61.9233712 C44.8185622,61.9233712 44.9107189,61.9039152 44.9977051,61.8631792 C45.2276406,61.7555632 45.3718065,61.5217872 45.3651152,61.2679472 L44.7705069,39.2133552 C44.766553,39.0789872 44.7221475,38.9555632 44.6494562,38.8546352 C44.6202581,38.8145072 44.5868018,38.7783312 44.5493917,38.7461072 C44.5868018,38.7783312 44.6202581,38.8145072 44.6494562,38.8546352 L45.5406083,37.9167952 C46.9621935,36.4208112 47.8010323,34.4575792 47.8633825,32.3952432 C47.868553,32.2152752 47.8667281,32.0979312 47.8645991,32.0638832 L47.6672074,29.3768272 C47.8956221,29.2473232 48.0431336,29.0120272 48.0416129,28.7432912 C48.0312719,27.0272112 47.7514562,18.3385872 43.2607189,15.7928912 C42.9264608,15.6034992 42.5453641,15.4511952 42.0608571,15.3143952 L36.6555484,13.7880112 C37.1935853,13.3046512 37.5935392,12.6732432 37.7909309,11.9567152 C52.7172719,14.2835312 64.1751152,27.2196432 64.1751152,42.7810992 C64.1751152,54.6164272 57.5471336,64.9332752 47.8065069,70.2192272 Z M45.3654194,71.4072592 C44.9441751,71.5902672 44.5180645,71.7641552 44.0876959,71.9289232 C43.7814194,72.0459632 43.4730138,72.1587472 43.161871,72.2666672 C41.5517143,72.8248112 39.8816406,73.2540592 38.1647281,73.5431632 C36.4721475,73.8283152 34.734553,73.9790992 32.9619816,73.9790992 C31.1894101,73.9790992 29.4518157,73.8283152 27.759235,73.5431632 C26.0420184,73.2540592 24.3722488,72.8248112 22.761788,72.2666672 C22.6425622,72.2253232 22.5230323,72.1830672 22.4041106,72.1405072 C21.9734378,71.9854672 21.5479355,71.8203952 21.1263871,71.6471152 C20.7163963,71.4786992 20.3106636,71.3017712 19.9094931,71.1166352 L19.9094931,71.1111632 L21.1263871,71.1111632 L22.4041106,71.1111632 L44.0876959,71.1111632 L45.3654194,71.1111632 L46.0257235,71.1111632 C45.8070415,71.2123952 45.5865346,71.3108912 45.3654194,71.4072592 Z M18.6320737,70.4727632 L18.6320737,70.4913072 C8.61132719,65.2929072 1.74884793,54.8234512 1.74884793,42.7810992 C1.74884793,27.1071632 13.3733641,14.0980912 28.4572535,11.9089872 C28.6321382,12.5777872 28.9797788,13.1775792 29.4548571,13.6518192 L22.3216866,16.0449072 C22.3003963,16.0525072 22.2788018,16.0607152 22.258424,16.0701392 C21.2282765,16.5434672 20.4636498,17.3785552 19.8979355,18.4002992 C19.3942673,19.3098672 19.0487558,20.3671792 18.8136498,21.4497232 C18.2585806,24.0060592 18.3218433,26.7016272 18.3914931,27.9127632 C18.4076129,28.1957872 18.5694194,28.4441552 18.8136498,28.5748752 L18.8136498,29.3242352 C18.8136498,28.9715952 19.0998525,28.6858352 19.4523594,28.6858352 C19.0998525,28.6858352 18.8136498,28.9718992 18.8136498,29.3245392 L18.8136498,32.3599792 C18.8136498,33.7285872 20.0913733,36.0383792 22.7979816,36.0383792 L23.1653917,36.0383792 L21.8870599,60.3602032 C21.8733733,60.6240752 22.0239263,60.8694032 22.2651152,60.9767152 C22.3487558,61.0141072 22.4372627,61.0320432 22.5248571,61.0320432 C22.6909217,61.0320432 22.8542488,60.9672912 22.9765161,60.8453872 L24.2794839,59.5430512 L24.3451797,66.4550992 L21.7654009,66.4550992 C21.4125899,66.4550992 21.1263871,66.7405552 21.1263871,67.0931952 L21.1263871,69.8346672 L19.2707834,69.8346672 C18.9182765,69.8346672 18.6320737,70.1201232 18.6320737,70.4727632 Z M30.1787281,14.7559472 L30.5668203,14.6255312 L30.1787281,15.0535632 L30.1382765,15.0982512 L24.6888664,21.1065072 L24.5842396,21.2217232 L23.401106,22.5264912 L23.3068203,22.6301552 L20.0913733,26.1757072 L19.620553,26.6946352 C19.5715853,24.5076592 19.771106,22.8183312 20.0913733,21.5108272 C20.3042765,20.6410832 20.5704055,19.9406672 20.8544793,19.3797872 C21.590212,17.9263632 22.44,17.3992272 22.7633088,17.2438832 L23.3068203,17.0614832 L24.325106,16.7197872 L30.1787281,14.7559472 Z M31.99753,14.9489872 L33.0161198,14.9489872 L34.2445714,16.2254832 L41.6761106,23.9476912 L41.6761106,32.0638832 L38.449106,34.7618832 L36.9225899,36.0383792 L36.0816221,36.7415312 L36.0816221,36.0383792 L36.0816221,35.3999792 L36.0816221,34.7618832 L36.0816221,29.3242352 L36.0816221,26.3523312 C36.0816221,25.9996912 35.7957235,25.7139312 35.4429124,25.7139312 L31.8746544,25.7139312 C31.5221475,25.7139312 31.2362488,25.9996912 31.2362488,26.3523312 L31.2362488,28.6858352 L25.4133456,28.6858352 C24.816,28.6858352 24.6368571,28.5037392 24.6414194,27.9066832 L24.6748756,23.0229232 L30.8399447,16.2254832 L31.99753,14.9489872 Z M44.0086175,38.6059632 C44.0107465,38.6056592 44.0128756,38.6056592 44.0153088,38.6050512 C44.0128756,38.6056592 44.0107465,38.6056592 44.0086175,38.6059632 Z M41.8957051,44.5537232 C41.881106,44.2013872 41.5790876,43.9362992 41.2308387,43.9423792 C40.8786359,43.9572752 40.6045991,44.2545872 40.6195023,44.6072272 L41.1897788,58.2078832 L38.0743963,58.6471632 L36.0816221,57.7932272 L36.0816221,46.8811472 L43.5116406,39.9204592 L44.048765,59.8394512 L42.4787558,58.4598992 L41.8957051,44.5537232 Z M36.0816221,66.4550992 L36.0816221,59.1828112 L37.7352719,59.8911312 C37.8149585,59.9251792 37.9007281,59.9425072 37.9868018,59.9425072 C38.0166083,59.9425072 38.0464147,59.9403792 38.0762212,59.9361232 L41.6508664,59.4320912 L41.6761106,59.4542832 L41.6761106,66.4550992 L36.0816221,66.4550992 Z M34.8042028,45.2185712 L34.8042028,46.6048112 L34.8042028,58.2097072 L34.8042028,58.2124432 L34.8042028,66.4550992 L32.5136682,66.4550992 L32.5136682,58.6118992 L32.5136682,58.6091632 L32.5136682,45.2185712 L34.8042028,45.2185712 Z M32.5136682,43.9420752 L34.8042028,43.9420752 L34.8042028,39.1425232 L32.5136682,39.1425232 L32.5136682,43.9420752 Z M32.5136682,37.8660272 L34.8042028,37.8660272 L34.8042028,36.0383792 L32.5136682,36.0383792 L32.5136682,37.8660272 Z M32.5136682,28.6858352 L34.8042028,28.6858352 L34.8042028,26.9904272 L32.5136682,26.9904272 L32.5136682,28.6858352 Z M32.5136682,34.7618832 L34.8042028,34.7618832 L34.8042028,29.9626352 L32.5136682,29.9626352 L32.5136682,34.7618832 Z M24.9902765,67.7315952 L31.8746544,67.7315952 L35.4429124,67.7315952 L42.3145161,67.7315952 L44.0876959,67.7315952 L44.0876959,69.8346672 L22.4041106,69.8346672 L22.4041106,67.7315952 L24.9902765,67.7315952 Z M29.512341,58.3069872 L31.2362488,59.0341552 L31.2362488,66.4550992 L25.6229032,66.4550992 L25.5426083,58.0330832 L25.6338525,56.6641712 L29.1215115,56.6641712 L29.1215115,57.7187472 C29.1215115,57.9756272 29.2754101,58.2072752 29.512341,58.3069872 Z M24.4446359,36.0383792 L31.2362488,36.0383792 L31.2362488,38.5041232 L31.2362488,44.5804752 L31.2362488,57.6482192 L30.399235,57.2952752 L30.399235,56.0257712 L30.399235,48.4440112 C30.399235,48.0910672 30.1130323,47.8056112 29.7605253,47.8056112 C29.4077143,47.8056112 29.1215115,48.0910672 29.1215115,48.4440112 L29.1215115,55.3873712 L25.7190138,55.3873712 L26.3008479,46.6470672 C26.3242673,46.2953392 26.0581382,45.9910352 25.7062396,45.9676272 C25.3534286,45.9496912 25.0498894,46.2105232 25.02647,46.5622512 L24.4142212,55.7542992 L24.3835023,56.2154672 L24.2822212,57.7342512 L23.2502488,58.7660272 L24.4446359,36.0383792 Z M25.1925346,29.9626352 L25.496682,29.9626352 L25.5365253,29.9626352 L31.2362488,29.9626352 L31.2362488,34.7618832 L24.589106,34.7618832 L24.5842396,34.7618832 L23.3116866,34.7618832 L23.3068203,34.7618832 L23.2122304,34.7618832 C21.4886267,34.7618832 20.0913733,33.6693072 20.0913733,31.9465392 L20.0913733,29.9626352 L20.0913733,28.6858352 L20.0913733,28.0766192 L23.3068203,24.5310672 L23.3868111,24.4426032 L23.355788,27.4698352 L23.3554839,28.1173552 C23.3506175,28.7992272 23.8923041,29.9626352 25.1925346,29.9626352 Z M44.2196959,38.6026192 C44.1892811,38.5983632 44.1597788,38.5934992 44.1281475,38.5938032 C44.1330138,38.5938032 44.137576,38.5919792 44.1427465,38.5922832 C44.1695115,38.5925872 44.1938433,38.5989712 44.2196959,38.6026192 Z M44.3714654,38.6418352 C44.3431797,38.6305872 44.3151982,38.6184272 44.2850876,38.6111312 C44.3151982,38.6184272 44.3431797,38.6305872 44.3714654,38.6418352 Z M44.5098525,38.7187472 C44.4827834,38.6989872 44.4563226,38.6789232 44.4268203,38.6634192 C44.4563226,38.6789232 44.4827834,38.6989872 44.5098525,38.7187472 Z M44.1381843,37.5833072 L36.0816221,45.1313232 L36.0816221,44.5804752 L36.0816221,38.5041232 L36.0816221,38.4062352 L38.9135392,36.0383792 L40.4400553,34.7618832 L41.6761106,33.7285872 L42.7245069,32.8518512 C42.8695853,32.7305552 42.95353,32.5511952 42.95353,32.3621072 L42.95353,25.2752592 L46.3517696,28.8065232 L46.5333456,31.7240112 C46.5400369,31.8273712 46.5445991,31.9331632 46.546424,32.0407792 C46.5880922,34.1408112 45.6713917,36.1469072 44.1381843,37.5833072 Z M34.8042028,14.9489872 L34.8042028,14.7045712 C34.8519539,14.6954512 34.8994009,14.6854192 34.9468479,14.6747792 C34.9739171,14.6686992 35.0000737,14.6610992 35.0262304,14.6544112 L36.0816221,14.9523312 L41.6919263,16.5367792 L41.7135207,16.5428592 C42.0964424,16.6513872 42.3878157,16.7659952 42.6302212,16.9037072 C42.741235,16.9666352 42.8482949,17.0356432 42.95353,17.1079952 C45.8423226,19.1037552 46.54247,24.6478032 46.7109677,27.3382032 L46.228894,26.8372112 L42.95353,23.4333232 L41.6761106,22.1057552 L35.8626359,16.0649712 L34.7886912,14.9489872 L34.8042028,14.9489872 Z M36.6543318,10.6580272 L36.6543318,10.9422672 C36.6543318,11.2380592 36.601106,11.5210832 36.508341,11.7855632 C36.4073641,12.0719312 36.2595484,12.3361072 36.0697604,12.5659312 C35.7917696,12.9024592 35.4277051,13.1645072 35.0131521,13.3241072 C35.0052442,13.3271472 34.9973364,13.3298832 34.9891244,13.3329232 C34.9282949,13.3554192 34.8668571,13.3766992 34.8042028,13.3949392 C34.5800461,13.4593872 34.3440276,13.4958672 34.0994931,13.4958672 L34.0748571,13.4958672 L33.1359539,13.4958672 L33.1219631,13.4958672 L32.1611613,13.4958672 C31.9163226,13.4958672 31.6806083,13.4593872 31.4561475,13.3949392 C31.3931889,13.3766992 31.3320553,13.3554192 31.2712258,13.3329232 C30.8466359,13.1745392 30.4740553,12.9088432 30.1902857,12.5659312 C29.9925899,12.3263792 29.8392995,12.0494352 29.7389309,11.7484752 C29.6537696,11.4949392 29.6060184,11.2243792 29.6060184,10.9422672 L29.6060184,10.6209392 C13.3201382,12.3017552 0.618940092,26.0586672 0.618940092,42.7810992 C0.618940092,60.6380592 15.1018341,75.1142352 32.9677604,75.1142352 C50.8333825,75.1142352 65.3162765,60.6380592 65.3162765,42.7810992 C65.3162765,26.1702352 52.783576,12.4874992 36.6543318,10.6580272 Z" id="Fill-10" fill="#000000"></path>
                </g>
            </g>
        </g>
    </g>
</svg>