<?xml version="1.0" encoding="UTF-8"?>
<svg width="66px" height="74px" viewBox="0 0 66 74" version="1.1" xmlns="http://www.w3.org/2000/svg" xmlns:xlink="http://www.w3.org/1999/xlink">
    <!-- Generator: sketchtool 50.2 (55047) - http://www.bohemiancoding.com/sketch -->
    <title>37EE8AAC-4C77-4035-B185-781CB1EAC1B5</title>
    <desc>Created with sketchtool.</desc>
    <defs>
        <polygon id="path-1" points="0.151133945 0.0965654321 33 0.0965654321 33 40.1975309 0.151133945 40.1975309"></polygon>
        <polygon id="path-3" points="0.170479817 0.0232353909 23.4630303 0.0232353909 23.4630303 9.74485597 0.170479817 9.74485597"></polygon>
        <polygon id="path-5" points="0.0275807339 0.122876543 0.302852356 0.122876543 0.302852356 4.66458848 0.0275807339 4.66458848"></polygon>
        <polygon id="path-7" points="0 0.150192593 0.931477982 0.150192593 0.931477982 9.41876872 0 9.41876872"></polygon>
    </defs>
    <g id="Future-Project-Desktop" stroke="none" stroke-width="1" fill="none" fill-rule="evenodd">
        <g id="Future-Schools" transform="translate(-1001.000000, -1695.000000)">
            <g id="future-schools/locations" transform="translate(1.000000, 1523.000000)">
                <g id="Group-345" transform="translate(1000.000000, 172.000000)">
                    <path d="M43.7919688,61.4158889 C40.0638771,59.4468189 36.2083266,57.4110576 32.8783541,57.4110576 C29.5480789,57.4110576 25.6928312,59.4468189 21.9641339,61.4158889 C18.7137853,63.1322016 15.408033,64.8731811 12.3393358,65.3445885 C17.8479138,70.3738477 25.1509046,73.4474362 33.1538587,73.4663169 C41.1213908,73.4462181 48.3938037,70.3982099 53.8926936,65.4076255 C50.6919963,65.0549835 47.2124642,63.2217325 43.7919688,61.4158889" id="Fill-1" fill="#5CD8FF"></path>
                    <path d="M21.2398899,17.1814296 L22.6398165,21.4301868 C22.6646422,21.5054049 22.677055,21.5842774 22.677055,21.6640634 L22.6458716,35.1119646 C28.0784587,33.5875037 32.4995505,33.5975531 32.8743578,33.5990757 C33.2531009,33.5948123 38.7722752,33.5704502 45.1088807,35.7292403 L44.8930183,29.5601374 C44.8049174,29.5513062 44.7168165,29.5305984 44.6332569,29.4879646 C44.2720734,29.3018988 44.1294771,28.8566807 44.3147615,28.4939893 L46.5860092,24.032977 C46.624156,23.9574543 46.6771376,23.8925901 46.7364771,23.834121 L50.0373853,16.7441292 L50.0373853,15.9605819 C45.1715505,12.7645737 39.3668807,10.9002609 33.1374495,10.8880798 C28.9237431,10.9002609 24.9047064,11.7590263 21.2398899,13.3044996 L21.2398899,17.1814296 Z" id="Fill-3" fill="#5CD8FF"></path>
                    <path d="M32.772845,7.99388807 C32.7943404,7.99388807 32.8158358,7.99480165 32.8373312,7.99480165 C32.8663954,7.99480165 32.8951569,7.99388807 32.9242211,7.99388807 C38.980478,7.99388807 44.6567807,9.65660412 49.5295789,12.5489992 L49.6322119,12.3081185 C44.7463954,9.36669465 39.0322486,7.67474403 32.9242211,7.67474403 C28.6914413,7.67474403 24.6472761,8.4872214 20.9370468,9.96448066 L20.9370468,10.2193695 C24.6100376,8.78352593 28.6015239,7.99388807 32.772845,7.99388807" id="Fill-5" fill="#6693FA"></path>
                    <path d="M60.0850073,22.5298329 L60.207622,22.531051 C60.009622,22.2265243 59.8073835,21.9253473 59.5993927,21.6281292 L59.6108972,21.8446477 C59.7716587,22.0709111 59.9299982,22.2993062 60.0850073,22.5298329" id="Fill-7" fill="#6693FA"></path>
                    <g id="Group-11" transform="translate(32.697248, 33.726337)">
                        <mask id="mask-2" fill="white">
                            <use xlink:href="#path-1"></use>
                        </mask>
                        <g id="Clip-10"></g>
                        <path d="M32.2244092,0.0965654321 L32.2677028,0.752211523 C32.4850789,1.94230206 32.6388771,3.15492757 32.7248587,4.38612922 C32.8056936,5.32437613 32.8486844,6.27358601 32.8486844,7.23254074 C32.8486844,7.80109218 32.834455,8.36629383 32.8056936,8.92784115 C32.6960972,11.0991169 32.3745743,13.2146642 31.8650422,15.255907 C31.479033,16.8022938 30.984033,18.3051333 30.3891248,19.7568123 C29.8299413,21.1217012 29.1829596,22.4412156 28.4536294,23.7074379 C27.6513358,25.1003432 26.750345,26.4289934 25.760345,27.6836436 C25.0095193,28.6362033 24.2072257,29.5458247 23.3577028,30.409158 C17.4307211,36.4326971 9.21795963,40.1759399 0.151133945,40.1966477 C0.176565138,40.1966477 0.201693578,40.1975613 0.227124771,40.1975613 C18.2981064,40.1975613 33.0000606,25.4097424 33.0000606,7.23254074 C33.0000606,4.78292757 32.730611,2.39543786 32.2244092,0.0965654321" id="Fill-9" fill="#000000" mask="url(#mask-2)"></path>
                    </g>
                    <path d="M65.4249697,38.1125885 C65.338467,36.8813868 65.1837367,35.6687613 64.9647385,34.4786708 L64.9945881,34.9287613 C65.1886101,35.9735926 65.3317661,37.0360864 65.4249697,38.1125885" id="Fill-12" fill="#000000"></path>
                    <path d="M11.9092459,64.1480115 C17.4317505,69.179707 24.7526037,72.2490321 32.7728147,72.2490321 C32.7991541,72.2490321 32.8251908,72.2481185 32.8512275,72.2481185 C24.8479706,72.2295424 17.5449798,69.1556494 12.0367046,64.1266947 C11.9943193,64.1330897 11.9516312,64.141921 11.9092459,64.1480115" id="Fill-14" fill="#000000"></path>
                    <path d="M32.8346367,9.66997284 C32.8140495,9.66997284 32.7934624,9.66875473 32.7728752,9.66875473 C28.5842972,9.66875473 24.5876642,10.5077259 20.9370771,12.0239646 L20.9370771,12.0863926 C24.6021963,10.5409193 28.6209303,9.68215391 32.8346367,9.66997284" id="Fill-16" fill="#000000"></path>
                    <path d="M49.5294881,12.5491514 C44.6566899,9.65645185 38.9803872,7.99404033 32.9241303,7.99404033 C32.8953688,7.99404033 32.8663046,7.99495391 32.8372404,7.99495391 C38.9192312,8.00683045 44.6164239,9.6945177 49.4986073,12.6210198 L49.5294881,12.5491514 Z" id="Fill-18" fill="#000000"></path>
                    <path d="M59.9347037,22.528493 L60.087911,22.5297111 C59.9319624,22.2991844 59.7726633,22.0710938 59.6109275,21.8445259 L59.623111,22.079316 C59.7275844,22.2285342 59.832667,22.3774477 59.9347037,22.528493" id="Fill-20" fill="#000000"></path>
                    <polygon id="Fill-22" fill="#FFFFFF" points="55.5499294 22.0593695 55.6755716 24.6268346 55.6752688 24.6268346 55.9062688 29.3488263 56.5023881 41.5481679 58.0503606 43.1435835 57.0210028 22.0599786"></polygon>
                    <polygon id="Fill-24" fill="#FFFFFF" points="53.7597248 22.0593695 53.8835505 24.6268346 54.6192385 39.8644395 56.1557064 41.2180609 55.2304954 22.0593695"></polygon>
                    <polygon id="Fill-26" fill="#FFFFFF" points="53.3221569 24.6267432 53.3221569 29.348735 54.1114321 29.348735 54.6191477 39.8646527 53.8834596 24.6267432"></polygon>
                    <polygon id="Fill-28" fill="#FFFFFF" points="55.9062083 29.3488263 55.6752083 24.6268346 55.3548963 24.6268346 55.2307679 22.0593695 56.1556761 41.2180609 55.5828688 29.3488263"></polygon>
                    <path d="M3.39760734,31.1070115 L17.8319284,30.7668551 L18.1919009,13.4066988 C11.2682587,17.1676041 5.91529541,23.4920156 3.39760734,31.1070115" id="Fill-30" fill="#FFFFFF"></path>
                    <path d="M18.1919615,13.4066683 L18.193778,13.3253597 C11.1950532,17.0762156 5.78093394,23.438084 3.24508073,31.1106354 L3.39766789,31.1069811 C5.91535596,23.4919852 11.2683193,17.1675737 18.1919615,13.4066683" id="Fill-32" fill="#FFFFFF"></path>
                    <path d="M59.5220697,47.5376 C59.0185927,46.7059374 58.4124826,45.8563078 57.7010147,44.9938881 L52.9814092,44.9938881 L52.9814092,40.4384724 C44.3008954,33.790349 32.7254642,33.8634354 32.5843817,33.8579539 L32.5843817,33.858563 L32.565611,33.858563 C32.4429963,33.858563 19.7434459,33.7952214 10.9869413,41.4016905 C6.66454679,45.1562008 4.51470275,48.7703243 3.79748257,51.9456247 C4.08237248,52.706637 4.39602385,53.4536412 4.73692294,54.1857235 C8.7377945,51.3487523 18.0622624,46.1340362 32.5749963,46.1340362 C47.7646844,46.1340362 57.3292349,51.5141103 61.0146385,54.0687852 C61.1941706,53.6789909 61.3661339,53.2849333 61.5299229,52.8866123 C61.2974092,51.2412543 60.6761615,49.4619045 59.5541615,47.5939374 C59.5438679,47.5747523 59.5308495,47.5573942 59.5220697,47.5376" id="Fill-34" fill="#FFFFFF"></path>
                    <path d="M3.79760367,51.9455333 C3.77883303,52.0280601 3.75703486,52.1118049 3.74038349,52.1937226 C4.01013578,52.8971794 4.30471376,53.5881506 4.62290642,54.2660272 C4.6592367,54.2398379 4.69950275,54.2121259 4.73704404,54.1856321 C4.39614495,53.4538543 4.08219083,52.7068502 3.79760367,51.9455333" id="Fill-36" fill="#FFFFFF"></path>
                    <path d="M57.7011358,44.9938881 C56.9142826,44.0398058 55.9981541,43.0695835 54.9321633,42.0883984 C54.931255,42.0868757 54.9297413,42.0862667 54.9291358,42.0856576 C54.6814844,41.8581761 54.4271725,41.6300856 54.1631725,41.4010815 C53.7765578,41.0651885 53.3820716,40.7448263 52.9815303,40.4384724 L52.9815303,44.9938881 L57.7011358,44.9938881 Z" id="Fill-38" fill="#FFFFFF"></path>
                    <path d="M56.3612147,20.5825366 C55.1181138,19.1287259 53.7439211,17.791549 52.2586183,16.5874502 L52.4499578,20.5825366 L56.3612147,20.5825366 Z" id="Fill-40" fill="#FFFFFF"></path>
                    <path d="M62.4505624,50.3440881 C63.3788009,47.3801292 63.8807642,44.2273638 63.8807642,40.9588782 C63.8807642,40.7100798 63.8771312,40.4618905 63.8713789,40.2143103 L63.6963881,37.5603597 C63.2265165,33.2056272 61.8659477,29.1161374 59.8005716,25.4810016 L60.9147,46.9875942 C61.5919569,48.1362691 62.0951312,49.2578412 62.4505624,50.3440881" id="Fill-42" fill="#FFFFFF"></path>
                    <path d="M10.0273982,40.2838337 C12.4409394,38.1877761 15.1054624,36.6511342 17.7327468,35.5192082 L17.8011688,32.2458502 L2.94662752,32.5951424 C2.94602202,32.5975786 2.94541651,32.6000148 2.94450826,32.602451 L3.15976514,32.5987967 L4.76828807,38.8827062 L1.89849908,43.2258667 C2.05350826,45.3910519 2.42710459,47.4965498 2.99960917,49.5186074 C4.13644404,46.6155539 6.34714128,43.4807556 10.0273982,40.2838337" id="Fill-44" fill="#FFFFFF"></path>
                    <path d="M2.9447149,32.6023812 C2.94562349,32.5999587 2.94622921,32.5975362 2.94683494,32.5954165 L2.79449516,32.5987474 C2.79388943,32.6008671 2.79328371,32.602684 2.79267798,32.6048037 L2.9447149,32.6023812 Z" id="Fill-46" fill="#FFFFFF"></path>
                    <path d="M1.89862018,43.2258971 L1.76450092,43.4290165 C1.93434495,45.6005967 2.32338165,47.7112716 2.91314312,49.7369835 C2.94008807,49.6645062 2.97127156,49.5911152 2.99973028,49.5186379 C2.42722569,47.4962757 2.05362936,45.3910823 1.89862018,43.2258971" id="Fill-48" fill="#FFFFFF"></path>
                    <path d="M59.3231009,44.6609794 L58.4578349,27.9570782 L58.4578349,43.6121893 C58.7605872,43.9630041 59.0527431,44.3129053 59.3231009,44.6609794" id="Fill-50" fill="#FFFFFF"></path>
                    <path d="M58.0503,43.1435226 C58.1913826,43.3003539 58.3230798,43.4559671 58.4578046,43.6121893 L58.4578046,27.9570782 L58.1983459,22.950963 C57.9870248,22.6500905 57.7699514,22.353177 57.5483367,22.0602222 L57.021245,22.0602222 L58.0503,43.1435226 Z" id="Fill-52" fill="#FFFFFF"></path>
                    <path d="M5.40924495,55.542451 C6.79948349,58.1857432 8.55484128,60.6055128 10.6081073,62.7341547 C13.7067771,62.7234963 17.2798596,60.8436527 20.9788872,58.8901136 C24.8653183,56.8388214 28.8825385,54.716879 32.5752083,54.716879 C36.266667,54.716879 40.2857037,56.8388214 44.1712266,58.8901136 C48.0942908,60.9615045 51.878089,62.9570683 55.1033092,62.7195374 C57.1817037,60.56227 58.9543183,58.1062617 60.3518229,55.4218584 C56.9519147,53.065735 47.4712266,47.6101383 32.5752083,47.6101383 C18.3721899,47.6101383 9.15368532,52.8845416 5.40924495,55.542451" id="Fill-54" fill="#FFFFFF"></path>
                    <path d="M5.40924495,55.542451 C5.37291468,55.5680313 5.33385963,55.5951342 5.29874037,55.6204099 C6.68322661,58.234772 8.42556606,60.6289613 10.4600615,62.7372 C10.5088046,62.7381136 10.5590615,62.7341547 10.6081073,62.7341547 C8.55484128,60.6055128 6.79948349,58.1857432 5.40924495,55.542451" id="Fill-56" fill="#FFFFFF"></path>
                    <polygon id="Fill-58" fill="#000000" points="15.6495991 1.82700912 15.7238004 1.82700912 15.6923027 1.78946008"></polygon>
                    <path d="M14.9687092,13.0988831 L3.09536972,13.353163 L2.18014954,29.1392206 C3.20284679,26.4697391 4.56644312,23.9710971 6.20796606,21.687451 C8.5633789,18.3002 11.5385257,15.3822247 14.9687092,13.0988831" id="Fill-60" fill="#FFFFFF"></path>
                    <path d="M6.20811743,21.6874815 C8.66071376,18.2761728 11.7406128,15.3499753 15.2843284,13.092214 L14.9688606,13.0989136 C11.5383743,15.3822551 8.56322752,18.3002305 6.20811743,21.6874815" id="Fill-62" fill="#FFFFFF"></path>
                    <polygon id="Fill-64" fill="#FFFFFF" points="15.2164514 2.20750831 16.0378183 2.19723276 15.7238642 1.82731276 15.6496899 1.82731276"></polygon>
                    <polygon id="Fill-66" fill="#FFFFFF" points="57.0314477 13.8677827 56.9036862 11.7832971 52.4405119 11.6785399 52.5246771 13.8677827"></polygon>
                    <path d="M62.8532229,24.7522387 L61.5259569,24.7406667 C62.0963422,25.7897613 62.6104156,26.8744856 63.0663606,27.9890535 L62.8532229,24.7522387 Z" id="Fill-68" fill="#FFFFFF"></path>
                    <path d="M63.0663908,27.9891753 C62.6104459,26.8743029 62.0963725,25.7898831 61.5259872,24.7407885 L61.4472716,24.7401794 C62.0458128,25.8008461 62.5880422,26.898056 63.0691156,28.0275457 L63.0663908,27.9891753 Z" id="Fill-70" fill="#FFFFFF"></path>
                    <path d="M63.0974532,28.462014 L63.0689945,28.0277588 C62.5879211,26.8979646 62.0456917,25.8010593 61.4474532,24.7400881 L61.2951688,24.73887 C61.9703064,25.9353556 62.5730862,27.1787383 63.0974532,28.462014" id="Fill-72" fill="#FFFFFF"></path>
                    <polygon id="Fill-74" fill="#FFFFFF" points="16.8733239 3.66644115 13.6111679 3.70633416 13.5551587 4.7201037 16.8733239 4.6631572"></polygon>
                    <path d="M19.4726578,9.81273498 L19.0383165,8.80261975 L18.9962835,10.8140189 C19.1543642,10.7388008 19.3130541,10.6638872 19.4726578,10.5914099 L19.4726578,9.81273498 Z" id="Fill-76" fill="#FFFFFF"></path>
                    <path d="M19.472689,10.8333811 L19.472689,10.5913794 C19.3130853,10.663465 19.1543954,10.7379737 18.9963147,10.8127852 L18.9911367,11.0523638 C19.1507404,10.9784609 19.3112578,10.9048609 19.472689,10.8333811" id="Fill-78" fill="#FFFFFF"></path>
                    <path d="M58.0216294,19.548516 L57.8315009,15.8753144 L54.4806385,15.8753144 C55.7531064,17.0057177 56.9380789,18.233265 58.0216294,19.548516" id="Fill-80" fill="#FFFFFF"></path>
                    <path d="M58.0346174,19.8006947 L58.0215991,19.5485465 C56.9380486,18.2332955 55.7530761,17.0057481 54.4806083,15.8753449 L54.1639294,15.8753449 C55.5599202,17.0733531 56.8550945,18.3864724 58.0346174,19.8006947" id="Fill-82" fill="#FFFFFF"></path>
                    <path d="M58.0446688,19.992516 L58.034678,19.8006642 C56.855155,18.386442 55.5599807,17.0733226 54.1639899,15.8753144 L54.0126138,15.8753144 C55.4721826,17.1275284 56.8224578,18.5045984 58.0446688,19.992516" id="Fill-84" fill="#FFFFFF"></path>
                    <polygon id="Fill-86" fill="#FFFFFF" points="17.6257541 6.12747407 12.3381853 6.21822305 12.1274697 11.6823465 17.511011 11.5669309"></polygon>
                    <path d="M60.3516716,55.4218584 C58.9544697,58.1062617 57.1815523,60.56227 55.1031578,62.7195374 C55.1600752,62.7155786 55.2154789,62.7070519 55.2720936,62.7015704 C57.3229376,60.5695786 59.0752679,58.1461547 60.4618734,55.4995128 C60.4240294,55.4730189 60.3910294,55.4489613 60.3516716,55.4218584" id="Fill-88" fill="#000000"></path>
                    <path d="M57.374133,62.1049416 C57.7462156,61.9185712 58.1083073,61.6910897 58.4576835,61.4100115 C59.4476835,60.1553613 60.3483716,58.8267111 61.1509679,57.4338058 C61.2763073,57.0601514 61.3807569,56.6734025 61.4594725,56.2720362 C60.3084083,58.3674848 58.9360321,60.322242 57.374133,62.1049416" id="Fill-90" fill="#000000"></path>
                    <path d="M60.4619642,55.4996041 C59.0753587,58.1462461 57.3230284,60.56967 55.2718817,62.7016617 C56.0036339,62.6294889 56.706322,62.4394642 57.3741936,62.1047893 C58.9360927,60.3220897 60.3084688,58.3673325 61.459533,56.2721885 C61.4616523,56.26153 61.4646798,56.2517852 61.4664963,56.2417358 C61.2506339,56.0708963 60.9100376,55.8135712 60.4619642,55.4996041" id="Fill-92" fill="#000000"></path>
                    <path d="M4.06163394,56.5617325 C4.02681743,56.5900535 3.98685413,56.6217243 3.95536789,56.6479136 C4.98351468,58.5509012 6.19331284,60.3406049 7.55963394,61.9947942 C7.64773486,62.043823 7.73674404,62.0876749 7.82605596,62.1315267 C6.39191835,60.4143004 5.12762477,58.5493786 4.06163394,56.5617325" id="Fill-94" fill="#000000"></path>
                    <path d="M4.40017156,56.2921654 C4.27392385,56.3908321 4.16099725,56.4806675 4.0616945,56.5616716 C5.12768532,58.5496222 6.3919789,60.414544 7.82581376,62.1314658 C8.1536945,62.2919514 8.49035505,62.4171119 8.83428165,62.5115152 C7.12706147,60.6264947 5.63691468,58.5398774 4.40017156,56.2921654" id="Fill-96" fill="#000000"></path>
                    <path d="M4.40017156,56.2921654 C5.63691468,58.5398774 7.12706147,60.6264947 8.83428165,62.5115152 C9.35925413,62.6552519 9.90148349,62.7283383 10.4600615,62.7374741 C8.42556606,60.6289309 6.68322661,58.2347416 5.29874037,55.6203794 C4.94482294,55.8737457 4.64963945,56.0972683 4.40017156,56.2921654" id="Fill-98" fill="#000000"></path>
                    <path d="M56.3612147,20.5825366 L56.5122881,20.5825366 C55.2252881,19.0772609 53.7984165,17.6965366 52.2528661,16.4598535 L52.2586183,16.5874502 C53.7439211,17.791549 55.1181138,19.1287259 56.3612147,20.5825366" id="Fill-100" fill="#FFFFFF"></path>
                    <path d="M52.2527752,16.4599753 C53.7983257,17.6966584 55.2251972,19.0773827 56.5121972,20.5826584 L58.0750046,20.5826584 L58.0447294,19.9924856 C56.8225183,18.5045679 55.4722431,17.1274979 54.0123716,15.8755885 L52.2246193,15.8755885 L52.2527752,16.4599753 Z" id="Fill-102" fill="#FFFFFF"></path>
                    <path d="M3.53509343,55.082372 C3.58809435,55.0403473 3.6456382,54.9958864 3.70287919,54.9514255 C3.6407924,54.825656 3.57840275,54.6998864 3.51783028,54.5728988 C3.5208589,54.7440428 3.52358466,54.9151868 3.53509343,55.082372" id="Fill-104" fill="#000000"></path>
                    <path d="M3.74026239,52.1938444 C3.57193211,53.0200255 3.5047211,53.8136222 3.5180422,54.5728074 C3.57828991,54.6997951 3.64065688,54.8255646 3.7027211,54.9516387 C3.96702385,54.7457786 4.27310642,54.5161654 4.62278532,54.2658444 C4.30459266,53.5879679 4.01031743,52.8969967 3.74026239,52.1938444" id="Fill-106" fill="#000000"></path>
                    <path d="M49.7346633,14.642042 C44.8842688,11.4962807 39.1125991,9.66881564 32.9243422,9.66881564 C32.8943697,9.66881564 32.8643972,9.66972922 32.8347275,9.67003374 C39.0641587,9.68221481 44.8688284,11.546223 49.7346633,14.7425358 L49.7346633,14.642042 Z" id="Fill-108" fill="#000000"></path>
                    <path d="M32.8373009,7.99492346 C32.8158055,7.99492346 32.7943101,7.99400988 32.7728147,7.99400988 C28.6014936,7.99400988 24.6100073,8.78334321 20.9370165,10.2191868 L20.9370165,10.2773514 C24.6260532,8.81379588 28.6402459,8.00619095 32.8373009,7.99492346" id="Fill-110" fill="#000000"></path>
                    <path d="M20.9371376,12.0241169 C24.5877248,10.5078782 28.5843578,9.668907 32.7729358,9.668907 C32.7935229,9.668907 32.8138073,9.66982058 32.8346972,9.6701251 C32.864367,9.66982058 32.8943394,9.668907 32.9243119,9.668907 C39.1125688,9.668907 44.8842385,11.496372 49.734633,14.6421333 L49.734633,14.1838206 C49.567211,14.1360099 49.4188624,14.0318617 49.3207706,13.8820346 C49.1848349,13.6749564 49.1615229,13.4130634 49.2590092,13.1849728 L49.498789,12.6209893 C44.6166055,9.69448724 38.9191101,8.0068 32.837422,7.99492346 C28.6400642,8.00619095 24.6261743,8.81379588 20.9371376,10.2773514 L20.9371376,12.0241169 Z" id="Fill-112" fill="#000000"></path>
                    <g id="Group-116" transform="translate(9.385321, 64.179012)">
                        <mask id="mask-4" fill="white">
                            <use xlink:href="#path-3"></use>
                        </mask>
                        <g id="Clip-115"></g>
                        <path d="M0.335479817,0.0372436214 C0.280681651,0.0320666667 0.225277982,0.0296304527 0.170479817,0.0232353909 C6.10896606,6.02454403 14.3244523,9.74494733 23.387645,9.74494733 C23.4130761,9.74494733 23.4379018,9.74403374 23.4630303,9.74403374 C14.4367734,9.72332593 6.25670917,6.01358107 0.335479817,0.0372436214" id="Fill-114" fill="#000000" mask="url(#mask-4)"></path>
                    </g>
                    <path d="M32.8511972,72.248149 C32.8757202,72.248149 32.8999404,72.2490626 32.9241606,72.2490626 C40.9159128,72.2490626 48.2122431,69.2013588 53.7274817,64.2019432 C53.6817661,64.1973753 53.6360505,64.1946346 53.5900321,64.1894576 C48.0911422,69.180042 40.8184266,72.2283547 32.8511972,72.248149" id="Fill-117" fill="#000000"></path>
                    <path d="M55.3426651,64.2263663 C49.5019679,69.7992058 41.6104266,73.2187366 32.9241606,73.2187366 C24.2527294,73.2187366 16.3726927,69.8101687 10.5350229,64.2534691 C10.5204908,64.2534691 10.505656,64.2552963 10.4911239,64.2552963 C10.2319679,64.2552963 9.9755367,64.24007 9.72092202,64.2163169 C15.6418486,70.1926543 23.8222156,73.9020947 32.8481697,73.9228025 C41.9149954,73.9020947 50.1277569,70.1588519 56.0550413,64.1353128 C55.8195,64.1767284 55.5821422,64.206572 55.3426651,64.2263663" id="Fill-119" fill="#000000"></path>
                    <path d="M53.7275119,64.2018214 C48.2122734,69.201237 40.9159431,72.2489407 32.9241908,72.2489407 C32.8999706,72.2489407 32.8757505,72.2480272 32.8512275,72.2480272 C32.8251908,72.2480272 32.7991541,72.2489407 32.7728147,72.2489407 C24.7526037,72.2489407 17.4317505,69.1796156 11.9092459,64.1479202 C11.4454294,64.2140025 10.9867596,64.2511547 10.5350532,64.2532864 C16.3727229,69.8102905 24.2527596,73.2188584 32.9241908,73.2188584 C41.6104569,73.2188584 49.5019982,69.7993276 55.3426954,64.2264881 C55.1168422,64.2450642 54.889778,64.2551136 54.6602917,64.2551136 C54.3526954,64.2551136 54.0411633,64.2331877 53.7275119,64.2018214" id="Fill-121" fill="#000000"></path>
                    <path d="M18.9893505,11.1250957 C19.1501725,11.0496948 19.3106899,10.9739911 19.4727303,10.9010127 L19.4727303,10.8346963 C19.3112991,10.9061606 19.1507817,10.9797446 18.991178,11.0536314 L18.9893505,11.1250957 Z" id="Fill-123" fill="#FFFFFF"></path>
                    <path d="M19.1402028,11.5759449 C19.1779716,11.5862988 19.2178725,11.5920848 19.2525954,11.6076156 C19.3019385,11.6298461 19.3427532,11.6639531 19.3857,11.6962329 C19.4134174,11.7175498 19.4460083,11.7282082 19.4718982,11.7537885 C19.4718982,11.7537885 19.4718982,11.7543975 19.4728119,11.7553111 L19.4728119,10.9014181 C19.3107716,10.9748091 19.1502541,11.0509407 18.9894321,11.1267679 L18.9809037,11.5427514 C19.0369477,11.5448831 19.0872046,11.561023 19.1402028,11.5759449" id="Fill-125" fill="#FFFFFF"></path>
                    <path d="M58.1865991,22.7215021 C58.0273514,22.498893 57.8647734,22.2784156 57.6997734,22.06007 L57.5483972,22.06007 C57.7700119,22.3533292 57.9870853,22.6499383 58.1984064,22.9511152 L58.1865991,22.7215021 Z" id="Fill-127" fill="#FFFFFF"></path>
                    <path d="M58.1550404,22.0601004 L57.6996826,22.0601004 C57.8656826,22.2784461 58.0292459,22.4986189 58.1894587,22.7215325 L58.1550404,22.0601004 Z" id="Fill-129" fill="#FFFFFF"></path>
                    <g id="Group-133" transform="translate(65.394495, 37.989712)">
                        <mask id="mask-6" fill="white">
                            <use xlink:href="#path-5"></use>
                        </mask>
                        <g id="Clip-132"></g>
                        <path d="M0.0705871927,4.0887284 L0.108444991,4.66458848 C0.137216917,4.10304115 0.15145145,3.53783951 0.15145145,2.96928807 C0.15145145,2.01002881 0.108444991,1.06112346 0.0275807339,0.122876543 C0.0817931009,0.893938272 0.111170752,1.67200412 0.111170752,2.45707407 C0.111170752,3.00430864 0.0969362202,3.54819342 0.0705871927,4.0887284" id="Fill-131" fill="#000000" mask="url(#mask-6)"></path>
                    </g>
                    <path d="M65.465067,42.0784403 C65.4914064,41.5379053 65.5056358,40.9940206 65.5056358,40.446786 C65.5056358,39.661716 65.4762688,38.8836502 65.4220761,38.1125885 C65.3297367,37.0360864 65.1871404,35.9735926 64.9942872,34.9287613 L65.465067,42.0784403 Z" id="Fill-134" fill="#000000"></path>
                    <path d="M1.0553945,48.6553654 L0.897357798,48.6267399 C1.22856881,50.0214724 1.64909174,51.3817934 2.15105505,52.7019169 C2.16377064,52.6105588 2.18284404,52.5170691 2.19737615,52.4251021 C1.74445872,51.2009045 1.36268807,49.9426 1.0553945,48.6553654" id="Fill-136" fill="#000000"></path>
                    <path d="M1.13523167,48.419814 C1.23093619,48.419814 1.29635446,48.4627523 1.3411781,48.5212214 C1.26970257,48.2398387 1.20307285,47.9563243 1.13947175,47.6718963 C1.13765457,47.9350074 1.12523722,48.419814 1.13523167,48.419814" id="Fill-138" fill="#000000"></path>
                    <path d="M0.977344954,47.4370486 C1.0115684,47.4679424 1.05306055,47.4885383 1.10212426,47.4976247 C1.06911226,47.3467901 1.03488881,47.1968642 1.00399684,47.0454239 L0.977344954,47.4370486 Z" id="Fill-140" fill="#000000"></path>
                    <path d="M1.39008716,48.7157226 L1.05554587,48.6554263 C1.3625367,49.9426609 1.74461009,51.2009654 2.19752752,52.425163 C2.2344633,52.1970724 2.27775688,51.9668502 2.32771101,51.7348008 C1.96834404,50.7499613 1.65529817,49.7425868 1.39008716,48.7157226" id="Fill-142" fill="#000000"></path>
                    <path d="M2.79446422,32.5988576 L1.97824404,32.6179349 L2.79264771,32.6049139 C2.79325321,32.6027942 2.79385872,32.6009773 2.79446422,32.5988576" id="Fill-144" fill="#000000"></path>
                    <path d="M1.76437982,43.4290165 L1.76165505,43.4329753 C1.68112294,42.55807 1.54094862,39.0928601 1.54094862,39.0928601 L1.97812294,32.6180123 L1.00386606,47.0452716 C1.03504954,47.197535 1.0689578,47.3485802 1.1019578,47.49993 C1.11346239,47.5020617 1.12345321,47.5054115 1.13526055,47.5063251 C1.13949908,47.5063251 1.13980183,47.5742346 1.13949908,47.6719877 C1.20307706,47.9564156 1.26968257,48.2396255 1.34113211,48.5213128 C1.38684771,48.5816091 1.41046239,48.6580453 1.42287523,48.7213868 L1.43801284,48.7244321 C1.43559083,48.7673704 1.43468257,48.7953868 1.43437982,48.814572 C1.43619633,48.84807 1.43377431,48.8550741 1.43437982,48.814572 C1.43316881,48.792037 1.43014128,48.7597572 1.42287523,48.7213868 L1.39017798,48.7156008 C1.65538899,49.742465 1.96843486,50.7498395 2.32749908,51.734679 C2.46858165,51.0829918 2.65810459,50.4176008 2.91302202,49.7369835 C2.3235633,47.7112716 1.93452661,45.6005967 1.76437982,43.4290165" id="Fill-146" fill="#000000"></path>
                    <path d="M63.8806431,40.9589086 C63.8806431,44.2273942 63.3789826,47.3798551 62.4504413,50.3441185 C62.4773862,50.4263407 62.4976706,50.5070403 62.5227991,50.5886535 C63.3768633,47.9389663 63.8879092,45.1364066 64.0041661,42.2324395 L63.8715606,40.2143407 C63.8770101,40.461921 63.8806431,40.7101103 63.8806431,40.9589086" id="Fill-148" fill="#000000"></path>
                    <path d="M63.0333,52.985949 C63.0523734,53.1522206 63.0741716,53.3191012 63.0865844,53.4829366 C63.6814927,52.0315621 64.1761899,50.5287226 64.5625018,48.9823358 C64.5101257,48.9104675 64.4765202,48.8261136 64.4526028,48.7371918 C64.0744651,50.1955704 63.5985385,51.614056 63.0333,52.985949" id="Fill-150" fill="#000000"></path>
                    <path d="M64.0042266,42.23247 C63.8879697,45.136437 63.3769239,47.9389967 62.5225569,50.588684 C62.7756578,51.4106016 62.9430798,52.2108979 63.0333,52.9859185 C63.5985385,51.6140255 64.0744651,50.1955399 64.4526028,48.7371613 C64.4398872,48.6896551 64.4259606,48.6424535 64.422933,48.591293 L64.0042266,42.23247 Z" id="Fill-152" fill="#000000"></path>
                    <path d="M61.0145477,54.0688765 C61.054511,54.0965885 61.0902358,54.1218642 61.1286853,54.1489671 C61.2773367,53.8286049 61.422355,53.5064156 61.5604101,53.1802675 C61.5492083,53.0819053 61.5440615,52.9859794 61.5298321,52.8867037 C61.3660431,53.2850247 61.1943826,53.6790823 61.0145477,54.0688765" id="Fill-154" fill="#000000"></path>
                    <path d="M61.6369156,54.5122979 C61.6423651,54.080479 61.6123927,53.6343473 61.5603193,53.1802979 C61.4222642,53.5064461 61.2775486,53.8286354 61.1285945,54.1489975 C61.3123651,54.2775078 61.4849339,54.4005366 61.6369156,54.5122979" id="Fill-156" fill="#000000"></path>
                    <path d="M6.20811743,21.6874815 C4.56629174,23.9711276 3.20269541,26.4697695 2.17999817,29.139251 L2.15244771,29.6112675 C2.25689725,29.3259259 2.36619083,29.0433251 2.47790642,28.7619424 C3.43520917,26.2392428 4.6928422,23.8666749 6.20811743,21.6874815" id="Fill-158" fill="#FFFFFF"></path>
                    <path d="M15.4408514,13.0889251 L15.2840257,13.0922749 C11.7406128,15.3500362 8.66041101,18.2762337 6.20811743,21.6875424 C4.6928422,23.8667358 3.43520917,26.2393037 2.47790642,28.7620033 C5.05796147,22.2682749 9.63466789,16.7870979 15.4408514,13.0889251" id="Fill-160" fill="#FFFFFF"></path>
                    <path d="M2.47793494,28.7619424 C2.36617872,29.0433251 2.25714826,29.3262305 2.15266073,29.6112675 L2.14963211,29.6660823 C2.25472536,29.3627737 2.36405868,29.0612922 2.47793494,28.7619424" id="Fill-162" fill="#FFFFFF"></path>
                    <path d="M3.24502018,31.1105745 C5.78087339,23.438023 11.1949927,17.0764593 18.1937174,13.3252988 L18.1997725,13.0296033 L15.4407908,13.088986 C9.63460734,16.7868543 5.05790092,22.2680313 2.47784587,28.7620642 C2.36401101,29.061414 2.25471743,29.3625909 2.14966239,29.6662041 L2.06428624,31.1382864 L3.24502018,31.1105745 Z" id="Fill-164" fill="#FFFFFF"></path>
                    <path d="M63.6964486,37.5603597 L63.5635404,35.5355613 C62.9156505,31.8236848 61.6147239,28.3353309 59.7854945,25.1938329 L59.8006321,25.4810016 C61.8660083,29.1161374 63.2265771,33.2056272 63.6964486,37.5603597" id="Fill-166" fill="#FFFFFF"></path>
                    <path d="M59.761244,24.725623 L59.7854642,25.1939852 C61.6146936,28.3351786 62.9156202,31.8235325 63.5635101,35.5357136 L63.0975743,28.4621663 C62.5729046,27.178586 61.9704275,25.9355078 61.2949872,24.7387177 L59.761244,24.725623 Z" id="Fill-168" fill="#FFFFFF"></path>
                    <path d="M59.9328658,22.526065 C59.8314069,22.3758362 59.7269194,22.2277276 59.6230376,22.079316 L59.646358,22.523642 L59.9328658,22.526065 Z" id="Fill-170" fill="#000000"></path>
                    <path d="M44.1712872,58.890144 C40.2857642,56.8388519 36.2667275,54.7169095 32.5749661,54.7169095 C28.8825991,54.7169095 24.8650761,56.8388519 20.9789477,58.890144 C17.2799202,60.8436831 13.7068376,62.7232222 10.6081679,62.7341852 C11.0698651,63.2129012 11.545489,63.6782181 12.0365532,64.1264815 C15.1052505,63.6550741 18.4110028,61.9140947 21.6613514,60.1977819 C25.3900486,58.2287119 29.2452963,56.1929506 32.5755716,56.1929506 C35.905544,56.1929506 39.7610945,58.2287119 43.4891862,60.1977819 C46.9096817,62.0036255 50.3892138,63.8368765 53.589911,64.1895185 C54.110645,63.716893 54.6150303,63.2263004 55.103067,62.7195679 C51.8781495,62.9570988 48.0943514,60.961535 44.1712872,58.890144" id="Fill-172" fill="#000000"></path>
                    <path d="M10.6080771,62.7340634 C10.5590312,62.7340634 10.5087743,62.7380222 10.4600312,62.7374132 C10.928389,63.2225243 11.4106734,63.6936272 11.9093064,64.1479811 C11.951389,64.1418905 11.9943798,64.1330593 12.0367651,64.1266642 C11.5457009,63.6780963 11.0697743,63.2127794 10.6080771,62.7340634" id="Fill-174" fill="#000000"></path>
                    <path d="M15.6921661,1.78946008 L15.7236523,1.8272214 L17.6479459,1.8272214 L16.3273404,0.261040329 C16.1995789,0.109690535 16.017322,0.0168098765 15.820533,0.00188806584 C15.6210193,-0.0121201646 15.4302853,0.0527440329 15.2822394,0.184299588 L13.4266706,1.8272214 L15.649478,1.8272214 L15.6921661,1.78946008 Z" id="Fill-176" fill="#000000"></path>
                    <path d="M63.6964486,37.5603597 L63.8715031,40.2143103 C63.8506056,39.3199152 63.7909417,38.4349605 63.6964486,37.5603597" id="Fill-178" fill="#000000"></path>
                    <path d="M32.5750569,46.1339449 C18.0620202,46.1339449 8.73785505,51.3489654 4.73698349,54.1856321 C4.95042385,54.6439449 5.17446055,55.0964716 5.40909358,55.5426033 C9.1538367,52.8846938 18.3723413,47.609986 32.5750569,47.609986 C47.4710752,47.609986 56.9520661,53.0655827 60.3516716,55.4220107 C60.5832771,54.9770971 60.8039835,54.526093 61.0146991,54.0689984 C57.3292954,51.5140189 47.764745,46.1339449 32.5750569,46.1339449" id="Fill-180" fill="#000000"></path>
                    <path d="M4.62278532,54.2659053 C4.8374367,54.7236091 5.0626844,55.1752222 5.29852844,55.6204403 C5.33395046,55.5951646 5.3730055,55.5680617 5.40933578,55.5424815 C5.1744,55.0963498 4.9503633,54.6441276 4.73692294,54.1855103 C4.69938165,54.2120041 4.6591156,54.2400206 4.62278532,54.2659053" id="Fill-182" fill="#000000"></path>
                    <path d="M62.8532229,24.7522387 L63.0663606,27.9890535 C63.1711128,28.2451605 63.2725349,28.5024856 63.3709294,28.7619424 C64.0176083,30.3893333 64.5377367,32.0803704 64.9216266,33.8228724 L64.3067367,24.4833416 L64.8044615,23.7037531 C64.9482688,23.4777942 64.9591679,23.1906255 64.8323147,22.9533992 C64.7045532,22.7170864 64.4602321,22.5687819 64.1929018,22.5666502 L60.2077734,22.5310206 C60.6746174,23.2487901 61.115122,23.9854403 61.5259569,24.7406667 L62.8532229,24.7522387 Z" id="Fill-184" fill="#000000"></path>
                    <path d="M61.4473927,24.7400272 L61.5261083,24.7406362 C61.1149706,23.9854099 60.6744661,23.2487597 60.207622,22.5309901 L60.0850073,22.529772 C60.5675945,23.2469325 61.0211174,23.9848008 61.4473927,24.7400272" id="Fill-186" fill="#000000"></path>
                    <path d="M63.3710401,28.7617901 C63.2726098,28.5026379 63.1711509,28.2450082 63.0663606,27.9892058 L63.0690863,28.0275761 C63.1726652,28.270893 63.2732156,28.515428 63.3710401,28.7617901" id="Fill-188" fill="#000000"></path>
                    <path d="M64.9647991,34.4786403 L64.9215055,33.8229942 C64.5379183,32.0804922 64.0174872,30.3891506 63.3708083,28.7617597 C64.0662303,30.5944016 64.6039183,32.505307 64.9647991,34.4786403" id="Fill-190" fill="#000000"></path>
                    <path d="M63.069055,28.0276675 L63.0975138,28.4619226 C63.9397706,30.5220461 64.5803945,32.6857086 64.9942569,34.9288527 L64.9648899,34.4787621 C64.6037064,32.5054288 64.0663211,30.5942189 63.3708991,28.7618815 C63.2731101,28.5155193 63.1725963,28.2706798 63.069055,28.0276675" id="Fill-192" fill="#000000"></path>
                    <path d="M61.2951385,24.7388395 L61.4474229,24.7400576 C61.0211477,23.9845267 60.5676248,23.246963 60.0850376,22.5298025 L59.9327532,22.5285844 C60.4153404,23.2454403 60.8691661,23.9833086 61.2951385,24.7388395" id="Fill-194" fill="#000000"></path>
                    <path d="M0.0383284404,39.3538915 L0.0386313028,39.3569197 C0.041962789,39.294237 0.0462028624,39.2318572 0.0495343486,39.1691745 L0.0383284404,39.3538915 Z" id="Fill-196" fill="#000000"></path>
                    <path d="M12.3382459,6.2183144 L17.6258147,6.12756543 L17.5110716,11.5670222 L12.1275303,11.6821333 L12.3382459,6.2183144 Z M13.6110165,3.70627325 L16.8731725,3.66638025 L16.8731725,4.66340082 L13.5553101,4.7200428 L13.6110165,3.70627325 Z M3.0955211,13.3530716 L14.9685578,13.0987918 C16.2507138,12.2455078 17.5955394,11.4808412 18.9960716,10.8139276 L19.0381541,8.8025284 L19.4698789,9.81264362 L19.4698789,10.5913185 C19.9524661,10.3708412 20.4420165,10.1616313 20.9370165,9.96460247 L20.9370165,9.66129383 C20.9370165,9.5608 20.9173376,9.46182881 20.8776771,9.3695572 L19.8970624,7.0709893 L19.8970624,5.37660247 C19.8970624,5.23621564 19.8574018,5.09887407 19.7817138,4.98010864 L18.2252642,2.52257778 C18.2080073,2.49395226 18.1880257,2.46745844 18.1659248,2.44157366 L17.6479156,1.82734321 L15.7239248,1.82734321 L16.0378789,2.20008395 L15.2165119,2.21043786 L15.6497505,1.82734321 L13.4266404,1.82734321 L12.9628239,2.23784527 L12.9071174,2.23845432 C12.5211083,2.2427177 12.2047321,2.5478535 12.1832367,2.9361251 L12.0833284,4.74592757 L11.6189064,4.75414979 C11.2298697,4.76054486 10.9134936,5.07238025 10.8977505,5.46369712 L10.6570624,11.7147177 L2.38556697,11.8919523 C2.00319083,11.9001745 1.69105321,12.2028741 1.66864954,12.5874914 L0.0867688073,38.5617959 C0.323823853,35.2640757 1.04558532,32.0994337 2.17999817,29.1391292 L3.0955211,13.3530716 Z" id="Fill-198" fill="#000000"></path>
                    <path d="M19.4697881,10.8346963 C19.9529807,10.6181778 20.4419257,10.4126222 20.9372284,10.2192477 L20.9372284,9.96466337 C20.4419257,10.1616922 19.952678,10.3709021 19.4697881,10.5913794 L19.4697881,10.8346963 Z" id="Fill-200" fill="#000000"></path>
                    <path d="M18.9911064,11.05493 L18.9962532,10.8137449 C17.5957211,11.480963 16.2505927,12.2456296 14.9687394,13.0989136 L15.2842073,13.092214 C16.4703908,12.3363786 17.7086477,11.6554568 18.9911064,11.05493" id="Fill-202" fill="#000000"></path>
                    <path d="M0.931520697,48.1160486 L0.897297248,48.6267399 L1.05539141,48.6553654 C1.01268782,48.4759992 0.971498532,48.2963284 0.931520697,48.1160486" id="Fill-204" fill="#000000"></path>
                    <path d="M1.34349358,48.5213737 C1.29871927,48.4629045 1.23292844,48.4199663 1.13637431,48.4199663 C1.12632294,48.4199663 1.13881101,47.9348551 1.14063853,47.671744 C1.12784587,47.614493 1.11566239,47.557242 1.10317431,47.4999909 C1.05383119,47.4911597 1.01210275,47.4701473 0.977684404,47.4390856 L0.931387156,48.1160486 C0.971592661,48.2963284 1.01301651,48.4759992 1.05626789,48.6553654 L1.3928367,48.7156617 C1.37577982,48.6511021 1.35994128,48.5862379 1.34349358,48.5213737" id="Fill-206" fill="#000000"></path>
                    <path d="M1.34101101,48.5213737 C1.35736558,48.5858732 1.37311442,48.6503728 1.39007472,48.7145695 L1.42308672,48.720323 C1.4103665,48.6573375 1.38674323,48.581331 1.34101101,48.5213737" id="Fill-208" fill="#000000"></path>
                    <path d="M1.13524228,47.5061978 C1.12343064,47.5055922 1.11343618,47.5019584 1.10223028,47.4998387 C1.11464763,47.5567679 1.12676213,47.6139999 1.13948235,47.6709291 C1.14008807,47.5740283 1.13948235,47.5061978 1.13524228,47.5061978" id="Fill-210" fill="#000000"></path>
                    <path d="M1.4344404,48.8144502 C1.43383468,48.8550274 1.43625758,48.8477598 1.4344404,48.8144502" id="Fill-212" fill="#000000"></path>
                    <path d="M1.43798807,48.7243253 L1.42284495,48.7216 C1.43041651,48.7597547 1.43314228,48.791853 1.43435372,48.8139585 C1.43465659,48.7948812 1.43556517,48.7670222 1.43798807,48.7243253" id="Fill-214" fill="#000000"></path>
                    <path d="M56.9037468,11.7833885 L57.0315083,13.8678741 L52.5247376,13.8678741 L52.4405725,11.6786313 L56.9037468,11.7833885 Z M57.8313798,15.8756189 L58.0215083,19.548516 C58.5746367,20.219693 59.1005174,20.9137095 59.5994532,21.6281292 L59.3106275,16.0437177 L59.9839486,15.0101539 C60.131389,14.783586 60.1438018,14.4930675 60.0151321,14.254623 C59.8870679,14.0161786 59.638811,13.8678741 59.3696642,13.8678741 L58.5022789,13.8678741 L58.354233,11.4401868 L58.7375174,10.6913556 C58.8540771,10.463265 58.844389,10.1913226 58.7139028,9.97206337 C58.5825083,9.75280412 58.348178,9.61789877 58.0935633,9.6148535 L51.3034349,9.53780823 C50.9943248,9.54176708 50.7366826,9.71077942 50.6198202,9.98546255 L49.6319394,12.3080881 C51.3585358,13.3474379 52.9806826,14.5433144 54.4805174,15.8756189 L57.8313798,15.8756189 Z" id="Fill-216" fill="#000000"></path>
                    <path d="M54.1638991,15.8754667 L54.480578,15.8754667 C52.9807431,14.5431621 51.3582936,13.3475901 49.632,12.3082403 L49.529367,12.549121 C51.1708899,13.5236066 52.7212844,14.63787 54.1638991,15.8754667" id="Fill-218" fill="#000000"></path>
                    <path d="M58.0346174,19.8006947 C58.5853239,20.4606041 59.1121128,21.1418305 59.6107459,21.8443737 L59.599544,21.6281597 C59.1006083,20.9137399 58.5744248,20.2194189 58.0215991,19.5485465 L58.0346174,19.8006947 Z" id="Fill-220" fill="#000000"></path>
                    <path d="M54.0125229,15.8754667 L54.1638991,15.8754667 C52.7212844,14.63787 51.1708899,13.5236066 49.529367,12.549121 L49.498789,12.6209893 C51.0958073,13.5784214 52.605633,14.6680181 54.0125229,15.8754667" id="Fill-222" fill="#000000"></path>
                    <path d="M59.6228862,22.0792856 L59.6107761,21.8444955 C59.1121431,21.1419523 58.5853541,20.4607259 58.0346477,19.8008165 L58.0446385,19.9923638 C58.597767,20.6656724 59.1236477,21.3627342 59.6228862,22.0792856" id="Fill-224" fill="#000000"></path>
                    <path d="M53.5900321,64.1894881 C53.6360505,64.194665 53.6817661,64.1971012 53.7274817,64.2019737 C54.2594174,63.7196033 54.7743991,63.2189613 55.2721239,62.7015704 C55.2155092,62.7070519 55.1601055,62.7155786 55.1031881,62.7195374 C54.6151514,63.22627 54.1107661,63.7168626 53.5900321,64.1894881" id="Fill-226" fill="#000000"></path>
                    <path d="M55.3426651,64.2263663 C55.5821422,64.206572 55.8195,64.1767284 56.0550413,64.1353128 C56.9042615,63.272284 57.7068578,62.3626626 58.4576835,61.4101029 C58.1083073,61.6908765 57.7459128,61.9186626 57.374133,62.1050329 C56.7280596,62.8419877 56.0511055,63.5503169 55.3426651,64.2263663" id="Fill-228" fill="#000000"></path>
                    <path d="M57.374133,62.1049416 C56.7062615,62.4396165 56.0038761,62.6293366 55.2721239,62.7015095 C54.7743991,63.2192049 54.2594174,63.7195424 53.7274817,64.2019128 C54.041133,64.233279 54.3529679,64.2552049 54.6602615,64.2552049 C54.8897477,64.2552049 55.1168119,64.2451556 55.3426651,64.2262749 C56.0511055,63.55053 56.7280596,62.8418963 57.374133,62.1049416" id="Fill-230" fill="#000000"></path>
                    <path d="M18.9893505,11.1267374 L18.991167,11.0548691 C17.7087083,11.6553959 16.4704514,12.3363177 15.2842679,13.0921531 L15.4407908,13.0888033 C16.5782312,12.3640296 17.7632037,11.7086881 18.9893505,11.1267374" id="Fill-232" fill="#000000"></path>
                    <path d="M20.9371376,10.2772601 L20.9371376,10.2194 C20.4418349,10.4127745 19.9528899,10.6180255 19.4696972,10.8348486 L19.4696972,10.9015399 C19.9525872,10.6819761 20.4418349,10.4736798 20.9371376,10.2772601" id="Fill-234" fill="#000000"></path>
                    <path d="M18.1996514,13.0297251 L18.1935963,13.3254206 C19.0833853,12.8482272 19.9986055,12.413972 20.9371376,12.0241778 L20.9371376,10.2771078 C20.4418349,10.4735276 19.9525872,10.6818239 19.4696972,10.9013877 L19.4696972,11.7552807 C19.468789,11.7546716 19.468789,11.7540626 19.468789,11.7540626 C19.443055,11.7281778 19.4109633,11.7175193 19.3831101,11.6962025 C19.3407248,11.6639226 19.300156,11.6298156 19.2511101,11.6075852 C19.2162936,11.5920543 19.1769358,11.5862683 19.1393945,11.5759144 C19.0867156,11.5609926 19.0367615,11.5448527 18.9807523,11.542721 L18.9892294,11.1267374 C17.7633853,11.7086881 16.5784128,12.3640296 15.4409725,13.0888033 L18.1996514,13.0297251 Z" id="Fill-236" fill="#000000"></path>
                    <path d="M60.3516716,55.4218584 C60.3910294,55.4489613 60.4240294,55.4730189 60.4618734,55.4995128 C60.6946899,55.0555128 60.9169101,54.6054222 61.1285339,54.1489366 C61.0900844,54.1218337 61.0543596,54.096558 61.0143963,54.0688461 C60.8039835,54.5259407 60.5832771,54.9769449 60.3516716,55.4218584" id="Fill-238" fill="#000000"></path>
                    <path d="M61.5298624,52.8867646 C61.5440917,52.9860403 61.5489358,53.0819663 61.5604404,53.1803284 C61.9182936,52.3349621 62.2386055,51.4701062 62.5225872,50.5888058 C62.4974587,50.5068881 62.4774771,50.4261885 62.4505321,50.3439663 C62.1795688,51.2085177 61.8716697,52.0563202 61.5298624,52.8867646" id="Fill-240" fill="#000000"></path>
                    <path d="M61.4595028,56.2720971 C61.3807872,56.6734634 61.2763376,57.0602123 61.1506954,57.4338667 C61.8803284,56.1676444 62.5270073,54.84813 63.0864936,53.4829366 C63.0740807,53.3191012 63.0525853,53.1522206 63.0332092,52.985949 C62.5681817,54.1145251 62.0423009,55.2111259 61.4595028,56.2720971" id="Fill-242" fill="#000000"></path>
                    <path d="M61.5603193,53.1802675 C61.6123927,53.6343169 61.6423651,54.0804486 61.6369156,54.5122675 C61.4849339,54.4005062 61.3123651,54.2774774 61.1285945,54.1489671 C60.9169706,54.6054527 60.6947505,55.0555432 60.4619339,55.4995432 C60.9103101,55.8135103 61.2509064,56.0708354 61.4664661,56.2416749 C61.4646495,56.2517243 61.461622,56.2617737 61.4595028,56.2721276 C62.0423009,55.2111564 62.5681817,54.1145556 63.0332092,52.9859794 C62.942989,52.2106543 62.7758697,51.4106626 62.5227688,50.5887449 C62.2384844,51.4700453 61.9184752,52.3349012 61.5603193,53.1802675" id="Fill-244" fill="#000000"></path>
                    <path d="M7.82593486,62.1314049 C7.73662294,62.0878576 7.64761376,62.0437012 7.55951284,61.994977 C8.19226514,62.7605572 8.85801743,63.4972074 9.55586147,64.2021868 C9.61065963,64.2085819 9.6660633,64.2113226 9.72086147,64.2161951 C9.05995321,63.5492815 8.42841193,62.8531333 7.82593486,62.1314049" id="Fill-246" fill="#000000"></path>
                    <path d="M8.83443303,62.5114543 C8.49020367,62.417051 8.15384587,62.2918905 7.82596514,62.1314049 C8.4284422,62.8531333 9.05998349,63.5492815 9.72089174,64.2161951 C9.97580917,64.2402527 10.2319376,64.2551745 10.4913963,64.2551745 C10.5059284,64.2551745 10.5204606,64.2536519 10.5349927,64.2533473 C9.94735046,63.6939317 9.37968991,63.1131992 8.83443303,62.5114543" id="Fill-248" fill="#000000"></path>
                    <path d="M10.4599404,62.7373218 C9.90136239,62.7284905 9.35913303,62.6550996 8.8344633,62.511363 C9.37972018,63.1131078 9.94738073,63.6938403 10.5350229,64.2535605 C10.9867294,64.2511243 11.4453991,64.213972 11.9092156,64.1478897 C11.4108853,63.6938403 10.9282982,63.2227374 10.4599404,62.7373218" id="Fill-250" fill="#000000"></path>
                    <path d="M2.15256881,29.6111152 L2.18011927,29.1390988 C1.04570642,32.0994033 0.323944954,35.2640453 0.0868899083,38.5617654 L0.0496513761,39.1692963 C0.0463211009,39.2323333 0.0417798165,39.2947613 0.0387522936,39.3581029 L0.15833945,40.4023251 C0.221009174,36.6176667 0.918853211,32.9855761 2.15256881,29.6111152" id="Fill-252" fill="#000000"></path>
                    <path d="M0.343169725,40.4468165 C0.343169725,36.6694667 0.980463303,33.0425531 2.14969266,29.666265 L2.15272018,29.6111457 C0.918701835,32.9856066 0.22116055,36.6176971 0.158490826,40.4023556 L0.420977064,42.6942239 C0.371022936,41.9514831 0.343169725,41.2023473 0.343169725,40.4468165" id="Fill-254" fill="#000000"></path>
                    <path d="M0.773047706,45.7676905 L0.832408734,46.2881267 C0.813025541,46.6304148 0.755481688,47.2385547 0.977479817,47.4392379 L1.00413171,47.0451802 C0.918118789,46.6224971 0.842403193,46.1961597 0.773047706,45.7676905" id="Fill-256" fill="#000000"></path>
                    <path d="M1.97815321,32.6180428 L2.79437339,32.5988576 C2.93242844,32.0976066 3.08289633,31.6015325 3.24517156,31.1106354 L2.06413486,31.1383473 L2.14951101,29.666265 C0.980584404,33.0425531 0.343290826,36.6694667 0.343290826,40.4468165 C0.343290826,41.2023473 0.370841284,41.9514831 0.420795413,42.6942239 L0.773199083,45.7678123 C0.842529358,46.195977 0.917914679,46.6226189 1.00389633,47.0453021 L1.97815321,32.6180428 Z" id="Fill-258" fill="#000000"></path>
                    <path d="M0.0495908257,39.1692354 L0.0868428991,38.5617045 C0.0720026422,38.7636058 0.0604938716,38.9664206 0.0495908257,39.1692354" id="Fill-260" fill="#000000"></path>
                    <g id="Group-264" transform="translate(0.000000, 39.207819)">
                        <mask id="mask-8" fill="white">
                            <use xlink:href="#path-7"></use>
                        </mask>
                        <g id="Clip-263"></g>
                        <path d="M0.151285321,1.75108971 C0.151285321,1.56502387 0.155523853,1.3798716 0.158248624,1.19441481 L0.0386614679,0.150192593 C0.0132302752,0.680678189 -9.08256881e-05,1.21420905 -9.08256881e-05,1.75108971 C-9.08256881e-05,4.39042305 0.311744037,6.95727901 0.897266972,9.41876872 L0.931477982,8.90807737 C0.422248624,6.60280988 0.151285321,4.20831605 0.151285321,1.75108971" id="Fill-262" fill="#000000" mask="url(#mask-8)"></path>
                    </g>
                    <path d="M0.832477982,46.2881267 L0.773138532,45.7676905 C0.609046789,44.7578798 0.490973394,43.7328428 0.421037615,42.6944066 L0.158248624,40.4022337 C0.155523853,40.5876905 0.151285321,40.7728428 0.151285321,40.9589086 C0.151285321,43.416135 0.422248624,45.8106288 0.931477982,48.1158963 L0.97749633,47.4392379 C0.755578899,47.2385547 0.813101835,46.6307193 0.832477982,46.2881267" id="Fill-265" fill="#000000"></path>
                    <path d="M0.773175743,45.7676905 L0.420946789,42.6944066 C0.490908,43.7328428 0.60902433,44.7578798 0.773175743,45.7676905" id="Fill-267" fill="#000000"></path>
                    <path d="M58.4577138,23.3397827 C58.9309156,24.0356263 59.3832275,24.7466963 59.8007229,25.4809103 L59.7855853,25.1937416 C59.3699064,24.4799309 58.9266771,23.7840872 58.4577138,23.1077333 L58.4577138,23.3397827 Z" id="Fill-269" fill="#000000"></path>
                    <path d="M57.2659294,21.6975918 L57.4233606,21.6975918 C57.1281771,21.3187605 56.8242138,20.9472379 56.5123789,20.5824148 L56.3613055,20.5824148 C56.6719294,20.9463243 56.9716541,21.3196741 57.2659294,21.6975918" id="Fill-271" fill="#000000"></path>
                    <path d="M56.5122881,20.5825366 C56.8241229,20.9470551 57.1280862,21.3185778 57.4232697,21.6977136 L58.4577743,21.6977136 L58.4577743,23.1076724 C58.9267376,23.7843309 59.3696642,24.47987 59.7856459,25.1939852 L59.7611229,24.725623 L61.2951688,24.7387177 C60.8691963,23.9831868 60.4153706,23.245623 59.9327835,22.5284626 L59.6463798,22.5260263 L59.6227651,22.0792856 C59.1235266,21.3627342 58.5979486,20.6656724 58.0448202,19.9926683 L58.0750954,20.5825366 L56.5122881,20.5825366 Z" id="Fill-273" fill="#000000"></path>
                    <path d="M58.1984107,22.9510848 C58.2877551,23.078377 58.3701337,23.2111506 58.4576609,23.3396609 L58.4576609,23.1076115 C58.3683165,22.9781877 58.2780635,22.8493728 58.1865991,22.7214716 L58.1984107,22.9510848 Z" id="Fill-275" fill="#000000"></path>
                    <path d="M57.5499881,22.0577136 L57.7022817,22.0577136 C57.6099917,21.9373102 57.518311,21.8166043 57.4241936,21.6977136 L57.2658083,21.6977136 C57.3605349,21.8178144 57.4567844,21.9364027 57.5499881,22.0577136" id="Fill-277" fill="#000000"></path>
                    <path d="M58.1522972,22.0601004 L58.1865083,22.7215325 C58.2779394,22.8494337 58.3681596,22.9782486 58.4577743,23.1076724 L58.4577743,21.6977136 L57.4232697,21.6977136 C57.5165174,21.8173926 57.6079486,21.9388988 57.6996826,22.0601004 L58.1522972,22.0601004 Z" id="Fill-279" fill="#000000"></path>
                    <path d="M63.8733376,40.2144016 L64.0067468,42.2325004 C64.0238037,41.8098173 64.0347688,41.3856115 64.0347688,40.9589695 C64.0347688,39.1095786 63.8724239,37.2976444 63.5632679,35.5356527 L63.6972862,37.560451 C63.7923174,38.4350519 63.8523211,39.3197021 63.8733376,40.2144016" id="Fill-281" fill="#000000"></path>
                    <path d="M64.4527239,48.7371309 C64.4763385,48.8260527 64.509944,48.9104066 64.5623202,48.9822749 C65.0718523,46.9410321 65.3930725,44.8254848 65.5029716,42.6542091 L65.4651275,42.078349 C65.3537147,44.3677811 65.0079716,46.5947852 64.4527239,48.7371309" id="Fill-283" fill="#000000"></path>
                    <path d="M64.0320193,40.9589086 C64.0320193,41.3855506 64.0211202,41.8097564 64.0041661,42.2324395 L64.4228725,48.5912626 C64.4259,48.642423 64.4401294,48.6896247 64.452845,48.7371309 C65.0080927,46.5947852 65.353533,44.3677811 65.4649459,42.078349 L64.9944688,34.92867 C64.5806064,32.6858305 63.9396798,30.5221679 63.0974229,28.4620444 L63.5633587,35.5355918 C63.8706523,37.2975835 64.0320193,39.1095177 64.0320193,40.9589086" id="Fill-285" fill="#000000"></path>
                    <path d="M2.19752752,52.4250716 C2.18269266,52.5170387 2.16392202,52.6105284 2.15120642,52.7018864 C2.66830734,54.0622074 3.2707844,55.3805037 3.95561009,56.647944 C3.98679358,56.6217547 4.02675688,56.590084 4.06157339,56.561763 C3.34980275,55.2346354 2.72583028,53.8529975 2.19752752,52.4250716" id="Fill-287" fill="#000000"></path>
                    <path d="M3.7027211,54.9515169 C3.64580367,54.9959778 3.58797798,55.0404387 3.53499633,55.0824634 C3.52349174,54.9149737 3.52076697,54.7438296 3.5180422,54.5729901 C3.07874862,53.6499695 2.68093211,52.7031959 2.32762018,51.7348008 C2.27766606,51.9668502 2.23437248,52.1970724 2.1974367,52.425163 C2.72573945,53.8530889 3.34971193,55.2347267 4.06178532,56.5618543 C4.16108807,56.4805457 4.27401468,56.3910148 4.40026239,56.2920436 C4.1577578,55.8513934 3.92524404,55.4043481 3.7027211,54.9515169" id="Fill-289" fill="#000000"></path>
                    <path d="M4.62278532,54.2659053 C4.27310642,54.5162263 3.96702385,54.7458395 3.7027211,54.9513951 C3.92524404,55.4045309 4.1577578,55.8515761 4.40026239,56.2922263 C4.64973028,56.0973292 4.94461101,55.8738066 5.29852844,55.6204403 C5.0626844,55.1752222 4.8374367,54.7236091 4.62278532,54.2659053" id="Fill-291" fill="#000000"></path>
                    <path d="M3.74026239,52.1938444 C3.4317578,51.3901984 3.15564771,50.5707169 2.91314312,49.7369226 C2.65822569,50.4175399 2.46870275,51.0832354 2.32762018,51.7349226 C2.68093211,52.7033177 3.07874862,53.6497868 3.5180422,54.5728074 C3.5047211,53.8136222 3.57193211,53.0200255 3.74026239,52.1938444" id="Fill-293" fill="#000000"></path>
                    <path d="M52.2586789,16.5875416 L52.2526239,16.4599449 C51.4448807,15.8137391 50.6047431,15.2062082 49.734633,14.6419202 L49.734633,14.742414 C50.6074679,15.3155333 51.449422,15.9315909 52.2586789,16.5875416" id="Fill-295" fill="#000000"></path>
                    <path d="M52.2246798,15.8754667 L54.0124321,15.8754667 C52.6055422,14.6680181 51.0957165,13.5784214 49.4986982,12.6209893 L49.2589183,13.1849728 C49.1614321,13.4130634 49.184744,13.6749564 49.3206798,13.8820346 C49.4187716,14.0318617 49.5674229,14.1360099 49.7345422,14.1838206 L49.7345422,14.6421333 C50.6046523,15.2064214 51.4447899,15.8136477 52.2528358,16.4598535 L52.2246798,15.8754667 Z" id="Fill-297" fill="#000000"></path>
                    <path d="M3.15988624,32.5988576 L2.94462936,32.6025119 C2.21045505,35.2634667 1.81657431,38.0657218 1.81657431,40.9590305 C1.81657431,41.7212609 1.84503303,42.4770963 1.89862018,43.2259276 L4.76810642,38.8827671 L3.15988624,32.5988576 Z" id="Fill-299" fill="#FFFFFF"></path>
                    <path d="M1.81642294,40.9589086 C1.81642294,38.0659045 2.21060642,35.2636494 2.94478073,32.6023901 L2.79279908,32.6048263 C2.05923028,35.2654765 1.66504679,38.0665136 1.66504679,40.9589086 C1.66504679,41.7902667 1.70046881,42.613707 1.76434954,43.4289251 L1.89846881,43.2258058 C1.8451844,42.4769745 1.81642294,41.7211391 1.81642294,40.9589086" id="Fill-301" fill="#FFFFFF"></path>
                    <path d="M2.79267798,32.6047959 L1.97827431,32.6178905 L1.54079725,39.0930428 C1.54079725,39.0930428 1.68097156,42.5582527 1.76180642,43.433158 L1.76453119,43.4288947 C1.70065046,42.6136765 1.66492569,41.7905407 1.66492569,40.9588782 C1.66492569,38.0664831 2.05910917,35.2654461 2.79267798,32.6047959" id="Fill-303" fill="#FFFFFF"></path>
                    <path d="M19.2273488,34.2676642 L19.2143257,34.9166107 C19.316996,34.8773267 19.4184549,34.8429152 19.5205196,34.8051539 L19.2273488,34.2676642 Z" id="Fill-305" fill="#FFFFFF"></path>
                    <polygon id="Fill-307" fill="#FFFFFF" points="55.6756172 24.6267432 55.5499294 22.0592782 55.6753144 24.6267432"></polygon>
                    <polygon id="Fill-309" fill="#FFFFFF" points="55.6779945 24.6267432 55.5518954 22.0592782 55.230556 22.0592782 55.3554367 24.6267432"></polygon>
                    <path d="M53.7597248,22.0593695 L53.8835955,24.6268346 L53.7597248,22.0593695 Z" id="Fill-311" fill="#FFFFFF"></path>
                    <polygon id="Fill-313" fill="#FFFFFF" points="52.5197422 22.0593695 52.9842376 31.7171309 52.9842376 22.0593695"></polygon>
                    <path d="M54.6192083,39.8645309 L54.1114927,29.3489177 L53.3222174,29.3489177 L53.3222174,24.6266214 L53.8835202,24.6266214 L53.7596945,22.0594609 L52.9816211,22.0594609 L52.9816211,31.7172222 L53.3228229,38.8513704 C53.7618138,39.172037 54.1935385,39.5121934 54.6192083,39.8645309" id="Fill-315" fill="#FFFFFF"></path>
                    <polygon id="Fill-317" fill="#FFFFFF" points="20.906378 20.5626206 19.5945523 16.5806288 19.288167 31.3075424 20.8739835 34.2182091"></polygon>
                    <path d="M55.9062083,29.3488263 L56.5023275,41.5481679 L55.9062083,29.3488263 Z" id="Fill-319" fill="#FFFFFF"></path>
                    <path d="M55.5827477,29.3488263 L56.1558578,41.2180609 C56.2730229,41.3279951 56.3874633,41.4379292 56.5022064,41.5481679 L55.9060872,29.3488263 L55.5827477,29.3488263 Z" id="Fill-321" fill="#FFFFFF"></path>
                    <polygon id="Fill-323" fill="#FFFFFF" points="50.8569661 18.0108691 48.6792688 22.4286387 51.0691954 22.4499556"></polygon>
                    <path d="M51.8033697,37.8229531 L51.1742505,24.6524757 L48.2239294,24.6268955 L48.5654339,36.0359901 C49.6526174,36.5542947 50.7379844,37.1472082 51.8033697,37.8229531" id="Fill-325" fill="#FFFFFF"></path>
                    <path d="M47.0758321,35.3706601 L46.8181899,26.7552938 L46.0555569,28.2410798 L46.2941257,35.0554749 C46.5538872,35.1571868 46.8145569,35.2616395 47.0758321,35.3706601" id="Fill-327" fill="#FFFFFF"></path>
                    <path d="M59.3231009,44.6609794 C59.0527431,44.3129053 58.7605872,43.9630041 58.4578349,43.6121893 L58.4578349,44.9938272 L57.7012569,44.9938272 C58.412422,45.8562469 59.0185321,46.7058765 59.5220092,47.5375391 C59.5310917,47.5576379 59.5438073,47.5746914 59.5544037,47.5938765 C60.6761009,49.4621481 61.2973486,51.2411934 61.5298624,52.886856 C61.8716697,52.0564115 62.1798716,51.2083045 62.4505321,50.3440576 C62.0951009,49.2578107 61.5919266,48.1362387 60.9146697,46.9875638 L59.8005413,25.4809712 C59.3830459,24.7467572 58.9310367,24.0356872 58.4578349,23.3398436 L58.4578349,27.9570782 L59.3231009,44.6609794 Z" id="Fill-329" fill="#000000"></path>
                    <path d="M19.227344,34.2676642 L19.5204083,34.8051539 C19.4183807,34.8429152 19.3169587,34.8773267 19.2143257,34.9166107 L19.227344,34.2676642 Z M19.5945826,16.5804461 L20.9064083,20.5627424 L20.873711,34.2180263 L19.2881972,31.3073597 L19.5945826,16.5804461 Z M46.8183716,26.7555984 L47.075711,35.3706601 C46.8144358,35.2616395 46.5540688,35.1571868 46.2940046,35.0554749 L46.0554358,28.2410798 L46.8183716,26.7555984 Z M51.1740688,24.6525366 L51.8034908,37.823014 C50.7381055,37.1472691 49.6524358,36.5543556 48.5652523,36.036051 L48.2237477,24.6266519 L51.1740688,24.6525366 Z M50.8570872,18.0108082 L51.0693165,22.4498947 L48.6790872,22.4285778 L50.8570872,18.0108082 Z M3.39763761,31.1069811 C3.23536239,31.5978782 3.08519725,32.0939523 2.94683945,32.5952033 L17.801078,32.2459111 L17.732656,35.5192691 C15.1056743,36.6511951 12.4408486,38.187837 10.0273073,40.2838947 C6.34705046,43.4808165 4.13635321,46.6156148 2.99951835,49.5186683 C3.23294037,50.3421086 3.50057339,51.1509317 3.79757339,51.945442 C4.51449083,48.7704461 6.66463761,45.1560181 10.9867294,41.4018123 C19.7435367,33.7950387 32.4427844,33.8586848 32.5657018,33.8586848 L32.5844725,33.8586848 L32.5844725,33.8577712 C32.725555,33.8635572 44.3006835,33.7904708 52.9815,40.4382897 L52.9815,31.7172527 L52.5198028,22.0594914 L52.9815,22.0594914 L52.9815,21.6977136 L57.2660505,21.6977136 C56.9717752,21.3194914 56.6720505,20.9461416 56.3611239,20.5825366 L52.449867,20.5825366 L52.2588303,16.5874502 C51.4495734,15.9318041 50.6073165,15.3157465 49.7347844,14.7423226 L49.7347844,15.5261745 L46.4335734,22.6161663 C46.3742339,22.6743309 46.3212523,22.7394996 46.2831055,22.8147177 L44.0118578,27.2760346 C43.8268761,27.6384214 43.9694725,28.0836395 44.3303532,28.2697053 C44.4139128,28.3126436 44.5020138,28.3333514 44.5901147,28.3421827 L44.8059771,34.5112856 C38.4696743,32.3521909 32.9501972,32.3768576 32.5714541,32.381121 C32.1969495,32.3795984 27.775555,32.3692444 22.3429679,33.8940099 L22.3744541,20.4461086 C22.3744541,20.3663226 22.3620413,20.2871457 22.3369128,20.2119276 L20.9369862,15.9634749 L20.9369862,12.0865449 C19.9978486,12.4824296 19.0820229,12.9233844 18.1919312,13.4066683 L17.8319587,30.7668247 L3.39763761,31.1069811 Z" id="Fill-331" fill="#000000"></path>
                    <path d="M18.1919615,13.4066683 C19.0817505,12.9233844 19.9978789,12.4824296 20.9370165,12.0865449 L20.9370165,12.0241169 C19.9987872,12.4139111 19.0832642,12.8484708 18.193778,13.3253597 L18.1919615,13.4066683 Z" id="Fill-333" fill="#000000"></path>
                    <path d="M2.99963945,49.518516 C2.97118073,49.5912979 2.9403,49.6643844 2.91305229,49.7368617 C3.15585963,50.5709605 3.43196972,51.3901374 3.74017156,52.1937835 C3.75712569,52.1118658 3.77892385,52.028121 3.7976945,51.9455942 C3.50039174,51.151084 3.23306147,50.3422609 2.99963945,49.518516" id="Fill-335" fill="#000000"></path>
                    <path d="M3.39760734,31.1070115 L3.24502018,31.1106658 C3.08304771,31.601563 2.93257982,32.097637 2.79452477,32.5988881 L2.94680917,32.5952337 C3.08516697,32.0939827 3.23533211,31.5979086 3.39760734,31.1070115" id="Fill-337" fill="#000000"></path>
                    <path d="M54.929045,42.0855663 C54.9296505,42.0861753 54.9311642,42.0867844 54.9320725,42.088307 C55.9980633,43.0694922 56.9144945,44.0397144 57.701045,44.9937967 L58.4576229,44.9937967 L58.4576229,43.6121588 C58.3232009,43.4559366 58.1912009,43.3003235 58.0504211,43.1434922 L56.5021459,41.5480765 C56.3874028,41.4381424 56.2729624,41.3279037 56.1557972,41.2179695 L54.6193294,39.8646527 C54.1933569,39.5123152 53.7619349,39.1718543 53.3226413,38.8514922 L52.9814394,31.717344 L52.9814394,40.4383811 C53.3822835,40.7450395 53.776467,41.0650971 54.1633844,41.4009901 C54.4270817,41.6299942 54.6816963,41.8580848 54.929045,42.0855663" id="Fill-339" fill="#000000"></path>
                    <path d="M55.2306165,22.0569867 L55.5500202,22.0569867 L57.0210936,22.0575918 L57.5481853,22.0575918 C57.4558459,21.9362808 57.3598734,21.8176926 57.2660202,21.6975918 L52.9814697,21.6975918 L52.9814697,22.0569867 L53.7598459,22.0569867 L55.2306165,22.0569867 Z" id="Fill-341" fill="#000000"></path>
                    <path d="M58.457808,27.9570477 L58.457808,23.3398132 C58.3702808,23.2109984 58.2875993,23.0785292 58.1985578,22.951237 L58.457808,27.9570477 Z" id="Fill-343" fill="#000000"></path>
                </g>
            </g>
        </g>
    </g>
</svg>