<?xml version="1.0" encoding="UTF-8"?>
<svg width="104px" height="169px" viewBox="0 0 104 169" version="1.1" xmlns="http://www.w3.org/2000/svg" xmlns:xlink="http://www.w3.org/1999/xlink">
    <!-- Generator: sketchtool 50.2 (55047) - http://www.bohemiancoding.com/sketch -->
    <title>3EDAD546-D2C2-4CDE-A56A-98762C768E3F</title>
    <desc>Created with sketchtool.</desc>
    <defs>
        <polygon id="path-1" points="0 168.370044 103.817198 168.370044 103.817198 0.178449339 0 0.178449339"></polygon>
    </defs>
    <g id="Future-Project-Desktop" stroke="none" stroke-width="1" fill="none" fill-rule="evenodd">
        <g id="Homepage-" transform="translate(-315.000000, -1389.000000)">
            <g id="homepage/programs" transform="translate(48.000000, 1109.000000)">
                <g id="school-icon" transform="translate(267.000000, 280.000000)">
                    <polygon id="Fill-1" fill="#5CD8FF" points="54.2934978 21.7282115 65.7270837 21.7282115 65.7270837 9.01134802 54.2934978 9.01134802"></polygon>
                    <polygon id="Fill-2" fill="#5CD8FF" points="80.7761815 26.4870132 68.5584722 26.4870132 68.5584722 13.7701498 80.7761815 13.7701498 77.3313533 20.1285815"></polygon>
                    <g id="Group-91" transform="translate(0.000000, 0.050626)">
                        <path d="M50.9717744,35.7530696 C50.7587348,35.7100035 50.5981533,35.521704 50.5976952,35.2960652 L50.5424881,5.46180969 C50.54203,5.20387137 50.7507172,4.99426784 51.0086555,4.99380969 C51.2675101,4.99380969 51.4761974,5.20226784 51.4766555,5.45997709 L51.5318626,35.2942326 C51.5323207,35.5521709 51.3236335,35.7617744 51.0656952,35.7622326 C51.0336247,35.7622326 51.0020123,35.7590256 50.9717744,35.7530696" id="Fill-3" fill="#323E4E"></path>
                        <path d="M51.00877,5.1657533 C50.9301974,5.1657533 50.8562062,5.19667841 50.800541,5.25257269 C50.7451048,5.30846696 50.7144088,5.38245815 50.7144088,5.46125991 L50.7696159,35.2957445 C50.7698449,35.4354802 50.8692634,35.5568899 51.0057921,35.5846079 L51.0060211,35.5846079 C51.0252634,35.5885022 51.045193,35.5901057 51.0655806,35.5901057 C51.2279947,35.5898767 51.3601709,35.4572423 51.3599419,35.29437 L51.3049639,5.46011454 C51.3045057,5.29792952 51.1716423,5.1657533 51.00877,5.1657533 M51.0660388,35.9341762 C51.0218273,35.9341762 50.9789903,35.9300529 50.9375278,35.9215771 C50.641563,35.8617885 50.4262326,35.5988106 50.4257744,35.2962026 L50.3705674,5.46194714 C50.3703383,5.29128634 50.436541,5.13070485 50.5570344,5.0097533 C50.6775278,4.88880176 50.8378802,4.82214097 51.008541,4.82191189 C51.3608581,4.82191189 51.647889,5.10779736 51.6485762,5.45942731 L51.7037833,35.2939119 C51.7042414,35.6464581 51.4183559,35.933489 51.0660388,35.9341762" id="Fill-5" fill="#323E4E"></path>
                        <path d="M51.3301621,1.77056564 C51.2252458,1.74926167 51.1166643,1.73826608 51.005563,1.73849515 C50.1082767,1.73941145 49.3786731,2.47038943 49.3798185,3.36790485 C49.3807348,4.26542026 50.1114837,4.99387841 51.0089991,4.99364934 C51.4440123,4.99319119 51.8524529,4.8234467 52.1596423,4.51579912 C52.4666026,4.20815154 52.6354308,3.79902379 52.6352018,3.36446872 L52.6349727,3.36423965 C52.6342855,2.57805463 52.0728229,1.92060969 51.3301621,1.77056564 M50.494726,5.87696211 C50.0067965,5.77823084 49.5582678,5.53907665 49.197933,5.17942907 C48.7134396,4.69608106 48.4465674,4.05306784 48.4456511,3.36905022 C48.4440476,1.95634537 49.5919419,0.805931278 51.0046467,0.804327753 C52.4178097,0.802953304 53.5679947,1.95084758 53.5691401,3.36355242 L53.5691401,3.36332335 C53.5700564,4.04757004 53.3041004,4.69127048 52.8207524,5.1755348 C52.3374044,5.66002819 51.6943912,5.92735859 51.0099154,5.92781674 C50.8351313,5.92804581 50.6624088,5.91063612 50.494726,5.87696211" id="Fill-7" fill="#323E4E"></path>
                        <path d="M51.0085868,1.91062203 L51.0067542,1.91062203 C50.617785,1.9108511 50.2526396,2.06295683 49.9775207,2.33830485 C49.7026308,2.61388194 49.5512123,2.97948546 49.5516705,3.36753833 C49.5523577,4.16952952 50.2061374,4.8219348 51.0088159,4.8219348 L51.0090449,4.8219348 C51.397785,4.82147665 51.7631595,4.6696 52.0378203,4.39448106 C52.3127101,4.11936211 52.4634414,3.75352952 52.4632123,3.36478943 C52.462296,2.67527401 51.9716176,2.07578502 51.2963048,1.93925639 C51.201926,1.92024317 51.1052564,1.91062203 51.0085868,1.91062203 Z M51.0090449,5.16577621 C50.0166925,5.16577621 49.2087454,4.35920352 49.2078291,3.36799648 C49.2073709,2.88808458 49.394296,2.43611982 49.7342432,2.09571454 C50.0739612,1.7548511 50.5254678,1.56700969 51.0053797,1.56655154 C51.1277057,1.56930044 51.2465956,1.57846344 51.364111,1.60182907 L51.364111,1.60205815 C52.1993181,1.77065727 52.8061374,2.51171454 52.8068247,3.3641022 C52.807741,3.84470132 52.6210449,4.29712423 52.2810978,4.63730044 C51.9418379,4.97747665 51.4901022,5.16508899 51.009274,5.16577621 L51.0090449,5.16577621 Z M50.5286749,5.70822555 C50.6853621,5.74006696 50.8461727,5.75587313 51.0069833,5.75587313 L51.0097322,5.75587313 C51.6481639,5.7551859 52.248111,5.50595242 52.6989304,5.05421674 C53.1499789,4.60225198 53.3978379,4.0018467 53.3973797,3.36364405 C53.3966925,2.72635771 53.14723,2.12663965 52.6950361,1.67536211 C52.2433004,1.22454273 51.6438115,0.976454626 51.0072123,0.976454626 L51.0049216,0.976454626 C49.6872828,0.977829075 48.6163577,2.05104493 48.6175031,3.3686837 C48.6184194,4.00711542 48.8676529,4.60706256 49.3193885,5.05765286 C49.6529216,5.39072775 50.0712123,5.61590837 50.5286749,5.70822555 Z M51.0069833,6.09994361 C50.8234943,6.09994361 50.6397762,6.08138855 50.4608687,6.04542379 C49.9367454,5.93959119 49.4579789,5.68211101 49.0763401,5.30115947 C48.5597762,4.78574097 48.274807,4.09966167 48.2736617,3.36914185 C48.2720581,1.86182907 49.4971507,0.63421674 51.0044634,0.632384141 L51.0072123,0.632384141 C51.7354414,0.632384141 52.4210626,0.91620793 52.9378555,1.43185551 C53.4551066,1.94819031 53.7405339,2.6342696 53.7409921,3.36341498 C53.7421374,4.09347665 53.4583137,4.78024317 52.942437,5.2972652 C52.4267894,5.81405815 51.7404811,6.09902731 51.0101903,6.09994361 L51.0069833,6.09994361 Z" id="Fill-9" fill="#323E4E"></path>
                        <mask id="mask-2" fill="white">
                            <use xlink:href="#path-1"></use>
                        </mask>
                        <g id="Clip-12"></g>
                        <polygon id="Fill-11" fill="#5CD8FF" mask="url(#mask-2)" points="34.5559471 38.2406167 69.6657974 38.2406167 69.6657974 30.2374273 34.5559471 30.2374273"></polygon>
                        <polygon id="Fill-13" fill="#5CD8FF" mask="url(#mask-2)" points="0.70784141 158.543648 103.109128 158.543648 103.109128 38.2406167 0.70784141 38.2406167"></polygon>
                        <path d="M1.41602643,158.077045 L102.401172,158.077045 L102.401172,39.0270537 L69.6659119,39.0270537 C69.2748811,39.0270537 68.9578414,38.7100141 68.9578414,38.3189833 L68.9578414,31.1869656 L34.8593568,31.1869656 L34.8593568,38.3189833 C34.8593568,38.7100141 34.5423172,39.0270537 34.1512863,39.0270537 L1.41602643,39.0270537 L1.41602643,158.077045 Z M103.109242,159.493186 L0.707955947,159.493186 C0.317154185,159.493186 -0.000114537445,159.176146 -0.000114537445,158.785115 L-0.000114537445,38.3189833 C-0.000114537445,37.9279524 0.317154185,37.6109128 0.707955947,37.6109128 L33.4434449,37.6109128 L33.4434449,30.4788952 C33.4434449,30.0878643 33.7604846,29.7710537 34.1512863,29.7710537 L69.6659119,29.7710537 C70.0567137,29.7710537 70.3737533,30.0878643 70.3737533,30.4788952 L70.3737533,37.6109128 L103.109242,37.6109128 C103.500044,37.6109128 103.817313,37.9279524 103.817313,38.3189833 L103.817313,158.785115 C103.817313,159.176146 103.500044,159.493186 103.109242,159.493186 Z" id="Fill-14" fill="#212D3C" mask="url(#mask-2)"></path>
                        <polygon id="Fill-15" fill="#FFFFFF" mask="url(#mask-2)" points="36.0875419 161.439612 67.7294273 161.439612 67.7294273 155.121498 36.0875419 155.121498"></polygon>
                        <polygon id="Fill-16" fill="#FFFFFF" mask="url(#mask-2)" points="39.6764581 155.080952 64.140511 155.080952 64.140511 148.780476 39.6764581 148.780476"></polygon>
                        <polygon id="Fill-17" fill="#FFFFFF" mask="url(#mask-2)" points="6.95265198 114.44215 12.638978 114.44215 12.638978 101.047454 6.95265198 101.047454"></polygon>
                        <polygon id="Fill-18" fill="#FFFFFF" mask="url(#mask-2)" points="15.3684053 114.44215 21.0547313 114.44215 21.0547313 101.047454 15.3684053 101.047454"></polygon>
                        <polygon id="Fill-19" fill="#FFFFFF" mask="url(#mask-2)" points="23.7843877 114.44215 29.4707137 114.44215 29.4707137 101.047454 23.7843877 101.047454"></polygon>
                        <polygon id="Fill-20" fill="#FFFFFF" mask="url(#mask-2)" points="6.95265198 131.47593 12.638978 131.47593 12.638978 118.081233 6.95265198 118.081233"></polygon>
                        <polygon id="Fill-21" fill="#FFFFFF" mask="url(#mask-2)" points="15.3684053 131.47593 21.0547313 131.47593 21.0547313 118.081233 15.3684053 118.081233"></polygon>
                        <polygon id="Fill-22" fill="#FFFFFF" mask="url(#mask-2)" points="23.7843877 131.47593 29.4707137 131.47593 29.4707137 118.081233 23.7843877 118.081233"></polygon>
                        <polygon id="Fill-23" fill="#FFFFFF" mask="url(#mask-2)" points="6.95265198 148.50948 12.638978 148.50948 12.638978 135.115013 6.95265198 135.115013"></polygon>
                        <polygon id="Fill-24" fill="#FFFFFF" mask="url(#mask-2)" points="15.3684053 148.50948 21.0547313 148.50948 21.0547313 135.115013 15.3684053 135.115013"></polygon>
                        <polygon id="Fill-25" fill="#FFFFFF" mask="url(#mask-2)" points="23.7843877 148.50948 29.4707137 148.50948 29.4707137 135.115013 23.7843877 135.115013"></polygon>
                        <polygon id="Fill-26" fill="#FFFFFF" mask="url(#mask-2)" points="74.2495859 114.44215 79.9359119 114.44215 79.9359119 101.047454 74.2495859 101.047454"></polygon>
                        <polygon id="Fill-27" fill="#FFFFFF" mask="url(#mask-2)" points="82.6653392 114.44215 88.3516652 114.44215 88.3516652 101.047454 82.6653392 101.047454"></polygon>
                        <polygon id="Fill-28" fill="#FFFFFF" mask="url(#mask-2)" points="91.0813216 114.44215 96.7676476 114.44215 96.7676476 101.047454 91.0813216 101.047454"></polygon>
                        <polygon id="Fill-29" fill="#FFFFFF" mask="url(#mask-2)" points="74.2495859 131.47593 79.9359119 131.47593 79.9359119 118.081233 74.2495859 118.081233"></polygon>
                        <polygon id="Fill-30" fill="#FFFFFF" mask="url(#mask-2)" points="82.6653392 131.47593 88.3516652 131.47593 88.3516652 118.081233 82.6653392 118.081233"></polygon>
                        <polygon id="Fill-31" fill="#FFFFFF" mask="url(#mask-2)" points="91.0813216 131.47593 96.7676476 131.47593 96.7676476 118.081233 91.0813216 118.081233"></polygon>
                        <polygon id="Fill-32" fill="#FFFFFF" mask="url(#mask-2)" points="74.2495859 148.50948 79.9359119 148.50948 79.9359119 135.115013 74.2495859 135.115013"></polygon>
                        <polygon id="Fill-33" fill="#FFFFFF" mask="url(#mask-2)" points="82.6653392 148.50948 88.3516652 148.50948 88.3516652 135.115013 82.6653392 135.115013"></polygon>
                        <polygon id="Fill-34" fill="#FFFFFF" mask="url(#mask-2)" points="91.0813216 148.50948 96.7676476 148.50948 96.7676476 135.115013 91.0813216 135.115013"></polygon>
                        <polygon id="Fill-35" fill="#FFFFFF" mask="url(#mask-2)" points="6.95265198 62.4309251 12.638978 62.4309251 12.638978 49.0362291 6.95265198 49.0362291"></polygon>
                        <polygon id="Fill-36" fill="#FFFFFF" mask="url(#mask-2)" points="15.3684053 62.4309251 21.0547313 62.4309251 21.0547313 49.0362291 15.3684053 49.0362291"></polygon>
                        <polygon id="Fill-37" fill="#FFFFFF" mask="url(#mask-2)" points="23.7843877 62.4309251 29.4707137 62.4309251 29.4707137 49.0362291 23.7843877 49.0362291"></polygon>
                        <polygon id="Fill-38" fill="#FFFFFF" mask="url(#mask-2)" points="6.95265198 79.4647048 12.638978 79.4647048 12.638978 66.0700088 6.95265198 66.0700088"></polygon>
                        <polygon id="Fill-39" fill="#FFFFFF" mask="url(#mask-2)" points="15.3684053 79.4647048 21.0547313 79.4647048 21.0547313 66.0700088 15.3684053 66.0700088"></polygon>
                        <polygon id="Fill-40" fill="#FFFFFF" mask="url(#mask-2)" points="23.7843877 79.4647048 29.4707137 79.4647048 29.4707137 66.0700088 23.7843877 66.0700088"></polygon>
                        <polygon id="Fill-41" fill="#FFFFFF" mask="url(#mask-2)" points="6.95265198 96.4984846 12.638978 96.4984846 12.638978 83.1040176 6.95265198 83.1040176"></polygon>
                        <polygon id="Fill-42" fill="#FFFFFF" mask="url(#mask-2)" points="15.3684053 96.4984846 21.0547313 96.4984846 21.0547313 83.1040176 15.3684053 83.1040176"></polygon>
                        <polygon id="Fill-43" fill="#FFFFFF" mask="url(#mask-2)" points="23.7843877 96.4984846 29.4707137 96.4984846 29.4707137 83.1040176 23.7843877 83.1040176"></polygon>
                        <polygon id="Fill-44" fill="#FFFFFF" mask="url(#mask-2)" points="74.2495859 79.4647048 79.9359119 79.4647048 79.9359119 66.0700088 74.2495859 66.0700088"></polygon>
                        <polygon id="Fill-45" fill="#FFFFFF" mask="url(#mask-2)" points="82.6653392 79.4647048 88.3516652 79.4647048 88.3516652 66.0700088 82.6653392 66.0700088"></polygon>
                        <polygon id="Fill-46" fill="#FFFFFF" mask="url(#mask-2)" points="91.0813216 79.4647048 96.7676476 79.4647048 96.7676476 66.0700088 91.0813216 66.0700088"></polygon>
                        <polygon id="Fill-47" fill="#FFFFFF" mask="url(#mask-2)" points="74.2495859 96.4984846 79.9359119 96.4984846 79.9359119 83.1040176 74.2495859 83.1040176"></polygon>
                        <polygon id="Fill-48" fill="#FFFFFF" mask="url(#mask-2)" points="82.6653392 96.4984846 88.3516652 96.4984846 88.3516652 83.1040176 82.6653392 83.1040176"></polygon>
                        <polygon id="Fill-49" fill="#FFFFFF" mask="url(#mask-2)" points="91.0813216 96.4984846 96.7676476 96.4984846 96.7676476 83.1040176 91.0813216 83.1040176"></polygon>
                        <polygon id="Fill-50" fill="#FFFFFF" mask="url(#mask-2)" points="74.2495859 62.4309251 79.9359119 62.4309251 79.9359119 49.0362291 74.2495859 49.0362291"></polygon>
                        <polygon id="Fill-51" fill="#FFFFFF" mask="url(#mask-2)" points="82.6653392 62.4309251 88.3516652 62.4309251 88.3516652 49.0362291 82.6653392 49.0362291"></polygon>
                        <polygon id="Fill-52" fill="#FFFFFF" mask="url(#mask-2)" points="91.0813216 62.4309251 96.7676476 62.4309251 96.7676476 49.0362291 91.0813216 49.0362291"></polygon>
                        <polygon id="Fill-53" fill="#FFFFFF" mask="url(#mask-2)" points="40.6497974 148.780476 63.16763 148.780476 63.16763 114.685198 40.6497974 114.685198"></polygon>
                        <path d="M64.7028211,119.234099 L39.1142396,119.234099 C38.7536758,119.234099 38.4613762,118.942028 38.4613762,118.581235 C38.4613762,118.220671 38.7536758,117.928601 39.1142396,117.928601 L64.7028211,117.928601 C65.063385,117.928601 65.3554555,118.220671 65.3554555,118.581235 C65.3554555,118.942028 65.063385,119.234099 64.7028211,119.234099" id="Fill-54" fill="#323E4E" mask="url(#mask-2)"></path>
                        <path d="M64.7028211,115.574925 L39.1142396,115.574925 C38.7536758,115.574925 38.4613762,115.282855 38.4613762,114.922062 C38.4613762,114.561727 38.7536758,114.269656 39.1142396,114.269656 L64.7028211,114.269656 C65.063385,114.269656 65.3554555,114.561727 65.3554555,114.922062 C65.3554555,115.282855 65.063385,115.574925 64.7028211,115.574925" id="Fill-55" fill="#323E4E" mask="url(#mask-2)"></path>
                        <path d="M51.9085991,149.162367 C51.5480352,149.162367 51.2559648,148.870296 51.2559648,148.509503 L51.2559648,118.581327 C51.2559648,118.220763 51.5480352,117.928463 51.9085991,117.928463 C52.269163,117.928463 52.5612335,118.220763 52.5612335,118.581327 L52.5612335,148.509503 C52.5612335,148.870296 52.269163,149.162367 51.9085991,149.162367" id="Fill-56" fill="#323E4E" mask="url(#mask-2)"></path>
                        <path d="M51.9085991,130.786277 C50.3873128,130.786277 49.1493921,132.023968 49.1493921,133.545484 C49.1493921,135.066999 50.3873128,136.304691 51.9085991,136.304691 C53.4298855,136.304691 54.6678062,135.066999 54.6678062,133.545484 C54.6678062,132.023968 53.4298855,130.786277 51.9085991,130.786277 M51.9085991,137.609959 C49.6673304,137.609959 47.8441233,135.786752 47.8441233,133.545484 C47.8441233,131.304444 49.6673304,129.481008 51.9085991,129.481008 C54.1498678,129.481008 55.9730749,131.304444 55.9730749,133.545484 C55.9730749,135.786752 54.1498678,137.609959 51.9085991,137.609959" id="Fill-57" fill="#323E4E" mask="url(#mask-2)"></path>
                        <polygon id="Fill-58" fill="#FFFFFF" mask="url(#mask-2)" points="40.6495683 108.755595 46.3358943 108.755595 46.3358943 95.3611278 40.6495683 95.3611278"></polygon>
                        <polygon id="Fill-59" fill="#FFFFFF" mask="url(#mask-2)" points="49.0653216 108.755595 54.7516476 108.755595 54.7516476 95.3611278 49.0653216 95.3611278"></polygon>
                        <polygon id="Fill-60" fill="#FFFFFF" mask="url(#mask-2)" points="57.481304 108.755595 63.16763 108.755595 63.16763 95.3611278 57.481304 95.3611278"></polygon>
                        <polygon id="Fill-61" fill="#FFFFFF" mask="url(#mask-2)" points="40.6495683 90.8119295 46.3358943 90.8119295 46.3358943 77.4174626 40.6495683 77.4174626"></polygon>
                        <polygon id="Fill-62" fill="#FFFFFF" mask="url(#mask-2)" points="49.0653216 90.8119295 54.7516476 90.8119295 54.7516476 77.4174626 49.0653216 77.4174626"></polygon>
                        <polygon id="Fill-63" fill="#FFFFFF" mask="url(#mask-2)" points="57.481304 90.8119295 63.16763 90.8119295 63.16763 77.4174626 57.481304 77.4174626"></polygon>
                        <polygon id="Fill-64" fill="#FFFFFF" mask="url(#mask-2)" points="40.6495683 72.8684934 46.3358943 72.8684934 46.3358943 59.4737974 40.6495683 59.4737974"></polygon>
                        <polygon id="Fill-65" fill="#FFFFFF" mask="url(#mask-2)" points="49.0653216 72.8684934 54.7516476 72.8684934 54.7516476 59.4737974 49.0653216 59.4737974"></polygon>
                        <polygon id="Fill-66" fill="#FFFFFF" mask="url(#mask-2)" points="57.481304 72.8684934 63.16763 72.8684934 63.16763 59.4737974 57.481304 59.4737974"></polygon>
                        <polygon id="Fill-67" fill="#FFFFFF" mask="url(#mask-2)" points="40.6495683 54.9248282 46.3358943 54.9248282 46.3358943 41.5303612 40.6495683 41.5303612"></polygon>
                        <polygon id="Fill-68" fill="#FFFFFF" mask="url(#mask-2)" points="49.0653216 54.9248282 54.7516476 54.9248282 54.7516476 41.5303612 49.0653216 41.5303612"></polygon>
                        <polygon id="Fill-69" fill="#FFFFFF" mask="url(#mask-2)" points="57.481304 54.9248282 63.16763 54.9248282 63.16763 41.5303612 57.481304 41.5303612"></polygon>
                        <path d="M31.0059965,111.336375 L5.41741498,111.336375 C5.0568511,111.336375 4.76478062,111.044305 4.76478062,110.683512 C4.76478062,110.323177 5.0568511,110.031107 5.41741498,110.031107 L31.0059965,110.031107 C31.3665604,110.031107 31.6586308,110.323177 31.6586308,110.683512 C31.6586308,111.044305 31.3665604,111.336375 31.0059965,111.336375" id="Fill-70" fill="#323E4E" mask="url(#mask-2)"></path>
                        <path d="M31.0059965,128.921905 L5.41741498,128.921905 C5.0568511,128.921905 4.76478062,128.629834 4.76478062,128.269041 C4.76478062,127.908707 5.0568511,127.616636 5.41741498,127.616636 L31.0059965,127.616636 C31.3665604,127.616636 31.6586308,127.908707 31.6586308,128.269041 C31.6586308,128.629834 31.3665604,128.921905 31.0059965,128.921905" id="Fill-71" fill="#323E4E" mask="url(#mask-2)"></path>
                        <path d="M31.0059965,146.003424 L5.41741498,146.003424 C5.0568511,146.003424 4.76478062,145.711353 4.76478062,145.35056 C4.76478062,144.989996 5.0568511,144.697926 5.41741498,144.697926 L31.0059965,144.697926 C31.3665604,144.697926 31.6586308,144.989996 31.6586308,145.35056 C31.6586308,145.711353 31.3665604,146.003424 31.0059965,146.003424" id="Fill-72" fill="#323E4E" mask="url(#mask-2)"></path>
                        <path d="M98.3028388,111.336375 L72.7144863,111.336375 C72.3539225,111.336375 72.0616229,111.044305 72.0616229,110.683512 C72.0616229,110.323177 72.3539225,110.031107 72.7144863,110.031107 L98.3028388,110.031107 C98.6634026,110.031107 98.9554731,110.323177 98.9554731,110.683512 C98.9554731,111.044305 98.6634026,111.336375 98.3028388,111.336375" id="Fill-73" fill="#323E4E" mask="url(#mask-2)"></path>
                        <path d="M98.3028388,128.921905 L72.7144863,128.921905 C72.3539225,128.921905 72.0616229,128.629834 72.0616229,128.269041 C72.0616229,127.908707 72.3539225,127.616636 72.7144863,127.616636 L98.3028388,127.616636 C98.6634026,127.616636 98.9554731,127.908707 98.9554731,128.269041 C98.9554731,128.629834 98.6634026,128.921905 98.3028388,128.921905" id="Fill-74" fill="#323E4E" mask="url(#mask-2)"></path>
                        <path d="M98.3028388,146.003424 L72.7144863,146.003424 C72.3539225,146.003424 72.0616229,145.711353 72.0616229,145.35056 C72.0616229,144.989996 72.3539225,144.697926 72.7144863,144.697926 L98.3028388,144.697926 C98.6634026,144.697926 98.9554731,144.989996 98.9554731,145.35056 C98.9554731,145.711353 98.6634026,146.003424 98.3028388,146.003424" id="Fill-75" fill="#323E4E" mask="url(#mask-2)"></path>
                        <path d="M31.0059965,59.3251965 L5.41741498,59.3251965 C5.0568511,59.3251965 4.76478062,59.033126 4.76478062,58.672333 C4.76478062,58.3119982 5.0568511,58.0199278 5.41741498,58.0199278 L31.0059965,58.0199278 C31.3665604,58.0199278 31.6586308,58.3119982 31.6586308,58.672333 C31.6586308,59.033126 31.3665604,59.3251965 31.0059965,59.3251965" id="Fill-76" fill="#323E4E" mask="url(#mask-2)"></path>
                        <path d="M31.0059965,76.910726 L5.41741498,76.910726 C5.0568511,76.910726 4.76478062,76.6186555 4.76478062,76.2580916 C4.76478062,75.8975278 5.0568511,75.6054573 5.41741498,75.6054573 L31.0059965,75.6054573 C31.3665604,75.6054573 31.6586308,75.8975278 31.6586308,76.2580916 C31.6586308,76.6186555 31.3665604,76.910726 31.0059965,76.910726" id="Fill-77" fill="#323E4E" mask="url(#mask-2)"></path>
                        <path d="M31.0059965,93.9920159 L5.41741498,93.9920159 C5.0568511,93.9920159 4.76478062,93.6999454 4.76478062,93.3393815 C4.76478062,92.9788176 5.0568511,92.6867471 5.41741498,92.6867471 L31.0059965,92.6867471 C31.3665604,92.6867471 31.6586308,92.9788176 31.6586308,93.3393815 C31.6586308,93.6999454 31.3665604,93.9920159 31.0059965,93.9920159" id="Fill-78" fill="#323E4E" mask="url(#mask-2)"></path>
                        <path d="M98.3028388,59.3251965 L72.7144863,59.3251965 C72.3539225,59.3251965 72.0616229,59.033126 72.0616229,58.672333 C72.0616229,58.3119982 72.3539225,58.0199278 72.7144863,58.0199278 L98.3028388,58.0199278 C98.6634026,58.0199278 98.9554731,58.3119982 98.9554731,58.672333 C98.9554731,59.033126 98.6634026,59.3251965 98.3028388,59.3251965" id="Fill-79" fill="#323E4E" mask="url(#mask-2)"></path>
                        <path d="M98.3028388,76.910726 L72.7144863,76.910726 C72.3539225,76.910726 72.0616229,76.6186555 72.0616229,76.2580916 C72.0616229,75.8975278 72.3539225,75.6054573 72.7144863,75.6054573 L98.3028388,75.6054573 C98.6634026,75.6054573 98.9554731,75.8975278 98.9554731,76.2580916 C98.9554731,76.6186555 98.6634026,76.910726 98.3028388,76.910726" id="Fill-80" fill="#323E4E" mask="url(#mask-2)"></path>
                        <path d="M98.3028388,93.9920159 L72.7144863,93.9920159 C72.3539225,93.9920159 72.0616229,93.6999454 72.0616229,93.3393815 C72.0616229,92.9788176 72.3539225,92.6867471 72.7144863,92.6867471 L98.3028388,92.6867471 C98.6634026,92.6867471 98.9554731,92.9788176 98.9554731,93.3393815 C98.9554731,93.6999454 98.6634026,93.9920159 98.3028388,93.9920159" id="Fill-81" fill="#323E4E" mask="url(#mask-2)"></path>
                        <path d="M64.7028211,106.249309 L39.1142396,106.249309 C38.7536758,106.249309 38.4613762,105.957239 38.4613762,105.596675 C38.4613762,105.236111 38.7536758,104.944041 39.1142396,104.944041 L64.7028211,104.944041 C65.063385,104.944041 65.3554555,105.236111 65.3554555,105.596675 C65.3554555,105.957239 65.063385,106.249309 64.7028211,106.249309" id="Fill-82" fill="#323E4E" mask="url(#mask-2)"></path>
                        <path d="M64.7028211,88.3058502 L39.1142396,88.3058502 C38.7536758,88.3058502 38.4613762,88.0137797 38.4613762,87.6529868 C38.4613762,87.2924229 38.7536758,87.0003524 39.1142396,87.0003524 L64.7028211,87.0003524 C65.063385,87.0003524 65.3554555,87.2924229 65.3554555,87.6529868 C65.3554555,88.0137797 65.063385,88.3058502 64.7028211,88.3058502" id="Fill-83" fill="#323E4E" mask="url(#mask-2)"></path>
                        <path d="M64.7028211,70.362185 L39.1142396,70.362185 C38.7536758,70.362185 38.4613762,70.0701145 38.4613762,69.7093216 C38.4613762,69.3489868 38.7536758,69.0569163 39.1142396,69.0569163 L64.7028211,69.0569163 C65.063385,69.0569163 65.3554555,69.3489868 65.3554555,69.7093216 C65.3554555,70.0701145 65.063385,70.362185 64.7028211,70.362185" id="Fill-84" fill="#323E4E" mask="url(#mask-2)"></path>
                        <path d="M64.7028211,52.4184969 L39.1142396,52.4184969 C38.7536758,52.4184969 38.4613762,52.1264264 38.4613762,51.7656335 C38.4613762,51.4052987 38.7536758,51.1132282 39.1142396,51.1132282 L64.7028211,51.1132282 C65.063385,51.1132282 65.3554555,51.4052987 65.3554555,51.7656335 C65.3554555,52.1264264 65.063385,52.4184969 64.7028211,52.4184969" id="Fill-85" fill="#323E4E" mask="url(#mask-2)"></path>
                        <g id="Group-90" mask="url(#mask-2)" fill="#323E4E">
                            <g transform="translate(32.070485, 147.982379)">
                                <path d="M1.37834361,19.0821674 L38.2976564,19.0821674 L38.2976564,14.0869604 L1.37834361,14.0869604 L1.37834361,19.0821674 Z M38.9505198,20.3876652 L0.725709251,20.3876652 C0.365145374,20.3876652 0.0730748899,20.0953656 0.0730748899,19.7350308 L0.0730748899,13.4345551 C0.0730748899,13.0739912 0.365145374,12.7819207 0.725709251,12.7819207 L38.9505198,12.7819207 C39.3110837,12.7819207 39.6031542,13.0739912 39.6031542,13.4345551 L39.6031542,19.7350308 C39.6031542,20.0953656 39.3110837,20.3876652 38.9505198,20.3876652 Z" id="Fill-87"></path>
                                <path d="M4.66969163,12.8045991 L35.0063084,12.8045991 L35.0063084,7.7917533 L4.66969163,7.7917533 L4.66969163,12.8045991 Z M35.6589427,14.1098678 L4.01705727,14.1098678 C3.65649339,14.1098678 3.36442291,13.8177974 3.36442291,13.4572335 L3.36442291,7.13911894 C3.36442291,6.77855507 3.65649339,6.48625551 4.01705727,6.48625551 L35.6589427,6.48625551 C36.0195066,6.48625551 36.3115771,6.77855507 36.3115771,7.13911894 L36.3115771,13.4572335 C36.3115771,13.8177974 36.0195066,14.1098678 35.6589427,14.1098678 Z" id="Fill-88"></path>
                                <path d="M8.258837,6.44593833 L31.4173921,6.44593833 L31.4173921,1.45073128 L8.258837,1.45073128 L8.258837,6.44593833 Z M32.0700264,7.75143612 L7.60620264,7.75143612 C7.24563877,7.75143612 6.95333921,7.45913656 6.95333921,7.09857269 L6.95333921,0.798096916 C6.95333921,0.437762115 7.24563877,0.145462555 7.60620264,0.145462555 L32.0700264,0.145462555 C32.4305903,0.145462555 32.7228899,0.437762115 32.7228899,0.798096916 L32.7228899,7.09857269 C32.7228899,7.45913656 32.4305903,7.75143612 32.0700264,7.75143612 Z" id="Fill-89"></path>
                            </g>
                        </g>
                    </g>
                </g>
            </g>
        </g>
    </g>
</svg>