<?xml version="1.0" encoding="UTF-8"?>
<svg width="24px" height="24px" viewBox="0 0 24 24" version="1.1" xmlns="http://www.w3.org/2000/svg" xmlns:xlink="http://www.w3.org/1999/xlink">
    <!-- Generator: Sketch 50.2 (55047) - http://www.bohemiancoding.com/sketch -->
    <title>Group 2</title>
    <desc>Created with Sketch.</desc>
    <defs>
        <polygon id="path-1" points="0.158912037 0.037218382 0.247667542 0.037218382 0.247667542 1.81109191 0.158912037 1.81109191"></polygon>
        <polygon id="path-3" points="0 0.0521526711 0.28028792 0.0521526711 0.28028792 0.934555812 0 0.934555812"></polygon>
        <polygon id="path-5" points="0.0851915562 0.0989076634 7.02177837 0.0989076634 7.02177837 0.746714456 0.0851915562 0.746714456"></polygon>
        <polygon id="path-7" points="0.158912037 0.0094832736 0.247667542 0.0094832736 0.247667542 0.763878222 0.158912037 0.763878222"></polygon>
        <polygon id="path-9" points="0 23.1214798 23.0422825 23.1214798 23.0422825 0 0 0"></polygon>
    </defs>
    <g id="Future-Project-Desktop" stroke="none" stroke-width="1" fill="none" fill-rule="evenodd">
        <g id="maps" transform="translate(-1164.000000, -442.000000)">
            <g id="about-us/map" transform="translate(48.000000, 44.000000)">
                <g id="map-markers" transform="translate(417.000000, 317.000000)">
                    <g id="Group-2" transform="translate(699.000000, 81.000000)">
                        <path d="M0,13.6727273 L0,7.10909091 L0.108552632,7.10909091 L2.0625,4 L19.9375,4.34545455 L21.8786765,7.10909091 L22,7.10909091 L22,13.6727273 C22,18.8240378 17.0751322,23 11,23 C4.92486775,23 3.75171726e-15,18.8240378 2.1435168e-30,13.6727273 Z" id="Combined-Shape" fill="#FFFFFF" fill-rule="nonzero"></path>
                        <g id="Group-102">
                            <path d="M22.1447396,15.9701208 L22.1801453,15.9701208 C22.3368566,15.7011969 22.4793757,15.4269393 22.6077026,15.1479881 L22.6077026,15.067023 C22.470711,15.3738159 22.3159418,15.6749552 22.1447396,15.9701208" id="Fill-1" fill="#916AF9"></path>
                            <g id="Group-5" transform="translate(22.935780, 10.640681)">
                                <mask id="mask-2" fill="white">
                                    <use xlink:href="#path-1"></use>
                                </mask>
                                <g id="Clip-4"></g>
                                <path d="M0.17657901,0.920048216 C0.17657901,1.04634963 0.169568306,1.17190434 0.158912037,1.29724569 L0.158912037,1.81109191 C0.217521517,1.51827317 0.247527328,1.22257424 0.247527328,0.924101809 C0.247527328,0.625629374 0.217521517,0.329930449 0.158912037,0.037218382 L0.158912037,0.542850742 C0.169568306,0.668192098 0.17657901,0.7937468 0.17657901,0.920048216" id="Fill-3" fill="#916AF9" mask="url(#mask-2)"></path>
                            </g>
                            <path d="M11.5076665,0.613361922 C8.61202429,0.613361922 5.97695804,1.75412826 4.02338175,3.61142046 L18.9920574,3.61142046 C17.0384811,1.75412826 14.4033087,0.613361922 11.5076665,0.613361922" id="Fill-6" fill="#5CD8FF"></path>
                            <path d="M19.2679239,20.0896057 C20.3730887,19.0877283 21.2824499,17.8720771 21.9313413,16.5075098 L21.9071313,16.5075098 C21.2632305,17.8683436 20.3625765,19.083568 19.2679239,20.0896057" id="Fill-8" fill="#916AF9"></path>
                            <path d="M15.5204723,22.3564175 L15.5204723,22.3958867 C16.2637615,22.1170422 16.9708418,21.7632062 17.6326877,21.343446 L17.60285,21.343446 C16.9493926,21.7482719 16.2525059,22.088987 15.5204723,22.3564175" id="Fill-10" fill="#000000"></path>
                            <path d="M19.2644941,20.0979715 C19.2675788,20.0951758 19.2703831,20.0923801 19.2734678,20.0895844 C19.2703831,20.0923801 19.2675788,20.0948962 19.2644941,20.0976919 L19.2644941,20.0979715 Z" id="Fill-12" fill="#000000"></path>
                            <path d="M4.28817321,20.5690216 C4.3928708,20.6600383 4.49884259,20.7495703 4.60661952,20.8367042 L4.83555258,20.8367042 C4.64877463,20.6882454 4.46613787,20.5338483 4.28817321,20.3737413 L4.28817321,20.5690216 Z" id="Fill-14" fill="#000000"></path>
                            <path d="M0.544045192,14.4187788 L0.544045192,15.0745008 C0.640885151,15.3787336 0.74993629,15.6774194 0.870561502,15.9701314 L1.06020642,15.9701314 C0.853147299,15.4698327 0.679748556,14.9519329 0.544045192,14.4187788" id="Fill-16" fill="#000000"></path>
                            <path d="M1.29884472,16.5074991 L1.10813795,16.5074991 C1.75331295,17.8706797 2.65598454,19.087931 3.75329171,20.0950354 L3.75329171,19.8954493 C2.74220608,18.932081 1.9065367,17.7851276 1.29884472,16.5074991" id="Fill-18" fill="#000000"></path>
                            <g id="Group-22" transform="translate(0.000000, 11.067375)">
                                <mask id="mask-4" fill="white">
                                    <use xlink:href="#path-3"></use>
                                </mask>
                                <g id="Clip-21"></g>
                                <path d="M-0.000140214067,0.493354241 C-0.000140214067,0.641203704 0.00967477064,0.788093105 0.0242570336,0.934555812 L0.0242570336,0.0521526711 C0.00967477064,0.198615378 -0.000140214067,0.345611452 -0.000140214067,0.493354241" id="Fill-20" fill="#000000" mask="url(#mask-4)"></path>
                            </g>
                            <path d="M5.62729358,21.3434886 L5.38264526,21.3434886 C6.05022511,21.7668757 6.76367652,22.1233786 7.5141862,22.4031831 L7.5141862,22.2823221 C6.85340214,22.0270524 6.22234964,21.7119389 5.62729358,21.3434886" id="Fill-23" fill="#000000"></path>
                            <path d="M11.615093,0.0849441031 C14.8527544,0.0849441031 17.7755798,1.4379907 19.8548781,3.61146313 L19.855409,3.61146313 C17.7568914,1.3884942 14.7906367,3.20020481e-05 11.5076346,3.20020481e-05 C8.2246326,3.20020481e-05 5.2585903,1.3884942 3.16007263,3.61146313 L3.37530793,3.61146313 C5.45460627,1.4379907 8.3775378,0.0849441031 11.615093,0.0849441031" id="Fill-25" fill="#000000"></path>
                            <g id="Group-29" transform="translate(7.963812, 22.374765)">
                                <mask id="mask-6" fill="white">
                                    <use xlink:href="#path-5"></use>
                                </mask>
                                <g id="Clip-28"></g>
                                <path d="M3.65128058,0.669824202 C2.4058465,0.669824202 1.20734582,0.468958013 0.0851915562,0.0989076634 L0.0851915562,0.212834955 C1.1772957,0.559310463 2.33926903,0.746735791 3.54382221,0.746735791 C4.75559591,0.746735791 5.92394028,0.556963646 7.02177837,0.206647892 L7.02177837,0.161951698 C5.95632645,0.491999488 4.82450943,0.669824202 3.65128058,0.669824202" id="Fill-27" fill="#000000" mask="url(#mask-6)"></path>
                            </g>
                            <path d="M18.4142328,21.01087 C18.5642005,20.8638157 18.7116737,20.7127456 18.8575327,20.5591895 L18.8575327,20.5479071 C18.7055106,20.7058614 18.5512875,20.8601824 18.3945697,21.01087 L18.4142328,21.01087 Z" id="Fill-30" fill="#000000"></path>
                            <path d="M1.53464789,15.9701208 C0.955094716,14.6522764 0.627091828,13.1988501 0.612013677,11.671499 L0.54405581,11.671499 L0.54405581,14.4187681 C0.679759174,14.9519223 0.853157917,15.4698221 1.06021704,15.9701208 L1.53464789,15.9701208 Z" id="Fill-32" fill="#000000"></path>
                            <path d="M4.28817321,19.7532322 L4.28817321,20.3737519 C4.46613787,20.5233082 4.64877463,20.6675307 4.83555258,20.8062063 L5.67854867,20.8062063 C5.18691599,20.4922662 4.72225408,20.1398169 4.28817321,19.7532322" id="Fill-34" fill="#000000"></path>
                            <path d="M11.5076665,0.613361922 C14.4033087,0.613361922 17.0384811,1.75412826 18.9920574,3.61142046 L19.8548038,3.61142046 C17.7755054,1.43794803 14.8527863,0.0849014337 11.6151249,0.0849014337 C8.37746347,0.0849014337 5.45463812,1.43794803 3.37533979,3.61142046 L4.02338175,3.61142046 C5.97695804,1.75412826 8.61202429,0.613361922 11.5076665,0.613361922" id="Fill-36" fill="#000000"></path>
                            <path d="M3.75331295,19.8954813 L3.75331295,19.2440263 C2.96638209,18.4424817 2.30103211,17.5202893 1.78816259,16.5075311 L1.29886595,16.5075311 C1.90645175,17.7850529 2.74222732,18.932113 3.75331295,19.8954813" id="Fill-38" fill="#000000"></path>
                            <path d="M22.4737725,11.671467 L22.4034786,11.671467 C22.3882943,13.1989247 22.0602914,14.6522444 21.4807382,15.9700888 L22.1447078,15.9700888 C22.266501,15.6750299 22.3764016,15.3737839 22.4737725,15.066991 L22.4737725,11.671467 Z" id="Fill-40" fill="#000000"></path>
                            <g id="Group-44" transform="translate(22.935780, 11.174048)">
                                <mask id="mask-8" fill="white">
                                    <use xlink:href="#path-7"></use>
                                </mask>
                                <g id="Clip-43"></g>
                                <path d="M0.17657901,0.386680748 C0.17657901,0.260379331 0.169568306,0.134824629 0.158912037,0.0094832736 L0.158912037,0.763878222 C0.169568306,0.638536866 0.17657901,0.512982164 0.17657901,0.386680748" id="Fill-42" fill="#000000" mask="url(#mask-8)"></path>
                            </g>
                            <path d="M21.9071738,16.5074991 L21.2271704,16.5074991 C20.7148318,17.5192972 20.0504375,18.4406362 19.2644623,19.2415408 L19.2644623,20.0925819 C19.2656303,20.0916219 19.2667983,20.0906618 19.2679664,20.0895951 C20.3625127,19.0835573 21.263273,17.8683329 21.9071738,16.5074991" id="Fill-45" fill="#000000"></path>
                            <path d="M15.5204723,21.7389273 L15.5204723,22.3564601 C16.2525059,22.088923 16.9493926,21.7482079 17.60285,21.3434886 L16.3946865,21.3434886 C16.1102192,21.4876045 15.8186374,21.6198797 15.5204723,21.7389273" id="Fill-47" fill="#000000"></path>
                            <path d="M17.3369011,20.8061636 L18.3946016,20.8061636 C18.5079001,20.7221049 18.6196058,20.6360194 18.7296126,20.5479071 L18.7296126,19.7510561 C18.2947885,20.1384942 17.8293833,20.4916901 17.3369011,20.8061636" id="Fill-49" fill="#000000"></path>
                            <path d="M6.62059336,21.3434886 L5.62734667,21.3434886 C6.22229655,21.7119389 6.85334905,22.0270524 7.51413311,22.2823221 L7.51413311,21.7468211 C7.20927837,21.6257467 6.9113256,21.4906981 6.62059336,21.3434886" id="Fill-51" fill="#000000"></path>
                            <path d="M11.5076665,22.5080965 C10.2991845,22.5080965 9.13614934,22.3091505 8.04903585,21.9426203 L8.04903585,22.473641 C9.17119011,22.8436913 10.3696908,23.0445575 11.6151249,23.0445575 C12.7883537,23.0445575 13.9201707,22.8667328 14.9856227,22.5367917 L14.9856227,21.9363266 C13.8928814,22.307017 12.7232628,22.5080965 11.5076665,22.5080965" id="Fill-53" fill="#000000"></path>
                            <path d="M0.544045192,6.83542413 L1.00594631,6.83542413 C1.0871772,6.65386585 1.17276164,6.47465438 1.26301818,6.29810975 L0.82819402,6.29810975 L2.54147554,4.14874552 L2.68365613,4.14874552 C2.83709225,3.96473374 2.99583758,3.7854156 3.16010449,3.61143113 L2.41607204,3.61143113 C2.39950731,3.60983103 2.38262402,3.60983103 2.36595311,3.61143113 C2.30266735,3.62465864 2.24617737,3.66039427 2.20720778,3.71213091 L0.0677030241,6.39880952 C0.0297952769,6.44649258 0.00919554876,6.50580304 0.00919554876,6.5667136 L0.00919554876,11.1195383 C0.0493331634,10.0523767 0.233775059,9.02180406 0.544045192,8.046915 L0.544045192,6.83542413 Z" id="Fill-55" fill="#000000"></path>
                            <path d="M20.3371241,4.14874552 L20.4764377,4.14874552 L22.1896131,6.29810975 L21.7709289,6.29810975 C21.8617164,6.47465438 21.9486812,6.6536525 22.0305492,6.83542413 L22.4737619,6.83542413 L22.4737619,7.98152415 C22.7544066,8.8401391 22.9374681,9.7432369 23.0086115,10.6779101 L23.0086115,6.5667136 C23.0086115,6.50580304 22.988118,6.44659925 22.9501041,6.39880952 L20.8107055,3.71213091 C20.7598433,3.64844683 20.6829659,3.61132446 20.601735,3.61143113 L19.8553665,3.6114309 C19.8587644,3.61505803 19.8620562,3.6187916 19.8655602,3.6224185 C20.0281282,3.79288274 20.1850684,3.96857399 20.3371241,4.14874552" id="Fill-57" fill="#000000"></path>
                            <path d="M20.3371241,4.14874552 C20.1850684,3.96857399 20.0281282,3.79288274 19.8655602,3.6224185 C20.0261107,3.79309609 20.1814581,3.96868066 20.3316025,4.14874552 L20.3371241,4.14874552 Z" id="Fill-59" fill="#000000"></path>
                            <path d="M18.9920893,3.61142046 L4.02330742,3.61142046 C3.84130776,3.78444487 3.66557297,3.96376301 3.49589067,4.14873485 L19.5196122,4.14873485 C19.3498237,3.96376301 19.1739828,3.78444487 18.9920893,3.61142046" id="Fill-61" fill="#000000"></path>
                            <path d="M22.1802384,6.83542413 L22.2154158,6.83542413 C22.0791255,6.6536525 21.9343501,6.47465438 21.783211,6.29810975 L21.7524529,6.29810975 C21.9025313,6.47465438 22.0450087,6.65386585 22.1802384,6.83542413" id="Fill-63" fill="#000000"></path>
                            <path d="M22.3258185,15.9701208 C22.194078,16.1515724 22.0546652,16.3307838 21.9072057,16.5075418 L21.9496845,16.5075418 C22.0977054,16.3307838 22.2376796,16.151679 22.3701686,15.9701208 L22.3258185,15.9701208 Z" id="Fill-65" fill="#000000"></path>
                            <path d="M22.4737725,8.05446749 C22.7888209,9.04653098 22.9737937,10.0963048 23.0086222,11.1835211 L23.0086222,10.6778887 C22.9374788,9.74321557 22.7544173,8.84022444 22.4737725,7.98150282 L22.4737725,8.05446749 Z" id="Fill-67" fill="#000000"></path>
                            <path d="M22.4737725,15.066991 L22.4737725,15.1479561 C22.7544173,14.2893412 22.9374788,13.3863501 23.0086222,12.4516769 L23.0086222,11.9379374 C22.9737937,13.0251536 22.7888209,14.0749275 22.4737725,15.066991" id="Fill-69" fill="#000000"></path>
                            <mask id="mask-10" fill="white">
                                <use xlink:href="#path-9"></use>
                            </mask>
                            <g id="Clip-72"></g>
                            <path d="M8.03219504,15.9700888 L14.985559,15.9700888 L14.985559,11.671467 L8.03219504,11.671467 L8.03219504,15.9700888 Z M4.30491845,11.1341526 L11.2581762,11.1341526 L11.2581762,6.83542413 L4.30491845,6.83542413 L4.30491845,11.1341526 Z M11.7930258,11.1341526 L18.7463897,11.1341526 L18.7463897,6.83542413 L11.7930258,6.83542413 L11.7930258,11.1341526 Z M15.5205148,15.9700888 L15.5205148,11.671467 L22.4034786,11.671467 C22.4037971,11.6345579 22.404859,11.5977556 22.404859,11.5607399 C22.404859,11.4177974 22.4011425,11.275815 22.3958333,11.1341526 L19.2813456,11.1341526 L19.2813456,6.83542413 L21.3363277,6.83542413 C21.2493629,6.65343915 21.157195,6.47444103 21.0604613,6.29810975 L1.95485049,6.29810975 C1.85832909,6.47444103 1.76605505,6.65343915 1.67898403,6.83542413 L3.76996262,6.83542413 L3.76996262,11.1341526 L0.619584608,11.1341526 C0.614169215,11.275815 0.610558953,11.4177974 0.610558953,11.5607399 C0.610558953,11.5977556 0.611514611,11.6345579 0.611939348,11.671467 L7.4973454,11.671467 L7.4973454,15.9700888 L1.53467975,15.9700888 C1.61463643,16.1518604 1.69894665,16.3311785 1.78814135,16.5075098 L3.75329171,16.5075098 L3.75329171,19.2440049 C3.92573479,19.4196962 4.10423038,19.5895204 4.28814135,19.7532642 L4.28814135,16.5075098 L11.2415053,16.5075098 L11.2415053,20.8061316 L5.67851682,20.8061316 C5.98262827,21.000384 6.29703959,21.1797022 6.62058274,21.343446 L7.51412249,21.343446 L7.51412249,21.0126515 L8.04897214,21.0126515 L8.04897214,21.343446 L14.985559,21.343446 L14.985559,21.0659882 L15.5205148,21.0659882 L15.5205148,21.343446 L16.394729,21.343446 C16.7182722,21.1797022 17.0327897,21.000384 17.3369011,20.8061316 L11.7763549,20.8061316 L11.7763549,16.5075098 L18.7296126,16.5075098 L18.7296126,19.7510241 C18.9136298,19.5872803 19.0920192,19.4173494 19.2644623,19.2415515 L19.2644623,16.5075098 L21.2271704,16.5075098 C21.3165775,16.3311785 21.4007815,16.1518604 21.4807382,15.9700888 L15.5205148,15.9700888 Z" id="Fill-71" fill="#000000" mask="url(#mask-10)"></path>
                            <path d="M3.75331295,19.8954813 L3.75331295,20.0950674 C3.92671169,20.2542243 4.10520727,20.4077274 4.28816259,20.5561103 L4.28816259,20.3736986 C4.1049949,20.2197687 3.92649932,20.0603985 3.75331295,19.8954813" id="Fill-73" fill="#000000" mask="url(#mask-10)"></path>
                            <path d="M18.7296339,20.5492856 L18.7296339,20.5555982 C18.9125892,20.4066626 19.0910848,20.2524843 19.2644835,20.0927423 L19.2644835,20.0926353 C19.0909786,20.2502374 18.9125892,20.4024898 18.7296339,20.5492856" id="Fill-74" fill="#000000" mask="url(#mask-10)"></path>
                            <path d="M0.544045192,14.4187788 C0.311714237,13.5062937 0.1879035,12.5500725 0.1879035,11.5648361 C0.1879035,10.5794931 0.311714237,9.62327189 0.544045192,8.71078682 L0.544045192,8.04695767 C0.233775059,9.02174006 0.0493331634,10.0523127 0.00919554876,11.119581 L0.00919554876,12.0018775 C0.0493331634,13.0691458 0.233775059,14.0997184 0.544045192,15.0745008 L0.544045192,14.4187788 Z" id="Fill-75" fill="#000000" mask="url(#mask-10)"></path>
                            <path d="M1.46881371,6.29809908 L1.26827953,6.29809908 C1.1762506,6.47464371 1.08888274,6.65385518 1.00585075,6.83541347 L1.2037834,6.83541347 C1.28735738,6.65364183 1.376026,6.47464371 1.46881371,6.29809908" id="Fill-76" fill="#000000" mask="url(#mask-10)"></path>
                            <path d="M2.89315749,4.14874552 C3.04839874,3.96462707 3.20905539,3.78530893 3.37533979,3.61143113 L3.16010449,3.61143113 C2.99583758,3.7854156 2.83709225,3.96473374 2.68365613,4.14874552 L2.89315749,4.14874552 Z" id="Fill-77" fill="#000000" mask="url(#mask-10)"></path>
                            <path d="M19.8831164,3.6404424 C19.8741427,3.63093702 19.8654494,3.62115207 19.8561953,3.61136713 L19.8547932,3.61136713 C19.8643277,3.62115207 19.8738623,3.63065745 19.8831164,3.6404424" id="Fill-78" fill="#000000" mask="url(#mask-10)"></path>
                            <path d="M1.07561489,15.9701208 L0.870593357,15.9701208 C0.951522911,16.1515724 1.03704421,16.3307838 1.12738685,16.5075418 L1.33355632,16.5075418 C1.24275451,16.3307838 1.15688883,16.151679 1.07561489,15.9701208" id="Fill-79" fill="#000000" mask="url(#mask-10)"></path>
                            <path d="M18.394591,20.8061636 C18.1386871,20.9959357 17.8746071,21.1752539 17.6028818,21.343478 L17.6326134,21.343478 C17.8988171,21.1747205 18.1579065,20.9956157 18.4088197,20.8061636 L18.394591,20.8061636 Z" id="Fill-80" fill="#000000" mask="url(#mask-10)"></path>
                            <path d="M4.83558444,20.8061636 L4.60665138,20.8061636 C4.85745838,20.9956157 5.11654774,21.1747205 5.38264526,21.343478 L5.62729358,21.343478 C5.3555683,21.1752539 5.09159446,20.9959357 4.83558444,20.8061636" id="Fill-81" fill="#000000" mask="url(#mask-10)"></path>
                            <path d="M4.28817321,20.3737413 L4.28817321,19.7532215 C4.10426223,19.5894777 3.92576665,19.4197602 3.75332356,19.244069 L3.75332356,19.895524 C3.92650994,20.0604412 4.10489934,20.2198114 4.28817321,20.3737413" id="Fill-82" fill="#000000" mask="url(#mask-10)"></path>
                            <path d="M5.67852744,20.8061636 L4.83563753,20.8061636 C5.09164755,20.9959357 5.35562139,21.1752539 5.62734667,21.343478 L6.62059336,21.343478 C6.2970502,21.1797342 5.98263889,21.000416 5.67852744,20.8061636" id="Fill-83" fill="#000000" mask="url(#mask-10)"></path>
                            <path d="M0.642730091,11.671467 C0.642274531,11.6345579 0.641135631,11.5977556 0.641135631,11.5607399 C0.641135631,11.4177974 0.645121782,11.275815 0.650930173,11.1341526 L0.569840474,11.1341526 L0.569840474,8.71085083 C0.320649093,9.62333589 0.18796721,10.5795571 0.18796721,11.5647935 C0.18796721,12.5500299 0.320649093,13.5062511 0.569840474,14.4187361 L0.569840474,11.671467 L0.642730091,11.671467 Z" id="Fill-84" fill="#000000" mask="url(#mask-10)"></path>
                            <path d="M4.02333928,3.61142046 L3.37529732,3.61142046 C3.20901291,3.78529826 3.04835627,3.96472308 2.89311502,4.14873485 L3.49581634,4.14873485 C3.66560483,3.96376301 3.84133962,3.78444487 4.02333928,3.61142046" id="Fill-85" fill="#000000" mask="url(#mask-10)"></path>
                            <path d="M1.29884472,16.5074991 L1.78814135,16.5074991 C1.69894665,16.3311679 1.61463643,16.1518497 1.53467975,15.9700781 L1.0602489,15.9700781 C1.13542729,16.1516364 1.21485304,16.3308478 1.29884472,16.5074991" id="Fill-86" fill="#000000" mask="url(#mask-10)"></path>
                            <path d="M21.2271385,16.5074991 L21.9071419,16.5074991 C21.9908151,16.3307412 22.0699223,16.1516364 22.1447821,15.9700781 L21.4808125,15.9700781 C21.4008558,16.1518497 21.3165456,16.3311679 21.2271385,16.5074991" id="Fill-87" fill="#000000" mask="url(#mask-10)"></path>
                            <path d="M18.7296339,19.7510454 L18.7296339,20.5478964 C18.9125892,20.4015404 19.0909786,20.249744 19.2644835,20.0926139 L19.2644835,19.2415728 C19.0920404,19.4173707 18.9135449,19.5871949 18.7296339,19.7510454" id="Fill-88" fill="#000000" mask="url(#mask-10)"></path>
                            <path d="M16.394729,21.3434886 L17.6028925,21.3434886 C17.8746177,21.1752646 18.1386978,20.9959464 18.3946016,20.8061743 L17.3369011,20.8061743 C17.0327897,21.0004267 16.7182722,21.1797448 16.394729,21.3434886" id="Fill-89" fill="#000000" mask="url(#mask-10)"></path>
                            <path d="M1.19971118,6.83542413 L1.6790265,6.83542413 C1.76609752,6.65343915 1.85826538,6.47444103 1.95478678,6.29810975 L1.45933146,6.29810975 C1.36843782,6.47465438 1.28157917,6.6536525 1.19971118,6.83542413" id="Fill-90" fill="#000000" mask="url(#mask-10)"></path>
                            <path d="M19.519591,4.14874552 L20.3315813,4.14874552 C20.1814369,3.96868066 20.0261956,3.79309609 19.865539,3.6224185 C19.8620349,3.6187916 19.8583185,3.6151647 19.8548144,3.61143113 L18.992068,3.61143113 C19.1739615,3.78434886 19.3498025,3.96377368 19.519591,4.14874552" id="Fill-91" fill="#000000" mask="url(#mask-10)"></path>
                            <path d="M21.7524635,6.29809908 L21.0604613,6.29809908 C21.157195,6.47443036 21.2493629,6.65342849 21.3363277,6.83541347 L22.0094292,6.83541347 C21.9281983,6.65385518 21.8426138,6.47464371 21.7524635,6.29809908" id="Fill-92" fill="#000000" mask="url(#mask-10)"></path>
                            <path d="M22.3957909,11.1341419 C22.4012063,11.2758043 22.4048165,11.4177867 22.4048165,11.5607292 C22.4048165,11.5977449 22.4037547,11.6345473 22.4034361,11.6714563 L22.47373,11.6714563 L22.47373,15.0669803 C22.7887785,14.0749168 22.9737513,13.0252496 23.0085797,11.9379267 L23.0085797,11.1835317 C22.9737513,10.0963155 22.7887785,9.04654165 22.47373,8.05447815 L22.47373,11.1341419 L22.3957909,11.1341419 Z" id="Fill-93" fill="#000000" mask="url(#mask-10)"></path>
                            <path d="M15.5204723,21.7389273 L15.5204723,21.3434886 L14.9856227,21.3434886 L14.9856227,21.9363799 C15.1660296,21.8751493 15.3443128,21.8092251 15.5204723,21.7389273" id="Fill-94" fill="#000000" mask="url(#mask-10)"></path>
                            <path d="M14.9856014,22.7276212 L14.9856014,22.8194231 C15.165796,22.7010469 15.3441854,22.5736662 15.5204511,22.4375006 L15.5204511,22.3564601 C15.3441854,22.4888922 15.165796,22.6127589 14.9856014,22.7276212" id="Fill-95" fill="#000000" mask="url(#mask-10)"></path>
                            <path d="M14.9856014,21.9363373 L14.9856014,22.5366957 C15.165796,22.4809054 15.3441854,22.4208483 15.5204511,22.3564175 L15.5204511,21.7388846 C15.3442915,21.8092891 15.1660083,21.8751067 14.9856014,21.9363373" id="Fill-96" fill="#000000" mask="url(#mask-10)"></path>
                            <polygon id="Fill-97" fill="#000000" mask="url(#mask-10)" points="14.9856651 21.5289512 15.5205148 21.5289512 15.5205148 21.0659882 14.9856651 21.0659882"></polygon>
                            <path d="M8.04900399,21.9425883 L8.04900399,21.34351 L7.51415435,21.34351 L7.51415435,21.7468425 C7.69010151,21.8167136 7.86859709,21.8817844 8.04900399,21.9425883" id="Fill-98" fill="#000000" mask="url(#mask-10)"></path>
                            <path d="M7.51414373,22.2823541 L7.51414373,22.4654687 C7.69040945,22.5652759 7.86869266,22.6586126 8.04899337,22.745317 L8.04899337,22.5723934 C7.86869266,22.482292 7.69030326,22.3855583 7.51414373,22.2823541" id="Fill-99" fill="#000000" mask="url(#mask-10)"></path>
                            <path d="M7.51414373,21.7467998 L7.51414373,22.2824074 C7.69030326,22.3504651 7.86869266,22.4142558 8.04899337,22.473673 L8.04899337,21.9425457 C7.86858648,21.8818484 7.69009089,21.8166709 7.51414373,21.7467998" id="Fill-100" fill="#000000" mask="url(#mask-10)"></path>
                            <polygon id="Fill-101" fill="#000000" mask="url(#mask-10)" points="7.51412249 21.4756144 8.04897214 21.4756144 8.04897214 21.0126515 7.51412249 21.0126515"></polygon>
                        </g>
                    </g>
                </g>
            </g>
        </g>
    </g>
</svg>