<svg height="48" viewBox="0 0 46 48" width="46" xmlns="http://www.w3.org/2000/svg"><g fill="none" fill-rule="evenodd" transform="translate(1 1)"><path d="m34.7141028 21.05374c0-7.048-5.8199083-12.7492-12.9573945-12.642-6.7317982.101-12.2879083 5.4676-12.55150463 12.1338-.16711927 4.2244 1.75858713 8.0112 4.83253213 10.424.688055.5402 1.1815413 1.2858 1.3662202 2.1362l1.0741651 4.9472c.1453211.6696.7427523 1.1478 1.4340367 1.1478h4.0780734 4.0786789c.6908807 0 1.2883119-.478 1.4338349-1.1472l1.0848623-4.99c.1810459-.8328.6388074-1.5854 1.3111193-2.1162 2.9344771-2.3162 4.8153762-5.8872 4.8153762-9.8936" fill="#5cd8ff"/><g stroke="#fff" stroke-linecap="round" stroke-linejoin="round" stroke-width="1.4"><path d="m25.3337064 21.36556c0 1.8494-1.5129541 3.3484-3.3791192 3.3484-1.8661652 0-3.3791193-1.499-3.3791193-3.3484 0-1.8492 1.5129541-3.3484 3.3791193-3.3484 1.8661651 0 3.3791192 1.4992 3.3791192 3.3484z"/><path d="m21.9545468 25.2055v17.4946"/><path d="m18.5754881 42.70004h6.7582385"/><path d="m19.1809927 45.6434h5.5472293"/><path d="m21.9545468.09994v5.28"/><path d="m38.0108532 6.5435-3.7676514 3.7334"/><path d="m5.63115229 6.5435 3.76765138 3.7334"/><path d="m5.83298716 36.47698 3.76765137-3.7334"/><path d="m38.2126881 36.47698-3.7676514-3.7334"/><path d="m43.8081963 21.77522h-5.3284403"/><path d="m5.42931743 21.77522h-5.32844037"/></g></g></svg>