<?xml version="1.0" encoding="UTF-8"?>
<svg width="93px" height="84px" viewBox="0 0 93 84" version="1.1" xmlns="http://www.w3.org/2000/svg" xmlns:xlink="http://www.w3.org/1999/xlink">
    <!-- Generator: Sketch 52 (66869) - http://www.bohemiancoding.com/sketch -->
    <title>Group 10</title>
    <desc>Created with Sketch.</desc>
    <defs>
        <polygon id="path-1" points="0.356181491 0.219887081 58.195914 0.219887081 58.195914 83.5980861 0.356181491 83.5980861"></polygon>
    </defs>
    <g id="Future-Project-Desktop" stroke="none" stroke-width="1" fill="none" fill-rule="evenodd">
        <g id="Future-Camp-update-video-thumb" transform="translate(-290.000000, -5231.000000)">
            <g id="Group-2" transform="translate(-291.000000, 5056.000000)">
                <g id="Group" transform="translate(456.000000, 0.000000)">
                    <g id="Group-10" transform="translate(127.000000, 175.000000)">
                        <g id="Group-3" transform="translate(15.234234, 0.182067)">
                            <mask id="mask-2" fill="white">
                                <use xlink:href="#path-1"></use>
                            </mask>
                            <g id="Clip-2"></g>
                            <path d="M58.0526554,0.219887081 L0.499322072,0.219887081 C0.499322072,0.219887081 -2.76561486,52.8677914 21.8905923,61.5901263 C21.7963806,63.7484038 21.0663401,70.658911 16.0025608,83.5981263 L43.3387905,83.5981263 C38.0156284,69.9941455 37.4820293,63.057112 37.4407365,61.297533 C61.2494392,51.7528823 58.0526554,0.219887081 58.0526554,0.219887081" id="Fill-1" fill="#5CD8FF" mask="url(#mask-2)"></path>
                        </g>
                        <path d="M75.9753712,25.7572536 L71.0715514,20.4998182 L88.727227,20.4998182 C88.727227,20.4998182 89.8064523,47.1989569 65.259691,46.5446411" id="Stroke-4" stroke="#162842" stroke-width="2.8" stroke-linecap="round" stroke-linejoin="round"></path>
                        <path d="M59.1674806,26.6205646 C59.0259626,26.1840861 58.6495167,25.8657703 58.1964986,25.7998565 L49.4849221,24.5306124 L45.5889671,16.6161244 C45.3865122,16.2049665 44.9683725,15.9445263 44.5101428,15.9445263 C44.0527149,15.9445263 43.6345752,16.2049665 43.4321203,16.6161244 L39.5357644,24.5306124 L30.8241878,25.7998565 C30.3707689,25.8657703 29.9947239,26.1840861 29.8532059,26.6205646 C29.7116878,27.0570431 29.8295527,27.5361244 30.1574896,27.8564498 L36.4612554,34.0165837 L34.9731113,42.7152057 C34.8957374,43.1673589 35.0813545,43.6247368 35.4517869,43.8944211 C35.8222194,44.1637033 36.3129221,44.1990718 36.7182329,43.9860574 L44.5101428,39.8793014 L52.3024536,43.9860574 C52.4784491,44.0788995 52.6704806,44.1247177 52.8617104,44.1247177 C53.1114716,44.1247177 53.3596293,44.0467464 53.5688995,43.8944211 C53.939332,43.6247368 54.1249491,43.1673589 54.0475752,42.7152057 L52.5594311,34.0165837 L58.8631968,27.8564498 C59.1911338,27.5361244 59.3089986,27.0570431 59.1674806,26.6205646" id="Fill-6" fill="#FFFFFF"></path>
                        <path d="M12.5971883,25.7572536 L17.8634225,20.4998182 L0.207345946,20.4998182 C0.207345946,20.4998182 -0.871879279,47.1989569 23.6744811,46.5446411" id="Stroke-8" stroke="#162842" stroke-width="2.8" stroke-linecap="round" stroke-linejoin="round"></path>
                    </g>
                </g>
            </g>
        </g>
    </g>
</svg>