<?xml version="1.0" encoding="UTF-8"?>
<svg width="70px" height="83px" viewBox="0 0 70 83" version="1.1" xmlns="http://www.w3.org/2000/svg" xmlns:xlink="http://www.w3.org/1999/xlink">
    <!-- Generator: sketchtool 50.2 (55047) - http://www.bohemiancoding.com/sketch -->
    <title>AA329261-5819-46BD-AFBF-253E9C59B77E</title>
    <desc>Created with sketchtool.</desc>
    <defs>
        <polygon id="path-1" points="0 83 70 83 70 0 0 0"></polygon>
    </defs>
    <g id="Future-Project-Desktop" stroke="none" stroke-width="1" fill="none" fill-rule="evenodd">
        <g id="About-us" transform="translate(-1150.000000, -2528.000000)">
            <g id="about-us/map" transform="translate(48.000000, 2184.000000)">
                <g id="location-hover" transform="translate(1102.000000, 344.000000)">
                    <g id="city-icon">
                        <path d="M29.6597788,31.9724096 L28.6382421,30.82181 L26,29 C26.0849825,29.5751358 26.0849825,30.1505996 26.1702561,30.7260633 L27.4467404,31.8766629 C28.3830035,32.64362 28.5532596,34.4657579 28.6382421,35.232715 C28.8084983,35.4245363 29.1490105,35.7121042 29.5745052,36 L30,35.3284617 L30,34.7533258 C29.8297439,34.6572513 29.6597788,34.5615046 29.4895227,34.4657579 C29.233993,34.1778621 29.1490105,33.7945475 29.1490105,33.5066517 L29.1490105,33.410905 C29.3192666,32.9311879 29.4895227,32.4517988 29.6597788,31.9724096" id="Fill-1" fill="#00B8FB"></path>
                        <path d="M60.5343211,37.6131378 C60.1678073,39.2739 58.6102804,39.7351527 57.8775661,39.7351527 L51.0986276,39.7351527 C50.2741283,39.7351527 48.6248163,39.2739 48.5333445,37.4285736 C48.4418726,35.9523756 49.266372,35.2141189 49.9990863,34.9374303 C50.1823432,34.0149249 50.8235857,33.4612324 50.8235857,33.4612324 C51.3733563,32.9075398 52.1063839,32.6308513 52.8390982,32.6308513 C53.022355,32.6308513 53.2052987,32.7232911 53.3885556,32.7232911 C53.8465411,32.1695986 54.5795687,31.7083458 55.4040681,31.6162215 C56.3203525,31.4316573 57.1448519,31.7083458 57.8775661,32.1695986 C58.8850091,32.9075398 59.1600511,33.9224851 59.068266,34.7531817 C60.3510642,35.2141189 60.8090498,36.321504 60.6257929,37.1518851 C60.6257929,37.3364493 60.5343211,37.4285736 60.5343211,37.6131378 M34.6622078,17 C31.8225092,17 29.0739691,17.3691284 26.4172142,18.1070696 C26.2342705,18.9374507 25.9592286,19.8599561 25.3182993,20.7827771 C25.3182993,20.7827771 24.8600005,21.7052825 25.0432574,22.7202278 L25.1350425,23.4584845 C25.3182993,24.4734298 25.5927148,26.0417521 25.8677568,27.7946386 L29.6237398,28.7171441 C29.8069967,28.4404555 29.9899403,28.2558913 30.2649823,27.9792028 L28.1579979,23.5506089 C28.0662129,23.2739203 28.0662129,22.9969163 28.3412548,22.8123521 C28.6159835,22.6277879 28.9821841,22.6277879 29.1654409,22.8123521 L32.8302654,26.2263163 C33.1961527,26.0417521 33.6544515,25.9493123 34.1124371,25.8571879 L35.4867071,21.7052825 C35.5781789,21.428594 35.8532209,21.2440298 36.1279496,21.2440298 C36.4026783,21.2440298 36.5859352,21.428594 36.6777203,21.7052825 L37.6854765,25.9493123 C37.8687334,26.0417521 38.1431488,26.1338765 38.3264057,26.2263163 L42.1741738,23.2739203 C42.4489025,23.0893561 42.8154163,23.0893561 42.9983599,23.2739203 C43.1816168,23.4584845 43.2730886,23.735173 43.090145,24.0118616 L40.6166469,28.2558913 C40.708432,28.4404555 40.7999038,28.6250197 40.8916889,28.8095839 L45.1053443,27.886763 C45.471858,27.7946386 45.7469,27.9792028 45.8383718,28.2558913 C45.9301569,28.5325799 45.8383718,28.8095839 45.5636431,28.9941481 L41.3496745,31.5774157 C41.3496745,31.8541042 41.2578894,32.1311083 41.1664176,32.3153569 C41.2578894,32.7766097 41.3496745,33.3303022 41.3496745,33.8839948 C41.6244032,36.4672624 41.4411463,36.7439509 41.2578894,36.9285151 C41.0931148,37.0114901 40.9286535,37.2408545 40.7641922,37.4210017 L40.7641922,37.6875945 C41.4489778,40.2115491 41.6218971,41.2769735 41.5329314,41.7262374 C41.8076601,41.9108016 42.082702,42.0953658 42.3574307,42.3720543 L43.7313875,43.7558125 C44.37263,44.4019449 44.8306156,45.2320105 44.9224006,46.1548314 L45.1971293,48.0922821 L47.5791556,50.9522382 L49.3193129,49.1072274 C49.5025698,48.8302233 49.8690835,48.8302233 50.1441255,49.0147875 L56.5565503,53.7203855 C56.7398071,53.8125099 56.8315922,53.997074 56.8315922,54.1816382 C56.8315922,54.3662024 56.7398071,54.5507666 56.6483353,54.6428909 L55.4573222,55.9345247 C55.4573222,56.0266491 55.548794,56.2112133 55.548794,56.3957775 C55.548794,56.7649058 55.4573222,57.2261586 55.1825935,57.5028471 C54.9075515,57.6874113 54.6328228,57.8719755 54.3577809,57.9640998 C54.3577809,58.2411038 54.174524,58.5177924 53.9915804,58.7947964 C53.8083235,58.9790451 53.5332815,59.1636093 53.2585528,59.2560491 C53.2585528,59.5327376 53.1667677,59.8094262 52.9838241,60.0861147 C52.8008805,60.3631187 52.4343667,60.5476829 52.0678529,60.6398072 C52.0678529,60.9168113 51.9763811,61.1934998 51.7931242,61.4701883 C51.5180823,61.8393167 51.0600967,62.0238809 50.6021111,62.0238809 C50.3270691,62.0238809 50.1438122,61.9317565 49.8690835,61.8393167 L49.7776117,61.9317565 C49.8690835,63.2230748 49.411098,65.5296539 47.3041136,66.637039 L48.3115566,74.6638459 L48.3115566,74.7559702 C48.3115566,74.8480946 48.1282997,76.5088567 47.0293849,77.8929304 C47.1208568,78.2617433 47.1208568,78.6308716 47.2126418,79 C58.7550064,74.018029 66.8167431,62.4851336 67,49.5684801 C67,31.66954 52.5258385,17 34.6622078,17" id="Fill-3" fill="#4BCCEF"></path>
                        <path d="M23.1818002,78.599798 L23.6362866,69.4614171 L22.1817437,64.4766735 C22.0909708,64.2920183 22.1817437,64.1073631 22.3636004,64.0151933 L23.2725731,62.9075777 L24,57.9228341 L23.7273704,57.9228341 C23.3636569,57.9228341 23.0910273,57.8306643 22.9091706,57.7384946 C21.5454006,56.9998737 21.4546277,54.5999874 21.4546277,54.3228467 L21.4546277,54.1381915 C21.6364844,53.3998864 22.4546842,52.5690958 23.4544298,51.6461354 L22.8183976,50.8153448 C22.7273138,50.8153448 22.7273138,50.723175 22.7273138,50.723175 L22.1817437,49.2459334 C22.0909708,49.0612782 22.0909708,48.876623 22.1817437,48.6922834 L22.9999435,47.2153574 L20.9998304,44.8151554 C20.9090575,44.6308158 20.9090575,44.4461606 20.9090575,44.2615054 L21.1816872,42.692094 C20.9998304,42.5999242 20.8182846,42.5077545 20.6364279,42.415269 C18.1818285,40.8461733 20.0908577,36.4153953 20.3637982,35.6767745 C19.909001,30.5076913 20.2727144,24.0460218 20.3637982,22.753751 L19.6363713,21.8307906 C19.6363713,21.7383052 19.5455984,21.6461354 19.5455984,21.4614802 L19.5455984,21 C10.0001413,25.8922582 3.18191324,35.4924349 2,46.7535616 C2.45479723,46.2920814 3.18191324,46.0152564 4.18196976,46.0152564 C4.5456832,45.2769512 5.54573972,43.9843648 7.36368518,43.9843648 C7.90925533,43.9843648 8.54559842,44.0768502 9.1819415,44.3536752 C9.27271443,44.3536752 10.999887,45.1844658 11.5454571,47.2153574 C12.6365974,47.4921824 14.0908294,48.322973 14.1819132,50.3538646 C14.2726862,51.4614802 13.9089727,52.3844406 13.1818567,53.1230614 C12.4547407,53.8613666 11.5454571,54.230677 10.909114,54.230677 L2.09108379,54.230677 C3.6363996,66.6922203 12.0910273,76.9382168 23.5455136,81 C23.6362866,80.353549 23.7273704,79.799899 23.8181433,79.3381032 C23.7273704,79.3381032 23.6362866,79.2459334 23.5455136,79.2459334 C23.2725731,79.0612782 23.1818002,78.876623 23.1818002,78.599798" id="Fill-5" fill="#4BCCEF"></path>
                        <mask id="mask-2" fill="white">
                            <use xlink:href="#path-1"></use>
                        </mask>
                        <g id="Clip-8"></g>
                        <polygon id="Fill-7" fill="#FFFFFF" mask="url(#mask-2)" points="39 41 41 41 41 36 39 36"></polygon>
                        <path d="M32,27.4667123 L32.5,28 C32.642892,27.8666211 32.857108,27.8000456 33,27.6666667 L32.5713239,27 C32.357108,27.1999544 32.142892,27.3333333 32,27.4667123" id="Fill-9" fill="#FFFFFF" mask="url(#mask-2)"></path>
                        <path d="M22.2781353,16.5 L23.7540994,16.5 C23.9181266,16.5 24,16.2999316 24,16.2000684 C24,16.0998632 23.9181266,16 23.8359728,16 L23.7540994,16 L23.6719457,16 L22.9339636,16 L22.1962619,16 C22.0322347,16 21.9500809,16.0998632 22.0322347,16.2000684 C22.0322347,16.4001368 22.1962619,16.5 22.2781353,16.5" id="Fill-10" fill="#FFFFFF" mask="url(#mask-2)"></path>
                        <path d="M33.5,37 L33.5,36.1536438 C33.4284319,36.0768219 33.4284319,36.0768219 33.357108,36 L33,36.6153644 C33.2142159,36.7692712 33.357108,36.9231781 33.5,37" id="Fill-11" fill="#FFFFFF" mask="url(#mask-2)"></path>
                        <path d="M41.3997948,26 L42,25 L41,25.7273858 C41.2000684,25.8181536 41.2999316,25.9092322 41.3997948,26" id="Fill-12" fill="#FFFFFF" mask="url(#mask-2)"></path>
                        <path d="M42.1199562,43 C41.7998906,43.2661953 41.3999453,43.44376 41,43.6213248 C41.0798796,43.7099554 41.3200657,43.8875201 41.7200109,43.9764542 C42.3598687,44.0650848 42.7600875,43.8875201 43,43.7099554 C42.7600875,43.3548259 42.4400219,43.1775647 42.1199562,43" id="Fill-13" fill="#FFFFFF" mask="url(#mask-2)"></path>
                        <path d="M41,28.3888678 C41.0834758,28.3888678 41.1666667,28.4443389 41.2501425,28.5 L41.5,28.3333967 C41.4168091,28.2222644 41.3333333,28.1111322 41.2501425,28 L41,28.3888678 Z" id="Fill-14" fill="#FFFFFF" mask="url(#mask-2)"></path>
                        <path d="M32.5452285,26 C32.7270749,25.9231983 32.8181536,25.8461336 33,25.7693319 L32,25 L32.5452285,26 Z" id="Fill-15" fill="#FFFFFF" mask="url(#mask-2)"></path>
                        <path d="M25,12.5 L25,12.3752137 L25,12 L23,12 L23,12.1252137 L24.3913173,12.25 C24.6520963,12.25 24.8260482,12.3752137 25,12.5" id="Fill-16" fill="#FFFFFF" mask="url(#mask-2)"></path>
                        <path d="M22,13.1667617 C22,13.3332383 22.1666904,13.4167617 22.2498931,13.4167617 L23.7498219,13.5 C23.9165123,13.5 24,13.3332383 24,13.25 C24,13.1667617 23.9165123,13.1667617 23.9165123,13.1667617 C23.9165123,13.1667617 23.8333096,13.0835234 23.7498219,13.0835234 L22.2498931,13 C22.1666904,13 22.0832027,13.0835234 22,13.1667617" id="Fill-17" fill="#FFFFFF" mask="url(#mask-2)"></path>
                        <path d="M22.2499288,15.5 L23,15.5 L23.7500712,15.5 L23.8332858,15.5 C23.9167854,15.5 24,15.4167617 24,15.3335234 C24,15.1667617 23.8332858,15.0832383 23.7500712,15.0832383 L22.2499288,15 C22.0832146,15 22,15.0832383 22,15.25 C22,15.4167617 22.1667142,15.5 22.2499288,15.5" id="Fill-18" fill="#FFFFFF" mask="url(#mask-2)"></path>
                        <path d="M23.3333967,41.7307819 L23,43.1732097 L24.3333017,45 L26,40 C25.1667933,40.7693825 24.250095,41.538765 23.3333967,41.7307819" id="Fill-19" fill="#FFFFFF" mask="url(#mask-2)"></path>
                        <path d="M31,29.4614575 L31.6363071,30 C31.7273858,30 31.7273858,29.9231781 31.7273858,29.9231781 C31.8181536,29.7692712 31.9092322,29.6921863 32,29.6153644 L31.3636929,29 C31.1818464,29.2307288 31.0907678,29.3846356 31,29.4614575" id="Fill-20" fill="#FFFFFF" mask="url(#mask-2)"></path>
                        <path d="M25.020556,38.4524405 C24.7547438,38.6312542 24.4001254,38.6312542 24.2228162,38.4524405 C23.6908887,38.0055593 23.3362703,37.558678 23.1589611,36.9329831 C22.8931489,38.0951189 22.8931489,39.3462031 23.6908887,39.882644 C25.1090591,40.7767122 27.5907815,38.0055593 28.3885214,36.9329831 C28.5658305,36.6646098 28.9204489,36.6646098 29.1862612,36.8434234 C29.4523765,37.0222371 29.4523765,37.3798644 29.2750673,37.647932 C29.0977581,37.8267456 28.6546367,38.4524405 28.033903,39.0781354 L28.3885214,39.0781354 C28.7431397,39.2569491 28.8319459,39.6145764 28.7431397,39.882644 L26.6160357,45.6034578 L26.5272295,45.6927118 L25.6409867,47.2124749 L26.0841081,48.2850511 L26.6160357,49 C30.4274255,46.1395931 36.8090408,42.9218646 40,41.4021014 C39.6453816,41.3128475 39.2907632,41.3128475 39.024951,41.3128475 C36.8090408,41.1340338 34.8589428,39.3462031 34.5931306,39.0781354 C32.6430326,37.558678 29.7181887,35.41322 29.5408795,35.323966 C29.3635703,35.234712 29.2750673,35.0558984 29.2750673,34.8770847 C29.2750673,34.4298978 29.1862612,33.6253892 28.9204489,33 C28.1227091,34.4298978 26.3499203,37.3798644 25.020556,38.4524405" id="Fill-21" fill="#FFFFFF" mask="url(#mask-2)"></path>
                        <path d="M41.0715681,34 C41.0715681,34.2498931 41.0715681,34.583274 41,34.9166548 L41.5,36 C41.5,35.7498219 41.5,34.9998575 41.4286761,34.2498931 L41.0715681,34 Z" id="Fill-22" fill="#FFFFFF" mask="url(#mask-2)"></path>
                        <path d="M32.7898433,35 C32.710967,35.0798796 32.6320908,35.0798796 32.5529444,35.0798796 L32.5529444,35.7200109 C32.5529444,35.8800438 32.5529444,35.9599234 32.4740681,36.0400766 L32,36.7600875 C32.0788763,36.8399672 32.1580227,36.9201204 32.3160454,37 L32.3160454,36.9398167 L32.3160454,37 L33,35.845028 C32.9692058,35.783477 32.947866,35.7221994 32.947866,35.6398577 C32.8689897,35.3999453 32.7898433,35.1600328 32.7898433,35" id="Fill-23" fill="#FFFFFF" mask="url(#mask-2)"></path>
                        <path d="M34.8666515,27 C34.5333941,27.0665603 34.2666971,27.1333485 34,27.2666971 L34.4000456,28 C34.5999544,27.9332118 34.7998632,27.8666515 35,27.7998632 L34.8666515,27 Z" id="Fill-24" fill="#FFFFFF" mask="url(#mask-2)"></path>
                        <path d="M37.1538664,26.9286761 L37.3847975,26.9286761 C37.5384008,26.9286761 37.6922672,27 37.8461336,27 L38,26.0715681 C37.7693319,26 37.5384008,26 37.2309311,26 L37,26 L37.1538664,26.9286761 Z" id="Fill-25" fill="#FFFFFF" mask="url(#mask-2)"></path>
                        <path d="M32.81004,30.0364068 C32.3597784,30.7422517 32.0898677,31.3602809 32,31.9780083 C32.1797353,31.9780083 32.4499538,32.0661258 33.0799508,31.8895891 L33.0799508,31.1837442 C33.0799508,31.0072075 33.1698184,30.8306709 33.3498615,30.7422517 L36.6798892,28.4478786 C36.8599323,28.3597611 37.2200185,28.3597611 37.4000616,28.535996 C38.9302739,29.9482893 40.4598707,30.7422517 40.4598707,30.7422517 L40.5500462,30.8306709 L41,31.1837442 C40.3700031,28.9774886 38.5701877,28.3597611 38.5701877,28.3597611 C37.939883,28.1832245 37.4000616,28.0948053 36.7700646,28.0066878 C35.24016,27.9182686 33.7099477,28.7125327 32.81004,30.0364068" id="Fill-26" fill="#FFFFFF" mask="url(#mask-2)"></path>
                        <path d="M25,16.2054541 L25,18.0396175 L25,19 C25.1111322,18.5634082 25.2777356,18.1268164 25.3333967,17.7774235 C25.4445289,17.1661352 25.5,16.554847 25.5,16.0310563 C25.5,15.2447729 25.4445289,14.7209822 25.3888678,14.4587882 C25.2222644,14.1096939 25.0554711,13.9349975 25,14.0221964 L25,16.2054541 Z" id="Fill-27" fill="#FFFFFF" mask="url(#mask-2)"></path>
                        <path d="M37.2999316,24 L38,24 L37.5998632,23 L37,23.9445289 C37.0998632,23.9445289 37.0998632,23.9445289 37.2000684,24 L37.2999316,24 Z" id="Fill-28" fill="#FFFFFF" mask="url(#mask-2)"></path>
                        <path d="M32,52 C30.0309895,53.3126309 27.3124599,55.0624065 26.5626202,55.5875187 L26,59 L32,52 Z" id="Fill-29" fill="#FFFFFF" mask="url(#mask-2)"></path>
                        <path d="M39.2227898,36.15623 C40.0113135,35.3124599 40.1097104,33.8124599 39.9125795,33.0626202 C39.4199207,32.6875401 38.2371352,32.0313101 36.9562898,31 L34,32.9686899 C34,33.6249199 34,35.2188502 34.8869206,36.15623 C35.3795794,36.7188502 36.0693691,37 37.0546867,37 C38.0403413,37 38.730131,36.7188502 39.2227898,36.15623" id="Fill-30" fill="#FFFFFF" mask="url(#mask-2)"></path>
                        <path d="M36,37 L36,38.1999316 C36.3751202,38.6000228 37.5941007,39.6002508 39,40 L39,37.0998518 C38.6252004,37.2000456 38.1564604,37.2998974 37.6877204,37.2998974 C37.0314203,37.2998974 36.46874,37.2000456 36,37" id="Fill-31" fill="#FFFFFF" mask="url(#mask-2)"></path>
                        <path d="M44,47.714278 L43.8998062,44 C43.500057,44.1905175 43.0999658,44.2859392 42.6000228,44.2859392 L42.1999316,44.2859392 C41.999886,44.3810351 41.6996466,44.6666486 41.3997492,44.9525877 L41,56 C42.1999316,54.6667029 43.3998632,53.0474666 43.3000114,52.1906261 C43.3000114,51.6190735 43.1998176,51.2380384 43.0999658,50.8570033 C42.7997264,49.8096453 42.6000228,48.8570576 44,47.714278" id="Fill-32" fill="#FFFFFF" mask="url(#mask-2)"></path>
                        <path d="M40,27.3333333 C39.7498575,27.1999544 39.5,27.0665755 39.1666667,27 L39,27.8666211 C39.1666667,27.8666211 39.2501425,27.9334245 39.3333333,27.9334245 C39.3333333,27.9334245 39.4165242,27.9334245 39.5831909,28 L40,27.3333333 Z" id="Fill-33" fill="#FFFFFF" mask="url(#mask-2)"></path>
                        <path d="M40,44.6498064 C39.63029,44.4641021 39.4452768,44.1857043 39.2602637,44 C32.7860687,47.1563385 25.0174142,51.5192789 24,53.7474133 C24.0926647,54.582924 24.3700263,55.6968325 24.832401,55.9752302 C25.1097626,56.0682411 25.5721373,55.8825368 25.8498152,55.6968325 C26.0348283,55.5111282 31.7689708,51.5192789 33.3411081,50.4980639 C34.4508707,49.8482575 37.8728232,46.6922364 40,44.6498064" id="Fill-34" fill="#FFFFFF" mask="url(#mask-2)"></path>
                        <polygon id="Fill-35" fill="#FFFFFF" mask="url(#mask-2)" points="47.2144078 52 48 51.185157 47 50"></polygon>
                        <path d="M53.7999658,57 C53.8500598,57 53.8999829,57 53.949906,56.9445289 C54,56.8890578 54,56.8333967 54,56.8333967 C54,56.8333967 54,56.7779255 53.949906,56.7222644 L53.2499573,56.0556611 C53.2000342,56 53.1499402,56 53.1499402,56 C53.1000171,56 53.1000171,56 53.0499231,56.0556611 C53,56.1111322 53,56.1667933 53,56.1667933 C53,56.2222644 53,56.2222644 53.0499231,56.2779255 L53.3998974,56.6111322 L53.7500427,56.9445289 L53.7999658,57 Z" id="Fill-36" fill="#FFFFFF" mask="url(#mask-2)"></path>
                        <path d="M50.1393326,59 C50.0886032,59 50.0886032,59 50.038047,59.0582032 C49.9873177,59.1166058 49.9873177,59.2332115 50.038047,59.2914147 L50.7468727,59.9326468 C50.8481582,60.0492526 50.8988876,59.9910493 50.9494438,59.9326468 C51,59.8744436 51,59.816041 51,59.816041 C51,59.7578378 51,59.7578378 50.9494438,59.6994353 L50.2406181,59.0582032 C50.1898888,59 50.1393326,59 50.1393326,59" id="Fill-37" fill="#FFFFFF" mask="url(#mask-2)"></path>
                        <path d="M54.9492729,55.9364924 C55,55.8814933 55,55.8263058 55,55.8263058 C55,55.7713066 55,55.7713066 54.9492729,55.7161191 L54.2404778,55.0551875 C54.1897507,55 54.1391967,55 54.1391967,55 C54.0886427,55 54.0886427,55 54.0379155,55.0551875 C53.9873615,55.1101867 53.9873615,55.2203733 54.0379155,55.2755608 L54.7467105,55.9364924 C54.8479917,56.0464908 54.8987188,55.9914916 54.9492729,55.9364924" id="Fill-38" fill="#FFFFFF" mask="url(#mask-2)"></path>
                        <path d="M56,54.0630048 L50.7942537,50 L47,54.2520194 L47.7941531,61.1495961 L49.0291337,62 L49.9116937,61.0552504 L49.4705646,60.6772213 C48.8529234,60.1101777 48.6767132,59.1654281 49.2056457,58.5040388 C49.3821577,58.2203554 49.7351817,58.0313409 50.0882057,57.9369952 C50.0882057,57.6536349 50.1763108,57.3699515 50.3528229,57.0865913 C50.6177417,56.8975767 50.8823589,56.7085622 51.146976,56.6142165 C51.146976,56.2361874 51.323488,55.9528271 51.5,55.6694669 C51.7649189,55.3857835 52.029536,55.2914378 52.2941531,55.196769 C52.2941531,54.9134087 52.4706651,54.6300485 52.6471771,54.3463651 C53.1767132,53.6852989 54.0586697,53.59063 54.6766126,54.1573506 L55.4707657,54.9134087 L56,54.0630048 Z" id="Fill-39" fill="#FFFFFF" mask="url(#mask-2)"></path>
                        <path d="M52.949906,58.9327043 C53,58.8744975 53,58.8160914 53,58.8160914 L52.9789708,58.8160914 L53,58.8160914 C53,58.7578845 52.949906,58.7578845 52.949906,58.7578845 L52.5999316,58.4080457 L52.2499573,58.0584061 C52.2000342,58 52.1499402,58 52.1499402,58 C52.1000171,58 52.1000171,58 52.0499231,58.0584061 C52,58.116613 52,58.1748198 52,58.1748198 C52,58.2332259 52,58.2332259 52.0499231,58.2914327 L52.7500427,58.9327043 C52.8500598,59.0493173 52.8999829,58.9909111 52.949906,58.9327043" id="Fill-40" fill="#FFFFFF" mask="url(#mask-2)"></path>
                        <path d="M45.5891335,45.4637333 C45.491823,44.9150288 45.2968687,44.457358 44.9069602,44 L45.1019145,47.5678303 C45.1019145,47.8424953 45.0042707,48.0251882 44.8093164,48.1165347 C43.8348784,48.7572113 43.9321889,49.12291 44.1271431,50.0379388 C44.2247869,50.4952968 44.3220974,50.9526547 44.3220974,51.501672 C44.3220974,51.6846778 44.2247869,51.8676835 44.2247869,52.0506893 L46.2713068,71.353261 C46.2713068,71.5362667 46.1739963,71.8109318 45.979042,71.9022783 L45.491823,72.2682898 L49,73 L45.5891335,45.4637333 Z" id="Fill-41" fill="#FFFFFF" mask="url(#mask-2)"></path>
                        <polygon id="Fill-42" fill="#FFFFFF" mask="url(#mask-2)" points="43 29.146 43 29.4385 43.5 29"></polygon>
                        <path d="M46,74 L46.2220745,79 C46.4443389,78.9139202 46.6666033,78.7414657 47,78.5690113 C46.8332067,76.5862272 46.6666033,74.9483521 46.6111322,74.1724545 L46,74 Z" id="Fill-43" fill="#FFFFFF" mask="url(#mask-2)"></path>
                        <path d="M48,62 L48.1765889,64 C48.7059533,63.5554711 48.8823411,62.8888045 49,62.3703141 C48.9412711,62.4442756 48.8236122,62.5184904 48.7646822,62.5184904 C48.6470233,62.5184904 48.5882944,62.5184904 48.5295656,62.4442756 L48,62 Z" id="Fill-44" fill="#FFFFFF" mask="url(#mask-2)"></path>
                        <path d="M57.002958,32.0246346 C56.3367843,32.1193426 55.8609925,32.4037912 55.575257,32.9730126 C55.3848752,33.2574611 55.004437,33.3524936 54.7187015,33.2574611 C54.7187015,33.2574611 54.4332915,33.1627531 54.0528533,33.1627531 C53.6720897,33.1627531 53.1962978,33.3524936 52.9108878,33.6369421 C52.9108878,33.6369421 52.4347705,34.016423 52.4347705,34.6803525 C52.4347705,35.0598335 52.1493605,35.2492496 51.8639505,35.344282 C51.7685969,35.4389901 50.9120414,35.6287306 51.007395,36.7671734 C51.007395,37.9052919 52.1493605,38 52.3397423,38 L59.2872145,38 C59.3825681,38 60.6192364,37.9052919 60.9049718,36.7671734 C60.9049718,36.672141 60.9049718,36.672141 61,36.5774329 C61,35.723763 60.6192364,35.2492496 59.7626809,35.1545416 C59.5726245,35.1545416 59.3825681,35.0598335 59.2872145,34.870093 C59.1921863,34.6803525 59.0968326,34.4906121 59.1921863,34.3008716 C59.1921863,34.3008716 59.5726245,33.068045 58.6210408,32.4037912 C58.1452489,32.1193426 57.5741035,31.9299265 57.002958,32.0246346" id="Fill-45" fill="#FFFFFF" mask="url(#mask-2)"></path>
                        <path d="M48,75 C48,75.1666033 48.1248931,75.3333967 48.1248931,75.5 C48.2497861,75.3333967 48.3751069,75.1666033 48.5,75.0554711 L48,75 Z" id="Fill-46" fill="#FFFFFF" mask="url(#mask-2)"></path>
                        <path d="M41.1176589,81.1428571 C41.1176589,81.4284629 41.0587289,81.7143943 41,82 C41.2353178,81.904581 41.4706356,81.8094876 41.7646822,81.7143943 C41.8823411,79.6190838 41.94107,77.524099 42,76 L41.1176589,77.1430743 L41.1176589,81.1428571 Z" id="Fill-47" fill="#FFFFFF" mask="url(#mask-2)"></path>
                        <polygon id="Fill-48" fill="#FFFFFF" mask="url(#mask-2)" points="25.1526111 10 26 10 26 9 21 9 21 10 22.0169246 10"></polygon>
                        <path d="M13.3809668,51.2472141 C13.8230902,50.7766826 14,50.1178742 14,49.3647665 C13.9113939,47.4826407 12.1429003,47.2943638 12.0542942,47.2943638 C11.7890807,47.2000644 11.6121708,47.0117874 11.5238671,46.7295329 C11.1700475,44.9413847 9.84367731,44.2825763 9.84367731,44.2825763 C9.40125151,44.0942994 9.04743184,44 8.60530846,44 C7.10202847,44 6.39438913,45.6001931 6.39438913,45.6941707 C6.30608542,45.976747 6.04087187,46.0707245 5.77565832,46.0707245 C3.564739,45.78847 3.29922304,47.9531721 3.29922304,48.0471497 C3.29922304,48.329726 3.03400949,48.6119805 2.68018982,48.6119805 C1.17690984,48.6119805 1,50.0235748 1,50.2118518 C1,50.6827051 1.17690984,51.0589371 1.61903322,51.435491 C2.0611566,51.8117231 2.59188611,52 3.21091933,52 L11.9659905,52 C12.1429003,52 12.8502373,51.8117231 13.3809668,51.2472141" id="Fill-49" fill="#FFFFFF" mask="url(#mask-2)"></path>
                        <path d="M44.0399344,74 L43.8799234,74 L43.3200219,74.4793892 L43.0801422,74.6712104 L43.2401532,74.5754637 L43,81 C43.3200219,80.9042533 43.7199125,80.8081788 44.0399344,80.7124321 C44.3599562,80.6163575 44.6799781,80.5206108 45,80.3287896 L44.5998359,74.0957467 L44.0399344,74 Z" id="Fill-50" fill="#FFFFFF" mask="url(#mask-2)"></path>
                        <path d="M24.7418601,23.3224269 L24.6521247,22.5794155 C24.562082,22.0219187 24.6521247,21.4644219 24.7418601,21 C24.6521247,21.1858323 24.4723465,21.2785896 24.2925684,21.2785896 L23.0344285,21.2785896 L23.1241639,21.4644219 C23.2142067,21.6502541 23.2142067,21.7433291 23.2142067,21.9288437 C23.2142067,22.0219187 22.5848294,31.2185515 23.4837203,36.885324 C23.5734557,37.3497459 23.7532339,37.7214104 23.933012,38 C24.562082,37.2566709 25.2808873,36.1419949 26,35.0273189 L25.9102646,32.3332274 C25.7304864,29.2677891 25.1014165,25.2731893 24.7418601,23.3224269" id="Fill-51" fill="#FFFFFF" mask="url(#mask-2)"></path>
                        <path d="M26.0510095,75 L38.6621436,62.3635019 L39.5220308,56.9090013 L40,46 C38.9489905,46.9089798 37.6111341,47.9998178 36.5601246,48.9091085 L25,62.6364445 L26.528652,67.3635126 L26.528652,67.5453707 L26.0510095,75 Z" id="Fill-52" fill="#FFFFFF" mask="url(#mask-2)"></path>
                        <path d="M22.7009398,7 L25.5819628,7 C26.3020646,6.64904913 26.7524746,6.21051053 26.932577,5.59649649 C27.0224743,5.07007019 27.0224743,4.54394385 26.932577,4.19299298 C26.4821671,4.71911932 26.2121674,4.98248245 26.2121674,4.98248245 C26.0320649,5.24554562 25.6718601,5.24554562 25.4018604,5.07007019 C25.1318607,4.89459476 25.1318607,4.54394385 25.3116553,4.28088068 C25.5819628,3.92992981 25.3116553,2.9649649 24.9517583,2 C24.5016562,3.14044034 24.3215537,4.19299298 24.3215537,4.19299298 C24.2316565,4.45635611 23.9613489,4.71911932 23.6011441,4.63153159 C23.2412471,4.54394385 22.9709395,4.28088068 23.0611447,3.92992981 C23.1510419,3.57897894 23.0611447,3.22802808 22.8810422,2.9649649 C22.7009398,3.49139121 22.5208374,3.84204211 22.4309401,4.01751755 C21.530428,5.59649649 22.2508377,6.64904913 22.7009398,7" id="Fill-53" fill="#FFFFFF" mask="url(#mask-2)"></path>
                        <path d="M26.6086827,77.5404947 C26.5218555,77.9366317 26.2607791,79.3242968 26,81.1077601 C27.1302409,81.5042359 28.2607791,81.8017621 29.3913173,82 C30.1739518,79.4232464 31.1305382,75.2612674 32,71 L26.6086827,77.5404947 Z" id="Fill-54" fill="#FFFFFF" mask="url(#mask-2)"></path>
                        <path d="M43.3199745,55 C42.4799617,56.2726862 41.3600511,57.4545994 40.8931291,57.9090858 L38,77 L45,71.8181715 L43.3199745,55 Z" id="Fill-55" fill="#FFFFFF" mask="url(#mask-2)"></path>
                        <path d="M23.5789095,18.1111322 L23,18.1111322 L23,18.7222644 L23,19 L23.6841821,19 L23.7894547,19 L24,19 L24,18 C23.8947274,18.0556611 23.7894547,18.1111322 23.7367285,18.1111322 L23.5789095,18.1111322 Z" id="Fill-56" fill="#FFFFFF" mask="url(#mask-2)"></path>
                        <path d="M39,79 L39,77 L38,78.1668329 C38.1052916,78.4999288 38.4209863,78.9167973 39,79" id="Fill-57" fill="#FFFFFF" mask="url(#mask-2)"></path>
                        <path d="M35.3333605,78.3934259 L35.3333605,78.1238545 L37.166782,65 L33.9165479,68.6854744 C33.2500305,71.6516819 32.0834114,77.1350162 31,80.6406739 C32.4168125,80.9102453 33.7498473,81 35.1666599,81 C36.0001628,81 36.9168736,80.9102453 37.7498066,80.9102453 C37.8332994,80.8204907 37.9165072,80.6406739 38,80.5509193 C36.2500712,80.3711025 35.5000611,79.1123855 35.3333605,78.3934259" id="Fill-58" fill="#FFFFFF" mask="url(#mask-2)"></path>
                        <path d="M42.7209969,29.6362723 L42.7209969,29.4515824 L43.1801802,29.3593952 L42.7209969,29.6362723 Z M48.3769286,78.4373678 C48.2852176,78.0679878 48.2852176,77.6986078 48.1931925,77.3295436 C49.2956092,75.9445264 49.4793453,74.2829479 49.4793453,74.190445 L49.4793453,74.0982579 L48.4689537,66.0659795 C50.5811338,64.9578395 51.0403171,62.6496881 50.9486061,61.3574895 L51.0403171,61.2649867 C51.3160783,61.3574895 51.4998144,61.4496767 51.7752616,61.4496767 C52.2344448,61.4496767 52.6939422,61.2649867 52.9693893,60.8956067 C53.1531254,60.6187296 53.2448364,60.3418524 53.2448364,60.0646596 C53.6123087,59.9724724 53.9797809,59.7877824 54.163517,59.5105896 C54.3472531,59.2340281 54.4389642,58.9568353 54.4389642,58.6799582 C54.7147254,58.5874553 54.9898584,58.4027653 55.1735946,58.218391 C55.3573307,57.9411982 55.5410668,57.664321 55.5410668,57.3871282 C55.8165139,57.294941 56.0922751,57.110251 56.3677223,56.925561 C56.6431694,56.6486839 56.7351945,56.1871168 56.7351945,55.8177368 C56.7351945,55.6330468 56.6431694,55.4483568 56.6431694,55.3561696 L57.8372971,54.0636554 C57.9293222,53.9714682 58.0210333,53.7867782 58.0210333,53.6020882 C58.0210333,53.4173983 57.9293222,53.2327083 57.7455861,53.1405211 L51.3160783,48.4317155 C51.0406312,48.2470255 50.6731589,48.2470255 50.4894228,48.5242183 L48.7444008,50.3704869 L46.3561454,47.5085812 L46.0806982,45.5698098 C45.9889872,44.6463598 45.5294899,43.8157284 44.8868846,43.1691556 L43.5090207,41.7844542 C43.2335736,41.507577 42.9581265,41.322887 42.6823652,41.138197 C42.7743903,40.6766299 42.5906542,39.5684899 41.8557098,36.8912742 C42.0394459,36.7065843 42.223182,36.4297071 42.4069181,36.3372043 C42.5906542,36.1525143 42.7743903,35.8756371 42.4986291,33.2906086 C42.4986291,32.7365386 42.4069181,32.1824686 42.314893,31.7212172 C42.4069181,31.5365272 42.4986291,31.2593343 42.4986291,30.9824572 L46.7236176,28.3974287 C46.9993788,28.2127387 47.0910898,27.9355458 46.9993788,27.6586687 C46.9073537,27.3817916 46.6319066,27.1971016 46.2644343,27.2892887 L42.0394459,28.2127387 C41.9477349,28.0280487 41.8557098,27.8433587 41.7639987,27.6586687 L44.2439652,23.4117459 C44.4277013,23.1348688 44.3356762,22.8579916 44.1519401,22.6733016 C43.9685181,22.4886116 43.6010458,22.4886116 43.3252846,22.6733016 L39.4677684,25.6277102 C39.2840323,25.5352073 39.0085851,25.4430202 38.824849,25.3505173 L37.8144574,21.1035945 C37.7227464,20.8267174 37.5390103,20.6420274 37.263249,20.6420274 C36.9878019,20.6420274 36.7123548,20.8267174 36.6203297,21.1035945 L35.2424658,25.2583302 C34.7835966,25.3505173 34.3244134,25.4430202 33.9569412,25.6277102 L30.282847,22.2114188 C30.0991108,22.0267288 29.7319527,22.0267288 29.4565055,22.2114188 C29.1807443,22.3961088 29.1807443,22.6733016 29.2727694,22.9501788 L31.3849496,27.3817916 C31.1095024,27.6586687 30.9257663,27.8433587 30.7420302,28.1202358 L26.9765391,27.1971016 C26.7007778,25.4430202 26.4253307,23.8736288 26.2415946,22.8579916 L26.1498836,22.1192316 C25.9661475,21.1035945 26.4253307,20.1804603 26.4253307,20.1804603 C27.0682501,19.257326 27.3440113,18.333876 27.5274333,17.5029289 C30.1908219,16.7644846 32.9465495,16.3951046 35.7936742,16.3951046 C53.7043338,16.3951046 68.2163463,31.0746444 68.2163463,48.9857855 C68.0326102,61.9112438 59.9497914,73.4520008 48.3769286,78.4373678 Z M48.1401131,74.8752187 L48.5072713,74.9677216 C48.4155603,75.1524116 48.3235352,75.4292887 48.2318242,75.7064816 C48.2318242,75.4292887 48.1401131,75.1524116 48.1401131,74.8752187 Z M47.1297215,52.5327805 L46.8539603,50.0399391 L48.1401131,51.5174591 L47.1297215,52.5327805 Z M49.8851351,62.9653975 C49.701399,63.6119703 49.4259519,64.4429175 48.5992964,64.9966717 L48.3235352,62.5038304 L49.1505048,63.0579003 C49.2422158,63.1500875 49.3339268,63.1500875 49.5176629,63.1500875 C49.609688,63.1500875 49.7934241,63.0579003 49.8851351,62.9653975 Z M55.2122263,53.9177976 C54.5693069,53.3637277 53.6509404,53.4562305 53.099732,54.1024876 C52.9159959,54.3793648 52.7322598,54.6562419 52.7322598,54.9331191 C52.4568126,55.0256219 52.1813655,55.1178091 51.9056043,55.3950019 C51.7218682,55.671879 51.5381321,55.9487562 51.5381321,56.3181362 C51.2626849,56.410639 50.9872378,56.595329 50.7114766,56.7797033 C50.5277404,57.0568962 50.4360294,57.3337733 50.4360294,57.6106504 C50.0688713,57.7028376 49.701399,57.8875276 49.5176629,58.1647204 C48.9667686,58.8109776 49.1505048,59.7341118 49.7934241,60.2881818 L50.2522933,60.6575618 L49.3339268,61.5806961 L48.048088,60.749749 L47.2214326,54.0099848 L51.1709739,49.8552491 L56.589776,53.8252948 L56.0388817,54.6562419 L55.2122263,53.9177976 Z M54.1101236,55.302499 C54.0184126,55.2103119 54.0184126,55.0256219 54.1101236,54.9331191 C54.2021487,54.8409319 54.2021487,54.8409319 54.2938597,54.8409319 C54.2938597,54.8409319 54.3855708,54.8409319 54.4775959,54.9331191 L55.7631205,56.041259 C55.8551456,56.1334462 55.8551456,56.1334462 55.8551456,56.225949 C55.8551456,56.225949 55.8551456,56.3181362 55.7631205,56.410639 C55.6714095,56.5028262 55.5793844,56.5950133 55.3956483,56.410639 L54.1101236,55.302499 Z M53.5589153,57.1490833 L52.9159959,56.595329 C52.8242849,56.5028262 52.8242849,56.5028262 52.8242849,56.410639 C52.8242849,56.410639 52.8242849,56.3181362 52.9159959,56.225949 C53.008021,56.1334462 53.008021,56.1334462 53.099732,56.1334462 C53.099732,56.1334462 53.1917571,56.1334462 53.2834681,56.225949 L54.5693069,57.3337733 C54.661332,57.4259604 54.661332,57.5184633 54.661332,57.5184633 C54.661332,57.5184633 54.661332,57.6106504 54.5693069,57.7028376 C54.4775959,57.7953404 54.3858848,57.7953404 54.2938597,57.7953404 L54.2021487,57.7028376 L53.5589153,57.1490833 Z M52.3647875,60.2881818 C52.3647875,60.2881818 52.3647875,60.380369 52.2730765,60.4728718 C52.1813655,60.565059 52.0893404,60.6572461 51.9056043,60.4728718 L50.6197655,59.4572347 C50.5277404,59.3650475 50.5277404,59.1803576 50.6197655,59.0878547 C50.7114766,58.9956676 50.7114766,58.9956676 50.8035017,58.9956676 C50.8035017,58.9956676 50.8952127,58.9956676 50.9872378,59.0878547 L52.2730765,60.1034918 C52.3647875,60.195679 52.3647875,60.195679 52.3647875,60.2881818 Z M51.9056043,57.9800304 C51.8138933,57.8875276 51.8138933,57.8875276 51.8138933,57.7953404 C51.8138933,57.7953404 51.8138933,57.7028376 51.9056043,57.6106504 C51.9976294,57.5184633 51.9976294,57.5184633 52.0893404,57.5184633 C52.0893404,57.5184633 52.1813655,57.5184633 52.2730765,57.6106504 L52.9159959,58.1647204 L53.5589153,58.7184747 C53.5589153,58.7184747 53.6509404,58.7184747 53.6509404,58.8109776 C53.6509404,58.8109776 53.6509404,58.9031647 53.5589153,58.9956676 C53.4672043,59.0878547 53.3754932,59.1803576 53.1917571,58.9956676 L51.9056043,57.9800304 Z M45.1092524,72.9364473 L45.5681216,72.567383 C45.7518577,72.4748802 45.8435687,72.198003 45.8435687,72.013313 L43.9151247,52.5327805 C43.9151247,52.3480905 44.0068357,52.1634005 44.0068357,51.9790262 C44.0068357,51.4249563 43.9151247,50.9633891 43.8230996,50.501822 C43.6393635,49.578372 43.5476524,49.2093077 44.4660189,48.5627349 C44.6497551,48.4705477 44.7417802,48.2858577 44.7417802,48.0089806 L44.558044,44.4083149 C44.9255163,44.8698821 45.1092524,45.3314492 45.2009634,45.8855192 L48.4155603,73.6752073 L45.1092524,72.9364473 Z M46.302752,79.6762115 L45.9355938,74.3214644 L46.9459854,74.5061544 C47.0376964,75.3371016 47.3131436,77.091183 47.5889048,79.2146444 C47.0376964,79.3993343 46.6702242,79.5840243 46.302752,79.6762115 Z M44.0068357,80.4149715 C43.6393635,80.5071586 43.1801802,80.5996615 42.812708,80.6918486 L43.0884692,74.5061544 L42.9047331,74.5986573 L43.1801802,74.4139673 L43.8230996,73.9520844 L44.0068357,73.9520844 L44.6497551,74.0445873 L45.1092524,80.0455915 C44.7417802,80.2302815 44.3743079,80.3224686 44.0068357,80.4149715 Z M37.5773279,77.091183 L40.4244525,57.7028376 C40.8839498,57.2412704 41.9860525,56.041259 42.812708,54.7484291 L44.4660189,71.8289388 L37.5773279,77.091183 Z M41.5268692,80.8765386 C41.067686,80.9687258 40.7002137,81.0612286 40.3327415,81.1534157 C40.4244525,80.8765386 40.5164776,80.5996615 40.5164776,80.3224686 L40.5164776,76.4449258 L41.8943414,75.3371016 C41.8023164,76.8143058 41.7106053,78.8455801 41.5268692,80.8765386 Z M39.2306389,79.6762115 C38.2202472,79.5840243 37.669353,79.1224572 37.4856169,78.7530772 L39.2306389,77.460563 L39.2306389,79.6762115 Z M38.7714556,81.3381057 C37.8530891,81.3381057 36.8426975,81.4306086 35.9240169,81.4306086 C34.362731,81.4306086 32.8931561,81.3381057 31.3315562,81.0612286 C32.5256839,77.460563 33.8118367,71.8286231 34.5464671,68.7820274 L38.1285362,64.9966717 L36.107753,78.4762001 L36.107753,78.7530772 C36.2914891,79.4918372 37.1181446,80.7843515 39.0472168,80.9690415 C38.9551917,81.0612286 38.8634807,81.2459186 38.7714556,81.3381057 Z M30.0460315,80.8765386 C28.8519038,80.6918486 27.6577761,80.4149715 26.4639624,80.0455915 C26.7394095,78.3836972 27.0148567,77.091183 27.1068818,76.7221187 L32.8014451,70.6286116 C31.8827645,74.5986573 30.8723729,78.4762001 30.0460315,80.8765386 Z M25.2698347,63.1500875 L36.3832001,49.2093077 C37.3935918,48.2858577 38.6797446,47.1780335 39.6901362,46.2548992 L39.2306389,57.3337733 L38.4039834,62.8732103 L26.2802263,75.7064816 L26.7394095,68.1357703 L26.7394095,67.9510803 L25.2698347,63.1500875 Z M25.3615457,79.6762115 C13.7886829,75.6139787 5.24699493,65.3660517 3.68539496,52.9021605 L12.5948692,52.9021605 C13.2377886,52.9021605 14.1561551,52.5327805 14.8910996,51.7943362 C15.62573,51.0555763 15.9932022,50.132442 15.9011771,49.0246177 C15.8094661,46.9933435 14.3398913,46.1623963 13.2377886,45.8855192 C12.6865803,43.854245 10.9415583,43.0232978 10.8495332,43.0232978 C10.2069279,42.7464207 9.56369442,42.6539178 9.01280015,42.6539178 C7.17575305,42.6539178 6.16536144,43.9467478 5.7978892,44.6851921 C4.78781167,44.6851921 4.0528672,44.9620692 3.59368394,45.4236364 C4.78781167,34.160388 11.6761887,24.5584024 21.3202933,19.6652225 L21.3202933,20.1267897 C21.3202933,20.3114797 21.4123184,20.4036668 21.4123184,20.4961696 L22.1469488,21.4193039 C22.0552378,22.7118182 21.6877656,29.1747052 22.1469488,34.3447623 C21.8715017,35.0835223 19.9427436,39.515135 22.42271,41.0845264 C22.6061321,41.1770293 22.7898682,41.2692164 22.9736043,41.3614036 L22.6981572,42.9311107 C22.6981572,43.1158007 22.6981572,43.3004907 22.7898682,43.484865 L24.8106514,45.8855192 L23.9839959,47.3627235 C23.8919708,47.5470978 23.8919708,47.7317878 23.9839959,47.9164777 L24.5352043,49.3939977 C24.5352043,49.3939977 24.5352043,49.4861849 24.6269153,49.4861849 L25.2698347,50.317132 C24.2594431,51.2402663 23.4327876,52.0712134 23.2490515,52.8096577 L23.2490515,52.9943477 C23.2490515,53.2715405 23.3410766,55.671879 24.7186263,56.410639 C24.9023624,56.5028262 25.1781237,56.5950133 25.5452818,56.5950133 L25.820729,56.5950133 L25.0860986,61.5806961 L24.1677321,62.6885203 C23.9839959,62.7807075 23.8919708,62.9653975 23.9839959,63.1500875 L25.4535708,68.1357703 L24.9943875,77.275873 C24.9943875,77.5527501 25.0860986,77.7374401 25.3615457,77.9221301 C25.4535708,77.9221301 25.5452818,78.0143172 25.6369928,78.0143172 C25.5452818,78.4762001 25.4535708,79.0299544 25.3615457,79.6762115 Z M1.84866194,51.1480791 C1.38916461,50.7786991 1.20574257,50.4093191 1.20574257,49.947752 C1.20574257,49.763062 1.38916461,48.3783606 2.95076457,48.3783606 C3.3182368,48.3783606 3.59368394,48.1011677 3.59368394,47.8242906 C3.59368394,47.7317878 3.86913108,45.6083264 6.16536144,45.8855192 C6.44080857,45.8855192 6.71656979,45.7930164 6.80828081,45.5161392 C6.80828081,45.4239521 7.54322528,43.854245 9.10451117,43.854245 C9.56369442,43.854245 9.93116666,43.9467478 10.3903499,44.1314378 C10.3903499,44.1314378 11.7682138,44.7773792 12.135686,46.5317763 C12.227397,46.8086535 12.4111331,46.9933435 12.6865803,47.0858463 C12.7786054,47.0858463 14.6153384,47.2702206 14.7073635,49.1168049 C14.7073635,49.8552491 14.5236274,50.5015063 14.0644441,50.9633891 C13.5132358,51.5171434 12.7786054,51.7018334 12.5948692,51.7018334 L3.50165884,51.7018334 C2.85905355,51.7018334 2.3078452,51.5171434 1.84866194,51.1480791 Z M20.4936378,10.063237 L20.4936378,8.58634842 L25.9127541,8.58634842 L25.9127541,10.063237 L24.9943875,10.063237 L21.5957405,10.063237 L20.4936378,10.063237 Z M21.6877656,4.24692278 C21.7794766,4.06223279 21.9632127,3.69316851 22.1469488,3.13909852 C22.3306849,3.41597566 22.42271,3.78535565 22.3306849,4.15473564 C22.2389739,4.52411563 22.5144211,4.80099277 22.8815792,4.89317992 C23.2490515,4.98536706 23.5248127,4.70848992 23.6165237,4.43161278 C23.6165237,4.43161278 23.8002598,3.32378851 24.2594431,2.12346139 C24.6269153,3.13909852 24.9023624,4.15473564 24.6269153,4.52411563 C24.4431792,4.80099277 24.4431792,5.17005706 24.7186263,5.35474705 C24.9943875,5.53943705 25.3615457,5.53943705 25.5452818,5.26255991 C25.5452818,5.26255991 25.820729,4.98536706 26.2802263,4.43161278 C26.3719373,4.80099277 26.3719373,5.35474705 26.2802263,5.90881704 C26.0964902,6.55507417 25.6369928,7.01664131 24.9023624,7.3860213 L21.9632127,7.3860213 C21.5040295,7.01664131 20.769085,5.90881704 21.6877656,4.24692278 Z M24.2594431,37.2069836 C24.075707,36.9301065 23.8919708,36.5607265 23.8002598,36.0991594 C22.8815792,30.4672195 23.5248127,21.3271168 23.5248127,21.2346139 C23.5248127,21.0502396 23.5248127,20.9577368 23.4327876,20.7730468 L23.3410766,20.5883568 L24.6269153,20.5883568 C24.8106514,20.5883568 24.9943875,20.4961696 25.0860986,20.3114797 C24.9943875,20.7730468 24.9023624,21.3271168 24.9943875,21.8811868 L25.0860986,22.619631 C25.4535708,24.5584024 26.0964902,28.5284481 26.2802263,31.5750437 L26.3719373,34.2525751 C25.6369928,35.3603994 24.9023624,36.4682237 24.2594431,37.2069836 Z M24.3514682,17.8186383 L24.3514682,19.4805325 L23.9839959,19.4805325 L23.8002598,19.4805325 L22.6061321,19.4805325 L22.6061321,19.0189654 L22.6061321,18.0033283 L23.6165237,18.0033283 L23.8919708,18.0033283 C23.9839959,18.0033283 24.1677321,17.9111411 24.3514682,17.8186383 Z M22.0552378,16.2492469 L22.8815792,16.2492469 L23.7082347,16.2492469 L23.8002598,16.2492469 L23.8919708,16.2492469 C23.9839959,16.2492469 24.075707,16.341434 24.075707,16.4339369 C24.075707,16.526124 23.9839959,16.710814 23.8002598,16.710814 L22.1469488,16.710814 C22.0552378,16.710814 21.8715017,16.6186269 21.8715017,16.4339369 C21.7794766,16.341434 21.8715017,16.2492469 22.0552378,16.2492469 Z M22.0552378,14.4951655 L23.7082347,14.5873526 C23.8002598,14.5873526 23.9839959,14.6795397 23.9839959,14.8642297 C23.9839959,14.9567326 23.8919708,15.0489197 23.8002598,15.0489197 L23.7082347,15.0489197 L22.8815792,15.0489197 L22.0552378,15.0489197 C21.9632127,15.0489197 21.7794766,14.9567326 21.7794766,14.7720426 C21.7794766,14.5873526 21.8715017,14.4951655 22.0552378,14.4951655 Z M22.3306849,11.4482541 L22.3306849,11.3560669 L24.4431792,11.3560669 L24.4431792,11.6329441 L24.4431792,11.7254469 C24.2594431,11.6329441 24.075707,11.5407569 23.8002598,11.5407569 L22.3306849,11.4482541 Z M23.7082347,12.8332712 C23.8002598,12.8332712 23.8919708,12.9254583 23.8919708,12.9254583 C23.8919708,12.9254583 23.9839959,12.9254583 23.9839959,13.0176455 C23.9839959,13.1101483 23.8919708,13.2948383 23.7082347,13.2948383 L22.0552378,13.2023355 C21.9632127,13.2023355 21.7794766,13.1101483 21.7794766,12.9254583 C21.8715017,12.8332712 21.9632127,12.7407684 22.0552378,12.7407684 L23.7082347,12.8332712 Z M23.9839959,42.8386078 L24.3514682,41.4539064 C25.3615457,41.2692164 26.3719373,40.5304564 27.2906179,39.7920122 L25.4535708,44.5930049 L23.9839959,42.8386078 Z M28.5764566,32.9600609 C28.8519038,33.606318 28.9439289,34.4372651 28.9439289,34.8988323 C28.9439289,35.0835223 29.0356399,35.2682122 29.219376,35.3603994 C29.4031121,35.4525865 32.4339729,37.6685508 34.4547561,39.2382579 C34.7302032,39.515135 36.7506724,41.3617193 39.0472168,41.5460936 C39.322664,41.5460936 39.6901362,41.5460936 40.0576084,41.6385964 C36.7506724,43.2079878 30.1380566,46.5317763 26.1882012,49.4861849 L25.6369928,48.7474249 L25.1781237,47.6396006 L26.0964902,46.0702092 L26.1882012,45.9777064 L28.3927205,40.0688893 C28.4844315,39.7920122 28.3927205,39.4226322 28.0252483,39.2382579 L27.6577761,39.2382579 C28.3006954,38.5916851 28.7601928,37.9454279 28.9439289,37.7607379 C29.127665,37.4838608 29.127665,37.1144808 28.8519038,36.9301065 C28.5764566,36.7454165 28.2089844,36.7454165 28.0252483,37.0222936 C27.1985928,38.1301179 24.6269153,40.9923393 23.1573404,40.0688893 C22.3306849,39.515135 22.3306849,38.2226208 22.6061321,37.0222936 C22.7898682,37.6685508 23.1573404,38.1301179 23.7082347,38.5916851 C23.8919708,38.776375 24.2594431,38.776375 24.5352043,38.5916851 C25.9127541,37.4838608 27.7498012,34.4372651 28.5764566,32.9600609 Z M32.2502368,29.8209623 C32.1585257,29.9131495 32.0665007,30.0056523 31.9747896,30.1903423 C31.9747896,30.1903423 31.9747896,30.2825295 31.8827645,30.2825295 L31.2398452,29.6362723 C31.3315562,29.5440852 31.4235813,29.3593952 31.6073174,29.0825181 L32.2502368,29.8209623 Z M32.5256839,26.4049867 L31.9747896,25.2046596 L32.9851812,26.1281095 C32.8014451,26.2202967 32.70942,26.3124838 32.5256839,26.4049867 Z M33.0768923,28.8053252 L32.4339729,28.0668809 C32.617709,27.8821909 32.8931561,27.697501 33.1686033,27.4203081 L33.7198116,28.3437581 C33.5360755,28.5284481 33.2606284,28.6206352 33.0768923,28.8053252 Z M33.5360755,35.2682122 C33.4914763,35.1782351 33.4471912,35.1106733 33.4129566,35.0431114 L32.617709,36.3760365 C32.4339729,36.2838494 32.3419478,36.1913465 32.2502368,36.0991594 L32.8014451,35.2682122 C32.8931561,35.1757094 32.8931561,35.0835223 32.8931561,34.8988323 L32.8931561,34.160388 C32.9851812,34.160388 33.0768923,34.160388 33.1686033,34.0678851 C33.1686033,34.2525751 33.2606284,34.5294523 33.3523394,34.8063294 C33.3523394,34.9013579 33.3771516,34.9720768 33.4129566,35.0431114 L33.4443645,34.9910194 C33.4443645,35.0835223 33.5360755,35.1757094 33.5360755,35.2682122 Z M34.27102,36.4682237 L34.27102,37.4838608 C34.0872839,37.3913579 33.9035478,37.2069836 33.6281006,37.0222936 L34.0872839,36.2838494 C34.1789949,36.3760365 34.1789949,36.3760365 34.27102,36.4682237 Z M41.159397,28.7131381 L40.8839498,28.9900152 C40.7919247,28.8978281 40.7002137,28.8053252 40.6081886,28.8053252 L40.8839498,28.1590681 C40.9756609,28.3437581 41.067686,28.5284481 41.159397,28.7131381 Z M41.251108,26.5896767 C41.159397,26.4971738 41.067686,26.4049867 40.8839498,26.3124838 L41.8023164,25.5740396 L41.251108,26.5896767 Z M41.5268692,43.2079878 C41.067686,43.1158007 40.7919247,42.9311107 40.7002137,42.8386078 C41.159397,42.6539178 41.6185802,42.4692278 41.9860525,42.1923507 C42.3535247,42.3770407 42.7209969,42.5617307 42.9964441,42.9311107 C42.7209969,43.1158007 42.2614996,43.3004907 41.5268692,43.2079878 Z M40.9756609,34.4372651 C41.067686,34.0678851 41.067686,33.6985051 41.067686,33.421628 L41.5268692,33.6985051 C41.6185802,34.5294523 41.6185802,35.3603994 41.6185802,35.6372765 L41.6185802,35.7067326 L41.6185802,35.6372765 L40.9756609,34.4372651 Z M39.6901362,36.8376037 C39.7818472,36.7454165 39.9655833,36.6529137 40.0576084,36.4682237 C40.1493194,36.3760365 40.2410305,36.1913465 40.3327415,36.0991594 L40.7919247,37.0222936 C41.159397,38.4069951 41.5268692,39.9767022 41.6185802,40.7151464 C40.8839498,40.4382693 40.1493194,40.3457665 39.5981111,40.3457665 L39.6901362,36.8376037 Z M38.4039834,37.4838608 L38.4039834,40.1613922 C37.0264336,39.7920122 35.8323059,38.8688779 35.4648336,38.4994979 L35.4648336,37.3913579 C35.9240169,37.5760479 36.4752252,37.6685508 37.1181446,37.6685508 C37.5773279,37.6685508 38.0368252,37.5760479 38.4039834,37.4838608 Z M37.1181446,36.4682237 C36.199464,36.4682237 35.5565447,36.1913465 35.0976755,35.6372765 C34.27102,34.7141423 34.27102,33.1447509 34.27102,32.498178 L37.0264336,30.5594066 C38.2202472,31.5750437 39.322664,32.2213009 39.7818472,32.5906809 C39.9655833,33.3291251 39.8738723,34.8063294 39.1389278,35.6372765 C38.6797446,36.1913465 38.0368252,36.4682237 37.1181446,36.4682237 Z M32.4339729,52.0712134 L26.5556734,59.4572347 L27.1068818,55.856569 C27.8415122,55.302499 30.5049007,53.4562305 32.4339729,52.0712134 Z M26.1882012,54.9331191 C25.9127541,55.1178091 25.4535708,55.302499 25.1781237,55.2103119 C24.7186263,54.9331191 24.4431792,53.8252948 24.3514682,52.9943477 C25.3615457,50.7786991 33.0768923,46.4395892 39.5064001,43.3004907 C39.6901362,43.484865 39.8738723,43.7620578 40.2410305,43.9467478 C38.1285362,45.9777064 34.7302032,49.1168049 33.6281006,49.763062 C32.0665007,50.7786991 26.3719373,54.7484291 26.1882012,54.9331191 Z M42.5372608,50.7786991 C42.6289718,51.1480791 42.7209969,51.5174591 42.7209969,52.0712134 C42.812708,52.9021605 41.7106053,54.4718676 40.6081886,55.7640662 L40.9756609,45.0545721 C41.251108,44.7773792 41.5268692,44.5005021 41.7106053,44.4083149 L42.0780776,44.4083149 C42.5372608,44.4083149 42.9047331,44.3161278 43.2718912,44.1314378 L43.3639163,47.7317878 C42.0780776,48.8399277 42.2614996,49.763062 42.5372608,50.7786991 Z M38.9551917,27.8821909 L39.1389278,26.6818638 C39.5064001,26.7743667 39.7818472,26.9590567 40.0576084,27.143431 L39.5981111,28.0668809 C39.414375,27.9743781 39.322664,27.9743781 39.322664,27.9743781 C39.2309529,27.9743781 39.1389278,27.8821909 38.9551917,27.8821909 Z M36.8426975,25.0199696 L37.3935918,23.4505782 L37.761064,25.1124724 L37.1181446,25.1124724 L37.0264336,25.1124724 C36.9344085,25.0199696 36.9344085,25.0199696 36.8426975,25.0199696 Z M37.0264336,26.3124838 L37.0650653,26.3124838 L37.0264336,26.3124838 C37.3935918,26.3124838 37.669353,26.3124838 37.9448001,26.4049867 L37.761064,27.6049981 C37.5773279,27.6049981 37.3935918,27.512811 37.2101697,27.512811 L36.9344085,27.512811 L36.7506724,26.3124838 L37.0264336,26.3124838 Z M34.27102,26.8665538 C34.6384922,26.6818638 35.0059645,26.5896767 35.4648336,26.4971738 L35.6485698,27.6049981 C35.3728085,27.697501 35.0976755,27.7896881 34.8222283,27.8821909 L34.27102,26.8665538 Z M37.0264336,28.7131381 C37.669353,28.8053252 38.2202472,28.8978281 38.8634807,29.0825181 C38.8634807,29.0825181 40.7002137,29.7284595 41.3431331,32.0369266 L40.8839498,31.6675466 L40.7919247,31.5750437 C40.7919247,31.5750437 39.2309529,30.7440966 37.669353,29.2668924 C37.4856169,29.0825181 37.1181446,29.0825181 36.9344085,29.1747052 L33.5360755,31.5750437 C33.3523394,31.6675466 33.2606284,31.8522366 33.2606284,32.0369266 L33.2606284,32.7753709 C32.617709,32.9600609 32.3419478,32.867558 32.1585257,32.867558 C32.2502368,32.2213009 32.5256839,31.5750437 32.9851812,30.8365995 C33.9035478,29.4515824 35.4648336,28.6206352 37.0264336,28.7131381 Z M31.056109,33.791008 L31.6073174,34.0678851 L31.6073174,34.6219551 L31.1481341,35.2682122 C30.6886368,34.9910194 30.3214786,34.7141423 30.1380566,34.5294523 C30.0460315,33.791008 29.8622954,32.0369266 28.8519038,31.2981666 L27.474354,30.1903423 C27.3823289,29.6362723 27.3823289,29.0825181 27.2906179,28.5284481 L30.1380566,30.2825295 L31.2398452,31.3903537 C31.056109,31.8522366 30.8723729,32.313488 30.6886368,32.7753709 L30.6886368,32.867558 C30.6886368,33.1447509 30.7806619,33.5138151 31.056109,33.791008 Z M26.3719373,14.2179726 C26.4639624,14.4951655 26.5556734,15.0489197 26.5556734,15.8798669 C26.5556734,16.4339369 26.4639624,17.080194 26.2802263,17.7264511 C26.1882012,18.0955154 25.9127541,18.5573983 25.7290179,19.0189654 L25.7290179,18.0033283 L25.7290179,16.0645569 L25.7290179,13.7564055 C25.820729,13.6642183 26.0964902,13.8489083 26.3719373,14.2179726 Z M35.9240169,14.4951655 C33.1686033,14.4951655 30.4131897,14.8642297 27.8415122,15.5104869 C27.8415122,14.4951655 27.6577761,13.7564055 27.566065,13.7564055 C27.566065,13.6642183 27.474354,13.5717155 27.474354,13.5717155 C26.7394095,12.6485812 26.1882012,12.2792012 25.7290179,12.2792012 L25.7290179,11.6329441 L25.7290179,11.3560669 L26.6473844,11.3560669 C27.0148567,11.3560669 27.2906179,11.0788741 27.2906179,10.7098098 L27.2906179,8.03227843 C27.2906179,7.75540129 27.1068818,7.5707113 26.9231457,7.47820844 C27.1985928,7.10914416 27.474354,6.73976417 27.566065,6.37038418 C28.1169593,4.70848992 27.2906179,3.13909852 27.1985928,3.13909852 C27.1068818,2.95440852 26.9231457,2.86190567 26.7394095,2.86190567 C26.5556734,2.86190567 26.3719373,2.86190567 26.1882012,3.04659566 L25.9127541,3.32378851 C25.6369928,2.12346139 24.9943875,0.830947128 24.8106514,0.461567136 C24.6269153,0.0921871434 24.3514682,0 24.1677321,0 C23.9839959,0 23.7082347,0.184689996 23.6165237,0.369379992 C23.3410766,0.923134272 23.0653153,1.47720426 22.8815792,2.03127425 C22.5144211,1.47720426 22.0552378,1.10782427 22.0552378,1.10782427 C21.8715017,0.923134272 21.5957405,0.923134272 21.3202933,1.01563712 C21.1365572,1.20032712 20.9528211,1.47720426 21.0448462,1.66189426 C21.1365572,2.12346139 20.8611101,3.04659566 20.5853489,3.60066565 C19.6669824,5.07786991 19.9427436,6.46288703 20.4019268,7.3860213 L19.9427436,7.3860213 C19.5752713,7.3860213 19.2998242,7.66289844 19.2998242,8.03227843 L19.2998242,10.7098098 C19.2998242,11.0788741 19.5752713,11.3560669 19.9427436,11.3560669 L21.0448462,11.3560669 L21.0448462,11.9101369 C20.769085,12.1866984 20.5853489,12.5560784 20.5853489,12.9254583 C20.5853489,13.2948383 20.677374,13.5717155 20.8611101,13.8489083 C20.677374,14.1257855 20.5853489,14.4026626 20.5853489,14.6795397 C20.5853489,15.0489197 20.677374,15.3257969 20.8611101,15.6029897 C20.677374,15.8798669 20.5853489,16.156744 20.5853489,16.526124 C20.5853489,17.080194 20.8611101,17.5417611 21.3202933,17.8186383 C10.2069279,23.0811982 2.39955621,34.3447623 1.84866194,47.3627235 C0.562509114,47.8242906 0.011614839,49.1168049 0.011614839,49.8552491 C-0.0800961806,50.6861963 0.379087075,51.5174591 1.11371747,52.0712134 C1.38916461,52.2559034 1.66492582,52.4405934 2.03239806,52.5327805 C3.50165884,65.919806 12.6865803,76.9989958 25.0860986,81.2459186 C25.4535708,81.3381057 25.9127541,81.5227957 26.2802263,81.6152986 C27.3823289,81.9843629 28.4844315,82.1690529 29.5868483,82.44593 C29.9543205,82.5384329 30.4131897,82.63062 30.7806619,82.63062 C32.4339729,82.9078129 34.1789949,83 35.9240169,83 L36.6589614,83 L37.669353,83 C38.0368252,83 38.4960085,82.9078129 38.8634807,82.9078129 C39.6901362,82.81531 40.5164776,82.7231229 41.251108,82.63062 C41.7106053,82.5384329 42.0780776,82.44593 42.5372608,82.44593 L42.7209969,82.44593 C43.1801802,82.3537429 43.5476524,82.26124 44.0068357,82.1690529 C44.3743079,82.0768657 44.8334912,81.9843629 45.2009634,81.7999886 C45.5681216,81.7074857 46.0273048,81.5227957 46.3947771,81.4306086 C46.8539603,81.2459186 47.2214326,81.1534157 47.6806158,80.9687258 C48.048088,80.7843515 48.5072713,80.6918486 48.8747435,80.5071586 C61.2742618,75.3371016 70,63.0579003 70,48.8399277 C70,29.9131495 54.753043,14.4951655 35.9240169,14.4951655 Z" id="Fill-59" fill="#000000" mask="url(#mask-2)"></path>
                        <path d="M33.196,35.4385 C33.196,35.2925 33.05,35.146 33.05,35 L33,35.0825 C33.0545,35.189 33.125,35.296 33.196,35.4385" id="Fill-60" fill="#FFFFFF" mask="url(#mask-2)"></path>
                        <path d="M58.2449682,34.3962828 C58.1542259,34.576851 58.2449682,34.7574192 58.3354009,34.9379874 C58.4261432,35.1185556 58.6070085,35.2086853 58.7881835,35.2086853 C59.603316,35.2988151 59.965666,35.7503899 59.965666,36.5627924 C59.8752333,36.6529222 59.8752333,36.6529222 59.8752333,36.7433606 C59.603316,37.8264611 58.4261432,37.9165909 58.3354009,37.9165909 L51.7239078,37.9165909 C51.5427329,37.9165909 50.4563024,37.8264611 50.4563024,36.7433606 C50.3655601,35.6599515 51.1803829,35.4793833 51.2711252,35.3892535 C51.5427329,35.2988151 51.8143405,35.1185556 51.8143405,34.7574192 C51.8143405,34.1255849 52.2674328,33.7644485 52.2674328,33.7644485 C52.5390404,33.4937505 52.991823,33.3131823 53.3541729,33.3131823 C53.7165229,33.3131823 53.9881305,33.4033121 53.9881305,33.4033121 C54.2600478,33.4937505 54.6220881,33.4033121 54.8032631,33.1326141 C55.0751804,32.5909096 55.527963,32.3202116 56.1616108,32.2300819 C56.7051358,32.1396434 57.2486607,32.3202116 57.7014433,32.5909096 C58.6070085,33.2230526 58.2449682,34.3962828 58.2449682,34.3962828 M55.7995706,31.056543 C54.984438,31.1469814 54.2600478,31.5982475 53.8069555,32.1396434 C53.6260903,32.1396434 53.4449153,32.0495137 53.2637403,32.0495137 C52.5390404,32.0495137 51.8143405,32.3202116 51.2711252,32.8619162 C51.2711252,32.8619162 50.6374774,33.4033121 50.4563024,34.306153 C49.7316025,34.576851 48.9164699,35.2988151 49.0069026,36.7433606 C49.0976449,38.5484252 50.72791,39 51.5427329,39 L58.2449682,39 C58.9693585,39 60.5091909,38.5484252 60.8712312,36.9236201 C60.8712312,36.7433606 60.9616638,36.6529222 60.9616638,36.472354 C61.1428388,35.6599515 60.6903659,34.576851 59.4224507,34.1255849 C59.5128834,33.3131823 59.2412758,32.3202116 58.2449682,31.5982475 C57.5202683,31.1469814 56.7051358,30.8759748 55.7995706,31.056543" id="Fill-61" fill="#000000" mask="url(#mask-2)"></path>
                    </g>
                </g>
            </g>
        </g>
    </g>
</svg>