<svg height="83" viewBox="0 0 70 83" width="70" xmlns="http://www.w3.org/2000/svg" xmlns:xlink="http://www.w3.org/1999/xlink"><mask id="a" fill="#fff"><path d="m0 83h70v-83h-70z" fill="none"/></mask><g fill="none" fill-rule="evenodd" transform=""><path d="m29.6597788 31.9724096-1.0215367-1.1505996-2.6382421-1.82181c.0849825.5751358.0849825 1.1505996.1702561 1.7260633l1.2764843 1.1505996c.9362631.7669571 1.1065192 2.589095 1.1915017 3.3560521.1702562.1918213.5107684.4793892.9362631.767285l.4254948-.6715383v-.5751359c-.1702561-.0960745-.3402212-.1918212-.5104773-.2875679-.2555297-.2878958-.3405122-.6712104-.3405122-.9591062v-.0957467c.1702561-.4797171.3405122-.9591062.5107683-1.4384954" fill="#00b8fb"/><path d="m60.5343211 37.6131378c-.3665138 1.6607622-1.9240407 2.1220149-2.656755 2.1220149h-6.7789385c-.8244993 0-2.4738113-.4612527-2.5652831-2.3065791-.0914719-1.476198.7330275-2.2144547 1.4657418-2.4911433.1832569-.9225054.8244994-1.4761979.8244994-1.4761979.5497706-.5536926 1.2827982-.8303811 2.0155125-.8303811.1832568 0 .3662005.0924398.5494574.0924398.4579855-.5536925 1.1910131-1.0149453 2.0155125-1.1070696.9162844-.1845642 1.7407838.0921243 2.473498.5533771 1.007443.7379412 1.282485 1.7528865 1.1906999 2.5835831 1.2827982.4609372 1.7407838 1.5683223 1.5575269 2.3987034 0 .1845642-.0914718.2766885-.0914718.4612527m-25.8721133-20.6131378c-2.8396986 0-5.5882387.3691284-8.2449936 1.1070696-.1829437.8303811-.4579856 1.7528865-1.0989149 2.6757075 0 0-.4582988.9225054-.2750419 1.9374507l.0917851.7382567c.1832568 1.0149453.4576723 2.5832676.7327143 4.3361541l3.755983.9225055c.1832569-.2766886.3662005-.4612528.6412425-.7379413l-2.1069844-4.4285939c-.091785-.2766886-.091785-.5536926.1832569-.7382568.2747287-.1845642.6409293-.1845642.8241861 0l3.6648245 3.4139642c.3658873-.1845642.8241861-.277004 1.2821717-.3691284l1.37427-4.1519054c.0914718-.2766885.3665138-.4612527.6412425-.4612527s.4579856.1845642.5497707.4612527l1.0077562 4.2440298c.1832569.0924398.4576723.1845642.6409292.277004l3.8477681-2.952396c.2747287-.1845642.6412425-.1845642.8241861 0 .1832569.1845642.2747287.4612527.0917851.7379413l-2.4734981 4.2440297c.0917851.1845642.1832569.3691284.275042.5536926l4.2136554-.9228209c.3665137-.0921244.6415557.0924398.7330275.3691283.0917851.2766886 0 .5536926-.2747287.7382568l-4.2139686 2.5832676c0 .2766885-.0917851.5536926-.1832569.7379412.0914718.4612528.1832569 1.0149453.1832569 1.5686379.2747287 2.5832676.0914718 2.8599561-.0917851 3.0445203-.1647746.082975-.3292359.3123394-.4936972.4924866v.2665928c.6847856 2.5239546.8577049 3.589379.7687392 4.0386429.2747287.1845642.5497706.3691284.8244993.6458169l1.3739568 1.3837582c.6412425.6461324 1.0992281 1.476198 1.1910131 2.3990189l.2747287 1.9374507 2.3820263 2.8599561 1.7401573-1.8450108c.1832569-.2770041.5497706-.2770041.8248126-.0924399l6.4124248 4.705598c.1832568.0921244.2750419.2766885.2750419.4612527s-.0917851.3691284-.1832569.4612527l-1.1910131 1.2916338c0 .0921244.0914718.2766886.0914718.4612528 0 .3691283-.0914718.8303811-.3662005 1.1070696-.275042.1845642-.5497707.3691284-.8248126.4612527 0 .277004-.1832569.5536926-.3662005.8306966-.1832569.1842487-.4582989.3688129-.7330276.4612527 0 .2766885-.0917851.5533771-.2747287.8300656-.1829436.277004-.5494574.4615682-.9159712.5536925 0 .2770041-.0914718.5536926-.2747287.8303811-.2750419.3691284-.7330275.5536926-1.1910131.5536926-.275042 0-.4582989-.0921244-.7330276-.1845642l-.0914718.0924398c.0914718 1.2913183-.3665137 3.5978974-2.4734981 4.7052825l1.007443 8.0268069v.0921243c0 .0921244-.1832569 1.7528865-1.2821717 3.1369602.0914719.3688129.0914719.7379412.1832569 1.1070696 11.5423646-4.981971 19.6041013-16.5148664 19.7873582-29.4315199 0-17.8989401-14.4741615-32.5684801-32.3377922-32.5684801" fill="#4bccef"/><path d="m23.1818002 78.599798.4544864-9.1383809-1.4545429-4.9847436c-.0907729-.1846552 0-.3693104.1818567-.4614802l.9089727-1.1076156.7274269-4.9847436h-.2726296c-.3637135 0-.6363431-.0921698-.8181998-.1843395-1.36377-.7386209-1.4545429-3.1385072-1.4545429-3.4156479v-.1846552c.1818567-.7383051 1.0000565-1.5690957 1.9998021-2.4920561l-.6360322-.8307906c-.0910838 0-.0910838-.0921698-.0910838-.0921698l-.5455701-1.4772416c-.0907729-.1846552-.0907729-.3693104 0-.55365l.8181998-1.476926-2.0001131-2.400202c-.0907729-.1843396-.0907729-.3689948-.0907729-.55365l.2726297-1.5694114c-.1818568-.0921698-.3634026-.1843395-.5452593-.276825-2.4545994-1.5690957-.5455702-5.9998737-.2726297-6.7384945-.4547972-5.1690832-.0910838-11.6307527 0-12.9230235l-.7274269-.9229604c0-.0924854-.0907729-.1846552-.0907729-.3693104v-.4614802c-9.5454571 4.8922582-16.36368516 14.4924349-17.5455984 25.7535616.45479723-.4614802 1.18191324-.7383052 2.18196976-.7383052.36371344-.7383052 1.36376996-2.0308916 3.18171542-2.0308916.54557015 0 1.18191324.0924854 1.81825632.3693104.09077293 0 1.8179455.8307906 2.3635156 2.8616822 1.0911403.276825 2.5453723 1.1076156 2.6364561 3.1385072.090773 1.1076156-.2729405 2.030576-1.0000565 2.7691968-.727116.7383052-1.6363996 1.1076156-2.2727427 1.1076156h-8.81803021c1.54531581 12.4615433 9.99994351 22.7075398 21.45442981 26.769323.090773-.646451.1818568-1.200101.2726297-1.6618968-.0907729 0-.1818567-.0921698-.2726297-.0921698-.2729405-.1846552-.3637134-.3693104-.3637134-.6461354" fill="#4bccef"/><g fill="#fff"><path d="m39 41h2v-5h-2z" mask="url(#a)"/><path d="m32 27.4667123.5.5332877c.142892-.1333789.357108-.1999544.5-.3333333l-.4286761-.6666667c-.2142159.1999544-.4284319.3333333-.5713239.4667123" mask="url(#a)"/><path d="m22.2781353 16.5h1.4759641c.1640272 0 .2459006-.2000684.2459006-.2999316 0-.1002052-.0818734-.2000684-.1640272-.2000684h-.0818734-.0821537-.7379821-.7377017c-.1640272 0-.246181.0998632-.1640272.2000684 0 .2000684.1640272.2999316.2459006.2999316" mask="url(#a)"/><path d="m33.5 37v-.8463562c-.0715681-.0768219-.0715681-.0768219-.142892-.1536438l-.357108.6153644c.2142159.1539068.357108.3078137.5.3846356" mask="url(#a)"/><path d="m41.3997948 26 .6002052-1-1 .7273858c.2000684.0907678.2999316.1818464.3997948.2726142" mask="url(#a)"/><path d="m42.1199562 43c-.3200656.2661953-.7200109.44376-1.1199562.6213248.0798796.0886306.3200657.2661953.7200109.3551294.6398578.0886306 1.0400766-.0889341 1.2799891-.2664988-.2399125-.3551295-.5599781-.5323907-.8800438-.7099554" mask="url(#a)"/><path d="m41 28.3888678c.0834758 0 .1666667.0554711.2501425.1111322l.2498575-.1666033c-.0831909-.1111323-.1666667-.2222645-.2498575-.3333967z" mask="url(#a)"/><path d="m32.5452285 26c.1818464-.0768017.2729251-.1538664.4547715-.2306681l-1-.7693319z" mask="url(#a)"/><path d="m25 12.5v-.1247863-.3752137h-2v.1252137l1.3913173.1247863c.260779 0 .4347309.1252137.6086827.25" mask="url(#a)"/><path d="m22 13.1667617c0 .1664766.1666904.25.2498931.25l1.4999288.0832383c.1666904 0 .2501781-.1667617.2501781-.25s-.0834877-.0832383-.0834877-.0832383-.0832027-.0832383-.1666904-.0832383l-1.4999288-.0835234c-.0832027 0-.1666904.0835234-.2498931.1667617" mask="url(#a)"/><path d="m22.2499288 15.5h.7500712.7500712.0832146c.0834996 0 .1667142-.0832383.1667142-.1664766 0-.1667617-.1667142-.2502851-.2499288-.2502851l-1.5001424-.0832383c-.1667142 0-.2499288.0832383-.2499288.25s.1667142.25.2499288.25" mask="url(#a)"/><path d="m23.3333967 41.7307819-.3333967 1.4424278 1.3333017 1.8267903 1.6666983-5c-.8332067.7693825-1.749905 1.538765-2.6666033 1.7307819" mask="url(#a)"/><path d="m31 29.4614575.6363071.5385425c.0910787 0 .0910787-.0768219.0910787-.0768219.0907678-.1539069.1818464-.2309918.2726142-.3078137l-.6363071-.6153644c-.1818465.2307288-.2729251.3846356-.3636929.4614575" mask="url(#a)"/><path d="m25.020556 38.4524405c-.2658122.1788137-.6204306.1788137-.7977398 0-.5319275-.4468812-.8865459-.8937625-1.0638551-1.5194574-.2658122 1.1621358-.2658122 2.41322.5319276 2.9496609 1.4181704.8940682 3.8998928-1.8770847 4.6976327-2.9496609.1773091-.2683733.5319275-.2683733.7977398-.0895597.2661153.1788137.2661153.536441.0888061.8045086-.1773092.1788136-.6204306.8045085-1.2411643 1.4302034h.3546184c.3546183.1788137.4434245.536441.3546183.8045086l-2.127104 5.7208138-.0888062.089254-.8862428 1.5197631.4431214 1.0725762.5319276.7149489c3.8113898-2.8604069 10.1930051-6.0781354 13.3839643-7.5978986-.3546184-.0892539-.7092368-.0892539-.975049-.0892539-2.2159102-.1788137-4.1660082-1.9666444-4.4318204-2.2347121-1.950098-1.5194574-4.8749419-3.6649154-5.0522511-3.7541694s-.2658122-.2680676-.2658122-.4468813c0-.4471869-.0888061-1.2516955-.3546184-1.8770847-.7977398 1.4298978-2.5705286 4.3798644-3.8998929 5.4524405" mask="url(#a)"/><path d="m41.0715681 34c0 .2498931 0 .583274-.0715681.9166548l.5 1.0833452c0-.2501781 0-1.0001425-.0713239-1.7501069z" mask="url(#a)"/><path d="m32.7898433 35c-.0788763.0798796-.1577525.0798796-.2368989.0798796v.6401313c0 .1600329 0 .2399125-.0788763.3200657l-.4740681.7200109c.0788763.0798797.1580227.1600329.3160454.2399125v-.0601833.0601833l.6839546-1.154972c-.0307942-.061551-.052134-.1228286-.052134-.2051703-.0788763-.2399124-.1580227-.4798249-.1580227-.6398577" mask="url(#a)"/><path d="m34.8666515 27c-.3332574.0665603-.5999544.1333485-.8666515.2666971l.4000456.7333029c.1999088-.0667882.3998176-.1333485.5999544-.2001368z" mask="url(#a)"/><path d="m37.1538664 26.9286761h.2309311c.1536033 0 .3074697.0713239.4613361.0713239l.1538664-.9284319c-.2306681-.0715681-.4615992-.0715681-.7690689-.0715681h-.2309311z" mask="url(#a)"/><path d="m32.81004 30.0364068c-.4502616.7058449-.7201723 1.3238741-.81004 1.9416015.1797353 0 .4499538.0881175 1.0799508-.0884192v-.7058449c0-.1765367.0898676-.3530733.2699107-.4414925l3.3300277-2.2943731c.1800431-.0881175.5401293-.0881175.7201724.0881174 1.5302123 1.4122933 3.0598091 2.2062557 3.0598091 2.2062557l.0901755.0884192.4499538.3530733c-.6299969-2.2062556-2.4298123-2.8239831-2.4298123-2.8239831-.6303047-.1765366-1.1701261-.2649558-1.8001231-.3530733-1.5299046-.0884192-3.0601169.7058449-3.9600246 2.029719" mask="url(#a)"/><path d="m25 16.2054541v1.8341634.9603825c.1111322-.4365918.2777356-.8731836.3333967-1.2225765.1111322-.6112883.1666033-1.2225765.1666033-1.7463672 0-.7862834-.0554711-1.3100741-.1111322-1.5722681-.1666034-.3490943-.3333967-.5237907-.3888678-.4365918z" mask="url(#a)"/><path d="m37.2999316 24h.7000684l-.4001368-1-.5998632.9445289c.0998632 0 .0998632 0 .2000684.0554711z" mask="url(#a)"/><path d="m32 52c-1.9690105 1.3126309-4.6875401 3.0624065-5.4373798 3.5875187l-.5626202 3.4124813z" mask="url(#a)"/><path d="m39.2227898 36.15623c.7885237-.8437701.8869206-2.3437701.6897897-3.0936098-.4926588-.3750801-1.6754443-1.0313101-2.9562897-2.0626202l-2.9562898 1.9686899c0 .65623 0 2.2501603.8869206 3.1875401.4926588.5626202 1.1824485.84377 2.1677661.84377.9856546 0 1.6754443-.2811498 2.1681031-.84377" mask="url(#a)"/><path d="m36 37v1.1999316c.3751202.4000912 1.5941007 1.4003192 3 1.8000684v-2.9001482c-.3747996.1001938-.8435396.2000456-1.3122796.2000456-.6563001 0-1.2189804-.0998518-1.6877204-.2998974" mask="url(#a)"/><path d="m44 47.714278-.1001938-3.714278c-.3997492.1905175-.7998404.2859392-1.2997834.2859392h-.4000912c-.2000456.0950959-.500285.3807094-.8001824.6666485l-.3997492 11.0474123c1.1999316-1.3332971 2.3998632-2.9525334 2.3000114-3.8093739 0-.5715526-.1001938-.9525877-.2000456-1.3336228-.3002394-1.047358-.499943-1.9999457.9000342-3.1427253" mask="url(#a)"/><path d="m40 27.3333333c-.2501425-.1333789-.5-.2667578-.8333333-.3333333l-.1666667.8666211c.1666667 0 .2501425.0668034.3333333.0668034 0 0 .0831909 0 .2498576.0665755z" mask="url(#a)"/><path d="m40 44.6498064c-.36971-.1857043-.5547232-.4641021-.7397363-.6498064-6.474195 3.1563385-14.2428495 7.5192789-15.2602637 9.7474133.0926647.8355107.3700263 1.9494192.832401 2.2278169.2773616.0930109.7397363-.0926934 1.0174142-.2783977.1850131-.1857043 5.9191556-4.1775536 7.4912929-5.1987686 1.1097626-.6498064 4.5317151-3.8058275 6.6588919-5.8482575" mask="url(#a)"/><path d="m47.2144078 52 .7855922-.814843-1-1.185157z" mask="url(#a)"/><path d="m53.7999658 57c.050094 0 .1000171 0 .1499402-.0554711.050094-.0554711.050094-.1111322.050094-.1111322s0-.0554712-.050094-.1111323l-.6999487-.6666033c-.0499231-.0556611-.1000171-.0556611-.1000171-.0556611-.0499231 0-.0499231 0-.1000171.0556611-.0499231.0554711-.0499231.1111322-.0499231.1111322 0 .0554711 0 .0554711.0499231.1111322l.3499743.3332067.3501453.3333967z" mask="url(#a)"/><path d="m50.1393326 59c-.0507294 0-.0507294 0-.1012856.0582032-.0507293.0584026-.0507293.1750083 0 .2332115l.7088257.6412321c.1012855.1166058.1520149.0584025.2025711 0 .0505562-.0582032.0505562-.1166058.0505562-.1166058 0-.0582032 0-.0582032-.0505562-.1166057l-.7088257-.6412321c-.0507293-.0582032-.1012855-.0582032-.1012855-.0582032" mask="url(#a)"/><path d="m54.9492729 55.9364924c.0507271-.0549991.0507271-.1101866.0507271-.1101866 0-.0549992 0-.0549992-.0507271-.1101867l-.7087951-.6609316c-.0507271-.0551875-.1012811-.0551875-.1012811-.0551875-.050554 0-.050554 0-.1012812.0551875-.050554.0549992-.050554.1651858 0 .2203733l.708795.6609316c.1012812.1099984.1520083.0549992.2025624 0" mask="url(#a)"/><path d="m56 54.0630048-5.2057463-4.0630048-3.7942537 4.2520194.7941531 6.8975767 1.2349806.8504039.88256-.9447496-.4411291-.3780291c-.6176412-.5670436-.7938514-1.5117932-.2649189-2.1731825.176512-.2836834.529536-.4726979.88256-.5670436 0-.2833603.0881051-.5670437.2646172-.8504039.2649188-.1890146.529536-.3780291.7941531-.4723748 0-.3780291.176512-.6613894.353024-.9447496.2649189-.2836834.529536-.3780291.7941531-.4726979 0-.2833603.176512-.5667205.353024-.8504039.5295361-.6610662 1.4114926-.7557351 2.0294355-.1890145l.7941531.7560581z" mask="url(#a)"/><path d="m52.949906 58.9327043c.050094-.0582068.050094-.1166129.050094-.1166129h-.0210292.0210292c0-.0582069-.050094-.0582069-.050094-.0582069l-.3499744-.3498388-.3499743-.3496396c-.0499231-.0584061-.1000171-.0584061-.1000171-.0584061-.0499231 0-.0499231 0-.1000171.0584061-.0499231.0582069-.0499231.1164137-.0499231.1164137 0 .0584061 0 .0584061.0499231.1166129l.7001196.6412716c.1000171.116613.1499402.0582068.1998633 0" mask="url(#a)"/><path d="m45.5891335 45.4637333c-.0973105-.5487045-.2922648-1.0063753-.6821733-1.4637333l.1949543 3.5678303c0 .274665-.0976438.4573579-.2925981.5487044-.974438.6406766-.8771275 1.0063753-.6821733 1.9214041.0976438.457358.1949543.9147159.1949543 1.4637332 0 .1830058-.0973105.3660115-.0973105.5490173l2.0465199 19.3025717c0 .1830057-.0973105.4576708-.2922648.5490173l-.487219.3660115 3.508177.7317102z" mask="url(#a)"/><path d="m43 29.146v.2925l.5-.4385z" mask="url(#a)"/><path d="m46 74 .2220745 5c.2222644-.0860798.4445288-.2585343.7779255-.4309887-.1667933-1.9827841-.3333967-3.6206592-.3888678-4.3965568z" mask="url(#a)"/><path d="m48 62 .1765889 2c.5293644-.4445289.7057522-1.1111955.8234111-1.6296859-.0587289.0739615-.1763878.1481763-.2353178.1481763-.1176589 0-.1763878 0-.2351166-.0742148z" mask="url(#a)"/><path d="m57.002958 32.0246346c-.6661737.094708-1.1419655.3791566-1.427701.948378-.1903818.2844485-.57082.379481-.8565555.2844485 0 0-.28541-.094708-.6658482-.094708-.3807636 0-.8565555.1897405-1.1419655.474189 0 0-.4761173.3794809-.4761173 1.0434104 0 .379481-.28541.5688971-.57082.6639295-.0953536.0947081-.9519091.2844486-.8565555 1.4228914 0 1.1381185 1.1419655 1.2328266 1.3323473 1.2328266h6.9474722c.0953536 0 1.3320219-.0947081 1.6177573-1.2328266 0-.0950324 0-.0950324.0950282-.1897405 0-.8536699-.3807636-1.3281833-1.2373191-1.4228913-.1900564 0-.3801128-.0947081-.4754664-.2844486-.0950282-.1897405-.1903819-.3794809-.0950282-.5692214 0 0 .3804382-1.2328266-.5711455-1.8970804-.4757919-.2844486-1.0469373-.4738647-1.6180828-.3791566" mask="url(#a)"/><path d="m48 75c0 .1666033.1248931.3333967.1248931.5.124893-.1666033.2502138-.3333967.3751069-.4445289z" mask="url(#a)"/><path d="m41.1176589 81.1428571c0 .2856058-.05893.5715372-.1176589.8571429.2353178-.095419.4706356-.1905124.7646822-.2856057.1176589-2.0953105.1763878-4.1902953.2353178-5.7143943l-.8823411 1.1430743z" mask="url(#a)"/><path d="m25.1526111 10h.8473889v-1h-5v1h1.0169246z" mask="url(#a)"/><path d="m13.3809668 51.2472141c.4421234-.4705315.6190332-1.1293399.6190332-1.8824476-.0886061-1.8821258-1.8570997-2.0704027-1.9457058-2.0704027-.2652135-.0942994-.4421234-.2825764-.5304271-.5648309-.3538196-1.7881482-1.68018979-2.4469566-1.68018979-2.4469566-.4424258-.1882769-.79624547-.2825763-1.23836885-.2825763-1.50327999 0-2.21091933 1.6001931-2.21091933 1.6941707-.08830371.2825763-.35351726.3765538-.61873081.3765538-2.21091932-.2822545-2.47643528 1.8824476-2.47643528 1.9764252 0 .2825763-.26521355.5648308-.61903322.5648308-1.50327998 0-1.68018982 1.4115943-1.68018982 1.5998713 0 .4708533.17690984.8470853.61903322 1.2236392.44212338.3762321.97285289.564509 1.59188611.564509h8.75507117c.1769098 0 .8842468-.1882769 1.4149763-.7527859" mask="url(#a)"/><path d="m44.0399344 74h-.160011l-.5599015.4793892-.2398797.1918212.160011-.0957467-.2401532 6.4245363c.3200219-.0957467.7199125-.1918212 1.0399344-.2875679.3200218-.0960746.6400437-.1918213.9600656-.3836425l-.4001641-6.2330429z" mask="url(#a)"/><path d="m24.7418601 23.3224269-.0897354-.7430114c-.0900427-.5574968 0-1.1149936.0897354-1.5794155-.0897354.1858323-.2695136.2785896-.4492917.2785896h-1.2581399l.0897354.1858323c.0900428.1858322.0900428.2789072.0900428.4644218 0 .093075-.6293773 9.2897078.2695136 14.9564803.0897354.4644219.2695136.8360864.4492917 1.114676.62907-.7433291 1.3478753-1.8580051 2.066988-2.9726811l-.0897354-2.6940915c-.1797782-3.0654383-.8088481-7.0600381-1.1684045-9.0108005" mask="url(#a)"/><path d="m26.0510095 75 12.6111341-12.6364981.8598872-5.4545006.4779692-10.9090013c-1.0510095.9089798-2.3888659 1.9998178-3.4398754 2.9091085l-11.5601246 13.727336 1.528652 4.7270681v.1818581z" mask="url(#a)"/><path d="m22.7009398 7h2.881023c.7201018-.35095087 1.1705118-.78948947 1.3506142-1.40350351.0898973-.5264263.0898973-1.05255264 0-1.40350351-.4504099.52612634-.7204096.78948947-.7204096.78948947-.1801025.26306317-.5403073.26306317-.810307.08758774s-.2699997-.52612634-.0902051-.78918951c.2703075-.35095087 0-1.31591578-.359897-2.28088068-.4501021 1.14044034-.6302046 2.19299298-.6302046 2.19299298-.0898972.26336313-.3602048.52612634-.7204096.43853861-.359897-.08758774-.6302046-.35065091-.5399994-.70160178.0898972-.35095087 0-.70190173-.1801025-.96496491-.1801024.52642631-.3602048.87707721-.4501021 1.05255265-.9005121 1.57897894-.1801024 2.63153158.2699997 2.98248245" mask="url(#a)"/><path d="m26.6086827 77.5404947c-.0868272.396137-.3479036 1.7838021-.6086827 3.5672654 1.1302409.3964758 2.2607791.694002 3.3913173.8922399.7826345-2.5767536 1.7392209-6.7387326 2.6086827-11z" mask="url(#a)"/><path d="m43.3199745 55c-.8400128 1.2726862-1.9599234 2.4545994-2.4268454 2.9090858l-2.8931291 19.0909142 7-5.1818285z" mask="url(#a)"/><path d="m23.5789095 18.1111322h-.5789095v.6111322.2777356h.6841821.1052726.2105453v-1c-.1052726.0556611-.2105453.1111322-.2632715.1111322z" mask="url(#a)"/><path d="m39 79v-2l-1 1.1668329c.1052916.3330959.4209863.7499644 1 .8331671" mask="url(#a)"/><path d="m35.3333605 78.3934259v-.2695714l1.8334215-13.1238545-3.2502341 3.6854744c-.6665174 2.9662075-1.8331365 8.4495418-2.9165479 11.9551995 1.4168125.2695714 2.7498473.3593261 4.1666599.3593261.8335029 0 1.7502137-.0897547 2.5831467-.0897547.0834928-.0897546.1667006-.2695714.2501934-.359326-1.7499288-.1798168-2.4999389-1.4385338-2.6666395-2.1574934" mask="url(#a)"/></g><path d="m42.7209969 29.6362723v-.1846899l.4591833-.0921872zm5.6559317 48.8010955c-.091711-.36938-.091711-.73876-.1837361-1.1078242 1.1024167-1.3850172 1.2861528-3.0465957 1.2861528-3.1390986v-.0921871l-1.0103916-8.0322784c2.1121801-1.10814 2.5713634-3.4162914 2.4796524-4.70849l.091711-.0925028c.2757612.0925028.4594973.18469.7349445.18469.4591832 0 .9186806-.18469 1.1941277-.55407.1837361-.2768771.2754471-.5537543.2754471-.8309471.3674723-.0921872.7349445-.2768772.9186806-.55407.1837361-.2765615.2754472-.5537543.2754472-.8306314.2757612-.0925029.5508942-.2771929.7346304-.4615672.1837361-.2771928.3674722-.55407.3674722-.8312628.2754471-.0921872.5512083-.2768772.8266555-.4615672.2754471-.2768771.3674722-.7384442.3674722-1.1078242 0-.18469-.0920251-.36938-.0920251-.4615672l1.1941277-1.2925142c.0920251-.0921872.1837362-.2768772.1837362-.4615672 0-.1846899-.0917111-.3693799-.2754472-.4615671l-6.4295078-4.7088056c-.2754471-.18469-.6429194-.18469-.8266555.0925028l-1.745022 1.8462686-2.3882554-2.8619057-.2754472-1.9387714c-.091711-.92345-.5512083-1.7540814-1.1938136-2.4006542l-1.3778639-1.3847014c-.2754471-.2768772-.5508942-.4615672-.8266555-.6462572.0920251-.4615671-.091711-1.5697071-.8266554-4.2469228.1837361-.1846899.3674722-.4615671.5512083-.5540699.1837361-.18469.3674722-.4615672.091711-3.0465957 0-.55407-.091711-1.10814-.1837361-1.5693914.0920251-.18469.1837361-.4618829.1837361-.73876l4.2249885-2.5850285c.2757612-.18469.3674722-.4618829.2757612-.73876-.0920251-.2768771-.3674722-.4615671-.7349445-.36938l-4.2249884.92345c-.091711-.18469-.1837361-.36938-.2754472-.55407l2.4799665-4.2469228c.1837361-.2768771.091711-.5537543-.0920251-.7384443-.183422-.18469-.5508943-.18469-.8266555 0l-3.8575162 2.9544086c-.1837361-.0925029-.4591833-.18469-.6429194-.2771929l-1.0103916-4.2469228c-.091711-.2768771-.2754471-.4615671-.5512084-.4615671-.2754471 0-.5508942.18469-.6429193.4615671l-1.3778639 4.1547357c-.4588692.0921871-.9180524.18469-1.2855246.36938l-3.6740942-3.4162914c-.1837362-.18469-.5508943-.18469-.8263415 0-.2757612.18469-.2757612.4618828-.1837361.73876l2.1121802 4.4316128c-.2754472.2768771-.4591833.4615671-.6429194.7384442l-3.7654911-.9231342c-.2757613-1.7540814-.5512084-3.3234728-.7349445-4.33911l-.091711-.73876c-.1837361-1.0156371.2754471-1.9387713.2754471-1.9387713.6429194-.9231343.9186806-1.8465843 1.1021026-2.6775314 2.6633886-.7384443 5.4191162-1.1078243 8.2662409-1.1078243 17.9106596 0 32.4226721 14.6795398 32.4226721 32.5906809-.1837361 12.9254583-8.2665549 24.4662153-19.8394177 29.4515823zm-.2368155-3.5621491.3671582.0925029c-.091711.18469-.1837361.4615671-.2754471.73876 0-.2771929-.0917111-.55407-.0917111-.8312629zm-1.0103916-22.3424382-.2757612-2.4928414 1.2861528 1.47752zm2.7554136 10.432617c-.1837361.6465728-.4591832 1.47752-1.2858387 2.0312742l-.2757612-2.4928413.8269696.5540699c.091711.0921872.183422.0921872.3671581.0921872.0920251 0 .2757612-.0921872.3674722-.18469zm5.3270912-9.0475999c-.6429194-.5540699-1.5612859-.4615671-2.1124943.18469-.1837361.2768772-.3674722.5537543-.3674722.8306315-.2754472.0925028-.5508943.18469-.8266555.4618828-.1837361.2768771-.3674722.5537543-.3674722.9231343-.2754472.0925028-.5508943.2771928-.8266555.4615671-.1837362.2771929-.2754472.55407-.2754472.8309471-.3671581.0921872-.7346304.2768772-.9183665.55407-.5508943.6462572-.3671581 1.5693914.2757612 2.1234614l.4588692.36938-.9183665.9231343-1.2858388-.8309471-.8266554-6.7397642 3.9495413-4.1547357 5.4188021 3.9700457-.5508943.8309471zm-1.1021027 1.3847014c-.091711-.0921871-.091711-.2768771 0-.3693799.0920251-.0921872.0920251-.0921872.1837361-.0921872 0 0 .0917111 0 .1837362.0921872l1.2855246 1.1081399c.0920251.0921872.0920251.0921872.0920251.18469 0 0 0 .0921872-.0920251.18469-.091711.0921872-.1837361.1843743-.3674722 0zm-.5512083 1.8465843-.6429194-.5537543c-.091711-.0925028-.091711-.0925028-.091711-.18469 0 0 0-.0925028.091711-.18469.0920251-.0925028.0920251-.0925028.1837361-.0925028 0 0 .0920251 0 .1837361.0925028l1.2858388 1.1078243c.0920251.0921871.0920251.18469.0920251.18469s0 .0921871-.0920251.1843743c-.091711.0925028-.1834221.0925028-.2754472.0925028l-.091711-.0925028zm-1.1941278 3.1390985s0 .0921872-.091711.18469c-.091711.0921872-.1837361.1843743-.3674722 0l-1.2858388-1.0156371c-.0920251-.0921872-.0920251-.2768771 0-.36938.0917111-.0921871.0917111-.0921871.1837362-.0921871 0 0 .091711 0 .1837361.0921871l1.2858387 1.0156371c.091711.0921872.091711.0921872.091711.18469zm-.4591832-2.3081514c-.091711-.0925028-.091711-.0925028-.091711-.18469 0 0 0-.0925028.091711-.18469.0920251-.0921871.0920251-.0921871.1837361-.0921871 0 0 .0920251 0 .1837361.0921871l.6429194.55407.6429194.5537543s.0920251 0 .0920251.0925029c0 0 0 .0921871-.0920251.18469-.091711.0921871-.1834221.18469-.3671582 0zm-6.7963519 14.9564169.4588692-.3690643c.1837361-.0925028.2754471-.36938.2754471-.55407l-1.928444-19.4805325c0-.18469.091711-.36938.091711-.5537543 0-.5540699-.091711-1.0156371-.1837361-1.4772042-.1837361-.92345-.2754472-1.2925143.6429193-1.9390871.1837362-.0921872.2757613-.2768772.2757613-.5537543l-.1837362-3.6006657c.3674723.4615672.5512084.9231343.6429194 1.4772043l3.2145969 27.7896881zm1.1934996 6.7397642-.3671582-5.3547471 1.0103916.18469c.091711.8309472.3671582 2.5850286.6429194 4.70849-.5512084.1846899-.9186806.3693799-1.2861528.4615671zm-2.2959163.73876c-.3674722.0921871-.8266555.18469-1.1941277.2768771l.2757612-6.1856942-.1837361.0925029.2754471-.18469.6429194-.4618829h.1837361l.6429194.0925029.4594973 6.0010042c-.3674722.18469-.7349445.2768771-1.1024167.36938zm-6.4295078-3.3237885 2.8471246-19.3883454c.4594973-.4615672 1.5616-1.6615786 2.3882555-2.9544085l1.6533109 17.0805097zm3.9495413 3.7853556c-.4591832.0921872-.8266555.18469-1.1941277.2768771.091711-.2768771.1837361-.5537542.1837361-.8309471v-3.8775428l1.3778638-1.1078242c-.092025 1.4772042-.1837361 3.5084785-.3674722 5.539437zm-2.2962303-1.2003271c-1.0103917-.0921872-1.5612859-.5537543-1.745022-.9231343l1.745022-1.2925142zm-.4591833 1.6618942c-.9183665 0-1.9287581.0925029-2.8474387.0925029-1.5612859 0-3.0308608-.0925029-4.5924607-.36938 1.1941277-3.6006656 2.4802805-9.2326055 3.2149109-12.2792012l3.5820691-3.7853557-2.0207832 13.4795284v.2768771c.1837361.73876 1.0103916 2.0312743 2.9394638 2.2159643-.0920251.0921871-.1837361.2768771-.2757612.3690642zm-8.7254241-.4615671c-1.1941277-.18469-2.3882554-.4615671-3.5820691-.8309471.2754471-1.6618943.5508943-2.9544085.6429194-3.3234728l5.6945633-6.0935071c-.9186806 3.9700457-1.9290722 7.8475885-2.7554136 10.247927zm-4.7761968-17.7264511 11.1133654-13.9407798c1.0103917-.92345 2.2965445-2.0312742 3.3069361-2.9544085l-.4594973 11.0788741-.8266555 5.539437-12.1237571 12.8332713.4591832-7.5707113v-.18469zm.091711 16.526124c-11.5728628-4.0622328-20.11455077-14.3101598-21.67615074-26.774051h8.90947424c.6429194 0 1.5612859-.36938 2.2962304-1.1078243.7346304-.7387599 1.1021026-1.6618942 1.0100775-2.7697185-.091711-2.0312742-1.5612858-2.8622214-2.6633885-3.1390985-.5512083-2.0312742-2.2962303-2.8622214-2.3882554-2.8622214-.6426053-.2768771-1.28583878-.36938-1.83673305-.36938-1.8370471 0-2.84743871 1.29283-3.21491095 2.0312743-1.01007753 0-1.745022.2768771-2.20420526.7384443 1.19412773-11.2632484 8.08250476-20.865234 17.72660936-25.7584139v.4615672c0 .18469.0920251.2768771.0920251.3693799l.7346304.9231343c-.091711 1.2925143-.4591832 7.7554013 0 12.9254584-.2754471.73876-2.2042052 5.1703727.2757612 6.7397641.1834221.0925029.3671582.18469.5508943.2768772l-.2754471 1.5697071c0 .18469 0 .36938.091711.5537543l2.0207832 2.4006542-.8266555 1.4772043c-.0920251.1843743-.0920251.3690643 0 .5537542l.5512084 1.47752s0 .0921872.091711.0921872l.6429194.8309471c-1.0103916.9231343-1.8370471 1.7540814-2.0207832 2.4925257v.18469c0 .2771928.0920251 2.6775313 1.4695748 3.4162913.1837361.0921872.4594974.1843743.8266555.1843743h.2754472l-.7346304 4.9856828-.9183665 1.1078242c-.1837362.0921872-.2757613.2768772-.1837362.4615672l1.4695749 4.9856828-.4591833 9.1401027c0 .2768771.0917111.4615671.3671582.6462571.0920251 0 .1837361.0921871.2754471.0921871-.091711.4618829-.183422 1.0156372-.2754471 1.6618943zm-23.51288376-28.5281324c-.45949733-.36938-.64291937-.73876-.64291937-1.2003271 0-.18469.18342204-1.5693914 1.745022-1.5693914.36747223 0 .64291937-.2771929.64291937-.55407 0-.0925028.27544714-2.2159642 2.5716775-1.9387714.27544713 0 .55120835-.0925028.64291937-.36938 0-.0921871.73494447-1.6618942 2.29623036-1.6618942.45918325 0 .82665549.0925028 1.28583873.2771928 0 0 1.3778639.6459414 1.7453361 2.4003385.091711.2768772.2754471.4615672.5508943.55407.0920251 0 1.9287581.1843743 2.0207832 2.0309586 0 .7384442-.1837361 1.3847014-.6429194 1.8465842-.5512083.5537543-1.2858387.7384443-1.4695749.7384443h-9.09321036c-.64260529 0-1.19381364-.18469-1.6529969-.5537543zm18.64497586-41.0848421v-1.47688858h5.4191163v1.47688858h-.9183666-3.398647zm1.1941278-5.81631422c.091711-.18468999.2754471-.55375427.4591832-1.10782426.1837361.27687714.2757612.64625713.1837361 1.01563712-.091711.36937999.1837362.64625713.5508943.73844428.3674723.09218714.6432335-.18469.7349445-.46156714 0 0 .1837361-1.10782427.6429194-2.30815139.3674722 1.01563713.6429193 2.03127425.3674722 2.40065424-.1837361.27687714-.1837361.64594143.091711.83063142.2757612.18469.6429194.18469.8266555-.09218714 0 0 .2754472-.27719285.7349445-.83094713.091711.36937999.091711.92313427 0 1.47720426-.1837361.64625713-.6432335 1.10782427-1.3778639 1.47720426h-2.9391497c-.4591832-.36937999-1.1941277-1.47720426-.2754471-3.13909852zm2.5716775 32.96006082c-.1837361-.2768771-.3674723-.6462571-.4591833-1.1078242-.9186806-5.6319399-.2754471-14.7720426-.2754471-14.8645455 0-.1843743 0-.2768771-.0920251-.4615671l-.091711-.18469h1.2858387c.1837361 0 .3674722-.0921872.4591833-.2768771-.0917111.4615671-.1837362 1.0156371-.0917111 1.5697071l.0917111.7384442c.3674722 1.9387714 1.0103916 5.9088171 1.1941277 8.9554127l.091711 2.6775314c-.7349445 1.1078243-1.4695749 2.2156486-2.1124942 2.9544085zm.0920251-19.3883453v1.6618942h-.3674723-.1837361-1.1941277v-.4615671-1.0156371h1.0103916.2754471c.0920251 0 .2757613-.0921872.4594974-.18469zm-2.2962304-1.5693914h.8263414.8266555.0920251.091711c.0920251 0 .1837362.0921871.1837362.18469 0 .0921871-.0917111.2768771-.2754472.2768771h-1.653311c-.091711 0-.2754471-.0921871-.2754471-.2768771-.0920251-.0925029 0-.18469.1837361-.18469zm0-1.7540814 1.6529969.0921871c.0920251 0 .2757612.0921871.2757612.2768771 0 .0925029-.0920251.18469-.1837361.18469h-.0920251-.8266555-.8263414c-.0920251 0-.2757612-.0921871-.2757612-.2768771s.0920251-.2768771.2757612-.2768771zm.2754471-3.0469114v-.0921872h2.1124943v.2768772.0925028c-.1837361-.0925028-.3674722-.18469-.6429194-.18469zm1.3775498 1.3850171c.0920251 0 .1837361.0921871.1837361.0921871s.0920251 0 .0920251.0921872c0 .0925028-.0920251.2771928-.2757612.2771928l-1.6529969-.0925028c-.0920251 0-.2757612-.0921872-.2757612-.2768772.0920251-.0921871.1837361-.1846899.2757612-.1846899zm.2757612 30.0053366.3674723-1.3847014c1.0100775-.18469 2.0204691-.92345 2.9391497-1.6618942l-1.8370471 4.8009927zm4.5924607-9.8785469c.2754472.6462571.3674723 1.4772042.3674723 1.9387714 0 .18469.091711.3693799.2754471.4615671.1837361.0921871 3.2145969 2.3081514 5.2353801 3.8778585.2754471.2768771 2.2959163 2.1234614 4.5924607 2.3078357.2754472 0 .6429194 0 1.0103916.0925028-3.306936 1.5693914-9.9195518 4.8931799-13.8694072 7.8475885l-.5512084-.73876-.4588691-1.1078243.9183665-1.5693914.091711-.0925028 2.2045193-5.9088171c.091711-.2768771 0-.6462571-.3674722-.8306314h-.3674722c.6429193-.6465728 1.1024167-1.29283 1.2861528-1.47752.1837361-.2768771.1837361-.6462571-.0920251-.8306314-.2754472-.18469-.6429194-.18469-.8266555.0921871-.8266555 1.1078243-3.398333 3.9700457-4.8679079 3.0465957-.8266555-.5537543-.8266555-1.8462685-.5512083-3.0465957.1837361.6462572.5512083 1.1078243 1.1021026 1.5693915.1837361.1846899.5512084.1846899.8269696 0 1.3775498-1.1078243 3.2145969-4.15442 4.0412523-5.6316242zm3.6737802-3.1390986c-.0917111.0921872-.1837361.18469-.2754472.36938 0 0 0 .0921872-.0920251.0921872l-.6429193-.6462572c.091711-.0921871.1837361-.2768771.3674722-.5537542zm.2754471-3.4159756-.5508943-1.2003271 1.0103916.9234499c-.1837361.0921872-.2757612.1843743-.4594973.2768772zm.5512084 2.4003385-.6429194-.7384443c.1837361-.18469.4591832-.3693799.7346304-.6465728l.5512083.92345c-.1837361.18469-.4591832.2768771-.6429193.4615671zm.4591832 6.462887c-.0445992-.0899771-.0888843-.1575389-.1231189-.2251008l-.7952476 1.3329251c-.1837361-.0921871-.2757612-.18469-.3674722-.2768771l.5512083-.8309472c.091711-.0925028.091711-.1846899.091711-.3693799v-.7384443c.0920251 0 .1837362 0 .2754472-.0925029 0 .18469.0920251.4615672.1837361.7384443 0 .0950285.0248122.1657474.0606172.236782l.0314079-.052092c0 .0925029.091711.18469.091711.2771928zm.7349445 1.2000115v1.0156371c-.1837361-.0925029-.3674722-.2768772-.6429194-.4615672l.4591833-.7384442c.091711.0921871.091711.0921871.1837361.1843743zm6.888377-7.7550856-.2754472.2768771c-.0920251-.0921871-.1837361-.18469-.2757612-.18469l.2757612-.6462571c.0917111.18469.1837362.36938.2754472.55407zm.091711-2.1234614c-.091711-.0925029-.183422-.18469-.3671582-.2771929l.9183666-.7384442zm.2757612 16.6183111c-.4591832-.0921871-.7349445-.2768771-.8266555-.36938.4591833-.18469.9183665-.36938 1.2858388-.6462571.3674722.18469.7349444.36938 1.0103916.73876-.2754472.18469-.7349445.36938-1.4695749.2768771zm-.5512083-8.7707227c.0920251-.36938.0920251-.73876.0920251-1.0156371l.4591832.2768771c.091711.8309472.091711 1.6618943.091711 1.9387714v.0694561-.0694561zm-1.2855247 2.4003386c.091711-.0921872.2754471-.18469.3674722-.36938.091711-.0921872.1834221-.2768772.2751331-.3690643l.4591832.9231342c.3674723 1.3847015.7349445 2.9544086.8266555 3.6928528-.7346304-.2768771-1.4692608-.3693799-2.0204691-.3693799zm-1.2861528.6462571v2.6775314c-1.3775498-.36938-2.5716775-1.2925143-2.9391498-1.6618943v-1.10814c.4591833.18469 1.0103916.2771929 1.653311.2771929.4591833 0 .9186806-.0925029 1.2858388-.18469zm-1.2858388-1.0156371c-.9186806 0-1.5615999-.2768772-2.0204691-.8309472-.8266555-.9231342-.8266555-2.4925256-.8266555-3.1390985l2.7554136-1.9387714c1.1938136 1.0156371 2.2962304 1.6618943 2.7554136 2.0312743.1837361.7384442.0920251 2.2156485-.6429194 3.0465956-.4591832.55407-1.1021026.8309472-2.0207832.8309472zm-4.6841717 15.6029897-5.8782995 7.3860213.5512084-3.6006657c.7346304-.55407 3.3980189-2.4003385 5.3270911-3.7853556zm-6.2457717 2.8619057c-.2754471.18469-.7346304.3693799-1.0100775.2771928-.4594974-.2771928-.7349445-1.3850171-.8266555-2.2159642 1.0100775-2.2156486 8.7254241-6.5547585 15.1549319-9.693857.1837361.1843743.3674722.4615671.7346304.6462571-2.1124943 2.0309586-5.5108273 5.1700571-6.6129299 5.8163142-1.5615999 1.0156371-7.2561633 4.9853671-7.4398994 5.1700571zm16.3490596-4.15442c.091711.36938.1837361.73876.1837361 1.2925143.0917111.8309471-1.0103916 2.4006542-2.1128083 3.6928528l.3674723-10.7094941c.2754471-.2771929.5512083-.55407.7349444-.6462572h.3674723c.4591832 0 .8266555-.0921871 1.1938136-.2768771l.0920251 3.60035c-1.2858387 1.1081399-1.1024167 2.0312742-.8266555 3.0469113zm-3.5820691-22.8965082.1837361-1.2003271c.3674723.0925029.6429194.2771929.9186806.4615672l-.4594973.9234499c-.1837361-.0925028-.2754471-.0925028-.2754471-.0925028-.0917111 0-.1837362-.0921872-.3674723-.0921872zm-2.1124942-2.8622213.5508943-1.5693914.3674722 1.6618942h-.6429194-.091711c-.0920251-.0925028-.0920251-.0925028-.1837361-.0925028zm.1837361 1.2925142h.0386317-.0386317c.3671582 0 .6429194 0 .9183665.0925029l-.1837361 1.2000114c-.1837361 0-.3674722-.0921871-.5508943-.0921871h-.2757612l-.1837361-1.2003272zm-2.7554136.55407c.3674722-.18469.7349445-.2768771 1.1938136-.36938l.1837362 1.1078243c-.2757613.0925029-.5508943.18469-.8263415.2771928zm2.7554136 1.8465843c.6429194.0921871 1.1938136.18469 1.8370471.36938 0 0 1.836733.6459414 2.4796524 2.9544085l-.4591833-.36938-.0920251-.0925029s-1.5609718-.8309471-3.1225717-2.3081513c-.1837361-.1843743-.5512084-.1843743-.7349445-.0921872l-3.398333 2.4003385c-.1837361.0925029-.2754471.2771929-.2754471.4618829v.7384443c-.6429194.18469-.9186806.0921871-1.1021027.0921871.0917111-.6462571.3671582-1.2925143.8266555-2.0309585.9183666-1.3850171 2.4796524-2.2159643 4.0412524-2.1234614zm-5.9703246 5.0778699.5512084.2768771v.55407l-.4591833.6462571c-.4594973-.2771928-.8266555-.5540699-1.0100775-.7387599-.0920251-.7384443-.2757612-2.4925257-1.2861528-3.2312857l-1.3775498-1.1078243c-.0920251-.55407-.0920251-1.1078242-.1837361-1.6618942l2.8474387 1.7540814 1.1017886 1.1078242c-.1837362.4618829-.3674723.9231343-.5512084 1.3850172v.0921871c0 .2771929.0920251.6462571.3674722.92345zm-4.6841717-19.5730354c.0920251.2771929.1837361.8309471.1837361 1.6618943 0 .55407-.091711 1.2003271-.2754471 1.8465842-.0920251.3690643-.3674722.8309472-.5512084 1.2925143v-1.0156371-1.9387714-2.3081514c.0917111-.0921872.3674723.0925028.6429194.4615671zm9.5520796.2771929c-2.7554136 0-5.5108272.3690642-8.0825047 1.0153214 0-1.0153214-.1837361-1.7540814-.2754472-1.7540814 0-.0921872-.091711-.18469-.091711-.18469-.7349445-.9231343-1.2861528-1.2925143-1.7453361-1.2925143v-.6462571-.2768772h.9183665c.3674723 0 .6432335-.2771928.6432335-.6462571v-2.67753137c0-.27687714-.1837361-.46156713-.3674722-.55406999.2754471-.36906428.5512083-.73844427.6429193-1.10782426.5508943-1.66189426-.2754471-3.23128566-.3674722-3.23128566-.091711-.18469-.2754471-.27719285-.4591833-.27719285-.1837361 0-.3674722 0-.5512083.18468999l-.2754471.27719285c-.2757613-1.20032712-.9183666-2.49284138-1.1021027-2.86222137-.1837361-.36938-.4591832-.46156714-.6429193-.46156714-.1837362 0-.4594974.18469-.5512084.36937999-.2754471.55375428-.5512084 1.10782427-.7349445 1.66189426-.3671581-.55406999-.8263414-.92344998-.8263414-.92344998-.1837361-.18469-.4594973-.18469-.7349445-.09218715-.1837361.18469-.3674722.46156714-.2754471.64625714.091711.46156713-.1837361 1.3847014-.4594973 1.93877139-.9183665 1.47720426-.6426053 2.86222138-.1834221 3.78535565h-.4591832c-.3674723 0-.6429194.27687714-.6429194.64625713v2.67753137c0 .3690643.2754471.6462571.6429194.6462571h1.1021026v.55407c-.2757612.2765615-.4594973.6459415-.4594973 1.0153214 0 .36938.0920251.6462572.2757612.92345-.1837361.2768772-.2757612.5537543-.2757612.8306314 0 .36938.0920251.6462572.2757612.92345-.1837361.2768772-.2757612.5537543-.2757612.9231343 0 .55407.2757612 1.0156371.7349444 1.2925143-11.1133654 5.2625599-18.92073709 16.526124-19.47163136 29.5440852-1.28615283.4615671-1.8370471 1.7540814-1.8370471 2.4925256-.09171102.8309472.36747224 1.66221 1.10210263 2.2159643.27544714.18469.55120835.36938.91868059.4615671 1.46926078 13.3870255 10.65418224 24.4662153 23.05370054 28.7131381.3674722.0921871.8266555.2768771 1.1941277.36938 1.1021026.3690643 2.2042052.5537543 3.306622.8306314.3674722.0925029.8263414.18469 1.1938136.18469 1.653311.2771929 3.398333.36938 5.143355.36938h.7349445 1.0103916c.3674722 0 .8266555-.0921871 1.1941277-.0921871.8266555-.0925029 1.6529969-.18469 2.3876273-.2771929.4594973-.0921871.8269696-.18469 1.2861528-.18469h.1837361c.4591833-.0921871.8266555-.18469 1.2858388-.2768771.3674722-.0921872.8266555-.18469 1.1941277-.3690643.3671582-.0925029.8263414-.2771929 1.1938137-.36938.4591832-.18469.8266555-.2771929 1.2858387-.4618828.3674722-.1843743.8266555-.2768772 1.1941277-.4615672 12.3995183-5.170057 21.1252565-17.4492583 21.1252565-31.6672309 0-18.9267782-15.246957-34.3447622-34.0759831-34.3447622z" fill="#000" mask="url(#a)"/><path d="m33.196 35.4385c0-.146-.146-.2925-.146-.4385l-.05.0825c.0545.1065.125.2135.196.356" fill="#fff" mask="url(#a)"/><path d="m58.2449682 34.3962828c-.0907423.1805682 0 .3611364.0904327.5417046.0907423.1805682.2716076.2706979.4527826.2706979.8151325.0901298 1.1774825.5417046 1.1774825 1.3541071-.0904327.0901298-.0904327.0901298-.0904327.1805682-.2719173 1.0831005-1.4490901 1.1732303-1.5398324 1.1732303h-6.6114931c-.1811749 0-1.2676054-.0901298-1.2676054-1.1732303-.0907423-1.0834091.7240805-1.2639773.8148228-1.3541071.2716077-.0904384.5432153-.2706979.5432153-.6318343 0-.6318343.4530923-.9929707.4530923-.9929707.2716076-.270698.7243902-.4512662 1.0867401-.4512662.36235 0 .6339576.0901298.6339576.0901298.2719173.0904384.6339576 0 .8151326-.270698.2719173-.5417045.7246999-.8124025 1.3583477-.9025322.543525-.0904385 1.0870499.0901297 1.5398325.3608277.9055652.632143.5435249 1.8053732.5435249 1.8053732m-2.4453976-3.3397398c-.8151326.0904384-1.5395228.5417045-1.9926151 1.0831004-.1808652 0-.3620402-.0901297-.5432152-.0901297-.7246999 0-1.4493998.2706979-1.9926151.8124025 0 0-.6336478.5413959-.8148228 1.4442368-.7246999.270698-1.5398325.9926621-1.4493998 2.4372076.0907423 1.8050646 1.7210074 2.2566394 2.5358303 2.2566394h6.7022353c.7243903 0 2.2642227-.4515748 2.626263-2.0763799 0-.1802595.0904326-.2706979.0904326-.4512661.181175-.8124025-.2712979-1.895503-1.5392131-2.3467691.0904327-.8124026-.1811749-1.8053733-1.1774825-2.5273374-.7246999-.4512661-1.5398324-.7222727-2.4453976-.5417045" fill="#000" mask="url(#a)"/></g></svg>