<?xml version="1.0" encoding="UTF-8"?>
<svg width="97px" height="98px" viewBox="0 0 97 98" version="1.1" xmlns="http://www.w3.org/2000/svg" xmlns:xlink="http://www.w3.org/1999/xlink">
    <!-- Generator: Sketch 52 (66869) - http://www.bohemiancoding.com/sketch -->
    <title>Group 11</title>
    <desc>Created with Sketch.</desc>
    <defs>
        <polygon id="path-1" points="0 0.244402439 86.7333116 0.244402439 86.7333116 86.4471545 0 86.4471545"></polygon>
        <polygon id="path-3" points="0.339711612 0.00318699187 26.1639463 0.00318699187 26.1639463 26.3827069 0.339711612 26.3827069"></polygon>
    </defs>
    <g id="Future-Project-Desktop" stroke="none" stroke-width="1" fill="none" fill-rule="evenodd">
        <g id="Future-Camp-update-video-thumb" transform="translate(-1046.000000, -5224.000000)">
            <g id="Group-2" transform="translate(-291.000000, 5056.000000)">
                <g id="Group" transform="translate(456.000000, 0.000000)">
                    <g id="Group-11" transform="translate(881.000000, 168.000000)">
                        <g id="Group-3" transform="translate(0.000000, 11.549659)">
                            <mask id="mask-2" fill="white">
                                <use xlink:href="#path-1"></use>
                            </mask>
                            <g id="Clip-2"></g>
                            <path d="M39.0558074,86.0880203 L0.361224793,47.6301911 C-0.120568595,47.1513455 -0.120568595,46.3749146 0.361224793,45.8956707 L45.932386,0.603735772 C46.1636628,0.37347561 46.4779107,0.244402439 46.8049851,0.244402439 L85.4991669,0.244402439 C86.1809727,0.244402439 86.7333116,0.793760163 86.7333116,1.47099593 L86.7333116,39.9284268 C86.7333116,40.2538984 86.6034438,40.5658252 86.3717661,40.795687 L40.8010058,86.0880203 C40.3188116,86.5668659 39.5376008,86.5668659 39.0558074,86.0880203" id="Fill-1" fill="#5CD8FF" mask="url(#mask-2)"></path>
                        </g>
                        <path d="M76.1759037,28.3974122 C74.4050525,30.1574285 71.5339326,30.1574285 69.7630814,28.3974122 C67.9922302,26.6373959 67.9922302,23.7838431 69.7630814,22.0238268 C71.5339326,20.2638106 74.4050525,20.2638106 76.1759037,22.0238268 C77.946755,23.7838431 77.946755,26.6373959 76.1759037,28.3974122" id="Fill-4" fill="#FFFFFF"></path>
                        <g id="Group-8" transform="translate(70.545455, 0.395187)">
                            <mask id="mask-4" fill="white">
                                <use xlink:href="#path-3"></use>
                            </mask>
                            <g id="Clip-7"></g>
                            <path d="M24.2653517,4.14161545 C22.6007194,1.5529813 19.5644591,0.00290813008 16.3758847,0.00290813008 C15.8283558,0.00290813008 15.2760169,0.0487211382 14.7256822,0.142737398 C11.6697814,0.664607317 8.7036657,2.48676992 6.14759545,5.41282683 C4.57435165,7.21307886 3.28168636,9.27227398 2.30567397,11.5330463 C0.427000413,15.8824935 -0.11852438,20.5924691 0.726417769,25.1538512 C0.874723554,25.9541846 1.65072355,26.5103146 2.48364091,26.357339 C2.88045909,26.2844366 3.22476901,26.0629407 3.45364091,25.733087 C3.68211198,25.4032333 3.76788884,25.004461 3.69493843,24.6104691 C2.88045909,20.2156073 3.6460376,15.3422984 5.79566983,11.2398431 C6.53359132,9.83198943 7.41861612,8.53329024 8.4262938,7.37959919 C9.88690537,5.70802195 12.2537855,3.60859106 15.236736,3.09907073 C17.7711616,2.66763171 20.4382607,3.76037154 21.7221079,5.75702195 C24.31305,9.7865748 22.6864963,13.7316724 22.1517938,15.0279813 C21.3160707,17.0553065 19.4750748,19.2551276 16.5249921,21.7493472 L16.5249921,25.6167618 C19.7255913,23.1241358 23.4236161,19.8558756 24.9447525,16.165339 C26.7729219,11.7310382 26.5444508,7.68555041 24.2653517,4.14161545" id="Fill-6" fill="#231F20" mask="url(#mask-4)"></path>
                        </g>
                        <path d="M46.7429372,50.4935837 L45.9545116,48.9259821 C45.4530777,47.9292504 43.9271314,44.8964293 45.9829702,42.8527707 C47.542586,41.3030959 49.9752017,41.1560959 52.489586,42.4595756 L54.0251521,43.2563236 L46.7429372,50.4935837 Z M46.609462,64.0976569 C45.5661107,65.1338276 44.4013091,65.6533073 43.1523339,65.6533073 C42.038838,65.6533073 40.858805,65.2405919 39.6398917,64.4143642 L38.3724785,63.5558683 L46.1004124,55.8752179 L46.888838,57.4424211 C47.9999289,59.6502098 48.7350446,61.9850797 46.609462,64.0976569 Z M58.7729413,43.280226 L60.7927058,41.2728195 C61.4616851,40.6079333 61.4612843,39.5661854 60.792305,38.9012992 C60.1237264,38.236413 59.0755653,38.236413 58.406586,38.9012992 L56.404057,40.8911772 L55.5330612,40.2968033 C51.2362017,37.3635756 46.6627719,37.4344862 43.5968504,40.4812504 C40.750181,43.3105024 40.8018876,46.8030472 43.7700074,52.1591854 L44.2301562,52.9905919 L35.9655157,61.2050634 L35.1682719,59.6669415 C34.2331438,57.8631041 33.9405405,56.0461203 34.2984785,54.2673805 C34.5141231,53.1965512 34.2175116,52.7368276 33.9349289,52.455974 C33.2992182,51.8241528 32.184119,51.8241528 31.5488091,52.455974 C31.320338,52.6826488 30.5968463,53.6801772 30.8706107,56.9890715 C30.9840446,58.0523317 31.4225488,60.2091285 33.0795653,62.6157057 L33.6751934,63.4813724 L31.6325818,65.5114862 C30.9636025,66.1763724 30.9636025,67.2181203 31.6325818,67.8826081 C32.3011603,68.5478927 33.3497223,68.5478927 34.0187017,67.8826081 L36.0184248,65.8951203 L36.9022471,66.5667789 C41.2856851,69.8979821 45.5801397,69.863722 48.9955818,66.4695756 C52.2506934,63.2339821 52.2623174,59.9258846 49.0388711,54.2633967 L48.5630901,53.4276081 L56.4469455,45.5915919 L57.2726479,47.0277301 C58.261086,48.7471122 58.6082017,50.630226 58.3039744,52.6252829 C58.1360281,53.7279821 58.1576727,53.9980797 58.782962,54.6191447 C58.9962017,54.831478 59.392619,54.9740959 59.7926438,54.9832585 C60.2684248,54.9920228 60.7161479,54.8203236 61.0436231,54.494852 C61.3113752,54.2283398 61.4091769,54.0040553 61.4208008,53.9586407 L61.4436479,53.8789659 C61.5121893,53.6738033 62.9856273,49.0885187 59.4050446,44.1522667 L58.7729413,43.280226 Z" id="Fill-9" fill="#000000"></path>
                    </g>
                </g>
            </g>
        </g>
    </g>
</svg>