<svg height="25" viewBox="0 0 33 25" width="33" xmlns="http://www.w3.org/2000/svg"><g fill="#4bccef"><path d="m28.9714294 0h-24.93605c-2.22594532 0-4.0353794 1.80125068-4.0353794 4.01712887v16.96574223c0 2.2158782 1.80943408 4.0171289 4.0353794 4.0171289h24.9292219c2.2259454 0 4.0353794-1.8012507 4.0353794-4.0171289v-16.95894505c.0068281-2.2158782-1.802606-4.02392605-4.0285513-4.02392605zm2.191805 20.9828711c0 1.2030995-.9832396 2.1818924-2.191805 2.1818924h-24.93605c-1.20856541 0-2.19180506-.9787929-2.19180506-2.1818924v-16.95894505c0-1.20309951.98323965-2.18189234 2.19180506-2.18189234h24.9292219c1.2085654 0 2.1918051.97879283 2.1918051 2.18189234v16.95894505z"/><path d="m21.4093857 12.7847847 8.2626342-7.18244713c.3844712-.33879468.4194231-.91474564.0699039-1.29419567-.3495192-.37267415-.9437019-.40655362-1.3351634-.06775894l-11.3943264 9.91313224-2.2229422-1.9243537c-.0069904-.0067759-.0139808-.0135518-.0139808-.0203277-.0489327-.0474313-.0978654-.0880866-.1537884-.128742l-9.04555731-7.84648473c-.39146152-.33879468-.98564418-.30491521-1.3351634.07453483-.34951921.37945003-.31456729.95540099.07689423 1.29419567l8.36049958 7.24343023-8.32554766 7.5551213c-.37748075.3455706-.3984519.9215215-.04194231 1.2941957.18874038.189725.44039421.2913634.69204805.2913634.23068268 0 .46136536-.0813107.64311535-.2439322l8.45137457-7.6635356 2.2928461 1.9853368c.18175.1558456.4054423.2303804.6291346.2303804s.454375-.0813107.6291346-.2371563l2.3557595-2.0463198 8.4024419 7.7380704c.18175.1693974.419423.2507081.6501057.2507081.2516539 0 .4963173-.0948625.6850577-.2845875.3565096-.3658983.3425288-.9486251-.0349519-1.2941957z"/></g></svg>