<svg height="91" viewBox="0 0 75 91" width="75" xmlns="http://www.w3.org/2000/svg" xmlns:xlink="http://www.w3.org/1999/xlink"><mask id="a" fill="#fff"><path d="m.00006229.33664822h20.88256371v78.66335178h-20.88256371z" fill="none"/></mask><g fill="none" fill-rule="evenodd" transform=""><path d="m36.448593 12-23.448593 13.4276604 5.4920239 29.5723396 21.5079761-9.7549547z" fill="#fff"/><path d="m40 15.4580532 3.3503432 31.9414026-2.3979144 4.6005442 34.0475712-12.8938768-20.7391093-10.592856 11.7685848-28.5132672z" fill="#fff"/><path d="m20.8594909 77.4094542-12.40145454-65.8114717c1.02021819-.4322641 1.90145454-1.1272405 2.55054544-2.04133014.9175091-1.29120283 1.2622909-2.85368868.9713455-4.3979151-.2878909-1.54124528-1.1786728-2.88312735-2.50778185-3.77709434-1.32910909-.89284905-2.93350909-1.22934434-4.5172909-.94837264-3.27676364.58206604-5.45389091 3.65076887-4.85596364 6.83946227.28941818 1.54422641 1.1802 2.88610845 2.50778182 3.77858495.93049091.626783 2.00950909.9807924 3.12823636 1.0329622l12.40336361 65.8114717c.1168364.6271557.6784909 1.0918396 1.3321637 1.1045094h.0267272c.0820909 0 .168-.0078254.2516182-.0234764.3638727-.063349.6788727-.2627122.8892546-.5589622.2103818-.29625.2878909-.6547312.2214545-1.008368m-14.23227272-68.06148109c-1.77507273.31190095-3.48256363-.83546226-3.8052-2.56041981-.15654545-.83508962.02978182-1.67986792.52843637-2.3808066.49674545-.70131132 1.24358181-1.17083962 2.10114545-1.32362264.19625455-.03391038.39403636-.05254246.59181818-.05254246.02061818 0 .04123637 0 .06147273.00149057 1.54941818.02943868 2.87356364 1.12761321 3.15343636 2.6114717.15692728.83546226-.02978182 1.68173113-.52690909 2.38266981-.49674545.69944811-1.24510909 1.16897641-2.1042 1.32175943" fill="#212d3c" mask="url(#a)" transform="translate(0 12)"/></g></svg>