<svg height="77" viewBox="0 0 78 77" width="78" xmlns="http://www.w3.org/2000/svg"><g fill="none" fill-rule="evenodd" transform=""><g fill="#5cd8ff"><path d="m31.283075 29.7388204-3.18825-.6633463c-1.14575-.2382265-2.33925-.0034887-3.3085.6506376l-3.0995 2.0924563c-1.14975.7762297-2.01175 1.9075566-2.45275 3.2200453-.52925 1.5756343-.414 3.2957993.32125 4.7869579.847 1.7179223 2.33575 3.0366408 4.14675 3.6733236l1.871.6576149c.89975.3164725 1.4965 1.1697023 1.48325 2.1206149l-.0065.4433107c-.01025.7358608.1375 1.4649935.4335 2.139055l.4435 1.0092233c.26725.6082751.347 1.2820874.22925 1.9357152l-.30975 1.7204142c-.1365.7585373-.021 1.5407476.329 2.2282654l1.749 3.4343495c.3245.6371813.942 1.0755081 1.65225 1.1721942 1.85075.2526796 3.7115-.3879903 5.01125-1.7248997l1.53575-1.579123c.21875-.2250194.48175-.4024433.7725-.5210582l.03025-.0124595c.8765-.3583366 1.5545-1.0770033 1.85925-1.9708512.192-.5634207.226-1.1682071.09825-1.7493204-.11975-.5452297.02-1.1148802.37825-1.5437378h.00025c.96475-1.1542525 2.06125-2.1928803 3.267-3.0949515l.073-.054822c.66225-.4953916 1.18825-1.1490194 1.52975-1.9003301l.60175-1.3237023c.18375-.4036893-.18025-.8407702-.61225-.7351132l-2.02325.4941456c-.34275.0837282-.6985-.0794919-.85725-.3937217-1.2635-2.4978899-2.336-5.087233-3.208-7.7461003l-.1945-.5928252c-.38675-1.1786732-1.33625-2.0887185-2.533-2.4278674l-1.65675-.4692265c-.2575-.0730129-.5345-.0216796-.7485.1387994l-.4355.3261909c-.21475.1607281-.51325.1490162-.71475-.0279094l-1.9115-1.6775534c-.185-.1624725-.24325-.4253689-.1445-.6503883l.14-.3187152c.19725-.4490421-.06975-.9651166-.551-1.0652913"/><path d="m45.368525 54.2367816c.1295-.0824822.302-.0264143.35825.1158737.15775.4002007.167.9249968-.0635 1.2424661l-2.05175 2.8260744c-.14375.1981068-.3575.3339159-.59825.3805146-.24575.0473462-.5005-.0022428-.71025-.1385502l-.0225-.0144531c-.25-.1624725-.398-.4423139-.39125-.7395987v-.0062298c.0055-.2384757.10975-.4637443.2885-.6224789l.12275-.1091457c.1605-.1427864.244-.3526051.22475-.5661618l-.007-.0789935c-.02475-.2768511.10775-.544233.34325-.6927508z"/><path d="m65.03845 38.5869178.2135.3324207c.206.5345146.599.9805664 1.12725 1.2053366.209.0892103.3815.1385501.4275.08622.40125-.4550226.223-1.5641715.223-1.5641715s-.26975-6.1644854-1.45475-8.9723689c-1.185-2.8081327-5.44975-12.0708091-15.8995-16.44411l-1.32075.9282362c-.51475.3618252-.7935.9725922-.729 1.5970647l.04625.4470486c.04675.4522815-.06275.9068058-.31025 1.2885663l-.01675.0259159c-.6145.9479223-1.52675 1.6621035-2.5935 2.0309061-.56075.1936214-1.1505.3982071-1.565.5422395-.31825.1106408-.66925-.0284078-.825-.3264401l-.1255-.2399709c-.06475-.1235987.04925-.2643916.18375-.2277605l.00875.0022427c.2005.0545728.412-.0134563.5415-.1734369l.02425-.0299029c.2365-.2918026.13625-.7271392-.20425-.8871197l-1.03375-.4861716c-.85675-.4026925-1.8565-.3643171-2.67975.1026667l-2.2455 1.2743625c-.044.0251682-.0945.0361326-.145.0318964-.5095-.0418641-.997.2157994-1.24825.6596084l-.19075.3371554c-.0425.0755048-.06325.1612265-.0595.2476957.0105.2536764.21975.4540259.4745.4542751.08075 0 .16425-.0002492.24275-.0004984.2085-.0004983.3735.1744337.3605.3817606l-.0155.2479449c-.0185.2982816.16475.5723916.448.6700745l.01125.0037378c.25175.0867185.528.0236732.715-.1619741.2135-.2120615.4975-.4936472.70725-.7017216.16575-.1639677.18625-.4236246.0485-.6117638l-.0055-.0074757c-.11475-.1567411-.08225-.3735372.07225-.4881651.39975-.2977831 1.12475-.8445081 1.473-1.1074045.11775-.0889612.27925-.0907055.3995-.0054822l.008.0057314c.20425.1450291.1965.4485437-.014.5818608-.128.0807379-.2645.1674563-.38175.2417152-.19475.1238479-.3385.3124855-.406.5327703l-.05225.1709449c-.0815.2671327.0785.5477217.3505.6147541.21625.0533269.24325.2718673.04675.4440582 0 0-1.41975 1.1789224-1.5145 1.2295081-.115.061301-.33775.1841521-.9285.1532525-.495-.0261651-.97725-.1692007-1.412-.4066796-.086-.0468479-.1695-.2020939-.23575-.360081-.10875-.2589093-.444-.3060064-.664-.1976084-.03325.0164466-.96525.4914046-1.238.6294563l-.485.2452039c-.30725.155246-1.18325.3271877-1.8255.3994531-.2465.0276602-.4955.0206828-.74025-.0189385l-.155-.0249191c-.0945-.0366311-.2015-.0179418-.278.0480938-.129.1111392-.1255.3114887.007.4181424l.04525.0363819c.15775.1270874.2.3488673.1.5247961l-.46725.8213334c-.127.223275-.40675.3089967-.6375.1953657l-.8825-.4338415c-.443-.218042-.97625.0152007-1.11525.4879159l-.05675.1928738c-.0665.2260162-.1655.4413171-.294.6391747l-.6845 1.0540777c-.061.0936958-.0235.2195372.07925.26489l1.37175.6060323c.43625.1928738.93925.1629709 1.3495-.0799903l2.23575-1.3237022c.1305-.0772492.492-.1350615.79975-.1716926.285-.0343883.56.1166214.68175.37578.13225.2810873.2895.6057831.319.6735631l.70275 1.6127637c.10575.1649644.1155.3735372.0255.5474725l-.1365.2641424c-.052.1009223-.0225.2247702.06975.291055 0 0 .216.062547.29875-.0102168.137-.12011.347-.3035146.50475-.441068.13375-.1166213.2025-.2905566.18475-.4669838 0 0 .0415-.0617993.0705-.0363819l.0335.0289062c.0705.061301.24575-.0124596.24575-.0124596.0665-.0667831.071-.1729385.0105-.2449547-.2175-.2586601-1.153-2.3613333-1.153-2.3613333-.032-.1427864.055-.2878155.198-.3222039.151-.0363818.3325-.0505857.42425-.0373786 0 0 .2415.0545728.31925.2235243 0 0 1.22925 2.3354174 1.32975 2.7326278.051.2028414.28425 1.3800194.50975 1.6464045.0495.0585599.099.1066537.1445.1335664.1255.0343883.2595-.0044855.34675-.1006732.08225-.0907055.1755-.1961132.20775-.2432103.15675-.2290065.2075-.5138317.1395-.7827088l-.0665-.2633948c-.04175-.1654628.02125-.3398964.15975-.4403204.1555-.1133819.36825-.1066537.5165.0161974.04675.0388738.09425.078246.1365.1133819.093.0772492.1475.1901327.15075.3104919l.0315 1.1921295c.0025.104411.07275.1951165.1735.2240226l2.739.7901845c.253.0730129.387.3478705.28825.5910809l-.443 1.0927023c-.049.1208576-.15925.2065793-.289.2242718-.26575.0363819-.423.3154757-.3155.5604304.42075.9603819 1.317 3.0047444 1.317 3.0047444l2.5915 5.4049514c.08125.2235243.324.3446311.5525.2751068l2.269-.6900097c.71625-.2177929 1.3705-.6022945 1.9085-1.1213592l1.65025-1.5923301c.1305-.1258414.21475-.2918026.23925-.4712201l.04175-.3030162c.0575-.4181424-.21775-.8101197-.6315-.8995792l-1.848-.3997023c-.436-.0941942-.81075-.3695502-1.03025-.7565437l-.69175-1.2195405c-.114-.201097-.015-.455521.205-.5277864l.009-.0029903c.17575-.0575631.36475.0186894.4495.1801651.09975.1901327.23675.4497896.36375.6907573.21975.4158997.61675.7104433 1.07975.8004013l1.64.3194628c.75275.1467734 1.5285.1295792 2.27425-.0500874l.26525-.0637929c.3575-.0862201.73.0657864.92425.3770259l.4365.699479c.31925.5110906.962.7176699 1.52075.4886634.07125-.0291554.15225.0082233.176.0812362l1.5635 4.7941845c.0935.287068.45075.3852492.67875.1868932l.01475-.0129579c.4265-.3712945.6645-.908301.652-1.4692298-.006-.2631456-.0125-.5554466-.0185-.8335437-.017-.7612783.17775-1.5118414.5625-2.1697055l1.30525-2.2307573c.24-.4101683.831-.4191391 1.0835-.0166958l.425.6770518c.065.1036634.16325.1824078.27875.2230259l.00925.0032395"/><path d="m30.5874 21.8149472 1.17275-.895343c.116-.0882136.158-.9616278.158-.9616278.0495-.2499385.20325-.4669838.42275-.5970615l.38875-.2305016c.101-.0598059.22825-.0530777.322.0174433.1175.0882136.15.2501877.0755.3765275l-.28325.480191c-.0795.1348123-.1135.2915534-.097.4470485l.0955.9080518c.0315.301521-.11375.5945696-.37325.7525566-.67525.4251198-1.705.2444563-1.925-.0620485-.0535-.0742589-.02975-.1794175.04325-.2352363"/><path d="m59.86365 44.1646333-.326.4380777c-.13625.1831553-.13775.4330939-.00375.6179935l.049.06778c.123.169699.33575.2501877.54075.2043365l.214-.0480938c.2135-.0480939.375-.2230259.40475-.4393236l.063-.4582622c.0275-.2010971-.06425-.3999514-.23525-.510343-.2325-.1497638-.54175-.093945-.7065.1278349"/><path d="m45.601425 17.2761087c-.01575-.1609773-.1105-.3030161-.2635-.385-.1445-.0774983-.22675-.2384757-.20475-.4004498.0195-.1397961.113-.2594078.24425-.3122362l.127-.050835c.234-.093945.35775-.3550971.282-.5945696-.043-.135809-.143-.2452039-.2745-.3002751-.1315-.0553203-.28-.0500873-.4075.0139547l-.42225.2128091c-.3905.1968608-.659.5723916-.71825 1.0044887-.073.5310259.179 1.0503398.642 1.3227055.0795.0468479.16625.0762524.2545.0882136.18525.0254174.37775-.0251683.52775-.1472719l.03725-.0304013c.12575-.1024175.1915-.2599061.176-.4211327"/><path d="m28.40025 15.1232984 7.6285-2.9813204c.21575-.0842265.454-.0917023.6745-.020932l1.15775.3707961c.90675.2905566.93725 1.5584401.0455 1.892356l-3.54075 1.3244498c-.18275.0685275-.38125.082233-.57175.0398705l-1.4015-.3107411c-.93225-.2070776-1.90075-.1871423-2.82375.0580615l-.96175.2551716c-.1575.041864-.322-.0363819-.3885-.1846505-.0775-.172191.00525-.3742848.18175-.4430615"/><path d="m29.592275 21.014222 1.0625-.5270388c.13075-.0647897.221-.1901327.24075-.3346635l.0075-.0523301c.02375-.1746828-.05875-.3466246-.21025-.4370809-.11675-.0700226-.25925-.0824822-.3865-.0336407l-.52175.2005987c-.0595.0229255-.1135.0583106-.158.1039126l-.6215.6374304c-.08525.087466-.07875.2287573.0145.3077508l.0895.0760033c.13475.1143786.325.1375534.48325.0590582"/></g><path d="m67.0692 38.4532019c0 15.4318965-12.5505 27.94178-28.0325 27.94178s-28.0325-12.5098835-28.0325-27.94178c0-15.4318964 12.5505-27.9417799 28.0325-27.9417799s28.0325 12.5098835 28.0325 27.9417799z" stroke="#fff" stroke-linecap="round" stroke-linejoin="round" stroke-width="1.75"/><g fill="#fff" transform="translate(0 .039372)"><path d="m72.24535 31.7917799c-.228 0-.4335-.1574886-.48475-.3884886-.0595-.2673819.10975-.5317735.37775-.5910809l5.125-1.1305793c.268-.0585599.5335.109644.59275.3765275.05925.2673819-.11.5317734-.378.5910809l-5.125 1.1308285c-.036.0077249-.07225.0117119-.10775.0117119"/><path d="m.4967 47.6219583c-.228 0-.4335-.1574887-.48475-.3884887-.0595-.2671327.10975-.5317735.37775-.5910809l6.20375-1.3685567c.26775-.058809.5335.1096441.5925.3765275.0595.2673819-.10975.5317735-.37775.591081l-6.2035 1.3688058c-.03625.0077249-.07225.011712-.108.011712"/><path d="m57.467275 10.821889c-.0915 0-.184-.0251683-.26675-.0777476-.2315-.1470226-.2995-.4535275-.152-.6842783l2.9235-4.57090938c.14775-.231.45525-.29853074.6865-.15150809.2315.14702265.2995.45352751.152.68402913l-2.92375 4.57115854c-.09475.1482686-.25525.2292557-.4195.2292557"/><path d="m18.4552 71.8160061c-.0915 0-.184-.0251682-.26675-.0777475-.2315-.1470227-.2995-.4532783-.152-.6842783l2.92375-4.5709094c.1475-.2307508.45525-.2985308.68625-.1515081.2315.1472718.2995.4535275.15225.6842783l-2.92375 4.5711586c-.095.1480194-.2555.2290064-.41975.2290064"/><path d="m48.072375 76.7507841c-.228 0-.4335-.1572394-.48475-.3887378l-1.1345-5.1081651c-.05925-.2671327.10975-.5317734.378-.5908317.26775-.058809.5335.109644.59275.3767767l1.13425 5.1084143c.05925.2668834-.10975.5315242-.378.5905825-.036.0079741-.07225.0119611-.10775.0119611"/><path d="m32.42955 6.30943981c-.228 0-.4335-.15723949-.48475-.38848868l-1.13475-5.10841424c-.05925-.26713268.11-.53177346.378-.59083171.2685-.05880906.5335.10964401.59275.3767767l1.1345 5.10841424c.0595.26713268-.10975.53152427-.37775.59083171-.03625.00797411-.07225.01171198-.108.01171198"/><path d="m72.561875 59.826234c-.0915 0-.184-.0251683-.26675-.0777476l-4.586-2.914288c-.2315-.1470227-.2995-.4532783-.152-.6840291.1475-.2307509.45525-.2985308.6865-.1515081l4.58575 2.914288c.23175.1470226.29975.4532783.152.6842783-.09475.1480194-.2555.2290065-.4195.2290065"/><path d="m11.369625 20.9405362c-.0915 0-.184-.0251682-.26675-.0777475l-4.586-2.9140389c-.2315-.1472718-.2995-.4535275-.152-.6842783s.45525-.2985307.6865-.1515081l4.586 2.9140389c.2315.1472718.2995.4535275.152.6845275-.09475.1480194-.2555.2290064-.41975.2290064"/></g></g></svg>