<?xml version="1.0" encoding="UTF-8"?>
<svg width="78px" height="77px" viewBox="0 0 78 77" version="1.1" xmlns="http://www.w3.org/2000/svg" xmlns:xlink="http://www.w3.org/1999/xlink">
    <!-- Generator: sketchtool 50.2 (55047) - http://www.bohemiancoding.com/sketch -->
    <title>10E03DDE-7DF1-401F-BFAD-AEF221BEF876</title>
    <desc>Created with sketchtool.</desc>
    <defs></defs>
    <g id="Future-Project-Desktop" stroke="none" stroke-width="1" fill="none" fill-rule="evenodd">
        <g id="About-us" transform="translate(-166.000000, -2419.000000)">
            <g id="about-us/map" transform="translate(48.000000, 2184.000000)">
                <g id="map-content" transform="translate(118.000000, 235.000000)">
                    <g id="globe-icon">
                        <path d="M31.283075,29.7388204 L28.094825,29.0754741 C26.949075,28.8372476 25.755575,29.0719854 24.786325,29.7261117 L21.686825,31.818568 C20.537075,32.5947977 19.675075,33.7261246 19.234075,35.0386133 C18.704825,36.6142476 18.820075,38.3344126 19.555325,39.8255712 C20.402325,41.5434935 21.891075,42.862212 23.702075,43.4988948 L25.573075,44.1565097 C26.472825,44.4729822 27.069575,45.326212 27.056325,46.2771246 L27.049825,46.7204353 C27.039575,47.4562961 27.187325,48.1854288 27.483325,48.8594903 L27.926825,49.8687136 C28.194075,50.4769887 28.273825,51.150801 28.156075,51.8044288 L27.846325,53.524843 C27.709825,54.2833803 27.825325,55.0655906 28.175325,55.7531084 L29.924325,59.1874579 C30.248825,59.8246392 30.866325,60.262966 31.576575,60.3596521 C33.427325,60.6123317 35.288075,59.9716618 36.587825,58.6347524 L38.123575,57.0556294 C38.342325,56.83061 38.605325,56.6531861 38.896075,56.5345712 L38.926325,56.5221117 C39.802825,56.1637751 40.480825,55.4451084 40.785575,54.5512605 C40.977575,53.9878398 41.011575,53.3830534 40.883825,52.8019401 C40.764075,52.2567104 40.903825,51.6870599 41.262075,51.2582023 L41.262325,51.2582023 C42.227075,50.1039498 43.323575,49.065322 44.529325,48.1632508 L44.602325,48.1084288 C45.264575,47.6130372 45.790575,46.9594094 46.132075,46.2080987 L46.733825,44.8843964 C46.917575,44.4807071 46.553575,44.0436262 46.121575,44.1492832 L44.098325,44.6434288 C43.755575,44.727157 43.399825,44.5639369 43.241075,44.2497071 C41.977575,41.7518172 40.905075,39.1624741 40.033075,36.5036068 L39.838575,35.9107816 C39.451825,34.7321084 38.502325,33.8220631 37.305575,33.4829142 L35.648825,33.0136877 C35.391325,32.9406748 35.114325,32.9920081 34.900325,33.1524871 L34.464825,33.478678 C34.250075,33.6394061 33.951575,33.6276942 33.750075,33.4507686 L31.838575,31.7732152 C31.653575,31.6107427 31.595325,31.3478463 31.694075,31.1228269 L31.834075,30.8041117 C32.031325,30.3550696 31.764325,29.8389951 31.283075,29.7388204" id="Fill-1" fill="#5CD8FF"></path>
                        <path d="M45.368525,54.2367816 C45.498025,54.1542994 45.670525,54.2103673 45.726775,54.3526553 C45.884525,54.752856 45.893775,55.2776521 45.663275,55.5951214 L43.611525,58.4211958 C43.467775,58.6193026 43.254025,58.7551117 43.013275,58.8017104 C42.767525,58.8490566 42.512775,58.7994676 42.303025,58.6631602 L42.280525,58.6487071 C42.030525,58.4862346 41.882525,58.2063932 41.889275,57.9091084 L41.889275,57.9028786 C41.894775,57.6644029 41.999025,57.4391343 42.177775,57.2803997 L42.300525,57.171254 C42.461025,57.0284676 42.544525,56.8186489 42.525275,56.6050922 L42.518275,56.5260987 C42.493525,56.2492476 42.626025,55.9818657 42.861525,55.8333479 L45.368525,54.2367816 Z" id="Fill-3" fill="#5CD8FF"></path>
                        <path d="M65.03845,38.5869178 L65.25195,38.9193385 C65.45795,39.4538531 65.85095,39.8999049 66.3792,40.1246751 C66.5882,40.2138854 66.7607,40.2632252 66.8067,40.2108951 C67.20795,39.7558725 67.0297,38.6467236 67.0297,38.6467236 C67.0297,38.6467236 66.75995,32.4822382 65.57495,29.6743547 C64.38995,26.866222 60.1252,17.6035456 49.67545,13.2302447 L48.3547,14.1584809 C47.83995,14.5203061 47.5612,15.1310731 47.6257,15.7555456 L47.67195,16.2025942 C47.7187,16.6548757 47.6092,17.1094 47.3617,17.4911605 L47.34495,17.5170764 C46.73045,18.4649987 45.8182,19.1791799 44.75145,19.5479825 C44.1907,19.7416039 43.60095,19.9461896 43.18645,20.090222 C42.8682,20.2008628 42.5172,20.0618142 42.36145,19.7637819 L42.23595,19.523811 C42.1712,19.4002123 42.2852,19.2594194 42.4197,19.2960505 L42.42845,19.2982932 C42.62895,19.352866 42.84045,19.2848369 42.96995,19.1248563 L42.9942,19.0949534 C43.2307,18.8031508 43.13045,18.3678142 42.78995,18.2078337 L41.7562,17.7216621 C40.89945,17.3189696 39.8997,17.357345 39.07645,17.8243288 L36.83095,19.0986913 C36.78695,19.1238595 36.73645,19.1348239 36.68595,19.1305877 C36.17645,19.0887236 35.68895,19.3463871 35.4377,19.7901961 L35.24695,20.1273515 C35.20445,20.2028563 35.1837,20.288578 35.18745,20.3750472 C35.19795,20.6287236 35.4072,20.8290731 35.66195,20.8293223 C35.7427,20.8293223 35.8262,20.8290731 35.9047,20.8288239 C36.1132,20.8283256 36.2782,21.0032576 36.2652,21.2105845 L36.2497,21.4585294 C36.2312,21.756811 36.41445,22.030921 36.6977,22.1286039 L36.70895,22.1323417 C36.9607,22.2190602 37.23695,22.1560149 37.42395,21.9703676 C37.63745,21.7583061 37.92145,21.4767204 38.1312,21.268646 C38.29695,21.1046783 38.31745,20.8450214 38.1797,20.6568822 L38.1742,20.6494065 C38.05945,20.4926654 38.09195,20.2758693 38.24645,20.1612414 C38.6462,19.8634583 39.3712,19.3167333 39.71945,19.0538369 C39.8372,18.9648757 39.9987,18.9631314 40.11895,19.0483547 L40.12695,19.0540861 C40.3312,19.1991152 40.32345,19.5026298 40.11295,19.6359469 C39.98495,19.7166848 39.84845,19.8034032 39.7312,19.8776621 C39.53645,20.00151 39.3927,20.1901476 39.3252,20.4104324 L39.27295,20.5813773 C39.19145,20.84851 39.35145,21.129099 39.62345,21.1961314 C39.8397,21.2494583 39.8667,21.4679987 39.6702,21.6401896 C39.6702,21.6401896 38.25045,22.819112 38.1557,22.8696977 C38.0407,22.9309987 37.81795,23.0538498 37.2272,23.0229502 C36.7322,22.9967851 36.24995,22.8537495 35.8152,22.6162706 C35.7292,22.5694227 35.6457,22.4141767 35.57945,22.2561896 C35.4707,21.9972803 35.13545,21.9501832 34.91545,22.0585812 C34.8822,22.0750278 33.9502,22.5499858 33.67745,22.6880375 L33.19245,22.9332414 C32.8852,23.0884874 32.0092,23.2604291 31.36695,23.3326945 C31.12045,23.3603547 30.87145,23.3533773 30.6267,23.313756 L30.4717,23.2888369 C30.3772,23.2522058 30.2702,23.2708951 30.1937,23.3369307 C30.0647,23.4480699 30.0682,23.6484194 30.2007,23.7550731 L30.24595,23.791455 C30.4037,23.9185424 30.44595,24.1403223 30.34595,24.3162511 L29.8787,25.1375845 C29.7517,25.3608595 29.47195,25.4465812 29.2412,25.3329502 L28.3587,24.8991087 C27.9157,24.6810667 27.38245,24.9143094 27.24345,25.3870246 L27.1867,25.5798984 C27.1202,25.8059146 27.0212,26.0212155 26.8927,26.2190731 L26.2082,27.2731508 C26.1472,27.3668466 26.1847,27.492688 26.28745,27.5380408 L27.6592,28.1440731 C28.09545,28.3369469 28.59845,28.307044 29.0087,28.0640828 L31.24445,26.7403806 C31.37495,26.6631314 31.73645,26.6053191 32.0442,26.568688 C32.3292,26.5342997 32.6042,26.6853094 32.72595,26.944468 C32.8582,27.2255553 33.01545,27.5502511 33.04495,27.6180311 L33.7477,29.2307948 C33.85345,29.3957592 33.8632,29.604332 33.7732,29.7782673 L33.6367,30.0424097 C33.5847,30.143332 33.6142,30.2671799 33.70645,30.3334647 C33.70645,30.3334647 33.92245,30.3960117 34.0052,30.3232479 C34.1422,30.2031379 34.3522,30.0197333 34.50995,29.8821799 C34.6437,29.7655586 34.71245,29.5916233 34.6947,29.4151961 C34.6947,29.4151961 34.7362,29.3533968 34.7652,29.3788142 L34.7987,29.4077204 C34.8692,29.4690214 35.04445,29.3952608 35.04445,29.3952608 C35.11095,29.3284777 35.11545,29.2223223 35.05495,29.1503061 C34.83745,28.891646 33.90195,26.7889728 33.90195,26.7889728 C33.86995,26.6461864 33.95695,26.5011573 34.09995,26.4667689 C34.25095,26.4303871 34.43245,26.4161832 34.5242,26.4293903 C34.5242,26.4293903 34.7657,26.4839631 34.84345,26.6529146 C34.84345,26.6529146 36.0727,28.988332 36.1732,29.3855424 C36.2242,29.5883838 36.45745,30.7655618 36.68295,31.0319469 C36.73245,31.0905068 36.78195,31.1386006 36.82745,31.1655133 C36.95295,31.1999016 37.08695,31.1610278 37.1742,31.0648401 C37.25645,30.9741346 37.3497,30.8687269 37.38195,30.8216298 C37.5387,30.5926233 37.58945,30.3077981 37.52145,30.038921 L37.45495,29.7755262 C37.4132,29.6100634 37.4762,29.4356298 37.6147,29.3352058 C37.7702,29.2218239 37.98295,29.2285521 38.1312,29.3514032 C38.17795,29.390277 38.22545,29.4296492 38.2677,29.4647851 C38.3607,29.5420343 38.4152,29.6549178 38.41845,29.775277 L38.44995,30.9674065 C38.45245,31.0718175 38.5227,31.162523 38.62345,31.1914291 L41.36245,31.9816136 C41.61545,32.0546265 41.74945,32.3294841 41.6507,32.5726945 L41.2077,33.6653968 C41.1587,33.7862544 41.04845,33.8719761 40.9187,33.8896686 C40.65295,33.9260505 40.4957,34.2051443 40.6032,34.450099 C41.02395,35.4104809 41.9202,37.4548434 41.9202,37.4548434 L44.5117,42.8597948 C44.59295,43.0833191 44.8357,43.2044259 45.0642,43.1349016 L47.3332,42.4448919 C48.04945,42.227099 48.7037,41.8425974 49.2417,41.3235327 L50.89195,39.7312026 C51.02245,39.6053612 51.1067,39.4394 51.1312,39.2599825 L51.17295,38.9569663 C51.23045,38.5388239 50.9552,38.1468466 50.54145,38.0573871 L48.69345,37.6576848 C48.25745,37.5634906 47.8827,37.2881346 47.6632,36.9011411 L46.97145,35.6816006 C46.85745,35.4805036 46.95645,35.2260796 47.17645,35.1538142 L47.18545,35.1508239 C47.3612,35.0932608 47.5502,35.1695133 47.63495,35.330989 C47.7347,35.5211217 47.8717,35.7807786 47.9987,36.0217463 C48.21845,36.437646 48.61545,36.7321896 49.07845,36.8221476 L50.71845,37.1416104 C51.4712,37.2883838 52.24695,37.2711896 52.9927,37.091523 L53.25795,37.0277301 C53.61545,36.94151 53.98795,37.0935165 54.1822,37.404756 L54.6187,38.104235 C54.93795,38.6153256 55.5807,38.8219049 56.13945,38.5928984 C56.2107,38.563743 56.2917,38.6011217 56.31545,38.6741346 L57.87895,43.4683191 C57.97245,43.7553871 58.3297,43.8535683 58.5577,43.6552123 L58.57245,43.6422544 C58.99895,43.2709599 59.23695,42.7339534 59.22445,42.1730246 C59.21845,41.909879 59.21195,41.617578 59.20595,41.3394809 C59.18895,40.5782026 59.3837,39.8276395 59.76845,39.1697754 L61.0737,36.9390181 C61.3137,36.5288498 61.9047,36.519879 62.1572,36.9223223 L62.5822,37.5993741 C62.6472,37.7030375 62.74545,37.7817819 62.86095,37.8224 L62.8702,37.8256395" id="Fill-5" fill="#5CD8FF"></path>
                        <path d="M30.5874,21.8149472 L31.76015,20.9196042 C31.87615,20.8313906 31.91815,19.9579764 31.91815,19.9579764 C31.96765,19.7080379 32.1214,19.4909926 32.3409,19.3609149 L32.72965,19.1304133 C32.83065,19.0706074 32.9579,19.0773356 33.05165,19.1478566 C33.16915,19.2360702 33.20165,19.3980443 33.12715,19.5243841 L32.8439,20.0045751 C32.7644,20.1393874 32.7304,20.2961285 32.7469,20.4516236 L32.8424,21.3596754 C32.8739,21.6611964 32.72865,21.954245 32.46915,22.112232 C31.7939,22.5373518 30.76415,22.3566883 30.54415,22.0501835 C30.49065,21.9759246 30.5144,21.870766 30.5874,21.8149472" id="Fill-7" fill="#5CD8FF"></path>
                        <path d="M59.86365,44.1646333 L59.53765,44.602711 C59.4014,44.7858663 59.3999,45.0358049 59.5339,45.2207045 L59.5829,45.2884845 C59.7059,45.4581835 59.91865,45.5386722 60.12365,45.492821 L60.33765,45.4447272 C60.55115,45.3966333 60.71265,45.2217013 60.7424,45.0054036 L60.8054,44.5471414 C60.8329,44.3460443 60.74115,44.14719 60.57015,44.0367984 C60.33765,43.8870346 60.0284,43.9428534 59.86365,44.1646333" id="Fill-9" fill="#5CD8FF"></path>
                        <path d="M45.601425,17.2761087 C45.585675,17.1151314 45.490925,16.9730926 45.337925,16.8911087 C45.193425,16.8136104 45.111175,16.652633 45.133175,16.4906589 C45.152675,16.3508628 45.246175,16.2312511 45.377425,16.1784227 L45.504425,16.1275877 C45.738425,16.0336427 45.862175,15.7724906 45.786425,15.5330181 C45.743425,15.3972091 45.643425,15.2878142 45.511925,15.232743 C45.380425,15.1774227 45.231925,15.1826557 45.104425,15.2466977 L44.682175,15.4595068 C44.291675,15.6563676 44.023175,16.0318984 43.963925,16.4639955 C43.890925,16.9950214 44.142925,17.5143353 44.605925,17.786701 C44.685425,17.8335489 44.772175,17.8629534 44.860425,17.8749146 C45.045675,17.900332 45.238175,17.8497463 45.388175,17.7276427 L45.425425,17.6972414 C45.551175,17.5948239 45.616925,17.4373353 45.601425,17.2761087" id="Fill-11" fill="#5CD8FF"></path>
                        <path d="M28.40025,15.1232984 L36.02875,12.141978 C36.2445,12.0577515 36.48275,12.0502757 36.70325,12.121046 L37.861,12.4918421 C38.76775,12.7823987 38.79825,14.0502822 37.9065,14.3841981 L34.36575,15.7086479 C34.183,15.7771754 33.9845,15.7908809 33.794,15.7485184 L32.3925,15.4377773 C31.46025,15.2306997 30.49175,15.250635 29.56875,15.4958388 L28.607,15.7510104 C28.4495,15.7928744 28.285,15.7146285 28.2185,15.5663599 C28.141,15.3941689 28.22375,15.1920751 28.40025,15.1232984" id="Fill-13" fill="#5CD8FF"></path>
                        <path d="M29.592275,21.014222 L30.654775,20.4871832 C30.785525,20.4223935 30.875775,20.2970505 30.895525,20.1525197 L30.903025,20.1001896 C30.926775,19.9255068 30.844275,19.753565 30.692775,19.6631087 C30.576025,19.5930861 30.433525,19.5806265 30.306275,19.629468 L29.784525,19.8300667 C29.725025,19.8529922 29.671025,19.8883773 29.626525,19.9339793 L29.005025,20.5714097 C28.919775,20.6588757 28.926275,20.800167 29.019525,20.8791605 L29.109025,20.9551638 C29.243775,21.0695424 29.434025,21.0927172 29.592275,21.014222" id="Fill-15" fill="#5CD8FF"></path>
                        <path d="M67.0692,38.4532019 C67.0692,53.8850984 54.5187,66.3949819 39.0367,66.3949819 C23.5547,66.3949819 11.0042,53.8850984 11.0042,38.4532019 C11.0042,23.0213055 23.5547,10.511422 39.0367,10.511422 C54.5187,10.511422 67.0692,23.0213055 67.0692,38.4532019 Z" id="Stroke-17" stroke="#FFFFFF" stroke-width="1.75" stroke-linecap="round" stroke-linejoin="round"></path>
                        <g id="Group-35" transform="translate(0.000000, 0.039372)" fill="#FFFFFF">
                            <path d="M72.24535,31.7917799 C72.01735,31.7917799 71.81185,31.6342913 71.7606,31.4032913 C71.7011,31.1359094 71.87035,30.8715178 72.13835,30.8122104 L77.26335,29.6816311 C77.53135,29.6230712 77.79685,29.7912751 77.8561,30.0581586 C77.91535,30.3255405 77.7461,30.589932 77.4781,30.6492395 L72.3531,31.780068 C72.3171,31.7877929 72.28085,31.7917799 72.24535,31.7917799" id="Fill-19"></path>
                            <path d="M0.4967,47.6219583 C0.2687,47.6219583 0.0632,47.4644696 0.01195,47.2334696 C-0.04755,46.9663369 0.1217,46.7016961 0.3897,46.6423887 L6.59345,45.273832 C6.8612,45.215023 7.12695,45.3834761 7.18595,45.6503595 C7.24545,45.9177414 7.0762,46.182133 6.8082,46.2414405 L0.6047,47.6102463 C0.56845,47.6179712 0.53245,47.6219583 0.4967,47.6219583" id="Fill-21"></path>
                            <path d="M57.467275,10.821889 C57.375775,10.821889 57.283275,10.7967207 57.200525,10.7441414 C56.969025,10.5971188 56.901025,10.2906139 57.048525,10.0598631 L59.972025,5.48895372 C60.119775,5.25795372 60.427275,5.19042298 60.658525,5.33744563 C60.890025,5.48446828 60.958025,5.79097314 60.810525,6.02147476 L57.886775,10.5926333 C57.792025,10.7409019 57.631525,10.821889 57.467275,10.821889" id="Fill-23"></path>
                            <path d="M18.4552,71.8160061 C18.3637,71.8160061 18.2712,71.7908379 18.18845,71.7382586 C17.95695,71.5912359 17.88895,71.2849803 18.03645,71.0539803 L20.9602,66.4830709 C21.1077,66.2523201 21.41545,66.1845401 21.64645,66.3315628 C21.87795,66.4788346 21.94595,66.7850903 21.7987,67.0158411 L18.87495,71.5869997 C18.77995,71.7350191 18.61945,71.8160061 18.4552,71.8160061" id="Fill-25"></path>
                            <path d="M48.072375,76.7507841 C47.844375,76.7507841 47.638875,76.5935447 47.587625,76.3620463 L46.453125,71.2538812 C46.393875,70.9867485 46.562875,70.7221078 46.831125,70.6630495 C47.098875,70.6042405 47.364625,70.7726935 47.423875,71.0398262 L48.558125,76.1482405 C48.617375,76.4151239 48.448375,76.6797647 48.180125,76.738823 C48.144125,76.7467971 48.107875,76.7507841 48.072375,76.7507841" id="Fill-27"></path>
                            <path d="M32.42955,6.30943981 C32.20155,6.30943981 31.99605,6.15220032 31.9448,5.92095113 L30.81005,0.812536893 C30.7508,0.545404207 30.92005,0.28076343 31.18805,0.221705178 C31.45655,0.162896117 31.72155,0.331349191 31.7808,0.598481877 L32.9153,5.70689612 C32.9748,5.9740288 32.80555,6.23842039 32.53755,6.29772783 C32.5013,6.30570194 32.4653,6.30943981 32.42955,6.30943981" id="Fill-29"></path>
                            <path d="M72.561875,59.826234 C72.470375,59.826234 72.377875,59.8010657 72.295125,59.7484864 L67.709125,56.8341984 C67.477625,56.6871757 67.409625,56.3809201 67.557125,56.1501693 C67.704625,55.9194184 68.012375,55.8516385 68.243625,55.9986612 L72.829375,58.9129492 C73.061125,59.0599718 73.129125,59.3662275 72.981375,59.5972275 C72.886625,59.7452469 72.725875,59.826234 72.561875,59.826234" id="Fill-31"></path>
                            <path d="M11.369625,20.9405362 C11.278125,20.9405362 11.185625,20.915368 11.102875,20.8627887 L6.516875,17.9487498 C6.285375,17.801478 6.217375,17.4952223 6.364875,17.2644715 C6.512375,17.0337207 6.820125,16.9659408 7.051375,17.1129634 L11.637375,20.0270023 C11.868875,20.1742741 11.936875,20.4805298 11.789375,20.7115298 C11.694625,20.8595492 11.533875,20.9405362 11.369625,20.9405362" id="Fill-33"></path>
                        </g>
                    </g>
                </g>
            </g>
        </g>
    </g>
</svg>