<?xml version="1.0" encoding="UTF-8"?>
<svg width="233px" height="151px" viewBox="0 0 233 151" version="1.1" xmlns="http://www.w3.org/2000/svg" xmlns:xlink="http://www.w3.org/1999/xlink">
    <!-- Generator: sketchtool 50.2 (55047) - http://www.bohemiancoding.com/sketch -->
    <title>CB263F99-E803-4B33-8428-953CA35BB795</title>
    <desc>Created with sketchtool.</desc>
    <defs>
        <polygon id="path-1" points="0.126258634 0.00775958277 87.0565066 0.00775958277 87.0565066 149.139057 0.126258634 149.139057"></polygon>
        <polygon id="path-3" points="0.0397569438 2.56583537e-05 22.6173526 2.56583537e-05 22.6173526 1.79608476 0.0397569438 1.79608476"></polygon>
        <polygon id="path-5" points="0 0 35 0 35 2 0 2"></polygon>
    </defs>
    <g id="Future-Project-Desktop" stroke="none" stroke-width="1" fill="none" fill-rule="evenodd">
        <g id="Homepage-" transform="translate(-949.000000, -1408.000000)">
            <g id="homepage/programs" transform="translate(48.000000, 1109.000000)">
                <g id="hands-icon" transform="translate(901.000000, 299.000000)">
                    <path d="M210.481894,114.816253 C210.463157,114.831335 210.459531,114.853804 210.441096,114.868886 C210.329885,114.959686 210.189059,114.978461 210.070595,115.053563 C209.822183,115.216079 209.592509,115.404758 209.296349,115.506946 L196,120.016149 L230.233008,126 L220.121581,106.266311 C219.963831,105.9579 219.85534,105.632868 219.78825,105.301065 C219.603604,104.393992 219.753799,103.436132 220.240045,102.628477 L231,84.708935 L211.77472,81 L211.77472,112.001156 L211.77472,112.004849 C211.77472,112.050403 211.745104,112.091648 211.745104,112.141203 C211.730296,112.552418 211.626338,112.93747 211.485814,113.314519 C211.448643,113.412398 211.448643,113.521973 211.400592,113.619852 C211.321415,113.785446 211.225314,113.941191 211.121961,114.092318 C211.012261,114.253911 210.89289,114.40904 210.757805,114.551241 C210.670469,114.643272 210.578599,114.731917 210.481894,114.816253" id="Fill-1" fill="#FFFFFF"></path>
                    <path d="M213.305402,112.789252 L213.305402,112.791131 L213.305402,112.789252 Z M210.86346,113.805807 C210.862223,113.808311 210.860987,113.811129 210.85975,113.81332 C210.860987,113.811129 210.862223,113.808311 210.86346,113.805807 Z M212.971566,114.369342 C212.970639,114.372159 212.969403,114.374977 212.968475,114.377795 C212.969403,114.374977 212.970639,114.372472 212.971566,114.369342 Z M210.912917,115.510187 L210.916008,115.510187 L210.912917,115.510187 Z M211.602533,116.378657 L211.598824,116.381474 L211.602533,116.378657 Z M211.598824,116.381788 C211.598206,116.382101 211.597588,116.382727 211.59697,116.38304 C211.597588,116.382727 211.598206,116.382101 211.598824,116.381788 Z M200.610395,120.452701 L229.112493,125.407113 L219.797567,107.328911 C219.595411,106.936942 219.446422,106.508342 219.354308,106.056575 C219.104859,104.837148 219.318142,103.584222 219.956138,102.530724 L230.130381,85.681029 L213.335694,82.4591744 L213.335694,112.647116 C213.335694,112.770155 213.317148,112.875348 213.298292,112.953617 C213.268927,113.392861 213.16754,113.837427 212.982694,114.339286 C212.958893,114.45575 212.923037,114.616358 212.836796,114.791367 C212.744682,114.983595 212.622585,115.189911 212.469577,115.412194 C212.31286,115.640739 212.15367,115.839542 211.985207,116.015803 C211.901439,116.10409 211.811489,116.192064 211.71783,116.277221 C211.676719,116.325747 211.625407,116.379283 211.561731,116.431253 C211.362049,116.5928 211.171948,116.667625 211.058197,116.712082 L211.043669,116.71803 C211.010594,116.739945 210.973502,116.765304 210.936409,116.790977 C210.709834,116.946262 210.42731,117.139742 210.053291,117.268416 L200.610395,120.452701 Z M231.115194,128 C231.053682,128 230.991552,127.994678 230.929421,127.984033 L195.914139,121.897543 C195.416786,121.810821 195.041222,121.392866 195.003202,120.883493 C194.964873,120.37412 195.273979,119.903568 195.752785,119.742021 L209.352856,115.155786 C209.440333,115.125731 209.562121,115.04214 209.703074,114.9454 C209.767986,114.900943 209.832589,114.856799 209.898738,114.813908 C210.01929,114.737518 210.124386,114.68993 210.205063,114.657371 C210.273993,114.596634 210.339833,114.533706 210.402273,114.467647 C210.488822,114.377482 210.573209,114.270723 210.663159,114.139231 C210.73518,114.035291 210.789274,113.94763 210.83224,113.867169 C210.850168,113.783578 210.873042,113.687464 210.913844,113.581019 C211.035323,113.255108 211.095599,112.998386 211.10549,112.756379 C211.107963,112.663396 211.120636,112.581057 211.135164,112.514372 L211.135164,81.1138913 C211.135164,80.7823449 211.281063,80.4677045 211.533603,80.2560658 C211.785834,80.0441141 212.11936,79.9583315 212.439903,80.0190681 L232.104335,83.7916215 C232.459808,83.8598719 232.759023,84.1000004 232.90554,84.4346776 C233.052056,84.7693547 233.027019,85.1553762 232.838154,85.4675119 L221.832415,103.694737 C221.48807,104.263907 221.373392,104.942341 221.509399,105.605747 C221.560401,105.85652 221.64046,106.089135 221.748029,106.297956 L232.090426,126.370445 C232.283926,126.745822 232.250543,127.19978 232.004185,127.542284 C231.79492,127.832818 231.462939,128 231.115194,128 Z" id="Fill-3" fill="#231F20"></path>
                    <path d="M28.0024837,66.2811085 L28.0024837,106.999385 C33.1952354,105.435545 38.4131344,104.063609 43.6409681,102.7784 C43.7011973,102.774402 43.7486976,102.729502 43.8089269,102.729502 L43.8104792,102.729809 C43.8104792,102.729809 43.8111001,102.729502 43.8114105,102.729502 L43.8138942,102.729502 C43.8185511,102.729502 43.8235185,102.732269 43.8303486,102.732885 C67.8295172,96.8554904 92.1661557,93.9163321 116.502173,93.9166396 C140.838501,93.9163321 165.174208,96.8551829 189.172135,102.732885 C189.176792,102.732269 189.181449,102.729502 189.186106,102.729502 C189.186106,102.729502 189.186727,102.729809 189.187348,102.729809 L189.188589,102.729502 C189.208769,102.729502 189.227086,102.737805 189.245404,102.745801 C189.250371,102.747646 189.255338,102.747954 189.260616,102.750107 C189.284522,102.761178 189.308427,102.772557 189.333885,102.774402 C194.570101,104.060227 199.798866,105.435852 205,107 L205,66.2811085 C175.924192,57.4270362 146.213493,53 116.501863,53 C86.7902326,53 57.078292,57.4270362 28,66.2811085 L28.0024837,66.2811085 Z" id="Fill-5" fill="#FFFFFF"></path>
                    <path d="M189.160279,102.669265 L189.16338,102.669265 L189.160279,102.669265 Z M189.551929,101.648296 C194.948826,102.970559 199.51901,104.187997 203.792432,105.442522 L203.792432,67.133992 C175.237934,58.5392846 145.872847,54.1817027 116.501868,54.1817027 C87.1315088,54.1817027 57.7679721,58.5386716 29.2103728,67.1336854 L29.2103728,105.441296 C33.4549562,104.194434 38.019868,102.977915 43.4338204,101.649522 C43.5119644,101.619485 43.6270098,101.582704 43.7696536,101.568299 C67.6767548,95.7361211 92.1457485,92.7789606 116.498767,92.7789606 L116.500627,92.7789606 C140.859227,92.7786541 165.331632,95.7367341 189.239353,101.569831 C189.370524,101.58485 189.475646,101.618872 189.543247,101.644925 C189.546037,101.646151 189.548828,101.64707 189.551929,101.648296 Z M204.896061,108 C204.788458,108 204.680855,107.984675 204.575423,107.952798 C199.928646,106.5582 194.985418,105.227662 189.024457,103.766553 C188.963989,103.754905 188.910032,103.739887 188.864448,103.724561 C188.850184,103.722109 188.836229,103.718738 188.821965,103.715366 C165.051306,97.9058701 140.719374,94.9606634 116.502178,94.9609699 C92.2865317,94.9606634 67.9539799,97.9058701 44.1808398,103.715366 C44.1569625,103.72119 44.1327751,103.726094 44.1088977,103.730385 C44.0623834,103.745404 44.0081168,103.760116 43.9473381,103.771457 C37.9687022,105.238696 33.0360176,106.567396 28.4276925,107.952185 C28.0937199,108.052412 27.7305984,107.990805 27.4496521,107.784833 C27.1683958,107.579169 27.0028049,107.253967 27.0028049,106.908536 L27.0028049,66.40451 C26.9665238,65.9021483 27.2853017,65.4347281 27.7795935,65.2845407 C56.7933428,56.4697627 86.6434189,52 116.501868,52 C146.360626,52 176.209772,56.4697627 205.220421,65.2845407 C205.683703,65.4252265 206,65.8482034 206,66.3272707 L206,106.909149 C206,107.25458 205.834409,107.579782 205.553463,107.78514 C205.360894,107.926439 205.129873,108 204.896061,108 Z" id="Fill-7" fill="#231F20"></path>
                    <path d="M11.7589089,102.631839 C12.2536374,103.4586 12.4020257,104.439879 12.1968207,105.364522 C12.1291242,105.674173 12.0215351,105.977052 11.8737512,106.265772 L1.76521229,126 L36,120.015985 L22.6958234,115.502657 C22.4069044,115.404776 22.1808464,115.219786 21.9324244,115.057573 C21.8139555,114.978467 21.6658694,114.959384 21.5546537,114.865196 C21.5362185,114.849805 21.5325919,114.827336 21.5138545,114.812253 C21.4204696,114.731301 21.3322223,114.645424 21.2476017,114.556468 C21.245184,114.554006 21.242464,114.552159 21.2400463,114.549697 C21.1750697,114.481056 21.1158353,114.408107 21.0566008,114.33485 C21.0360501,114.309917 21.0133839,114.28714 20.994042,114.2619 C20.8387027,114.061212 20.7048208,113.845441 20.5951162,113.616128 C20.5470638,113.517938 20.5470638,113.408668 20.5098911,113.310478 C20.3690582,112.933419 20.2650957,112.548356 20.2502871,112.13713 C20.2502871,112.087881 20.2209721,112.046636 20.2209721,112.001081 L20.2209721,81 L1,84.7087286 L11.7589089,102.631839 Z" id="Fill-9" fill="#FFFFFF"></path>
                    <path d="M19.6900349,112.785003 L19.6900349,112.786881 L19.6900349,112.785003 Z M22.1274539,113.791551 C22.1289995,113.794681 22.130236,113.797499 22.1314724,113.80063 C22.1305451,113.797499 22.1289995,113.794681 22.1274539,113.791551 Z M20.02234,114.361667 C20.0245038,114.367302 20.0269768,114.373564 20.0294497,114.379825 C20.0269768,114.373564 20.0248129,114.367615 20.02234,114.361667 Z M21.3886547,116.371006 L21.3889638,116.371006 L21.3886547,116.371006 Z M21.389273,116.371319 C21.3923642,116.373824 21.3957645,116.376641 21.3985466,116.378833 C21.3957645,116.376641 21.3923642,116.373824 21.389273,116.371319 Z M21.9163242,116.692851 C21.9184881,116.694416 21.9206519,116.695668 21.9231249,116.697547 C21.9209611,116.695981 21.9184881,116.694416 21.9163242,116.692851 Z M2.86952554,85.6808428 L13.0433154,102.535746 C13.0436246,102.536059 13.0439337,102.536685 13.0442428,102.536999 C13.6964881,103.620877 13.9029809,104.901056 13.6260085,106.142099 C13.5360543,106.551606 13.3916948,106.952034 13.1975668,107.328355 L3.88560623,125.406769 L32.3902706,120.451986 L22.9438424,117.265785 C22.5713516,117.139614 22.2897424,116.947071 22.0637749,116.792097 C22.0263713,116.766737 21.9892768,116.741378 21.9512549,116.716332 L21.9376536,116.710383 C21.818642,116.663421 21.6201863,116.584839 21.4192577,116.41515 C21.3602156,116.367562 21.3110653,116.315591 21.2714979,116.267377 C21.1929811,116.195682 21.1141553,116.118977 21.0365659,116.038829 C21.0325473,116.034446 21.0282196,116.030376 21.0245102,116.026619 C20.9240459,115.921112 20.8449109,115.826249 20.7670124,115.73076 C20.7413554,115.702583 20.7126071,115.669083 20.6857136,115.634645 C20.4779843,115.366963 20.2990032,115.078617 20.1540255,114.777748 C20.0668534,114.600859 20.0322318,114.430857 20.0136846,114.339751 L20.0136846,114.339125 C20.0139937,114.339125 20.0155393,114.342882 20.0177031,114.348205 C19.8291393,113.839452 19.7268203,113.391749 19.6971447,112.949369 C19.6779792,112.871099 19.659741,112.766844 19.659741,112.646622 L19.659741,82.4595764 L2.86952554,85.6808428 Z M1.88312048,128 C1.53535937,128 1.20305431,127.832503 0.994088519,127.541966 C0.747719092,127.199771 0.714024905,126.745807 0.907534642,126.370426 L11.2470134,106.2977 C11.3518054,106.093885 11.4297039,105.877548 11.4788541,105.654636 C11.6300143,104.977447 11.5184216,104.283664 11.1654055,103.696642 L0.161625702,85.4673232 C-0.0269380994,85.1551837 -0.0519768993,84.7691577 0.0942373273,84.4344766 C0.241069796,84.0997955 0.540298911,83.8593511 0.895478924,83.791413 L20.5555737,80.0194412 C20.8773686,79.9577647 21.2096737,80.0444875 21.4619164,80.2561287 C21.7144682,80.4674568 21.8603733,80.7821008 21.8603733,81.1142773 L21.8603733,112.510433 C21.874902,112.577118 21.887576,112.659145 21.890049,112.751503 C21.8996317,112.994765 21.9599103,113.25149 22.0841769,113.582727 C22.1259083,113.692305 22.1490923,113.794681 22.1633119,113.863559 C22.2362645,114.004131 22.3200362,114.134372 22.4155546,114.257099 C22.4223553,114.262734 22.4405934,114.284023 22.4588316,114.305626 C22.5017994,114.35791 22.5410578,114.407376 22.5830982,114.453086 C22.5846438,114.454964 22.5864985,114.45653 22.5880441,114.458095 C22.6603785,114.533547 22.7249847,114.59585 22.7926822,114.655022 C22.7939187,114.655961 22.7951552,114.6569 22.7963917,114.657839 C22.8820182,114.693217 22.9936109,114.743623 23.1132407,114.823145 C23.1695007,114.859462 23.2325614,114.902667 23.2950038,114.945246 C23.4337992,115.040108 23.553429,115.122135 23.6396737,115.151251 L37.2474887,119.741611 C37.726008,119.903159 38.035129,120.373717 37.9967979,120.883096 C37.9587761,121.392788 37.5831941,121.810748 37.0855093,121.896844 L2.06890219,127.98372 C2.00707799,127.994678 1.94463555,128 1.88312048,128 Z" id="Fill-11" fill="#231F20"></path>
                    <g id="Group-15" transform="translate(69.000000, 0.000000)">
                        <mask id="mask-2" fill="white">
                            <use xlink:href="#path-1"></use>
                        </mask>
                        <g id="Clip-14"></g>
                        <path d="M85.6387469,21.7850597 C84.6987654,21.2682714 83.871062,21.0600042 83.1429553,21.0600042 C80.9311068,21.0600042 79.6378976,22.9812769 78.8977279,23.9993342 C77.9172274,25.3485704 65.6705584,44.5224995 65.6705584,44.5224995 C65.6705584,44.5224995 65.5697246,44.5501236 65.4308461,44.5501236 C65.0612252,44.5501236 64.4203428,44.3548925 64.6900578,42.9265085 C65.0547298,40.9558848 71.3020961,14.9007578 71.3020961,14.9007578 C71.3020961,14.9007578 72.8922391,6.17836603 68.8539376,5.56039286 C68.4898842,5.50514463 68.1477916,5.47876205 67.8276597,5.47876205 C64.5975753,5.47845166 63.5211898,8.14123008 62.8546349,10.6028801 C62.1194141,13.3053876 54.8946404,38.8679363 54.8946404,38.8679363 C54.8946404,38.8679363 54.0440484,40.0228726 53.3988357,40.0228726 C53.0338544,40.0228726 52.7347553,39.6538268 52.6914524,38.4992009 C52.5720602,35.3016321 52.0818099,7.77373625 52.0818099,7.77373625 C52.0818099,7.77373625 52.5432948,0.00856657937 47.4097401,0.00763542944 C47.2560149,0.00763542944 47.0979594,0.0144638623 46.9343365,0.0287414946 C41.2997058,0.520699042 41.9124413,5.80932027 41.9124413,5.80932027 L42.3995985,37.7611094 C42.3995985,37.7611094 41.3219758,39.4998767 40.3383822,39.4998767 C39.9146327,39.4998767 39.5082044,39.1770781 39.212817,38.2533774 C38.2357187,35.1784099 29.2949143,10.2304201 29.2949143,10.2304201 C29.2949143,10.2304201 28.1220252,7.62537302 25.3633234,7.62506264 C24.7849208,7.62506264 24.1369244,7.73959408 23.4150037,8.01676638 C19.2511239,9.61555081 20.841267,14.2861989 20.841267,14.2861989 L28.804664,41.8165778 C28.804664,41.8165778 29.5367917,44.1534537 29.5367917,46.4838116 C29.5367917,48.8206875 28.4338058,54.4749403 28.4338058,54.4749403 L28.3236928,54.7303858 L28.3048252,54.7744602 L27.5160944,56.6100671 C27.5160944,56.6100671 27.3716484,56.6100671 27.5130013,56.6190682 L27.2961777,57.120958 C26.6989075,57.1398914 26.3565055,57.1839658 26.3565055,57.1839658 C19.0943057,45.4747555 9.43807603,43.5066149 5.55195316,43.2067846 C5.38925811,43.1940589 5.22656306,43.1878512 5.06417732,43.1878512 C3.80406393,43.1875408 2.56374615,43.5658981 1.55942897,44.337511 C0.519541593,45.1364376 -0.335380692,46.3655556 0.405098306,48.0860102 C1.87553989,51.5262989 2.85294742,49.0730292 9.22310823,55.2127214 C15.5898667,61.3592421 17.7961477,67.5057628 18.7766483,69.7160024 C19.7568395,71.93276 23.9210287,78.5681344 28.3301883,81.2675381 C32.7328525,83.9734598 34.9422265,85.449022 34.9422265,85.449022 L33.0941221,149.139057 L64.5790169,149.139057 L62.3739731,86.9252051 C62.3739731,86.9252051 70.4598553,82.2579712 72.9080137,65.2949025 L73.5176562,52.7563479 C73.5176562,52.7563479 73.398264,51.7724328 74.2466909,50.1736484 C75.1077993,48.5810716 84.4132758,32.2328723 84.4132758,32.2328723 C84.4132758,32.2328723 89.4317686,23.876112 85.6387469,21.7850597" id="Fill-13" fill="#5CD8FF" mask="url(#mask-2)"></path>
                    </g>
                    <path d="M82.8888068,72.4982556 C82.4000661,72.3023995 81.9687876,72.2191684 81.5877885,72.2191684 C80.0260044,72.2191684 79.3086642,73.6142947 78.9004955,74.3370747 C78.399263,75.2300298 72.2529977,87.7858568 72.2529977,87.7858568 C72.2529977,87.7858568 72.1564987,87.824533 72.0334547,87.824533 C71.8001709,87.824533 71.4725741,87.6859176 71.526601,86.8836194 C71.6121696,85.6608341 73.5508931,69.3481601 73.5508931,69.3481601 C73.5508931,69.3481601 73.8997259,63.9254537 71.3613973,63.8468638 C71.3079949,63.8450073 71.2555295,63.8443885 71.2036886,63.8443885 C68.8005835,63.8440791 68.2846732,65.6841358 68.029841,67.3518517 C67.7793809,69.0526743 65.1932713,85.126175 65.1932713,85.126175 C65.1932713,85.126175 64.7276404,85.9383742 64.3200963,85.9383742 C64.1089853,85.9383742 63.9138013,85.7208595 63.8066843,85.0602708 C63.4956391,83.1208937 61.1827871,66.4090817 61.1827871,66.4090817 C61.1827871,66.4090817 60.9188984,62.0003094 58.0779565,62 C57.8796496,62 57.6691632,62.0219681 57.4449359,62.0677606 C54.0084487,62.7778548 54.7701346,65.9499184 54.7701346,65.9499184 L57.4130818,85.3622542 C57.4130818,85.3622542 56.8387725,86.5686408 56.2082502,86.5686408 C55.9643483,86.5686408 55.7120144,86.3879458 55.4809166,85.8870123 C54.6527119,84.0890352 47.3166051,69.5619619 47.3166051,69.5619619 C47.3166051,69.5619619 46.5143208,68.2426409 45.0149956,68.2423315 C44.579345,68.2423315 44.0852953,68.3534094 43.534408,68.6408506 C41.0850833,69.9171637 42.4048393,72.6427497 42.4048393,72.6427497 L49.3284053,88.8171178 C49.3284053,88.8171178 49.9501834,90.1843972 50.121633,91.6055139 C50.2484245,92.6742134 50.1278789,94.9189775 50.0613602,95.9783947 L50.0582373,96.0034568 C50.0360644,96.3425694 50.0201374,96.5566806 50.0201374,96.5566806 L49.6107195,97.9242694 C49.5632507,97.9273635 49.5220279,97.9301482 49.4776821,97.9369552 C49.4776821,97.9369552 49.5251508,97.9369552 49.6075965,97.9273635 L49.5123467,98.2482209 C49.144464,98.2983452 48.9380374,98.351873 48.9380374,98.351873 C43.9522579,92.1893691 38.2984807,91.3564394 35.6077525,91.3564394 C35.4269341,91.3564394 35.2601689,91.3601524 35.1071446,91.3660311 C34.2171057,91.4019226 33.3511134,91.7286588 32.7124715,92.3440737 C32.1300425,92.9047233 31.6931426,93.7132096 32.2736979,94.7048663 C33.4288747,96.6949865 33.8507844,95.1293757 38.2232178,98.4081855 C42.6047077,101.683901 44.4069585,105.2616 45.1686444,106.541007 C45.9459451,107.817321 48.9951873,111.545392 51.9048338,112.872139 C54.8210386,114.20198 56.2866361,114.934352 56.2866361,114.934352 L59.5207565,149 L78.634733,149 L73.3129248,113.837187 C73.3129248,113.837187 77.9517452,110.404601 78.2181323,99.9044886 L77.6822352,92.23083 C77.6822352,92.23083 77.5360814,91.6398583 77.9454993,90.6058126 C78.3611631,89.5776457 82.9047338,78.9457254 82.9047338,78.9457254 C82.9047338,78.9457254 85.3796667,73.4917686 82.8888068,72.4982556" id="Fill-16" fill="#5CD8FF"></path>
                    <path d="M194.316893,76.9418678 C193.709288,76.5234356 193.167504,76.3624281 192.688748,76.3624281 C191.517005,76.3624281 190.722492,77.3266007 190.263295,77.8423863 C189.61657,78.5744086 181.38332,89.0776499 181.38332,89.0776499 C181.38332,89.0776499 181.353514,89.0823303 181.307874,89.0823303 C181.114446,89.0823303 180.63569,88.995586 180.900838,88.0885148 C181.229013,86.9599024 186.355001,72.1007226 186.355001,72.1007226 C186.355001,72.1007226 187.780715,67.0917053 185.462067,66.495416 C185.130787,66.4105438 184.828382,66.371228 184.552677,66.371228 C182.897831,66.371228 182.178764,67.7778592 181.670512,69.0955618 C181.099544,70.6298132 175.424631,85.1432638 175.424631,85.1432638 C175.424631,85.1432638 174.890609,85.7367449 174.515241,85.7367449 C174.28704,85.7367449 174.117519,85.5167637 174.162849,84.8106399 C174.269964,82.9337795 175.553789,66.8221114 175.553789,66.8221114 C175.553789,66.8221114 176.311045,62.0415 172.995763,62.000312 C172.977134,62.000312 172.958816,62 172.940498,62 C169.674582,62 169.743508,65.0884728 169.743508,65.0884728 L168.200744,83.7834372 C168.200744,83.7834372 167.511173,84.6808354 166.94424,84.6808354 C166.675988,84.6808354 166.434746,84.479264 166.308072,83.8848469 C165.913765,82.0301407 162.118795,66.9459873 162.118795,66.9459873 C162.118795,66.9459873 161.531371,65.1805216 159.719112,65.1798976 C159.448065,65.1798976 159.150006,65.2195254 158.822452,65.3103261 C156.301994,66.0042808 156.961138,68.8228476 156.961138,68.8228476 L160.036731,85.3619969 C160.036731,85.3619969 160.333237,86.7636355 160.200974,88.1297028 C160.103173,89.1316311 159.557353,91.1258147 159.270472,92.1308633 L159.254637,92.1814121 C159.159942,92.5174684 159.09381,92.7362014 159.09381,92.7362014 L158.434355,93.9315883 C158.426283,93.9303402 158.421625,93.9297161 158.421625,93.9297161 C158.41821,93.9297161 158.455778,93.9359567 158.448326,93.9359567 C158.448326,93.9359567 158.443669,93.9356447 158.434355,93.9347086 L158.279737,94.2167837 C158.000307,94.1968138 157.813399,94.1943175 157.749441,94.1943175 C157.732986,94.1943175 157.724603,94.1946296 157.724603,94.1946296 C154.158144,86.9418047 148.642196,85.2362488 146.390611,84.8368504 C146.177934,84.7994068 145.962773,84.7797489 145.748543,84.7797489 C145.131003,84.7797489 144.519983,84.9388842 143.990618,85.2683879 C143.336752,85.6749629 142.765783,86.3433311 143.097063,87.3883196 C143.756518,89.4898415 144.47248,88.1141013 147.835264,92.0675212 C151.204259,96.0237493 152.134761,99.7397144 152.579675,101.09018 C153.0308,102.440646 155.07809,106.558506 157.497643,108.385129 C159.910677,110.220177 161.112536,111.209625 161.112536,111.209625 L155.787221,150.85397 L174.554051,151 L177.023902,113.650635 C177.023902,113.650635 182.004897,111.389978 184.399301,101.619383 L185.471692,94.333795 C185.471692,94.333795 185.458962,93.7506109 186.05539,92.8694382 C186.645298,91.9848332 193.011024,82.9715352 193.011024,82.9715352 C193.011024,82.9715352 196.414792,78.3781418 194.316893,76.9418678" id="Fill-18" fill="#5CD8FF"></path>
                    <g id="Group-22" transform="translate(58.000000, 149.000000)">
                        <mask id="mask-4" fill="white">
                            <use xlink:href="#path-3"></use>
                        </mask>
                        <g id="Clip-21"></g>
                        <path d="M21.5302487,1.79611042 L1.12686088,1.79611042 C0.526468904,1.79611042 0.0397569438,1.39404401 0.0397569438,0.898068037 C0.0397569438,0.401835477 0.526468904,2.56583537e-05 1.12686088,2.56583537e-05 L21.5302487,2.56583537e-05 C22.1306406,2.56583537e-05 22.6173526,0.401835477 22.6173526,0.898068037 C22.6173526,1.39404401 22.1306406,1.79611042 21.5302487,1.79611042" id="Fill-20" fill="#231F20" mask="url(#mask-4)"></path>
                    </g>
                    <g id="Group-25" transform="translate(100.000000, 149.000000)">
                        <mask id="mask-6" fill="white">
                            <use xlink:href="#path-5"></use>
                        </mask>
                        <g id="Clip-24"></g>
                        <path d="M33.9139301,2 L1.08606993,2 C0.486249025,2 0,1.55228571 0,1 C0,0.447428571 0.486249025,0 1.08606993,0 L33.9139301,0 C34.513751,0 35,0.447428571 35,1 C35,1.55228571 34.513751,2 33.9139301,2" id="Fill-23" fill="#231F20" mask="url(#mask-6)"></path>
                    </g>
                    <path d="M174.919996,151 L155.080004,151 C154.483533,151 154,150.552571 154,150 C154,149.447714 154.483533,149 155.080004,149 L174.919996,149 C175.516467,149 176,149.447714 176,150 C176,150.552571 175.516467,151 174.919996,151" id="Fill-26" fill="#231F20"></path>
                </g>
            </g>
        </g>
    </g>
</svg>