<svg height="151" viewBox="0 0 233 151" width="233" xmlns="http://www.w3.org/2000/svg" xmlns:xlink="http://www.w3.org/1999/xlink"><mask id="a" fill="#fff"><path d="m.12625863.00775958h86.93024797v149.13129742h-86.93024797z" fill="none"/></mask><mask id="b" fill="#fff"><path d="m.03975694.00002566h22.57759566v1.7960591h-22.57759566z" fill="none"/></mask><mask id="c" fill="#fff"><path d="m0 0h35v2h-35z" fill="none"/></mask><g fill="none" fill-rule="evenodd" transform=""><path d="m210.481894 114.816253c-.018737.015082-.022363.037551-.040798.052633-.111211.0908-.252037.109575-.370501.184677-.248412.162516-.478086.351195-.774246.453383l-13.296349 4.509203 34.233008 5.983851-10.111427-19.733689c-.15775-.308411-.266241-.633443-.333331-.965246-.184646-.907073-.034451-1.864933.451795-2.672588l10.759955-17.919542-19.22528-3.708935v31.001156.003693c0 .045554-.029616.086799-.029616.136354-.014808.411215-.118766.796267-.25929 1.173316-.037171.097879-.037171.207454-.085222.305333-.079177.165594-.175278.321339-.278631.472466-.1097.161593-.229071.316722-.364156.458923-.087336.092031-.179206.180676-.275911.265012" fill="#fff"/><path d="m213.305402 112.789252v.001879zm-2.441942 1.016555c-.001237.002504-.002473.005322-.00371.007513.001237-.002191.002473-.005009.00371-.007513zm2.108106.563535c-.000927.002817-.002163.005635-.003091.008453.000928-.002818.002164-.005323.003091-.008453zm-2.058649 1.140845h.003091zm.689616.86847-.003709.002817zm-.003709.003131c-.000618.000313-.001236.000939-.001854.001252.000618-.000313.001236-.000939.001854-.001252zm-10.988429 4.070913 28.502098 4.954412-9.314926-18.078202c-.202156-.391969-.351145-.820569-.443259-1.272336-.249449-1.219427-.036166-2.472353.60183-3.525851l10.174243-16.849695-16.794687-3.2218546v30.1879416c0 .123039-.018546.228232-.037402.306501-.029365.439244-.130752.88381-.315598 1.385669-.023801.116464-.059657.277072-.145898.452081-.092114.192228-.214211.398544-.367219.620827-.156717.228545-.315907.427348-.48437.603609-.083768.088287-.173718.176261-.267377.261418-.041111.048526-.092423.102062-.156099.154032-.199682.161547-.389783.236372-.503534.280829l-.014528.005948c-.033075.021915-.070167.047274-.10726.072947-.226575.155285-.509099.348765-.883118.477439zm30.504799 7.547299c-.061512 0-.123642-.005322-.185773-.015967l-35.015282-6.08649c-.497353-.086722-.872917-.504677-.910937-1.01405-.038329-.509373.270777-.979925.749583-1.141472l13.600071-4.586235c.087477-.030055.209265-.113646.350218-.210386.064912-.044457.129515-.088601.195664-.131492.120552-.07639.225648-.123978.306325-.156537.06893-.060737.13477-.123665.19721-.189724.086549-.090165.170936-.196924.260886-.328416.072021-.10394.126115-.191601.169081-.272062.017928-.083591.040802-.179705.081604-.28615.121479-.325911.181755-.582633.191646-.82464.002473-.092983.015146-.175322.029674-.242007v-31.4004807c0-.3315464.145899-.6461868.398439-.8578255.252231-.2119517.585757-.2977343.9063-.2369977l19.664432 3.7725534c.355473.0682504.654688.3083789.801205.6430561.146516.3346771.121479.7206986-.067386 1.0328343l-11.005739 18.2272251c-.344345.56917-.459023 1.247604-.323016 1.91101.051002.250773.131061.483388.23863.692209l10.342397 20.072489c.1935.375377.160117.829335-.086241 1.171839-.209265.290534-.541246.457716-.888991.457716z" fill="#231f20"/><path d="m28.0024837 66.2811085v40.7182765c5.1927517-1.56384 10.4106507-2.935776 15.6384844-4.220985.0602292-.003998.1077295-.048898.1679588-.048898l.0015523.000307s.0006209-.000307.0009313-.000307h.0024837c.0046569 0 .0096243.002767.0164544.003383 23.9991686-5.8773946 48.3358071-8.8165529 72.6718244-8.8162454 24.336328-.0003075 48.672035 2.9385433 72.669962 8.8162454.004657-.000616.009314-.003383.013971-.003383 0 0 .000621.000307.001242.000307l.001241-.000307c.02018 0 .038497.008303.056815.016299.004967.001845.009934.002153.015212.004306.023906.011071.047811.02245.073269.024295 5.236216 1.285825 10.464981 2.66145 15.666115 4.225598v-40.7188915c-29.075808-8.8540723-58.786507-13.2811085-88.498137-13.2811085-29.7116304 0-59.423571 4.4270362-88.501863 13.2811085z" fill="#fff"/><path d="m189.160279 102.669265h.003101zm.39165-1.020969c5.396897 1.322263 9.967081 2.539701 14.240503 3.794226v-38.30853c-28.554498-8.5947074-57.919585-12.9522893-87.290564-12.9522893-29.3703592 0-58.7338959 4.3569689-87.2914952 12.9519827v38.3076106c4.2445834-1.246862 8.8094952-2.463381 14.2234476-3.791774.078144-.030037.1931894-.066818.3358332-.081223 23.9071012-5.8321779 48.3760949-8.7893384 72.7291134-8.7893384h.00186c24.3586-.0003065 48.831005 2.9577735 72.738726 8.7908704.131171.015019.236293.049041.303894.075094.00279.001226.005581.002145.008682.003371zm15.344132 6.351704c-.107603 0-.215206-.015325-.320638-.047202-4.646777-1.394598-9.590005-2.725136-15.550966-4.186245-.060468-.011648-.114425-.026666-.160009-.041992-.014264-.002452-.028219-.005823-.042483-.009195-23.770659-5.8094959-48.102591-8.7547026-72.319787-8.7543961-24.2156463-.0003065-48.5481981 2.9449002-72.3213382 8.7543961-.0238773.005824-.0480647.010728-.0719421.015019-.0465143.015019-.1007809.029731-.1615596.041072-5.9786359 1.467239-10.9113205 2.795939-15.5196456 4.180728-.3339726.100227-.6970941.03862-.9780404-.167352-.2812563-.205664-.4468472-.530866-.4468472-.876297v-40.504026c-.0362811-.5023617.2824968-.9697819.7767886-1.1199693 29.0137493-8.814778 58.8638254-13.2845407 88.7222745-13.2845407 29.858758 0 59.707904 4.4697627 88.718553 13.2845407.463282.1406858.779579.5636627.779579 1.04273v40.5818783c0 .345431-.165591.670633-.446537.875991-.192569.141299-.42359.21486-.657402.21486z" fill="#231f20"/><path d="m11.7589089 102.631839c.4947285.826761.6431168 1.80804.4379118 2.732683-.0676965.309651-.1752856.61253-.3230695.90125l-10.10853891 19.734228 34.23478771-5.984015-13.3041766-4.513328c-.288919-.097881-.514977-.282871-.763399-.445084-.1184689-.079106-.266555-.098189-.3777707-.192377-.0184352-.015391-.0220618-.03786-.0407992-.052943-.0933849-.080952-.1816322-.166829-.2662528-.255785-.0024177-.002462-.0051377-.004309-.0075554-.006771-.0649766-.068641-.124211-.14159-.1834455-.214847-.0205507-.024933-.0432169-.04771-.0625588-.07295-.1553393-.200688-.2892212-.416459-.3989258-.645772-.0480524-.09819-.0480524-.20746-.0852251-.30565-.1408329-.377059-.2447954-.762122-.259604-1.173348 0-.049249-.029315-.090494-.029315-.136049v-31.001081l-19.2209721 3.7087286z" fill="#fff"/><path d="m19.6900349 112.785003v.001878zm2.437419 1.006548c.0015456.00313.0027821.005948.0040185.009079-.0009273-.003131-.0024729-.005949-.0040185-.009079zm-2.1051139.570116c.0021638.005635.0046368.011897.0071097.018158-.0024729-.006261-.0046368-.01221-.0071097-.018158zm1.3663147 2.009339h.0003091zm.0006183.000313c.0030912.002505.0064915.005322.0092736.007514-.0027821-.002192-.0061824-.005009-.0092736-.007514zm.5270512.321532c.0021639.001565.0043277.002817.0068007.004696-.0021638-.001566-.0046368-.003131-.0068007-.004696zm-19.04679866-31.0120082 10.17378986 16.8549032c.0003092.000313.0006183.000939.0009274.001253.6522453 1.083878.8587381 2.364057.5817657 3.6051-.0899542.409507-.2343137.809935-.4284417 1.186256l-9.31196057 18.078414 28.50466437-4.954783-9.4464282-3.186201c-.3724908-.126171-.6541-.318714-.8800675-.473688-.0374036-.02536-.0744981-.050719-.11252-.075765l-.0136013-.005949c-.1190116-.046962-.3174673-.125544-.5183959-.295233-.0590421-.047588-.1081924-.099559-.1477598-.147773-.0785168-.071695-.1573426-.1484-.234932-.228548-.0040186-.004383-.0083463-.008453-.0120557-.01221-.1004643-.105507-.1795993-.20037-.2574978-.295859-.025657-.028177-.0544053-.061677-.0812988-.096115-.2077293-.267682-.3867104-.556028-.5316881-.856897-.0871721-.176889-.1217937-.346891-.1403409-.437997v-.000626c.0003091 0 .0018547.003757.0040185.00908-.1885638-.508753-.2908828-.956456-.3205584-1.398836-.0191655-.07827-.0374037-.182525-.0374037-.302747v-30.1870456zm-.98640506 42.3191572c-.34776111 0-.68006617-.167497-.88903196-.458034-.24636943-.342195-.28006361-.796159-.08655388-1.17154l10.33947876-20.072726c.104792-.203815.1826905-.420152.2318407-.643064.1511602-.677189.0395675-1.370972-.3134486-1.957994l-11.0037798-18.2293188c-.1885638-.3121395-.2136026-.6981655-.06738837-1.0328466.14683247-.3346811.44606158-.5751255.80124159-.6430636l19.66009478-3.7719718c.3217949-.0616765.6541.0250463.9063427.2366875.2525518.2113281.3984569.5259721.3984569.8581486v31.3961557c.0145287.066685.0272027.148712.0296757.24107.0095827.243262.0698613.499987.1941279.831224.0417314.109578.0649154.211954.079135.280832.0729526.140572.1567243.270813.2522427.39354.0068007.005635.0250388.026924.043277.048527.0429678.052284.0822262.10175.1242666.14746.0015456.001878.0034003.003444.0049459.005009.0723344.075452.1369406.137755.2046381.196927.0012365.000939.002473.001878.0037095.002817.0856265.035378.1972192.085784.316849.165306.05626.036317.1193207.079522.1817631.122101.1387954.094862.2584252.176889.3446699.206005l13.607815 4.59036c.4785193.161548.7876403.632106.7493092 1.141485-.0380218.509692-.4136038.927652-.9112886 1.013748l-35.01660711 6.086876c-.0618242.010958-.12426664.01628-.18578171.01628z" fill="#231f20"/><path d="m85.6387469 21.7850597c-.9399815-.5167883-1.7676849-.7250555-2.4957916-.7250555-2.2118485 0-3.5050577 1.9212727-4.2452274 2.93933-.9805005 1.3492362-13.2271695 20.5231653-13.2271695 20.5231653s-.1008338.0276241-.2397123.0276241c-.3696209 0-1.0105033-.1952311-.7407883-1.6236151.364672-1.9706237 6.6120383-28.0257507 6.6120383-28.0257507s1.590143-8.72239177-2.4481585-9.34036494c-.3640534-.05524823-.706146-.08163081-1.0262779-.08163081-3.2300844-.00031039-4.3064699 2.66246803-4.9730248 5.12411805-.7352208 2.7025075-7.9599945 28.2650562-7.9599945 28.2650562s-.850592 1.1549363-1.4958047 1.1549363c-.3649813 0-.6640804-.3690458-.7073833-1.5236717-.1193922-3.1975688-.6096425-30.72546465-.6096425-30.72546465s.4614849-7.76516967-4.6720698-7.76610082c-.1537252 0-.3117807.00682843-.4754036.02110606-5.6346307.49195755-5.0218952 5.78057878-5.0218952 5.78057878l.4871572 31.95178913s-1.0776227 1.7387673-2.0612163 1.7387673c-.4237495 0-.8301778-.3227986-1.1255652-1.2464993-.9770983-3.0749675-9.9179027-28.0229573-9.9179027-28.0229573s-1.1728891-2.60504708-3.9315909-2.60535746c-.5784026 0-1.226399.11453144-1.9483197.39170374-4.1638798 1.59878443-2.5737367 6.26943252-2.5737367 6.26943252l7.963397 27.5303789s.7321277 2.3368759.7321277 4.6672338c0 2.3368759-1.1029859 7.9911287-1.1029859 7.9911287l-.110113.2554455-.0188676.0440744-.7887308 1.8356069s-.144446 0-.0030931.0090011l-.2168236.5018898c-.5972702.0189334-.9396722.0630078-.9396722.0630078-7.2621998-11.7092103-16.91842947-13.6773509-20.80455234-13.9771812-.16269505-.0127257-.3253901-.0189334-.48777584-.0189334-1.26011339-.0003104-2.50043117.3780469-3.50474835 1.1496598-1.03988738.7989266-1.89480966 2.0280446-1.15433066 3.7484992 1.47044158 3.4402887 2.44784911.987019 8.81800992 7.1267112 6.36675847 6.1465207 8.57303947 12.2930414 9.55354007 14.503281.9801912 2.2167576 5.1443804 8.852132 9.55354 11.5515357 4.4026642 2.7059217 6.6120382 4.1814839 6.6120382 4.1814839l-1.8481044 63.690035h31.4848948l-2.2050438-62.2138519s8.0858822-4.6672339 10.5340406-21.6303026l.6096425-12.5385546s-.1193922-.9839151.7290347-2.5826995c.8611084-1.5925768 10.1665849-17.9407761 10.1665849-17.9407761s5.0184928-8.3567603 1.2254711-10.4478126" fill="#5cd8ff" mask="url(#a)" transform="translate(69)"/><path d="m82.8888068 72.4982556c-.4887407-.1958561-.9200192-.2790872-1.3010183-.2790872-1.5617841 0-2.2791243 1.3951263-2.687293 2.1179063-.5012325.8929551-6.6474978 13.4487821-6.6474978 13.4487821s-.096499.0386762-.219543.0386762c-.2332838 0-.5608806-.1386154-.5068537-.9409136.0855686-1.2227853 2.0242921-17.5354593 2.0242921-17.5354593s.3488328-5.4227064-2.1894958-5.5012963c-.0534024-.0018565-.1058678-.0024753-.1577087-.0024753-2.4031051-.0003094-2.9190154 1.8397473-3.1738476 3.5074632-.2504601 1.7008226-2.8365697 17.7743233-2.8365697 17.7743233s-.4656309.8121992-.873175.8121992c-.211111 0-.406295-.2175147-.513412-.8781034-.3110452-1.9393771-2.6238972-18.6511891-2.6238972-18.6511891s-.2638887-4.4087723-3.1048306-4.4090817c-.1983069 0-.4087933.0219681-.6330206.0677606-3.4364872.7100942-2.6748013 3.8821578-2.6748013 3.8821578l2.6429472 19.4123358s-.5743093 1.2063866-1.2048316 1.2063866c-.2439019 0-.4962358-.180695-.7273336-.6816285-.8282047-1.7979771-8.1643115-16.3250504-8.1643115-16.3250504s-.8022843-1.319321-2.3016095-1.3196304c-.4356506 0-.9297003.1110779-1.4805876.3985191-2.4493247 1.2763131-1.1295687 4.0018991-1.1295687 4.0018991l6.923566 16.1743681s.6217781 1.3672794.7932277 2.7883961c.1267915 1.0686995.0062459 3.3134636-.0602728 4.3728808l-.0031229.0250621c-.0221729.3391126-.0380999.5532238-.0380999.5532238l-.4094179 1.3675888c-.0474688.0030941-.0886916.0058788-.1330374.0126858 0 0 .0474687 0 .1299144-.0095917l-.0952498.3208574c-.3678827.0501243-.5743093.1036521-.5743093.1036521-4.9857795-6.1625039-10.6395567-6.9954336-13.3302849-6.9954336-.1808184 0-.3475836.003713-.5006079.0095917-.8900389.0358915-1.7560312.3626277-2.3946731.9780426-.582429.5606496-1.0193289 1.3691359-.4387736 2.3607926 1.1551768 1.9901202 1.5770865.4245094 5.9495199 3.7033192 4.3814899 3.2757155 6.1837407 6.8534145 6.9454266 8.1328215.7773007 1.276314 3.8265429 5.004385 6.7361894 6.331132 2.9162048 1.329841 4.3818023 2.062213 4.3818023 2.062213l3.2341204 34.065648h19.1139765l-5.3218082-35.162813s4.6388204-3.432586 4.9052075-13.9326984l-.5358971-7.6736586s-.1461538-.5909717.2632641-1.6250174c.4156638-1.0281669 4.9592345-11.6600872 4.9592345-11.6600872s2.4749329-5.4539568-.015927-6.4474698" fill="#5cd8ff"/><path d="m194.316893 76.9418678c-.607605-.4184322-1.149389-.5794397-1.628145-.5794397-1.171743 0-1.966256.9641726-2.425453 1.4799582-.646725.7320223-8.879975 11.2352636-8.879975 11.2352636s-.029806.0046804-.075446.0046804c-.193428 0-.672184-.0867443-.407036-.9938155.328175-1.1286124 5.454163-15.9877922 5.454163-15.9877922s1.425714-5.0090173-.892934-5.6053066c-.33128-.0848722-.633685-.124188-.90939-.124188-1.654846 0-2.373913 1.4066312-2.882165 2.7243338-.570968 1.5342514-6.245881 16.047702-6.245881 16.047702s-.534022.5934811-.90939.5934811c-.228201 0-.397722-.2199812-.352392-.926105.107115-1.8768604 1.39094-17.9885285 1.39094-17.9885285s.757256-4.7806114-2.558026-4.8217994c-.018629 0-.036947-.000312-.055265-.000312-3.265916 0-3.19699 3.0884728-3.19699 3.0884728l-1.542764 18.6949644s-.689571.8973982-1.256504.8973982c-.268252 0-.509494-.2015714-.636168-.7959885-.394307-1.8547062-4.189277-16.9388596-4.189277-16.9388596s-.587424-1.7654657-2.399683-1.7660897c-.271047 0-.569106.0396278-.89666.1304285-2.520458.6939547-1.861314 3.5125215-1.861314 3.5125215l3.075593 16.5391493s.296506 1.4016386.164243 2.7677059c-.097801 1.0019283-.643621 2.9961119-.930502 4.0011605l-.015835.0505488c-.094695.3360563-.160827.5547893-.160827.5547893l-.659455 1.1953869c-.008072-.0012481-.01273-.0018722-.01273-.0018722-.003415 0 .034153.0062406.026701.0062406 0 0-.004657-.000312-.013971-.0012481l-.154618.2820751c-.27943-.0199699-.466338-.0224662-.530296-.0224662-.016455 0-.024838.0003121-.024838.0003121-3.566459-7.2528249-9.082407-8.9583808-11.333992-9.3577792-.212677-.0374436-.427838-.0571015-.642068-.0571015-.61754 0-1.22856.1591353-1.757925.488639-.653866.406575-1.224835 1.0749432-.893555 2.1199317.659455 2.1015219 1.375417.7257817 4.738201 4.6792016 3.368995 3.9562281 4.299497 7.6721932 4.744411 9.0226588.451125 1.350466 2.498415 5.468326 4.917968 7.294949 2.413034 1.835048 3.614893 2.824496 3.614893 2.824496l-5.325315 39.644345 18.76683.14603 2.469851-37.349365s4.980995-2.260657 7.375399-12.031252l1.072391-7.285588s-.01273-.5831841.583698-1.4643568c.589908-.884605 6.955634-9.897903 6.955634-9.897903s3.403768-4.5933934 1.305869-6.0296674" fill="#5cd8ff"/><g fill="#231f20"><path d="m21.5302487 1.79611042h-20.40338782c-.60039198 0-1.08710394-.40206641-1.08710394-.89804238 0-.49623256.48671196-.89804238 1.08710394-.89804238h20.40338782c.6003919 0 1.0871039.40180982 1.0871039.89804238 0 .49597597-.486712.89804238-1.0871039.89804238" mask="url(#b)" transform="translate(58 149)"/><path d="m33.9139301 2h-32.82786017c-.5998209 0-1.08606993-.44771429-1.08606993-1 0-.55257143.48624903-1 1.08606993-1h32.82786017c.5998209 0 1.0860699.44742857 1.0860699 1 0 .55228571-.486249 1-1.0860699 1" mask="url(#c)" transform="translate(100 149)"/><path d="m174.919996 151h-19.839992c-.596471 0-1.080004-.447429-1.080004-1 0-.552286.483533-1 1.080004-1h19.839992c.596471 0 1.080004.447714 1.080004 1 0 .552571-.483533 1-1.080004 1"/></g></g></svg>