<svg height="98" viewBox="0 0 102 98" width="102" xmlns="http://www.w3.org/2000/svg" xmlns:xlink="http://www.w3.org/1999/xlink"><mask id="a" fill="#fff"><path d="m0 .11930292h101.878509v96.62906858h-101.878509z" fill="none"/></mask><g fill="none" fill-rule="evenodd" transform=""><path d="m101 50c0 26.5094613-22.3857651 48-50 48s-50-21.4905387-50-48 22.3857651-48 50-48 50 21.4905387 50 48" fill="#fff"/><path d="m87.0427625 14.495588c-19.8506875-19.10722997-52.1046458-19.17803289-72.0413958-.1547044-19.93852087 19.0183722-20.0093542 49.9266788-.1664584 69.0385109 7.3124792 7.0371022 16.309375 11.4863577 25.7496875 13.3573248.3584167.071511.6945209-.195416.6941667-.5462445l-.0152292-58.4449781c-.0003541-.4485365-.527-.7122774-.911625-.4559708l-14.2828333 9.5722007c-.384625.2577227-.9112708-.0060182-.9112708-.4559708l-.0053125-19.5532883c0-.1816095.0931458-.3525985.2503958-.4563248l25.19825-16.66913139c.1983333-.12956934.4593542-.12956934.6576875 0l25.2028542 16.65567879c.1568958.1037263.2503958.2747154.2503958.4559708l.0049583 19.5536424c0 .4499525-.5262916.7140474-.9109166.4563248l-14.2835417-9.5647664c-.3849792-.2563066-.9126875.0077883-.9126875.4563248l.0155833 58.4449781c0 .3508285.3375209.6177555.6959375.5458905 9.3567292-1.8575146 18.2781875-6.2518978 25.5517084-13.1966022 19.9385203-19.0201423 20.0189163-49.9284489.1696458-69.0388649" fill="#5cd8ff" mask="url(#a)"/></g></svg>