<svg height="55" viewBox="0 0 83 55" width="83" xmlns="http://www.w3.org/2000/svg" xmlns:xlink="http://www.w3.org/1999/xlink"><mask id="a" fill="#fff"><path d="m.18458087.0864044h55.71074783v43.9135956h-55.71074783z" fill="none"/></mask><mask id="b" fill="#fff"><path d="m.23505429.0046h8.63148857v1.8074h-8.63148857z" fill="none"/></mask><mask id="c" fill="#fff"><path d="m.006.04163636h1.8076v1.87792728h-1.8076z" fill="none"/></mask><g fill="none" fill-rule="evenodd" transform=""><path d="m39.8296591.0864044c-4.6604174 0-8.8550608 1.97226373-11.7897043 5.11971428-2.9346435-3.14745055-7.1295305-5.11971428-11.7899478-5.11971428-8.87283483 0-16.06542613 7.14202197-16.06542613 15.9521758 0 4.3086154 1.72309565 8.2151868 4.51871304 11.0853407l.02702609.0285275c.11297391.1104835 7.9162087 7.553978 23.3096348 16.8476483 15.3931826-9.2936703 23.1966609-16.7371648 23.3093913-16.8476483l.0272696-.0285275c2.7956173-2.8701539 4.518713-6.7767253 4.518713-11.0853407 0-8.81015383-7.1928348-15.9521758-16.0656696-15.9521758" fill="#5cd8ff" mask="url(#a)" transform="translate(16 11)"/><g fill="#231f20"><path d="m55.8670138 31c-.2021118 0-.406728-.0497665-.5915588-.154138-1.6714916-.9451031-3.880946-1.0262041-5.6293251-.2059781-.5569969.2610439-1.2384666.0576002-1.5224749-.4548107-.2837579-.51195-.0626121-1.1391004.4941344-1.4003746 2.4351082-1.142326 5.5138685-1.0296601 7.8427867.2870791.5327034.3011335.699001.9423383.3716652 1.4321699-.2138828.319796-.5850471.4960524-.9652275.4960524"/><path d="m31.133013 31c-.3801859 0-.751606-.1762564-.9652414-.4960524-.3273406-.4898316-.1610405-1.1310364.3714201-1.4321699 2.3289518-1.3167392 5.4077564-1.4294051 7.8428998-.2870791.5567545.2612742.7781539.8884246.4941415 1.4003746-.2840124.5124109-.9654919.7156242-1.5222463.4548107-1.748154-.8204564-3.9578907-.7393554-5.6296568.2059781-.184583.1043715-.3892022.154138-.5913169.154138"/><path d="m65.0234042 53c-.2580979 0-.5157634-.1182569-.7077156-.3532611l-3.046376-3.7261c-.3720154-.4549118-.3566679-1.1745178.0339375-1.6072879.3910377-.4327701 1.009262-.4151574 1.3810613.0397544l3.046376 3.7261c.3720154.4549118.3566679 1.1745178-.0339375 1.6072879-.189142.2095916-.43146.3135067-.6733457.3135067"/><path d="m68.1111384 54c-.2273912 0-.4549791-.0867513-.628473-.2604505l-.2222769-.2220911c-.3471847-.3472017-.3471847-.9100029 0-1.2572046.3471846-.3470051.9099582-.3470051 1.2571428 0l.2220802.2222878c.3471847.3472017.3471847.9100029 0 1.2570079-.173494.1736992-.4010819.2604505-.6284731.2604505"/><path d="m7.70454 1.812h-6.30771429c-.64157142 0-1.16177142-.4046-1.16177142-.9038 0-.499.5202-.9036 1.16177142-.9036h6.30771429c.64182857 0 1.16202857.4046 1.16202857.9036 0 .4992-.5202.9038-1.16202857.9038" mask="url(#b)" transform="translate(74 29)"/><path d="m70.2390576 14c-.3169794 0-.634233-.120923-.8760806-.3630431-.4839693-.4836918-.4839693-1.268183 0-1.752149l2.5218506-2.52183336c.4839694-.48396605 1.2684659-.48396605 1.7521611 0 .4839694.48396605.4839694 1.26818296.0002742 1.75214906l-2.5221248 2.5218333c-.2418476.2421201-.5591012.3630431-.8760805.3630431"/><path d="m75.0542637 9c-.2699382 0-.539643-.10289814-.7454213-.30869443-.4117899-.41182589-.4117899-1.0793805 0-1.4912064l.8914726-.89131724c.4117898-.4118259 1.079286-.41159257 1.4908426 0 .4117899.41159257.4117899 1.07938051 0 1.49097308l-.8914726.89155056c-.2057782.20579629-.4757164.30869443-.7454213.30869443"/><path d="m44 10c-.5523346 0-1-.43525969-1-.97228796v-3.05542408c0-.53702827.4476654-.97228796 1-.97228796s1 .43525969 1 .97228796v3.05542408c0 .53702827-.4476654.97228796-1 .97228796"/><path d="m.9098 1.91956364c-.4992 0-.9038-.36781819-.9038-.82163637v-.23472727c0-.45381818.4046-.82163636.9038-.82163636s.9038.36781818.9038.82163636v.23472727c0 .45381818-.4046.82163637-.9038.82163637" mask="url(#c)" transform="translate(43)"/><path d="m11.176492 31h-.352984c-.454852 0-.823508-.4477149-.823508-1.0001107 0-.5521744.368656-.9998893.823508-.9998893h.352984c.454852 0 .823508.4477149.823508.9998893 0 .5523958-.368656 1.0001107-.823508 1.0001107"/><path d="m6.92298984 31h-5.84621801c-.59463163 0-1.07677183-.4477149-1.07677183-1.0001107 0-.5521744.4821402-.9998893 1.07677183-.9998893h5.84621801c.59486996 0 1.07701016.4477149 1.07701016.9998893 0 .5523958-.4821402 1.0001107-1.07701016 1.0001107"/><path d="m20.0487474 52c-.2682788 0-.5367897-.1023487-.741712-.307046-.4093805-.4096269-.4093805-1.0736168 0-1.4832436l2.9027953-2.9026644c.4096126-.4093947 1.0733473-.4093947 1.4829599 0 .4096125.4096269.4096125 1.0736168 0 1.4830116l-2.9025633 2.9028964c-.2046902.2046973-.4732011.307046-.7414799.307046"/><path d="m42.8955886 42c-11.4307437 0-16.3652804-4.8672247-16.5695928-5.0743778-.4325754-.4384865-.4350193-1.1516814-.0051323-1.5931592.4289095-.4402315 1.1251849-.4434721 1.5584934-.0084756.0698964.0688017 4.6041175 4.4230048 15.0162317 4.4230048.6100046 0 1.1044114.5042968 1.1044114 1.1265039s-.4944068 1.1265039-1.1044114 1.1265039"/><path d="m44.1044058 42c-.6100015 0-1.1044058-.5043065-1.1044058-1.1265254 0-.622219.4944043-1.1265255 1.1044058-1.1265255 10.5296138 0 14.9692324-4.3754756 15.0129785-4.4198486.4325732-.4379962 1.132022-.4360019 1.5616625.0052351.4298849.4414862.4276854 1.1546948-.0051322 1.5931896-.2043114.207157-5.1390674 5.0744748-16.5695088 5.0744748"/><path d="m20.9968866 12c-.2566194 0-.5134609-.0978999-.7092553-.2936998l-2.9937454-2.9938285c-.3918109-.3918217-.3918109-1.02695023-.000222-1.41877193.3918108-.39159969 1.0269217-.39159969 1.4185105 0l2.9939675 2.99382853c.3918108.3918217.3918108 1.0269502 0 1.4187719-.1957944.1957999-.4526359.2936998-.7092553.2936998"/></g></g></svg>