<?xml version="1.0" encoding="UTF-8"?>
<svg width="83px" height="55px" viewBox="0 0 83 55" version="1.1" xmlns="http://www.w3.org/2000/svg" xmlns:xlink="http://www.w3.org/1999/xlink">
    <!-- Generator: sketchtool 50.2 (55047) - http://www.bohemiancoding.com/sketch -->
    <title>2BFA5332-4188-422A-B94E-E463B39A0490</title>
    <desc>Created with sketchtool.</desc>
    <defs>
        <polygon id="path-1" points="0.18458087 0.0864043956 55.8953287 0.0864043956 55.8953287 44 0.18458087 44"></polygon>
        <polygon id="path-3" points="0.235054286 0.0046 8.86654286 0.0046 8.86654286 1.812 0.235054286 1.812"></polygon>
        <polygon id="path-5" points="0.006 0.0416363636 1.8136 0.0416363636 1.8136 1.91956364 0.006 1.91956364"></polygon>
    </defs>
    <g id="Future-Project-Desktop" stroke="none" stroke-width="1" fill="none" fill-rule="evenodd">
        <g id="Homepage-" transform="translate(-1019.000000, -1977.000000)">
            <g id="homepage/meaningful-impact" transform="translate(167.000000, 1904.000000)">
                <g id="98" transform="translate(849.000000, 73.000000)">
                    <g id="elements/heart-icon" transform="translate(3.000000, 0.000000)">
                        <g id="heart-icon">
                            <g id="Group-3" transform="translate(16.000000, 11.000000)">
                                <mask id="mask-2" fill="white">
                                    <use xlink:href="#path-1"></use>
                                </mask>
                                <g id="Clip-2"></g>
                                <path d="M39.8296591,0.0864043956 C35.1692417,0.0864043956 30.9745983,2.05866813 28.0399548,5.20611868 C25.1053113,2.05866813 20.9104243,0.0864043956 16.250007,0.0864043956 C7.37717217,0.0864043956 0.18458087,7.22842637 0.18458087,16.0385802 C0.18458087,20.3471956 1.90767652,24.253767 4.70329391,27.1239209 L4.73032,27.1524484 C4.84329391,27.2629319 12.6465287,34.7064264 28.0399548,44.0000967 C43.4331374,34.7064264 51.2366157,27.2629319 51.3493461,27.1524484 L51.3766157,27.1239209 C54.172233,24.253767 55.8953287,20.3471956 55.8953287,16.0385802 C55.8953287,7.22842637 48.7024939,0.0864043956 39.8296591,0.0864043956" id="Fill-1" fill="#5CD8FF" mask="url(#mask-2)"></path>
                            </g>
                            <path d="M55.8670138,31 C55.664902,31 55.4602858,30.9502335 55.275455,30.845862 C53.6039634,29.9007589 51.394509,29.8196579 49.6461299,30.6398839 C49.089133,30.9009278 48.4076633,30.6974841 48.123655,30.1850732 C47.8398971,29.6731232 48.0610429,29.0459728 48.6177894,28.7846986 C51.0528976,27.6423726 54.1316579,27.7550385 56.4605761,29.0717777 C56.9932795,29.3729112 57.1595771,30.014116 56.8322413,30.5039476 C56.6183585,30.8237436 56.2471942,31 55.8670138,31" id="Fill-4" fill="#231F20"></path>
                            <path d="M31.133013,31 C30.7528271,31 30.381407,30.8237436 30.1677716,30.5039476 C29.840431,30.014116 30.0067311,29.3729112 30.5391917,29.0717777 C32.8681435,27.7550385 35.9469481,27.6423726 38.3820915,28.7846986 C38.938846,29.0459728 39.1602454,29.6731232 38.876233,30.1850732 C38.5922206,30.6974841 37.9107411,30.9006974 37.3539867,30.6398839 C35.6058327,29.8194275 33.396096,29.9005285 31.7243299,30.845862 C31.5397469,30.9502335 31.3351277,31 31.133013,31" id="Fill-6" fill="#231F20"></path>
                            <path d="M65.0234042,53 C64.7653063,53 64.5076408,52.8817431 64.3156886,52.6467389 L61.2693126,48.9206389 C60.8972972,48.4657271 60.9126447,47.7461211 61.3032501,47.313351 C61.6942878,46.8805809 62.3125121,46.8981936 62.6843114,47.3531054 L65.7306874,51.0792054 C66.1027028,51.5341172 66.0873553,52.2537232 65.6967499,52.6864933 C65.5076079,52.8960849 65.2652899,53 65.0234042,53" id="Fill-8" fill="#231F20"></path>
                            <path d="M68.1111384,54 C67.8837472,54 67.6561593,53.9132487 67.4826654,53.7395495 L67.2603885,53.5174584 C66.9132038,53.1702567 66.9132038,52.6074555 67.2603885,52.2602538 C67.6075731,51.9132487 68.1703467,51.9132487 68.5175313,52.2602538 L68.7396115,52.4825416 C69.0867962,52.8297433 69.0867962,53.3925445 68.7396115,53.7395495 C68.5661175,53.9132487 68.3385296,54 68.1111384,54" id="Fill-10" fill="#231F20"></path>
                            <g id="Group-14" transform="translate(74.000000, 29.000000)">
                                <mask id="mask-4" fill="white">
                                    <use xlink:href="#path-3"></use>
                                </mask>
                                <g id="Clip-13"></g>
                                <path d="M7.70454,1.812 L1.39682571,1.812 C0.755254286,1.812 0.235054286,1.4074 0.235054286,0.9082 C0.235054286,0.4092 0.755254286,0.0046 1.39682571,0.0046 L7.70454,0.0046 C8.34636857,0.0046 8.86656857,0.4092 8.86656857,0.9082 C8.86656857,1.4074 8.34636857,1.812 7.70454,1.812" id="Fill-12" fill="#231F20" mask="url(#mask-4)"></path>
                            </g>
                            <path d="M70.2390576,14 C69.9220782,14 69.6048246,13.879077 69.362977,13.6369569 C68.8790077,13.1532651 68.8790077,12.3687739 69.362977,11.8848079 L71.8848276,9.36297454 C72.368797,8.87900849 73.1532935,8.87900849 73.6369887,9.36297454 C74.1209581,9.84694059 74.1209581,10.6311575 73.6372629,11.1151236 L71.1151381,13.6369569 C70.8732905,13.879077 70.5560369,14 70.2390576,14" id="Fill-15" fill="#231F20"></path>
                            <path d="M75.0542637,9 C74.7843255,9 74.5146207,8.89710186 74.3088424,8.69130557 C73.8970525,8.27947968 73.8970525,7.61192507 74.3088424,7.20009917 L75.200315,6.30878193 C75.6121048,5.89695603 76.279601,5.89718936 76.6911576,6.30878193 C77.1029475,6.7203745 77.1029475,7.38816244 76.6911576,7.79975501 L75.799685,8.69130557 C75.5939068,8.89710186 75.3239686,9 75.0542637,9" id="Fill-17" fill="#231F20"></path>
                            <path d="M44,10 C43.4476654,10 43,9.56474031 43,9.02771204 L43,5.97228796 C43,5.43525969 43.4476654,5 44,5 C44.5523346,5 45,5.43525969 45,5.97228796 L45,9.02771204 C45,9.56474031 44.5523346,10 44,10" id="Fill-19" fill="#231F20"></path>
                            <g id="Group-23" transform="translate(43.000000, 0.000000)">
                                <mask id="mask-6" fill="white">
                                    <use xlink:href="#path-5"></use>
                                </mask>
                                <g id="Clip-22"></g>
                                <path d="M0.9098,1.91956364 C0.4106,1.91956364 0.006,1.55174545 0.006,1.09792727 L0.006,0.8632 C0.006,0.409381818 0.4106,0.0415636364 0.9098,0.0415636364 C1.409,0.0415636364 1.8136,0.409381818 1.8136,0.8632 L1.8136,1.09792727 C1.8136,1.55174545 1.409,1.91956364 0.9098,1.91956364" id="Fill-21" fill="#231F20" mask="url(#mask-6)"></path>
                            </g>
                            <path d="M11.176492,31 L10.823508,31 C10.368656,31 10,30.5522851 10,29.9998893 C10,29.4477149 10.368656,29 10.823508,29 L11.176492,29 C11.631344,29 12,29.4477149 12,29.9998893 C12,30.5522851 11.631344,31 11.176492,31" id="Fill-24" fill="#231F20"></path>
                            <path d="M6.92298984,31 L1.07677183,31 C0.482140197,31 0,30.5522851 0,29.9998893 C0,29.4477149 0.482140197,29 1.07677183,29 L6.92298984,29 C7.5178598,29 8,29.4477149 8,29.9998893 C8,30.5522851 7.5178598,31 6.92298984,31" id="Fill-26" fill="#231F20"></path>
                            <path d="M20.0487474,52 C19.7804686,52 19.5119577,51.8976513 19.3070354,51.692954 C18.8976549,51.2833271 18.8976549,50.6193372 19.3070354,50.2097104 L22.2098307,47.307046 C22.6194433,46.8976513 23.283178,46.8976513 23.6927906,47.307046 C24.1024031,47.7166729 24.1024031,48.3806628 23.6927906,48.7900576 L20.7902273,51.692954 C20.5855371,51.8976513 20.3170262,52 20.0487474,52" id="Fill-28" fill="#231F20"></path>
                            <path d="M42.8955886,42 C31.4648449,42 26.5303082,37.1327753 26.3259958,36.9256222 C25.8934204,36.4871357 25.8909765,35.7739408 26.3208635,35.332463 C26.749773,34.8922315 27.4460484,34.8889909 27.8793569,35.3239874 C27.9492533,35.3927891 32.4834744,39.7469922 42.8955886,39.7469922 C43.5055932,39.7469922 44,40.251289 44,40.8734961 C44,41.4957032 43.5055932,42 42.8955886,42" id="Fill-30" fill="#231F20"></path>
                            <path d="M44.1044058,42 C43.4944043,42 43,41.4956935 43,40.8734746 C43,40.2512556 43.4944043,39.7469491 44.1044058,39.7469491 C54.6340196,39.7469491 59.0736382,35.3714735 59.1173843,35.3271005 C59.5499575,34.8891043 60.2494063,34.8910986 60.6790468,35.3323356 C61.1089317,35.7738218 61.1067322,36.4870304 60.6739146,36.9255252 C60.4696032,37.1326822 55.5348472,42 44.1044058,42" id="Fill-32" fill="#231F20"></path>
                            <path d="M20.9968866,12 C20.7402672,12 20.4834257,11.9021001 20.2876313,11.7063002 L17.2938859,8.7124717 C16.902075,8.32065 16.902075,7.68552147 17.2936639,7.29369977 C17.6854747,6.90210008 18.3205856,6.90210008 18.7121744,7.29369977 L21.7061419,10.2875283 C22.0979527,10.67935 22.0979527,11.3144785 21.7061419,11.7063002 C21.5103475,11.9021001 21.253506,12 20.9968866,12" id="Fill-34" fill="#231F20"></path>
                        </g>
                    </g>
                </g>
            </g>
        </g>
    </g>
</svg>