<svg height="69" viewBox="0 0 66 69" width="66" xmlns="http://www.w3.org/2000/svg" xmlns:xlink="http://www.w3.org/1999/xlink"><mask id="a" fill="#fff"><path d="m.20569493.20560176h62.44877417v62.41113834h-62.44877417z" fill="none"/></mask><mask id="b" fill="#fff"><path d="m.20569493.20560176h62.44877417v62.41113834h-62.44877417z" fill="none"/></mask><mask id="c" fill="#fff"><path d="m.09227834.26627313h10.96786176v3.11655066h-10.96786176z" fill="none"/></mask><mask id="d" fill="#fff"><path d="m0 .01653568h65.8479263v57.12883872h-65.8479263z" fill="none"/></mask><g fill="none" fill-rule="evenodd" transform=""><path d="m62.6544691 31.4112317c0 17.2341939-13.9798341 31.20563-31.2243871 31.20563s-31.22438707-13.9714361-31.22438707-31.20563c0-17.2344978 13.97983407-31.20562994 31.22438707-31.20562994s31.2243871 13.97113214 31.2243871 31.20562994" fill="#4598fa" mask="url(#a)" transform="translate(2.129032 6.116987)"/><path d="m62.6544691 31.4112317c0 17.2341939-13.9798341 31.20563-31.2243871 31.20563s-31.22438707-13.9714361-31.22438707-31.20563c0-17.2344978 13.97983407-31.20562994 31.22438707-31.20562994s31.2243871 13.97113214 31.2243871 31.20562994" fill="#5cd8ff" mask="url(#b)" transform="translate(1.824885 6.116987)"/><g fill="#fff"><path d="m32.6392203 17.7114489c.3947834-.0051674.7862212-.0051674 1.124129 0 .0231152 0 .0444055.0012159.0653917.0039515 1.0289309.0231014 2.0627281.1024362 3.0971337.2258459v-5.9409912h-7.0988019v5.8969163c.9173088-.0990925 1.8337051-.1620133 2.7473641-.181771.0209861-.0027356.0431889-.0039515.0647834-.0039515"/><path d="m28.7063806 4.8825859 1.0751613 5.7121057h7.2797696l1.2074655-5.53884579c-1.7369862-.30031718-3.5229401-.45868281-5.3447835-.45868281-1.4304055 0-2.838.09848458-4.2176129.2854229"/><path d="m10.6440664 3.38282379.4160737-1.90798679-1.20929033-1.20856387h-8.54076498l-1.21780645 1.21798678.32270046 1.71588106c1.48058986-.20426432 2.99159447-.31247577 4.52753917-.31247577 1.9441106 0 3.84898618.17052423 5.70154843.49515859" mask="url(#c)" transform="translate(27.981567 .037692)"/><path d="m55.1000848 2.87252775c0-.33709691-.2734286-.61066519-.6110323-.6097533h-14.1717511l-.3123595 1.43137004c5.7313549 1.26023789 10.9076406 4.01567842 15.0957512 7.83681941z"/><path d="m39.6491502 5.32771189-1.1721843 5.37865641 5.6458894 2.0450749h4.7951889c.3880922 0 .7025807.3146035.7025807.7024625v1.336837l2.0043318 1.5231674c.1742765.1322247.2770783.3395287.2770783.5589912v.8562687l1.9775668 1.5021939c.1757973.1328326.2776867.3401365.2776867.5595991v.8748106l.9443779.7164449-.0006083-7.5355903c-4.155871-4.18711454-9.4872719-7.20639648-15.4519079-8.51891631"/><path d="m26.7837733 2.26192335h-14.0987558c-.3366912 0-.6110322.27356828-.6110322.6106652v7.51096915c4.2306912-3.46884581 9.3382396-5.9063392 14.9348571-6.92522907z"/><path d="m13.0169641 20.6653176v-.8748106c0-.2194625.1024977-.4270704.2776866-.559903l1.9781751-1.5018899v-.8565727c0-.2191586.1018894-.4267665.2770783-.5595991l2.0034194-1.5225595v-1.336837c0-.3869471.3147926-.7024625.7028848-.7024625h4.7942765l5.3441751-1.9353437-1.0763779-5.71392947c-5.7921843 1.05262996-11.0320368 3.70685022-15.2441751 7.48452427v8.7955242z"/><path d="m33.5127622 53.7661374c0-.1349603.0322396-.2273656.090636-.3978898.084553-.250467.2478801-.7407621.3172258-1.3037049-.311447.0027357-.620765.0063833-.9331245.0063833-7.5312995 0-15.2508663-.845022-21.0187189-2.5523921-.6040368.5629428-.8482672 1.319511-.682811 2.1323128.1684977.8273921.6989309 1.4353216 1.4942765 1.7113216 3.5314562 1.2319691 10.0316958 1.845674 19.8723871 1.8794141l1.0988848.0012158c.1493364-.0012158.2907649-.0024317.4407096-.0045594l-.5994746-1.147163c-.0523134-.1003084-.0799908-.2112555-.0799908-.3249384"/><path d="m36.158906 21.7885586c.387788 0 .7028848.3152114.7028848.7024625s-.3150968.7024626-.7028848.7024626h-1.5906913c.0015208-.0045595.0015208-.0106388.0036498-.0158062h-.0732995v-1.3638898c-.0033456-.008511-.0048664-.0167181-.0079079-.0252291zm-2.4763687-2.6727621c-.3397327-.0042555-.6761198-.0033436-.963235 0-.0179447.0018238-.037106.0030396-.0553548.0030396-3.3510968.0680881-6.7490323.6960793-10.1001291 1.8660397-.4528755.1574537-.8138986.4410528-1.0590414.8036828h9.675235c0 .0006079 0 .0021277-.0006083.0027357h.0343687v1.396718h-.1125346c0 .0021278 0 .0042555.0015207.0060793h-9.955659c-.0352811 19.5762423-4.6528479 23.0520793-7.7816129 25.2591674 5.6747834 1.5152643 13.1847927 2.2368767 20.4353641 2.1772996-.0559631-.1571498-.1280461-.3091322-.2238525-.4553392l-2.6938341-2.0608811c-.0958065-.0741674-.1718434-.172044-.2192904-.284207l-2.3027004-5.4364097c-.0361936-.08663-.0553549-.1790353-.0553549-.2735683v-10.1095639c0-.387859.315401-.7030705.7028848-.7030705.3880922 0 .7028848.3146036.7028848.7030705v9.9673084l2.173742 5.1333568 2.6330046 2.0158943c.0535299.0404273.1006728.0893656.1408202.1434714.2892443.3972819.4838987.845022.5933917 1.3380528 6.7037143-.1513744 13.0500553-.9772467 17.3610415-2.457555-3.1175115-2.2532908-7.3600645-6.2735287-7.3600645-25.1749692 0-.9237489-.5419908-1.6863965-1.4142857-1.9912731-3.3510968-1.1699604-6.7499447-1.7973436-10.0998249-1.8660397-.0191613 0-.0374101-.0012158-.0568756-.0030396z"/><path d="m34.9731871 53.7006938.7974747 1.5259031c8.7171705-.1097313 14.5707926-.7203965 17.8522396-1.8636079.7956498-.276304 1.3266912-.8842335 1.4942765-1.7116256.1672811-.8258722-.0839447-1.5924713-.7095761-2.1587577-.1292626-.1170264-.2789032-.2319251-.427023-.3468238-4.4889124 1.7538767-11.3699447 2.7244362-18.6570138 2.8961762-.0462304.517652-.1572443 1.0672203-.3503779 1.6587357"/><path d="m45.3599447 21.8968916c.8722949.3045727 1.4142857 1.0672203 1.4142857 1.9909692 0 18.9017445 4.242553 22.9219824 7.3600645 25.1752731-4.3109861 1.4803084-10.6573272 2.3061806-17.3610414 2.4575551-.1094931-.4930309-.3041475-.9410749-.5933917-1.3380529-.0401475-.0544097-.0872904-.103348-.1405162-.1434713l-2.6333087-2.0161983-2.173742-5.1330528v-9.9676124c0-.3884669-.3147926-.7030705-.7028848-.7030705-.3874838 0-.7028848.3152115-.7028848.7030705v10.1095639c0 .094533.0191613.1869383.0553549.2738722l2.3027004 5.4361058c.047447.1124669.1234839.2103436.2192904.284207l2.6938341 2.061185c.0958064.1459031.1678894.2978855.2238525.4553392-7.2505714.0592732-14.7605806-.6620352-20.4353641-2.1772995 3.128765-2.2073921 7.7463318-5.6829251 7.781613-25.2591674h9.9556589c-.0015207-.0021278-.0015207-.0042555-.0015207-.0060793h.1125346v-1.397022h-.0343687c.0006083-.000608.0006083-.0018238.0006083-.0024318h-9.675235c.245447-.3629339.60647-.646229 1.0590414-.8036828 3.3510968-1.1702643 6.7490323-1.7979515 10.1001291-1.8660396.0182488 0 .0374101-.0012159.0553548-.0033436.2871152-.0033436.6235023-.0039516.963235 0 .0194655.0021277.0377143.0033436.0568756.0033436 3.3498802.068696 6.7487281.6957753 10.0998249 1.8660396zm-10.087659 34.2580441-1.0988848-.0015198c-9.8406912-.0337401-16.3409309-.647445-19.8723871-1.8791102-.7953456-.2763039-1.3257788-.8842335-1.4942765-1.7116255-.1654562-.8128018.0787742-1.5693701.6828111-2.1323128 5.7678525 1.70737 13.4874193 2.552696 21.0187189 2.552696.3123594 0 .6216774-.0039515.9331244-.0066872-.0693456.5629427-.2326728 1.0532379-.3172258 1.3037049-.0583963.1705242-.0906359.2629295-.0906359.3978898 0 .1136828.0276774.22463.0799907.3252423l.5994747 1.146859c-.1499447.0021278-.2913733.0033437-.4407097.0048635zm-3.9244147-43.2429383h7.0988018v5.9412951c-1.0344055-.1234097-2.0682028-.2027445-3.0971336-.2258458-.0209862-.0027357-.0422765-.0042555-.0653917-.0042555-.3379079-.0051674-.7293457-.0051674-1.1241291 0-.0215944 0-.0437972.0015198-.0647834.0042555-.913659.0197577-1.8303594.0823744-2.747364.181467zm25.2743502 9.3821762-.9440737-.716445v-.8748105c0-.2194626-.1018894-.4270705-.2776867-.5599031l-1.9775668-1.5018899v-.8562687c0-.2194626-.1028018-.4270705-.2770783-.5589912l-2.0043318-1.5231674v-1.336837c0-.387859-.3144885-.7024626-.7028848-.7024626h-4.7948848l-5.6458894-2.0450749 1.1721843-5.37865634c-.4565253-.10061233-.9167004-.1914978-1.3802212-.27174449l-1.2077696 5.53854183h-7.2797696l-1.0751612-5.71210571c-.465954.06322467-.9288664.13556828-1.3878249.21885463l1.0760737 5.71392948-5.3441751 1.9356476h-4.7942765c-.3880922 0-.7028848.3152115-.7028848.7024626v1.336837l-2.0034194 1.5222555c-.1751889.1328326-.2767741.3404405-.2767741.5599031v.8562687l-1.9784793 1.5021938c-.175189.1328326-.2776866.3401366-.2776866.5595991v.8748106l-.9428572.7164449v-8.7958282c-.482682.4328459-.9513733.8805859-1.4063779 1.3420045v8.8702995c0 .267185.1514655.5103568.3908295.6292071.0985438.0489383.2056037.0732555.3120553.0732555.1508572 0 .3008019-.0486344.4251982-.1431674l2.3486267-1.7842732c.1751889-.1328326.2776866-.3404405.2776866-.5595991v-.8751145l1.9775669-1.5018899c.1757972-.1328326.2776866-.3404405.2776866-.5595991v-.8565727l2.0040276-1.5225595c.1745807-.1328326.2776867-.3401365.2776867-.5595991v-.9824141h4.2139631c.0818157 0 .1627189-.0145903.2399724-.0422511l5.0080921-1.8140617v5.7820177c-2.1123041.3203788-4.2273456.8444141-6.3220092 1.5766652-1.4319262.500326-2.3565345 1.801903-2.3565345 3.3177753 0 19.2631586-4.3882397 22.3569119-7.2922397 24.4035066-.5018433.353511-.9766175.6878722-1.4012073 1.0723877-.9924332.8994317-1.4088111 2.1681806-1.1417696 3.4797885.2664331 1.3122159 1.1445069 2.3180353 2.4085437 2.7581762 3.6783595 1.2812115 10.3294563 1.9228811 20.3325623 1.9593569h1.1043594c.0006083 0 .0012166-.0012159.0027373-.0012159.5064056-.0027357.9991245-.0066872 1.4888019-.0121586.037106.0066872.0726912.0151982.1107097.0151982.0462304 0 .0936774-.007903.1405161-.0164141 9.0334839-.1003083 15.12647-.7380264 18.5885806-1.9447665 1.2640369-.4401409 2.1421106-1.4459603 2.4097604-2.7581762.2670415-1.3131277-.1493364-2.5803568-1.1417696-3.4797885-.4251981-.3845155-.8987558-.7188767-1.4012074-1.0723877-2.9033917-2.0472026-7.291023-5.140348-7.291023-24.4035066 0-1.5152643-.9249124-2.8174493-2.3565346-3.3177753-1.9793917-.6912159-3.9764239-1.1939736-5.971023-1.518608v-5.9920572l5.4290322 1.9666519c.0766452.0276608.1572443.0422511.23906.0422511h4.2160921v.9827181c0 .2191586.1018894.4267665.2770784.5586872l2.0034193 1.5234714v.8562687c0 .2194626.1024977.4267665.2776867.5595991l1.9784792 1.5021939v.8748105c0 .2191586.1015853.4267666.2773825.5595992l2.349235 1.7842731c.2116867.1604934.4978894.1875462.7372535.069304.2387557-.1188503.389917-.3620221.389917-.6292071v-7.4395374c-.4519631-.5191718-.9212626-1.0231454-1.4060737-1.5119207z"/></g><path d="m43.8392074 20.9849974c.8722949.3045726 1.4142857 1.0672202 1.4142857 1.9909691 0 18.9017445 4.242553 22.9219824 7.3600645 25.1752731-4.3109862 1.4803084-10.6573272 2.3061807-17.3610415 2.4575551-.1094931-.4930308-.3041474-.9410749-.5933917-1.3380528-.0401474-.0544097-.0872903-.1033481-.1405161-.1434714l-2.6333088-2.0161983-2.1737419-5.1330528v-9.9676124c0-.3884669-.3147926-.7030704-.7028848-.7030704-.3874839 0-.7028848.3152114-.7028848.7030704v10.1095639c0 .0945331.0191613.1869384.0553549.2738723l2.3027004 5.4361057c.047447.112467.1234839.2103436.2192903.284207l2.6938341 2.0611851c.0958065.1459031.1678894.2978854.2238526.4553392-7.2505715.0592731-14.7605807-.6620353-20.4353641-2.1772996 3.128765-2.2073921 7.7463318-5.6829251 7.7816129-25.2591674h9.955659c-.0015207-.0021277-.0015207-.0042555-.0015207-.0060793h.1125345v-1.397022h-.0343686c.0006083-.0006079.0006083-.0018238.0006083-.0024317h-9.6752351c.245447-.3629339.6064701-.6462291 1.0590415-.8036828 3.3510968-1.1702644 6.7490323-1.7979516 10.1001291-1.8660397.0182488 0 .0374101-.0012158.0553548-.0033436.2871152-.0033436.6235023-.0039515.963235 0 .0194655.0021278.0377143.0033436.0568756.0033436 3.3498802.068696 6.7487281.6957753 10.0998249 1.8660397zm10.1414931 28.1608149c.1481198.1148987.2974562.2297974.427023.3468238.6256313.5662864.8768571 1.3328855.709576 2.1587577-.1678894.8273921-.6989308 1.4353216-1.4942765 1.7116256-3.281447 1.1432114-9.1350691 1.7538766-17.8522396 1.8633039l-.7974746-1.5255991c.1928294-.5915154.3041474-1.1413876.3503778-1.6587357 7.2870692-.17174 14.1681014-1.1422995 18.6570139-2.8961762zm-20.2291521 6.0972291-1.0988848-.0015198c-9.8406912-.0337401-16.3409309-.6474449-19.8723871-1.8791101-.7953456-.276304-1.3257788-.8842335-1.4942765-1.7116256-.1654562-.8128018.0787742-1.56937.6828111-2.1323128 5.7678525 1.7073701 13.4874193 2.5526961 21.0187189 2.5526961.3123594 0 .6216774-.0039516.9331244-.0066873-.0693456.5629428-.2326728 1.0532379-.3172258 1.3037049-.0583963.1705242-.090636.2629295-.090636.3978899 0 .1136828.0276774.2246299.0799908.3252422l.5994747 1.1468591c-.1499447.0021277-.2913733.0033436-.4407097.0048634zm-3.9244148-43.2429383h7.0988019v5.9412951c-1.0344055-.1234097-2.0682028-.2027445-3.0971337-.2258458-.0209861-.0027357-.0422765-.0042555-.0653917-.0042555-.3379078-.0051674-.7293456-.0051674-1.124129 0-.0215945 0-.0437972.0015198-.0647834.0042555-.913659.0197577-1.8303595.0823745-2.7473641.181467zm25.2743503 9.3821762-.9440738-.7164449v-.8748106c0-.2194626-.1018894-.4270705-.2776866-.5599031l-1.9775668-1.5018899v-.8562687c0-.2194625-.1028019-.4270705-.2770784-.5589912l-2.0043318-1.5231674v-1.336837c0-.387859-.3144884-.7024625-.7028847-.7024625h-4.7948848l-5.6458894-2.0450749 1.1721843-5.37865641c-.4565254-.10061234-.9167005-.1914978-1.3802212-.2717445l-1.2077696 5.53854181h-7.2797696l-1.0751613-5.71210568c-.4659539.06322467-.9288663.13556828-1.3878249.21885462l1.0760738 5.71392956-5.3441751 1.9356475h-4.7942765c-.3880922 0-.7028848.3152115-.7028848.7024626v1.336837l-2.0034194 1.5222555c-.1751889.1328326-.2767742.3404405-.2767742.5599031v.8562687l-1.9784792 1.5021938c-.175189.1328326-.2776867.3401366-.2776867.5595992v.8748105l-.9428571.716445v-8.7958282c-.482682.4328458-.9513733.8805859-1.4063779 1.3420044v8.8702995c0 .2671851.1514654.5103569.3908295.6292071.0985438.0489383.2056037.0732555.3120553.0732555.1508571 0 .3008018-.0486344.4251982-.1431674l2.3486267-1.7842731c.1751889-.1328326.2776866-.3404406.2776866-.5595992v-.8751145l1.9775668-1.5018899c.1757973-.1328326.2776867-.3404405.2776867-.5595991v-.8565727l2.0040276-1.5225594c.1745807-.1328326.2776867-.3401366.2776867-.5595992v-.9824141h4.2139631c.0818157 0 .1624147-.0145903.2399723-.0422511l5.0080922-1.8140616v5.7820176c-2.1123041.3203788-4.2273456.8444141-6.3220092 1.5766652-1.4319263.500326-2.3565346 1.8019031-2.3565346 3.3177753 0 19.2631586-4.3882396 22.3569119-7.2922396 24.4035066-.5018433.353511-.9766175.6878723-1.4012074 1.0723877-.9924332.8994317-1.40881104 2.1681806-1.14176956 3.4797885.26643316 1.3122159 1.14450696 2.3180353 2.40854376 2.7581763 3.6783595 1.2812114 10.3294562 1.922881 20.3325622 1.9593568h1.1043595c.0006083 0 .0012166-.0012159.0027373-.0012159.5064055-.0027357.9991244-.0066872 1.4888018-.0121586.037106.0066873.0726913.0151983.1107097.0151983.0462304 0 .0936774-.0079031.1405162-.0164141 9.0334838-.1003084 15.12647-.7380265 18.5885806-1.9447665 1.2640369-.440141 2.1421106-1.4459604 2.4097604-2.7581763.2670414-1.3131277-.1493364-2.5803568-1.1417696-3.4797885-.4251982-.3845154-.8987558-.7188767-1.4012074-1.0723877-2.9033917-2.0472026-7.291023-5.140348-7.291023-24.4035066 0-1.5152643-.9249125-2.8174493-2.3565346-3.3177753-1.9793917-.6912159-3.976424-1.1939736-5.971023-1.5186079v-5.9920573l5.4290322 1.966652c.0766452.0276608.1572443.0422511.2390599.0422511h4.2160922v.982718c0 .2191586.1018894.4267666.2770783.5586873l2.0034194 1.5234713v.8562687c0 .2194626.1024977.4267666.2776866.5595992l1.9784793 1.5021938v.8748106c0 .2191586.1015852.4267665.2773825.5595991l2.349235 1.7842731c.2116866.1604934.4978894.1875463.7372535.069304.2387557-.1188502.389917-.362022.389917-.6292071v-7.4395374c-.4519631-.5191718-.9212627-1.0231454-1.4060737-1.5119207z" fill="#000"/><path d="m34.498565 23.1776167h.0732995c-.002129.0054714-.002129.0112467-.0036498.0158062h1.5906913c.387788 0 .7028848-.3152114.7028848-.7024625s-.3150968-.7024626-.7028848-.7024626h-1.6682489c.0030415.008511.0045623.0167181.0079079.0252291z" fill="#000"/><path d="m56.507071 1.30595419v2.46424229c4.7738986 5.48595594 7.6681659 12.64706162 7.6681659 20.47111452 0 17.2214273-14.0193733 31.2323789-31.2511521 31.2323789-17.232083 0-31.25145623-14.0109516-31.25145623-31.2323789 0-8.5243877 3.43625807-16.2605947 8.99516133-21.90187664v-2.32289868c-6.55346548 6.01850221-10.66797239 14.64988542-10.66797239 24.22477532 0 18.1433524 14.76970509 32.904185 32.92426729 32.904185 18.1542581 0 32.9239631-14.7608326 32.9239631-32.904185 0-8.9110308-3.5643041-17.00439646-9.3409769-22.93535681" fill="#000" mask="url(#d)" transform="translate(0 11.588352)"/><path d="m32.9240544 4.597163c1.8218433 0 3.6074931.15836563 5.3447834.45868281l.356765-1.63533039c-1.8525622-.32463436-3.7574378-.49515859-5.7015484-.49515859-1.5359447 0-3.0469493.10790749-4.5275392.31247577l.3099263 1.6447533c1.3796129-.18693832 2.7872073-.2854229 4.2176129-.2854229" fill="#000"/><path d="m55.1009668 13.8467194-.0003041-2.3159075c-4.1881106-3.82114097-9.3643963-6.57627754-15.0957512-7.83681939l-.3558525 1.63381057c5.9649401 1.31251983 11.2960369 4.33180177 15.4519078 8.51891632" fill="#000"/><path d="m27.0089336 3.45835903c-5.5966175 1.01888987-10.7041659 3.45638326-14.9348571 6.92522907v2.2022247c4.2121382-3.77737007 9.4519908-6.43159033 15.2444793-7.48452425z" fill="#000"/><path d="m12.0740765 12.585904v-2.2025287c-.480553.3939384-.9492442.8015551-1.4063779 1.2213304v2.3232027c.4550046-.4617225.9236959-.9091586 1.4063779-1.3420044" fill="#000"/><path d="m55.1006931 11.5309335.0003041 2.3159075c.4848111.4884713.9541106.9924449 1.4060738 1.5119207v-2.4645463c-.4556129-.4678017-.9236959-.923141-1.4063779-1.3632819" fill="#000"/><path d="m39.6491502 5.32771189.3558526-1.63381057c-.4565254-.10030837-.9160922-.19210573-1.3793088-.27326432l-.356765 1.6353304c.4635208.0802467.9236959.17113216 1.3802212.27174449" fill="#000"/><path d="m28.7063806 4.8825859-.3099262-1.6447533c-.4653456.06444053-.9282581.1370881-1.3875208.22037445l.3096222 1.64323348c.4589585-.08359031.9218709-.15562996 1.3878248-.21885463" fill="#000"/></g></svg>