<?xml version="1.0" encoding="UTF-8"?>
<svg width="66px" height="74px" viewBox="0 0 66 74" version="1.1" xmlns="http://www.w3.org/2000/svg" xmlns:xlink="http://www.w3.org/1999/xlink">
    <!-- Generator: sketchtool 50.2 (55047) - http://www.bohemiancoding.com/sketch -->
    <title>BF3CFD70-0A6C-4243-92B5-E675AB80CFEF</title>
    <desc>Created with sketchtool.</desc>
    <defs>
        <polygon id="path-1" points="0 0.141559833 28.0434912 0.141559833 28.0434912 47.4238444 0 47.4238444"></polygon>
        <polygon id="path-3" points="0.153229493 0.146885356 44.0444461 0.146885356 44.0444461 8.9790795 0.153229493 8.9790795"></polygon>
        <polygon id="path-5" points="0.0618940092 0.214878661 10.2310645 0.214878661 10.2310645 7.00693305 0.0618940092 7.00693305"></polygon>
    </defs>
    <g id="Future-Project-Desktop" stroke="none" stroke-width="1" fill="none" fill-rule="evenodd">
        <g id="Future-Schools" transform="translate(-1106.000000, -1697.000000)">
            <g id="future-schools/locations" transform="translate(1.000000, 1523.000000)">
                <g id="Group-62" transform="translate(1105.000000, 174.000000)">
                    <path d="M56.0257272,42.4187197 C56.0458009,42.4354393 56.0661788,42.4537071 56.0868608,42.4756904 C56.248059,42.6394812 56.3371742,42.8574561 56.3371742,43.0896736 C56.3371742,43.3218912 56.2483631,43.5404854 56.0865567,43.705205 C55.8049161,43.9931548 55.3310544,44.0386695 54.9998378,43.8073808 L54.9572571,43.786636 C49.5899668,42.1651381 43.7387779,42.3310962 38.0347963,44.2677908 L37.9307779,44.3030879 L37.9307779,46.617523 L58.0276258,46.617523 L56.3502525,56.8614142 L56.5351742,56.855841 C58.3603631,56.8010377 59.339718,56.3025439 60.2874415,55.8204603 C60.5131189,55.70559 60.7366673,55.5922678 60.9687318,55.4851381 C63.0199023,51.2547531 64.1750544,46.4964603 64.1750544,41.4681757 C64.1750544,25.8560335 53.0575521,12.8379163 38.4587779,10.1866109 C39.5287687,17.051272 42.2238194,23.9146946 46.5135152,30.667272 C50.902059,37.5765188 55.5080682,41.9381841 56.0257272,42.4187197" id="Fill-1" fill="#5CD8FF"></path>
                    <path d="M52.2378442,57.5919088 C51.2326369,57.0801013 50.193365,56.5509548 48.1455401,56.5509548 C46.0968028,56.5509548 45.0575309,57.0804109 44.0520194,57.5919088 C43.0334295,58.110528 42.0717152,58.6003523 40.095365,58.6003523 C38.1193189,58.6003523 37.1576046,58.110528 36.1393189,57.5919088 C35.1341115,57.0804109 34.0945355,56.5509548 32.045494,56.5509548 C29.997365,56.5509548 28.9580931,57.0801013 27.9528857,57.5919088 C26.9346,58.110528 25.9725816,58.6003523 23.9962313,58.6003523 C22.019577,58.6003523 21.0575585,58.110528 20.0392728,57.5919088 C19.0343696,57.0801013 17.9950977,56.5509548 15.9472728,56.5509548 C13.8988396,56.5509548 12.8592636,57.0801013 11.8543604,57.5919088 C10.8357705,58.110528 9.87405622,58.6003523 7.89740184,58.6003523 C7.42262765,58.6003523 7.00807465,58.5715573 6.63549401,58.5213983 C7.96918065,60.6472728 9.54466452,62.6009967 11.321494,64.3438669 C11.5520378,64.2367372 11.7719364,64.1255824 11.989706,64.0147372 C13.0082959,63.4964276 13.9700101,63.0066033 15.9466645,63.0066033 C17.9230147,63.0066033 18.8850332,63.4964276 19.9033189,64.0147372 C20.9082221,64.5265448 21.9477982,65.0556912 23.9962313,65.0556912 C26.0443604,65.0556912 27.0839364,64.5265448 28.0891438,64.0147372 C29.1071253,63.4964276 30.0691438,63.0066033 32.045494,63.0066033 C34.0224525,63.0066033 34.984471,63.4964276 36.003365,64.0150469 C37.0082682,64.5265448 38.0475401,65.0556912 40.095365,65.0556912 C42.1437982,65.0556912 43.18307,64.5265448 44.1879733,64.0150469 C45.2065631,63.4964276 46.1685816,63.0066033 48.1455401,63.0066033 C50.1215862,63.0066033 51.0836046,63.496118 52.1018903,64.0147372 C52.691024,64.3147623 53.2941484,64.620051 54.1034848,64.8222351 C56.2866553,62.7722184 58.1830147,60.4110301 59.7226092,57.8070971 C58.8427106,58.2380929 57.8937705,58.6003523 56.1944986,58.6003523 C54.2181484,58.6003523 53.25613,58.110528 52.2378442,57.5919088" id="Fill-3" fill="#5CD8FF"></path>
                    <path d="M11.989706,55.8203674 C12.8908949,55.3618151 13.7422037,54.9286519 15.2976138,54.832359 L15.5616138,54.815949 L10.1934111,46.6174301 L36.2226553,46.6174301 L36.2226553,44.302995 L36.1186369,44.2676979 C30.0505908,42.2090117 18.187623,42.1919824 12.0249871,44.2172293 C10.1234571,37.2544176 11.4705263,29.2655138 15.8262221,21.7020326 C18.1727198,17.6270787 21.2713742,13.9283172 24.9202313,10.7642753 C11.5940101,14.3847021 1.74875668,26.7770703 1.74875668,41.4680828 C1.74875668,46.9190033 3.10464608,52.0531791 5.4903788,56.5411707 C6.12574286,56.7322084 6.88884885,56.8607021 7.89679355,56.8607021 C9.94461843,56.8607021 10.9841945,56.3318653 11.989706,55.8203674" id="Fill-5" fill="#5CD8FF"></path>
                    <path d="M48.1455401,64.7462226 C46.0968028,64.7462226 45.0575309,65.275369 44.0520194,65.7868669 C43.0334295,66.3054862 42.0717152,66.7950008 40.095365,66.7950008 C38.1193189,66.7950008 37.1576046,66.3054862 36.1393189,65.7868669 C35.1341115,65.275369 34.0945355,64.7462226 32.045494,64.7462226 C29.997365,64.7462226 28.9580931,65.2750594 27.9528857,65.7868669 C26.9346,66.3051766 25.9725816,66.7950008 23.9962313,66.7950008 C22.019577,66.7950008 21.0575585,66.3051766 20.0392728,65.7868669 C19.0340654,65.2750594 17.9950977,64.7462226 15.9472728,64.7462226 C14.3395493,64.7462226 13.3541115,65.0722561 12.5183143,65.4599046 C17.9990516,70.3061305 25.1498627,73.2432184 32.9618903,73.2432184 C40.4597336,73.2432184 47.3480654,70.5374192 52.7354295,66.0354946 C52.5681484,65.9543732 52.4036046,65.8710845 52.2378442,65.7868669 C51.2326369,65.2750594 50.193365,64.7462226 48.1455401,64.7462226" id="Fill-7" fill="#5CD8FF"></path>
                    <path d="M65.6931152,40.2297439 C65.6931152,45.0094008 64.7028111,49.5525054 62.9226359,53.661518 C63.0056682,53.6497523 63.0905253,53.6389155 63.178424,53.6293172 C64.9424793,49.522472 65.9239631,44.9908234 65.9239631,40.2297439 C65.9239631,23.5463046 53.9010138,9.66929205 38.2124793,7.10189456 C38.2216037,7.18177741 38.2273825,7.26196987 38.2371152,7.34216234 C53.8055115,9.91017908 65.6931152,23.6556017 65.6931152,40.2297439" id="Fill-9" fill="#000000"></path>
                    <path d="M56.0818728,63.8155255 C56.1195871,63.8158351 56.1554765,63.8173833 56.1944074,63.8173833 C56.2597991,63.8173833 56.321541,63.8152159 56.3848037,63.814287 C58.7495502,61.3806469 60.7529696,58.5828895 62.3035134,55.5101866 C62.205882,55.5321699 62.1103797,55.5553916 62.0185272,55.5804711 C60.4597714,58.6321197 58.4514857,61.4082033 56.0818728,63.8155255" id="Fill-11" fill="#000000"></path>
                    <path d="M4.45463502,56.61 C4.33875484,56.5542678 4.22409124,56.4972971 4.1097318,56.4393975 C5.55838618,59.1009205 7.35163963,61.5413724 9.42866267,63.6991381 C9.51625714,63.6845858 9.60141843,63.668795 9.68414654,63.6520753 C7.65092074,61.5577824 5.88869032,59.1910209 4.45463502,56.61" id="Fill-13" fill="#000000"></path>
                    <g id="Group-17" transform="translate(0.000000, 6.906460)">
                        <mask id="mask-2" fill="white">
                            <use xlink:href="#path-1"></use>
                        </mask>
                        <g id="Clip-16"></g>
                        <path d="M0.230726267,33.3232837 C0.230726267,16.7692669 12.0894359,3.03746778 27.6301548,0.444990795 C27.7673253,0.34343431 27.9051041,0.241877824 28.0434912,0.141559833 C12.1928461,2.56622092 -0.000121658986,16.5221874 -0.000121658986,33.3232837 C-0.000121658986,38.30079 1.07169401,43.0278109 2.98995207,47.2801791 C3.0951871,47.3269322 3.19829309,47.3746142 3.30018249,47.4238444 C1.33204424,43.1411331 0.230726267,38.3633339 0.230726267,33.3232837" id="Fill-15" fill="#000000" mask="url(#mask-2)"></path>
                    </g>
                    <g id="Group-20" transform="translate(10.645161, 64.806042)">
                        <mask id="mask-4" fill="white">
                            <use xlink:href="#path-3"></use>
                        </mask>
                        <g id="Clip-19"></g>
                        <path d="M22.3167594,8.74419916 C13.8745382,8.74419916 6.17930323,5.48974728 0.374040553,0.146885356 C0.301653456,0.178776569 0.22804977,0.209738912 0.153229493,0.240082008 C6.01141382,5.66685188 13.7912018,8.97920335 22.3167594,8.97920335 C30.6333677,8.97920335 38.2391834,5.82599833 44.0444461,0.634542259 C43.9522894,0.618751464 43.86287,0.602031799 43.7758839,0.583764017 C38.02993,5.66685188 30.526612,8.74419916 22.3167594,8.74419916" id="Fill-18" fill="#000000" mask="url(#mask-4)"></path>
                    </g>
                    <path d="M5.49031797,55.3025531 C3.10458525,50.8148711 1.74869585,45.6806954 1.74869585,40.2297749 C1.74869585,25.5384527 11.5939493,13.1460845 24.9201705,9.52565774 C25.7927696,8.7692477 26.6966959,8.04410962 27.6301244,7.35148201 C12.0894055,9.94364937 0.230695853,23.6757582 0.230695853,40.2297749 C0.230695853,45.2698251 1.33201382,50.0476243 3.30015207,54.3300259 C3.46956221,54.4120762 3.63623502,54.4962937 3.80412442,54.5817498 C4.31448387,54.8415238 4.83457604,55.105323 5.49031797,55.3025531" id="Fill-21" fill="#000000"></path>
                    <path d="M6.63564608,57.2829046 C5.71742488,57.1593649 5.06381198,56.9033063 4.45460461,56.6100929 C5.88865991,59.1911138 7.65089032,61.5578753 9.68411613,63.6518586 C10.3328627,63.5202686 10.8514341,63.3230385 11.3213419,63.1053732 C9.54451244,61.3625029 7.96933272,59.4087791 6.63564608,57.2829046" id="Fill-23" fill="#000000"></path>
                    <path d="M32.9619207,72.0048485 C25.1495889,72.0048485 17.999082,69.0677607 12.5183447,64.2215347 C12.2890175,64.3277356 12.0706396,64.4382711 11.8543908,64.5484971 C11.5791373,64.6884469 11.3075336,64.8259197 11.0192018,64.9528653 C16.8244645,70.2957272 24.5196995,73.5501791 32.9619207,73.5501791 C41.1717733,73.5501791 48.6750912,70.4728318 54.4210452,65.3897439 C53.7528332,65.2504134 53.2300037,65.0358444 52.7354599,64.7968151 C47.3480959,69.2987397 40.4597641,72.0048485 32.9619207,72.0048485" id="Fill-25" fill="#000000"></path>
                    <path d="M59.7227309,56.5685724 C58.1831364,59.1725054 56.2864728,61.5340033 54.1033023,63.5837105 C54.6483346,63.7193255 55.2882608,63.8075682 56.0817816,63.8156184 C58.4513945,61.4079866 60.4596802,58.6322126 62.0184359,55.580564 C61.2750995,55.7815096 60.7075604,56.0700787 60.1512747,56.3536937 C60.0083253,56.4264552 59.8662885,56.4982879 59.7227309,56.5685724" id="Fill-27" fill="#000000"></path>
                    <path d="M38.2369935,7.34206946 C38.3005604,7.87740837 38.3753806,8.41274728 38.4587171,8.94808619 C53.0577954,11.5993916 64.1749935,24.6175088 64.1749935,40.229651 C64.1749935,45.2579356 63.0198415,50.0162285 60.968671,54.2466134 C61.5179613,53.9930318 62.1183484,53.7762954 62.9225143,53.6617347 C64.7029935,49.5527222 65.6929935,45.0093079 65.6929935,40.229651 C65.6929935,23.6555088 53.8053899,9.91008619 38.2369935,7.34206946" id="Fill-29" fill="#000000"></path>
                    <g id="Group-33" transform="translate(27.981567, 0.094745)">
                        <mask id="mask-6" fill="white">
                            <use xlink:href="#path-5"></use>
                        </mask>
                        <g id="Clip-32"></g>
                        <path d="M8.02508295,4.22001255 L8.24163594,4.11659833 L8.24163594,6.74344351 C8.91076037,6.81094142 9.57410599,6.89949372 10.2310645,7.00693305 C10.0461429,5.37335983 9.94911982,3.74009623 9.94911982,2.10869038 L9.94911982,1.08445607 C9.94911982,0.604849372 9.56589401,0.214723849 9.09537788,0.214723849 C8.6245576,0.214723849 8.24163594,0.604849372 8.24163594,1.08445607 L8.24163594,2.20931799 L8.15130415,2.25018828 C5.28136866,3.54874895 2.57171889,5.13464017 0.0618940092,6.9533682 C1.24381106,6.77254812 2.44641014,6.65767782 3.66543318,6.6084477 C5.06724885,5.73592887 6.52320276,4.93648117 8.02508295,4.22001255" id="Fill-31" fill="#000000" mask="url(#mask-6)"></path>
                    </g>
                    <path d="M37.9307475,14.6242577 L38.2285078,15.6249607 C39.7893926,20.8743163 42.2499456,26.0880653 45.5411253,31.1216134 C47.4691161,34.0689188 49.6212636,36.8688435 51.9379548,39.4433623 C52.0590055,39.579287 52.1821853,39.7145925 52.3065816,39.8502075 L52.6131622,40.1846008 L52.1700194,40.1084335 C47.6333558,39.3306594 42.7782498,39.6981824 38.127835,41.1710611 L37.9307475,41.2332954 L37.9307475,14.6242577 Z M56.0101853,47.1186176 L55.6245263,49.4764 L14.9298995,49.4764 L13.3848304,47.1186176 L56.0101853,47.1186176 Z M54.638176,55.5032201 L54.4857982,55.4741155 C53.4775493,55.2818393 52.7780101,54.926082 52.1015862,54.5817808 C51.0829963,54.0634711 50.121282,53.5742661 48.1455401,53.5742661 C46.1685816,53.5742661 45.2065631,54.0637808 44.1879733,54.5817808 C43.18307,55.0932787 42.1437982,55.6221155 40.095365,55.6221155 C38.0475401,55.6221155 37.0082682,55.0932787 36.003365,54.5820904 C34.984471,54.0637808 34.0224525,53.5742661 32.045494,53.5742661 C30.0691438,53.5742661 29.1071253,54.0634711 28.0891438,54.5817808 C27.0839364,55.0932787 26.0443604,55.6221155 23.9962313,55.6221155 C21.9481023,55.6221155 20.9088304,55.0932787 19.903623,54.5817808 C19.2597429,54.2541992 18.6517521,53.9448854 17.7834111,53.7544669 L17.7231899,53.7411531 L16.0689318,51.2152452 L55.3401484,51.2152452 L54.638176,55.5032201 Z M36.2232636,41.2357724 L36.0280009,41.1769439 C30.1929318,39.4241657 20.05813,39.2501573 13.4365355,40.7880569 L13.2817244,40.8239732 L13.2531346,40.6648268 C12.1664157,34.6234544 13.6035124,27.7612703 17.2998166,21.3427766 C20.078812,16.5169858 23.9813281,12.2147682 28.6317429,8.7618477 C27.3689226,8.94111967 26.13013,9.19717824 24.9202313,9.5256887 C21.2713742,12.6897305 18.1727198,16.3884921 15.8262221,20.463446 C11.4705263,28.0272368 10.1234571,36.015831 12.0249871,42.9786427 C18.187623,40.9533958 30.0505908,40.9704251 36.1186369,43.0294209 L36.2226553,43.0644084 L36.2226553,45.3788435 L10.1934111,45.3788435 L15.5616138,53.5773623 L15.2976138,53.5937724 C13.7422037,53.6900653 12.8908949,54.1232285 11.989706,54.5817808 C10.9841945,55.0932787 9.94461843,55.6221155 7.89679355,55.6221155 C6.8885447,55.6221155 6.12574286,55.4936218 5.4903788,55.3025841 C5.84927281,55.9778728 6.23097788,56.63799 6.63549401,57.2829356 C7.00807465,57.3327849 7.42262765,57.3618895 7.89740184,57.3618895 C9.87405622,57.3618895 10.8357705,56.8720653 11.8543604,56.353446 C12.8592636,55.8416385 13.8988396,55.3124921 15.9472728,55.3124921 C17.9950977,55.3124921 19.0343696,55.8416385 20.0392728,56.353446 C21.0575585,56.8720653 22.019577,57.3618895 23.9962313,57.3618895 C25.9725816,57.3618895 26.9346,56.8720653 27.9528857,56.353446 C28.9580931,55.8416385 29.997365,55.3124921 32.045494,55.3124921 C34.0945355,55.3124921 35.1341115,55.8419481 36.1393189,56.353446 C37.1576046,56.8720653 38.1193189,57.3618895 40.095365,57.3618895 C42.0717152,57.3618895 43.0334295,56.8720653 44.0520194,56.353446 C45.0575309,55.8419481 46.0968028,55.3124921 48.1455401,55.3124921 C50.193365,55.3124921 51.2326369,55.8416385 52.2378442,56.353446 C53.25613,56.8720653 54.2181484,57.3618895 56.1944986,57.3618895 C57.8937705,57.3618895 58.8427106,56.9996301 59.7226092,56.5686343 C60.1684894,55.8143916 60.5839548,55.0397138 60.9687014,54.2467682 C60.7366369,54.3535883 60.5130885,54.4669105 60.2874111,54.5817808 C59.3399917,55.0638644 58.3603327,55.5626678 56.5351438,55.6171615 L56.3505263,55.6227347 L58.0275954,45.3788435 L37.9307475,45.3788435 L37.9307475,43.0644084 L38.0347659,43.0294209 C43.7387475,41.0927264 49.5899364,40.9264586 54.9572267,42.5482661 L54.9998074,42.5690109 C55.331024,42.79999 55.8051899,42.7547849 56.0865263,42.4668351 C56.2486369,42.3021155 56.3374479,42.0835213 56.3374479,41.8509941 C56.3374479,41.6190862 56.2483327,41.4008017 56.0868304,41.2373205 C56.0661484,41.2153372 56.0460747,41.1970695 56.0256968,41.1803498 C55.5080378,40.6995046 50.9020286,36.3378393 46.5134848,29.4289021 C42.2237889,22.6760151 39.5287382,15.8129021 38.4587475,8.948241 C37.7221023,8.81448368 36.9766369,8.7076636 36.2232636,8.62747113 L36.2232636,41.2357724 Z" id="Fill-34" fill="#000000"></path>
                    <path d="M3.30012166,54.3301498 C3.19823226,54.2812293 3.09512627,54.2332377 2.98989124,54.1867941 C3.33601106,54.9537314 3.71011244,55.7045682 4.10976221,56.4393046 C4.22412166,56.4972042 4.33878525,56.5541749 4.45466544,56.6099071 C4.04163318,55.8674301 3.65688664,55.106995 3.30012166,54.3301498" id="Fill-36" fill="#000000"></path>
                    <path d="M31.2593945,6.95367782 C31.3892654,6.87100837 31.5163991,6.78462343 31.6468783,6.70319247 C30.4281594,6.75242259 29.2255604,6.86729289 28.0436433,7.04811297 C27.9052562,7.14843096 27.7674774,7.24998745 27.6300028,7.35154393 C28.8198276,7.15307531 30.0303346,7.01776987 31.2593945,6.95367782" id="Fill-38" fill="#000000"></path>
                    <path d="M62.9225143,53.6616109 C62.6405696,54.3124393 62.3391594,54.9521213 62.0182839,55.5803473 C62.1104406,55.5555774 62.2059429,55.5323556 62.3035742,55.5100628 C62.6141088,54.8942218 62.9048737,54.2663054 63.1786065,53.62941 C63.0907078,53.6386987 63.0055465,53.6498452 62.9225143,53.6616109" id="Fill-40" fill="#000000"></path>
                    <path d="M36.2232028,7.07340921 C36.9011475,7.14152636 37.5720968,7.23224603 38.2369631,7.34216234 C38.2275346,7.26196987 38.2214516,7.18177741 38.2126313,7.10189456 C37.5556728,6.99414561 36.8923272,6.90559331 36.2232028,6.83840502 L36.2232028,7.07340921 Z" id="Fill-42" fill="#000000"></path>
                    <path d="M5.49031797,55.3025531 C4.83457604,55.105323 4.31448387,54.8415238 3.80412442,54.5817498 C3.63623502,54.4962937 3.46956221,54.4120762 3.30015207,54.3300259 C3.65691705,55.1068711 4.04166359,55.8673063 4.45469585,56.6100929 C5.06390323,56.9033063 5.71751613,57.1593649 6.63573733,57.2829046 C6.2312212,56.637959 5.84921198,55.9778418 5.49031797,55.3025531" id="Fill-44" fill="#000000"></path>
                    <path d="M38.4588387,8.948241 C38.3755023,8.41290209 38.3003779,7.87756318 38.2371152,7.34222427 C37.5719447,7.23230795 36.9009954,7.14158828 36.2230507,7.07347113 L36.2230507,8.62747113 C36.9767281,8.7076636 37.7221935,8.81448368 38.4588387,8.948241" id="Fill-46" fill="#000000"></path>
                    <path d="M28.631682,8.76181674 C29.4832949,8.12956569 30.3598479,7.52672887 31.2595161,6.9536159 C30.0304562,7.01770795 28.8199493,7.15301339 27.6301244,7.35148201 C26.6966959,8.04410962 25.7927696,8.7692477 24.9201705,9.52565774 C26.1300691,9.19714728 27.3691659,8.9410887 28.631682,8.76181674" id="Fill-48" fill="#000000"></path>
                    <path d="M59.7227309,56.5685724 C59.8662885,56.4982879 60.0083253,56.4264552 60.1512747,56.3536937 C60.7075604,56.0700787 61.2750995,55.7815096 62.0184359,55.580564 C62.3393115,54.9523381 62.6407217,54.3123464 62.9226664,53.661518 C62.1181963,53.7760787 61.5178092,53.9931247 60.968823,54.2467063 C60.5840765,55.0399615 60.1686111,55.8143297 59.7227309,56.5685724" id="Fill-50" fill="#000000"></path>
                    <path d="M48.1455401,61.7680477 C46.1685816,61.7680477 45.2065631,62.257872 44.1879733,62.7764912 C43.18307,63.2882987 42.1437982,63.8174452 40.095365,63.8174452 C38.0475401,63.8174452 37.0082682,63.2882987 36.003365,62.7764912 C34.9847751,62.257872 34.0224525,61.7680477 32.045494,61.7680477 C30.0691438,61.7680477 29.1071253,62.257872 28.0891438,62.7761816 C27.0839364,63.2879891 26.0443604,63.8174452 23.9962313,63.8174452 C21.9477982,63.8174452 20.9082221,63.2882987 19.9033189,62.7761816 C18.8850332,62.257872 17.9230147,61.7680477 15.9466645,61.7680477 C13.9700101,61.7680477 13.0082959,62.257872 11.989706,62.7761816 C11.7719364,62.8870268 11.5523419,62.9984912 11.321494,63.1053113 C11.7111069,63.4873866 12.1098442,63.8601732 12.5183143,64.2215038 C13.3541115,63.8338552 14.3395493,63.5078218 15.9472728,63.5078218 C17.9950977,63.5078218 19.0340654,64.0366586 20.0392728,64.5481565 C21.0575585,65.0667757 22.019577,65.5562904 23.9962313,65.5562904 C25.9725816,65.5562904 26.9346,65.0667757 27.9528857,64.5484661 C28.9580931,64.0366586 29.997365,63.5078218 32.045494,63.5078218 C34.0945355,63.5078218 35.1341115,64.0369682 36.1393189,64.5484661 C37.1576046,65.0667757 38.1193189,65.5562904 40.095365,65.5562904 C42.0717152,65.5562904 43.0334295,65.0667757 44.0520194,64.5484661 C45.0575309,64.0369682 46.0968028,63.5078218 48.1455401,63.5078218 C50.193365,63.5078218 51.2326369,64.0366586 52.2378442,64.5481565 C52.4036046,64.6326837 52.5681484,64.7159724 52.7354295,64.7967841 C53.2032083,64.4060393 53.6591253,64.0007423 54.1034848,63.5836795 C53.2941484,63.3814954 52.691024,63.0765163 52.1018903,62.7761816 C51.0836046,62.257872 50.1215862,61.7680477 48.1455401,61.7680477" id="Fill-52" fill="#000000"></path>
                    <path d="M9.68423779,63.6519515 C9.60150968,63.6686711 9.51604424,63.6844619 9.42844977,63.6990142 C9.87280922,64.1606628 10.3287263,64.6108552 10.79833,65.0458762 C10.8731502,65.0158427 10.9467539,64.9848803 11.0194452,64.9529891 C10.5623115,64.5322109 10.1173438,64.0978092 9.68423779,63.6519515" id="Fill-54" fill="#000000"></path>
                    <path d="M56.0818728,63.8155255 C55.5462691,64.3595339 54.9921124,64.8846552 54.4209235,65.389651 C54.5079097,65.4082285 54.597329,65.4249481 54.6897899,65.4404293 C55.2734488,64.9184042 55.838859,64.3762536 56.3848037,63.814287 C56.321541,63.8152159 56.2597991,63.8173833 56.1944074,63.8173833 C56.1554765,63.8173833 56.1195871,63.8158351 56.0818728,63.8155255" id="Fill-56" fill="#000000"></path>
                    <path d="M12.5184055,64.2214728 C12.1096313,63.8601423 11.7111982,63.4873556 11.3212811,63.1052803 C10.8516774,63.3229456 10.3328018,63.5201757 9.68435945,63.6520753 C10.1171613,64.0979331 10.562129,64.5320251 11.0192627,64.9528033 C11.3075945,64.8261674 11.5791982,64.6883849 11.8541475,64.5484351 C12.0703963,64.4382092 12.2890783,64.3276736 12.5184055,64.2214728" id="Fill-58" fill="#000000"></path>
                    <path d="M52.7353687,64.796877 C53.2299124,65.0355967 53.7530461,65.2501657 54.4209539,65.3898059 C54.9921429,64.8845004 55.5462995,64.3593791 56.0819032,63.8156803 C55.2883825,63.8076301 54.6484562,63.7193874 54.103424,63.5837724 C53.6590645,64.0008351 53.2031475,64.4061322 52.7353687,64.796877" id="Fill-60" fill="#000000"></path>
                </g>
            </g>
        </g>
    </g>
</svg>