<svg height="66" viewBox="0 0 66 66" width="66" xmlns="http://www.w3.org/2000/svg" xmlns:xlink="http://www.w3.org/1999/xlink"><mask id="a" fill="#fff"><path d="m.20783945.10611705h.09585594v5.0576682h-.09585594z" fill="none"/></mask><mask id="b" fill="#fff"><path d="m0 .1486977h.30271095v2.51590783h-.30271095z" fill="none"/></mask><mask id="c" fill="#fff"><path d="m.24289817.28200553h19.77759633v1.84702673h-19.77759633z" fill="none"/></mask><mask id="d" fill="#fff"><path d="m.20783945.02703871h.09585594v2.15093088h-.09585594z" fill="none"/></mask><mask id="e" fill="#fff"><path d="m0 65.9239631h65.698156v-65.9239631h-65.698156z" fill="none"/></mask><g fill="none" fill-rule="evenodd" transform=""><path d="m63.1390817 45.5340083h.0717522c.3175872-.7667558.6064129-1.5487189.8664771-2.3440645v-.2308479c-.2776238.8747281-.5912752 1.7333364-.9382293 2.5749124" fill="#916af9"/><path d="m.22691978 2.62324147c0 .3601106-.00757156.71809217-.01908033 1.07546544v1.46507834c.06329824-.83488479.09570451-1.67798156.09570451-2.52898617s-.03240627-1.69410138-.09570451-2.52868203v1.44165899c.01150877.35737327.01908033.71535484.01908033 1.07546543" fill="#916af9" mask="url(#a)" transform="translate(65.394495 30.33871)"/><path d="m32.8106587 1.74881751c-8.256055 0-15.7691559 3.252553-21.3391926 8.54806449h42.678688c-5.5700367-5.29551149-13.0834403-8.54806449-21.3394954-8.54806449" fill="#5cd8ff"/><path d="m54.9367046 57.2794839c3.1510459-2.856553 5.7438165-6.3226175 7.5939358-10.2132719h-.0690276c-1.8358899 3.8800092-4.4038348 7.3448571-7.5249082 10.2132719" fill="#916af9"/><g fill="#000"><path d="m44.2519706 63.7426175v.1125346c2.1192661-.7950415 4.1352936-1.8038986 6.0223487-3.0007189h-.0850734c-1.8631376 1.1542396-3.8501009 2.1256866-5.9372753 2.8881843"/><path d="m54.9269257 57.2884811c.0033315-.0030193.0063601-.0060387.0096916-.0090581-.0033315.0030194-.0063601.0057368-.0096916.0087562z"/><path d="m12.2264394 58.6097032c.2985138.2424056.6006606.4808572.9079542.7129217h.6527339c-.5325413-.3953917-1.0532752-.8065991-1.5606881-1.2330138z"/><path d="m1.55118165 41.1108221v1.8695945c.27611009.8674286.5870367 1.7190415.9309633 2.5536221h.5407156c-.59036697-1.4264516-1.08476147-2.9030875-1.4716789-4.4232166"/><path d="m3.70326606 47.0661816h-.54374312c1.83952293 3.8867004 4.41322018 7.3573272 7.54186236 10.2287834v-.5690599c-2.88280732-2.7467558-5.26546787-6.0169493-6.99811924-9.6597235"/><path d="m-.00015143 1.40665161c0 .42154839.01060018.84035945.02634903 1.25795392v-2.51590783c-.01574885.41759447-.02634903.83670967-.02634903 1.25795391" mask="url(#b)" transform="translate(0 31.5553)"/><path d="m16.0445394 60.8545548h-.6975412c1.9034036 1.2071613 3.9375963 2.2236222 6.0774495 3.021401v-.3445991c-1.8840275-.7278249-3.6832844-1.6262765-5.3799083-2.6768019"/><path d="m33.1169532.24219263c9.2312202 0 17.5647798 3.85780645 23.4932752 10.05481107h.0015138c-5.9832936-6.33812905-14.4406789-10.29691246-23.8011743-10.29691246s-17.8172752 3.95878341-23.80056882 10.29691246h.6136789c5.92849542-6.19700462 14.26235782-10.05481107 23.49327522-10.05481107"/><path d="m10.4105312 1.90980276c-3.55098166 0-6.9681468-.57270967-10.16763303-1.62779723v.32482949c3.11380733.98787097 6.42682568 1.52225807 9.86124773 1.52225807 3.4550091 0 6.7861926-.54107834 9.9163486-1.53989862v-.12743779c-3.0378165.94103226-6.2648532 1.44804608-9.6099633 1.44804608" mask="url(#c)" transform="translate(22.706422 63.794931)"/><path d="m52.4871661 59.3225336c.3094128-.2338894.6136789-.4741659.9146146-.7183963v-.0179447c-.3136513.2512258-.631844.4966728-.9551835.736341z"/><path d="m4.37558807 45.5340083c-1.65242201-3.7574378-2.58762385-7.901447-2.63061468-12.2562304h-.19376146v7.8330138c.38691743 1.520129.88131192 2.996765 1.4716789 4.4232166z"/><path d="m12.2264394 56.3204157v1.7692258c.5074129.4264147 1.0281468.8376221 1.5606881 1.2330138h2.4035505c-1.4017431-.895106-2.7265872-1.9000092-3.9642386-3.0022396"/><path d="m32.8106587 1.74881751c8.2560551 0 15.7694587 3.252553 21.3394954 8.54806449h2.4598624c-5.9284954-6.19700458-14.2617523-10.05481103-23.4929725-10.05481103-9.2312201 0-17.5647798 3.85780645-23.49327519 10.05481103h1.84769729c5.5700367-5.29551149 13.0831376-8.54806449 21.3391926-8.54806449"/><path d="m10.7014459 56.7259963v-1.8574286c-2.24369728-2.285364-4.14074315-4.9147189-5.60303673-7.8022949h-1.39508256c1.73234862 3.6424701 4.11531192 6.9129678 6.99811929 9.6597235"/><path d="m64.0772202 33.2776866h-.200422c-.0432936 4.3550876-.9784954 8.4987927-2.6309175 12.2562305h1.8931101c.3472569-.8412719.6606055-1.7001844.9382294-2.5749125z"/><path d="m.22691978 1.10250415c0-.3601106-.00757156-.71809217-.01908033-1.07546544v2.15093088c.01150877-.35737328.01908033-.71535484.01908033-1.07546544" mask="url(#d)" transform="translate(65.394495 31.859447)"/><path d="m62.4617339 47.0661816h-1.9388256c-1.4607799 2.8848387-3.355101 5.5117603-5.5960734 7.7952995v2.4264885c.0033302-.0027373.0066605-.0054747.0099908-.0085161 3.1207706-2.8684148 5.6890183-6.3332627 7.5249082-10.2132719"/><path d="m44.2519706 61.9820295v1.7607097c2.0871744-.7628019 4.0741377-1.7342489 5.9372753-2.8881844h-3.4447156c-.8110734.4109033-1.6424312.7880461-2.4925597 1.1274747"/><path d="m49.4309725 59.3225336h3.0157156c.3230367-.2396682.6415321-.4851152.9551835-.736341v-2.2719815c-1.2397707 1.1046636-2.566734 2.1116958-3.9708991 3.0083225"/><path d="m18.8766358 60.8545548h-2.831945c1.6963211 1.0505254 3.495578 1.948977 5.3796055 2.6768019v-1.5268203c-.8692018-.3452074-1.7187247-.7302581-2.5476605-1.1499816"/><path d="m32.8106587 64.1750848c-3.4456238 0-6.7616697-.567235-9.8612477-1.6122857v1.5140461c3.1994862 1.0550875 6.6166514 1.6277972 10.167633 1.6277972 3.3451101 0 6.5721468-.5070138 9.6099633-1.4477419v-1.7120461c-3.1156238 1.0569124-6.4504403 1.6302304-9.9163486 1.6302304"/><path d="m1.55118165 19.4891613h1.31697248c.2316055-.517659.47562385-1.0286267.7329633-1.5319908h-1.23977064l4.88490826-6.1282673h.40538532c.43747706-.5246544.89009174-1.0359262 1.35844954-1.5319908h-2.12138532c-.04722936-.0045622-.09536698-.0045622-.14289909 0-.18044036.0377143-.34150458.1396037-.45261467.2871152l-6.10015597 7.6602581c-.10808257.1359539-.16681651.3050599-.16681651.4787281v12.9810138c.11444037-3.0426912.6403211-5.9810599 1.5249633-8.7606635z"/><path d="m57.9852083 11.8289032h.397211l4.8846055 6.1282673h-1.1937523c.2588532.5033641.5068073 1.0137235.7402293 1.5319908h1.2636881v3.2677604c.8001743 2.4480829 1.3221193 5.0229954 1.5249633 7.6879354v-11.7218433c0-.1736682-.0584312-.34247-.1668165-.4787281l-6.0998532-7.6602581c-.1450184-.181576-.364211-.2874193-.5958165-.2871152l-2.1280459-.0000006c.0096881.0103417.0190734.0209868.0290642.0313278.4635138.4860277.9109817.9869586 1.344523 1.5006636"/><path d="m57.9852083 11.8289032c-.4335413-.513705-.8810092-1.0146359-1.344523-1.5006636.4577615.486636.9006881.9872627 1.3287798 1.5006636z"/><path d="m54.150245 10.296882h-42.6789909c-.5189174.4933272-1.0199724 1.0045991-1.50377061 1.5319908h45.68683481c-.4841009-.5273917-.9854587-1.0386636-1.5040733-1.5319908"/><path d="m62.7532541 19.4891613h.0602477c-.233422-.5182673-.4813761-1.0286267-.7402293-1.5319908h-.0526789c.2570367.5033641.501055 1.0143318.7326605 1.5319908"/><path d="m63.1390817 45.5340083c-.2131377.5173548-.4386881 1.0283226-.6772569 1.5322949h.0687247c.2394771-.5039723.4659358-1.0146359.6802844-1.5322949z"/><path d="m64.0772202 22.9648977c.898266 2.8285714 1.4256605 5.8216866 1.5249633 8.9215576v-1.441659c-.2028441-2.6649401-.724789-5.2395484-1.5249633-7.6879355z"/><path d="m64.0772202 42.9590046v.2308479c.8001743-2.4480829 1.3221192-5.0226912 1.5249633-7.6876313v-1.4647742c-.0993028 3.099871-.6266973 6.0929862-1.5249633 8.9215576"/><path d="m22.9013945 45.5339171h19.8254312v-12.2562305h-19.8254312zm-10.627211-13.7882212h19.8251284v-12.2565346h-19.8251284zm21.3500917 0h19.8254312v-12.2565346h-19.8254312zm10.6278165 13.7882212v-12.2562305h19.6247065c.0009082-.105235.0039357-.2101659.0039357-.315705 0-.4075576-.0105963-.8123779-.0257339-1.2162857h-8.8800275v-12.2565346h5.8591651c-.2479541-.5188756-.5107431-1.029235-.7865504-1.5319908h-54.47391748c-.27520183.5027558-.53829357 1.0131152-.78655045 1.5319908h5.96179813v12.2565346h-8.98235777c-.01544036.4039078-.02573394.8087281-.02573394 1.2162857 0 .1055391.00272477.21047.00393578.315705h19.63166973v12.2562305h-17.0007523c.22797248.5182672.4683578 1.0295391.72266972 1.5322949h5.60303668v7.8022949c.4916697.5009309 1.0005964.9851337 1.5249633 1.452v-9.2542949h19.8254312v12.2562304h-15.8611926c.8670825.5538525 1.7635321 1.0651244 2.6860183 1.5319908h2.5476606v-.9431613h1.5249633v.9431613h19.7775963v-.7910876h1.525266v.7910876h2.4925597c.9224862-.4668664 1.8192385-.9781383 2.6863211-1.5319908h-15.8542294v-12.2562304h19.8251285v9.2479078c.5246697-.4668663 1.0332935-.9513733 1.5249633-1.4526083v-7.7952995h5.5960734c.2549174-.5027558.495-1.0140277.7229724-1.5322949z" mask="url(#e)"/><path d="m10.7014459 56.7259963v.5690599c.4943945.453788 1.0033211.8914562 1.5249633 1.3145254v-.5200922c-.5222477-.4388848-1.0311743-.8932811-1.5249633-1.3634931" mask="url(#e)"/><path d="m53.4019321 58.586223v.0179447c.5216422-.4233732 1.0305688-.8616497 1.5249633-1.3157419v-.0003041c-.4946972.4480092-1.0033211.880811-1.5249633 1.2981013" mask="url(#e)"/><path d="m1.55118165 41.1108221c-.66242202-2.6016774-1.01543119-5.3280553-1.01543119-8.1371613 0-2.8094101.35300917-5.535788 1.01543119-8.1374654v-1.8927097c-.8846422 2.7792996-1.41052293 5.7176682-1.5249633 8.7606636v2.5156037c.11444037 3.0429954.6403211 5.9813641 1.5249633 8.7606636z" mask="url(#e)"/><path d="m4.1609367 17.9571401h-.56009175c-.25703669.503364-.50105504 1.0143318-.7329633 1.5319908h.55282569c.23342202-.5182673.48107339-1.0286268.74022936-1.5319908" mask="url(#e)"/><path d="m8.24897064 11.8289032c.44262386-.5249585.90068808-1.0362304 1.37479817-1.5319908h-.6136789c-.4683578.4960646-.92097248 1.0073364-1.35844954 1.5319908z" mask="url(#e)"/><path d="m56.6405753 10.3281312c-.0096916-.0102658-.0190803-.0208335-.0290747-.0314012h-.0015144c.0102974.0105677.0205947.0208335.0305891.0314012" mask="url(#e)"/><path d="m3.02295138 45.5340083h-.5407156c.21344037.5173548.43899083 1.0283226.67725688 1.5322949h.54374312c-.23947706-.5039723-.46593578-1.0146359-.6802844-1.5322949" mask="url(#e)"/><path d="m52.4466578 59.3225336c-.729633.5410784-1.482578 1.0523503-2.2573211 1.5319908h.0847706c.759-.4811613 1.4977156-.9918249 2.2131193-1.5319908z" mask="url(#e)"/><path d="m13.7872183 59.3225336h-.6527339c.7151009.5401659 1.4538165 1.0508295 2.2125138 1.5319908h.6975412c-.7747431-.4796405-1.5273853-.9909124-2.2573211-1.5319908" mask="url(#e)"/><path d="m12.2264394 58.0896111v-1.7692258c-.5243669-.4668664-1.0332935-.950765-1.5249633-1.4516959v1.8574286c.493789.470212 1.0024129.9246083 1.5249633 1.3634931" mask="url(#e)"/><path d="m16.1906174 59.3225336h-2.4032477c.7299358.5410784 1.482578 1.0523503 2.2573211 1.5319908h2.831945c-.9224863-.4668663-1.8189358-.9781382-2.6860184-1.5319908" mask="url(#e)"/><path d="m1.74482202 33.2776866c-.00121101-.105235-.00423853-.2101659-.00423853-.315705 0-.4075576.01059633-.8123779.02603669-1.2162857h-.21555963v-6.909318c-.66242202 2.6016774-1.01512844 5.3280553-1.01512844 8.1371613s.35270642 5.5354838 1.01512844 8.1371613v-7.8330139z" mask="url(#e)"/><path d="m11.471345 10.296882h-1.84769729c-.4741101.4957604-.93217432 1.0073364-1.37479817 1.5319908h1.71842202c.48410094-.5273917.98515594-1.0386636 1.50407344-1.5319908" mask="url(#e)"/><path d="m3.70326606 47.0661816h1.39508256c-.25431192-.5027558-.49469724-1.0140277-.72266972-1.532295h-1.35269725c.21434863.517659.44080734 1.0286268.68028441 1.532295" mask="url(#e)"/><path d="m60.5228174 47.0661816h1.9388257c.2385688-.5039724.4641193-1.014636.6775597-1.532295h-1.8931101c-.2279725.5182673-.4683578 1.0295392-.7232753 1.532295" mask="url(#e)"/><path d="m53.4019321 56.3141806v2.2719816c.5216422-.4172903 1.0302661-.8500922 1.5249633-1.2981014v-2.4264884c-.4916697.501235-1.0005963.9854377-1.5249633 1.4526082" mask="url(#e)"/><path d="m46.7446514 60.8545548h3.4447156c.7747431-.4796405 1.527688-.9909124 2.2573211-1.5319907h-3.0157156c-.8670826.5538525-1.7638349 1.0651244-2.6863211 1.5319907" mask="url(#e)"/><path d="m3.42061651 19.4891613h1.36662386c.24825688-.5188756.51104587-1.029235.7862477-1.5319908h-1.4126422c-.25915596.5033641-.50680734 1.0137235-.74022936 1.5319908" mask="url(#e)"/><path d="m55.6542578 11.8289032h2.3151468c-.4280918-.5134009-.8707156-1.0140276-1.3287798-1.5006636-.0099909-.010341-.0205872-.020682-.030578-.0313272h-2.4598624c.5186147.4930231 1.0199725 1.0045991 1.5040734 1.5319908" mask="url(#e)"/><path d="m62.0206239 17.9571401h-1.9730367c.2758073.5027558.5385963 1.0131152.7865504 1.5319908h1.9191468c-.2316055-.517659-.4756238-1.0286268-.7326605-1.5319908" mask="url(#e)"/><path d="m63.8548789 31.7456654c.0154404.4039079.0257339.8087281.0257339 1.2162858 0 .1055391-.0030275.21047-.0039357.315705h.200422v9.681318c.898266-2.8285714 1.4256605-5.8213825 1.5249633-8.9215576v-2.1509309c-.0993028-3.099871-.6266973-6.0929862-1.5249633-8.9215576v8.7807373z" mask="url(#e)"/><path d="m44.2519706 61.9820295v-1.1274747h-1.5249633v1.6904517c.5143762-.1745807 1.0226973-.3625438 1.5249633-.562977" mask="url(#e)"/><path d="m42.7269468 64.2567484v.1271336c.5137706-.1639355 1.0223945-.340341 1.5249633-.5289124v-.1122304c-.5025688.1834009-1.0111927.3549401-1.5249633.5140092" mask="url(#e)"/><path d="m42.7269468 62.5448848v1.7117419c.5137706-.1590691 1.0223945-.3303041 1.5249633-.5140092v-1.7607097c-.5022661.2007374-1.0105872.3883963-1.5249633.562977" mask="url(#e)"/><path d="m42.7271284 60.8544332h1.5249633v-.7910876h-1.5249633z" mask="url(#e)"/><path d="m22.9493202 62.5627078v-1.7080921h-1.5249633v1.1499815c.5016605.1992166 1.0105871.3847466 1.5249633.5581106" mask="url(#e)"/><path d="m21.4243266 63.5314479v.344295c.5025688.1876589 1.0108899.363152 1.5249633.5261751v-.3251337c-.5140734-.1694101-1.0226972-.3512903-1.5249633-.5453364" mask="url(#e)"/><path d="m21.4243266 62.0044756v1.5271244c.5022661.1940461 1.0108899.3759263 1.5249633.5453364v-1.5143502c-.5143761-.1730599-1.0233027-.358894-1.5249633-.5581106" mask="url(#e)"/><path d="m21.4242661 60.8544332h1.5249633v-.9431613h-1.5249633z" mask="url(#e)"/></g></g></svg>