<?xml version="1.0" encoding="UTF-8"?>
<svg width="66px" height="74px" viewBox="0 0 66 74" version="1.1" xmlns="http://www.w3.org/2000/svg" xmlns:xlink="http://www.w3.org/1999/xlink">
    <!-- Generator: sketchtool 50.2 (55047) - http://www.bohemiancoding.com/sketch -->
    <title>31363E8F-83D2-4CC2-A0E8-459A0348350A</title>
    <desc>Created with sketchtool.</desc>
    <defs>
        <polygon id="path-1" points="0 0.148758197 1.02768387 0.148758197 1.02768387 13.2046025 0 13.2046025"></polygon>
        <polygon id="path-3" points="0 73.8529098 65.9087558 73.8529098 65.9087558 -2.84217094e-14 0 -2.84217094e-14"></polygon>
    </defs>
    <g id="Future-Project-Desktop" stroke="none" stroke-width="1" fill="none" fill-rule="evenodd">
        <g id="Future-Schools" transform="translate(-792.000000, -1694.000000)">
            <g id="future-schools/locations" transform="translate(1.000000, 1523.000000)">
                <g id="Group-86" transform="translate(791.000000, 171.000000)">
                    <path d="M31.7378793,73.6408877 C38.5380083,73.6408877 44.8365982,71.4603139 49.9696949,67.7651664 L13.5057594,67.7651664 C18.6391604,71.4603139 24.9374461,73.6408877 31.7378793,73.6408877" id="Fill-1" fill="#5CD8FF"></path>
                    <path d="M45.4660922,27.3310811 L47.1215668,27.3310811 C47.6002949,27.3310811 47.9905161,27.7138189 47.9978157,28.1908762 L47.9978157,33.4327451 L51.2400276,33.4327451 C51.7239263,33.4327451 52.1162765,33.8236713 52.1162765,34.3061877 L52.1162765,37.5873598 L62.5670876,37.5873598 C60.4091613,24.0987369 49.5322396,13.4727615 35.8976129,11.6546057 L35.8976129,15.1001549 C41.307788,16.8245975 45.1050691,21.6788762 45.4660922,27.3310811" id="Fill-3" fill="#5CD8FF"></path>
                    <path d="M11.6635382,32.8105385 C11.6635382,32.3280221 12.0555843,31.9367926 12.5394829,31.9367926 L15.7819991,31.9367926 L15.7819991,26.6882516 C15.7819991,26.2057352 16.1740452,25.814809 16.6579438,25.814809 L18.3137226,25.814809 C18.673529,20.1644238 22.4677687,15.3107516 27.8752065,13.5838828 L27.8752065,10.1392434 C14.23693,11.9610385 3.35879171,22.5952025 1.20938157,36.0917107 L11.6635382,36.0917107 L11.6635382,32.8105385 Z" id="Fill-5" fill="#5CD8FF"></path>
                    <polygon id="Fill-7" fill="#000000" points="32.9476258 14.6845721 32.9509471 14.6845721 32.9542684 14.6845721"></polygon>
                    <path d="M14.7222276,66.2489246 L51.1864673,66.2489246 C51.9644765,65.6887689 52.716329,65.0946459 53.4386793,64.4671623 L12.4703198,64.4671623 C13.1923659,65.0946459 13.9442184,65.6887689 14.7222276,66.2489246" id="Fill-9" fill="#000000"></path>
                    <path d="M37.1142028,8.39348033 L37.1142028,7.81239836 C37.1145069,7.34322623 36.7428387,6.95745574 36.2726267,6.93895574 L33.8306267,6.93895574 L33.8306267,0.873685246 C33.8306267,0.391168852 33.4382765,0.000242622951 32.9543779,0.000242622951 C32.4704793,0.000242622951 32.078129,0.391168852 32.078129,0.873685246 L32.078129,6.93895574 L29.6638065,6.93895574 C29.1799078,6.93895574 28.7875576,7.33018525 28.7875576,7.81239836 L28.7875576,8.39439016 C30.1525714,8.22182459 31.5434378,8.13266066 32.9543779,8.13266066 C34.3631889,8.13266066 35.7516221,8.22152131 37.1142028,8.39348033" id="Fill-11" fill="#000000"></path>
                    <path d="M44.9305493,25.8146877 L20.9783281,25.8146877 C21.4299871,19.5504664 26.6528074,14.6955811 32.9507889,14.6846631 L32.9477475,14.6846631 L32.9544387,14.6846631 L32.9507889,14.6846631 C39.2515078,14.6919418 44.4785862,19.5477369 44.9305493,25.8146877 Z M47.4622728,27.5412533 L47.4622728,31.9163516 L18.4396092,31.9163516 L18.4605954,27.5412533 L47.4622728,27.5412533 Z M51.5807336,33.6702123 L51.5807336,36.9516877 L51.5807336,55.1599336 L42.6126415,55.1599336 L42.6126415,33.6702123 L51.5807336,33.6702123 Z M33.8306876,55.1599336 L40.8394618,55.1599336 L40.8394618,33.6702123 L33.8306876,33.6702123 L33.8306876,55.1599336 Z M25.0624203,55.1599336 L32.0781899,55.1599336 L32.0781899,33.6702123 L25.0624203,33.6702123 L25.0624203,55.1599336 Z M23.2895447,55.1599336 L14.3211484,55.1599336 L14.3211484,33.6702123 L14.3211484,33.6635402 L23.2895447,33.6635402 L23.2895447,55.1599336 Z M35.3690654,13.164327 C33.7732037,12.8643844 32.1356737,12.8643844 30.5401161,13.164327 L30.5401161,9.95351557 C29.9509825,9.9987041 29.3670194,10.0617861 28.7876184,10.1391221 L28.7876184,13.5837615 C23.3804848,15.3106303 19.585941,20.1643025 19.2261346,25.8146877 L17.5703558,25.8146877 C17.0864571,25.8146877 16.6944111,26.2059172 16.6944111,26.6881303 L16.6944111,31.9369746 L13.4518949,31.9369746 C12.9679963,31.9369746 12.5759502,32.3282041 12.5759502,32.8104172 L12.5759502,36.0918926 L2.12179355,36.0918926 C2.03237419,36.6535648 1.95664147,37.2194828 1.89794101,37.7908598 L12.5759502,37.7908598 L12.5759502,55.1256631 L9.12661382,55.1256631 C8.64271521,55.1256631 8.25036498,55.5168926 8.25036498,55.999409 L8.25036498,59.7825074 L8.0794341,59.7831139 C8.68833733,60.5825566 9.33495484,61.3516713 10.0165493,62.088032 L10.0165493,56.90045 L55.8923281,56.90045 L55.8874618,62.093491 C56.5654065,61.3613762 57.20807,60.5974172 57.8139318,59.8034336 L57.6585124,59.8034336 L57.6585124,56.020032 C57.6585124,55.5375156 57.2661622,55.1462861 56.7822636,55.1462861 L53.3329272,55.1462861 L53.3329272,37.8251303 L64.0145862,37.8251303 C63.9546691,37.2352533 63.8761991,36.6508352 63.7834341,36.0709664 L53.3329272,36.0709664 L53.3329272,32.7897943 C53.3329272,32.3072779 52.940577,31.9163516 52.4566783,31.9163516 L49.2144664,31.9163516 L49.2144664,26.6744828 C49.2071668,26.1974254 48.8166415,25.8146877 48.3382175,25.8146877 L46.6827429,25.8146877 C46.3217198,20.1624828 42.5244387,15.3082041 37.1142636,13.5837615 L37.1142636,10.1382123 C36.5369917,10.0611795 35.9554618,9.99840082 35.3690654,9.95351557 L35.3690654,13.164327 Z" id="Fill-13" fill="#000000"></path>
                    <path d="M60.1031889,48.3618508 C60.6001659,48.3618508 61.0028571,47.9603098 61.0028571,47.4647525 L61.0028571,40.6564492 C61.0028571,40.1608918 60.6001659,39.7593508 60.1031889,39.7593508 C59.6065161,39.7593508 59.2038249,40.1608918 59.2038249,40.6564492 L59.2038249,47.4647525 C59.2038249,47.9603098 59.6065161,48.3618508 60.1031889,48.3618508" id="Fill-15" fill="#000000"></path>
                    <path d="M5.93969585,39.7594115 C5.44271889,39.7594115 5.0403318,40.1609525 5.0403318,40.6565098 L5.0403318,47.4648131 C5.0403318,47.9603705 5.44271889,48.3619115 5.93969585,48.3619115 C6.43667281,48.3619115 6.83936406,47.9603705 6.83936406,47.4648131 L6.83936406,40.6565098 C6.83936406,40.1609525 6.43667281,39.7594115 5.93969585,39.7594115" id="Fill-17" fill="#000000"></path>
                    <path d="M7.53199908,61.5849836 L7.29385161,61.5849836 C7.60894839,61.9743934 7.93225714,62.3562213 8.26408203,62.7307705 L8.26408203,62.4550902 C8.01498525,62.1697049 7.77136313,61.8791639 7.53199908,61.5849836" id="Fill-19" fill="#000000"></path>
                    <path d="M7.53199908,61.5849836 C7.77136313,61.8791639 8.01498525,62.1697049 8.26408203,62.4550902 L8.26408203,61.5849836 L7.53199908,61.5849836 Z" id="Fill-21" fill="#000000"></path>
                    <path d="M57.6584212,62.4437172 L57.6584212,62.7154549 C57.9853797,62.3457582 58.3044304,61.9690861 58.614965,61.584832 L58.3804673,61.584832 C58.1444488,61.8750697 57.9044765,62.1619713 57.6584212,62.4437172" id="Fill-23" fill="#000000"></path>
                    <path d="M57.6584212,62.4437172 C57.9044765,62.1619713 58.1444488,61.8750697 58.3804673,61.584832 L57.6584212,61.584832 L57.6584212,62.4437172 Z" id="Fill-25" fill="#000000"></path>
                    <path d="M1.02759263,48.2395385 L1.02759263,49.1478582 C2.02154654,53.0140549 3.70591521,56.6066943 5.93957419,59.7893008 L6.16890138,59.7886943 C3.75305806,56.3646779 1.98109493,52.456932 1.02759263,48.2395385" id="Fill-27" fill="#000000"></path>
                    <path d="M1.73361014,40.9928156 C1.73361014,39.9119303 1.78957327,38.8437828 1.89784977,37.7907992 L1.02768387,37.7907992 L1.02768387,48.2396598 C1.98088203,52.45675 3.75314931,56.3647992 6.16899263,59.7888156 L8.07934286,59.7833566 C4.09926912,54.5575615 1.73361014,48.0458648 1.73361014,40.9928156" id="Fill-29" fill="#000000"></path>
                    <path d="M32.9562332,73.669032 C25.0663438,73.669032 17.8288507,70.8849336 12.1768783,66.2490156 L11.8964544,66.2490156 C17.6110811,70.9941139 24.9538092,73.8528189 32.9544083,73.8528189 C40.9550074,73.8528189 48.2977355,70.9941139 54.0120581,66.2490156 L53.735588,66.2490156 C48.0836157,70.8849336 40.8461226,73.669032 32.9562332,73.669032" id="Fill-31" fill="#000000"></path>
                    <path d="M32.9544691,72.1244943 C26.1540359,72.1244943 19.8557502,69.9439205 14.7223493,66.248773 L12.1769392,66.248773 C17.8289115,70.8849943 25.0661005,73.6690926 32.956294,73.6690926 C40.8461834,73.6690926 48.0836765,70.8849943 53.7356488,66.248773 L51.1862848,66.248773 C46.053188,69.9439205 39.7545982,72.1244943 32.9544691,72.1244943" id="Fill-33" fill="#000000"></path>
                    <path d="M65.3117143,36.0710574 L65.5392166,36.0710574 C63.3539171,21.6274098 51.7065899,10.2344426 37.1142028,8.39354098 L37.1142028,8.65466393 C51.5931429,10.4849508 63.1215484,21.7469016 65.3117143,36.0710574" id="Fill-35" fill="#000000"></path>
                    <path d="M37.1142028,8.65454262 L37.1142028,10.138182 C50.7488295,11.9563377 61.6257512,22.5823131 63.7836774,36.0709361 L65.3117143,36.0709361 C63.1215484,21.7467803 51.5928387,10.4848295 37.1142028,8.65454262" id="Fill-37" fill="#000000"></path>
                    <path d="M10.0165797,64.466274 L10.1778133,64.466274 C10.1237668,64.4141018 10.0703242,64.3616279 10.0165797,64.3091541 L10.0165797,64.466274 Z" id="Fill-39" fill="#000000"></path>
                    <path d="M10.0165797,62.0881836 L10.0165797,64.3090934 C10.070718,64.3621672 10.1245521,64.4146344 10.1789945,64.4671016 L12.4701373,64.4671016 C11.6094,63.7192164 10.790635,62.9246262 10.0165797,62.0881836" id="Fill-41" fill="#000000"></path>
                    <path d="M28.787588,8.65572541 L28.787588,8.39429918 C14.1918553,10.2388402 2.54361567,21.6402992 0.366832258,36.091832 L0.597680184,36.091832 C2.7796341,21.7613074 14.3071272,10.491168 28.787588,8.65572541" id="Fill-43" fill="#000000"></path>
                    <path d="M28.787588,10.1391221 L28.787588,8.65578607 C14.3071272,10.4912287 2.7796341,21.761368 0.597680184,36.0918926 L2.12176313,36.0918926 C4.27147742,22.5953844 15.1493115,11.9609172 28.787588,10.1391221" id="Fill-45" fill="#000000"></path>
                    <path d="M59.733376,59.803373 L59.9593576,59.803373 C62.1848046,56.6362336 63.8661318,53.0627008 64.8634313,49.217127 L64.8643438,48.333373 C63.9044544,52.5210451 62.1364452,56.4011926 59.733376,59.803373" id="Fill-47" fill="#000000"></path>
                    <path d="M64.0146166,37.8251303 C64.1207641,38.8668926 64.1749023,39.9235156 64.1749023,40.9928762 C64.1749023,48.0547205 61.8031604,54.5743025 57.8139622,59.8034336 L59.7334369,59.8034336 C62.136506,56.40095 63.9045152,52.5211057 64.8644046,48.3331303 L64.8741373,37.8251303 L64.0146166,37.8251303 Z" id="Fill-49" fill="#000000"></path>
                    <path d="M55.8844092,64.4663303 L55.8844092,64.3191623 C55.8342879,64.3683188 55.7841666,64.4174753 55.7334415,64.4663303 L55.8844092,64.4663303 Z" id="Fill-51" fill="#000000"></path>
                    <path d="M53.4386793,64.4671623 L55.7334719,64.4671623 C55.7845687,64.4180311 55.8350571,64.3685967 55.8855456,64.3191623 L55.8876747,62.0934 C55.1148359,62.9277197 54.2975917,63.7207934 53.4386793,64.4671623" id="Fill-53" fill="#000000"></path>
                    <path d="M58.3804673,61.5849836 L58.614965,61.5849836 C59.0827438,61.0066311 59.5310571,60.4128115 59.9592968,59.8032213 L59.7333152,59.8032213 C59.3026424,60.4131148 58.8509834,61.0069344 58.3804673,61.5849836" id="Fill-55" fill="#000000"></path>
                    <path d="M55.8855152,64.319223 L55.8855152,64.467223 L55.7334415,64.467223 C55.0922986,65.0874279 54.4262157,65.6824607 53.7358009,66.2489852 L54.012271,66.2489852 C55.3167594,65.1656738 56.5354783,63.9837967 57.6583908,62.7154852 L57.6583908,62.4437475 C57.0926765,63.0924607 56.5001972,63.7172148 55.8855152,64.319223" id="Fill-57" fill="#000000"></path>
                    <path d="M51.186376,66.2489246 L53.7357401,66.2489246 C54.4261548,65.6824 55.0922378,65.0873672 55.7333806,64.4671623 L53.438588,64.4671623 C52.7162378,65.0946459 51.9646894,65.6887689 51.186376,66.2489246" id="Fill-59" fill="#000000"></path>
                    <path d="M55.8875834,62.0933697 L55.8854544,64.319132 C56.5004406,63.7171238 57.0926157,63.0923697 57.65833,62.4436566 L57.65833,61.5850746 L58.380376,61.5850746 C58.8508922,61.0070254 59.3028553,60.4129025 59.7335281,59.8033123 L57.8140535,59.8033123 C57.2081917,60.5972959 56.5655281,61.3615582 55.8875834,62.0933697" id="Fill-61" fill="#000000"></path>
                    <path d="M65.5392166,36.0710574 L65.3117143,36.0710574 C65.5589862,37.6884426 65.6873364,39.3449508 65.6873364,41.0311803 C65.6873364,43.5417213 65.4026544,45.985541 64.8643134,48.3332213 L64.8634009,49.2172787 C65.5456037,46.5878525 65.9087558,43.8316557 65.9087558,40.9929672 C65.9087558,39.3203852 65.7819263,37.676918 65.5392166,36.0710574" id="Fill-63" fill="#000000"></path>
                    <path d="M64.0146166,37.8251303 L64.8741373,37.8251303 L64.8644046,48.3331303 C65.4024415,45.98545 65.6874276,43.5416303 65.6874276,41.0313926 C65.6874276,39.3448598 65.5590774,37.6886549 65.3118055,36.0709664 L63.7834645,36.0709664 C63.8762295,36.6508352 63.9546995,37.2352533 64.0146166,37.8251303" id="Fill-65" fill="#000000"></path>
                    <g id="Group-69" transform="translate(0.000000, 35.943074)">
                        <mask id="mask-2" fill="white">
                            <use xlink:href="#path-1"></use>
                        </mask>
                        <g id="Clip-68"></g>
                        <path d="M0.22503871,5.0882582 C0.22503871,3.4090041 0.352476498,1.75947131 0.597923502,0.148758197 L0.366771429,0.148758197 C0.125886636,1.74794672 -3.04147465e-05,3.38443852 -3.04147465e-05,5.0497418 C-3.04147465e-05,7.86386475 0.357342857,10.5961025 1.02768387,13.2046025 L1.02768387,12.2965861 C0.503333641,9.97741393 0.22503871,7.56513525 0.22503871,5.0882582" id="Fill-67" fill="#000000" mask="url(#mask-2)"></path>
                    </g>
                    <path d="M1.89784977,37.7907689 C1.95655023,37.2196951 2.03228295,36.6534738 2.1217023,36.0918016 L0.597923502,36.0918016 C0.352476498,37.7025148 0.22503871,39.3520475 0.22503871,41.0313016 C0.22503871,43.508482 0.503333641,45.9204574 1.02768387,48.2396295 L1.02768387,37.7907689 L1.89784977,37.7907689 Z" id="Fill-70" fill="#000000"></path>
                    <path d="M10.1790249,64.4671623 L10.0166101,64.4671623 L10.0166101,64.3091541 C9.40922765,63.713818 8.82404793,63.0960393 8.26411244,62.4552115 L8.26411244,62.7308918 C9.38367926,63.993441 10.5975318,65.1701623 11.8962415,66.2489246 L12.1766654,66.2489246 C11.4862507,65.6824 10.8201677,65.0873672 10.1790249,64.4671623" id="Fill-72" fill="#000000"></path>
                    <path d="M6.16899263,59.7886943 L5.93966544,59.7893008 C6.37094654,60.4034402 6.82260553,61.0021123 7.29372995,61.5850139 L7.53187742,61.5850139 C7.05771152,61.0024156 6.60301106,60.4034402 6.16899263,59.7886943" id="Fill-74" fill="#000000"></path>
                    <path d="M12.4702286,64.4671623 L10.1790857,64.4671623 C10.8202286,65.0873672 11.4863115,65.6824 12.1767263,66.2489246 L14.7221364,66.2489246 C13.9444313,65.6887689 13.1922747,65.0946459 12.4702286,64.4671623" id="Fill-76" fill="#000000"></path>
                    <path d="M8.07940369,59.7832352 L6.16905346,59.7886943 C6.60307189,60.4034402 7.05777235,61.0024156 7.53193825,61.5850139 L8.2640212,61.5850139 L8.2640212,62.4551205 C8.82395668,63.0959484 9.40913641,63.713727 10.0165189,64.3090631 L10.0165189,62.0881533 C9.33492442,61.3517926 8.68830691,60.5826779 8.07940369,59.7832352" id="Fill-78" fill="#000000"></path>
                    <path d="M32.9562332,8.39348033 C34.3647401,8.39348033 35.752565,8.48234098 37.1142332,8.65460328 L37.1142332,8.39348033 C35.7513484,8.22152131 34.3632194,8.13266066 32.9544083,8.13266066 C31.5431641,8.13266066 30.1526018,8.22182459 28.787588,8.39439016 L28.787588,8.65581639 C30.1526018,8.48264426 31.5437724,8.39348033 32.9562332,8.39348033" id="Fill-80" fill="#000000"></path>
                    <path d="M30.5399945,9.95342459 L30.5399945,8.68602295 L35.3689438,8.68602295 L35.3689438,9.95342459 C35.9556442,9.99830984 36.5371742,10.0610885 37.1141419,10.1381213 L37.1141419,8.65448197 C35.7527779,8.48221967 34.3646488,8.39335902 32.9561419,8.39335902 C31.5439853,8.39335902 30.1528147,8.48282623 28.7874968,8.65569508 L28.7874968,10.1390311 C29.3672018,10.0616951 29.9508608,9.99861311 30.5399945,9.95342459" id="Fill-82" fill="#000000"></path>
                    <mask id="mask-4" fill="white">
                        <use xlink:href="#path-3"></use>
                    </mask>
                    <g id="Clip-85"></g>
                    <path d="M36.4611982,4.40027049 L42.3339816,4.40027049 L42.3339816,1.32047541 L36.4611982,1.32047541 L36.4611982,4.40027049 Z M35.8148848,5.68920492 L42.9799908,5.68920492 C43.3370599,5.68920492 43.6263041,5.40078689 43.6263041,5.0447377 L43.6263041,0.676008197 C43.6263041,0.319959016 43.3370599,0.0315409836 42.9799908,0.0315409836 L35.8148848,0.0315409836 C35.4578157,0.0315409836 35.1685714,0.319959016 35.1685714,0.676008197 L35.1685714,5.0447377 C35.1685714,5.40078689 35.4578157,5.68920492 35.8148848,5.68920492 Z" id="Fill-84" fill="#000000" mask="url(#mask-4)"></path>
                </g>
            </g>
        </g>
    </g>
</svg>