<svg height="74" viewBox="0 0 66 74" width="66" xmlns="http://www.w3.org/2000/svg" xmlns:xlink="http://www.w3.org/1999/xlink"><mask id="a" fill="#fff"><path d="m0 .14155983h28.0434912v47.28228457h-28.0434912z" fill="none"/></mask><mask id="b" fill="#fff"><path d="m.15322949.14688536h43.89121661v8.83219414h-43.89121661z" fill="none"/></mask><mask id="c" fill="#fff"><path d="m.06189401.21487866h10.16917049v6.79205439h-10.16917049z" fill="none"/></mask><g fill="none" fill-rule="evenodd" transform=""><path d="m56.0257272 42.4187197c.0200737.0167196.0404516.0349874.0611336.0569707.1611982.1637908.2503134.3817657.2503134.6139832 0 .2322176-.0888111.4508118-.2506175.6155314-.2816406.2879498-.7555023.3334645-1.0867189.1021758l-.0425807-.0207448c-5.3672903-1.6214979-11.2184792-1.4555398-16.9224608.4811548l-.1040184.0352971v2.3144351h20.0968479l-1.6773733 10.2438912.1849217-.0055732c1.8251889-.0548033 2.8045438-.5532971 3.7522673-1.0353807.2256774-.1148703.4492258-.2281925.6812903-.3353222 2.0511705-4.230385 3.2063226-8.9886778 3.2063226-14.0169624 0-15.6121422-11.1175023-28.6302594-25.7162765-31.2815648 1.0699908 6.8646611 3.7650415 13.7280837 8.0547373 20.4806611 4.3885438 6.9092468 8.994553 11.2709121 9.512212 11.7514477" fill="#5cd8ff"/><path d="m52.2378442 57.5919088c-1.0052073-.5118075-2.0444792-1.040954-4.0923041-1.040954-2.0487373 0-3.0880092.5294561-4.0935207 1.040954-1.0185899.5186192-1.9803042 1.0084435-3.9566544 1.0084435-1.9760461 0-2.9377604-.4898243-3.9560461-1.0084435-1.0052074-.5114979-2.0447834-1.040954-4.0938249-1.040954-2.048129 0-3.0874009.5291465-4.0926083 1.040954-1.0182857.5186192-1.9803041 1.0084435-3.9566544 1.0084435-1.9766543 0-2.9386728-.4898243-3.9569585-1.0084435-1.0049032-.5118075-2.0441751-1.040954-4.092-1.040954-2.0484332 0-3.0880092.5291465-4.0929124 1.040954-1.0185899.5186192-1.98030418 1.0084435-3.95695856 1.0084435-.47477419 0-.88932719-.028795-1.26190783-.078954 1.33368664 2.1258745 2.90917051 4.0795984 4.68599999 5.8224686.2305438-.1071297.4504424-.2182845.668212-.3291297 1.0185899-.5183096 1.9803041-1.0081339 3.9569585-1.0081339 1.9763502 0 2.9383687.4898243 3.9566544 1.0081339 1.0049032.5118076 2.0444793 1.040954 4.0929124 1.040954 2.0481291 0 3.0877051-.5291464 4.0929125-1.040954 1.0179815-.5183096 1.98-1.0081339 3.9563502-1.0081339 1.9769585 0 2.938977.4898243 3.957871 1.0084436 1.0049032.5114979 2.0441751 1.0406443 4.092 1.0406443 2.0484332 0 3.087705-.5291464 4.0926083-1.0406443 1.0185898-.5186193 1.9806083-1.0084436 3.9575668-1.0084436 1.9760461 0 2.9380645.4895147 3.9563502 1.0081339.5891337.3000251 1.1922581.6053138 2.0015945.8074979 2.1831705-2.0500167 4.0795299-4.411205 5.6191244-7.015138-.8798986.4309958-1.8288387.7932552-3.5281106.7932552-1.9763502 0-2.9383686-.4898243-3.9566544-1.0084435" fill="#5cd8ff"/><path d="m11.989706 55.8203674c.9011889-.4585523 1.7524977-.8917155 3.3079078-.9880084l.264-.01641-5.3682027-8.1985189h26.0292442v-2.3144351l-.1040184-.0352971c-6.0680461-2.0586862-17.9310139-2.0757155-24.0936498-.0504686-1.90153-6.9628117-.5544608-14.9517155 3.801235-22.5151967 2.3464977-4.0749539 5.4451521-7.7737154 9.0940092-10.9377573-13.3262212 3.6204268-23.17147462 16.012795-23.17147462 30.7038075 0 5.4509205 1.3558894 10.5850963 3.74162212 15.0730879.63536406.1910377 1.39847005.3195314 2.40641475.3195314 2.04782488 0 3.08740095-.5288368 4.09291245-1.0403347" fill="#5cd8ff"/><path d="m48.1455401 64.7462226c-2.0487373 0-3.0880092.5291464-4.0935207 1.0406443-1.0185899.5186193-1.9803042 1.0081339-3.9566544 1.0081339-1.9760461 0-2.9377604-.4895146-3.9560461-1.0081339-1.0052074-.5114979-2.0447834-1.0406443-4.0938249-1.0406443-2.048129 0-3.0874009.5288368-4.0926083 1.0406443-1.0182857.5183097-1.9803041 1.0081339-3.9566544 1.0081339-1.9766543 0-2.9386728-.4898242-3.9569585-1.0081339-1.0052074-.5118075-2.0441751-1.0406443-4.092-1.0406443-1.6077235 0-2.5931613.3260335-3.4289585.713682 5.4807373 4.8462259 12.6315484 7.7833138 20.443576 7.7833138 7.4978433 0 14.3861751-2.7057992 19.7735392-7.2077238-.1672811-.0811214-.3318249-.1644101-.4975853-.2486277-1.0052073-.5118075-2.0444792-1.0406443-4.0923041-1.0406443" fill="#5cd8ff"/><g fill="#000"><path d="m65.6931152 40.2297439c0 4.7796569-.9903041 9.3227615-2.7704793 13.4317741.0830323-.0117657.1678894-.0226025.2557881-.0322008 1.7640553-4.1068452 2.7455391-8.6384938 2.7455391-13.3995733 0-16.6834393-12.0229493-30.56045185-27.7114838-33.12784934.0091244.07988285.0149032.16007531.0246359.24026778 15.5683963 2.56801674 27.456 16.31343936 27.456 32.88758156"/><path d="m56.0818728 63.8155255c.0377143.0003096.0736037.0018578.1125346.0018578.0653917 0 .1271336-.0021674.1903963-.0030963 2.3647465-2.4336401 4.3681659-5.2313975 5.9187097-8.3041004-.0976314.0219833-.1931337.045205-.2849862.0702845-1.5587558 3.0516486-3.5670415 5.8277322-5.9366544 8.2350544"/><path d="m4.45463502 56.61c-.11588018-.0557322-.23054378-.1127029-.34490322-.1706025 1.44865438 2.661523 3.24190783 5.1019749 5.31893087 7.2597406.08759447-.0145523.17275576-.0303431.25548387-.0470628-2.0332258-2.0942929-3.79545622-4.4610544-5.22951152-7.0420753"/><path d="m.23072627 33.3232837c0-16.5540168 11.85870963-30.28581592 27.39942853-32.8782929.1371705-.10155649.2749493-.20311298.4133364-.30343097-15.8506451 2.42466109-28.04361286 16.38062757-28.04361286 33.18172387 0 4.9775063 1.07181567 9.7045272 2.99007373 13.9568954.10523503.0467531.20834102.0944351.31023042.1436653-1.96813825-4.2827113-3.06945622-9.0605105-3.06945622-14.1005607" mask="url(#a)" transform="translate(0 6.90646)"/><path d="m22.3167594 8.74419916c-8.4422212 0-16.13745617-3.25445188-21.94271885-8.5973138-.07238709.03189121-.14599078.06285355-.22081106.09319665 5.85818433 5.42676987 13.63797231 8.73912134 22.16352991 8.73912134 8.3166083 0 15.922424-3.15320502 21.7276867-8.34466109-.0921567-.0157908-.1815761-.03251046-.2685622-.05077824-5.7459539 5.08308786-13.2492719 8.16043514-21.4591245 8.16043514" mask="url(#b)" transform="translate(10.645161 64.806042)"/><path d="m5.49031797 55.3025531c-2.38573272-4.487682-3.74162212-9.6218577-3.74162212-15.0727782 0-14.6913222 9.84525345-27.0836904 23.17147465-30.70411716.8725991-.75641004 1.7765254-1.48154812 2.7099539-2.17417573-15.5407189 2.59216736-27.39942855 16.32427619-27.39942855 32.87829289 0 5.0400502 1.10131797 9.8178494 3.06945622 14.100251.16941014.0820503.33608295.1662678.50397235.2517239.51035945.259774 1.03045162.5235732 1.68619355.7208033"/><path d="m6.63564608 57.2829046c-.9182212-.1235397-1.5718341-.3795983-2.18104147-.6728117 1.4340553 2.5810209 3.19628571 4.9477824 5.22951152 7.0417657.64874657-.13159 1.16731797-.3288201 1.63722577-.5464854-1.77682946-1.7428703-3.35200918-3.6965941-4.68569582-5.8224686"/><path d="m32.9619207 72.0048485c-7.8123318 0-14.9628387-2.9370878-20.443576-7.7833138-.2293272.1062009-.4477051.2167364-.6639539.3269624-.2752535.1399498-.5468572.2774226-.835189.4043682 5.8052627 5.3428619 13.5004977 8.5973138 21.9427189 8.5973138 8.2098526 0 15.7131705-3.0773473 21.4591245-8.1604352-.668212-.1393305-1.1910415-.3538995-1.6855853-.5929288-5.387364 4.5019246-12.2756958 7.2080334-19.7735392 7.2080334"/><path d="m59.7227309 56.5685724c-1.5395945 2.603933-3.4362581 4.9654309-5.6194286 7.0151381.5450323.135615 1.1849585.2238577 1.9784793.2319079 2.3696129-2.4076318 4.3778986-5.1834058 5.9366543-8.2350544-.7433364.2009456-1.3108755.4895147-1.8671612.7731297-.1429494.0727615-.2849862.1445942-.4285438.2148787"/><path d="m38.2369935 7.34206946c.0635669.53533891.1383871 1.07067782.2217236 1.60601673 14.5990783 2.65130541 25.7162764 15.66942261 25.7162764 31.28156481 0 5.0282846-1.155152 9.7865775-3.2063225 14.0169624.5492903-.2535816 1.1496774-.470318 1.9538433-.5848787 1.7804792-4.1090125 2.7704792-8.6524268 2.7704792-13.4320837 0-16.5741422-11.8876036-30.31956481-27.456-32.88758154"/><path d="m8.02508295 4.22001255.21655299-.10341422v2.62684518c.66912443.06749791 1.33247005.15605021 1.98942856.26348954-.1849216-1.63357322-.28194468-3.26683682-.28194468-4.89824267v-1.02423431c0-.4796067-.38322581-.86973222-.85374194-.86973222-.47082028 0-.85374194.39012552-.85374194.86973222v1.12486192l-.09033179.04087029c-2.86993549 1.29856067-5.57958526 2.88445189-8.08941014 4.70317992 1.18191705-.18082008 2.38451613-.29569038 3.60353917-.3449205 1.40181567-.87251883 2.85776958-1.67196653 4.35964977-2.38843515" mask="url(#c)" transform="translate(27.981567 .094745)"/><path d="m37.9307475 14.6242577.2977603 1.000703c1.5608848 5.2493556 4.0214378 10.4631046 7.3126175 15.4966527 1.9279908 2.9473054 4.0801383 5.7472301 6.3968295 8.3217489.1210507.1359247.2442305.2712302.3686268.4068452l.3065806.3343933-.4431428-.0761673c-4.5366636-.7777741-9.3917696-.4102511-14.0421844 1.0626276l-.1970875.0622343zm18.0794378 32.4943599-.385659 2.3577824h-40.6946268l-1.5450691-2.3577824zm-1.3720093 8.3846025-.1523778-.0291046c-1.0082489-.1922762-1.7077881-.5480335-2.384212-.8923347-1.0185899-.5183097-1.9803042-1.0075147-3.9560461-1.0075147-1.9769585 0-2.938977.4895147-3.9575668 1.0075147-1.0049033.5114979-2.0441751 1.0403347-4.0926083 1.0403347-2.0478249 0-3.0870968-.5288368-4.092-1.0400251-1.018894-.5183096-1.9809125-1.0078243-3.957871-1.0078243-1.9763502 0-2.9383687.489205-3.9563502 1.0075147-1.0052074.5114979-2.0447834 1.0403347-4.0929125 1.0403347-2.048129 0-3.0874009-.5288368-4.0926083-1.0403347-.6438801-.3275816-1.2518709-.6368954-2.1202119-.8273139l-.0602212-.0133138-1.6542581-2.5259079h39.2712166zm-18.4149124-14.2674477-.1952627-.0588285c-5.8350691-1.7527782-15.9698709-1.9267866-22.5914654-.388887l-.1548111.0359163-.0285898-.1591464c-1.0867189-6.0413724.3503778-12.9035565 4.046682-19.3220502 2.7789954-4.8257908 6.6815115-9.1280084 11.3319263-12.5809289-1.2628203.17927197-2.5016129.43533054-3.7115116.763841-3.6488571 3.1640418-6.7475115 6.8628034-9.0940092 10.9377573-4.3556958 7.5637908-5.702765 15.552385-3.801235 22.5151967 6.1626359-2.0252469 18.0256037-2.0082176 24.0936498.0507782l.1040184.0349875v2.3144351h-26.0292442l5.3682027 8.1985188-.264.0164101c-1.5554101.0962929-2.4067189.5294561-3.3079078.9880084-1.0055115.5114979-2.04508757 1.0403347-4.09291245 1.0403347-1.00824885 0-1.77105069-.1284937-2.40641475-.3195314.35889401.6752887.74059908 1.3354059 1.14511521 1.9803515.37258064.0498493.78713364.0789539 1.26190783.0789539 1.97665438 0 2.93836866-.4898242 3.95695856-1.0084435 1.0049032-.5118075 2.0444792-1.0409539 4.0929124-1.0409539 2.0478249 0 3.0870968.5291464 4.092 1.0409539 1.0182857.5186193 1.9803042 1.0084435 3.9569585 1.0084435 1.9763503 0 2.9383687-.4898242 3.9566544-1.0084435 1.0052074-.5118075 2.0444793-1.0409539 4.0926083-1.0409539 2.0490415 0 3.0886175.529456 4.0938249 1.0409539 1.0182857.5186193 1.98 1.0084435 3.9560461 1.0084435 1.9763502 0 2.9380645-.4898242 3.9566544-1.0084435 1.0055115-.5114979 2.0447834-1.0409539 4.0935207-1.0409539 2.0478249 0 3.0870968.5291464 4.0923041 1.0409539 1.0182858.5186193 1.9803042 1.0084435 3.9566544 1.0084435 1.6992719 0 2.648212-.3622594 3.5281106-.7932552.4458802-.7542427.8613456-1.5289205 1.2460922-2.3218661-.2320645.1068201-.4556129.2201423-.6812903.3350126-.9474194.4820836-1.9270784.980887-3.7522673 1.0353807l-.1846175.0055732 1.6770691-10.2438912h-20.0968479v-2.3144351l.1040184-.0349875c5.7039816-1.9366945 11.5551705-2.1029623 16.9224608-.4811548l.0425807.0207448c.3312166.2309791.8053825.185774 1.0867189-.1021758.1621106-.1647196.2509216-.3833138.2509216-.615841 0-.2319079-.0891152-.4501924-.2506175-.6136736-.020682-.0219833-.0407557-.040251-.0611336-.0569707-.517659-.4808452-5.1236682-4.8425105-9.512212-11.7514477-4.2896959-6.752887-6.9847466-13.616-8.0547373-20.4806611-.7366452-.13375732-1.4821106-.2405774-2.2354839-.32076987z"/><path d="m3.30012166 54.3301498c-.1018894-.0489205-.20499539-.0969121-.31023042-.1433557.34611982.7669373.7202212 1.5177741 1.11987097 2.2525105.11435945.0578996.22902304.1148703.34490323.1706025-.41303226-.742477-.7977788-1.5029121-1.15454378-2.2797573"/><path d="m31.2593945 6.95367782c.1298709-.08266945.2570046-.16905439.3874838-.25048535-1.2187189.04923012-2.4213179.16410042-3.603235.3449205-.1383871.10031799-.2761659.20187448-.4136405.30343096 1.1898248-.19846862 2.4003318-.33377406 3.6293917-.39786611"/><path d="m62.9225143 53.6616109c-.2819447.6508284-.5833549 1.2905104-.9042304 1.9187364.0921567-.0247699.187659-.0479917.2852903-.0702845.3105346-.615841.6012995-1.2437574.8750323-1.8806528-.0878987.0092887-.17306.0204352-.2560922.0322009"/><path d="m36.2232028 7.07340921c.6779447.06811715 1.348894.15883682 2.0137603.26875313-.0094285-.08019247-.0155115-.16038493-.0243318-.24026778-.6569585-.10774895-1.3203041-.19630125-1.9894285-.26348954z"/><path d="m5.49031797 55.3025531c-.65574193-.1972301-1.1758341-.4610293-1.68619355-.7208033-.1678894-.0854561-.33456221-.1696736-.50397235-.2517239.35676498.7768452.74151152 1.5372804 1.15454378 2.280067.60920738.2932134 1.26282028.549272 2.18104148.6728117-.40451613-.6449456-.78652535-1.3050628-1.14541936-1.9803515"/><path d="m38.4588387 8.948241c-.0833364-.53533891-.1584608-1.07067782-.2217235-1.60601673-.6651705-.10991632-1.3361198-.20063599-2.0140645-.26875314v1.554c.7536774.08019247 1.4991428.18701255 2.235788.32076987"/><path d="m28.631682 8.76181674c.8516129-.63225105 1.7281659-1.23508787 2.6278341-1.80820084-1.2290599.06409205-2.4395668.19939749-3.6293917.39786611-.9334285.69262761-1.8373548 1.41776569-2.7099539 2.17417573 1.2098986-.32851046 2.4489954-.58456904 3.7115115-.763841"/><path d="m59.7227309 56.5685724c.1435576-.0702845.2855944-.1421172.4285438-.2148787.5562857-.283615 1.1238248-.5721841 1.8671612-.7731297.3208756-.6282259.6222858-1.2682176.9042305-1.919046-.8044701.1145607-1.4048572.3316067-1.9538434.5851883-.3847465.7932552-.8002119 1.5676234-1.2460921 2.3218661"/><path d="m48.1455401 61.7680477c-1.9769585 0-2.938977.4898243-3.9575668 1.0084435-1.0049033.5118075-2.0441751 1.040954-4.0926083 1.040954-2.0478249 0-3.0870968-.5291465-4.092-1.040954-1.0185899-.5186192-1.9809125-1.0084435-3.957871-1.0084435-1.9763502 0-2.9383687.4898243-3.9563502 1.0081339-1.0052074.5118075-2.0447834 1.0412636-4.0929125 1.0412636-2.0484331 0-3.0880092-.5291465-4.0929124-1.0412636-1.0182857-.5183096-1.9803042-1.0081339-3.9566544-1.0081339-1.9766544 0-2.9383686.4898243-3.9569585 1.0081339-.2177696.1108452-.4373641.2223096-.668212.3291297.3896129.3820753.7883502.7548619 1.1968203 1.1161925.8357972-.3876486 1.821235-.713682 3.4289585-.713682 2.0478249 0 3.0867926.5288368 4.092 1.0403347 1.0182857.5186192 1.9803042 1.0081339 3.9569585 1.0081339 1.9763503 0 2.9383687-.4895147 3.9566544-1.0078243 1.0052074-.5118075 2.0444793-1.0406443 4.0926083-1.0406443 2.0490415 0 3.0886175.5291464 4.0938249 1.0406443 1.0182857.5183096 1.98 1.0078243 3.9560461 1.0078243 1.9763502 0 2.9380645-.4895147 3.9566544-1.0078243 1.0055115-.5114979 2.0447834-1.0406443 4.0935207-1.0406443 2.0478249 0 3.0870968.5288368 4.0923041 1.0403347.1657604.0845272.3303042.1678159.4975853.2486276.4677788-.3907448.9236958-.7960418 1.3680553-1.2131046-.8093364-.2021841-1.4124608-.5071632-2.0015945-.8074979-1.0182857-.5183096-1.9803041-1.0081339-3.9563502-1.0081339"/><path d="m9.68423779 63.6519515c-.08272811.0167196-.16819355.0325104-.25578802.0470627.44435945.4616486.90027653.911841 1.36988023 1.346862.0748202-.0300335.1484239-.0609959.2211152-.0928871-.4571337-.4207782-.9021014-.8551799-1.33520741-1.3010376"/><path d="m56.0818728 63.8155255c-.5356037.5440084-1.0897604 1.0691297-1.6609493 1.5741255.0869862.0185775.1764055.0352971.2688664.0507783.5836589-.5220251 1.1490691-1.0641757 1.6950138-1.6261423-.0632627.0009289-.1250046.0030963-.1903963.0030963-.0389309 0-.0748203-.0015482-.1125346-.0018578"/><path d="m12.5184055 64.2214728c-.4087742-.3613305-.8072073-.7341172-1.1971244-1.1161925-.4696037.2176653-.9884793.4148954-1.63692165.546795.43280185.4458578.87776955.8799498 1.33490325 1.300728.2883318-.1266359.5599355-.2644184.8348848-.4043682.2162488-.1102259.4349308-.2207615.664258-.3269623"/><path d="m52.7353687 64.796877c.4945437.2387197 1.0176774.4532887 1.6855852.5929289.571189-.5053055 1.1253456-1.0304268 1.6609493-1.5741256-.7935207-.0080502-1.433447-.0962929-1.9784792-.2319079-.4443595.4170627-.9002765.8223598-1.3680553 1.2131046"/></g></g></svg>