<?xml version="1.0" encoding="UTF-8"?>
<svg width="66px" height="69px" viewBox="0 0 66 69" version="1.1" xmlns="http://www.w3.org/2000/svg" xmlns:xlink="http://www.w3.org/1999/xlink">
    <!-- Generator: sketchtool 50.2 (55047) - http://www.bohemiancoding.com/sketch -->
    <title>4212D12B-36DE-411E-A987-31288873C375</title>
    <desc>Created with sketchtool.</desc>
    <defs>
        <polygon id="path-1" points="0.205694931 0.205601762 62.6544691 0.205601762 62.6544691 62.6167401 0.205694931 62.6167401"></polygon>
        <polygon id="path-3" points="0.205694931 0.205601762 62.6544691 0.205601762 62.6544691 62.6167401 0.205694931 62.6167401"></polygon>
        <polygon id="path-5" points="0.092278341 0.266273128 11.0601401 0.266273128 11.0601401 3.38282379 0.092278341 3.38282379"></polygon>
        <polygon id="path-7" points="0 0.0165356828 65.8479263 0.0165356828 65.8479263 57.1453744 0 57.1453744"></polygon>
    </defs>
    <g id="Future-Project-Desktop" stroke="none" stroke-width="1" fill="none" fill-rule="evenodd">
        <g id="Future-Schools" transform="translate(-270.000000, -1700.000000)">
            <g id="future-schools/locations" transform="translate(1.000000, 1523.000000)">
                <g id="Group-51" transform="translate(269.000000, 177.000000)">
                    <g id="Group-3" transform="translate(2.129032, 6.116987)">
                        <mask id="mask-2" fill="white">
                            <use xlink:href="#path-1"></use>
                        </mask>
                        <g id="Clip-2"></g>
                        <path d="M62.6544691,31.4112317 C62.6544691,48.6454256 48.674635,62.6168617 31.430082,62.6168617 C14.185529,62.6168617 0.205694931,48.6454256 0.205694931,31.4112317 C0.205694931,14.1767339 14.185529,0.205601762 31.430082,0.205601762 C48.674635,0.205601762 62.6544691,14.1767339 62.6544691,31.4112317" id="Fill-1" fill="#4598FA" mask="url(#mask-2)"></path>
                    </g>
                    <g id="Group-6" transform="translate(1.824885, 6.116987)">
                        <mask id="mask-4" fill="white">
                            <use xlink:href="#path-3"></use>
                        </mask>
                        <g id="Clip-5"></g>
                        <path d="M62.6544691,31.4112317 C62.6544691,48.6454256 48.674635,62.6168617 31.430082,62.6168617 C14.185529,62.6168617 0.205694931,48.6454256 0.205694931,31.4112317 C0.205694931,14.1767339 14.185529,0.205601762 31.430082,0.205601762 C48.674635,0.205601762 62.6544691,14.1767339 62.6544691,31.4112317" id="Fill-4" fill="#5CD8FF" mask="url(#mask-4)"></path>
                    </g>
                    <path d="M32.6392203,17.7114489 C33.0340037,17.7062815 33.4254415,17.7062815 33.7633493,17.7114489 C33.7864645,17.7114489 33.8077548,17.7126648 33.828741,17.7154004 C34.8576719,17.7385018 35.8914691,17.8178366 36.9258747,17.9412463 L36.9258747,12.0002551 L29.8270728,12.0002551 L29.8270728,17.8971714 C30.7443816,17.7980789 31.6607779,17.7351581 32.5744369,17.7154004 C32.595423,17.7126648 32.6176258,17.7114489 32.6392203,17.7114489" id="Fill-7" fill="#FFFFFF"></path>
                    <path d="M28.7063806,4.8825859 L29.7815419,10.5946916 L37.0613115,10.5946916 L38.268777,5.05584581 C36.5317908,4.75552863 34.7458369,4.597163 32.9239935,4.597163 C31.493588,4.597163 30.0859935,4.69564758 28.7063806,4.8825859" id="Fill-9" fill="#FFFFFF"></path>
                    <g id="Group-13" transform="translate(27.981567, 0.037692)">
                        <mask id="mask-6" fill="white">
                            <use xlink:href="#path-5"></use>
                        </mask>
                        <g id="Clip-12"></g>
                        <path d="M10.6440664,3.38282379 L11.0601401,1.474837 L9.85084977,0.266273128 L1.31008479,0.266273128 L0.092278341,1.48425991 L0.414978802,3.20014097 C1.89556866,2.99587665 3.40657327,2.8876652 4.94251797,2.8876652 C6.88662857,2.8876652 8.79150415,3.05818943 10.6440664,3.38282379" id="Fill-11" fill="#FFFFFF" mask="url(#mask-6)"></path>
                    </g>
                    <path d="M55.1000848,2.87252775 C55.1000848,2.53543084 54.8266562,2.26186256 54.4890525,2.26277445 L40.3173014,2.26277445 L40.0049419,3.69414449 C45.7362968,4.95438238 50.9125825,7.70982291 55.1006931,11.5309639 L55.1000848,2.87252775 Z" id="Fill-14" fill="#FFFFFF"></path>
                    <path d="M39.6491502,5.32771189 L38.4769659,10.7063683 L44.1228553,12.7514432 L48.9180442,12.7514432 C49.3061364,12.7514432 49.6206249,13.0660467 49.6206249,13.4539057 L49.6206249,14.7907427 L51.6249567,16.3139101 C51.7992332,16.4461348 51.902035,16.6534388 51.902035,16.8729013 L51.902035,17.72917 L53.8796018,19.2313639 C54.0553991,19.3641965 54.1572885,19.5715004 54.1572885,19.790963 L54.1572885,20.6657736 L55.1016664,21.3822185 L55.1010581,13.8466282 C50.9451871,9.65951366 45.6137862,6.64023172 39.6491502,5.32771189" id="Fill-16" fill="#FFFFFF"></path>
                    <path d="M26.7837733,2.26192335 L12.6850175,2.26192335 C12.3483263,2.26192335 12.0739853,2.53549163 12.0739853,2.87258855 L12.0739853,10.3835577 C16.3046765,6.91471189 21.4122249,4.4772185 27.0088424,3.45832863 L26.7837733,2.26192335 Z" id="Fill-18" fill="#FFFFFF"></path>
                    <path d="M13.0169641,20.6653176 L13.0169641,19.790507 C13.0169641,19.5710445 13.1194618,19.3634366 13.2946507,19.230604 L15.2728258,17.7287141 L15.2728258,16.8721414 C15.2728258,16.6529828 15.3747152,16.4453749 15.5499041,16.3125423 L17.5533235,14.7899828 L17.5533235,13.4531458 C17.5533235,13.0661987 17.8681161,12.7506833 18.2562083,12.7506833 L23.0504848,12.7506833 L28.3946599,10.8153396 L27.318282,5.10141013 C21.5260977,6.15404009 16.2862452,8.80826035 12.0741069,12.5859344 L12.0741069,21.3814586 L13.0169641,20.6653176 Z" id="Fill-20" fill="#FFFFFF"></path>
                    <path d="M33.5127622,53.7661374 C33.5127622,53.6311771 33.5450018,53.5387718 33.6033982,53.3682476 C33.6879512,53.1177806 33.8512783,52.6274855 33.920624,52.0645427 C33.609177,52.0672784 33.299859,52.070926 32.9874995,52.070926 C25.4562,52.070926 17.7366332,51.225904 11.9687806,49.5185339 C11.3647438,50.0814767 11.1205134,50.8380449 11.2859696,51.6508467 C11.4544673,52.4782388 11.9849005,53.0861683 12.7802461,53.3621683 C16.3117023,54.5941374 22.8119419,55.2078423 32.6526332,55.2415824 L33.751518,55.2427982 C33.9008544,55.2415824 34.0422829,55.2403665 34.1922276,55.2382388 L33.592753,54.0910758 C33.5404396,53.9907674 33.5127622,53.8798203 33.5127622,53.7661374" id="Fill-22" fill="#FFFFFF"></path>
                    <path d="M36.158906,21.7885586 C36.546694,21.7885586 36.8617908,22.10377 36.8617908,22.4910211 C36.8617908,22.8782722 36.546694,23.1934837 36.158906,23.1934837 L34.5682147,23.1934837 C34.5697355,23.1889242 34.5697355,23.1828449 34.5718645,23.1776775 L34.498565,23.1776775 L34.498565,21.8137877 C34.4952194,21.8052767 34.4936986,21.7970696 34.4906571,21.7885586 L36.158906,21.7885586 Z M33.6825373,19.1157965 C33.3428046,19.111541 33.0064175,19.1124529 32.7193023,19.1157965 C32.7013576,19.1176203 32.6821963,19.1188361 32.6639475,19.1188361 C29.3128507,19.1869242 25.9149152,19.8149154 22.5638184,20.9848758 C22.1109429,21.1423295 21.7499198,21.4259286 21.504777,21.7885586 L31.180012,21.7885586 C31.180012,21.7891665 31.180012,21.7906863 31.1794037,21.7912943 L31.2137724,21.7912943 L31.2137724,23.1880123 L31.1012378,23.1880123 C31.1012378,23.1901401 31.1012378,23.1922678 31.1027585,23.1940916 L21.1470995,23.1940916 C21.1118184,42.7703339 16.4942516,46.2461709 13.3654866,48.453259 C19.04027,49.9685233 26.5502793,50.6901357 33.8008507,50.6305586 C33.7448876,50.4734088 33.6728046,50.3214264 33.5769982,50.1752194 L30.8831641,48.1143383 C30.7873576,48.0401709 30.7113207,47.9422943 30.6638737,47.8301313 L28.3611733,42.3937216 C28.3249797,42.3070916 28.3058184,42.2146863 28.3058184,42.1201533 L28.3058184,32.0105894 C28.3058184,31.6227304 28.6212194,31.3075189 29.0087032,31.3075189 C29.3967954,31.3075189 29.711588,31.6221225 29.711588,32.0105894 L29.711588,41.9778978 L31.88533,47.1112546 L34.5183346,49.1271489 C34.5718645,49.1675762 34.6190074,49.2165145 34.6591548,49.2706203 C34.9483991,49.6679022 35.1430535,50.1156423 35.2525465,50.6086731 C41.9562608,50.4572987 48.3026018,49.6314264 52.613588,48.1511181 C49.4960765,45.8978273 45.2535235,41.8775894 45.2535235,22.9761489 C45.2535235,22.0524 44.7115327,21.2897524 43.8392378,20.9848758 C40.488141,19.8149154 37.0892931,19.1875322 33.7394129,19.1188361 C33.7202516,19.1188361 33.7020028,19.1176203 33.6825373,19.1157965 Z" id="Fill-24" fill="#FFFFFF"></path>
                    <path d="M34.9731871,53.7006938 L35.7706618,55.2265969 C44.4878323,55.1168656 50.3414544,54.5062004 53.6229014,53.362989 C54.4185512,53.086685 54.9495926,52.4787555 55.1171779,51.6513634 C55.284459,50.8254912 55.0332332,50.0588921 54.4076018,49.4926057 C54.2783392,49.3755793 54.1286986,49.2606806 53.9805788,49.1457819 C49.4916664,50.8996586 42.6106341,51.8702181 35.323565,52.0419581 C35.2773346,52.5596101 35.1663207,53.1091784 34.9731871,53.7006938" id="Fill-26" fill="#FFFFFF"></path>
                    <path d="M45.3599447,21.8968916 C46.2322396,22.2014643 46.7742304,22.9641119 46.7742304,23.8878608 C46.7742304,42.7896053 51.0167834,46.8098432 54.1342949,49.0631339 C49.8233088,50.5434423 43.4769677,51.3693145 36.7732535,51.520689 C36.6637604,51.0276581 36.469106,50.5796141 36.1798618,50.1826361 C36.1397143,50.1282264 36.0925714,50.0792881 36.0393456,50.0391648 L33.4060369,48.0229665 L31.2322949,42.8899137 L31.2322949,32.9223013 C31.2322949,32.5338344 30.9175023,32.2192308 30.5294101,32.2192308 C30.1419263,32.2192308 29.8265253,32.5344423 29.8265253,32.9223013 L29.8265253,43.0318652 C29.8265253,43.1263982 29.8456866,43.2188035 29.8818802,43.3057374 L32.1845806,48.7418432 C32.2320276,48.8543101 32.3080645,48.9521868 32.403871,49.0260502 L35.0977051,51.0872352 C35.1935115,51.2331383 35.2655945,51.3851207 35.3215576,51.5425744 C28.0709862,51.6018476 20.560977,50.8805392 14.8861935,49.3652749 C18.0149585,47.1578828 22.6325253,43.6823498 22.6678065,24.1061075 L32.6234654,24.1061075 C32.6219447,24.1039797 32.6219447,24.101852 32.6219447,24.1000282 L32.7344793,24.1000282 L32.7344793,22.7030062 L32.7001106,22.7030062 C32.7007189,22.7023982 32.7007189,22.7011824 32.7007189,22.7005744 L23.0254839,22.7005744 C23.2709309,22.3376405 23.6319539,22.0543454 24.0845253,21.8968916 C27.4356221,20.7266273 30.8335576,20.0989401 34.1846544,20.030852 C34.2029032,20.030852 34.2220645,20.0296361 34.2400092,20.0275084 C34.5271244,20.0241648 34.8635115,20.0235568 35.2032442,20.0275084 C35.2227097,20.0296361 35.2409585,20.030852 35.2601198,20.030852 C38.61,20.099548 42.0088479,20.7266273 45.3599447,21.8968916 Z M35.2722857,56.1549357 L34.1734009,56.1534159 C24.3327097,56.1196758 17.83247,55.5059709 14.3010138,54.2743057 C13.5056682,53.9980018 12.975235,53.3900722 12.8067373,52.5626802 C12.6412811,51.7498784 12.8855115,50.9933101 13.4895484,50.4303674 C19.2574009,52.1377374 26.9769677,52.9830634 34.5082673,52.9830634 C34.8206267,52.9830634 35.1299447,52.9791119 35.4413917,52.9763762 C35.3720461,53.5393189 35.2087189,54.0296141 35.1241659,54.2800811 C35.0657696,54.4506053 35.03353,54.5430106 35.03353,54.6779709 C35.03353,54.7916537 35.0612074,54.9026009 35.1135207,55.0032132 L35.7129954,56.1500722 C35.5630507,56.1522 35.4216221,56.1534159 35.2722857,56.1549357 Z M31.347871,12.9119974 L38.4466728,12.9119974 L38.4466728,18.8532925 C37.4122673,18.7298828 36.37847,18.650548 35.3495392,18.6274467 C35.328553,18.624711 35.3072627,18.6231912 35.2841475,18.6231912 C34.9462396,18.6180238 34.5548018,18.6180238 34.1600184,18.6231912 C34.138424,18.6231912 34.1162212,18.624711 34.095235,18.6274467 C33.181576,18.6472044 32.2648756,18.7098211 31.347871,18.8089137 L31.347871,12.9119974 Z M56.6222212,22.2941736 L55.6781475,21.5777286 L55.6781475,20.7029181 C55.6781475,20.4834555 55.5762581,20.2758476 55.4004608,20.143015 L53.422894,18.6411251 L53.422894,17.7848564 C53.422894,17.5653938 53.3200922,17.3577859 53.1458157,17.2258652 L51.1414839,15.7026978 L51.1414839,14.3658608 C51.1414839,13.9780018 50.8269954,13.6633982 50.4385991,13.6633982 L45.6437143,13.6633982 L39.9978249,11.6183233 L41.1700092,6.23966696 C40.7134839,6.13905463 40.2533088,6.04816916 39.789788,5.96792247 L38.5820184,11.5064643 L31.3022488,11.5064643 L30.2270876,5.79435859 C29.7611336,5.85758326 29.2982212,5.92992687 28.8392627,6.01321322 L29.9153364,11.7271427 L24.5711613,13.6627903 L19.7768848,13.6627903 C19.3887926,13.6627903 19.074,13.9780018 19.074,14.3652529 L19.074,15.7020899 L17.0705806,17.2243454 C16.8953917,17.357178 16.7938065,17.5647859 16.7938065,17.7842485 L16.7938065,18.6405172 L14.8153272,20.142711 C14.6401382,20.2755436 14.5376406,20.4828476 14.5376406,20.7023101 L14.5376406,21.5771207 L13.5947834,22.2935656 L13.5947834,13.4977374 C13.1121014,13.9305833 12.6434101,14.3783233 12.1884055,14.8397419 L12.1884055,23.7100414 C12.1884055,23.9772264 12.339871,24.2203982 12.579235,24.3392485 C12.6777788,24.3881868 12.7848387,24.412504 12.8912903,24.412504 C13.0421475,24.412504 13.1920922,24.3638696 13.3164885,24.2693366 L15.6651152,22.4850634 C15.8403041,22.3522308 15.9428018,22.1446229 15.9428018,21.9254643 L15.9428018,21.0503498 L17.9203687,19.5484599 C18.0961659,19.4156273 18.1980553,19.2080194 18.1980553,18.9888608 L18.1980553,18.1322881 L20.2020829,16.6097286 C20.3766636,16.476896 20.4797696,16.2695921 20.4797696,16.0501295 L20.4797696,15.0677154 L24.6937327,15.0677154 C24.7755484,15.0677154 24.8564516,15.0531251 24.9337051,15.0254643 L29.9417972,13.2114026 L29.9417972,18.9934203 C27.8294931,19.3137991 25.7144516,19.8378344 23.619788,20.5700855 C22.1878618,21.0704115 21.2632535,22.3719885 21.2632535,23.8878608 C21.2632535,43.1510194 16.8750138,46.2447727 13.9710138,48.2913674 C13.4691705,48.6448784 12.9943963,48.9792396 12.5698065,49.3637551 C11.5773733,50.2631868 11.1609954,51.5319357 11.4280369,52.8435436 C11.69447,54.1557595 12.5725438,55.1615789 13.8365806,55.6017198 C17.5149401,56.8829313 24.1660369,57.5246009 34.1691429,57.5610767 L35.2735023,57.5610767 C35.2741106,57.5610767 35.2747189,57.5598608 35.2762396,57.5598608 C35.7826452,57.5571251 36.2753641,57.5531736 36.7650415,57.5477022 C36.8021475,57.5543894 36.8377327,57.5629004 36.8757512,57.5629004 C36.9219816,57.5629004 36.9694286,57.5549974 37.0162673,57.5464863 C46.0497512,57.446178 52.1427373,56.8084599 55.6048479,55.6017198 C56.8688848,55.1615789 57.7469585,54.1557595 58.0146083,52.8435436 C58.2816498,51.5304159 57.8652719,50.2631868 56.8728387,49.3637551 C56.4476406,48.9792396 55.9740829,48.6448784 55.4716313,48.2913674 C52.5682396,46.2441648 48.1806083,43.1510194 48.1806083,23.8878608 C48.1806083,22.3725965 47.2556959,21.0704115 45.8240737,20.5700855 C43.844682,19.8788696 41.8476498,19.3761119 39.8530507,19.0514775 L39.8530507,13.0594203 L45.2820829,15.0260722 C45.3587281,15.053733 45.4393272,15.0683233 45.5211429,15.0683233 L49.737235,15.0683233 L49.737235,16.0510414 C49.737235,16.2702 49.8391244,16.4778079 50.0143134,16.6097286 L52.0177327,18.1332 L52.0177327,18.9894687 C52.0177327,19.2089313 52.1202304,19.4162352 52.2954194,19.5490678 L54.2738986,21.0512617 L54.2738986,21.9260722 C54.2738986,22.1452308 54.3754839,22.3528388 54.5512811,22.4856714 L56.9005161,24.2699445 C57.1122028,24.4304379 57.3984055,24.4574907 57.6377696,24.3392485 C57.8765253,24.2203982 58.0276866,23.9772264 58.0276866,23.7100414 L58.0276866,16.270504 C57.5757235,15.7513322 57.106424,15.2473586 56.6216129,14.7585833 L56.6222212,22.2941736 Z" id="Fill-28" fill="#FFFFFF"></path>
                    <path d="M43.8392074,20.9849974 C44.7115023,21.28957 45.2534931,22.0522176 45.2534931,22.9759665 C45.2534931,41.877711 49.4960461,45.8979489 52.6135576,48.1512396 C48.3025714,49.631548 41.9562304,50.4574203 35.2525161,50.6087947 C35.143023,50.1157639 34.9483687,49.6677198 34.6591244,49.2707419 C34.618977,49.2163322 34.5718341,49.1673938 34.5186083,49.1272705 L31.8852995,47.1110722 L29.7115576,41.9780194 L29.7115576,32.010407 C29.7115576,31.6219401 29.396765,31.3073366 29.0086728,31.3073366 C28.6211889,31.3073366 28.305788,31.622548 28.305788,32.010407 L28.305788,42.1199709 C28.305788,42.214504 28.3249493,42.3069093 28.3611429,42.3938432 L30.6638433,47.8299489 C30.7112903,47.9424159 30.7873272,48.0402925 30.8831336,48.1141559 L33.5769677,50.175341 C33.6727742,50.3212441 33.7448571,50.4732264 33.8008203,50.6306802 C26.5502488,50.6899533 19.0402396,49.9686449 13.3654562,48.4533806 C16.4942212,46.2459885 21.111788,42.7704555 21.1470691,23.1942132 L31.1027281,23.1942132 C31.1012074,23.1920855 31.1012074,23.1899577 31.1012074,23.1881339 L31.2137419,23.1881339 L31.2137419,21.7911119 L31.1793733,21.7911119 C31.1799816,21.790504 31.1799816,21.7892881 31.1799816,21.7886802 L21.5047465,21.7886802 C21.7501935,21.4257463 22.1112166,21.1424511 22.563788,20.9849974 C25.9148848,19.814733 29.3128203,19.1870458 32.6639171,19.1189577 C32.6821659,19.1189577 32.7013272,19.1177419 32.7192719,19.1156141 C33.0063871,19.1122705 33.3427742,19.1116626 33.6825069,19.1156141 C33.7019724,19.1177419 33.7202212,19.1189577 33.7393825,19.1189577 C37.0892627,19.1876537 40.4881106,19.814733 43.8392074,20.9849974 Z M53.9807005,49.1458123 C54.1288203,49.260711 54.2781567,49.3756097 54.4077235,49.4926361 C55.0333548,50.0589225 55.2845806,50.8255216 55.1172995,51.6513938 C54.9494101,52.4787859 54.4183687,53.0867154 53.623023,53.3630194 C50.341576,54.5062308 44.4879539,55.116896 35.7707834,55.2263233 L34.9733088,53.7007242 C35.1661382,53.1092088 35.2774562,52.5593366 35.3236866,52.0419885 C42.6107558,51.8702485 49.491788,50.899689 53.9807005,49.1458123 Z M33.7515484,55.2430414 L32.6526636,55.2415216 C22.8119724,55.2077815 16.3117327,54.5940767 12.7802765,53.3624115 C11.9849309,53.0861075 11.4544977,52.478178 11.286,51.6507859 C11.1205438,50.8379841 11.3647742,50.0814159 11.9688111,49.5184731 C17.7366636,51.2258432 25.4562304,52.0711692 32.98753,52.0711692 C33.2998894,52.0711692 33.6092074,52.0672176 33.9206544,52.0644819 C33.8513088,52.6274247 33.6879816,53.1177198 33.6034286,53.3681868 C33.5450323,53.538711 33.5127926,53.6311163 33.5127926,53.7660767 C33.5127926,53.8797595 33.54047,53.9907066 33.5927834,54.0913189 L34.1922581,55.238178 C34.0423134,55.2403057 33.9008848,55.2415216 33.7515484,55.2430414 Z M29.8271336,12.0001031 L36.9259355,12.0001031 L36.9259355,17.9413982 C35.89153,17.8179885 34.8577327,17.7386537 33.8288018,17.7155524 C33.8078157,17.7128167 33.7865253,17.7112969 33.7634101,17.7112969 C33.4255023,17.7061295 33.0340645,17.7061295 32.6392811,17.7112969 C32.6176866,17.7112969 32.5954839,17.7128167 32.5744977,17.7155524 C31.6608387,17.7353101 30.7441382,17.7979269 29.8271336,17.8970194 L29.8271336,12.0001031 Z M55.1014839,21.3822793 L54.1574101,20.6658344 L54.1574101,19.7910238 C54.1574101,19.5715612 54.0555207,19.3639533 53.8797235,19.2311207 L51.9021567,17.7292308 L51.9021567,16.8729621 C51.9021567,16.6534996 51.7993548,16.4458916 51.6250783,16.3139709 L49.6207465,14.7908035 L49.6207465,13.4539665 C49.6207465,13.0661075 49.3062581,12.751504 48.9178618,12.751504 L44.122977,12.751504 L38.4770876,10.7064291 L39.6492719,5.32777269 C39.1927465,5.22716035 38.7325714,5.13627489 38.2690507,5.05602819 L37.0612811,10.59457 L29.7815115,10.59457 L28.7063502,4.88246432 C28.2403963,4.94568899 27.7774839,5.0180326 27.3185253,5.10131894 L28.3945991,10.8152485 L23.050424,12.750896 L18.2561475,12.750896 C17.8680553,12.750896 17.5532627,13.0661075 17.5532627,13.4533586 L17.5532627,14.7901956 L15.5498433,16.3124511 C15.3746544,16.4452837 15.2730691,16.6528916 15.2730691,16.8723542 L15.2730691,17.7286229 L13.2945899,19.2308167 C13.1194009,19.3636493 13.0169032,19.5709533 13.0169032,19.7904159 L13.0169032,20.6652264 L12.0740461,21.3816714 L12.0740461,12.5858432 C11.5913641,13.018689 11.1226728,13.4664291 10.6676682,13.9278476 L10.6676682,22.7981471 C10.6676682,23.0653322 10.8191336,23.308504 11.0584977,23.4273542 C11.1570415,23.4762925 11.2641014,23.5006097 11.370553,23.5006097 C11.5214101,23.5006097 11.6713548,23.4519753 11.7957512,23.3574423 L14.1443779,21.5731692 C14.3195668,21.4403366 14.4220645,21.2327286 14.4220645,21.01357 L14.4220645,20.1384555 L16.3996313,18.6365656 C16.5754286,18.503733 16.677318,18.2961251 16.677318,18.0769665 L16.677318,17.2203938 L18.6813456,15.6978344 C18.8559263,15.5650018 18.9590323,15.3576978 18.9590323,15.1382352 L18.9590323,14.1558211 L23.1729954,14.1558211 C23.2548111,14.1558211 23.3354101,14.1412308 23.4129677,14.11357 L28.4210599,12.2995084 L28.4210599,18.081526 C26.3087558,18.4019048 24.1937143,18.9259401 22.0990507,19.6581912 C20.6671244,20.1585172 19.7425161,21.4600943 19.7425161,22.9759665 C19.7425161,42.2391251 15.3542765,45.3328784 12.4502765,47.3794731 C11.9484332,47.7329841 11.473659,48.0673454 11.0490691,48.4518608 C10.0566359,49.3512925 9.64025806,50.6200414 9.90729954,51.9316493 C10.1737327,53.2438652 11.0518065,54.2496846 12.3158433,54.6898256 C15.9942028,55.971037 22.6452995,56.6127066 32.6484055,56.6491824 L33.752765,56.6491824 C33.7533733,56.6491824 33.7539816,56.6479665 33.7555023,56.6479665 C34.2619078,56.6452308 34.7546267,56.6412793 35.2443041,56.6358079 C35.2814101,56.6424952 35.3169954,56.6510062 35.3550138,56.6510062 C35.4012442,56.6510062 35.4486912,56.6431031 35.49553,56.6345921 C44.5290138,56.5342837 50.622,55.8965656 54.0841106,54.6898256 C55.3481475,54.2496846 56.2262212,53.2438652 56.493871,51.9316493 C56.7609124,50.6185216 56.3445346,49.3512925 55.3521014,48.4518608 C54.9269032,48.0673454 54.4533456,47.7329841 53.950894,47.3794731 C51.0475023,45.3322705 46.659871,42.2391251 46.659871,22.9759665 C46.659871,21.4607022 45.7349585,20.1585172 44.3033364,19.6581912 C42.3239447,18.9669753 40.3269124,18.4642176 38.3323134,18.1395833 L38.3323134,12.147526 L43.7613456,14.114178 C43.8379908,14.1418388 43.9185899,14.1564291 44.0004055,14.1564291 L48.2164977,14.1564291 L48.2164977,15.1391471 C48.2164977,15.3583057 48.3183871,15.5659137 48.493576,15.6978344 L50.4969954,17.2213057 L50.4969954,18.0775744 C50.4969954,18.297037 50.5994931,18.504341 50.774682,18.6371736 L52.7531613,20.1393674 L52.7531613,21.014178 C52.7531613,21.2333366 52.8547465,21.4409445 53.0305438,21.5737771 L55.3797788,23.3580502 C55.5914654,23.5185436 55.8776682,23.5455965 56.1170323,23.4273542 C56.355788,23.308504 56.5069493,23.0653322 56.5069493,22.7981471 L56.5069493,15.3586097 C56.0549862,14.8394379 55.5856866,14.3354643 55.1008756,13.846689 L55.1014839,21.3822793 Z" id="Fill-30" fill="#000000"></path>
                    <path d="M34.498565,23.1776167 L34.5718645,23.1776167 C34.5697355,23.1830881 34.5697355,23.1888634 34.5682147,23.1934229 L36.158906,23.1934229 C36.546694,23.1934229 36.8617908,22.8782115 36.8617908,22.4909604 C36.8617908,22.1037093 36.546694,21.7884978 36.158906,21.7884978 L34.4906571,21.7884978 C34.4936986,21.7970088 34.4952194,21.8052159 34.498565,21.8137269 L34.498565,23.1776167 Z" id="Fill-32" fill="#000000"></path>
                    <g id="Group-36" transform="translate(0.000000, 11.588352)">
                        <mask id="mask-8" fill="white">
                            <use xlink:href="#path-7"></use>
                        </mask>
                        <g id="Clip-35"></g>
                        <path d="M56.507071,1.30595419 L56.507071,3.77019648 C61.2809696,9.25615242 64.1752369,16.4172581 64.1752369,24.241311 C64.1752369,41.4627383 50.1558636,55.4736899 32.9240848,55.4736899 C15.6920018,55.4736899 1.67262857,41.4627383 1.67262857,24.241311 C1.67262857,15.7169233 5.10888664,7.9807163 10.6677899,2.33943436 L10.6677899,0.0165356828 C4.11432442,6.03503789 -0.000182488479,14.6664211 -0.000182488479,24.241311 C-0.000182488479,42.3846634 14.7695226,57.145496 32.9240848,57.145496 C51.0783429,57.145496 65.8480479,42.3846634 65.8480479,24.241311 C65.8480479,15.3302802 62.2837438,7.23691454 56.507071,1.30595419" id="Fill-34" fill="#000000" mask="url(#mask-8)"></path>
                    </g>
                    <path d="M32.9240544,4.597163 C34.7458977,4.597163 36.5315475,4.75552863 38.2688378,5.05584581 L38.6256028,3.42051542 C36.7730406,3.09588106 34.868165,2.92535683 32.9240544,2.92535683 C31.3881097,2.92535683 29.8771051,3.03326432 28.3965152,3.2378326 L28.7064415,4.8825859 C30.0860544,4.69564758 31.4936488,4.597163 32.9240544,4.597163" id="Fill-37" fill="#000000"></path>
                    <path d="M55.1009668,13.8467194 L55.1006627,11.5308119 C50.9125521,7.70967093 45.7362664,4.95453436 40.0049115,3.69399251 L39.649059,5.32780308 C45.6139991,6.64032291 50.9450959,9.65960485 55.1009668,13.8467194" id="Fill-39" fill="#000000"></path>
                    <path d="M27.0089336,3.45835903 C21.4123161,4.4772489 16.3047677,6.91474229 12.0740765,10.3835881 L12.0740765,12.5858128 C16.2862147,8.80844273 21.5260673,6.15422247 27.3185558,5.10128855 L27.0089336,3.45835903 Z" id="Fill-41" fill="#000000"></path>
                    <path d="M12.0740765,12.585904 L12.0740765,10.3833753 C11.5935235,10.7773137 11.1248323,11.1849304 10.6676986,11.6047057 L10.6676986,13.9279084 C11.1227032,13.4661859 11.5913945,13.0187498 12.0740765,12.585904" id="Fill-43" fill="#000000"></path>
                    <path d="M55.1006931,11.5309335 L55.1009972,13.846841 C55.5858083,14.3353123 56.0551078,14.8392859 56.507071,15.3587617 L56.507071,12.8942154 C56.0514581,12.4264137 55.5833751,11.9710744 55.1006931,11.5309335" id="Fill-45" fill="#000000"></path>
                    <path d="M39.6491502,5.32771189 L40.0050028,3.69390132 C39.5484774,3.59359295 39.0889106,3.50179559 38.625694,3.420637 L38.268929,5.0559674 C38.7324498,5.1362141 39.1926249,5.22709956 39.6491502,5.32771189" id="Fill-47" fill="#000000"></path>
                    <path d="M28.7063806,4.8825859 L28.3964544,3.2378326 C27.9311088,3.30227313 27.4681963,3.3749207 27.0089336,3.45820705 L27.3185558,5.10144053 C27.7775143,5.01785022 28.2404267,4.94581057 28.7063806,4.8825859" id="Fill-49" fill="#000000"></path>
                </g>
            </g>
        </g>
    </g>
</svg>