<?xml version="1.0" encoding="UTF-8"?>
<svg width="66px" height="76px" viewBox="0 0 66 76" version="1.1" xmlns="http://www.w3.org/2000/svg" xmlns:xlink="http://www.w3.org/1999/xlink">
    <!-- Generator: sketchtool 50.2 (55047) - http://www.bohemiancoding.com/sketch -->
    <title>38A31C6B-6A52-435E-945A-1786BA722AEF</title>
    <desc>Created with sketchtool.</desc>
    <defs>
        <polygon id="path-1" points="0.286354839 0.174470866 11.1774194 0.174470866 11.1774194 25.0151008 0.286354839 25.0151008"></polygon>
        <polygon id="path-3" points="0.231273733 0.180455118 0.530069088 0.180455118 0.530069088 0.778880315 0.231273733 0.778880315"></polygon>
        <polygon id="path-5" points="0.265368664 0.180455118 0.530317051 0.180455118 0.530317051 0.778880315 0.265368664 0.778880315"></polygon>
        <polygon id="path-7" points="0 0.114269291 3.77103318 0.114269291 3.77103318 21.348789 0 21.348789"></polygon>
        <polygon id="path-9" points="0.242709677 0.266 12.6528387 0.266 12.6528387 10.878622 0.242709677 10.878622"></polygon>
        <polygon id="path-11" points="0.0937686636 0.255018898 3.80558433 0.255018898 3.80558433 0.601172447 0.0937686636 0.601172447"></polygon>
    </defs>
    <g id="Future-Project-Desktop" stroke="none" stroke-width="1" fill="none" fill-rule="evenodd">
        <g id="Future-Schools" transform="translate(-479.000000, -1691.000000)">
            <g id="future-schools/locations" transform="translate(1.000000, 1523.000000)">
                <g id="Group-167" transform="translate(478.000000, 168.000000)">
                    <path d="M47.8483576,16.3230646 C47.2500995,16.0023087 46.6390673,15.7018992 46.0183023,15.4191433 L46.0183023,16.3230646 L47.8483576,16.3230646 Z" id="Fill-1" fill="#AA59FA"></path>
                    <path d="M53.138739,20.1788402 C53.1752732,20.1170109 53.2127132,20.0554832 53.2501532,19.9939555 C53.1834254,19.9369519 53.1163958,19.8808532 53.0490641,19.8241512 L52.9989429,19.8841708 L53.138739,20.1788402 Z" id="Fill-3" fill="#AA59FA"></path>
                    <path d="M29.1112313,12.8339165 C28.7584203,12.8767039 28.4077382,12.9257748 28.0582728,12.9802315 L28.308282,13.3979323 L29.1112313,12.8339165 Z" id="Fill-5" fill="#AA59FA"></path>
                    <path d="M50.5619309,17.9610142 C50.1428157,17.6785575 49.7167051,17.4056756 49.2829908,17.1429669 L49.2501429,17.4676126 L50.5619309,17.9610142 Z" id="Fill-7" fill="#AA59FA"></path>
                    <path d="M39.1139419,12.7547449 L37.6917484,13.8992331 L36.269859,15.6798472 L36.657647,16.1885087 L37.1746977,16.1885087 L40.277306,14.5350598 L40.7943567,15.5526819 L44.6491217,14.4515795 C42.7074442,13.5808709 40.6596194,12.9013591 38.5305871,12.435485 L38.5968912,12.5004142 L39.1139419,12.7547449 Z" id="Fill-9" fill="#5CD8FF"></path>
                    <path d="M32.779706,16.9514409 L33.1671899,16.4427795 L33.1671899,16.0612835 L34.2015954,14.535 L35.2356968,12.2460236 L35.3549226,11.908811 C34.8007659,11.8459764 34.242047,11.7972047 33.6793742,11.7630945 L32.6501392,16.8242756 L32.779706,16.9514409 Z" id="Fill-11" fill="#5CD8FF"></path>
                    <path d="M42.8551687,32.2346819 C42.6802839,31.5096898 42.591777,30.7676425 42.591777,30.019611 C42.591777,29.6435008 42.6170212,29.2727764 42.6605143,28.9068394 L42.3454175,27.1253276 L42.2161548,26.9981622 L41.4408829,27.5068236 L38.4675373,24.4548551 L37.8209198,23.4372331 L37.4334359,24.2002252 L34.8478783,23.055737 L34.7186157,23.1829024 L35.7527171,24.5817213 L34.977141,25.2178472 L38.0797493,28.5244457 L38.0797493,28.9059417 L36.7871226,29.4146031 L36.6575558,29.5417685 L39.1138507,32.2122409 L39.0420719,32.4773433 C39.588929,32.3223512 40.1640719,32.2346819 40.7608092,32.2346819 L42.8551687,32.2346819 Z" id="Fill-13" fill="#5CD8FF"></path>
                    <path d="M30.0649465,14.7894803 L30.1753521,11.7411024 C29.4539143,11.7767087 28.7394719,11.837748 28.0311124,11.9209291 L29.8061171,14.7894803 L30.0649465,14.7894803 Z" id="Fill-15" fill="#5CD8FF"></path>
                    <path d="M49.1632783,20.9544567 L48.8092507,20.2578898 L48.2922,21.0211811 L47.1288359,20.0035591 L44.1554903,18.0960787 L44.0259235,19.1134016 L41.9580249,18.4775748 L41.1821447,18.4775748 L38.5968912,18.0960787 L38.5968912,18.4775748 L39.1139419,19.1134016 L38.3380618,19.3677323 L36.657647,19.7492283 L36.269859,20.1307244 L36.269859,20.6393858 L41.052882,20.7668504 L41.1821447,20.8937165 L40.7943567,21.5295433 L45.1895917,23.1829921 L44.5432783,24.200315 L44.5812968,24.235622 C45.7349281,22.7410551 47.322882,21.5837008 49.1632783,20.9544567" id="Fill-17" fill="#5CD8FF"></path>
                    <path d="M30.4528562,48.6177386 L30.1940267,29.4145732 L30.3232894,24.9634866 L30.1940267,24.8363213 L28.9014,26.2351402 L28.2550866,25.3449827 L27.8672986,25.5993134 L27.3502479,28.3969512 L26.3158424,29.6689039 L26.0576212,29.6689039 L25.281741,29.032778 L24.2479438,31.830715 L23.9891143,32.4665417 L20.2401926,36.6632976 L19.3353539,32.7211717 L19.3353539,31.5763843 L21.2745982,28.3969512 L20.3694553,27.7611244 L21.6623862,25.472148 L23.0839714,24.4548252 L26.1868839,23.0557071 L26.3158424,22.9288409 L25.9280544,22.5470457 L25.4113078,22.4198803 L26.0576212,21.9112189 L28.513612,21.7840535 L28.513612,21.6568882 L26.3158424,21.0210614 L24.7646903,21.4025575 L23.4720636,21.4025575 L22.3086995,22.0383843 L22.1794369,22.0383843 L21.7913447,21.2753921 L18.9475659,23.1831717 L17.6549392,23.6915339 L17.266847,22.4198803 L15.9742203,23.1831717 L12.4841281,26.1079748 L11.1911972,26.9981323 L11.0622387,26.9981323 L12.2256028,21.7840535 L13.3889668,20.7667307 L15.5867364,20.0037386 L15.7156949,19.8765732 L14.9401189,19.1135811 L15.0693816,18.8589512 L20.498718,17.3329669 L23.4720636,17.9687937 L23.7305889,17.714463 L23.4720636,16.8243055 L23.6013263,16.6971402 L24.3769023,17.2058016 L27.4795106,18.7317858 L27.6084691,18.6046205 L26.0576212,16.6971402 L25.1524783,16.0613134 L25.1524783,15.6798173 L25.4113078,15.0436913 L25.281741,14.7893606 L19.776976,14.0512031 C10.8554184,17.708778 4.01575023,25.3258331 1.53968571,34.6600693 C7.25431244,35.4164787 11.7061189,40.1464315 11.9135475,45.9227307 L20.2815567,45.9227307 C23.7178147,45.9227307 26.5138424,48.6733921 26.5138424,52.0538961 C26.5138424,55.4346992 23.7178147,58.1853606 20.2815567,58.1853606 L4.97655207,58.1853606 C10.2875751,66.8741953 19.8435843,72.7785575 30.8014092,73.1005102 L30.7113816,61.3348724 L30.4528562,48.6177386 Z" id="Fill-19" fill="#5CD8FF"></path>
                    <path d="M34.5285539,38.3659071 C34.5285539,36.9886315 34.9981576,35.7202693 35.7804249,34.6954661 L35.6237889,33.356789 L34.5893834,33.4839543 L33.94307,31.576474 L34.3308581,29.7958598 L34.3308581,29.4143638 L33.4260194,29.5415291 L33.2967567,28.1427102 L33.0382313,28.1427102 L33.0382313,30.3048205 L33.2967567,31.8308047 L33.2967567,35.1371039 L33.94307,55.8665528 L34.4601207,69.728474 L34.5020931,72.9946787 C49.7289318,71.6775449 61.8516415,59.5597339 62.8848304,44.4970724 L40.7608396,44.4970724 C37.3242774,44.4970724 34.5285539,41.7467102 34.5285539,38.3659071" id="Fill-21" fill="#5CD8FF"></path>
                    <path d="M54.1748682,20.8035339 C54.0367853,21.0324315 53.9050894,21.2661165 53.7788682,21.5033921 L54.1623982,22.3001953 L53.3868221,25.352463 L51.060094,23.1903528 L50.928094,22.9309354 C49.209965,23.4826835 47.7342415,24.5598488 46.6873659,25.9598646 L48.0864442,27.2599433 L49.5086378,29.676085 L48.6037991,30.0578803 L49.1208498,34.6358331 L48.9915871,38.1967622 L48.7330618,38.1967622 L46.1475041,35.1447937 L45.6304535,31.8381953 L45.5011908,31.7110299 L45.0918083,31.9124 C45.1587207,32.4653449 45.2752092,33.0117071 45.4531355,33.5437071 L45.7159189,34.3291402 L41.9773382,34.3291402 C41.2263982,34.3291402 40.5156055,34.4969984 39.875071,34.7896283 L39.813329,35.0176283 L38.9084903,35.5262898 L38.9084903,37.3066047 L38.5207023,39.7230457 L38.3911355,39.7230457 L37.2563613,37.6138961 C37.0693106,38.1306362 36.9616424,38.6841795 36.9616424,39.2634551 C36.9616424,41.9844945 39.2120295,44.1980693 41.9773382,44.1980693 L64.1609419,44.1980693 C64.1694581,43.9018488 64.1752369,43.6050299 64.1752369,43.306715 C64.1752369,34.426085 60.3216885,26.4152661 54.1748682,20.8035339" id="Fill-23" fill="#FFFFFF"></path>
                    <path d="M50.6528101,22.3895701 L50.3799899,21.8521843 C48.5395935,22.4811291 46.9513355,23.6387827 45.7977041,25.1330504 L46.2341558,25.5384835 C47.3363862,24.0887984 48.8717226,22.9769244 50.6528101,22.3895701" id="Fill-25" fill="#000000"></path>
                    <path d="M41.9774903,33.7305953 L44.8751032,33.7305953 C44.6479051,33.0507843 44.501306,32.3350677 44.4444304,31.5948157 L44.0791493,30.9479181 L43.8771954,29.8046268 C43.8337023,30.1702646 43.8084581,30.540989 43.8084581,30.9170992 C43.8084581,31.6651307 43.896965,32.4074772 44.0718498,33.1321701 L41.9774903,33.1321701 C41.380753,33.1321701 40.805306,33.2201386 40.258753,33.3748315 L40.0720065,34.0633197 C40.6678313,33.8517764 41.3077576,33.7305953 41.9774903,33.7305953" id="Fill-27" fill="#000000"></path>
                    <path d="M36.3534387,39.2633953 C36.3534387,38.259537 36.6293005,37.3209071 37.1046829,36.5091433 L36.9970147,35.5932535 C36.2147475,36.6180567 35.7451438,37.8861197 35.7451438,39.2633953 C35.7451438,42.6441984 38.5408673,45.3948598 41.9774295,45.3948598 L64.1014203,45.3948598 C64.1151069,45.1955843 64.1278811,44.9963087 64.137918,44.7964346 L41.9774295,44.7964346 C38.8714756,44.7964346 36.3534387,42.3189543 36.3534387,39.2633953" id="Fill-29" fill="#000000"></path>
                    <path d="M53.4558028,20.8324378 C53.5400516,20.6843276 53.6264295,20.537115 53.7152406,20.3919969 C53.5619502,20.2576504 53.4080516,20.1242016 53.252024,19.992548 C53.2143097,20.0535874 53.1765954,20.1146268 53.1397935,20.1759654 L53.4558028,20.8324378 Z" id="Fill-31" fill="#000000"></path>
                    <path d="M36.9617336,39.2635449 C36.9617336,38.6842693 37.0694018,38.1304268 37.2564525,37.6136866 L37.2278627,37.5610252 L37.1046829,36.5092929 C36.6293005,37.3207575 36.3534387,38.2596866 36.3534387,39.2635449 C36.3534387,42.3191039 38.8714756,44.796285 41.9774295,44.796285 L64.137918,44.796285 C64.1476507,44.5973087 64.1552544,44.3977339 64.1610332,44.1978598 L41.9774295,44.1978598 C39.2118166,44.1978598 36.9617336,41.9845843 36.9617336,39.2635449" id="Fill-33" fill="#000000"></path>
                    <path d="M53.7789594,21.5034819 C53.9051806,21.2662063 54.0368765,21.0325213 54.1749594,20.8036236 C54.0228857,20.664789 53.8698995,20.5277496 53.7150885,20.3919071 C53.6262774,20.5373244 53.5402037,20.6842378 53.4559548,20.832348 L53.7789594,21.5034819 Z" id="Fill-35" fill="#000000"></path>
                    <path d="M44.4445217,31.5947559 C44.5013972,32.3353071 44.6479963,33.0507244 44.8751945,33.7305354 L41.9775816,33.7305354 C41.3078488,33.7305354 40.6679226,33.8517165 40.0720977,34.0632598 L39.8753143,34.7894488 C40.5155447,34.4971181 41.2263373,34.3292598 41.9775816,34.3292598 L45.7158581,34.3292598 L45.4530747,33.5438268 C45.2751484,33.0115276 45.1589641,32.4654646 45.0917475,31.9125197 L44.7255539,32.0926457 L44.4445217,31.5947559 Z" id="Fill-37" fill="#000000"></path>
                    <path d="M46.2340645,25.5386331 L46.6872442,25.9599244 C47.734424,24.5599087 49.2098433,23.4824441 50.9282765,22.9309953 L50.6527189,22.3897197 C48.8716313,22.977074 47.3362949,24.0886488 46.2340645,25.5386331" id="Fill-39" fill="#000000"></path>
                    <path d="M26.5137816,52.9516236 C26.5137816,50.2305843 24.2636986,48.0173087 21.4980857,48.0173087 L11.9077078,48.0173087 L11.9210903,47.242348 C11.9210903,41.8400646 7.78955115,37.372222 2.47244516,36.7286157 C2.00010415,38.8488362 1.74887834,41.0492457 1.74887834,43.3068047 C1.74887834,48.5798283 3.10720092,53.5461591 5.49719171,57.8859386 L21.4980857,57.8859386 C24.2636986,57.8859386 26.5137816,55.672663 26.5137816,52.9516236" id="Fill-41" fill="#FFFFFF"></path>
                    <path d="M27.7303714,52.9516236 C27.7303714,49.5708205 24.9346479,46.8204583 21.4980857,46.8204583 L13.1303806,46.8204583 C12.9226479,41.0438598 8.47084147,36.3142063 2.75651889,35.5577969 C2.70511797,35.7516866 2.65645438,35.946474 2.60870323,36.1421591 C8.20410415,36.8471039 12.5293853,41.5459386 12.5293853,47.2420488 C12.5293853,47.3012929 12.5257355,47.3596394 12.524823,47.4185843 L21.4977816,47.4185843 C24.6040396,47.4185843 27.1220765,49.8957654 27.1220765,52.9516236 C27.1220765,56.0071827 24.6040396,58.4843638 21.4977816,58.4843638 L5.83631613,58.4843638 C5.95280461,58.6854346 6.07203041,58.8847102 6.19308111,59.082789 L21.4980857,59.082789 C24.9346479,59.082789 27.7303714,56.3324268 27.7303714,52.9516236" id="Fill-43" fill="#000000"></path>
                    <path d="M27.1220765,52.9515039 C27.1220765,49.8959449 24.6040396,47.4187638 21.4977816,47.4187638 L12.524823,47.4187638 C12.5257355,47.3598189 12.5293853,47.3014724 12.5293853,47.2422283 C12.5293853,41.5461181 8.20410415,36.8469843 2.60870323,36.1420394 C2.56125622,36.3368268 2.51593825,36.5325118 2.47244516,36.7287953 C7.78955115,37.3724016 11.9210903,41.8402441 11.9210903,47.2422283 L11.9077078,48.017189 L21.4980857,48.017189 C24.2636986,48.017189 26.5137816,50.2307638 26.5137816,52.9515039 C26.5137816,55.6725433 24.2636986,57.8861181 21.4980857,57.8861181 L5.49719171,57.8861181 C5.60790138,58.0868898 5.72104424,58.2861654 5.83631613,58.4842441 L21.4977816,58.4842441 C24.6040396,58.4842441 27.1220765,56.007063 27.1220765,52.9515039" id="Fill-45" fill="#000000"></path>
                    <path d="M1.21370046,35.4506189 C3.61676959,26.0224299 10.244447,18.2443984 19.0035899,14.1754063 L18.3402442,14.2505087 C9.79309217,18.4305087 3.34029954,26.1528866 0.979506912,35.4533118 C1.03638249,35.4524142 1.09295392,35.4491228 1.15013364,35.4491228 C1.17142396,35.4491228 1.19241014,35.4506189 1.21370046,35.4506189" id="Fill-47" fill="#000000"></path>
                    <path d="M37.082906,11.3599055 L37.1601594,11.1414803 C36.2465005,11.0265827 35.3203714,10.9511811 34.385118,10.911685 L34.3452747,11.1372913 C35.2680581,11.1749921 36.1814129,11.2485984 37.082906,11.3599055" id="Fill-49" fill="#000000"></path>
                    <path d="M32.0383465,11.1200268 L31.919729,10.8974126 C30.2837198,10.9476803 28.6769088,11.1143417 27.1087244,11.392011 L27.2325124,11.5990661 C28.799176,11.3270819 30.4038581,11.1646094 32.0383465,11.1200268" id="Fill-51" fill="#000000"></path>
                    <path d="M54.1154682,18.7369323 C54.1586571,18.6800819 54.2021502,18.6238299 54.2459475,18.567578 C50.6627862,15.5796409 46.4257078,13.3298614 41.7774221,12.0591055 L41.4352562,12.1982394 C46.1711364,13.4438614 50.4833392,15.7074047 54.1154682,18.7369323" id="Fill-53" fill="#000000"></path>
                    <path d="M4.42403779,59.0828787 L4.17311613,59.0828787 C9.67301475,68.7576189 20.0639088,75.3920598 32.0308949,75.7202961 L32.02907,75.4931937 C20.1712728,75.1667528 9.89230507,68.6355402 4.42403779,59.0828787" id="Fill-55" fill="#000000"></path>
                    <path d="M35.7380267,75.3906835 L35.7410682,75.6177858 C51.9223217,74.2824 64.8148286,61.3992031 65.8537963,45.3946205 L65.6229484,45.3946205 C64.5876304,61.2995654 51.8173908,74.0618803 35.7380267,75.3906835" id="Fill-57" fill="#000000"></path>
                    <path d="M39.747177,13.3330031 C41.8762092,13.7991764 43.9240341,14.478389 45.8657115,15.3490976 L46.0183935,15.3057118 L46.0183935,15.4194126 C46.6391585,15.7018693 47.2501908,16.0022787 47.8484488,16.3230346 L48.2161631,16.3230346 L49.3795272,16.1958693 L49.2831124,17.1428772 C49.7165226,17.4055858 50.1429373,17.6784677 50.5620525,17.9609244 L53.6451954,19.1209717 L53.0493705,19.8241213 C53.1171954,19.8803732 53.1850203,19.9360268 53.2519327,19.992578 C53.5214074,19.5596173 53.809435,19.1407197 54.1154074,18.7370819 C50.4832783,15.7075543 46.1710756,13.4437118 41.4351954,12.198389 L39.4253889,13.0164362 L39.747177,13.3330031 Z" id="Fill-59" fill="#000000"></path>
                    <path d="M34.9010129,12.6349402 L34.8958424,12.6606724 C35.4585152,12.6947827 36.0172341,12.7435543 36.5713908,12.8066882 L37.0829668,11.3599953 C36.1814737,11.2486882 35.2681189,11.1750819 34.3453355,11.1373811 L34.1254369,12.3806094 L34.9010129,12.6349402 Z" id="Fill-61" fill="#000000"></path>
                    <path d="M6.19308111,59.0828787 L4.42415945,59.0828787 C9.89242673,68.6355402 20.1713945,75.1667528 32.0291917,75.4931937 L32.0179382,73.9983276 C21.0601134,73.6760756 11.5041041,67.7720126 6.19308111,59.0828787" id="Fill-63" fill="#000000"></path>
                    <path d="M35.7187134,73.8924362 L35.7378747,75.3905937 C51.8175429,74.0617906 64.5877825,61.2997748 65.6227963,45.3948299 L64.1014507,45.3948299 C63.0682618,60.4574913 50.9452479,72.5753024 35.7187134,73.8924362" id="Fill-65" fill="#000000"></path>
                    <path d="M20.9936876,14.9487213 L20.8105908,14.9241858 L21.1983788,14.1611937 L19.130176,14.1611937 L19.0036507,14.1755559 C10.2445078,18.244548 3.61683041,26.0225795 1.21376129,35.4507685 C1.73659078,35.4534614 2.25120829,35.490863 2.75639724,35.5575874 C5.23246175,26.2236504 12.0718258,18.6062961 20.9936876,14.9487213" id="Fill-67" fill="#000000"></path>
                    <path d="M29.1112313,12.8339165 L29.2131207,12.7621055 L29.2477935,12.8183575 C29.9558488,12.7354756 30.6705954,12.674137 31.3920332,12.6388299 L31.4108903,12.1262787 L32.4449917,12.2534441 L32.5742544,12.1262787 L32.0383465,11.1200268 C30.4038581,11.1646094 28.799176,11.3270819 27.2325124,11.5990661 L28.0582728,12.9802315 C28.4077382,12.9257748 28.7584203,12.8767039 29.1112313,12.8339165" id="Fill-69" fill="#000000"></path>
                    <g id="Group-73" transform="translate(54.746544, 19.182819)">
                        <mask id="mask-2" fill="white">
                            <use xlink:href="#path-1"></use>
                        </mask>
                        <g id="Clip-72"></g>
                        <path d="M10.9467235,24.1240457 C10.9467235,24.4220614 10.9418571,24.7188803 10.9336452,25.0151008 L11.1644931,25.0151008 C11.1727051,24.7188803 11.1775714,24.4220614 11.1775714,24.1240457 C11.1775714,14.6479827 7.02413364,6.10905354 0.414400922,0.174470866 C0.370907834,0.231022047 0.329239631,0.289368504 0.286354839,0.34651811 C6.8367788,6.23472283 10.9467235,14.7069276 10.9467235,24.1240457" id="Fill-71" fill="#000000" mask="url(#mask-2)"></path>
                    </g>
                    <path d="M64.1752065,43.3068646 C64.1752065,43.6048803 64.1694276,43.9016992 64.1609115,44.1979197 L65.6801281,44.1979197 C65.6886442,43.9016992 65.6932065,43.6048803 65.6932065,43.3068646 C65.6932065,33.8897465 61.5835659,25.4175417 55.0328378,19.529337 C54.7274737,19.9380614 54.4400544,20.3629433 54.1748378,20.8036835 C60.3216581,26.4151165 64.1752065,34.4259354 64.1752065,43.3068646" id="Fill-74" fill="#000000"></path>
                    <path d="M54.5755521,19.1276142 C54.6184369,19.0707638 54.6616258,19.0139134 54.7051189,18.9573622 C54.5533493,18.8260079 54.400059,18.6964488 54.2458562,18.5674882 C54.202059,18.6237402 54.1585659,18.6799921 54.115377,18.7368425 C54.2698839,18.8658031 54.4234783,18.9959606 54.5755521,19.1276142" id="Fill-76" fill="#000000"></path>
                    <g id="Group-80" transform="translate(65.391705, 44.615890)">
                        <mask id="mask-4" fill="white">
                            <use xlink:href="#path-3"></use>
                        </mask>
                        <g id="Clip-79"></g>
                        <path d="M0.265090507,0.180455118 C0.256032442,0.380329134 0.244256959,0.579604724 0.231273733,0.778880315 L0.460140829,0.778880315 C0.473124055,0.579604724 0.485201475,0.380329134 0.494259539,0.180455118 L0.265090507,0.180455118 Z" id="Fill-78" fill="#000000" mask="url(#mask-4)"></path>
                    </g>
                    <path d="M64.1015419,45.3947701 L65.6228876,45.3947701 C65.6359659,45.1954945 65.6478276,44.9962189 65.6569521,44.7963449 L64.1377355,44.7963449 C64.1280028,44.9962189 64.1152286,45.1954945 64.1015419,45.3947701" id="Fill-81" fill="#000000"></path>
                    <path d="M53.7150885,20.3919669 C53.9818258,19.9563134 54.2692452,19.535022 54.5755217,19.1274945 C54.4234479,18.9958409 54.2698535,18.8656835 54.1153465,18.737022 C53.8096783,19.1406598 53.5213465,19.5595575 53.252176,19.9928173 C53.4078995,20.1241717 53.5617982,20.2576205 53.7150885,20.3919669" id="Fill-83" fill="#000000"></path>
                    <path d="M55.0329594,19.5293969 C55.0758442,19.4722472 55.1172083,19.4139008 55.1610055,19.3573496 C55.0107567,19.2224047 54.8580747,19.0895543 54.7050885,18.9573024 C54.6615954,19.0138535 54.6184065,19.0707039 54.5755217,19.1275543 C54.7291161,19.2604047 54.8821023,19.3938535 55.0329594,19.5293969" id="Fill-85" fill="#000000"></path>
                    <g id="Group-89" transform="translate(65.391705, 44.017465)">
                        <mask id="mask-6" fill="white">
                            <use xlink:href="#path-5"></use>
                        </mask>
                        <g id="Clip-88"></g>
                        <path d="M0.28831576,0.180455118 C0.282880922,0.380329134 0.274426728,0.579604724 0.265368664,0.778880315 L0.494537696,0.778880315 C0.50359576,0.579604724 0.512049954,0.380329134 0.517484793,0.180455118 L0.28831576,0.180455118 Z" id="Fill-87" fill="#000000" mask="url(#mask-6)"></path>
                    </g>
                    <path d="M64.1609419,44.1979197 C64.1551631,44.3977937 64.1475594,44.5973685 64.1378267,44.7963449 L65.6570433,44.7963449 C65.6661677,44.5970693 65.674988,44.3977937 65.6801585,44.1979197 L64.1609419,44.1979197 Z" id="Fill-90" fill="#000000"></path>
                    <path d="M54.1748682,20.8035339 C54.4400848,20.3627937 54.7272,19.938211 55.0328682,19.5294866 C54.8820111,19.3939433 54.7290249,19.2604945 54.5754304,19.1276441 C54.2694581,19.5348724 53.9817346,19.956463 53.7149972,20.3921165 C53.8698083,20.5276598 54.0227945,20.6649984 54.1748682,20.8035339" id="Fill-92" fill="#000000"></path>
                    <g id="Group-96" transform="translate(0.000000, 36.537150)">
                        <mask id="mask-8" fill="white">
                            <use xlink:href="#path-7"></use>
                        </mask>
                        <g id="Clip-95"></g>
                        <path d="M0.932424885,0.114269291 C0.854258986,0.115765354 0.77578894,0.116962205 0.697927189,0.120253543 C0.241401843,2.26710394 -9.12442396e-05,4.49115118 -9.12442396e-05,6.76965512 C-9.12442396e-05,12.0100646 1.27185346,16.9635291 3.52497788,21.348789 L3.77103318,21.348789 C1.50756774,16.9713087 0.230756682,12.0172457 0.230756682,6.76965512 C0.230756682,4.48785984 0.473466359,2.26201732 0.932424885,0.114269291" id="Fill-94" fill="#000000" mask="url(#mask-8)"></path>
                    </g>
                    <path d="M2.4723235,36.7287055 C2.03860922,36.6760441 1.59789954,36.6461228 1.14989032,36.6461228 C1.07689493,36.6461228 1.00511613,36.6500126 0.932424885,36.6515087 C0.473466359,38.7989575 0.230756682,41.0248 0.230756682,43.3068945 C0.230756682,48.554485 1.50756774,53.508548 3.77103318,57.8860283 L5.49707005,57.8860283 C3.10738341,53.5462488 1.74875668,48.5796189 1.74875668,43.3068945 C1.74875668,41.0493354 1.99998249,38.8486268 2.4723235,36.7287055" id="Fill-97" fill="#000000"></path>
                    <path d="M4.08944516,58.4843039 L3.84126083,58.4843039 C3.94984147,58.6850756 4.060247,58.8846504 4.17308571,59.0827291 L4.42400737,59.0827291 C4.31056037,58.8846504 4.1986341,58.6850756 4.08944516,58.4843039" id="Fill-99" fill="#000000"></path>
                    <path d="M1.06393825,36.0494929 C1.11043631,35.8490205 1.1605576,35.6497449 1.21098083,35.4507685 C1.18984535,35.4507685 1.1690118,35.4492724 1.14757438,35.4492724 C1.09081051,35.4492724 1.03495244,35.4525638 0.978490507,35.4534614 C0.928067281,35.6533354 0.878247926,35.8538079 0.831447926,36.0554772 C0.909045346,36.0533827 0.986038894,36.0500913 1.06393825,36.0494929" id="Fill-101" fill="#000000"></path>
                    <path d="M2.60882488,36.1420992 C2.65657604,35.9467134 2.70493548,35.7516268 2.75633641,35.557737 C2.25114747,35.4907134 1.73652995,35.4533118 1.21370046,35.4506189 C1.16321198,35.6495953 1.1127235,35.8488709 1.06558065,36.0493433 C1.09386636,36.0493433 1.12154378,36.047548 1.15013364,36.047548 C1.64467742,36.047548 2.13070507,36.0819575 2.60882488,36.1420992" id="Fill-103" fill="#000000"></path>
                    <path d="M5.83622488,58.4843039 L4.08950599,58.4843039 C4.19869493,58.6850756 4.3106212,58.8846504 4.4240682,59.0827291 L6.19298986,59.0827291 C6.07193917,58.8846504 5.95271336,58.6853748 5.83622488,58.4843039" id="Fill-105" fill="#000000"></path>
                    <path d="M3.52509954,57.8860283 C3.62820553,58.0868 3.73404885,58.2860756 3.84110876,58.4844535 L4.08929309,58.4844535 C3.98132074,58.2860756 3.87486912,58.0868 3.77115484,57.8860283 L3.52509954,57.8860283 Z" id="Fill-107" fill="#000000"></path>
                    <path d="M0.930719447,36.6514189 C0.97329235,36.450348 1.01646912,36.2492772 1.06296719,36.0494031 C0.985067834,36.0500016 0.908074286,36.0532929 0.830476866,36.0553874 C0.784582673,36.2552614 0.740500092,36.4560331 0.697927189,36.6574031 C0.775222673,36.6541118 0.853122028,36.652915 0.930719447,36.6514189" id="Fill-109" fill="#000000"></path>
                    <path d="M5.49716129,57.8860283 L3.77112442,57.8860283 C3.87483871,58.0868 3.98159447,58.2860756 4.08956682,58.4844535 L5.83628571,58.4844535 C5.72101382,58.2860756 5.60787097,58.0868 5.49716129,57.8860283" id="Fill-111" fill="#000000"></path>
                    <path d="M1.15001198,36.6460031 C1.5980212,36.6460031 2.03842673,36.6762236 2.47244516,36.7285858 C2.51593825,36.5326016 2.56125622,36.3369165 2.60870323,36.1421291 C2.13088756,36.0819874 1.64455576,36.047578 1.15001198,36.047578 C1.12172627,36.047578 1.0937447,36.0493732 1.06576313,36.0493732 C1.01892442,36.2492472 0.975431336,36.4503181 0.932546544,36.651389 C1.00493364,36.6498929 1.07701659,36.6460031 1.15001198,36.6460031" id="Fill-113" fill="#000000"></path>
                    <path d="M27.0154728,11.2360315 L26.3691594,10.2187087 L23.396118,9.20138583 L21.1983484,8.81988976 L21.1983484,10.345874 L17.9667816,9.07422047 L13.9590304,11.7446929 L11.761565,13.6524724 L15.769012,14.5426299 L18.3402747,14.2505984 C21.0715189,12.9152126 24.0153622,11.9397795 27.1088461,11.3919213 L27.0154728,11.2360315 Z" id="Fill-115" fill="#000000"></path>
                    <path d="M43.1744931,11.4903921 L44.4671198,10.3459039 L43.8208065,9.71007717 L47.0526774,7.42080157 L46.5356267,7.03930551 L48.9916175,4.62316378 L50.2842442,2.20672283 L47.3112028,2.20672283 L44.8549078,3.35121102 L42.011129,6.27631339 L41.1059862,5.64048661 L40.7181982,6.02198268 L38.3911659,10.3459039 L38.003682,10.2187386 L37.4866313,10.2187386 L37.1602811,11.1415102 C38.7366774,11.339589 40.2780968,11.649274 41.7772396,12.0591953 L43.1744931,11.4903921 Z" id="Fill-117" fill="#000000"></path>
                    <g id="Group-121" transform="translate(22.506912, 0.033213)">
                        <mask id="mask-10" fill="white">
                            <use xlink:href="#path-9"></use>
                        </mask>
                        <g id="Clip-120"></g>
                        <path d="M11.8781751,10.878622 L12.6528387,6.49725197 L12.0065253,6.75188189 L11.4894747,6.75188189 L11.6184332,4.20827559 L11.1013825,3.57244882 L10.7135945,2.55512598 L9.55023041,1.79213386 L9.55023041,2.68229134 L6.96497696,0.393314961 L5.8016129,0.265850394 L0.242709677,1.02914173 L2.82796313,2.17362992 L4.37941935,2.68229134 L5.54278341,3.19095276 L4.63764055,3.82677953 L5.93057143,5.09843307 L9.42096774,7.13337795 L7.99877419,7.64203937 L8.38686636,8.15070079 L8.64539171,9.42235433 L9.41305991,10.8642598 C9.75917972,10.8537874 10.106212,10.8466063 10.4550691,10.8466063 C10.9322765,10.8466063 11.4061382,10.858874 11.8781751,10.878622" id="Fill-119" fill="#000000" mask="url(#mask-10)"></path>
                    </g>
                    <path d="M35.1597207,56.7642504 L34.5134074,36.0348016 L34.5134074,32.7285024 L34.2545779,31.2022189 L34.2545779,29.0404079 L34.5134074,29.0404079 L34.64267,30.4392268 L35.5472046,30.3120614 L35.5472046,30.6935575 L35.1597207,32.4741717 L35.8060341,34.381652 L36.8401355,34.2544866 L36.9970756,35.5931638 C37.8018498,34.539337 38.9393613,33.7482189 40.258753,33.3748016 L40.3305318,33.1099984 L37.8742369,30.4392268 L38.0038037,30.3120614 L39.2964304,29.8034 L39.2964304,29.4219039 L36.193518,26.1153055 L36.9693982,25.4794787 L35.9352968,24.0806598 L36.0645594,23.9534945 L38.6501171,25.0979827 L39.0376009,24.3349906 L39.6842184,25.3523134 L42.6572599,28.4045811 L43.4328359,27.8959197 L43.5620986,28.023085 L43.8771954,29.8045969 C44.0843198,28.0712583 44.7668267,26.4683764 45.7978866,25.1332898 L45.7598682,25.0979827 L46.4061816,24.0806598 L42.0109465,22.427211 L42.3987346,21.7913843 L42.2694719,21.6642189 L37.4864488,21.5370535 L37.4864488,21.0283921 L37.8742369,20.6468961 L39.5546516,20.2654 L40.3305318,20.0110693 L39.8134811,19.3752425 L39.8134811,18.9937465 L42.3987346,19.3752425 L43.1746147,19.3752425 L45.2425134,20.0110693 L45.3720802,18.9937465 L48.3454258,20.9012268 L49.5087899,21.9185496 L50.0258406,21.1555575 L50.3798682,21.8521244 C51.047776,21.6238252 51.7485318,21.4634472 52.4745318,21.3838567 C52.6798313,20.9697465 52.9027714,20.5679039 53.1397023,20.1759354 L52.998882,19.8839039 L53.0493705,19.8240614 C52.2531124,19.1636992 51.4233982,18.5416362 50.5620525,17.9608646 L49.2499604,17.4677622 L49.2831124,17.1431165 C48.8129005,16.8579669 48.3347806,16.583589 47.8484488,16.3229748 L46.0183935,16.3229748 L46.0183935,15.4193528 C45.9672968,15.3963134 45.9168083,15.3720772 45.8657115,15.3490378 L42.0109465,16.4501402 L41.4938959,15.4328173 L38.3912876,17.0859669 L37.8742369,17.0859669 L37.4864488,16.5773055 L38.9083382,14.7969906 L40.3305318,13.6525024 L39.8134811,13.3978724 L39.747177,13.3329433 C38.7069926,13.1052425 37.647647,12.9293055 36.5715733,12.8066283 L36.4523475,13.1435417 L35.4182461,15.4328173 L34.3838406,16.9588016 L34.3838406,17.3402976 L33.9963567,17.8489591 L33.8667899,17.7220929 L34.8960249,12.6609118 C34.2557945,12.6220142 33.6116101,12.6001717 32.9619512,12.6001717 C32.4354719,12.6001717 31.9120341,12.613337 31.3919419,12.6387701 L31.2815364,15.687148 L31.0227069,15.687148 L29.2480065,12.8182976 C29.2023843,12.8236835 29.1567622,12.8284709 29.1111401,12.8338567 L28.3084949,13.3978724 L28.0581816,12.9801717 C25.5967161,13.3640614 23.2298406,14.0319039 20.9937484,14.9486913 L26.4982092,15.687148 L26.627776,15.9414787 L26.3692507,16.5773055 L26.3692507,16.9588016 L27.2740894,17.5946283 L28.8252415,19.5024079 L28.6959788,19.6295732 L25.5936747,18.103589 L24.8177945,17.5946283 L24.6885318,17.7220929 L24.9473613,18.6122504 L24.6885318,18.8665811 L21.7154903,18.2304551 L16.2861539,19.7567386 L16.1565871,20.0110693 L16.9324673,20.7740614 L16.8032046,20.9012268 L14.605435,21.6642189 L13.442071,22.6815417 L12.2787069,27.8959197 L12.4079696,27.8959197 L13.7005963,27.005463 L17.1909926,24.0806598 L18.4836194,23.3176677 L18.8714074,24.5893213 L20.1640341,24.0806598 L23.0081171,22.1731795 L23.3959051,22.9358724 L23.5251677,22.9358724 L24.6885318,22.3000457 L25.9811585,22.3000457 L27.5326147,21.9185496 L29.7300802,22.5543764 L29.7300802,22.6815417 L27.2740894,22.8090063 L26.627776,23.3176677 L27.1445226,23.4448331 L27.5326147,23.8263291 L27.4033521,23.9534945 L24.3007438,25.3523134 L22.8788544,26.3696362 L21.5862276,28.6589118 L22.4910664,29.2947386 L20.5521263,32.4741717 L20.5521263,33.6186598 L21.456965,37.561085 L25.2055825,33.3643291 L25.464412,32.7285024 L26.4982092,29.9305654 L27.2740894,30.5663921 L27.5326147,30.5663921 L28.5667161,29.2947386 L29.0837668,26.4968016 L29.471859,26.2424709 L30.1181724,27.1326283 L31.4107991,25.7338094 L31.5400618,25.8609748 L31.4107991,30.3120614 L31.6693244,49.5152268 L31.9278498,62.2326598 L32.0178774,73.9982976 C32.3314535,74.007274 32.6459419,74.0135575 32.9619512,74.0135575 C33.8911217,74.0135575 34.8102553,73.9710693 35.7187438,73.8923764 L35.6767714,70.6261717 L35.1597207,56.7642504 Z" id="Fill-122" fill="#000000"></path>
                    <path d="M37.2563917,37.6137764 L38.3911659,39.722926 L38.5207327,39.722926 L38.9085207,37.3067843 L38.9085207,35.5261701 L39.8133594,35.0175087 L39.8751014,34.7895087 C38.6600323,35.344548 37.7095714,36.3624693 37.2563917,37.6137764" id="Fill-124" fill="#000000"></path>
                    <path d="M53.2778765,22.5187402 L52.9205032,22.5447717 C52.2300885,22.5950394 51.5624848,22.7272913 50.9280332,22.9310551 L51.0600332,23.1904724 L53.3867613,25.3522835 L54.1623373,22.300315 L53.7788074,21.5035118 C53.6568442,21.7321102 53.5385309,21.9628031 53.4278212,22.1988819 L53.2778765,22.5187402 Z" id="Fill-126" fill="#000000"></path>
                    <path d="M45.0917475,31.9123701 L45.5014341,31.711 L45.6303926,31.8381654 L46.1477475,35.1447638 L48.7333051,38.1967323 L48.9915263,38.1967323 L49.1207889,34.6361024 L48.6037382,30.0578504 L49.508577,29.6760551 L48.0866876,27.2599134 L46.6873051,25.9598346 C45.6428627,27.3565591 45.024835,29.0746378 45.024835,30.917189 C45.024835,31.2511102 45.0519041,31.5826378 45.0917475,31.9123701" id="Fill-128" fill="#000000"></path>
                    <path d="M44.4445217,31.5947559 C44.4271853,31.3709449 44.4165401,31.1453386 44.4165401,30.9170394 C44.4165401,28.8994488 45.0938765,27.0386457 46.2341253,25.5386929 L45.7976737,25.1332598 C44.766918,26.4683465 44.0841069,28.0715276 43.8772866,29.8045669 L44.0792406,30.9478583 L44.4445217,31.5947559 Z" id="Fill-130" fill="#000000"></path>
                    <path d="M40.0721281,34.0632598 L40.2585705,33.3747717 C38.9391788,33.748189 37.8016673,34.5393071 36.9971972,35.5931339 L37.1045613,36.5093228 C37.7636488,35.3830866 38.8129576,34.5102835 40.0721281,34.0632598" id="Fill-132" fill="#000000"></path>
                    <path d="M52.8757023,21.9479323 C53.0542369,21.5676331 53.2488912,21.196011 53.4557115,20.8324677 L53.1397023,20.1759953 C52.9027714,20.5679638 52.6795272,20.9698063 52.4745318,21.3839165 C51.7485318,21.4632079 51.047776,21.623885 50.3798682,21.8521843 L50.6526885,22.3895701 C51.3595272,22.1564835 52.103776,22.0041843 52.8757023,21.9479323" id="Fill-134" fill="#000000"></path>
                    <path d="M37.1045917,36.509263 L37.2277714,37.5609953 L37.2563613,37.6136567 C37.709541,36.3623496 38.6600018,35.3444283 39.875071,34.789389 L40.0721585,34.0632 C38.812988,34.5102236 37.7636793,35.3830268 37.1045917,36.509263" id="Fill-136" fill="#000000"></path>
                    <path d="M52.8757023,21.9479323 C52.103776,22.0041843 51.3595272,22.1564835 50.6526885,22.3895701 L50.9282461,22.9311449 C51.5626977,22.7273811 52.2299972,22.5951291 52.920412,22.5448614 L53.2777853,22.5188299 L53.42773,22.1986724 C53.5387438,21.9628929 53.656753,21.7319008 53.7790203,21.5036016 L53.4557115,20.8324677 C53.2488912,21.196011 53.0542369,21.5676331 52.8757023,21.9479323" id="Fill-138" fill="#000000"></path>
                    <path d="M44.4166009,30.9171291 C44.4166009,31.1454283 44.4272461,31.3710346 44.4445825,31.5948457 L44.7256147,32.0924362 L45.0918083,31.9123102 C45.051965,31.582578 45.0248959,31.2510504 45.0248959,30.9171291 C45.0248959,29.074578 45.6429235,27.3567984 46.6873659,25.9597748 L46.2341862,25.5384835 C45.0939373,27.0387354 44.4166009,28.8995386 44.4166009,30.9171291" id="Fill-140" fill="#000000"></path>
                    <path d="M41.4351346,12.198389 L41.7773005,12.0592551 C40.2778535,11.6493339 38.7367382,11.3393496 37.1600378,11.1415701 L37.0827843,11.3599953 C38.567024,11.5434126 40.0199364,11.8261685 41.4351346,12.198389" id="Fill-142" fill="#000000"></path>
                    <g id="Group-146" transform="translate(31.935484, 75.135575)">
                        <mask id="mask-12" fill="white">
                            <use xlink:href="#path-11"></use>
                        </mask>
                        <g id="Clip-145"></g>
                        <path d="M1.02658894,0.372343748 C0.714533641,0.372343748 0.403694931,0.366914835 0.0937686636,0.358469858 L0.0952894009,0.587389039 C0.404911521,0.595834016 0.715141935,0.601262929 1.02658894,0.601262929 C1.96245069,0.601262929 2.88888387,0.560244472 3.80558433,0.483938079 L3.80254286,0.255018898 C2.88705899,0.331325291 1.96153825,0.372343748 1.02658894,0.372343748" id="Fill-144" fill="#000000" mask="url(#mask-12)"></path>
                    </g>
                    <path d="M32.9620728,11.1084066 C33.4255935,11.1084066 33.886377,11.1204708 34.3453355,11.139472 L34.3851788,10.9120609 C33.9131419,10.8921548 33.438976,10.879789 32.9620728,10.879789 C32.6132157,10.879789 32.2661834,10.8870275 31.9197594,10.8975837 L32.038377,11.1219788 C32.3455659,11.1135339 32.653059,11.1084066 32.9620728,11.1084066" id="Fill-147" fill="#000000"></path>
                    <path d="M27.2325733,11.5990961 L27.1087853,11.3920409 C24.0153014,11.9396 21.0714581,12.9150331 18.3402138,14.2507181 L19.0035594,14.1753165 C21.5802968,12.9784661 24.340435,12.101474 27.2325733,11.5990961" id="Fill-149" fill="#000000"></path>
                    <path d="M32.4449613,12.253474 L31.4108599,12.1263087 L31.3920028,12.6388598 C31.9120949,12.6134268 32.4355327,12.6002614 32.962012,12.6002614 C33.611671,12.6002614 34.2558553,12.6221039 34.8960857,12.6607024 L34.9009521,12.6349701 L34.125376,12.3806394 L34.3452747,11.137411 C33.8863161,11.1185606 33.4258369,11.1065921 32.962012,11.1065921 C32.6533023,11.1065921 32.3455051,11.1116787 32.0383161,11.1200567 L32.574224,12.1263087 L32.4449613,12.253474 Z" id="Fill-151" fill="#000000"></path>
                    <path d="M46.0173135,15.305652 L45.8657419,15.3496865 C45.9164671,15.3726086 45.9665884,15.3970387 46.0173135,15.4202624 L46.0173135,15.305652 Z" id="Fill-153" fill="#000000"></path>
                    <path d="M29.2123493,12.7621953 L29.1112009,12.8345808 C29.1561893,12.8288503 29.2017816,12.8243262 29.24677,12.8188973 L29.2123493,12.7621953 Z" id="Fill-155" fill="#000000"></path>
                    <path d="M39.747177,13.3330031 L39.4253889,13.0164362 L41.4351954,12.198389 C40.0196931,11.8261685 38.5670848,11.5434126 37.0828452,11.3599953 L36.5715733,12.8066882 C37.647647,12.9290661 38.7069926,13.1053024 39.747177,13.3330031" id="Fill-157" fill="#000000"></path>
                    <path d="M32.9620728,74.0135575 C32.6460636,74.0135575 32.3315751,74.007274 32.0179991,73.9982976 L32.0292525,75.4931638 C32.3391788,75.5018409 32.6500175,75.5069276 32.9620728,75.5069276 C33.8970221,75.5069276 34.8225429,75.4662346 35.7380267,75.3908331 L35.7185613,73.8923764 C34.8100728,73.9710693 33.8912433,74.0135575 32.9620728,74.0135575" id="Fill-159" fill="#000000"></path>
                    <path d="M21.1983484,14.1611039 L20.8105604,14.9240961 L20.9936571,14.9486315 C23.2300535,14.0318441 25.5966249,13.3640016 28.0583945,12.9801118 L27.2326341,11.5989465 C24.3404959,12.1013244 21.5800535,12.9783165 19.0036203,14.1754661 L19.1301456,14.1611039 L21.1983484,14.1611039 Z" id="Fill-161" fill="#000000"></path>
                    <path d="M49.3794968,16.1958394 L48.2161327,16.3230047 L47.8484184,16.3230047 C48.3347502,16.5836189 48.81287,16.8579969 49.283082,17.1431465 L49.3794968,16.1958394 Z" id="Fill-163" fill="#000000"></path>
                    <path d="M53.6452866,19.1208819 L50.5618396,17.9611339 C51.4231853,18.5416063 52.2532037,19.1639685 53.0494618,19.8243307 L53.6452866,19.1208819 Z" id="Fill-165" fill="#000000"></path>
                </g>
            </g>
        </g>
    </g>
</svg>