<svg height="74" viewBox="0 0 68 74" width="68" xmlns="http://www.w3.org/2000/svg" xmlns:xlink="http://www.w3.org/1999/xlink"><mask id="a" fill="#fff"><path d="m.23644749.12254523h19.07555251v31.62901247h-19.07555251z" fill="none"/></mask><mask id="b" fill="#fff"><path d="m.24911598.02649876h51.07452052v14.40503654h-51.07452052z" fill="none"/></mask><g fill="none" fill-rule="evenodd" transform=""><path d="m19.2981826 30.2832257c0 .4922075-.013041.9813444-.0344657 1.468332.0313607-.5877013.0484384-1.1797013.0484384-1.7753859 0-13.1741494-7.7967124-24.54619919-19.07570781-29.85362657.00403653.06048963.00745205.12159336.01148858.18208299 11.26315983 5.38603319 19.05024653 16.79984228 19.05024653 29.97859748" fill="#916af9" mask="url(#a)" transform="translate(48.127854 10.142606)"/><path d="m42.1543799 59.0399328h-10.5347215c.9706302.967527 1.7388128 2.1453859 2.2219544 3.4654108 1.0650228-.3881162 2.1999087-.5907718 3.3546667-.5907718 1.7484383 0 3.4444018.4673361 4.9161826 1.3227884.2182831-.3052117.4545753-.6036681.6949041-.8883071l.000621-2.7370788c-.0406758-.3230208-.3160913-.5720415-.6536073-.5720415" fill="#5cd8ff"/><path d="m10.0704584 57.9565544c.8346302.0865892 1.6512512.2646805 2.4346484.5330456v-15.6619004c-.7691141 1.5536929-1.5816986 3.0441328-2.4346484 4.4688631z" fill="#5cd8ff"/><path d="m2.84156164 40.4258315c0 4.144.81475799 8.1028465 2.29150685 11.7303818 7.58991781-9.5988133 12.63930591-23.6188963 14.13064841-39.2854025-9.78578996 5.384805-16.42215526 15.7171701-16.42215526 27.5550207" fill="#5cd8ff"/><path d="m15.341421 36.2858539c-.4725845 1.2530872-.9728036 2.476083-1.4956895 3.6671453v19.0993693c.8793425.4360166 1.697516.9911701 2.4349589 1.6448879l-.0009315-27.0419336c-.3008767.8873859-.612621 1.7655602-.9383379 2.6305311" fill="#5cd8ff"/><path d="m17.6195452 59.2529975c.6250411-.6623153 1.3367123-1.235278 2.1188676-1.7007718v-37.9150207c-.5430685 3.3069709-1.2519452 6.5362572-2.1188676 9.6556182z" fill="#5cd8ff"/><path d="m42.1543799 35.3494008h-15.4903379c-.3654612 0-.6610594.2929295-.6610594.6537179 0 .0039917-.001863.0076763-.001863.0132033v14.3412614c0 .0039917.001863.0095187.001863.0150456 0 .3589461.2965297.6512615.6610594.6512615h15.4903379c.337516 0 .6129315-.2514772.6536073-.5701992v-14.5334772c-.0406758-.3202573-.3160913-.5708133-.6536073-.5708133" fill="#5cd8ff"/><path d="m40.7662174 22.0219394c-1.078685 0-2.1381188.3844316-3.0621736 1.1136847-.1229589.0961079-.2695159.1443153-.4182465.1443153-.1484201 0-.2952877-.0472863-.4173151-.1443153-.9259178-.7301743-1.9853516-1.1136847-3.0640365-1.1136847-.3698083 0-.6697535-.2978423-.6697535-.6641577 0-.3657012.2999452-.6613941.6697535-.6613941 1.223379 0 2.4169497.3767551 3.4804201 1.098639 1.0662648-.7218839 2.2589041-1.098639 3.4813516-1.098639.3707397 0 .6706849.2966141.6697534.6613941 0 .3663154-.2990137.6641577-.6697534.6641577m-10.2891142-6.3099585c-.3704292.0036847-.6734795-.2910871-.6772055-.6564813-.003726-.3647801.2934247-.6653859.6629224-.6690706 1.018758-.0104398 2.0145388.2861743 2.9097169.8640498.8843105-.5947634 1.8735708-.9104149 2.8907762-.9214688.3698083-.0039917.6728585.2901659.6765845.6564813.003726.3657012-.2924931.666307-.6632329.6690705-.8734429.0092116-1.7279452.3306971-2.4722191.9291453-.1229589.0979502-.2698265.1467717-.4185571.148-.1465571.0024564-.2943562-.0436017-.4170046-.1397096-.7585571-.5849377-1.6189589-.8886141-2.4917808-.8800166m11.6773699-3.9855602h-15.4903379c-.3657717 0-.6610594.2932366-.6610594.6531038 0 .005527-.0021735.0085975-.0021735.0141245v14.2724813c0 .0046058.0021735.0092116.0021735.0122821 0 .3626308.2962192.6546391.6610594.6546391h15.4903379c.3375159 0 .612621-.2505561.6536073-.5717345v-14.4628548c-.0409863-.3211784-.3160914-.5720415-.6536073-.5720415" fill="#5cd8ff"/><path d="m62.4925589 52.8215071c-.8414612-1.0799088-1.6540457-2.2132449-2.4365114-3.3984731v10.0732116c.8926941-1.1575933 1.70621-2.3778257 2.4324749-3.6527136v-3.0125063c.0021735-.0049128.0040365-.005834.0040365-.0095186" fill="#5cd8ff"/><path d="m58.7168201 47.2898689c-.8538813-1.4247303-1.6673973-2.9170125-2.4346484-4.4679419v15.4850373c.8414612.2373527 1.6549772.5606805 2.4346484.962z" fill="#5cd8ff"/><path d="m51.1668329 29.2871734c-.8535708-3.0809792-1.554064-6.2691203-2.0949589-9.534946v38.5715021c.6809315-.1968216 1.3823561-.3371453 2.0949589-.4218922z" fill="#5cd8ff"/><path d="m54.9425717 57.9998797v-18.0477096c-.7868128-1.7864398-1.5168037-3.6416597-2.1843836-5.5592116-.0841461-.245029-.1676712-.4900581-.2518173-.7347801v24.1504067c.0676895-.0018424.138484-.0018424.2067945-.0018424.751726 0 1.4950685.0657096 2.2294064.193137" fill="#5cd8ff"/><path d="m60.142895 32.9439402c-.1477991 0-.2943562-.046058-.4173151-.1443153-.9249863-.7292531-1.9834886-1.1146058-3.063105-1.1146058-.3713607 0-.6697534-.295693-.6697534-.6623154 0-.3663153.2983927-.6623153.6697534-.6623153 1.221516 0 2.4172603.3767552 3.4804201 1.098639 1.0625388-.7218838 2.2573516-1.098639 3.4797991-1.098639.3704292 0 .6694429.296.6694429.6623153 0 .3666224-.2999452.6623154-.6675799.6623154-1.080548 0-2.1381187.3865809-3.0640366 1.1146058-.1223379.0973361-.2707579.1443153-.4176255.1443153m6.4292603 7.4819835c0-12.1095934-6.9437626-22.6433859-17.0996713-27.9176515 1.4590502 16.0721245 6.6484749 30.4069378 14.5957808 40.1620415 1.6121279-3.7663237 2.5038905-7.9044896 2.5038905-12.24439" fill="#5cd8ff"/><path d="m8.72989589 49.4285917c-.78122374 1.1870705-1.59380822 2.3188714-2.4343379 3.3947884v1.861668c.57722375 1.1198258 1.22027397 2.2009627 1.92356164 3.2391121.16984475-.0107469.34-.0199585.51077626-.0233361z" fill="#5cd8ff"/><g fill="#000"><path d="m64.4174557 54.1742946c1.7375708-3.7718506 2.78179-7.918307 2.9739909-12.2800083-.2319452 4.331917-1.3087671 8.441527-3.0683836 12.1728465.0316712.0359253.0627215.0715435.0943927.1071618"/><path d="m28.1250795 13.8915195c-11.2234156 0-21.15358909-5.4720083-27.21335165-13.86502074-.22231963.02702074-.44308675.06141078-.66261187.10378423 6.08491324 8.63712033 16.19890412 14.30134441 27.62663012 14.30134441 9.0275434 0 17.2353607-3.5344979 23.2851872-9.27640665.0509224-.17717013.1046393-.35341909.1627032-.52690457-6.0103927 5.73453942-14.1871598 9.26320332-23.198557 9.26320332" mask="url(#b)" transform="translate(5.899543 59.271237)"/><path d="m.60951598 40.1187776c0-12.7089627 7.25643836-23.7401826 17.89455712-29.2680747.001863-.0251784.003726-.0506639.0052785-.0758423-10.90297717 5.5119253-18.38484018 16.7335187-18.38484018 29.6509709 0 4.7160415.99950684 9.2048631 2.79638356 13.2736349.13972602-.1615104.28069406-.3196432.41855707-.483917-1.7552694-4.0159585-2.72993607-8.4436764-2.72993607-13.0967718"/><path d="m3.53808037 55.0181095c.15680365.3168797.31919634.6303818.48562557.9414274l-.00031051-1.2779585c-.02297717-.0466722-.04688584-.0927303-.06986301-.1394025-.13755251.1602822-.27634703.318415-.41545205.4759336"/><path d="m62.8988822 56.7574166v.1409378c.0503014-.0294772.1033973-.0549627.1543196-.0838258.2549224-.4436929.5002192-.8935269.7349589-1.349502-.0347762-.0383818-.069863-.0752283-.1049497-.1139171-.2499544.4756266-.5117078.944498-.7843288 1.4063071"/><path d="m5.36408219 58.2136813c.20275799-.0494357.40706849-.0924232.61262101-.1301908-.20958904-.3193361-.41389955-.6423569-.61262101-.9690623z"/><path d="m3.95350137 54.5422785c.0227772.0467856.0464778.0929556.0695628.1397412v-.220077c-.023085.0270864-.0464778.0532494-.0695628.0803358"/><path d="m5.36408219 54.6851095v2.4294108c.19872146.3267054.40303197.6494191.61262101.9687552.43159817-.0792199.86971689-.131112 1.31094064-.1590539-.70328768-1.0381494-1.34664841-2.1192863-1.92356165-3.2391121"/><path d="m1.91005479 40.4258315c0-11.8378506 6.6363653-22.1702157 16.42215521-27.5550207.0639635-.6702988.1210959-1.3439751.1717078-2.0201079-10.63780821 5.5278921-17.89424657 16.559112-17.89424657 29.2680747 0 4.6530954.97435617 9.0808133 2.72993608 13.0967718.29094064-.3466639.57784474-.700083.86195433-1.0593361-1.47674885-3.6275353-2.29150685-7.5863818-2.29150685-11.7303818"/><path d="m59.1246648 60.0651552c.0332238.0236431.068.0460581.1012238.0697012.6716164-.8744896 1.4559452-1.6562489 2.3312511-2.3299253v-1.9614606c-.7262648 1.274888-1.5397808 2.4951204-2.4324749 3.6527137z"/><path d="m57.9714904 60.907005c-5.848621 6.7472033-14.5256073 11.0302987-24.1962009 11.0302987-10.4508858 0-19.7426667-5.0016016-25.55682192-12.711112-.07855708-.0018423-.15649315-.0073693-.23505023-.0073693-.39371689 0-.78432877.0313195-1.17214612.0789129 6.05976257 8.3930124 15.98993607 13.8650207 27.21335157 13.8650207 9.0113973 0 17.1881644-3.5286639 23.1985571-9.2632033.3154703-.9466473.7355799-1.8420166 1.2469772-2.6735187-.1620822-.1129958-.3309955-.2149377-.4986667-.319029"/><path d="m48.3759452 10.4472954c.0484384.6899502.1027763 1.377137.1648767 2.0609461 10.1559087 5.2742656 17.0999818 15.8080581 17.0999818 27.9176514 0 4.3402075-.8920731 8.4780664-2.504201 12.2443901.3887489.4768548.7846393.9420415 1.1864293 1.3970954 1.7596164-3.7316265 2.8364383-7.8412365 3.0683835-12.1731535.0217352-.4869876.0347763-.9761245.0347763-1.468332 0-13.1787551-7.7873973-24.5925643-19.0502466-29.9785975"/><path d="m62.8988822 54.4599162v2.2973776c.272621-.4615021.5343744-.9303735.7843288-1.406-.2629955-.2926224-.5244384-.5895436-.7843288-.8913776"/><path d="m28.0708037 6.61031867c0-.36631535-.3011873-.66323651-.670685-.66323651-.3707397 0-.6706849.29692116-.6706849.66323651v1.25646473c.4440183-.0979502.890831-.18853112 1.3413699-.2686722z"/><path d="m20.1475306 3.02911784h.9032511c.3707398 0 .670685-.29569294.670685-.66231535v-1.04214108h.4347032v1.04214108c0 .36662241.2980822.66231535.6697534.66231535h.9038721v5.63443984c.331306-.10255602.6647854-.19927801 1.0001279-.2920083.1133333-.03254772.2272877-.06417428.3415525-.09549378v-3.24095436h16.8050046v2.9593859c.4539543.10808298.9048036.22384232 1.3513059.35004149v-3.97082158c0-.02824896-.0040365-.0546556-.0077626-.08106224v-1.26352697h.9032512c.3694977 0 .6697534-.29569294.6697534-.66231535v-1.04214108h.4337717v1.04214108c0 .36662241.2971507.66231535.6697534.66231535h.8982831c-.005589.03592531-.0114886.07062241-.0114886.10654772 0 .58770124.0058996 1.17570954.0173882 1.76187552v4.68073029c.5281644.21616597 1.0494977.44492113 1.5636895.68687963-.1210959-1.76341075-.2005845-3.54463067-.2307032-5.3424315v-2.55591701c0-.36754357-.2983927-.66231535-.6709955-.66231535h-.9023196v-1.04214108c0-.36662241-.2983927-.66231535-.6697534-.66231535h-1.7723471c-.3713607 0-.6716164.29569294-.6716164.66231535v1.04214108h-.9020091c-.3710502 0-.671927.29477178-.671927.66231535v1.34243983h-16.8068675v-1.34243983c0-.36754357-.2983927-.66231535-.6697535-.66231535h-.9035616v-1.04214108c0-.36662241-.2990137-.66231535-.6697534-.66231535h-1.7751416c-.3704292 0-.6697534.29569294-.6697534.66231535v1.04214108h-.9029407c-.3707397 0-.6709954.29477178-.6709954.66231535v.69609129c-.001863.02364315-.0077625.0472863-.0077625.07185062 0 2.57833195-.1002923 5.12749377-.2865936 7.6401162.5374794-.2717428 1.0842739-.5284399 1.6378995-.7719336z"/><path d="m30.502347 6.61031867c0-.36631535-.2993242-.66323651-.6697534-.66323651-.3707397 0-.6697534.29692116-.6697534.66323651v.81369295c.4437077-.06386722.89021-.12005809 1.3395068-.16673029z"/><path d="m32.9348219 6.61031867c0-.36631535-.3002557-.66323651-.6697534-.66323651-.3716712 0-.6706849.29692116-.6706849.66323651v.55177594c.4443287-.03162656.891452-.05373444 1.3404383-.06816598z"/><path d="m40.2292037 6.61031867c0-.36631535-.2990137-.66323651-.6697535-.66323651-.3707397 0-.6716164.29692116-.6716164.66323651v.81369295c.4502283.06509543.8970411.13909543 1.3413699.22169294z"/><path d="m37.7976292 6.61031867c0-.36631535-.2990137-.66323651-.6697534-.66323651-.3698082 0-.6706849.29692116-.6706849.66323651v.55208299c.4496073.03193361.8961096.07369295 1.3404383.12312863z"/><path d="m35.3651854 6.61031867c0-.36631535-.2980822-.66323651-.6694429-.66323651-.3701188 0-.6709955.29692116-.6709955.66323651v.46426556c.4492968 0 .8954886.011361 1.3404384.02886307z"/><path d="m35.3651854 7.18720833v-.0837216c-.4449498-.0175446-.8911416-.0289332-1.3404384-.0289332v.0775656c.4489863.003078.8957991.0144666 1.3404384.0350892"/><path d="m34.6956493 9.47562324c.3223014 0 .5890228-.22322822.6539178-.52260581-.4356347-.02118672-.8740639-.03193361-1.3140456-.03531121.0515433.31595851.3275799.55791702.6601278.55791702"/><path d="m32.2650064 9.47562324c.3303744 0 .6036164-.23704565.6582648-.54993361-.4365662.01166805-.8703379.03346888-1.3022465.06233195.077936.2806473.3344109.48760166.6439817.48760166"/><path d="m29.8325315 9.4764644c.2716895 0 .5036347-.16001328.608895-.38987851-.3788128.03908017-.7551416.08646872-1.1299178.13878075.1229589.15201261.3089497.25109776.5210228.25109776"/><path d="m63.3606922 31.0227651c0-.3663153-.2990137-.6623153-.6694429-.6623153-1.222758 0-2.4172603.3767552-3.4797991 1.098639-1.0631598-.7218838-2.2592146-1.098639-3.4804201-1.098639-.3716712 0-.6697534.296-.6697534.6623153 0 .3666225.2980822.6623154.6697534.6623154 1.079306 0 2.1378083.3853527 3.0631051 1.1146058.1226484.0979502.2695159.1443154.417315.1443154.1465571 0 .2952877-.0469793.4173151-.1443154.9262283-.7280249 1.9837991-1.1146058 3.064347-1.1146058.3676347 0 .6675799-.2956929.6675799-.6623154"/><path d="m40.2292037 7.76619236v-.120042c-.4443288-.0827982-.8911416-.156978-1.3413699-.2219238v.1083456c.4502283.0680238.8970411.147744 1.3413699.2336202"/><path d="m32.9348219 7.15952074v-.0655614c-.4489863.0141588-.8961096.0366282-1.3404383.0683316v.0587898c.4446392-.0286254.8911415-.0504792 1.3404383-.06156"/><path d="m37.7976292 7.38795765v-.1021896c-.4443287-.0495558-.890831-.0914166-1.3404383-.1234278v.09234c.4496073.035397.8961096.0806436 1.3404383.1332774"/><path d="m37.1278137 9.47802988c.2440548 0 .4551963-.13027718.5722557-.32384067-.3983744-.04908548-.7995434-.08952697-1.2025753-.12379419.0915981.26024564.3378264.44763486.6303196.44763486"/><path d="m39.5593881 9.47586944c.0465754 0 .0922192-.0049248.136-.0135432-.1623927-.03078-.3254064-.060021-.4890411-.0880308.1030868.0634068.2235617.101574.3530411.101574"/><path d="m34.6956493 29.5746066c-.3698082 0-.6709954.295693-.6709954.6623154v2.2018838c0 .3666224.3011872.6623154.6709954.6623154.3713607 0 .6694429-.295693.6694429-.6623154v-2.2018838c.001242-.3653942-.2980822-.6623154-.6694429-.6623154"/><path d="m27.4000566 29.5746066c-.3704292 0-.6706849.295693-.6706849.6623154v2.2018838c0 .3666224.3002557.6623154.6706849.6623154.3694977 0 .670685-.295693.670685-.6623154v-2.2018838c0-.3653942-.3011873-.6623154-.670685-.6623154"/><path d="m37.1278137 29.5746066c-.3694977 0-.6706849.295693-.6706849.6623154v2.2018838c0 .3666224.3002557.6623154.6706849.6623154.3707397 0 .6697534-.295693.6697534-.6623154v-2.2018838c0-.3653942-.2999452-.6623154-.6697534-.6623154"/><path d="m32.2650064 29.5746066c-.3716712 0-.6706849.295693-.6706849.6623154v2.2018838c0 .3666224.2990137.6623154.6706849.6623154.3694977 0 .6697534-.295693.6697534-.6623154v-2.2018838c0-.3653942-.3011872-.6623154-.6697534-.6623154"/><path d="m30.502347 7.30671431v-.0495558c-.4492968.0467856-.8957991.103113-1.3395068.1671354v.0390906c.4437077-.0606366.89021-.1132704 1.3395068-.1566702"/><path d="m29.8325315 29.5746066c-.3704292 0-.6697534.295693-.6697534.6623154v2.2018838c0 .3666224.2993242.6623154.6697534.6623154s.6697534-.295693.6697534-.6623154v-2.2018838c0-.3653942-.2993242-.6623154-.6697534-.6623154"/><path d="m39.5593881 29.5746066c-.3704292 0-.6716164.295693-.6716164.6623154v2.2018838c0 .3666224.3011872.6623154.6716164.6623154.3707398 0 .6697535-.295693.6697535-.6623154v-2.2018838c0-.3653942-.2990137-.6623154-.6697535-.6623154"/><path d="m32.8729699 16.5835842c.7439634-.5984481 1.5984657-.9196265 2.4722191-.9288381.3707398-.0030706.6669589-.3036764.6632329-.6690706-.003726-.3666224-.3067762-.660473-.6765845-.6567884-1.0172054.011361-2.0064657.3270125-2.8907762.9214689-.8951781-.5775684-1.8909589-.8741826-2.9097169-.8640498-.3694977.0036847-.6666484.3042905-.6629224.6690706.003726.3653942.3067763.660473.6772055.6567883.8728219-.0085975 1.7332237.2947718 2.4917808.8800166.1226484.0961079.2704475.142166.4170046.1394025.1487306-.0009211.2955982-.0500498.4185571-.148"/><path d="m25.0686248 8.27617842c-.1132704.0313956-.226233.063099-.3388878.0957258.1126548-.0317034.2256174-.0618678.3388878-.0920322z"/><path d="m43.2277863 8.48978672v-.14355187c-.4465023-.12657261-.8973516-.24295767-1.3513059-.35162489v.13212946c.4539543.11206307.9048036.23307884 1.3513059.3630473"/><path d="m39.8347105 20.6962647c-1.2224475 0-2.4150868.3770623-3.4813516 1.098639-1.0634703-.7215767-2.2570411-1.098639-3.4804201-1.098639-.3698082 0-.6697534.295693-.6697534.6613942 0 .3666224.2999452.6641577.6697534.6641577 1.0786849 0 2.1381187.3835104 3.0640365 1.1136846.1220274.0970291.268895.1443154.4173151.1443154.1487306 0 .2952877-.0482075.4182466-.1443154.9240548-.7292531 1.9834886-1.1136846 3.0621735-1.1136846.3707397 0 .6697534-.2975353.6697534-.6641577.0009315-.364473-.2990137-.6613942-.6697534-.6613942"/><path d="m48.1403361 19.752166c.540895 3.2658257 1.2413881 6.4542738 2.0949589 9.534946v28.6146639c-.7126028.085054-1.4140274.2253776-2.0949589.4221992zm3.4347762 13.9058589c.0838356.245029.1676713.4900581.2515069.7350871.6675799 1.9172448 1.3975708 3.7724648 2.1843835 5.5589046v18.0477095c-.7343379-.1271203-1.4776803-.1931369-2.2290959-.1931369-.068621 0-.1394155 0-.2067945.0018423zm3.7757078 9.1640249c.7669406 1.5509295 1.5804566 3.0432116 2.4343379 4.4679419v11.9790954c-.7793607-.4016265-1.5928767-.7246473-2.4343379-.962307zm-13.4742466-16.0607635c-.0409863.3211784-.3160913.5717344-.6536073.5717344h-15.4903379c-.3648402 0-.6610594-.2920083-.6610594-.654639 0-.0030705-.0021735-.0076763-.0021735-.0122821v-14.2724813c0-.005527.0021735-.0085976.0021735-.0141245 0-.3598672.2952877-.6531038.6610594-.6531038h15.4903379c.337516 0 .612621.2508631.6536073.5720415zm0 7.3708299c-.202758-.0700083-.4247671-.1083901-.6536073-.1083901h-15.4903379c-.2313242 0-.4533333.03961-.6610594.1111536v-5.5871536c.2064841.0706224.4297352.1099254.6610594.1099254h15.4903379c.2297717 0 .4508493-.0374606.6536073-.108083zm0 16.3217593c-.0409863.318415-.3160913.5698921-.6536073.5698921h-15.4903379c-.3648402 0-.6610594-.2920083-.6610594-.6509543 0-.005834-.0021735-.011361-.0021735-.0150457v-14.3412614c0-.005834.0021735-.0095186.0021735-.0132033 0-.3610954.2952877-.6540249.6610594-.6540249h15.4903379c.337516 0 .612621.250556.6536073.5711203zm0 7.365917c-.202758-.0697012-.4247671-.108083-.6536073-.108083h-12.1896986c-1.1836347-.7547385-2.5333881-1.2607634-3.9616987-1.452058v-4.024249c.2064841.0733859.4297352.1120747.6610594.1120747h15.4903379c.2297717 0 .4508493-.0386888.6536073-.1102324zm-.0009315 4.5293527c-.2400183.284332-.4763105.5830955-.6945936.8883071-1.4717808-.8554523-3.1677443-1.3227884-4.9161826-1.3227884-1.1550685 0-2.2896439.2026556-3.3549772.5907718-.4828311-1.3200249-1.2510137-2.4978838-2.2216439-3.4654108h10.5347215c.337516 0 .612621.2487137.6536073.5717344zm-23.0687671-4.7967967c-.7821553.4654938-1.4938265 1.0381494-2.1188676 1.7007718v-29.9601742c.8669224-3.1196681 1.5757991-6.3486473 2.1188676-9.6559254zm-5.8927123 1.4999586v-19.0993693c.5228858-1.1910623 1.023105-2.4140581 1.4956895-3.6671453.3257168-.8649709.6374611-1.7431452.9386484-2.6305311l.0009315 27.0422407c-.737443-.6540249-1.555927-1.2088714-2.4352694-1.645195zm-1.3407489-.5625229c-.7830868-.2686722-1.59970776-.4464564-2.4343379-.5333527v-10.6599917c.85294977-1.4247303 1.6655342-2.9151701 2.4343379-4.468863zm35.228968.3033693c-1.3044201.5379585-2.517242 1.2831785-3.5825753 2.208332v-1.2254523c.0040365-.0254855.0080731-.0549627.0080731-.0813693v-9.3236929c0-.0291702-.0040366-.056805-.0080731-.0829046 0 0 .0080731-14.2574357.0080731-14.2847635v-25.6737012c-.4465023-.1372532-.8970411-.2637594-1.351306-.38197514v.56160164c-.202758-.0697012-.4247671-.10839-.6536073-.10839h-15.4903379c-.2313242 0-.4533333.0386888-.6610594.1111535v-.4028548c-.4514703.1271204-.8982831.2649876-1.3416803.4111453v45.6561576c-1.2451142.0076764-2.4588676.2594606-3.5822649.7105229v-44.9413361c-.6166575.2895518-1.2215159.5984481-1.8155068.9251535-1.4913425 15.6665062-6.5404201 29.6865892-14.13064841 39.2854025.35117809.8622074.73868493 1.7059917 1.16252055 2.5288962v-1.861668c.84052968-1.075917 1.65342466-2.2077179 2.4343379-3.3947884v8.4722324c-.17077626.0030705-.340621.0125892-.51046575.0233361.2996347.4418506.60951598.8760249.93057534 1.3019087 3.08204567.074307 5.95326027 1.6012863 7.71473977 4.1188216.1297899.1894522.3372054.2883236.550831.2883236.1307215 0 .2648585-.0386888.3800548-.1179087.3061553-.2081826.3822283-.6208631.1707763-.92239-.1847489-.2665229-.3822284-.5210706-.5887124-.7660996 1.4509772-2.6397428 4.2902101-4.3254689 7.3436895-4.3254689 3.5434521 0 6.7360366 2.2651369 7.8929681 5.5475436-.5812603.3092033-1.1308494.6795103-1.6406941 1.1004813-.0779361-.0036847-.1552511-.005527-.2334977-.005527-1.3491324 0-2.651379.4823818-3.666411 1.360556-.276968.2413444-.3055342.6586307-.0608584.9346722.2418813.2741992.6669589.3033693.9442374.0620249.7706667-.666 1.7577534-1.0344647 2.783032-1.0344647 1.2367306 0 2.4079452.5342739 3.2121461 1.463112.1319635.1529129.3210594.2318258.5095342.2318258.1543197 0 .3086393-.0515851.4356347-.1581328.2810046-.2373527.3142284-.6567884.0742101-.9346722-.610758-.7046888-1.3789406-1.2343569-2.2315799-1.5601411 1.3264657-.8265892 2.8671781-1.2721245 4.4532237-1.2721245 2.4439635 0 4.761242 1.0544233 6.3503927 2.8927552.1325845.1544481.3204384.2305975.5098448.2305975.1543196 0 .3086392-.051585.4353242-.1581328.281315-.2376597.3145388-.6558672.07421-.933751-.411726-.4750124-.8650593-.8999751-1.3488219-1.280722 2.1806575-3.0410622 5.7296986-4.855751 9.4960913-4.855751 2.2005297 0 4.3473425.6279253 6.1926576 1.7753859.3977534-.4587386.7824657-.9297594 1.1532054-1.4106058v-10.0735187c.7824658 1.1855353 1.5950503 2.3188714 2.4365115 3.3987801 0 .0036846-.0018631.0046058-.0040366.0092116v3.0128133c.5837443-1.024332 1.1128402-2.0827469 1.5795251-3.1734025-7.9473059-9.7547967-13.1367306-24.089917-14.5957808-40.1617345-.5703927-.296307-1.1501004-.5769543-1.7400548-.8391784z"/><path d="m28.0708037 7.59820332c-.4505389.0803358-.8973516.1711368-1.3413699.269325v.0181602c.4437078-.0941868.8911415-.1797552 1.3413699-.2560896z"/><path d="m34.6956493 53.2012714c-.3698082 0-.6709954.2966141-.6709954.6641576v2.2009627c0 .3675436.3011872.6623154.6709954.6623154.3713607 0 .6694429-.2947718.6694429-.6623154v-2.2009627c.001242-.3675435-.2980822-.6641576-.6694429-.6641576"/><path d="m37.1278137 53.2012714c-.3694977 0-.6706849.2966141-.6706849.6641576v2.2009627c0 .3675436.3002557.6623154.6706849.6623154.3707397 0 .6697534-.2947718.6697534-.6623154v-2.2009627c0-.3675435-.2999452-.6641576-.6697534-.6641576"/><path d="m29.8325315 53.2012714c-.3704292 0-.6697534.2966141-.6697534.6641576v2.2009627c0 .3675436.2993242.6623154.6697534.6623154s.6697534-.2947718.6697534-.6623154v-2.2009627c0-.3675435-.2993242-.6641576-.6697534-.6641576"/><path d="m32.2650064 53.2012714c-.3716712 0-.6706849.2966141-.6706849.6641576v2.2009627c0 .3675436.2990137.6623154.6706849.6623154.3694977 0 .6697534-.2947718.6697534-.6623154v-2.2009627c0-.3675435-.3011872-.6641576-.6697534-.6641576"/><path d="m27.4000566 53.2012714c-.3704292 0-.6706849.2966141-.6706849.6641576v2.2009627c0 .3675436.3002557.6623154.6706849.6623154.3694977 0 .670685-.2947718.670685-.6623154v-2.2009627c0-.3675435-.3011873-.6641576-.670685-.6641576"/><path d="m46.800674 9.7435278c.5322009.22169295 1.0572602.4562822 1.5751781.7037676-.0040366-.0604896-.0074521-.1215933-.0114886-.182083-.5141918-.2419585-1.0355251-.47071364-1.5636895-.68687962z"/><path d="m39.5593881 53.2012714c-.3704292 0-.6716164.2966141-.6716164.6641576v2.2009627c0 .3675436.3011872.6623154.6716164.6623154.3707398 0 .6697535-.2947718.6697535-.6623154v-2.2009627c0-.3675435-.2990137-.6641576-.6697535-.6641576"/><path d="m3.95350137 54.5420838c-.21424658-.4366307-.41886758-.8790954-.61417352-1.326473-.13786301.1642738-.27883105.3224066-.41824657.4836099.19654794.4449212.40178995.8846225.61696804 1.3187967.13910502-.1572116.27789954-.3156514.41545205-.4759336"/><path d="m63.0532329 56.8144058c-.0509224.0288631-.1040183.0543486-.1543197.0838257v-.1409377c-1.5562374 2.6348299-3.4695525 5.0369128-5.6756712 7.1420747-.0580639.1737925-.1120913.3497344-.1627032.5272116 2.3495708-2.2301328 4.3728037-4.7934191 5.9926941-7.6121743"/><path d="m5.97661005 58.0833983c-.20555252.0377677-.40955252.0810623-.61262101.1301909v-1.0992531c-.48003653-.7900498-.92684931-1.6019004-1.34043836-2.4327884l.00031051 1.2779585c.6393242 1.1919834 1.34913242 2.3412863 2.12476712 3.4420747.21952511-.0423734.44029224-.0767635.66261187-.1037842-.28721461-.398249-.56511415-.8035602-.83463013-1.2143984"/><path d="m24.7298612 8.37154938c-.3353425.0929556-.6688219.1899126-1.0001279.2927178v.0116964c.3316165-.106191.6644749-.2083806 1.0001279-.3044142"/><path d="m63.6833352 55.3512324c.0347762.0383817.0701735.0755352.1049497.1136099.2185936-.4249626.4288037-.8551452.6290777-1.2905477-.0313608-.0356183-.0627215-.0712365-.0940822-.1071618-.204621.4332531-.4173151.8615933-.6399452 1.2840996"/><path d="m20.1475306 10.0517793v-.0488216c-.5536256.2434938-1.1004201.5001908-1.6378995.7719336-.0018631.0251784-.0037261.0506639-.0055891.0758423.5393425-.2806473 1.0870685-.5474772 1.6434886-.7989543"/><path d="m4.20153059 52.1561212c-.28410959.3592531-.5710137.7129792-.86195433 1.0596431.19530593.4470706.39961643.8895353.61386301 1.326473.02328767-.0270207.04719635-.0531203.07017352-.0804481v.2198506c.41358904.830888.86040182 1.6427386 1.34043835 2.4327884v-2.4294108c-.42383561-.8225975-.81134246-1.6666888-1.16252055-2.5288962"/><path d="m63.6833352 55.3512324c.2226301-.4225063.4353242-.8508465.6399452-1.2840996-.40179-.4547469-.7979909-.9199336-1.1867398-1.3967884-.4666849 1.0906556-.9957808 2.1490705-1.5795251 3.1730954v1.9614606c-.8753059.6736764-1.6593242 1.4554357-2.3309406 2.3299253-.0335343-.0236431-.068-.0460581-.1015343-.0697012v-.568971c-.3707397.4811536-.7551415.9518672-1.1532054 1.4109129.1679817.1040913.3365844.2060332.4989771.318722-.5117077.8318091-.9315068 1.7268714-1.2472876 2.6735187 2.2064292-2.1051619 4.1197442-4.5072449 5.6759817-7.1417677v-2.2976846c.2598904.3021411.5210228.5987552.7843288.8913776"/><path d="m8.21834338 59.2261303c-.32105936-.4258838-.63094064-.8600581-.93057534-1.3019087-.44122375.0279419-.87934247.079834-1.31125115.1590539.26951599.4111452.54741553.8164565.83494064 1.2143984.38781736-.0472863.77842923-.0786059 1.17183562-.0786059.07855708 0 .15649315.00522.23505023.0070623"/><path d="m20.1475306 11.945688v-1.8939087c-.5564201.2514771-1.1041461.5186141-1.6434886.7989543-.0506119.6761328-.1080548 1.3498091-.1720183 2.0201079.5939909-.3267054 1.1991599-.6356017 1.8155069-.9251535"/><path d="m30.502347 7.30659419c-.4492968.04329461-.8957991.09580083-1.3395068.15629046v1.34950207c0 .15690457.0571324.29907054.1487306.4126805.3747762-.05219917.751105-.09948548 1.1299178-.13848133.0381918-.08382572.0608584-.17594191.0608584-.27419917z"/><path d="m38.8877406 8.81232531c0 .23796681.1282375.44492116.3185754.56190871.1636347.02794191.3266484.05741909.4893516.08781743.3049132-.06202489.5334429-.32854772.5334429-.64972614v-1.04705394c-.4440183-.085361-.8911416-.16488797-1.3413699-.23305394z"/><path d="m35.3651854 7.18693527c-.4446393-.02057261-.8914521-.03193361-1.3404384-.03500415v1.66024066c0 .03623237.0049681.07092946.0108676.10531951.4399817.00368464.878411.01443153 1.3140457.03561825.0096255-.04544398.0155251-.09242323.0155251-.14093776z"/><path d="m37.7976292 7.38741079c-.4443287-.05250623-.890831-.09764316-1.3404383-.13295436v1.5579917c0 .07676349.0158356.14922822.0403653.2180083.4027214.03377594.8038904.07430706 1.2025753.12282158.0608585-.09979253.0974977-.21555187.0974977-.34082988z"/><path d="m27.4000566 9.47562324c.3694977 0 .670685-.29569295.670685-.66323652v-1.18307884c-.4502284.07645644-.8973516.16181743-1.3413699.25577594v.9273029c0 .36662241.3002557.66323652.6706849.66323652"/><path d="m43.2277863 10.3296017v-1.84232369c-.4465023-.12957677-.8973516-.24994191-1.3513059-.36140249v1.82175104c.4542648.11821574.9051141.24472194 1.3513059.38197514"/><path d="m32.9348219 7.15936183c-.4492968.01105394-.8957991.03285477-1.3404383.06141078v1.59146059c0 .06141078.0108675.11944398.0267032.1759419.4319086-.02886307.8656803-.05097095 1.3022465-.06233195.0062101-.03715352.0114886-.0746141.0114886-.11360995z"/><path d="m48.540884 12.5083643c-.0621004-.6838091-.1164383-1.3709958-.1648767-2.060946-.5179178-.2477926-1.0432877-.48207473-1.5751781-.70376768v1.92553528c.5899544.2625311 1.1696621.5431784 1.7400548.8391784"/><path d="m23.7298265 10.5201593c.4433972-.1461576.89021-.2840249 1.3416803-.4108381v-1.82942742c-.1142648.03009128-.2282191.06018257-.3415525.09150207-.3356529.09610788-.6688219.19774274-1.0001278.3039834z"/></g></g></svg>