<svg height="76" viewBox="0 0 66 76" width="66" xmlns="http://www.w3.org/2000/svg" xmlns:xlink="http://www.w3.org/1999/xlink"><mask id="a" fill="#fff"><path d="m.28635484.17447087h10.89106456v24.84062993h-10.89106456z" fill="none"/></mask><mask id="b" fill="#fff"><path d="m.23127373.18045512h.29879536v.5984252h-.29879536z" fill="none"/></mask><mask id="c" fill="#fff"><path d="m.26536866.18045512h.26494839v.5984252h-.26494839z" fill="none"/></mask><mask id="d" fill="#fff"><path d="m0 .11426929h3.77103318v21.23451971h-3.77103318z" fill="none"/></mask><mask id="e" fill="#fff"><path d="m.24270968.266h12.41012902v10.612622h-12.41012902z" fill="none"/></mask><mask id="f" fill="#fff"><path d="m.09376866.2550189h3.71181567v.34615355h-3.71181567z" fill="none"/></mask><g fill="none" fill-rule="evenodd" transform=""><path d="m47.8483576 16.3230646c-.5982581-.3207559-1.2092903-.6211654-1.8300553-.9039213v.9039213z" fill="#aa59fa"/><path d="m53.138739 20.1788402c.0365342-.0618293.0739742-.123357.1114142-.1848847-.0667278-.0570036-.1337574-.1131023-.2010891-.1698043l-.0501212.0600196z" fill="#aa59fa"/><path d="m29.1112313 12.8339165c-.352811.0427874-.7034931.0918583-1.0529585.146315l.2500092.4177008z" fill="#aa59fa"/><path d="m50.5619309 17.9610142c-.4191152-.2824567-.8452258-.5553386-1.2789401-.8180473l-.0328479.3246457z" fill="#aa59fa"/><path d="m39.1139419 12.7547449-1.4221935 1.1444882-1.4218894 1.7806141.387788.5086615h.5170507l3.1026083-1.6534489.5170507 1.0176221 3.854765-1.1011024c-1.9416775-.8707086-3.9895023-1.5502204-6.1185346-2.0160945l.0663041.0649292z" fill="#5cd8ff"/><path d="m32.779706 16.9514409.3874839-.5086614v-.381496l1.0344055-1.5262835 1.0341014-2.2889764.1192258-.3372126c-.5541567-.0628346-1.1128756-.1116063-1.6755484-.1457165l-1.029235 5.0611811z" fill="#5cd8ff"/><path d="m42.8551687 32.2346819c-.1748848-.7249921-.2633917-1.4670394-.2633917-2.2150709 0-.3761102.0252442-.7468346.0687373-1.1127716l-.3150968-1.7815118-.1292627-.1271654-.7752719.5086614-2.9733456-3.0519685-.6466175-1.017622-.3874839.7629921-2.5855576-1.1444882-.1292626.1271654 1.0341014 1.3988189-.7755761.6361259 3.1026083 3.3065985v.381496l-1.2926267.5086614-.1295668.1271654 2.4562949 2.6704724-.0717788.2651024c.5468571-.1549921 1.122-.2426614 1.7187373-.2426614z" fill="#5cd8ff"/><path d="m30.0649465 14.7894803.1104056-3.0483779c-.7214378.0356063-1.4358802.0966456-2.1442397.1798267l1.7750047 2.8685512z" fill="#5cd8ff"/><path d="m49.1632783 20.9544567-.3540276-.6965669-.5170507.7632913-1.1633641-1.017622-2.9733456-1.9074804-.1295668 1.0173229-2.0678986-.6358268h-.7758802l-2.5852535-.3814961v.3814961l.5170507.6358268-.7758801.2543307-1.6804148.381496-.387788.3814961v.5086614l4.783023.1274646.1292627.1268661-.387788.6358268 4.395235 1.6534488-.6463134 1.0173229.0380185.035307c1.1536313-1.4945669 2.7415852-2.6519212 4.5819815-3.2811653" fill="#5cd8ff"/><path d="m30.4528562 48.6177386-.2588295-19.2031654.1292627-4.4510866-.1292627-.1271653-1.2926267 1.3988189-.6463134-.8901575-.387788.2543307-.5170507 2.7976378-1.0344055 1.2719527h-.2582212l-.7758802-.6361259-1.0337972 2.797937-.2588295.6358267-3.7489217 4.1967559-.9048387-3.9421259v-1.1447874l1.9392443-3.1794331-.9051429-.6358268 1.2929309-2.2889764 1.4215852-1.0173228 3.1029125-1.3991181.1289585-.1268662-.387788-.3817952-.5167466-.1271654.6463134-.5086614 2.4559908-.1271654v-.1271653l-2.1977696-.6358268-1.5511521.3814961h-1.2926267l-1.1633641.6358268h-.1292626l-.3880922-.7629922-2.8437788 1.9077796-1.2926267.5083622-.3880922-1.2716536-1.2926267.7632914-3.4900922 2.9248031-1.2929309.8901575h-.1289585l1.1633641-5.2140788 1.163364-1.0173228 2.1977696-.7629921.1289585-.1271654-.775576-.7629921.1292627-.2546299 5.4293364-1.5259843 2.9733456.6358268.2585253-.2543307-.2585253-.8901575.1292627-.1271653.775576.5086614 3.1026083 1.5259842.1289585-.1271653-1.5508479-1.9074803-.9051429-.6358268v-.3814961l.2588295-.636126-.1295668-.2543307-5.504765-.7381575c-8.9215576 3.6575749-15.76122577 11.27463-18.23729029 20.6088662 5.71462673.7564094 10.16643319 5.4863622 10.37386179 11.2626614h8.3680092c3.436258 0 6.2322857 2.7506614 6.2322857 6.1311654 0 3.3808031-2.7960277 6.1314645-6.2322857 6.1314645h-15.30500463c5.31102303 8.6888347 14.86703223 14.5931969 25.82485713 14.9151496l-.0900276-11.7656378z" fill="#5cd8ff"/><path d="m34.5285539 38.3659071c0-1.3772756.4696037-2.6456378 1.251871-3.670441l-.156636-1.3386771-1.0344055.1271653-.6463134-1.9074803.3877881-1.7806142v-.381496l-.9048387.1271653-.1292627-1.3988189h-.2585254v2.1621103l.2585254 1.5259842v3.3062992l.6463133 20.7294489.5170507 13.8619212.0419724 3.2662047c15.2268387-1.3171338 27.3495484-13.4349448 28.3827373-28.4976063h-22.1239908c-3.4365622 0-6.2322857-2.7503622-6.2322857-6.1311653" fill="#5cd8ff"/><path d="m54.1748682 20.8035339c-.1380829.2288976-.2697788.4625826-.396.6998582l.38353.7968032-.7755761 3.0522677-2.3267281-2.1621102-.132-.2594174c-1.718129.5517481-3.1938525 1.6289134-4.2407281 3.0289292l1.3990783 1.3000787 1.4221936 2.4161417-.9048387.3817953.5170507 4.5779528-.1292627 3.5609291h-.2585253l-2.5855577-3.0519685-.5170506-3.3065984-.1292627-.1271654-.4093825.2013701c.0669124.5529449.1834009 1.0993071.3613272 1.6313071l.2627834.7854331h-3.7385807c-.75094 0-1.4617327.1678582-2.1022672.4604881l-.061742.228-.9048387.5086615v1.7803149l-.387788 2.416441h-.1295668l-1.1347742-2.1091496c-.1870507.5167401-.2947189 1.0702834-.2947189 1.649559 0 2.7210394 2.2503871 4.9346142 5.0156958 4.9346142h22.1836037c.0085162-.2962205.014295-.5930394.014295-.8913543 0-8.88063-3.8535484-16.8914489-10.0003687-22.5031811" fill="#fff"/><path d="m50.6528101 22.3895701-.2728202-.5373858c-1.8403964.6289448-3.4286544 1.7865984-4.5822858 3.2808661l.4364517.4054331c1.1022304-1.4496851 2.6375668-2.5615591 4.4186543-3.1489134" fill="#000"/><path d="m41.9774903 33.7305953h2.8976129c-.2271981-.679811-.3737972-1.3955276-.4306728-2.1357796l-.3652811-.6468976-.2019539-1.1432913c-.0434931.3656378-.0687373.7363622-.0687373 1.1124724 0 .7480315.0885069 1.490378.2633917 2.2150709h-2.0943595c-.5967373 0-1.1721843.0879685-1.7187373.2426614l-.1867465.6884882c.5958248-.2115433 1.2357511-.3327244 1.9054838-.3327244" fill="#000"/><path d="m36.3534387 39.2633953c0-1.0038583.2758618-1.9424882.7512442-2.754252l-.1076682-.9158898c-.7822672 1.0248032-1.2518709 2.2928662-1.2518709 3.6701418 0 3.3808031 2.7957235 6.1314645 6.2322857 6.1314645h22.1239908c.0136866-.1992755.0264608-.3985511.0364977-.5984252h-22.1604885c-3.1059539 0-5.6239908-2.4774803-5.6239908-5.5330393" fill="#000"/><path d="m53.4558028 20.8324378c.0842488-.1481102.1706267-.2953228.2594378-.4404409-.1532904-.1343465-.307189-.2677953-.4632166-.3994489-.0377143.0610394-.0754286.1220788-.1122305.1834174z" fill="#000"/><path d="m36.9617336 39.2635449c0-.5792756.1076682-1.1331181.2947189-1.6498583l-.0285898-.0526614-.1231798-1.0517323c-.4753824.8114646-.7512442 1.7503937-.7512442 2.754252 0 3.055559 2.5180369 5.5327401 5.6239908 5.5327401h22.1604885c.0097327-.1989763.0173364-.3985511.0231152-.5984252h-22.1836037c-2.7656129 0-5.0156959-2.2132755-5.0156959-4.9343149" fill="#000"/><path d="m53.7789594 21.5034819c.1262212-.2372756.2579171-.4709606.396-.6998583-.1520737-.1388346-.3050599-.275874-.4598709-.4117165-.0888111.1454173-.1748848.2923307-.2591337.4404409z" fill="#000"/><path d="m44.4445217 31.5947559c.0568755.7405512.2034746 1.4559685.4306728 2.1357795h-2.8976129c-.6697328 0-1.309659.1211811-1.9054839.3327244l-.1967834.726189c.6402304-.2923307 1.351023-.460189 2.1022673-.460189h3.7382765l-.2627834-.785433c-.1779263-.5322992-.2941106-1.0783622-.3613272-1.6313071l-.3661936.180126z" fill="#000"/><path d="m46.2340645 25.5386331.4531797.4212913c1.0471798-1.4000157 2.5225991-2.4774803 4.2410323-3.0289291l-.2755576-.5412756c-1.7810876.5873543-3.316424 1.6989291-4.4186544 3.1489134" fill="#000"/><path d="m26.5137816 52.9516236c0-2.7210393-2.250083-4.9343149-5.0156959-4.9343149h-9.5903779l.0133825-.7749607c0-5.4022834-4.13153915-9.870126-9.44864514-10.5137323-.47234101 2.1202205-.72356682 4.32063-.72356682 6.578189 0 5.2730236 1.35832258 10.2393544 3.74831337 14.5791339h16.00089399c2.7656129 0 5.0156959-2.2132756 5.0156959-4.934315" fill="#fff"/><g fill="#000"><path d="m27.7303714 52.9516236c0-3.3808031-2.7957235-6.1311653-6.2322857-6.1311653h-8.3677051c-.2077327-5.7765985-4.65953913-10.506252-10.37386171-11.2626614-.05140092.1938897-.10006451.3886771-.14781566.5843622 5.59540092.7049448 9.92068207 5.4037795 9.92068207 11.0998897 0 .0592441-.0036498.1175906-.0045623.1765355h8.9729586c3.106258 0 5.6242949 2.4771811 5.6242949 5.5330393 0 3.0555591-2.5180369 5.5327402-5.6242949 5.5327402h-15.66146547c.11648848.2010708.23571428.4003464.35676498.5984252h15.30500459c3.4365622 0 6.2322857-2.7503622 6.2322857-6.1311654"/><path d="m27.1220765 52.9515039c0-3.055559-2.5180369-5.5327401-5.6242949-5.5327401h-8.9729586c.0009125-.0589449.0045623-.1172914.0045623-.1765355 0-5.6961102-4.32528115-10.395244-9.92068207-11.1001889-.04744701.1947874-.09276498.3904724-.13625807.5867559 5.31710599.6436063 9.44864514 5.1114488 9.44864514 10.513433l-.0133825.7749607h9.5903779c2.7656129 0 5.0156959 2.2135748 5.0156959 4.9343149 0 2.7210394-2.250083 4.9346142-5.0156959 4.9346142h-16.00089399c.11070967.2007717.22385253.4000473.33912442.598126h15.66146547c3.106258 0 5.6242949-2.4771811 5.6242949-5.5327402"/><path d="m1.21370046 35.4506189c2.40306913-9.428189 9.03074654-17.2062205 17.78988944-21.2752126l-.6633457.0751024c-8.54715203 4.18-14.99994466 11.9023779-17.36073729 21.2028031.05687558-.0008976.11344701-.004189.17062673-.004189.02129032 0 .0422765.0014961.06356682.0014961"/><path d="m37.082906 11.3599055.0772534-.2184252c-.9136589-.1148976-1.839788-.1902992-2.7750414-.2297953l-.0398433.2256063c.9227834.0377008 1.8361382.1113071 2.7376313.2226142"/><path d="m32.0383465 11.1200268-.1186175-.2226142c-1.6360092.0502677-3.2428202.2169291-4.8110046.4945984l.123788.2070551c1.5666636-.2719842 3.1713457-.4344567 4.8058341-.4790393"/><path d="m54.1154682 18.7369323c.0431889-.0568504.086682-.1131024.1304793-.1693543-3.5831613-2.9879371-7.8202397-5.2377166-12.4685254-6.5084725l-.3421659.1391339c4.7358802 1.245622 9.048083 3.5091653 12.680212 6.5386929"/><path d="m4.42403779 59.0828787h-.25092166c5.49989862 9.6747402 15.89079267 16.3091811 27.85777877 16.6374174l-.0018249-.2271024c-11.8577972-.3264409-22.13676493-6.8576535-27.60503221-16.410315"/><path d="m35.7380267 75.3906835.0030415.2271023c16.1812535-1.3353858 29.0737604-14.2185827 30.1127281-30.2231653h-.2308479c-1.035318 15.9049449-13.8055576 28.6672598-29.8849217 29.996063"/><path d="m39.747177 13.3330031c2.1290322.4661733 4.1768571 1.1453859 6.1185345 2.0160945l.152682-.0433858v.1137008c.620765.2824567 1.2317973.5828661 1.8300553.903622h.3677143l1.1633641-.1271653-.0964148.9470079c.4334102.2627086.8598249.5355905 1.2789401.8180472l3.0831429 1.1600473-.5958249.7031496c.0678249.0562519.1356498.1119055.2025622.1684567.2694747-.4329607.5575023-.8518583.8634747-1.2554961-3.6321291-3.0295276-7.9443318-5.2933701-12.680212-6.5386929l-2.0098065.8180472z"/><path d="m34.9010129 12.6349402-.0051705.0257322c.5626728.0341103 1.1213917.0828819 1.6755484.1460158l.511576-1.4466929c-.9014931-.1113071-1.8148479-.1849134-2.7376313-.2226142l-.2198986 1.2432283z"/><path d="m6.19308111 59.0828787h-1.76892166c5.46826728 9.5526615 15.74723505 16.0838741 27.60503225 16.410315l-.0112535-1.4948661c-10.9578248-.322252-20.5138341-6.226315-25.82485709-14.9154489"/><path d="m35.7187134 73.8924362.0191613 1.4981575c16.0796682-1.3288031 28.8499078-14.0908189 29.8849216-29.9957638h-1.5213456c-1.0331889 15.0626614-13.1562028 27.1804725-28.3827373 28.4976063"/><path d="m20.9936876 14.9487213-.1830968-.0245355.387788-.7629921h-2.0682028l-.1265253.0143622c-8.7591429 4.0689921-15.38682029 11.8470236-17.78988941 21.2752126.52282949.0026929 1.037447.0400945 1.54263595.1068189 2.47606451-9.333937 9.31542856-16.9512913 18.23729036-20.6088661"/><path d="m29.1112313 12.8339165.1018894-.071811.0346728.056252c.7080553-.0828819 1.4228019-.1442205 2.1442397-.1795276l.0188571-.5125512 1.0341014.1271654.1292627-.1271654-.5359079-1.0062519c-1.6344884.0445826-3.2391705.2070551-4.8058341.4790393l.8257604 1.3811654c.3494654-.0544567.7001475-.1035276 1.0529585-.146315"/><path d="m10.9467235 24.1240457c0 .2980157-.0048664.5948346-.0130783.8910551h.2308479c.008212-.2962205.0130783-.5930394.0130783-.8910551 0-9.476063-4.15343776-18.01499216-10.76317048-23.94957483-.04349309.05655118-.08516129.11489763-.12804608.17204724 6.55042396 5.88820472 10.66036866 14.36040949 10.66036866 23.77752759" mask="url(#a)" transform="translate(54.746544 19.182819)"/><path d="m64.1752065 43.3068646c0 .2980157-.0057789.5948346-.014295.8910551h1.5192166c.0085161-.2962205.0130784-.5930394.0130784-.8910551 0-9.4171181-4.1096406-17.8893229-10.6603687-23.7775276-.3053641.4087244-.5927834.8336063-.858 1.2743465 6.1468203 5.611433 10.0003687 13.6222519 10.0003687 22.5031811"/><path d="m54.5755521 19.1276142c.0428848-.0568504.0860737-.1137008.1295668-.170252-.1517696-.1313543-.3050599-.2609134-.4592627-.389874-.0437972.056252-.0872903.1125039-.1304792.1693543.1545069.1289606.3081013.2591181.4601751.3907717"/><path d="m.26509051.18045512c-.00905807.19987401-.02083355.3991496-.03381678.5984252h.2288671c.01298323-.1992756.02506065-.39855119.03411871-.5984252z" mask="url(#b)" transform="translate(65.391705 44.61589)"/><path d="m64.1015419 45.3947701h1.5213457c.0130783-.1992756.02494-.3985512.0340645-.5984252h-1.5192166c-.0097327.199874-.0225069.3991496-.0361936.5984252"/><path d="m53.7150885 20.3919669c.2667373-.4356535.5541567-.8569449.8604332-1.2644724-.1520738-.1316536-.3056682-.261811-.4601752-.3904725-.3056682.4036378-.594.8225355-.8631705 1.2557953.1557235.1313544.3096222.2648032.4629125.3991496"/><path d="m55.0329594 19.5293969c.0428848-.0571497.0842489-.1154961.1280461-.1720473-.1502488-.1349449-.3029308-.2677953-.455917-.4000472-.0434931.0565511-.086682.1134015-.1295668.1702519.1535944.1328504.3065806.2662992.4574377.4018426"/><path d="m.28831576.18045512c-.00543484.19987401-.01388903.3991496-.0229471.5984252h.22916904c.00905806-.1992756.01751225-.39855119.02294709-.5984252z" mask="url(#c)" transform="translate(65.391705 44.017465)"/><path d="m64.1609419 44.1979197c-.0057788.199874-.0133825.3994488-.0231152.5984252h1.5192166c.0091244-.1992756.0179447-.3985512.0231152-.5984252z"/><path d="m54.1748682 20.8035339c.2652166-.4407402.5523318-.8653229.858-1.2740473-.1508571-.1355433-.3038433-.2689921-.4574378-.4018425-.3059723.4072283-.5936958.8288189-.8604332 1.2644724.1548111.1355433.3077973.2728819.459871.4114174"/><path d="m.93242489.11426929c-.0781659.00149606-.15663595.00269292-.2344977.00598425-.45652535 2.1468504-.69801843 4.37089764-.69801843 6.64940158 0 5.24040948 1.2719447 10.19387398 3.52506912 14.57913388h.2460553c-2.26346544-4.3774803-3.5402765-9.3315433-3.5402765-14.57913388 0-2.28179528.24270968-4.5076378.70166821-6.65538583" mask="url(#d)" transform="translate(0 36.53715)"/><path d="m2.4723235 36.7287055c-.43371428-.0526614-.87442396-.0825827-1.32243318-.0825827-.07299539 0-.14477419.0038898-.21746543.0053859-.45895853 2.1474488-.70166821 4.3732913-.70166821 6.6553858 0 5.2475905 1.27681106 10.2016535 3.5402765 14.5791338h1.72603687c-2.38968664-4.3397795-3.74831337-9.3064094-3.74831337-14.5791338 0-2.2575591.25122581-4.4582677.72356682-6.578189"/><path d="m4.08944516 58.4843039h-.24818433c.10858064.2007717.21898617.4003465.33182488.5984252h.25092166c-.113447-.1980787-.22537327-.3976535-.33456221-.5984252"/><path d="m1.06393825 36.0494929c.04649806-.2004724.09661935-.399748.14704258-.5987244-.02113548 0-.04196903-.0014961-.06340645-.0014961-.05676387 0-.11262194.0032914-.16908387.004189-.05042323.199874-.10024258.4003465-.14704258.6020158.07759742-.0020945.15459096-.0053859.23249032-.0059843"/><path d="m2.60882488 36.1420992c.04775116-.1953858.0961106-.3904724.14751153-.5843622-.50518894-.0670236-1.01980646-.1044252-1.54263595-.1071181-.05048848.1989764-.10097696.398252-.14811981.5987244.02828571 0 .05596313-.0017953.08455299-.0017953.49454378 0 .98057143.0344095 1.45869124.0945512"/><path d="m5.83622488 58.4843039h-1.74671889c.10918894.2007717.22111521.4003465.33456221.5984252h1.76892166c-.12105069-.1980787-.2402765-.3973543-.35676498-.5984252"/><path d="m3.52509954 57.8860283c.10310599.2007717.20894931.4000473.31600922.5984252h.24818433c-.10797235-.1983779-.21442397-.3976535-.31813825-.5984252z"/><path d="m.93071945 36.6514189c.0425729-.2010709.08574967-.4021417.13224774-.6020158-.07789936.0005985-.1548929.0038898-.23249032.0059843-.0458942.199874-.08997678.4006457-.13254968.6020157.07729548-.0032913.15519484-.0044881.23279226-.0059842"/><path d="m5.49716129 57.8860283h-1.72603687c.10371429.2007717.21047005.4000473.3184424.5984252h1.74671889c-.11527189-.1983779-.22841474-.3976535-.33912442-.5984252"/><path d="m1.15001198 36.6460031c.44800922 0 .88841475.0302205 1.32243318.0825827.04349309-.1959842.08881106-.3916693.13625807-.5864567-.47781567-.0601417-.96414747-.0945511-1.45869125-.0945511-.02828571 0-.05626728.0017952-.08424885.0017952-.04683871.199874-.09033179.4009449-.13321659.6020158.0723871-.0014961.14447005-.0053859.21746544-.0053859"/><path d="m27.0154728 11.2360315-.6463134-1.0173228-2.9730414-1.01732287-2.1977696-.38149607v1.52598424l-3.2315668-1.27165353-4.0077512 2.67047243-2.1974654 1.9077795 4.007447.8901575 2.5712627-.2920315c2.7312442-1.3353858 5.6750875-2.3108189 8.7685714-2.8586771z"/><path d="m43.1744931 11.4903921 1.2926267-1.1444882-.6463133-.63582673 3.2318709-2.2892756-.5170507-.38149606 2.4559908-2.41614173 1.2926267-2.41644095h-2.9730414l-2.456295 1.14448819-2.8437788 2.92510237-.9051428-.63582678-.387788.38149607-2.3270323 4.32392122-.3874839-.1271653h-.5170507l-.3263502.9227716c1.5763963.1980788 3.1178157.5077638 4.6169585.9176851z"/><path d="m11.8781751 10.878622.7746636-4.38137003-.6463134.25462992h-.5170506l.1289585-2.5436063-.5170507-.63582677-.387788-1.01732284-1.16336409-.76299212v.89015748l-2.58525345-2.28897638-1.16336406-.12746457-5.55890322.76329134 2.58525345 1.14448819 1.55145622.50866142 1.16336406.50866142-.90514286.63582677 1.29293088 1.27165354 3.49039631 2.03494488-1.42219355.50866142.38809217.50866142.25852535 1.27165354.7676682 1.44190547c.34611981-.0104724.69315209-.0176535 1.04200919-.0176535.4772074 0 .9510691.0122677 1.423106.0320157" mask="url(#e)" transform="translate(22.506912 .033213)"/><path d="m35.1597207 56.7642504-.6463133-20.7294488v-3.3062992l-.2588295-1.5262835v-2.161811h.2588295l.1292626 1.3988189.9045346-.1271654v.3814961l-.3874839 1.7806142.6463134 1.9074803 1.0341014-.1271654.1569401 1.3386772c.8047742-1.0538268 1.9422857-1.8449449 3.2616774-2.2183622l.0717788-.2648032-2.4562949-2.6707716.1295668-.1271654 1.2926267-.5086614v-.3814961l-3.1029124-3.3065984.7758802-.6358268-1.0341014-1.3988189.1292626-.1271653 2.5855577 1.1444882.3874838-.7629921.6466175 1.0173228 2.9730415 3.0522677.775576-.5086614.1292627.1271653.3150968 1.7815119c.2071244-1.7333386.8896313-3.3362205 1.9206912-4.6713071l-.0380184-.0353071.6463134-1.0173229-4.3952351-1.6534488.3877881-.6358267-.1292627-.1271654-4.7830231-.1271654v-.5086614l.3877881-.381496 1.6804147-.3814961.7758802-.2543307-.5170507-.6358268v-.381496l2.5852535.381496h.7758801l2.0678987.6358268.1295668-1.0173228 2.9733456 1.9074803 1.1633641 1.0173228.5170507-.7629921.3540276.6965669c.6679078-.2282992 1.3686636-.3886772 2.0946636-.4682677.2052995-.4141102.4282396-.8159528.6651705-1.2079213l-.1408203-.2920315.0504885-.0598425c-.7962581-.6603622-1.6259723-1.2824252-2.487318-1.8631968l-1.3120921-.4931024.033152-.3246457c-.4702119-.2851496-.9483318-.5595275-1.4346636-.8201417h-1.8300553v-.903622c-.0510967-.0230394-.1015852-.0472756-.152682-.070315l-3.854765 1.1011024-.5170506-1.0173229-3.1026083 1.6531496h-.5170507l-.3877881-.5086614 1.4218894-1.7803149 1.4221936-1.1444882-.5170507-.25463-.0663041-.0649291c-1.0401844-.2277008-2.09953-.4036378-3.1756037-.526315l-.1192258.3369134-1.0341014 2.2892756-1.0344055 1.5259843v.381496l-.3874839.5086615-.1295668-.1268662 1.029235-5.0611811c-.6402304-.0388976-1.2844148-.0607401-1.9340737-.0607401-.5264793 0-1.0499171.0131653-1.5700093.0385984l-.1104055 3.0483779h-.2588295l-1.7747004-2.8688504c-.0456222.0053859-.0912443.0101733-.1368664.0155591l-.8026452.5640157-.2503133-.4177007c-2.4614655.3838897-4.828341 1.0517322-7.0644332 1.9685196l5.5044608.7384567.1295668.2543307-.2585253.6358268v.3814961l.9048387.6358267 1.5511521 1.9077796-.1292627.1271653-3.1023041-1.5259842-.7758802-.5089607-.1292627.1274646.2588295.8901575-.2588295.2543307-2.9730415-.636126-5.4293364 1.5262835-.1295668.2543307.7758802.7629921-.1292627.1271654-2.1977696.7629921-1.163364 1.0173228-1.1633641 5.214378h.1292627l1.2926267-.8904567 3.4903963-2.9248032 1.2926268-.7629921.387788 1.2716536 1.2926267-.5086615 2.844083-1.9074803.387788.7626929h.1292626l1.1633641-.6358267h1.2926267l1.5514562-.3814961 2.1974655.6358268v.1271653l-2.4559908.1274646-.6463134.5086614.5167466.1271654.3880921.381496-.1292626.1271654-3.1026083 1.3988189-1.4218894 1.0173228-1.2926268 2.2892756.9048388.6358268-1.9389401 3.1794331v1.1444881l.9048387 3.9424252 3.7486175-4.1967559.2588295-.6358267 1.0337972-2.797937.7758802.6358267h.2585253l1.0341014-1.2716535.5170507-2.797937.3880922-.2543307.6463134.8901574 1.2926267-1.3988189.1292627.1271654-.1292627 4.4510866.2585253 19.2031654.2585254 12.717433.0900276 11.7656378c.3135761.0089764.6280645.0152599.9440738.0152599.9291705 0 1.8483041-.0424882 2.7567926-.1211811l-.0419724-3.2662047z"/><path d="m37.2563917 37.6137764 1.1347742 2.1091496h.1295668l.387788-2.4161417v-1.7806142l.9048387-.5086614.061742-.228c-1.2150691.5550393-2.16553 1.5729606-2.6187097 2.8242677"/><path d="m53.2778765 22.5187402-.3573733.0260315c-.6904147.0502677-1.3580184.1825196-1.99247.3862834l.132.2594173 2.3267281 2.1618111.775576-3.0519685-.3835299-.7968032c-.1219632.2285984-.2402765.4592913-.3509862.6953701z"/><path d="m45.0917475 31.9123701.4096866-.2013701.1289585.1271654.5173549 3.3065984 2.5855576 3.0519685h.2582212l.1292626-3.5606299-.5170507-4.578252.9048388-.3817953-1.4218894-2.4161417-1.3993825-1.3000788c-1.0444424 1.3967245-1.6624701 3.1148032-1.6624701 4.9573544 0 .3339212.0270691.6654488.0669125.9951811"/><path d="m44.4445217 31.5947559c-.0173364-.223811-.0279816-.4494173-.0279816-.6777165 0-2.0175906.6773364-3.8783937 1.8175852-5.3783465l-.4364516-.4054331c-1.0307557 1.3350867-1.7135668 2.9382678-1.9203871 4.6713071l.201954 1.1432914z"/><path d="m40.0721281 34.0632598.1864424-.6884881c-1.3193917.3734173-2.4569032 1.1645354-3.2613733 2.2183622l.1073641.9161889c.6590875-1.1262362 1.7083963-1.9990393 2.9675668-2.446063"/><path d="m52.8757023 21.9479323c.1785346-.3802992.3731889-.7519213.5800092-1.1154646l-.3160092-.6564724c-.2369309.3919685-.4601751.793811-.6651705 1.2079212-.726.0792914-1.4267558.2399685-2.0946636.4682678l.2728203.5373858c.7068387-.2330866 1.4510875-.3853858 2.2230138-.4416378"/><path d="m37.1045917 36.509263.1231797 1.0517323.0285899.0526614c.4531797-1.2513071 1.4036405-2.2692284 2.6187097-2.8242677l.1970875-.726189c-1.2591705.4470236-2.3084792 1.3198268-2.9675668 2.446063"/><path d="m52.8757023 21.9479323c-.7719263.056252-1.5161751.2085512-2.2230138.4416378l.2755576.5415748c.6344516-.2037638 1.3017511-.3360158 1.9921659-.3862835l.3573733-.0260315.1499447-.3201575c.1110138-.2357795.229023-.4667716.3512903-.6950708l-.3233088-.6711339c-.2068203.3635433-.4014746.7351654-.5800092 1.1154646"/><path d="m44.4166009 30.9171291c0 .2282992.0106452.4539055.0279816.6777166l.2810322.4975905.3661936-.180126c-.0398433-.3297322-.0669124-.6612598-.0669124-.9951811 0-1.8425511.6180276-3.5603307 1.66247-4.9573543l-.4531797-.4212913c-1.1402489 1.5002519-1.8175853 3.3610551-1.8175853 5.3786456"/><path d="m41.4351346 12.198389.3421659-.1391339c-1.499447-.4099212-3.0405623-.7199055-4.6172627-.917685l-.0772535.2184252c1.4842397.1834173 2.9371521.4661732 4.3523503.8383937"/><path d="m1.02658894.37234375c-.3120553 0-.62289401-.00542891-.93282028-.01387389l.00152074.22891918c.30962212.00844498.61985254.01387389.93129954.01387389.93586175 0 1.86229493-.04101846 2.77899539-.11732485l-.00304147-.22891918c-.91548387.07630639-1.84100461.11732485-2.77595392.11732485" mask="url(#f)" transform="translate(31.935484 75.135575)"/><path d="m32.9620728 11.1084066c.4635207 0 .9243042.0120642 1.3832627.0310654l.0398433-.2274111c-.4720369-.0199061-.9462028-.0322719-1.423106-.0322719-.3488571 0-.6958894.0072385-1.0423134.0177947l.1186176.2243951c.3071889-.0084449.614682-.0135722.9236958-.0135722"/><path d="m27.2325733 11.5990961-.123788-.2070552c-3.0934839.5475591-6.0373272 1.5229922-8.7685715 2.8586772l.6633456-.0754016c2.5767374-1.1968504 5.3368756-2.0738425 8.2290139-2.5762204"/><path d="m32.4449613 12.253474-1.0341014-.1271653-.0188571.5125511c.5200921-.025433 1.0435299-.0385984 1.5700092-.0385984.649659 0 1.2938433.0218425 1.9340737.060441l.0048664-.0257323-.7755761-.2543307.2198987-1.2432284c-.4589586-.0188504-.9194378-.0308189-1.3832627-.0308189-.3087097 0-.6165069.0050866-.9236959.0134646l.5359079 1.006252z"/><path d="m46.0173135 15.305652-.1515716.0440345c.0507252.0229221.1008465.0473522.1515716.0705759z"/><path d="m29.2123493 12.7621953-.1011484.0723855c.0449884-.0057305.0905807-.0102546.1355691-.0156835z"/><path d="m39.747177 13.3330031-.3217881-.3165669 2.0098065-.8180472c-1.4155023-.3722205-2.8681106-.6549764-4.3523502-.8383937l-.5112719 1.4466929c1.0760737.1223779 2.1354193.2986142 3.1756037.5263149"/><path d="m32.9620728 74.0135575c-.3160092 0-.6304977-.0062835-.9440737-.0152599l.0112534 1.4948662c.3099263.0086771.620765.0137638.9328203.0137638.9349493 0 1.8604701-.040693 2.7759539-.1160945l-.0194654-1.4984567c-.9084885.0786929-1.827318.1211811-2.7564885.1211811"/><path d="m21.1983484 14.1611039-.387788.7629922.1830967.0245354c2.2363964-.9167874 4.6029678-1.5846299 7.0647374-1.9685197l-.8257604-1.3811653c-2.8921382.5023779-5.6525806 1.37937-8.2290138 2.5765196l.1265253-.0143622z"/><path d="m49.3794968 16.1958394-1.1633641.1271653h-.3677143c.4863318.2606142.9644516.5349922 1.4346636.8201418z"/><path d="m53.6452866 19.1208819-3.083447-1.159748c.8613457.5804724 1.6913641 1.2028346 2.4876222 1.8631968z"/></g></g></svg>