<svg height="82" viewBox="0 0 66 82" width="66" xmlns="http://www.w3.org/2000/svg" xmlns:xlink="http://www.w3.org/1999/xlink"><mask id="a" fill="#fff"><path d="m.06450968.29498819h4.11751797v19.74263471h-4.11751797z" fill="none"/></mask><mask id="b" fill="#fff"><path d="m0 81.7751808h65.9239631v-81.7751808h-65.9239631z" fill="none"/></mask><g fill="none" fill-rule="evenodd" transform=""><path d="m48.2392175 61.9424672c0-2.4639336 2.0146728-4.4682436 4.4913456-4.4682436h1.2114194c-.0903318-.4463099-.1359539-.9010922-.1359539-1.3592029 0-3.4651808 2.6287465-6.3990259 6.0479723-6.8302067.8087281-1.6151882 1.9705715-2.9910332 3.3599171-4.06369-2.0326175-13.3538967-12.6452351-23.9436974-26.0520553-26.0145757l1.262212 6.3784502h2.4350046c.3531152 0 .6390138.2841255.6390138.6351218v5.8304723l1.3723134.7764281c.0051705.0030258.0091244.0078671.0142949.010893.0422765.0254169.0824239.0544649.1177051.0889594.0009124.0009077.002129.0015129.0030414.0024206.0352811.0350997.0650876.0753432.0915484.1180074.0069954.0114982.0130784.0236015.0194655.0357048.0179447.0335867.0328479.0683838.0444055.1052989.0039539.0130111.0088203.0257196.0121659.0393358.0121659.0487159.0203779.0989446.0203779.1518967v3.6667011 14.2017343h.4142488c.3528111 0 .6387097.284428.6387097.6354243 0 .3509964-.2858986.6351218-.6387097.6351218h-.4142488v4.316952h.4142488c.3528111 0 .6387097.2844281.6387097.6354244v9.8412103h.6998433c.3525069 0 .6384055.2844281.6384055.6354244v1.722h3.4858341c.2153364 0 .4166821.1080221.5343871.2871513.1180092.1791291.1371705.4054612.051401.6021402l-1.3382489 3.0554834c-.1015852.2317786-.3315207.3815572-.5854839.3815572h-.4583502v3.1635055c4.6908664-2.5504723 8.6536037-6.2646789 11.4970783-10.7486568h-6.0406728c-2.4766728 0-4.4913456-2.00431-4.4913456-4.4682435" fill="#5cd8ff"/><path d="m17.9829318 73.995862c-.274341 0-.5182673-.1742878-.6055576-.4332989l-1.0310599-3.0554834c-.0656959-.1939557-.0331521-.4072767.086682-.5730922.1201383-.1661181.3132719-.2644576.5185714-.2644576h3.4858341v-1.722c0-.3509963.2862028-.6354244.6387097-.6354244h.6560461v-9.8412103c0-.3509963.2858986-.6354244.6387097-.6354244h.4142488v-4.3166494h-.4142488c-.3528111 0-.6387097-.284428-.6387097-.6354244 0-.3509963.2858986-.6354243.6387097-.6354243h1.0286267v-14.2017343-3.6667011c0-.0529521.0079078-.1031808.0203779-.1518967.0033456-.0136162.0079078-.0263247.0121659-.0393358.0115576-.0369151.0261567-.0717122.0444055-.1052989.0063871-.0121033.0121659-.0242066.0194655-.0357048.0261566-.0426642.0559631-.0829077.0912442-.1180074.0012166-.0009077.0024332-.0015129.0033456-.0024206.034977-.0344945.0751244-.0632399.1177051-.0889594.0048663-.0030259.0088203-.0078672.0142949-.010893l1.3723134-.7764281v-5.8304723c0-.3509963.2862027-.6351218.6387097-.6351218h2.8303963l1.3157419-6.6495646c-6.367023.4989595-12.201788 2.9075203-16.927023 6.6477491 2.1308571.6069816 3.6963041 2.5583395 3.6963041 4.8703764 0 2.7949594-2.2856682 5.0691734-5.0953825 5.0691734h-6.86399997c-2.26498618 4.2987971-3.54879263 9.1867233-3.54879263 14.3678524 0 12.2730702 7.19430415 22.9052325 17.6074009 27.9435425v-3.8382657z" fill="#5cd8ff"/><path d="m30.7923152 42.1423417c0-1.3343911 1.0912811-2.4203616 2.4328756-2.4203616 1.3412903 0 2.4325714 1.0859705 2.4325714 2.4203616v6.8683321h-4.865447z" fill="#00b8fb"/><path d="m16.0405853 29.5456893c0-2.0687601-1.645742-3.7571734-3.7023871-3.8500664-2.51499544 2.2070406-4.67109682 4.8092546-6.36823967 7.7089077h6.19183407c2.138765 0 3.8787927-1.7310775 3.8787927-3.8588413" fill="#fff"/><path d="m17.2571751 29.5456893c0-2.3120369-1.565447-4.2630923-3.696-4.8700738-.200129.1582509-.3978249.3189225-.5936958.4820148 2.0928387.3779262 3.6814009 2.1967527 3.6814009 4.388059 0 2.4654465-2.008894 4.4640074-4.4870876 4.4640074h-6.5367373c-.11131797.2003099-.22020277.4021328-.32726267.605166h6.86399997c2.8097143 0 5.0953825-2.274214 5.0953825-5.0691734" fill="#000"/><path d="m16.6488802 29.5456893c0-2.1913063-1.5885622-4.0101328-3.6814009-4.388059-.212295.1764059-.4221567.3561402-.6292811.5379926 2.0566451.092893 3.7023871 1.7813063 3.7023871 3.8500664 0 2.1277638-1.7400277 3.8588413-3.8787927 3.8588413h-6.19183407c-.11740093.20031-.23206452.4021329-.34490323.6051661h6.5367373c2.4781936 0 4.4870876-1.9985609 4.4870876-4.4640074" fill="#000"/><path d="m64.0043972 45.7330037c-1.0739447.9525314-1.965705 2.1220148-2.5892073 3.4654834l-.1502489.3234612-.3570691.0263248c-2.9590507.2190701-5.2769585 2.7047896-5.2769585 5.6592103 0 .6039557.0961106 1.200952.2862027 1.7752546l.2624793.7942805h-2.8407373c-1.8057235 0-3.2747558 1.461476-3.2747558 3.2576088 0 1.7964354 1.4690323 3.2579114 3.2747558 3.2579114h6.7706267c2.5861659-4.5208929 4.0658433-9.7465018 4.0658433-15.3097933 0-1.0974686-.0587005-2.181321-.1709309-3.2497417" fill="#fff"/><g fill="#000"><path d="m49.4558074 61.0347181c0-2.1335129 1.7385069-3.8630775 3.8830507-3.8630775h2.0003778c-.2043871-.6181771-.3166175-1.2781107-.3166175-1.964369 0-3.3105609 2.5749125-6.0207971 5.8402397-6.2622583.7120092-1.5337934 1.7649677-2.8760517 3.056682-3.9420517-.0298065-.2308708-.0623502-.4605313-.0973272-.6895867-1.3893456 1.0726568-2.5511889 2.4485019-3.359917 4.06369-3.4192259.4311809-6.0479724 3.3650259-6.0479724 6.8302067 0 .4581107.0456221.912893.1359539 1.3592029h-1.2114193c-2.4766728 0-4.4913457 2.00431-4.4913457 4.4682436s2.0146729 4.4682435 4.4913457 4.4682435h6.0406728c.1271336-.2003099.2518341-.4021328.3744055-.605166h-6.4150783c-2.1445438 0-3.8830507-1.7295646-3.8830507-3.8630775"/><path d="m50.0641023 61.0347181c0-1.7964354 1.4690323-3.2579115 3.2747558-3.2579115h2.8407373l-.2624793-.7942804c-.1900921-.574-.2862027-1.1712989-.2862027-1.7752546 0-2.9541181 2.3179078-5.4398377 5.2769585-5.6589078l.3570691-.0263247.1502489-.3234612c.6235023-1.3437713 1.5152626-2.5129521 2.5892073-3.4654834-.0255484-.2441845-.0535299-.4877639-.0848571-.7301329-1.2917143 1.066-2.3446728 2.4082583-3.056682 3.9420517-3.2653272.2414612-5.8402397 2.9516974-5.8402397 6.2622583 0 .6862583.1122304 1.3461919.3166175 1.964369h-2.0003778c-2.1445438 0-3.8830507 1.7295646-3.8830507 3.8630775s1.7385069 3.8630775 3.8830507 3.8630775h6.4150783c.1207465-.2006126.2393641-.4021329.3555484-.6051661h-6.7706267c-1.8057235 0-3.2747558-1.461476-3.2747558-3.2579114"/><path d="m26.9067097 80.8954207c-2.1743503-.4045535-4.2726636-1.0233358-6.2727373-1.833048v.3313284c1.9720921.7942804 4.03847 1.4033801 6.1778433 1.8067233.0291981-.1013654.0611336-.2030333.094894-.3050037"/><path d="m40.3489023 80.9444694c2.1749585-.4974465 4.2677972-1.209727 6.2560092-2.1126347v-.3349594c-2.0174101.9219705-4.1455299 1.6460516-6.358811 2.1462214.0364977.1010627.0711705.2015203.1028018.3013727"/><path d="m.23069585 48.8909114c0-5.1212177 1.18982489-9.9652693 3.30699539-14.2761697h-.20043318c-2.13602765 4.3414613-3.33710599 9.2175867-3.33710599 14.368155 0 13.2579778 7.94980646 24.7031808 19.35624883 29.8664575v-.3349594c-11.28478339-5.1381623-19.12570505-16.4692915-19.12570505-29.6234834"/><path d="m65.2242415 43.3804509c.066-.0375203.1310875-.0765535.1973917-.1128634-2.4721106-13.9366716-13.8213733-24.8635499-28.0092443-26.7773875l.0279816.1425166c14.1382949 1.9247306 25.3990507 12.8298229 27.783871 26.7477343"/><path d="m47.8825134 77.8811188v.3370775c5.6434562-2.8621328 10.3519631-7.2952767 13.5427742-12.7154465h-.3081014c-3.145189 5.2646421-7.7381198 9.5728192-13.2346728 12.378369"/><path d="m30.8098645 16.3997277.0276774-.1394908c-7.5541106.4805018-14.4232811 3.5033063-19.7519447 8.2163395h.2205069c5.2681383-4.6286126 12.0451521-7.5951365 19.5037604-8.0768487"/><path d="m32.9620424 81.4537469c-1.618977 0-3.2096682-.1189152-4.7656866-.3446421-.037106.1025756-.0757328.206059-.1076682.3068192 1.5906912.2357122 3.2178801.359166 4.8733548.359166 2.0925346 0 4.1391429-.1972841 6.1249217-.5697638-.034977-.1010627-.0669125-.2015203-.1064517-.3028856-1.9511059.360679-3.962129.5513063-6.01847.5513063"/><path d="m32.9620424 81.4537469c2.056341 0 4.0673641-.1906273 6.01847-.5513063-.1745806-.4496384-.4042119-.8992768-.6815944-1.322893-1.7348572.2983469-3.5177696.4559926-5.3368756.4559926-1.3996866 0-2.7774747-.0938007-4.1284977-.2723247-.2636959.4408635-.4750783.8974613-.6371889 1.3458893 1.5560184.2257269 3.1467096.3446421 4.7656866.3446421"/><path d="m63.8223346 44.3133144c.4449677-.3434317.9133548-.6550923 1.4018156-.9328635-2.3845161-13.9179114-13.645576-24.8230037-27.7835668-26.7477343l.3296959 1.6660221c13.4068202 2.0711809 24.0191336 12.6609816 26.0520553 26.0145757"/><path d="m13.5610535 24.675555c4.7249308-3.7402288 10.56-6.1487897 16.9267189-6.6480517l.3220921-1.6278967c-7.4589124.4820148-14.2356221 3.4482362-19.5037604 8.0768488h.8555669c.4857235 0 .9541106.0723173 1.3993825.1990996"/><path d="m1.74890876 48.9828059c0-5.1811291 1.28380645-10.0690553 3.54879262-14.3678524h-1.76010138c-2.11717051 4.3105978-3.30699539 9.1546495-3.30699539 14.2758672 0 13.1541918 7.84092166 24.485321 19.12600919 29.6234834v-1.5879558c-10.4134009-5.0383099-17.60770504-15.6704723-17.60770504-27.9435424"/><path d="m47.8825134 76.2514672v1.6297121c5.496553-2.8055498 10.0894838-7.1140295 13.2346728-12.378369h-1.7375945c-2.8434746 4.4842805-6.806212 8.1981845-11.4970783 10.7486569"/><path d="m27.4752221 79.5546148c-2.3848203-.4224059-4.675659-1.1162288-6.8411889-2.046369v1.554369c2.0000737.8094096 4.0980829 1.4281918 6.2727373 1.8327453.1472074-.4450996.3363871-.8977638.5684516-1.3407453"/><path d="m39.6390221 79.3176317c.2494009.4393506.4492258.887476.6070784 1.3256163 2.2132811-.5004724 4.3414009-1.2245535 6.358811-2.1462214v-1.5891661c-2.1913825 1.0638819-4.5260184 1.878738-6.9658894 2.4097712"/><path d="m10.0012811 25.6868782h-.21351151c-2.30087558 2.2654391-4.26962212 4.8643248-5.82472812 7.7176827h.19952074c1.55571429-2.8575941 3.52993549-5.4561771 5.83871889-7.7176827"/><path d="m12.3380765 25.6957439c-.0590046-.0027232-.1167926-.0087749-.1764055-.0087749h-2.1603595c-2.30878339 2.261203-4.28300459 4.8600886-5.83871887 7.7176827h1.80724424c1.697447-2.8996532 3.85324424-5.5021698 6.36823963-7.7089078"/><path d="m3.84171705 34.0096664h-.19982488c-.10401844.20031-.2049954.4024354-.30445162.6051661h.20012904c.09976036-.2027307.20043317-.4048561.30414746-.6051661"/><path d="m10.6361585 25.0818635c.2205069-.2048487.4437512-.4066716.6700369-.6051661h-.2205069c-.224765.1987971-.4470968.4003174-.666083.6051661z"/><path d="m5.62502488 34.0096664h-1.78321659c-.10371428.20031-.20469124.4024354-.30414746.6051661h1.76010138c.10705991-.2030332.2159447-.4048561.32726267-.6051661"/><path d="m12.9673272 25.1575092c.195871-.1630922.393871-.3237638.5936958-.4820147-.4452718-.1267823-.9136589-.1987971-1.3990783-.1987971h-.8555668c-.2262857.1984945-.44953.4003174-.670341.6051661h1.5259078c.2752535 0 .5438157.0284428.8053825.0756457"/><path d="m3.96319355 33.4045004c-.10918894.2003099-.21624885.4024354-.32148387.605166h.20012903c.10493088-.2027306.21168664-.4048561.32087558-.605166z"/><path d="m10.0012811 25.6868782c.2089493-.2045461.420636-.4060664.6347558-.605166h-.216553c-.2132074.1990996-.4239816.4006199-.63171431.605166z"/><path d="m12.1617926 25.6868782c.0593088 0 .1174009.0063543.1764056.0087749.2071244-.1818524.4169861-.3615867.6289769-.5382952-.2615668-.0472029-.5298249-.0756457-.8053825-.0756457h-1.5256037c-.2144239.1990996-.4261106.4006199-.6350599.605166z"/><path d="m5.96983687 33.4045004h-1.80724424c-.10918894.2003099-.2159447.4024354-.32087558.605166h1.78321659c.11283871-.2030332.2275023-.4048561.34490323-.605166"/><path d="m.06450968 20.0376229h.29715207c2.43682949-4.5729373 3.82039631-9.783417 3.82039631-15.30979338 0-1.50323247-.10462672-2.98256089-.30232258-4.43284133-.06721659.04024354-.13564977.07746126-.20195391.11891513.1800553 1.38219926.27342857 2.79132841.27342857 4.22224354 0 5.57146124-1.40789862 10.81583024-3.88670046 15.40147604" mask="url(#a)" transform="translate(61.741935 44.254886)"/><path d="m64.175176 48.9828059c0 5.5632915-1.4793732 10.7885978-4.0655391 15.3097934h1.6968387c2.4788018-4.5859484 3.8867004-9.8300148 3.8867004-15.4017786 0-1.4309152-.0933732-2.8397417-.2734285-4.221941-.5003226.3140812-.9723595.6714317-1.4155023 1.0641845.1125345 1.0684207.1709308 2.1522731.1709308 3.2497417"/><path d="m61.4699364 64.8976745c-.115576.2030332-.2332811.4045535-.3528111.6051661h.3084056c.117705-.20031.2332811-.4021329.3470322-.6051661z"/><path d="m65.3265672 44.0117601c.0661239-.0396383.1307381-.0813948.1974658-.1195202-.032609-.2087823-.0670297-.4169595-.1035639-.6245314-.0661238.0360074-.130738.0753432-.196258.1128635.0356283.20969.0709548.4199852.1023561.6311881"/><path d="m59.3795005 65.5028406h1.7375944c.11953-.2006126.2372351-.4021329.3528111-.6051661h-1.716c-.1225714.2033358-.2472719.4048561-.3744055.6051661"/><path d="m63.9194488 45.0028406c.4422305-.3649151.9127466-.695941 1.4078987-.9909594-.0319355-.2115056-.0672166-.4214982-.103106-.6314908-.4884609.2777712-.956848.5894317-1.4018157.9328635.0346728.2293579.0672166.4590184.097023.6895867"/><path d="m61.8064452 64.2925085c-.1097973.2030332-.2223318.4045535-.3363871.605166h.3026267c.1122304-.2006125.2226359-.4021328.3309124-.605166z"/><path d="m65.4190142 44.6689402c.0658219-.0414539.1337574-.0789741.2004852-.1189151-.0298917-.2199779-.0606891-.4393506-.0945059-.6578155-.0670296.038428-.1316438.0798819-.1977677.1195203.032911.2184649.0634065.4372325.0917884.6572103"/><path d="m64.0043972 45.7330037c.4428387-.3927528.9151798-.7501033 1.4151982-1.0641845-.0282857-.2196753-.0593088-.4387454-.0921567-.6569078-.4951521.2950185-.9656682.6260443-1.4078986.9909594.0313272.2423691.0593087.4859484.0848571.7301329"/><path d="m60.109576 64.2925085c-.1161843.2030332-.2348018.4048561-.3555484.605166h1.716c.1140553-.2006125.2265899-.4021328.3363871-.605166z"/><path d="m46.6050332 73.0881129v3.8198081c.4312811-.2093874.8573917-.4281549 1.2774193-.6563025v-3.1635056z"/><path d="m19.3564922 73.0881129v3.8382657c.4203318.2033358.8467465.3969889 1.2774193.5818672v-4.4201329z"/><path d="m20.6339724 79.0624937c-.4303687-.1742878-.8564793-.3564428-1.2774194-.5482804v.3349594c.4209401.1906273.8470507.3712694 1.2774194.5443469z"/><path d="m46.6050332 78.4969055v.3349594c.4306728-.1957712.8564792-.4003173 1.2774193-.6136383v-.3370775c-.4203318.2145313-.8467465.4190775-1.2774193.6157564"/><path d="m46.6050332 76.9077697v1.5891661c.4306728-.196679.8570875-.4012251 1.2774193-.6157565v-1.6297121c-.4200276.2284501-.8461382.4469151-1.2774193.6563025"/><path d="m19.3564922 76.9263786v1.5879557c.4209401.1918377.8470507.3739926 1.2774193.5482805v-1.554369c-.4306728-.1848783-.8570875-.3785314-1.2774193-.5818672"/><path d="m19.9952323 71.817476h-.9446821l-.602212-1.7849373h3.2361291c-.3525069 0-.6387097-.284428-.6387097-.6354243v-.6354244h-3.4858341c-.2056037 0-.3984332.0986421-.5185714.2644576-.1198341.1658155-.1523779.3791365-.0869862.5730923l1.0313641 3.0557859c.0872903.2587085.3309124.4329963.6055576.4329963h.765235v-.6351217c0-.3512989.2858986-.6354244.6387097-.6354244"/><path d="m45.5544774 70.0324177h3.149447l-.781659 1.7849373h-.678553c.3528111 0 .6387097.284428.6387097.6354243v.6354244h.4583503c.2539631 0 .4838986-.1497786.5854838-.3815572l1.3382489-3.055786c.0860737-.1963764.0666083-.4227085-.051401-.6018376-.117705-.1794318-.3187465-.2871513-.5340829-.2871513h-3.4858341v.6351218c0 .3512989-.2862028.6354243-.6387097.6354243"/><path d="m47.2436212 71.817476h-27.2482673c-.352811 0-.6387097.2841255-.6387097.6354244v.6351217h1.2774194 25.9708479 1.2777235v-.6351217c0-.3512989-.2862027-.6354244-.6390138-.6354244"/><path d="m44.2161069 67.6749934h.6995392v1.0868782h1.2774193v-1.7223026c0-.3509963-.2858986-.6351218-.6387096-.6351218h-.6995392v.6351218c0 .3512989-.2862028.6354244-.6387097.6354244"/><path d="m22.3232682 67.6749934h.6557419c-.3525069 0-.6387096-.2841255-.6387096-.6354244v-.6351218h-.655742c-.352811 0-.6387097.2841255-.6387097.6351218v1.7223026h1.2774194z"/><path d="m22.3232682 68.7618111h-1.2774194v.6354243c0 .3509963.2858987.6351218.6387097.6351218h23.8697973c.352811 0 .6387096-.2841255.6387096-.6351218v-.6354243h-1.2774193z"/><path d="m23.6178415 57.1983587h.4142488c-.3525069 0-.6387097-.2841255-.6387097-.6354244v-.6351218h-.4142488c-.3528111 0-.6387097.2841255-.6387097.6351218v9.8415129h1.2774194z"/><path d="m43.1628747 57.1983587h.4142488v9.2060885h1.2774194v-9.8415129c0-.3509963-.2858987-.6351218-.6384056-.6351218h-.4142488v.6351218c0 .3512989-.2862028.6354244-.6390138.6354244"/><path d="m33.5976802 53.9198716c-1.7521936 0-3.4049309.7280147-4.5819816 2.0079409h-4.3450507v.6351218c0 .3512989-.2858986.6354244-.6384055.6354244h5.273917c.1900922 0 .3701475-.0841181.4918065-.2296605.9419447-1.1298451 2.3267281-1.7782805 3.7997143-1.7782805 1.472682 0 2.8577696.6484354 3.7994101 1.7782805.121659.1455424.3017143.2296605.4918065.2296605h5.273917c-.3525069 0-.6384055-.2841255-.6384055-.6354244v-.6351218h-4.3450507c-1.1770507-1.2799262-2.829788-2.0079409-4.5816774-2.0079409"/><path d="m23.6178415 66.4043867h-1.2774194v.6354244c0 .3509963.2858986.6351217.6387097.6351217h21.2370968c.3525069 0 .6384055-.2841254.6384055-.6351217v-.6354244h-1.2774194z"/><path d="m33.6193659 63.7395077c-1.5548018 0-2.8200553-1.2587453-2.8200553-2.8058523 0-1.5471071 1.2652535-2.8058524 2.8200553-2.8058524 1.555106 0 2.8203594 1.2587453 2.8203594 2.8058524 0 1.547107-1.2652534 2.8058523-2.8203594 2.8058523m0-6.7699926c-2.1971613 0-3.9846359 1.7779779-3.9846359 3.9641403 0 2.1855571 1.7874746 3.9641402 3.9846359 3.9641402 2.1974654 0 3.9849401-1.7785831 3.9849401-3.9641402 0-2.1861624-1.7874747-3.9641403-3.9849401-3.9641403"/><path d="m42.5242866 51.610921v4.3169521h1.2774194v-4.3169521h-.6387097z"/><path d="m42.5242866 56.5630554c0 .3509963.2858987.6354243.6387097.6354243.3528111 0 .6387097-.284428.6387097-.6354243v-.6354244h-1.2774194z"/><path d="m24.6707696 51.610921h-.0243318-1.2530876v4.3169521h1.2774194z"/><path d="m24.0321816 57.1983587c.3525069 0 .6387096-.2841255.6387096-.6354244v-.6351218h-1.2774193v.6351218c0 .3512989.2858986.6354244.6387097.6354244"/><path d="m43.8017668 51.610921h.4142489c.3525069 0 .6387096-.2841254.6387096-.6354243 0-.3509963-.2862027-.6351218-.6387096-.6351218h-.4142489v.6351218z"/><path d="m24.0076673 50.3426745v-.0024206h-1.0286267c-.3528111 0-.6387097.284428-.6387097.6354243s.2858986.6351218.6387097.6351218h.4142488v-.6351218c0-.3428265.2731244-.6199926.6143779-.6330037"/><path d="m43.1628747 51.610921h.6390138v-.6354243c0 .3512989-.2862028.6354243-.6390138.6354243"/><path d="m24.0076673 50.9756177v-.6330037c-.3412535.0133137-.6143779.2901771-.6143779.6330037v.6354244h1.2530876c-.3528111 0-.6387097-.2844281-.6387097-.6354244"/><path d="m31.4719023 41.1147697c0-1.3343911 1.0912811-2.4203616 2.4328756-2.4203616 1.3412903 0 2.4325714 1.0859705 2.4325714 2.4203616v6.8683321h-4.865447zm-.6387097 8.1388783h6.1431705c.3525069 0 .6384056-.2841255.6384056-.6351218v-7.5037565c0-2.035476-1.6639908-3.6909077-3.7099908-3.6909077s-3.710295 1.6554317-3.710295 3.6909077v7.5037565c0 .3509963.2858987.6351218.6387097.6351218z"/><path d="m26.7461198 50.3404354h1.2774194v-13.5666125h-1.2774194z" mask="url(#b)"/><path d="m39.8253733 50.3404354h1.2774193v-13.5666125h-1.2774193z" mask="url(#b)"/><path d="m24.0401806 32.2806601c.0117755-.0366804.0262684-.0718451.0440826-.105494-.0178142.0336489-.0323071.0685105-.0440826.105494" mask="url(#b)"/><path d="m24.1987935 32.0192586c.0344207-.0342552.0742762-.0633571.1168491-.0891243-.042271.0257672-.0821265.0545659-.1168491.0891243" mask="url(#b)"/><path d="m24.1040516 32.1398918c.0259665-.0424401.0555561-.0827583.0908826-.1182261-.0350245.0351647-.0646142.0754828-.0908826.1182261" mask="url(#b)"/><path d="m24.0076673 32.4719185c0-.0521408.0081522-.1027658.0202297-.1521783-.0120775.0491093-.0202297.0994312-.0202297.1521783" mask="url(#b)"/><path d="m28.0235088 36.1383985v.6354244h11.8018341v-.6354244c0-.3509963.2858986-.6354243.6384055-.6354243h-13.0792535c.3531152 0 .6390139.284428.6390139.6354243" mask="url(#b)"/><path d="m43.4928442 31.9301646c.0425729.0257672.0821265.054869.117151.0891243-.0353264-.0345584-.07488-.0636602-.117151-.0891243" mask="url(#b)"/><path d="m41.4674959 33.1069402h1.0569124v-.2656679l-.4306728-.2438819c-.0590046.2907823-.3166175.5095498-.6262396.5095498" mask="url(#b)"/><path d="m43.7812673 32.3197705c.0120774.0494124.0202297.1000375.0202297.1521782 0-.052747-.0081523-.1030689-.0202297-.1521782" mask="url(#b)"/><path d="m43.6137429 32.0216052c.0353264.0354678.0649161.0757859.0908825.1182261-.0262683-.0427433-.055858-.0830614-.0908825-.1182261" mask="url(#b)"/><path d="m43.7248175 32.1752568c.0178142.033649.0323071.0688137.0440826.1054941-.0117755-.0369835-.0262684-.0718451-.0440826-.1054941" mask="url(#b)"/><path d="m25.7159724 32.5975114-.430977.243882v.2656679h1.0569124c-.3093179 0-.567235-.2190702-.6259354-.5095499" mask="url(#b)"/><path d="m28.0235088 36.7737018v-.6354243c0-.3509963-.2858987-.6351218-.6390139-.6351218h-2.0995299v1.2705461h1.4611244z" mask="url(#b)"/><path d="m39.8252516 36.1383985v.6354244h1.2774194 1.4215852v-1.2708487h-2.0602949c-.3528111 0-.6387097.284428-.6387097.6354243" mask="url(#b)"/><path d="m26.9806783 25.9477956h2.7169493c-.1910046 0-.3722764-.0847233-.4933271-.2317786-.121659-.1467528-.1703226-.3398008-.1335208-.5261919l.1012811-.5125757h-2.8303963c-.3525069 0-.6384055.2841255-.6384055.6351218v5.8304723l1.2774193-.7228708z" mask="url(#b)"/><path d="m39.0001604 25.716138c-.1210507.1467528-.3023226.2317786-.4933272.2317786h2.3221659v4.4721771l1.2774193.7228709v-5.8304723c0-.3509964-.2862027-.6354244-.6390138-.6354244h-2.4353087l.1012811.5128782c.0371059.1863912-.0118618.3794391-.1332166.5261919" mask="url(#b)"/><path d="m27.0614599 31.8363336-1.3455484.7612989c.0590046.2904797.3166175.5092472.6259355.5092472h15.1255576c.3096221 0 .567235-.2187675.6262396-.5092472l-1.3455483-.7612989z" mask="url(#b)"/><path d="m24.1955392 32.0216097c.0009058-.0009095.0021135-.0015158.0033213-.0024252-.0012078.0009094-.0024155.0015157-.0033213.0024252" mask="url(#b)"/><path d="m24.0845862 32.175323c.0063406-.0121257.0123793-.0242515.0193238-.035771-.0072464.0115195-.0129832.0236453-.0193238.035771" mask="url(#b)"/><path d="m25.7031982 31.8363336v-.6935203l-1.3726176.776428c-.0051705.0030259-.0091244.0078672-.0142949.010893.0967189-.0583985.2089493-.0938007.33-.0938007z" mask="url(#b)"/><path d="m33.5890728 26.6811963-6.6085161 3.7387159v1.4163911h.0809032l6.843318-3.8718524 6.843318 3.8718524h.0809032v-1.4163911l-6.6085162-3.7387159c-.1955668-.111048-.4355391-.111048-.6314101 0" mask="url(#b)"/><path d="m43.6107622 32.0190937c.0009058.0009095.0021136.0015157.0030194.0024252-.0009058-.0009095-.0021136-.0015157-.0030194-.0024252" mask="url(#b)"/><path d="m43.1628747 31.8363336c.1213548 0 .2335852.0354022.33.0938007-.0051706-.0030258-.0088203-.0078671-.014295-.010893l-1.3723133-.776428v.6935203z" mask="url(#b)"/><path d="m43.7052304 32.1396731c.0069445.0115194.0129832.0236452.0193239.0357709-.0063407-.0121257-.0123794-.0242515-.0193239-.0357709" mask="url(#b)"/><path d="m24.0280147 32.3198434c.0033213-.0133383.0078504-.0263735.0120775-.0394087-.0042271.0133383-.0087562.0260704-.0120775.0394087" mask="url(#b)"/><path d="m43.769071 32.2804649c.0042271.0130352.0087561.0257673.0120774.0394088-.0033213-.0136415-.0078503-.0263736-.0120774-.0394088" mask="url(#b)"/><path d="m28.0235088 50.9756177c0 .3509963-.2858987.6354244-.6390139.6354244h13.0792535c-.3525069 0-.6384055-.2844281-.6384055-.6354244v-.6354243h-11.8018341z" mask="url(#b)"/><path d="m25.2849954 50.3402841v-13.5666125h-.6387097c-.352811 0-.6387097-.2841255-.6387097-.6354244v14.2020369h.024636z" mask="url(#b)"/><path d="m28.0235088 50.9756177v-.6354243h-1.2774194-1.4611244-1.2527834c.3525069 0 .6387096.284428.6387096.6354243v.6354244h2.7136037c.3531152 0 .6390139-.2844281.6390139-.6354244" mask="url(#b)"/><path d="m24.0320024 50.3402841h-.0244568v.0024252c.0084542-.0003032.0160026-.0024252.0244568-.0024252" mask="url(#b)"/><path d="m24.0321816 50.3402841c-.0085162 0-.0161198.0021181-.024636.0024207v.6330037c0 .3509963.2858986.6351218.6390138.6351218h.0243318v-.6351218c0-.3512989-.2862027-.6354244-.6387096-.6354244" mask="url(#b)"/><path d="m43.1628747 36.7737018h-.6387097v13.5666126h.6387097.6390138v-14.2020369c0 .3512989-.2862028.6354243-.6390138.6354243" mask="url(#b)"/><path d="m39.8252516 50.3402841v.6354244c0 .3509963.2858986.6351218.6387097.6351218h2.0602949v-.6351218c0-.3512989.2858986-.6354244.6387097-.6354244h-.6387097-1.4215852z" mask="url(#b)"/><path d="m43.8017668 50.9756177v-.6354243h-.6390138c.3531152 0 .6390138.284428.6390138.6354243" mask="url(#b)"/><path d="m42.5242866 50.9756177v.6354244h.6387097c.3528111 0 .6387097-.2844281.6387097-.6354244s-.2858986-.6354243-.6387097-.6354243c-.352811 0-.6387097.284428-.6387097.6354243" mask="url(#b)"/><path d="m42.1063576 31.8363336v.6354243c0 .0429668-.0045622.0850259-.0127742.1258746l.4306728.2435793v.2656679 2.396155h.6387097c.3528111 0 .6387097.284428.6387097.6354243v-3.6667011c0-.0520442-.008212-.1028782-.0203779-.1518966-.0033456-.0136163-.008212-.0263248-.0121659-.0393358-.0115576-.0366126-.0264608-.0717122-.0444055-.1052989-.0063871-.0118008-.0124701-.0242067-.0194655-.0357048-.0261567-.0423617-.0559631-.0826052-.0915484-.1180074-.0009124-.0009078-.002129-.0015129-.0030414-.0024207-.034977-.0341919-.0751245-.0632398-.1177051-.0889594-.0967189-.0583985-.2086452-.0938007-.33-.0938007z" mask="url(#b)"/><path d="m24.6464074 35.5030952h.6387097v-2.396155-.2656679l.4309769-.2438819c-.0085161-.0405461-.0127742-.0826052-.0127742-.1258745v-.6351218h-1.0569124c-.1210507 0-.2335853.0354022-.33.0938007-.0428848.0257196-.0827281.0547676-.1177051.0889594-.0012166.0009078-.002129.001513-.0030415.0024207-.0358894.0354022-.0653917.0756458-.0915484.1180074-.0072995.0114981-.0130783.0236015-.0194654.0357048-.0179447.0335867-.0328479.0686863-.0444055.1052989-.0042581.013011-.0088203.0257195-.0121659.0390332-.0121659.049321-.0203779.100155-.0203779.1518967v3.6670037c0-.3512989.2858986-.6354244.6387097-.6354244" mask="url(#b)"/><path d="m24.6464074 36.7737018h.6387097v-1.2705461h-.6387097c-.3528111 0-.6387097.2841255-.6387097.6351218 0 .3512989.2858986.6354243.6387097.6354243" mask="url(#b)"/><path d="m43.1628747 35.5030952h-.6387097v1.2705461h.6387097c.352811 0 .6390138-.2841254.6390138-.6351217 0-.3512989-.2862028-.6354244-.6390138-.6354244" mask="url(#b)"/><path d="m40.8288774 31.8363336h1.2774194v-.6935203l-1.2774194-.7228709z" mask="url(#b)"/><path d="m26.9806783 31.8363336v-1.4163912l-1.2774193.7228709v.6935203z" mask="url(#b)"/><path d="m26.9806783 31.8363336h-1.2774193v.6354243c0 .0429668.0042581.0850259.0127742.1258746l1.3455484-.7612989z" mask="url(#b)"/><path d="m42.0936138 32.5975114c.008212-.0405461.0127742-.0826051.0127742-.1258745v-.6354244h-1.2774193-.0809033z" mask="url(#b)"/><path d="m34.1020175 6.33956827 1.9784793 9.99825093c.4464885.042059.8905438.092893 1.3318617.1525018l-2.3586636-11.92207377h-.9516774-.9513733l-2.3130414 11.69211067c.4355391-.0278376.8735115-.0490184 1.3136129-.0599114z" mask="url(#b)"/><path d="m39.0322175 24.6771889-1.2619078-6.3784502c-.4425346-.0683837-.8884148-.1258745-1.3367281-.1754981l1.2965806 6.5539483z" mask="url(#b)"/><path d="m30.4742074 24.6771889 1.3300368-6.7233948c-.4410138.0160369-.8802027.0396384-1.3163502.0738303l-1.3157419 6.6495645z" mask="url(#b)"/><path d="m36.1080829 16.478599c.4470968.0424401.8911521.0945809 1.3324701.1546034l-.0282857-.1424776c-.441318-.0597194-.8853733-.1106476-1.3318618-.1527846z" mask="url(#b)"/><path d="m32.1238728 16.3386801.0273733-.1382336c-.4401014.0109132-.8780737.0321332-1.3136129.0600225l-.0276774.1397493c.4358433-.0281924.8735115-.0503219 1.313917-.0615382" mask="url(#b)"/><path d="m37.770188 18.2987085-.3296958-1.6660222c-.441318-.060214-.8853733-.1119557-1.3324701-.1543173l.3254378 1.6448413c.4483134.0496236.8941936.1071144 1.3367281.1754982" mask="url(#b)"/><path d="m31.8042747 17.9537336.3196589-1.6151882c-.4404055.010893-.8780737.0329815-1.3142212.0611218l-.321788 1.6278966c.4361475-.0341918.8753364-.0577933 1.3163503-.0738302" mask="url(#b)"/><path d="m30.4742074 24.6771889h-1.3020553l-.1012811.5125757c-.0368019.1866937.0118617.3794391.1332166.5264944.1213548.1467528.3023225.2314761.4933271.2314761h8.8093272c.1910046 0 .3722765-.0847233.4933272-.2314761.121659-.1470553.1703226-.3398007.1335208-.5264944l-.1012811-.5125757h-1.3023595z" mask="url(#b)"/><path d="m34.1020175 3.14501771c.1782304 0 .3409493.05718819.4747742.15250185h.1642396v-2.66212546c0-.35099631-.2862027-.63542436-.6390138-.63542436-.3525069 0-.6387097.28442805-.6387097.63542436v2.66212546h.1639355c.1341291-.09531366.2965438-.15250185.4747742-.15250185" mask="url(#b)"/><path d="m34.1020175 3.14501771c-.1782304 0-.3406451.0572942-.4747742.15278453h.9495484c-.1338249-.09549033-.2965438-.15278453-.4747742-.15278453" mask="url(#b)"/><path d="m33.4634295 3.45101993v-.1534096h-1.3437235c-.3528111 0-.6390138.28412546-.6390138.63512177s.2862027.63542436.6390138.63542436h1.0310599l.1472074-.74495941c.0234193-.14130628.0824239-.2674834.1654562-.37217712" mask="url(#b)"/><path d="m34.9060313 3.82316679.1475116.74495941h1.0310599c.352811 0 .6390138-.28442805.6390138-.63542435 0-.35099631-.2862028-.63512178-.6390138-.63512178h-1.3437235v.1534096c.0830322.10469372.1420368.23087085.165152.37217712" mask="url(#b)"/><path d="m34.7409097 3.45101993v.48171217c0 .35099631-.2858986.63542436-.6390138.63542436h.9516774l-.1475115-.74495941c-.0231153-.14130628-.0821199-.2674834-.1651521-.37217712" mask="url(#b)"/><path d="m33.4634295 3.93279262v-.48171218c-.0830323.10469373-.1420369.23087085-.1654562.37217712l-.1472074.74495941h.9513733c-.3528111 0-.6387097-.28442804-.6387097-.63542435" mask="url(#b)"/><path d="m33.6261727 3.2974893h-.1627432v.15369396c.0464981-.05911306.1017523-.11004124.1627432-.15369396" mask="url(#b)"/><path d="m34.7397152 3.4513043v-.15369397h-.1630452c.060991.04365273.1165471.09427776.1630452.15369397" mask="url(#b)"/><path d="m33.927376 3.93279262h.0030415zm.8135945 0v-.48171218c-.0468387-.05930627-.1028018-.11014022-.1642396-.15371217h-.9492443c-.0614378.04357195-.1170967.0944059-.1639354.15371217v.48171218c0 .35099631.2858986.63542435.6384055.63542435.352811 0 .6390138-.28442804.6390138-.63542435z" mask="url(#b)"/><path d="m33.6202479 75.8116325h-.3059723c-2.9243779 0-4.8085715 1.7734391-5.8390231 3.742952.4492258.0795793.9024056.1485683 1.3583226.2087823.0714747-.1192177.1420369-.2390406.2214194-.3549299.7256958-1.0611587 2.0536037-2.3262583 4.2592811-2.3262583h.3059723c1.9517143 0 3.4903963.7845978 4.5737696 2.3320074.0374101.0535572.0693456.1104428.1049309.1652103.4501382-.0774612.8966267-.1652103 1.3400737-.2617343-.1207465-.2127159-.2524424-.4233137-.3969124-.6296753-.9185254-1.3123026-2.6396959-2.8763542-5.6218618-2.8763542" mask="url(#b)"/><path d="m39.0868728 81.2052354c.4233733-.0795793.8443134-.1652103 1.2619078-.2608265-.0316313-.0995499-.066-.2000074-.1024977-.3010702-.418811.0947085-.8409677.1803395-1.2658617.2590111.0395392.1013653.0717788.2021255.1064516.3028856" mask="url(#b)"/><path d="m26.9067097 80.8954207c-.0337604.1019704-.0656959.2036383-.094894.3050037.4227649.0795793.8482672.1521992 1.276811.2157417.0319355-.1010628.0705622-.2045462.1076682-.3071218-.4328018-.0626347-.8625622-.1340443-1.2895852-.2136236" mask="url(#b)"/><path d="m28.8334839 79.7632458c-.4559171-.0602141-.9087927-.1289004-1.3583226-.2084797-.2320645.4429815-.4212442.8956457-.5684516 1.3407453.427023.0792768.8567834.1506864 1.2895852.2136237.1621106-.4484281.3734931-.9050259.637189-1.3458893" mask="url(#b)"/><path d="m38.9805429 80.9023498c.4245898-.0786716.8467465-.1643026 1.2655576-.2590111-.1578526-.4381402-.3576775-.8862656-.6070784-1.3256162-.443447.096524-.8899355.1842731-1.3400737.2617343.2773825.4236163.5070138.8735572.6815945 1.322893" mask="url(#b)"/></g></g></svg>