<?xml version="1.0" encoding="UTF-8"?>
<svg width="68px" height="74px" viewBox="0 0 68 74" version="1.1" xmlns="http://www.w3.org/2000/svg" xmlns:xlink="http://www.w3.org/1999/xlink">
    <!-- Generator: sketchtool 50.2 (55047) - http://www.bohemiancoding.com/sketch -->
    <title>E131D140-C00F-4146-9324-02C94C6C8992</title>
    <desc>Created with sketchtool.</desc>
    <defs>
        <polygon id="path-1" points="0.236447489 0.122545228 19.312 0.122545228 19.312 31.7515577 0.236447489 31.7515577"></polygon>
        <polygon id="path-3" points="0.249115982 0.0264987552 51.3236365 0.0264987552 51.3236365 14.4315353 0.249115982 14.4315353"></polygon>
    </defs>
    <g id="Future-Project-Desktop" stroke="none" stroke-width="1" fill="none" fill-rule="evenodd">
        <g id="Future-Schools" transform="translate(-1210.000000, -1695.000000)">
            <g id="future-schools/locations" transform="translate(1.000000, 1523.000000)">
                <g id="Group-169" transform="translate(1209.000000, 172.000000)">
                    <g id="Group-3" transform="translate(48.127854, 10.142606)">
                        <mask id="mask-2" fill="white">
                            <use xlink:href="#path-1"></use>
                        </mask>
                        <g id="Clip-2"></g>
                        <path d="M19.2981826,30.2832257 C19.2981826,30.7754332 19.2851416,31.2645701 19.2637169,31.7515577 C19.2950776,31.1638564 19.3121553,30.5718564 19.3121553,29.9761718 C19.3121553,16.8020224 11.5154429,5.42997261 0.236447489,0.122545228 C0.240484018,0.183034855 0.243899543,0.244138589 0.247936073,0.304628216 C11.5110959,5.69066141 19.2981826,17.1044705 19.2981826,30.2832257" id="Fill-1" fill="#916AF9" mask="url(#mask-2)"></path>
                    </g>
                    <path d="M42.1543799,59.0399328 L31.6196584,59.0399328 C32.5902886,60.0074598 33.3584712,61.1853187 33.8416128,62.5053436 C34.9066356,62.1172274 36.0415215,61.9145718 37.1962795,61.9145718 C38.9447178,61.9145718 40.6406813,62.3819079 42.1124621,63.2373602 C42.3307452,62.9321485 42.5670374,62.6336921 42.8073662,62.3490531 L42.8079872,59.6119743 C42.7673114,59.2889535 42.4918959,59.0399328 42.1543799,59.0399328" id="Fill-4" fill="#5CD8FF"></path>
                    <path d="M10.0704584,57.9565544 C10.9050886,58.0431436 11.7217096,58.2212349 12.5051068,58.4896 L12.5051068,42.8276996 C11.7359927,44.3813925 10.9234082,45.8718324 10.0704584,47.2965627 L10.0704584,57.9565544 Z" id="Fill-6" fill="#5CD8FF"></path>
                    <path d="M2.84156164,40.4258315 C2.84156164,44.5698315 3.65631963,48.528678 5.13306849,52.1562133 C12.7229863,42.5574 17.7723744,28.537317 19.2637169,12.8708108 C9.47792694,18.2556158 2.84156164,28.5879809 2.84156164,40.4258315" id="Fill-8" fill="#5CD8FF"></path>
                    <path d="M15.341421,36.2858539 C14.8688365,37.5389411 14.3686174,38.7619369 13.8457315,39.9529992 L13.8457315,59.0523685 C14.725074,59.4883851 15.5432475,60.0435386 16.2806904,60.6972564 L16.2797589,33.6553228 C15.9788822,34.5427087 15.6671379,35.420883 15.341421,36.2858539" id="Fill-10" fill="#5CD8FF"></path>
                    <path d="M17.6195452,59.2529975 C18.2445863,58.5906822 18.9562575,58.0177195 19.7384128,57.5522257 L19.7384128,19.637205 C19.1953443,22.9441759 18.4864676,26.1734622 17.6195452,29.2928232 L17.6195452,59.2529975 Z" id="Fill-12" fill="#5CD8FF"></path>
                    <path d="M42.1543799,35.3494008 L26.664042,35.3494008 C26.2985808,35.3494008 26.0029826,35.6423303 26.0029826,36.0031187 C26.0029826,36.0071104 26.0011196,36.010795 26.0011196,36.016322 L26.0011196,50.3575834 C26.0011196,50.3615751 26.0029826,50.3671021 26.0029826,50.372629 C26.0029826,50.7315751 26.2995123,51.0238905 26.664042,51.0238905 L42.1543799,51.0238905 C42.4918959,51.0238905 42.7673114,50.7724133 42.8079872,50.4536913 L42.8079872,35.9202141 C42.7673114,35.5999568 42.4918959,35.3494008 42.1543799,35.3494008" id="Fill-14" fill="#5CD8FF"></path>
                    <path d="M40.7662174,22.0219394 C39.6875324,22.0219394 38.6280986,22.406371 37.7040438,23.1356241 C37.5810849,23.231732 37.4345279,23.2799394 37.2857973,23.2799394 C37.1373772,23.2799394 36.9905096,23.2326531 36.8684822,23.1356241 C35.9425644,22.4054498 34.8831306,22.0219394 33.8044457,22.0219394 C33.4346374,22.0219394 33.1346922,21.7240971 33.1346922,21.3577817 C33.1346922,20.9920805 33.4346374,20.6963876 33.8044457,20.6963876 C35.0278247,20.6963876 36.2213954,21.0731427 37.2848658,21.7950266 C38.3511306,21.0731427 39.5437699,20.6963876 40.7662174,20.6963876 C41.1369571,20.6963876 41.4369023,20.9930017 41.4359708,21.3577817 C41.4359708,21.7240971 41.1369571,22.0219394 40.7662174,22.0219394 M30.4771032,15.7119809 C30.106674,15.7156656 29.8036237,15.4208938 29.7998977,15.0554996 C29.7961717,14.6907195 30.0933224,14.3901137 30.4628201,14.386429 C31.4815781,14.3759892 32.4773589,14.6726033 33.372537,15.2504788 C34.2568475,14.6557154 35.2461078,14.3400639 36.2633132,14.32901 C36.6331215,14.3250183 36.9361717,14.6191759 36.9398977,14.9854913 C36.9436237,15.3511925 36.6474046,15.6517983 36.2766648,15.6545618 C35.4032219,15.6637734 34.5487196,15.9852589 33.8044457,16.5837071 C33.6814868,16.6816573 33.5346192,16.7304788 33.3858886,16.7317071 C33.2393315,16.7341635 33.0915324,16.6881054 32.968884,16.5919975 C32.2103269,16.0070598 31.3499251,15.7033834 30.4771032,15.7119809 M42.1544731,11.7264207 L26.6641352,11.7264207 C26.2983635,11.7264207 26.0030758,12.0196573 26.0030758,12.3795245 C26.0030758,12.3850515 26.0009023,12.388122 26.0009023,12.393649 L26.0009023,26.6661303 C26.0009023,26.6707361 26.0030758,26.6753419 26.0030758,26.6784124 C26.0030758,27.0410432 26.299295,27.3330515 26.6641352,27.3330515 L42.1544731,27.3330515 C42.491989,27.3330515 42.7670941,27.0824954 42.8080804,26.761317 L42.8080804,12.2984622 C42.7670941,11.9772838 42.491989,11.7264207 42.1544731,11.7264207" id="Fill-16" fill="#5CD8FF"></path>
                    <path d="M62.4925589,52.8215071 C61.6510977,51.7415983 60.8385132,50.6082622 60.0560475,49.423034 L60.0560475,59.4962456 C60.9487416,58.3386523 61.7622575,57.1184199 62.4885224,55.843532 L62.4885224,52.8310257 C62.4906959,52.8261129 62.4925589,52.8251917 62.4925589,52.8215071" id="Fill-18" fill="#5CD8FF"></path>
                    <path d="M58.7168201,47.2898689 C57.8629388,45.8651386 57.0494228,44.3728564 56.2821717,42.821927 L56.2821717,58.3069643 C57.1236329,58.544317 57.9371489,58.8676448 58.7168201,59.2689643 L58.7168201,47.2898689 Z" id="Fill-20" fill="#5CD8FF"></path>
                    <path d="M51.1668329,29.2871734 C50.3132621,26.2061942 49.6127689,23.0180531 49.071874,19.7522274 L49.071874,58.3237295 C49.7528055,58.1269079 50.4542301,57.9865842 51.1668329,57.9018373 L51.1668329,29.2871734 Z" id="Fill-22" fill="#5CD8FF"></path>
                    <path d="M54.9425717,57.9998797 L54.9425717,39.9521701 C54.1557589,38.1657303 53.425768,36.3105104 52.7581881,34.3929585 C52.674042,34.1479295 52.5905169,33.9029004 52.5063708,33.6581784 L52.5063708,57.8085851 C52.5740603,57.8067427 52.6448548,57.8067427 52.7131653,57.8067427 C53.4648913,57.8067427 54.2082338,57.8724523 54.9425717,57.9998797" id="Fill-24" fill="#5CD8FF"></path>
                    <path d="M60.142895,32.9439402 C59.9950959,32.9439402 59.8485388,32.8978822 59.7255799,32.7996249 C58.8005936,32.0703718 57.7420913,31.6850191 56.6624749,31.6850191 C56.2911142,31.6850191 55.9927215,31.3893261 55.9927215,31.0227037 C55.9927215,30.6563884 56.2911142,30.3603884 56.6624749,30.3603884 C57.8839909,30.3603884 59.0797352,30.7371436 60.142895,31.4590274 C61.2054338,30.7371436 62.4002466,30.3603884 63.6226941,30.3603884 C63.9931233,30.3603884 64.292137,30.6563884 64.292137,31.0227037 C64.292137,31.3893261 63.9921918,31.6850191 63.6245571,31.6850191 C62.5440091,31.6850191 61.4864384,32.0716 60.5605205,32.7996249 C60.4381826,32.896961 60.2897626,32.9439402 60.142895,32.9439402 M66.5721553,40.4259237 C66.5721553,28.3163303 59.6283927,17.7825378 49.472484,12.5082722 C50.9315342,28.5803967 56.1209589,42.91521 64.0682648,52.6703137 C65.6803927,48.90399 66.5721553,44.7658241 66.5721553,40.4259237" id="Fill-26" fill="#5CD8FF"></path>
                    <path d="M8.72989589,49.4285917 C7.94867215,50.6156622 7.13608767,51.7474631 6.29555799,52.8233801 L6.29555799,54.6850481 C6.87278174,55.8048739 7.51583196,56.8860108 8.21911963,57.9241602 C8.38896438,57.9134133 8.55911963,57.9042017 8.72989589,57.9008241 L8.72989589,49.4285917 Z" id="Fill-28" fill="#5CD8FF"></path>
                    <path d="M64.4174557,54.1742946 C66.1550265,50.402444 67.1992457,46.2559876 67.3914466,41.8942863 C67.1595014,46.2262033 66.0826795,50.3358133 64.323063,54.0671328 C64.3547342,54.1030581 64.3857845,54.1386763 64.4174557,54.1742946" id="Fill-30" fill="#000000"></path>
                    <g id="Group-34" transform="translate(5.899543, 59.271237)">
                        <mask id="mask-4" fill="white">
                            <use xlink:href="#path-3"></use>
                        </mask>
                        <g id="Clip-33"></g>
                        <path d="M28.1250795,13.8915195 C16.9016639,13.8915195 6.97149041,8.4195112 0.911727854,0.0264987552 C0.689408219,0.0535195021 0.468641096,0.0879095436 0.249115982,0.130282988 C6.33402922,8.76740332 16.4480201,14.4316274 27.8757461,14.4316274 C36.9032895,14.4316274 45.1111068,10.8971295 51.1609333,5.15522075 C51.2118557,4.97805062 51.2655726,4.80180166 51.3236365,4.62831618 C45.3132438,10.3628556 37.1364767,13.8915195 28.1250795,13.8915195" id="Fill-32" fill="#000000" mask="url(#mask-4)"></path>
                    </g>
                    <path d="M0.609515982,40.1187776 C0.609515982,27.4098149 7.86595434,16.378595 18.5040731,10.8507029 C18.5059361,10.8255245 18.5077991,10.800039 18.5093516,10.7748606 C7.60637443,16.2867859 0.124511416,27.5083793 0.124511416,40.4258315 C0.124511416,45.141873 1.12401826,49.6306946 2.92089498,53.6994664 C3.060621,53.537956 3.20158904,53.3798232 3.33945205,53.2155494 C1.58418265,49.1995909 0.609515982,44.771873 0.609515982,40.1187776" id="Fill-35" fill="#000000"></path>
                    <path d="M3.53808037,55.0181095 C3.69488402,55.3349892 3.85727671,55.6484913 4.02370594,55.9595369 L4.02339543,54.6815784 C4.00041826,54.6349062 3.97650959,54.5888481 3.95353242,54.5421759 C3.81597991,54.7024581 3.67718539,54.8605909 3.53808037,55.0181095" id="Fill-37" fill="#000000"></path>
                    <path d="M62.8988822,56.7574166 L62.8988822,56.8983544 C62.9491836,56.8688772 63.0022795,56.8433917 63.0532018,56.8145286 C63.3081242,56.3708357 63.553421,55.9210017 63.7881607,55.4650266 C63.7533845,55.4266448 63.7182977,55.3897983 63.683211,55.3511095 C63.4332566,55.8267361 63.1715032,56.2956075 62.8988822,56.7574166" id="Fill-39" fill="#000000"></path>
                    <path d="M5.36408219,58.2136813 C5.56684018,58.1642456 5.77115068,58.1212581 5.9767032,58.0834905 C5.76711416,57.7641544 5.56280365,57.4411336 5.36408219,57.1144282 L5.36408219,58.2136813 Z" id="Fill-41" fill="#000000"></path>
                    <path d="M3.95350137,54.5422785 C3.97627857,54.5890641 3.99997917,54.6352341 4.02306417,54.6820197 L4.02306417,54.4619427 C3.99997917,54.4890291 3.97658637,54.5151921 3.95350137,54.5422785" id="Fill-43" fill="#000000"></path>
                    <path d="M5.36408219,54.6851095 L5.36408219,57.1145203 C5.56280365,57.4412257 5.76711416,57.7639394 5.9767032,58.0832755 C6.40830137,58.0040556 6.84642009,57.9521635 7.28764384,57.9242216 C6.58435616,56.8860722 5.94099543,55.8049353 5.36408219,54.6851095" id="Fill-45" fill="#000000"></path>
                    <path d="M1.91005479,40.4258315 C1.91005479,28.5879809 8.54642009,18.2556158 18.33221,12.8708108 C18.3961735,12.200512 18.4533059,11.5268357 18.5039178,10.8507029 C7.86610959,16.378595 0.609671233,27.4098149 0.609671233,40.1187776 C0.609671233,44.771873 1.5840274,49.1995909 3.33960731,53.2155494 C3.63054795,52.8688855 3.91745205,52.5154664 4.20156164,52.1562133 C2.72481279,48.528678 1.91005479,44.5698315 1.91005479,40.4258315" id="Fill-47" fill="#000000"></path>
                    <path d="M59.1246648,60.0651552 C59.1578886,60.0887983 59.1926648,60.1112133 59.2258886,60.1348564 C59.897505,59.2603668 60.6818338,58.4786075 61.5571397,57.8049311 L61.5571397,55.8434705 C60.8308749,57.1183585 60.0173589,58.3385909 59.1246648,59.4961842 L59.1246648,60.0651552 Z" id="Fill-49" fill="#000000"></path>
                    <path d="M57.9714904,60.907005 C52.1228694,67.6542083 43.4458831,71.9373037 33.7752895,71.9373037 C23.3244037,71.9373037 14.0326228,66.9357021 8.21846758,59.2261917 C8.1399105,59.2243494 8.06197443,59.2188224 7.98341735,59.2188224 C7.58970046,59.2188224 7.19908858,59.2501419 6.81127123,59.2977353 C12.8710338,67.6907477 22.8012073,73.162756 34.0246228,73.162756 C43.0360201,73.162756 51.2127872,69.6340921 57.2231799,63.8995527 C57.5386502,62.9529054 57.9587598,62.0575361 58.4701571,61.226034 C58.3080749,61.1130382 58.1391616,61.0110963 57.9714904,60.907005" id="Fill-51" fill="#000000"></path>
                    <path d="M48.3759452,10.4472954 C48.4243836,11.1372456 48.4787215,11.8244324 48.5408219,12.5082415 C58.6967306,17.7825071 65.6408037,28.3162996 65.6408037,40.4258929 C65.6408037,44.7661004 64.7487306,48.9039593 63.1366027,52.670283 C63.5253516,53.1471378 63.921242,53.6123245 64.323032,54.0673784 C66.0826484,50.3357519 67.1594703,46.2261419 67.3914155,41.8942249 C67.4131507,41.4072373 67.4261918,40.9181004 67.4261918,40.4258929 C67.4261918,27.2471378 59.6387945,15.8333286 48.3759452,10.4472954" id="Fill-53" fill="#000000"></path>
                    <path d="M62.8988822,54.4599162 L62.8988822,56.7572938 C63.1715032,56.2957917 63.4332566,55.8269203 63.683211,55.3512938 C63.4202155,55.0586714 63.1587726,54.7617502 62.8988822,54.4599162" id="Fill-55" fill="#000000"></path>
                    <path d="M28.0708037,6.61031867 C28.0708037,6.24400332 27.7696164,5.94708216 27.4001187,5.94708216 C27.029379,5.94708216 26.7294338,6.24400332 26.7294338,6.61031867 L26.7294338,7.8667834 C27.1734521,7.7688332 27.6202648,7.67825228 28.0708037,7.5981112 L28.0708037,6.61031867 Z" id="Fill-57" fill="#000000"></path>
                    <path d="M20.1475306,3.02911784 L21.0507817,3.02911784 C21.4215215,3.02911784 21.7214667,2.7334249 21.7214667,2.36680249 L21.7214667,1.32466141 L22.1561699,1.32466141 L22.1561699,2.36680249 C22.1561699,2.7334249 22.4542521,3.02911784 22.8259233,3.02911784 L23.7297954,3.02911784 L23.7297954,8.66355768 C24.0611014,8.56100166 24.3945808,8.46427967 24.7299233,8.37154938 C24.8432566,8.33900166 24.957211,8.3073751 25.0714758,8.2760556 L25.0714758,5.03510124 L41.8764804,5.03510124 L41.8764804,7.99448714 C42.3304347,8.10257012 42.781284,8.21832946 43.2277863,8.34452863 L43.2277863,4.37370705 C43.2277863,4.34545809 43.2237498,4.31905145 43.2200237,4.29264481 L43.2200237,3.02911784 L44.1232749,3.02911784 C44.4927726,3.02911784 44.7930283,2.7334249 44.7930283,2.36680249 L44.7930283,1.32466141 L45.2268,1.32466141 L45.2268,2.36680249 C45.2268,2.7334249 45.5239507,3.02911784 45.8965534,3.02911784 L46.7948365,3.02911784 C46.7892475,3.06504315 46.7833479,3.09974025 46.7833479,3.13566556 C46.7833479,3.7233668 46.7892475,4.3113751 46.8007361,4.89754108 L46.8007361,9.57827137 C47.3289005,9.79443734 47.8502338,10.0231925 48.3644256,10.265151 C48.2433297,8.50174025 48.1638411,6.72052033 48.1337224,4.9227195 L48.1337224,2.36680249 C48.1337224,1.99925892 47.8353297,1.70448714 47.4627269,1.70448714 L46.5604073,1.70448714 L46.5604073,0.662346058 C46.5604073,0.295723651 46.2620146,3.07053942e-05 45.8906539,3.07053942e-05 L44.1183068,3.07053942e-05 C43.7469461,3.07053942e-05 43.4466904,0.295723651 43.4466904,0.662346058 L43.4466904,1.70448714 L42.5446813,1.70448714 C42.1736311,1.70448714 41.8727543,1.99925892 41.8727543,2.36680249 L41.8727543,3.70924232 L25.0658868,3.70924232 L25.0658868,2.36680249 C25.0658868,1.99925892 24.7674941,1.70448714 24.3961333,1.70448714 L23.4925717,1.70448714 L23.4925717,0.662346058 C23.4925717,0.295723651 23.193558,3.07053942e-05 22.8228183,3.07053942e-05 L21.0476767,3.07053942e-05 C20.6772475,3.07053942e-05 20.3779233,0.295723651 20.3779233,0.662346058 L20.3779233,1.70448714 L19.4749826,1.70448714 C19.1042429,1.70448714 18.8039872,1.99925892 18.8039872,2.36680249 L18.8039872,3.06289378 C18.8021242,3.08653693 18.7962247,3.11018008 18.7962247,3.1347444 C18.7962247,5.71307635 18.6959324,8.26223817 18.5096311,10.7748606 C19.0471105,10.5031178 19.593905,10.2464207 20.1475306,10.002927 L20.1475306,3.02911784 Z" id="Fill-59" fill="#000000"></path>
                    <path d="M30.502347,6.61031867 C30.502347,6.24400332 30.2030228,5.94708216 29.8325936,5.94708216 C29.4618539,5.94708216 29.1628402,6.24400332 29.1628402,6.61031867 L29.1628402,7.42401162 C29.6065479,7.3601444 30.0530502,7.30395353 30.502347,7.25728133 L30.502347,6.61031867 Z" id="Fill-61" fill="#000000"></path>
                    <path d="M32.9348219,6.61031867 C32.9348219,6.24400332 32.6345662,5.94708216 32.2650685,5.94708216 C31.8933973,5.94708216 31.5943836,6.24400332 31.5943836,6.61031867 L31.5943836,7.16209461 C32.0387123,7.13046805 32.4858356,7.10836017 32.9348219,7.09392863 L32.9348219,6.61031867 Z" id="Fill-63" fill="#000000"></path>
                    <path d="M40.2292037,6.61031867 C40.2292037,6.24400332 39.93019,5.94708216 39.5594502,5.94708216 C39.1887105,5.94708216 38.8878338,6.24400332 38.8878338,6.61031867 L38.8878338,7.42401162 C39.3380621,7.48910705 39.7848749,7.56310705 40.2292037,7.64570456 L40.2292037,6.61031867 Z" id="Fill-65" fill="#000000"></path>
                    <path d="M37.7976292,6.61031867 C37.7976292,6.24400332 37.4986155,5.94708216 37.1278758,5.94708216 C36.7580676,5.94708216 36.4571909,6.24400332 36.4571909,6.61031867 L36.4571909,7.16240166 C36.9067982,7.19433527 37.3533005,7.23609461 37.7976292,7.28553029 L37.7976292,6.61031867 Z" id="Fill-67" fill="#000000"></path>
                    <path d="M35.3651854,6.61031867 C35.3651854,6.24400332 35.0671032,5.94708216 34.6957425,5.94708216 C34.3256237,5.94708216 34.024747,6.24400332 34.024747,6.61031867 L34.024747,7.07458423 C34.4740438,7.07458423 34.9202356,7.08594523 35.3651854,7.1034473 L35.3651854,6.61031867 Z" id="Fill-69" fill="#000000"></path>
                    <path d="M35.3651854,7.18720833 L35.3651854,7.10348673 C34.9202356,7.08594213 34.4740438,7.07455353 34.024747,7.07455353 L34.024747,7.15211913 C34.4737333,7.15519713 34.9205461,7.16658573 35.3651854,7.18720833" id="Fill-71" fill="#000000"></path>
                    <path d="M34.6956493,9.47562324 C35.0179507,9.47562324 35.2846721,9.25239502 35.3495671,8.95301743 C34.9139324,8.93183071 34.4755032,8.92108382 34.0355215,8.91770622 C34.0870648,9.23366473 34.3631014,9.47562324 34.6956493,9.47562324" id="Fill-73" fill="#000000"></path>
                    <path d="M32.2650064,9.47562324 C32.5953808,9.47562324 32.8686228,9.23857759 32.9232712,8.92568963 C32.486705,8.93735768 32.0529333,8.95915851 31.6210247,8.98802158 C31.6989607,9.26866888 31.9554356,9.47562324 32.2650064,9.47562324" id="Fill-75" fill="#000000"></path>
                    <path d="M29.8325315,9.4764644 C30.104221,9.4764644 30.3361662,9.31645112 30.4414265,9.08658589 C30.0626137,9.12566606 29.6862849,9.17305461 29.3115087,9.22536664 C29.4344676,9.37737925 29.6204584,9.4764644 29.8325315,9.4764644" id="Fill-77" fill="#000000"></path>
                    <path d="M63.3606922,31.0227651 C63.3606922,30.6564498 63.0616785,30.3604498 62.6912493,30.3604498 C61.4684913,30.3604498 60.273989,30.737205 59.2114502,31.4590888 C58.1482904,30.737205 56.9522356,30.3604498 55.7310301,30.3604498 C55.3593589,30.3604498 55.0612767,30.6564498 55.0612767,31.0227651 C55.0612767,31.3893876 55.3593589,31.6850805 55.7310301,31.6850805 C56.8103361,31.6850805 57.8688384,32.0704332 58.7941352,32.7996863 C58.9167836,32.8976365 59.0636511,32.9440017 59.2114502,32.9440017 C59.3580073,32.9440017 59.5067379,32.8970224 59.6287653,32.7996863 C60.5549936,32.0716614 61.6125644,31.6850805 62.6931123,31.6850805 C63.060747,31.6850805 63.3606922,31.3893876 63.3606922,31.0227651" id="Fill-79" fill="#000000"></path>
                    <path d="M40.2292037,7.76619236 L40.2292037,7.64615036 C39.7848749,7.56335216 39.3380621,7.48917236 38.8878338,7.42422656 L38.8878338,7.53257216 C39.3380621,7.60059596 39.7848749,7.68031616 40.2292037,7.76619236" id="Fill-81" fill="#000000"></path>
                    <path d="M32.9348219,7.15952074 L32.9348219,7.09395934 C32.4858356,7.10811814 32.0387123,7.13058754 31.5943836,7.16229094 L31.5943836,7.22108074 C32.0390228,7.19245534 32.4855251,7.17060154 32.9348219,7.15952074" id="Fill-83" fill="#000000"></path>
                    <path d="M37.7976292,7.38795765 L37.7976292,7.28576805 C37.3533005,7.23621225 36.9067982,7.19435145 36.4571909,7.16234025 L36.4571909,7.25468025 C36.9067982,7.29007725 37.3533005,7.33532385 37.7976292,7.38795765" id="Fill-85" fill="#000000"></path>
                    <path d="M37.1278137,9.47802988 C37.3718685,9.47802988 37.58301,9.3477527 37.7000694,9.15418921 C37.301695,9.10510373 36.900526,9.06466224 36.4974941,9.03039502 C36.5890922,9.29064066 36.8353205,9.47802988 37.1278137,9.47802988" id="Fill-87" fill="#000000"></path>
                    <path d="M39.5593881,9.47586944 C39.6059635,9.47586944 39.6516073,9.47094464 39.6953881,9.46232624 C39.5329954,9.43154624 39.3699817,9.40230524 39.206347,9.37429544 C39.3094338,9.43770224 39.4299087,9.47586944 39.5593881,9.47586944" id="Fill-89" fill="#000000"></path>
                    <path d="M34.6956493,29.5746066 C34.3258411,29.5746066 34.0246539,29.8702996 34.0246539,30.236922 L34.0246539,32.4388058 C34.0246539,32.8054282 34.3258411,33.1011212 34.6956493,33.1011212 C35.06701,33.1011212 35.3650922,32.8054282 35.3650922,32.4388058 L35.3650922,30.236922 C35.3663342,29.8715278 35.06701,29.5746066 34.6956493,29.5746066" id="Fill-91" fill="#000000"></path>
                    <path d="M27.4000566,29.5746066 C27.0296274,29.5746066 26.7293717,29.8702996 26.7293717,30.236922 L26.7293717,32.4388058 C26.7293717,32.8054282 27.0296274,33.1011212 27.4000566,33.1011212 C27.7695543,33.1011212 28.0707416,32.8054282 28.0707416,32.4388058 L28.0707416,30.236922 C28.0707416,29.8715278 27.7695543,29.5746066 27.4000566,29.5746066" id="Fill-93" fill="#000000"></path>
                    <path d="M37.1278137,29.5746066 C36.758316,29.5746066 36.4571288,29.8702996 36.4571288,30.236922 L36.4571288,32.4388058 C36.4571288,32.8054282 36.7573845,33.1011212 37.1278137,33.1011212 C37.4985534,33.1011212 37.7975671,32.8054282 37.7975671,32.4388058 L37.7975671,30.236922 C37.7975671,29.8715278 37.4976219,29.5746066 37.1278137,29.5746066" id="Fill-95" fill="#000000"></path>
                    <path d="M32.2650064,29.5746066 C31.8933352,29.5746066 31.5943215,29.8702996 31.5943215,30.236922 L31.5943215,32.4388058 C31.5943215,32.8054282 31.8933352,33.1011212 32.2650064,33.1011212 C32.6345041,33.1011212 32.9347598,32.8054282 32.9347598,32.4388058 L32.9347598,30.236922 C32.9347598,29.8715278 32.6335726,29.5746066 32.2650064,29.5746066" id="Fill-97" fill="#000000"></path>
                    <path d="M30.502347,7.30671431 L30.502347,7.25715851 C30.0530502,7.30394411 29.6065479,7.36027151 29.1628402,7.42429391 L29.1628402,7.46338451 C29.6065479,7.40274791 30.0530502,7.35011411 30.502347,7.30671431" id="Fill-99" fill="#000000"></path>
                    <path d="M29.8325315,29.5746066 C29.4621023,29.5746066 29.1627781,29.8702996 29.1627781,30.236922 L29.1627781,32.4388058 C29.1627781,32.8054282 29.4621023,33.1011212 29.8325315,33.1011212 C30.2029607,33.1011212 30.5022849,32.8054282 30.5022849,32.4388058 L30.5022849,30.236922 C30.5022849,29.8715278 30.2029607,29.5746066 29.8325315,29.5746066" id="Fill-101" fill="#000000"></path>
                    <path d="M39.5593881,29.5746066 C39.1889589,29.5746066 38.8877717,29.8702996 38.8877717,30.236922 L38.8877717,32.4388058 C38.8877717,32.8054282 39.1889589,33.1011212 39.5593881,33.1011212 C39.9301279,33.1011212 40.2291416,32.8054282 40.2291416,32.4388058 L40.2291416,30.236922 C40.2291416,29.8715278 39.9301279,29.5746066 39.5593881,29.5746066" id="Fill-103" fill="#000000"></path>
                    <path d="M32.8729699,16.5835842 C33.6169333,15.9851361 34.4714356,15.6639577 35.345189,15.6547461 C35.7159288,15.6516755 36.0121479,15.3510697 36.0084219,14.9856755 C36.0046959,14.6190531 35.7016457,14.3252025 35.3318374,14.3288871 C34.314632,14.3402481 33.3253717,14.6558996 32.4410612,15.250356 C31.5458831,14.6727876 30.5501023,14.3761734 29.5313443,14.3863062 C29.1618466,14.3899909 28.8646959,14.6905967 28.8684219,15.0553768 C28.8721479,15.420771 29.1751982,15.7158498 29.5456274,15.7121651 C30.4184493,15.7035676 31.2788511,16.0069369 32.0374082,16.5921817 C32.1600566,16.6882896 32.3078557,16.7343477 32.4544128,16.7315842 C32.6031434,16.7306631 32.750011,16.6815344 32.8729699,16.5835842" id="Fill-105" fill="#000000"></path>
                    <path d="M25.0686248,8.27617842 C24.9553544,8.30757402 24.8423918,8.33927742 24.729737,8.37190422 C24.8423918,8.34020082 24.9553544,8.31003642 25.0686248,8.27987202 L25.0686248,8.27617842 Z" id="Fill-107" fill="#000000"></path>
                    <path d="M43.2277863,8.48978672 L43.2277863,8.34623485 C42.781284,8.21966224 42.3304347,8.10327718 41.8764804,7.99460996 L41.8764804,8.12673942 C42.3304347,8.23880249 42.781284,8.35981826 43.2277863,8.48978672" id="Fill-109" fill="#000000"></path>
                    <path d="M39.8347105,20.6962647 C38.612263,20.6962647 37.4196237,21.073327 36.3533589,21.7949037 C35.2898886,21.073327 34.0963178,20.6962647 32.8729388,20.6962647 C32.5031306,20.6962647 32.2031854,20.9919577 32.2031854,21.3576589 C32.2031854,21.7242813 32.5031306,22.0218166 32.8729388,22.0218166 C33.9516237,22.0218166 35.0110575,22.405327 35.9369753,23.1355012 C36.0590027,23.2325303 36.2058703,23.2798166 36.3542904,23.2798166 C36.503021,23.2798166 36.6495781,23.2316091 36.772537,23.1355012 C37.6965918,22.4062481 38.7560256,22.0218166 39.8347105,22.0218166 C40.2054502,22.0218166 40.5044639,21.7242813 40.5044639,21.3576589 C40.5053954,20.9931859 40.2054502,20.6962647 39.8347105,20.6962647" id="Fill-111" fill="#000000"></path>
                    <path d="M48.1403361,19.752166 C48.6812311,23.0179917 49.3817242,26.2064398 50.235295,29.287112 L50.235295,57.9017759 C49.5226922,57.9868299 48.8212676,58.1271535 48.1403361,58.3239751 L48.1403361,19.752166 Z M51.5751123,33.6580249 C51.6589479,33.9030539 51.7427836,34.148083 51.8266192,34.393112 C52.4941991,36.3103568 53.22419,38.1655768 54.0110027,39.9520166 L54.0110027,57.9997261 C53.2766648,57.8726058 52.5333224,57.8065892 51.7819068,57.8065892 C51.7132858,57.8065892 51.6424913,57.8065892 51.5751123,57.8084315 L51.5751123,33.6580249 Z M55.3508201,42.8220498 C56.1177607,44.3729793 56.9312767,45.8652614 57.785158,47.2899917 L57.785158,59.2690871 C57.0057973,58.8674606 56.1922813,58.5444398 55.3508201,58.3067801 L55.3508201,42.8220498 Z M41.8765735,26.7612863 C41.8355872,27.0824647 41.5604822,27.3330207 41.2229662,27.3330207 L25.7326283,27.3330207 C25.3677881,27.3330207 25.0715689,27.0410124 25.0715689,26.6783817 C25.0715689,26.6753112 25.0693954,26.6707054 25.0693954,26.6660996 L25.0693954,12.3936183 C25.0693954,12.3880913 25.0715689,12.3850207 25.0715689,12.3794938 C25.0715689,12.0196266 25.3668566,11.72639 25.7326283,11.72639 L41.2229662,11.72639 C41.5604822,11.72639 41.8355872,11.9772531 41.8765735,12.2984315 L41.8765735,26.7612863 Z M41.8765735,34.1321162 C41.6738155,34.0621079 41.4518064,34.0237261 41.2229662,34.0237261 L25.7326283,34.0237261 C25.5013041,34.0237261 25.279295,34.0633361 25.0715689,34.1348797 L25.0715689,28.5477261 C25.278053,28.6183485 25.5013041,28.6576515 25.7326283,28.6576515 L41.2229662,28.6576515 C41.4527379,28.6576515 41.6738155,28.6201909 41.8765735,28.5495685 L41.8765735,34.1321162 Z M41.8765735,50.4538755 C41.8355872,50.7722905 41.5604822,51.0237676 41.2229662,51.0237676 L25.7326283,51.0237676 C25.3677881,51.0237676 25.0715689,50.7317593 25.0715689,50.3728133 C25.0715689,50.3669793 25.0693954,50.3614523 25.0693954,50.3577676 L25.0693954,36.0165062 C25.0693954,36.0106722 25.0715689,36.0069876 25.0715689,36.0033029 C25.0715689,35.6422075 25.3668566,35.349278 25.7326283,35.349278 L41.2229662,35.349278 C41.5604822,35.349278 41.8355872,35.599834 41.8765735,35.9203983 L41.8765735,50.4538755 Z M41.8765735,57.8197925 C41.6738155,57.7500913 41.4518064,57.7117095 41.2229662,57.7117095 L29.0332676,57.7117095 C27.8496329,56.956971 26.4998795,56.4509461 25.0715689,56.2596515 L25.0715689,52.2354025 C25.278053,52.3087884 25.5013041,52.3474772 25.7326283,52.3474772 L41.2229662,52.3474772 C41.4527379,52.3474772 41.6738155,52.3087884 41.8765735,52.2372448 L41.8765735,57.8197925 Z M41.875642,62.3491452 C41.6356237,62.6334772 41.3993315,62.9322407 41.1810484,63.2374523 C39.7092676,62.382 38.0133041,61.9146639 36.2648658,61.9146639 C35.1097973,61.9146639 33.9752219,62.1173195 32.9098886,62.5054357 C32.4270575,61.1854108 31.6588749,60.0075519 30.6882447,59.0400249 L41.2229662,59.0400249 C41.5604822,59.0400249 41.8355872,59.2887386 41.8765735,59.6117593 L41.875642,62.3491452 Z M18.8068749,57.5523485 C18.0247196,58.0178423 17.3130484,58.5904979 16.6880073,59.2531203 L16.6880073,29.2929461 C17.5549297,26.173278 18.2638064,22.9442988 18.8068749,19.6370207 L18.8068749,57.5523485 Z M12.9141626,59.0523071 L12.9141626,39.9529378 C13.4370484,38.7618755 13.9372676,37.5388797 14.4098521,36.2857925 C14.7355689,35.4208216 15.0473132,34.5426473 15.3485005,33.6552614 L15.349432,60.6975021 C14.611989,60.0434772 13.793505,59.4886307 12.9141626,59.0523071 Z M11.5734137,58.4897842 C10.7903269,58.221112 9.97370594,58.0433278 9.1390758,57.9564315 L9.1390758,47.2964398 C9.99202557,45.8717095 10.80461,44.3812697 11.5734137,42.8275768 L11.5734137,58.4897842 Z M46.8023817,58.7931535 C45.4979616,59.331112 44.2851397,60.076332 43.2198064,61.0014855 L43.2198064,59.7760332 C43.2238429,59.7505477 43.2278795,59.7210705 43.2278795,59.6946639 L43.2278795,50.370971 C43.2278795,50.3418008 43.2238429,50.314166 43.2198064,50.2880664 C43.2198064,50.2880664 43.2278795,36.0306307 43.2278795,36.0033029 L43.2278795,10.3296017 C42.7813772,10.1923485 42.3308384,10.0658423 41.8765735,9.94762656 L41.8765735,10.5092282 C41.6738155,10.439527 41.4518064,10.4008382 41.2229662,10.4008382 L25.7326283,10.4008382 C25.5013041,10.4008382 25.279295,10.439527 25.0715689,10.5119917 L25.0715689,10.1091369 C24.6200986,10.2362573 24.1732858,10.3741245 23.7298886,10.5202822 L23.7298886,56.1764398 C22.4847744,56.1841162 21.271021,56.4359004 20.1476237,56.8869627 L20.1476237,11.9456266 C19.5309662,12.2351784 18.9261078,12.5440747 18.3321169,12.8707801 C16.8407744,28.5372863 11.7916968,42.5573693 4.20146849,52.1561826 C4.55264658,53.01839 4.94015342,53.8621743 5.36398904,54.6850788 L5.36398904,52.8234108 C6.20451872,51.7474938 7.0174137,50.6156929 7.79832694,49.4286224 L7.79832694,57.9008548 C7.62755068,57.9039253 7.45770594,57.913444 7.28786119,57.9241909 C7.58749589,58.3660415 7.89737717,58.8002158 8.21843653,59.2260996 C11.3004822,59.3004066 14.1716968,60.8273859 15.9331763,63.3449212 C16.0629662,63.5343734 16.2703817,63.6332448 16.4840073,63.6332448 C16.6147288,63.6332448 16.7488658,63.594556 16.8640621,63.5153361 C17.1702174,63.3071535 17.2462904,62.894473 17.0348384,62.5929461 C16.8500895,62.3264232 16.65261,62.0718755 16.446126,61.8268465 C17.8971032,59.1871037 20.7363361,57.5013776 23.7898155,57.5013776 C27.3332676,57.5013776 30.5258521,59.7665145 31.6827836,63.0489212 C31.1015233,63.3581245 30.5519342,63.7284315 30.0420895,64.1494025 C29.9641534,64.1457178 29.8868384,64.1438755 29.8085918,64.1438755 C28.4594594,64.1438755 27.1572128,64.6262573 26.1421808,65.5044315 C25.8652128,65.7457759 25.8366466,66.1630622 26.0813224,66.4391037 C26.3232037,66.7133029 26.7482813,66.742473 27.0255598,66.5011286 C27.7962265,65.8351286 28.7833132,65.4666639 29.8085918,65.4666639 C31.0453224,65.4666639 32.216537,66.0009378 33.0207379,66.9297759 C33.1527014,67.0826888 33.3417973,67.1616017 33.5302721,67.1616017 C33.6845918,67.1616017 33.8389114,67.1100166 33.9659068,67.0034689 C34.2469114,66.7661162 34.2801352,66.3466805 34.0401169,66.0687967 C33.4293589,65.3641079 32.6611763,64.8344398 31.808537,64.5086556 C33.1350027,63.6820664 34.6757151,63.2365311 36.2617607,63.2365311 C38.7057242,63.2365311 41.0230027,64.2909544 42.6121534,66.1292863 C42.7447379,66.2837344 42.9325918,66.3598838 43.1219982,66.3598838 C43.2763178,66.3598838 43.4306374,66.3082988 43.5573224,66.201751 C43.8386374,65.9640913 43.8718612,65.5458838 43.6315324,65.268 C43.2198064,64.7929876 42.7664731,64.3680249 42.2827105,63.987278 C44.463368,60.9462158 48.0124091,59.131527 51.7788018,59.131527 C53.9793315,59.131527 56.1261443,59.7594523 57.9714594,60.9069129 C58.3692128,60.4481743 58.7539251,59.9771535 59.1246648,59.4963071 L59.1246648,49.4227884 C59.9071306,50.6083237 60.7197151,51.7416598 61.5611763,52.8215685 C61.5611763,52.8252531 61.5593132,52.8261743 61.5571397,52.8307801 L61.5571397,55.8435934 C62.140884,54.8192614 62.6699799,53.7608465 63.1366648,52.6701909 C55.1893589,42.9153942 49.9999342,28.5802739 48.540884,12.5084564 C47.9704913,12.2121494 47.3907836,11.9315021 46.8008292,11.669278 L46.8023817,58.7931535 Z" id="Fill-113" fill="#000000"></path>
                    <path d="M28.0708037,7.59820332 C27.6202648,7.67853912 27.1734521,7.76934012 26.7294338,7.86752832 L26.7294338,7.88568852 C27.1731416,7.79150172 27.6205753,7.70593332 28.0708037,7.62959892 L28.0708037,7.59820332 Z" id="Fill-115" fill="#000000"></path>
                    <path d="M34.6956493,53.2012714 C34.3258411,53.2012714 34.0246539,53.4978855 34.0246539,53.865429 L34.0246539,56.0663917 C34.0246539,56.4339353 34.3258411,56.7287071 34.6956493,56.7287071 C35.06701,56.7287071 35.3650922,56.4339353 35.3650922,56.0663917 L35.3650922,53.865429 C35.3663342,53.4978855 35.06701,53.2012714 34.6956493,53.2012714" id="Fill-117" fill="#000000"></path>
                    <path d="M37.1278137,53.2012714 C36.758316,53.2012714 36.4571288,53.4978855 36.4571288,53.865429 L36.4571288,56.0663917 C36.4571288,56.4339353 36.7573845,56.7287071 37.1278137,56.7287071 C37.4985534,56.7287071 37.7975671,56.4339353 37.7975671,56.0663917 L37.7975671,53.865429 C37.7975671,53.4978855 37.4976219,53.2012714 37.1278137,53.2012714" id="Fill-119" fill="#000000"></path>
                    <path d="M29.8325315,53.2012714 C29.4621023,53.2012714 29.1627781,53.4978855 29.1627781,53.865429 L29.1627781,56.0663917 C29.1627781,56.4339353 29.4621023,56.7287071 29.8325315,56.7287071 C30.2029607,56.7287071 30.5022849,56.4339353 30.5022849,56.0663917 L30.5022849,53.865429 C30.5022849,53.4978855 30.2029607,53.2012714 29.8325315,53.2012714" id="Fill-121" fill="#000000"></path>
                    <path d="M32.2650064,53.2012714 C31.8933352,53.2012714 31.5943215,53.4978855 31.5943215,53.865429 L31.5943215,56.0663917 C31.5943215,56.4339353 31.8933352,56.7287071 32.2650064,56.7287071 C32.6345041,56.7287071 32.9347598,56.4339353 32.9347598,56.0663917 L32.9347598,53.865429 C32.9347598,53.4978855 32.6335726,53.2012714 32.2650064,53.2012714" id="Fill-123" fill="#000000"></path>
                    <path d="M27.4000566,53.2012714 C27.0296274,53.2012714 26.7293717,53.4978855 26.7293717,53.865429 L26.7293717,56.0663917 C26.7293717,56.4339353 27.0296274,56.7287071 27.4000566,56.7287071 C27.7695543,56.7287071 28.0707416,56.4339353 28.0707416,56.0663917 L28.0707416,53.865429 C28.0707416,53.4978855 27.7695543,53.2012714 27.4000566,53.2012714" id="Fill-125" fill="#000000"></path>
                    <path d="M46.800674,9.7435278 C47.3328749,9.96522075 47.8579342,10.19981 48.3758521,10.4472954 C48.3718155,10.3868058 48.3684,10.3257021 48.3643635,10.2652124 C47.8501717,10.0232539 47.3288384,9.79449876 46.800674,9.57833278 L46.800674,9.7435278 Z" id="Fill-127" fill="#000000"></path>
                    <path d="M39.5593881,53.2012714 C39.1889589,53.2012714 38.8877717,53.4978855 38.8877717,53.865429 L38.8877717,56.0663917 C38.8877717,56.4339353 39.1889589,56.7287071 39.5593881,56.7287071 C39.9301279,56.7287071 40.2291416,56.4339353 40.2291416,56.0663917 L40.2291416,53.865429 C40.2291416,53.4978855 39.9301279,53.2012714 39.5593881,53.2012714" id="Fill-129" fill="#000000"></path>
                    <path d="M3.95350137,54.5420838 C3.73925479,54.1054531 3.53463379,53.6629884 3.33932785,53.2156108 C3.20146484,53.3798846 3.0604968,53.5380174 2.92108128,53.6992207 C3.11762922,54.1441419 3.32287123,54.5838432 3.53804932,55.0180174 C3.67715434,54.8608058 3.81594886,54.702366 3.95350137,54.5420838" id="Fill-131" fill="#000000"></path>
                    <path d="M63.0532329,56.8144058 C63.0023105,56.8432689 62.9492146,56.8687544 62.8989132,56.8982315 L62.8989132,56.7572938 C61.3426758,59.3921237 59.4293607,61.7942066 57.223242,63.8993685 C57.1651781,64.073161 57.1111507,64.2491029 57.0605388,64.4265801 C59.4101096,62.1964473 61.4333425,59.633161 63.0532329,56.8144058" id="Fill-133" fill="#000000"></path>
                    <path d="M5.97661005,58.0833983 C5.77105753,58.121166 5.56705753,58.1644606 5.36398904,58.2135892 L5.36398904,57.1143361 C4.88395251,56.3242863 4.43713973,55.5124357 4.02355068,54.6815477 L4.02386119,55.9595062 C4.66318539,57.1514896 5.37299361,58.3007925 6.14862831,59.4015809 C6.36815342,59.3592075 6.58892055,59.3248174 6.81124018,59.2977967 C6.52402557,58.8995477 6.24612603,58.4942365 5.97661005,58.0833983" id="Fill-135" fill="#000000"></path>
                    <path d="M24.7298612,8.37154938 C24.3945187,8.46450498 24.0610393,8.56146198 23.7297333,8.66426718 L23.7297333,8.67596358 C24.0613498,8.56977258 24.3942082,8.46758298 24.7298612,8.37154938" id="Fill-137" fill="#000000"></path>
                    <path d="M63.6833352,55.3512324 C63.7181114,55.3896141 63.7535087,55.4267676 63.7882849,55.4648423 C64.0068785,55.0398797 64.2170886,54.6096971 64.4173626,54.1742946 C64.3860018,54.1386763 64.3546411,54.1030581 64.3232804,54.0671328 C64.1186594,54.5003859 63.9059653,54.9287261 63.6833352,55.3512324" id="Fill-139" fill="#000000"></path>
                    <path d="M20.1475306,10.0517793 L20.1475306,10.0029577 C19.593905,10.2464515 19.0471105,10.5031485 18.5096311,10.7748913 C18.507768,10.8000697 18.505905,10.8255552 18.504042,10.8507336 C19.0433845,10.5700863 19.5911105,10.3032564 20.1475306,10.0517793" id="Fill-141" fill="#000000"></path>
                    <path d="M4.20153059,52.1561212 C3.917421,52.5153743 3.63051689,52.8691004 3.33957626,53.2157643 C3.53488219,53.6628349 3.73919269,54.1052996 3.95343927,54.5422373 C3.97672694,54.5152166 4.00063562,54.489117 4.02361279,54.4617892 L4.02361279,54.6816398 C4.43720183,55.5125278 4.88401461,56.3243784 5.36405114,57.1144282 L5.36405114,54.6850174 C4.94021553,53.8624199 4.55270868,53.0183286 4.20153059,52.1561212" id="Fill-143" fill="#000000"></path>
                    <path d="M63.6833352,55.3512324 C63.9059653,54.9287261 64.1186594,54.5003859 64.3232804,54.0671328 C63.9214904,53.6123859 63.5252895,53.1471992 63.1365406,52.6703444 C62.6698557,53.761 62.1407598,54.8194149 61.5570155,55.8434398 L61.5570155,57.8049004 C60.6817096,58.4785768 59.8976913,59.2603361 59.2260749,60.1348257 C59.1925406,60.1111826 59.1580749,60.0887676 59.1245406,60.0651245 L59.1245406,59.4961535 C58.7538009,59.9773071 58.3693991,60.4480207 57.9713352,60.9070664 C58.1393169,61.0111577 58.3079196,61.1130996 58.4703123,61.2257884 C57.9586046,62.0575975 57.5388055,62.9526598 57.2230247,63.8993071 C59.4294539,61.7941452 61.3427689,59.3920622 62.8990064,56.7575394 L62.8990064,54.4598548 C63.1588968,54.7619959 63.4200292,55.05861 63.6833352,55.3512324" id="Fill-145" fill="#000000"></path>
                    <path d="M8.21834338,59.2261303 C7.89728402,58.8002465 7.58740274,58.3660722 7.28776804,57.9242216 C6.84654429,57.9521635 6.40842557,58.0040556 5.97651689,58.0832755 C6.24603288,58.4944207 6.52393242,58.899732 6.81145753,59.2976739 C7.19927489,59.2503876 7.58988676,59.219068 7.98329315,59.219068 C8.06185023,59.219068 8.1397863,59.224288 8.21834338,59.2261303" id="Fill-147" fill="#000000"></path>
                    <path d="M20.1475306,11.945688 L20.1475306,10.0517793 C19.5911105,10.3032564 19.0433845,10.5703934 18.504042,10.8507336 C18.4534301,11.5268664 18.3959872,12.2005427 18.3320237,12.8708415 C18.9260146,12.5441361 19.5311836,12.2352398 20.1475306,11.945688" id="Fill-149" fill="#000000"></path>
                    <path d="M30.502347,7.30659419 C30.0530502,7.3498888 29.6065479,7.40239502 29.1628402,7.46288465 L29.1628402,8.81238672 C29.1628402,8.96929129 29.2199726,9.11145726 29.3115708,9.22506722 C29.686347,9.17286805 30.0626758,9.12558174 30.4414886,9.08658589 C30.4796804,9.00276017 30.502347,8.91064398 30.502347,8.81238672 L30.502347,7.30659419 Z" id="Fill-151" fill="#000000"></path>
                    <path d="M38.8877406,8.81232531 C38.8877406,9.05029212 39.0159781,9.25724647 39.206316,9.37423402 C39.3699507,9.40217593 39.5329644,9.43165311 39.6956676,9.46205145 C40.0005808,9.40002656 40.2291105,9.13350373 40.2291105,8.81232531 L40.2291105,7.76527137 C39.7850922,7.67991037 39.3379689,7.6003834 38.8877406,7.53221743 L38.8877406,8.81232531 Z" id="Fill-153" fill="#000000"></path>
                    <path d="M35.3651854,7.18693527 C34.9205461,7.16636266 34.4737333,7.15500166 34.024747,7.15193112 L34.024747,8.81217178 C34.024747,8.84840415 34.0297151,8.88310124 34.0356146,8.91749129 C34.4755963,8.92117593 34.9140256,8.93192282 35.3496603,8.95310954 C35.3592858,8.90766556 35.3651854,8.86068631 35.3651854,8.81217178 L35.3651854,7.18693527 Z" id="Fill-155" fill="#000000"></path>
                    <path d="M37.7976292,7.38741079 C37.3533005,7.33490456 36.9067982,7.28976763 36.4571909,7.25445643 L36.4571909,8.81244813 C36.4571909,8.88921162 36.4730265,8.96167635 36.4975562,9.03045643 C36.9002776,9.06423237 37.3014466,9.10476349 37.7001315,9.15327801 C37.76099,9.05348548 37.7976292,8.93772614 37.7976292,8.81244813 L37.7976292,7.38741079 Z" id="Fill-157" fill="#000000"></path>
                    <path d="M27.4000566,9.47562324 C27.7695543,9.47562324 28.0707416,9.17993029 28.0707416,8.81238672 L28.0707416,7.62930788 C27.6205132,7.70576432 27.17339,7.79112531 26.7293717,7.88508382 L26.7293717,8.81238672 C26.7293717,9.17900913 27.0296274,9.47562324 27.4000566,9.47562324" id="Fill-159" fill="#000000"></path>
                    <path d="M43.2277863,10.3296017 L43.2277863,8.48727801 C42.781284,8.35770124 42.3304347,8.2373361 41.8764804,8.12587552 L41.8764804,9.94762656 C42.3307452,10.0658423 42.7815945,10.1923485 43.2277863,10.3296017" id="Fill-161" fill="#000000"></path>
                    <path d="M32.9348219,7.15936183 C32.4855251,7.17041577 32.0390228,7.1922166 31.5943836,7.22077261 L31.5943836,8.8122332 C31.5943836,8.87364398 31.6052511,8.93167718 31.6210868,8.9881751 C32.0529954,8.95931203 32.4867671,8.93720415 32.9233333,8.92584315 C32.9295434,8.88868963 32.9348219,8.85122905 32.9348219,8.8122332 L32.9348219,7.15936183 Z" id="Fill-163" fill="#000000"></path>
                    <path d="M48.540884,12.5083643 C48.4787836,11.8245552 48.4244457,11.1373685 48.3760073,10.4474183 C47.8580895,10.1996257 47.3327196,9.96534357 46.8008292,9.74365062 L46.8008292,11.6691859 C47.3907836,11.931717 47.9704913,12.2123643 48.540884,12.5083643" id="Fill-165" fill="#000000"></path>
                    <path d="M23.7298265,10.5201593 C24.1732237,10.3740017 24.6200365,10.2361344 25.0715068,10.1093212 L25.0715068,8.27989378 C24.957242,8.30998506 24.8432877,8.34007635 24.7299543,8.37139585 C24.3943014,8.46750373 24.0611324,8.56913859 23.7298265,8.67537925 L23.7298265,10.5201593 Z" id="Fill-167" fill="#000000"></path>
                </g>
            </g>
        </g>
    </g>
</svg>