<svg height="74" viewBox="0 0 66 74" width="66" xmlns="http://www.w3.org/2000/svg" xmlns:xlink="http://www.w3.org/1999/xlink"><mask id="a" fill="#fff"><path d="m.15113395.09656543h32.84886605v40.10096547h-32.84886605z" fill="none"/></mask><mask id="b" fill="#fff"><path d="m.17047982.02323539h23.29255048v9.72162058h-23.29255048z" fill="none"/></mask><mask id="c" fill="#fff"><path d="m.02758073.12287654h.27527163v4.54171194h-.27527163z" fill="none"/></mask><mask id="d" fill="#fff"><path d="m0 .15019259h.93147798v9.26857613h-.93147798z" fill="none"/></mask><g fill="none" fill-rule="evenodd" transform=""><path d="m43.7919688 61.4158889c-3.7280917-1.96907-7.5836422-4.0048313-10.9136147-4.0048313-3.3302752 0-7.1855229 2.0357613-10.9142202 4.0048313-3.2503486 1.7163127-6.5561009 3.4572922-9.6247981 3.9286996 5.508578 5.0292592 12.8115688 8.1028477 20.8145229 8.1217284 7.9675321-.0200988 15.239945-3.068107 20.7388349-8.0586914-3.2006973-.352642-6.6802294-2.185893-10.1007248-3.9917366" fill="#5cd8ff"/><path d="m21.2398899 17.1814296 1.3999266 4.2487572c.0248257.0752181.0372385.1540906.0372385.2338766l-.0311834 13.4479012c5.4325871-1.5244609 9.8536789-1.5144115 10.2284862-1.5128889.3787431-.0042634 5.8979174-.0286255 12.2345229 2.1301646l-.2158624-6.1691029c-.0881009-.0088312-.1762018-.029539-.2597614-.0721728-.3611835-.1860658-.5037798-.6312839-.3184954-.9939753l2.2712477-4.4610123c.0381468-.0755227.0911284-.1403869.1504679-.198856l3.3009082-7.0899918v-.7835473c-4.8658348-3.1960082-10.6705046-5.060321-16.8999358-5.0725021-4.2137064.0121811-8.2327431.8709465-11.8975596 2.4164198z" fill="#5cd8ff"/><path d="m32.772845 7.99388807c.0214954 0 .0429908.00091358.0644862.00091358.0290642 0 .0578257-.00091358.0868899-.00091358 6.0562569 0 11.7325596 1.66271605 16.6053578 4.55511113l.102633-.2408807c-4.8858165-2.94142385-10.5999633-4.63337447-16.7079908-4.63337447-4.2327798 0-8.276945.81247737-11.9871743 2.28973663v.25488884c3.6729908-1.43584357 7.6644771-2.22548143 11.8357982-2.22548143" fill="#6693fa"/><path d="m60.0850073 22.5298329.1226147.0012181c-.198-.3045267-.4002385-.6057037-.6082293-.9029218l.0115045.2165185c.1607615.2262634.319101.4546585.4741101.6851852" fill="#6693fa"/><path d="m32.2244092.09656543.0432936.65564609c.2173761 1.19009054.3711743 2.40271605.4571559 3.6339177.0808349.93824691.1238257 1.88745679.1238257 2.84641152 0 .56855144-.0142294 1.13375309-.0429908 1.69530041-.1095964 2.17127575-.4311193 4.28682305-.9406514 6.32806585-.3860092 1.5463868-.8810092 3.0492263-1.4759174 4.5009053-.5591835 1.3648889-1.2061652 2.6844033-1.9354954 3.9506256-.8022936 1.3929053-1.7032844 2.7215555-2.6932844 3.9762057-.7508257.9525597-1.5531193 1.8621811-2.4026422 2.7255144-5.9269817 6.0235391-14.13974317 9.7667819-23.20656885 9.7874897.02543119 0 .05055963.0009136.07599082.0009136 18.07098163 0 32.77293583-14.7878189 32.77293583-32.96502056 0-2.44961317-.2694496-4.83710288-.7756514-7.13597531" fill="#000" mask="url(#a)" transform="translate(32.697248 33.726337)"/><path d="m65.4249697 38.1125885c-.0865027-1.2312017-.241233-2.4438272-.4602312-3.6339177l.0298496.4500905c.194022 1.0448313.337178 2.1073251.4303816 3.1838272" fill="#000"/><path d="m11.9092459 64.1480115c5.5225046 5.0316955 12.8433578 8.1010206 20.8635688 8.1010206.0263394 0 .0523761-.0009136.0784128-.0009136-8.0032569-.0185761-15.3062477-3.0924691-20.8145229-8.1214238-.0423853.006395-.0850734.0152263-.1274587.0213168" fill="#000"/><path d="m32.8346367 9.66997284c-.0205872 0-.0411743-.00121811-.0617615-.00121811-4.188578 0-8.185211.83897117-11.8357981 2.35520987v.062428c3.6651192-1.5454733 7.6838532-2.40423869 11.8975596-2.41641976" fill="#000"/><path d="m49.5294881 12.5491514c-4.8727982-2.89269955-10.5491009-4.55511107-16.6053578-4.55511107-.0287615 0-.0578257.00091358-.0868899.00091358 6.0819908.01187654 11.7791835 1.69956379 16.6613669 4.62606589z" fill="#000"/><path d="m59.9347037 22.528493.1532073.0012181c-.1559486-.2305267-.3152477-.4586173-.4769835-.6851852l.0121835.2347901c.1044734.1492182.209556.2981317.3115927.449177" fill="#000"/><path d="m55.5499294 22.0593695.1256422 2.5674651h-.0003028l.231 4.7219917.5961193 12.1993416 1.5479725 1.5954156-1.0293578-21.0836049z" fill="#fff"/><path d="m53.7597248 22.0593695.1238257 2.5674651.735688 15.2376049 1.5364679 1.3536214-.925211-19.1586914z" fill="#fff"/><path d="m53.3221569 24.6267432v4.7219918h.7892752l.5077156 10.5159177-.7356881-15.2379095z" fill="#fff"/><path d="m55.9062083 29.3488263-.231-4.7219917h-.320312l-.1241284-2.5674651.9249082 19.1586914-.5728073-11.8692346z" fill="#fff"/><path d="m3.39760734 31.1070115 14.43432106-.3401564.3599725-17.3601563c-6.9236422 3.7609053-12.27660549 10.0853168-14.79429356 17.7003127" fill="#fff"/><path d="m18.1919615 13.4066683.0018165-.0813086c-6.9987248 3.7508559-12.41284406 10.1127243-14.94869727 17.7852757l.15258716-.0036543c2.51768807-7.6149959 7.87065141-13.9394074 14.79429361-17.7003128" fill="#fff"/><path d="m59.5220697 47.5376c-.503477-.8316626-1.1095871-1.6812922-1.821055-2.5437119h-4.7196055v-4.5554157c-8.6805138-6.6481234-20.255945-6.575037-20.3970275-6.5805185v.0006091h-.0187707c-.1226147 0-12.8221651-.0633416-21.5786697 7.5431275-4.32239451 3.7545103-6.47223855 7.3686338-7.18945873 10.5439342.28488991.7610123.59854128 1.5080165.93944037 2.2400988 4.00087156-2.8369712 13.32533946-8.0516873 27.83807336-8.0516873 15.1896881 0 24.7542386 5.3800741 28.4396422 7.934749.1795321-.3897943.3514954-.7838519.5152844-1.1821729-.2325137-1.645358-.8537614-3.4247078-1.9757614-5.2926749-.0102936-.0191851-.023312-.0365432-.0320918-.0563374" fill="#fff"/><path d="m3.79760367 51.9455333c-.01877064.0825268-.04056881.1662716-.05722018.2481893.26975229.7034568.56433027 1.394428.88252293 2.0723046.03633028-.0261893.07659633-.0539013.11413762-.0803951-.34089909-.7317778-.65485321-1.4787819-.93944037-2.2400988" fill="#fff"/><path d="m57.7011358 44.9938881c-.7868532-.9540823-1.7029817-1.9243046-2.7689725-2.9054897-.0009083-.0015227-.002422-.0021317-.0030275-.0027408-.2476514-.2274815-.5019633-.455572-.7659633-.6845761-.3866147-.335893-.7811009-.6562552-1.1816422-.9626091v4.5554157z" fill="#fff"/><path d="m56.3612147 20.5825366c-1.2431009-1.4538107-2.6172936-2.7909876-4.1025964-3.9950864l.1913395 3.9950864z" fill="#fff"/><path d="m62.4505624 50.3440881c.9282385-2.9639589 1.4302018-6.1167243 1.4302018-9.3852099 0-.2487984-.003633-.4969877-.0093853-.7445679l-.1749908-2.6539506c-.4698716-4.3547325-1.8304404-8.4442223-3.8958165-12.0793581l1.1141284 21.5065926c.6772569 1.1486749 1.1804312 2.270247 1.5358624 3.3564939" fill="#fff"/><path d="m10.0273982 40.2838337c2.4135412-2.0960576 5.0780642-3.6326995 7.7053486-4.7646255l.068422-3.273358-14.85454128.3492922c-.0006055.0024362-.00121101.0048724-.00211926.0073086l.21525688-.0036543 1.60852293 6.2839095-2.86978899 4.3431605c.15500918 2.1651852.52860551 4.2706831 1.10111009 6.2927407 1.13683487-2.9030535 3.34753211-6.0378518 7.02778903-9.2347737" fill="#fff"/><path d="m2.9447149 32.6023812c.00090859-.0024225.00151431-.004845.00212004-.0069647l-.15233978.0033309c-.00060573.0021197-.00121145.0039366-.00181718.0060563z" fill="#fff"/><path d="m1.89862018 43.2258971-.13411926.2031194c.16984403 2.1715802.55888073 4.2822551 1.1486422 6.307967.02694495-.0724773.05812844-.1458683.08658716-.2183456-.57250459-2.0223622-.94610092-4.1275556-1.1011101-6.2927408" fill="#fff"/><path d="m59.3231009 44.6609794-.865266-16.7039012v15.6551111c.3027523.3508148.5949082.700716.865266 1.0487901" fill="#fff"/><path d="m58.0503 43.1435226c.1410826.1568313.2727798.3124445.4075046.4686667v-15.6551111l-.2594587-5.0061152c-.2113211-.3008725-.4283945-.597786-.6500092-.8907408h-.5270917z" fill="#fff"/><path d="m5.40924495 55.542451c1.39023854 2.6432922 3.14559633 5.0630618 5.19886235 7.1917037 3.0986698-.0106584 6.6717523-1.890502 10.3707799-3.8440411 3.8864311-2.0512922 7.9036513-4.1732346 11.5963211-4.1732346 3.6914587 0 7.7104954 2.1219424 11.5960183 4.1732346 3.9230642 2.0713909 7.7068624 4.0669547 10.9320826 3.8294238 2.0783945-2.1572674 3.8510091-4.6132757 5.2485137-7.297679-3.3999082-2.3561234-12.8805963-7.8117201-27.7766146-7.8117201-14.2030184 0-23.42152298 5.2744033-27.16596335 7.9323127" fill="#fff"/><path d="m5.40924495 55.542451c-.03633027.0255803-.07538532.0526832-.11050458.0779589 1.38448624 2.6143621 3.12682569 5.0085514 5.16132113 7.1167901.0487431.0009136.099-.0030453.1480458-.0030453-2.05326602-2.1286419-3.80862381-4.5484115-5.19886235-7.1917037" fill="#fff"/><path d="m15.6495991 1.82700912h.0742013l-.0314977-.03754904z" fill="#000"/><path d="m14.9687092 13.0988831-11.87333948.2542799-.91522018 15.7860576c1.02269725-2.6694815 2.38629358-5.1681235 4.02781652-7.4517696 2.35541284-3.387251 5.33055964-6.3052263 8.76074314-8.5885679" fill="#fff"/><path d="m6.20811743 21.6874815c2.45259633-3.4113087 5.53249537-6.3375062 9.07621097-8.5952675l-.3154678.0066996c-3.4304863 2.2833415-6.40563308 5.2013169-8.76074317 8.5885679" fill="#fff"/><path d="m15.2164514 2.20750831.8213669-.01027555-.3139541-.36992h-.0741743z" fill="#fff"/><path d="m57.0314477 13.8677827-.1277615-2.0844856-4.4631743-.1047572.0841652 2.1892428z" fill="#fff"/><path d="m62.8532229 24.7522387-1.327266-.011572c.5703853 1.0490946 1.0844587 2.1338189 1.5404037 3.2483868z" fill="#fff"/><path d="m63.0663908 27.9891753c-.4559449-1.1148724-.9700183-2.1992922-1.5404036-3.2483868l-.0787156-.0006091c.5985412 1.0606667 1.1407706 2.1578766 1.621844 3.2873663z" fill="#fff"/><path d="m63.0974532 28.462014-.0284587-.4342552c-.4810734-1.1297942-1.0233028-2.2266995-1.6215413-3.2876707l-.1522844-.0012181c.6751376 1.1964856 1.2779174 2.4398683 1.8022844 3.723144" fill="#fff"/><path d="m16.8733239 3.66644115-3.262156.03989301-.0560092 1.01376954 3.3181652-.0569465z" fill="#fff"/><path d="m19.4726578 9.81273498-.4343413-1.01011523-.042033 2.01139915c.1580807-.0752181.3167706-.1501317.4763743-.222609z" fill="#fff"/><path d="m19.472689 10.8333811v-.2420017c-.1596037.0720856-.3182936.1465943-.4763743.2214058l-.005178.2395786c.1596037-.0739029.3201211-.1475029.4815523-.2189827" fill="#fff"/><path d="m58.0216294 19.548516-.1901285-3.6732016h-3.3508624c1.2724679 1.1304033 2.4574404 2.3579506 3.5409909 3.6732016" fill="#fff"/><path d="m58.0346174 19.8006947-.0130183-.2521482c-1.0835505-1.315251-2.268523-2.5427984-3.5409908-3.6732016h-.3166789c1.3959908 1.1980082 2.6911651 2.5111275 3.870688 3.9253498" fill="#fff"/><path d="m58.0446688 19.992516-.0099908-.1918518c-1.179523-1.4142222-2.4746973-2.7273416-3.8706881-3.9253498h-.1513761c1.4595688 1.252214 2.809844 2.629284 4.032055 4.1172016" fill="#fff"/><path d="m17.6257541 6.12747407-5.2875688.09074898-.2107156 5.46412345 5.3835413-.1154156z" fill="#fff"/><path d="m60.3516716 55.4218584c-1.3972019 2.6844033-3.1701193 5.1404116-5.2485138 7.297679.0569174-.0039588.1123211-.0124855.1689358-.017967 2.050844-2.1319918 3.8031743-4.5554157 5.1897798-7.2020576-.037844-.0264939-.070844-.0505515-.1102018-.0776544" fill="#000"/><path d="m57.374133 62.1049416c.3720826-.1863704.7341743-.4138519 1.0835505-.6949301.99-1.2546502 1.8906881-2.5833004 2.6932844-3.9762057.1253394-.3736544.229789-.7604033.3085046-1.1617696-1.1510642 2.0954486-2.5234404 4.0502058-4.0853395 5.8329054" fill="#000"/><path d="m60.4619642 55.4996041c-1.3866055 2.646642-3.1389358 5.0700659-5.1900825 7.2020576.7317522-.0721728 1.4344403-.2621975 2.1023119-.5968724 1.5618991-1.7826996 2.9342752-3.7374568 4.0853394-5.8326008.0021193-.0106585.0051468-.0204033.0069633-.0304527-.2158624-.1708395-.5564587-.4281646-1.0045321-.7421317" fill="#000"/><path d="m4.06163394 56.5617325c-.03481651.028321-.07477981.0599918-.10626605.0861811 1.02814679 1.9029876 2.23794495 3.6926913 3.60426605 5.3468806.08810092.0490288.1771101.0928807.26642202.1367325-1.43413761-1.7172263-2.69843119-3.5821481-3.76442202-5.5697942" fill="#000"/><path d="m4.40017156 56.2921654c-.12624771.0986667-.23917431.1885021-.33847706.2695062 1.06599082 1.9879506 2.3302844 3.8528724 3.76411926 5.5697942.32788074.1604856.66454129.2856461 1.00846789.3800494-1.70722018-1.8850205-3.19736697-3.9716378-4.43411009-6.2193498" fill="#000"/><path d="m4.40017156 56.2921654c1.23674312 2.247712 2.72688991 4.3343293 4.43411009 6.2193498.52497248.1437367 1.06720184.2168231 1.62577985.2259589-2.03449544-2.1085432-3.77683489-4.5027325-5.16132113-7.1170947-.35391743.2533663-.64910092.4768889-.89856881.671786" fill="#000"/><path d="m56.3612147 20.5825366h.1510734c-1.287-1.5052757-2.7138716-2.886-4.259422-4.1226831l.0057522.1275967c1.4853028 1.2040988 2.8594955 2.5412757 4.1025964 3.9950864" fill="#fff"/><path d="m52.2527752 16.4599753c1.5455505 1.2366831 2.972422 2.6174074 4.259422 4.1226831h1.5628074l-.0302752-.5901728c-1.2222111-1.4879177-2.5724863-2.8649877-4.0323578-4.1168971h-1.7877523z" fill="#fff"/><path d="m3.53509343 55.082372c.05300092-.0420247.11054477-.0864856.16778576-.1309465-.06208679-.1257695-.12447644-.2515391-.18504891-.3785267.00302862.171144.00575438.342288.01726315.5094732" fill="#000"/><path d="m3.74026239 52.1938444c-.16833028.8261811-.23554129 1.6197778-.22222019 2.378963.06024771.1269877.12261468.2527572.1846789.3788313.26430275-.2058601.57038532-.4354733.92006422-.6857943-.31819266-.6778765-.61246789-1.3688477-.88252293-2.072" fill="#000"/><path d="m49.7346633 14.642042c-4.8503945-3.1457613-10.6220642-4.97322636-16.8103211-4.97322636-.0299725 0-.059945.00091358-.0896147.0012181 6.2294312.01218107 12.0341009 1.87618926 16.8999358 5.07250206z" fill="#000"/><path d="m32.8373009 7.99492346c-.0214954 0-.0429908-.00091358-.0644862-.00091358-4.1713211 0-8.1628074.78933333-11.8357982 2.22517692v.0581646c3.6890367-1.46355552 7.7032294-2.27116045 11.9002844-2.28242794" fill="#000"/><path d="m20.9371376 12.0241169c3.6505872-1.5162387 7.6472202-2.3552099 11.8357982-2.3552099.0205871 0 .0408715.00091358.0617614.0012181.0296698-.00030452.0596422-.0012181.0896147-.0012181 6.1882569 0 11.9599266 1.827465 16.8103211 4.9732263v-.4583127c-.167422-.0478107-.3157706-.1519589-.4138624-.301786-.1359357-.2070782-.1592477-.4689712-.0617614-.6970618l.2397798-.5639835c-4.8821835-2.92650206-10.5796789-4.6141893-16.661367-4.62606584-4.1973578.01126749-8.2112477.81887242-11.9002844 2.28242794z" fill="#000"/><path d="m.33547982.03724362c-.05479817-.00517695-.11020184-.00761317-.165-.01400823 5.93848624 6.00130864 14.15397248 9.72171194 23.21716518 9.72171194.0254311 0 .0502568-.00091359.0753853-.00091359-9.0262569-.02070781-17.20632113-3.73045267-23.12755048-9.70679012" fill="#000" mask="url(#b)" transform="translate(9.385321 64.179012)"/><path d="m32.8511972 72.248149c.024523 0 .0487432.0009136.0729634.0009136 7.9917522 0 15.2880825-3.0477038 20.8033211-8.0471194-.0457156-.0045679-.0914312-.0073086-.1374496-.0124856-5.4988899 4.9905844-12.7716055 8.0388971-20.7388349 8.0586914" fill="#000"/><path d="m55.3426651 64.2263663c-5.8406972 5.5728395-13.7322385 8.9923703-22.4185045 8.9923703-8.6714312 0-16.5514679-3.4085679-22.3891377-8.9652675-.0145321 0-.0293669.0018272-.043899.0018272-.259156 0-.5155872-.0152263-.77020188-.0389794 5.92092658 5.9763374 14.10129358 9.6857778 23.12724768 9.7064856 9.0668257-.0207078 17.2795872-3.7639506 23.2068716-9.7874897-.2355413.0414156-.4728991.0712592-.7123762.0910535" fill="#000"/><path d="m53.7275119 64.2018214c-5.5152385 4.9994156-12.8115688 8.0471193-20.8033211 8.0471193-.0242202 0-.0484403-.0009135-.0729633-.0009135-.0260367 0-.0520734.0009135-.0784128.0009135-8.020211 0-15.3410642-3.0693251-20.8635688-8.1010205-.4638165.0660823-.9224863.1032345-1.3741927.1053662 5.8376697 5.5570041 13.7177064 8.965572 22.3891376 8.965572 8.6862661 0 16.5778074-3.4195308 22.4185046-8.9923703-.2258532.0185761-.4529174.0286255-.6824037.0286255-.3075963 0-.6191284-.0219259-.9327798-.0532922" fill="#000"/><path d="m18.9893505 11.1250957c.160822-.0754009.3213394-.1511046.4833798-.224083v-.0663164c-.1614312.0714643-.3219486.1450483-.4815523.2189351z" fill="#fff"/><path d="m19.1402028 11.5759449c.0377688.0103539.0776697.0161399.1123926.0316707.0493431.0222305.0901578.0563375.1331046.0886173.0277174.0213169.0603083.0319753.0861982.0575556 0 0 0 .000609.0009137.0015226v-.853893c-.1620403.073391-.3225578.1495226-.4833798.2253498l-.0085284.4159835c.056044.0021317.1063009.0182716.1592991.0331935" fill="#fff"/><path d="m58.1865991 22.7215021c-.1592477-.2226091-.3218257-.4430865-.4868257-.6614321h-.1513762c.2216147.2932592.4386881.5898683.6500092.8910452z" fill="#fff"/><path d="m58.1550404 22.0601004h-.4553578c.166.2183457.3295633.4385185.4897761.6614321z" fill="#fff"/><path d="m.07058719 4.0887284.0378578.57586008c.02877193-.56154733.04300646-1.12674897.04300646-1.69530041 0-.95925926-.04300646-1.90816461-.12387072-2.84641153.05421237.77106173.08359002 1.54912758.08359002 2.33419753 0 .54723457-.01423453 1.09111935-.04058356 1.63165433" fill="#000" mask="url(#c)" transform="translate(65.394495 37.989712)"/><path d="m65.465067 42.0784403c.0263394-.540535.0405688-1.0844197.0405688-1.6316543 0-.78507-.029367-1.5631358-.0835597-2.3341975-.0923394-1.0765021-.2349357-2.1389959-.4277889-3.1838272z" fill="#000"/><path d="m1.0553945 48.6553654-.1580367-.0286255c.33121101 1.3947325.75173394 2.7550535 1.25369725 4.075177.01271559-.0913581.03178899-.1848478.0463211-.2768148-.45291743-1.2241976-.83468808-2.4825021-1.14198165-3.7697367" fill="#000"/><path d="m1.13523167 48.419814c.09570452 0 .16112279.0429383.20594643.1014074-.07147553-.2813827-.13810525-.5648971-.20170635-.8493251-.00181718.2631111-.01423453.7479177-.00424008.7479177" fill="#000"/><path d="m.97734495 47.4370486c.03422345.0308938.0757156.0514897.12477931.0605761-.033012-.1508346-.06723545-.3007605-.09812742-.4522008z" fill="#000"/><path d="m1.39008716 48.7157226-.33454129-.0602963c.30699083 1.2872346.68906422 2.5455391 1.14198165 3.7697367.03693578-.2280906.08022936-.4583128.13018349-.6903622-.35936697-.9848395-.67241284-1.992214-.93762385-3.0190782" fill="#000"/><path d="m2.79446422 32.5988576-.81622018.0190773.81440367-.013021c.0006055-.0021197.00121101-.0039366.00181651-.0060563" fill="#000"/><path d="m1.76437982 43.4290165-.00272477.0039588c-.08053211-.8749053-.22070643-4.3401152-.22070643-4.3401152l.43717432-6.4748478-.97425688 14.4272593c.03118348.1522634.06509174.3033086.09809174.4546584.01150459.0021317.02149541.0054815.03330275.0063951.00423853 0 .00454128.0679095.00423853.1656626.06357798.2844279.13018349.5676378.20163303.8493251.0457156.0602963.06933028.1367325.08174312.200074l.01513761.0030453c-.00242201.0429383-.00333027.0709547-.00363302.0901399.00181651.033498-.00060551.0405021 0 0-.00121101-.022535-.00423854-.0548148-.01150459-.0931852l-.03269725-.005786c.26521101 1.0268642.57825688 2.0342387.9373211 3.0190782.14108257-.6516872.33060551-1.3170782.58552294-1.9976955-.58945872-2.0257119-.97849541-4.1363868-1.1486422-6.307967" fill="#000"/><path d="m63.8806431 40.9589086c0 3.2684856-.5016605 6.4209465-1.4302018 9.3852099.0269449.0822222.0472293.1629218.0723578.244535.8540642-2.6496872 1.3651101-5.4522469 1.481367-8.356214l-.1326055-2.0180988c.0054495.2475803.0090825.4957696.0090825.7445679" fill="#000"/><path d="m63.0333 52.985949c.0190734.1662716.0408716.3331522.0532844.4969876.5949083-1.4513745 1.0896055-2.954214 1.4759174-4.5006008-.0523761-.0718683-.0859816-.1562222-.109899-.245144-.3781377 1.4583786-.8540643 2.8768642-1.4193028 4.2487572" fill="#000"/><path d="m64.0042266 42.23247c-.1162569 2.903967-.6273027 5.7065267-1.4816697 8.356214.2531009.8219176.4205229 1.6222139.5107431 2.3972345.5652385-1.371893 1.0411651-2.7903786 1.4193028-4.2487572-.0127156-.0475062-.0266422-.0947078-.0296698-.1458683z" fill="#000"/><path d="m61.0145477 54.0688765c.0399633.027712.0756881.0529877.1141376.0800906.1486514-.3203622.2936697-.6425515.4317248-.9686996-.0112018-.0983622-.0163486-.1942881-.030578-.2935638-.163789.398321-.3354495.7923786-.5152844 1.1821728" fill="#000"/><path d="m61.6369156 54.5122979c.0054495-.4318189-.0245229-.8779506-.0765963-1.332-.1380551.3261482-.2827707.6483375-.4317248.9686996.1837706.1285103.3563394.2515391.5083211.3633004" fill="#000"/><path d="m6.20811743 21.6874815c-1.64182569 2.2836461-3.00542202 4.782288-4.02811926 7.4517695l-.02755046.4720165c.10444954-.2853416.21374312-.5679424.32545871-.8493251.95730275-2.5226996 2.21493578-4.8952675 3.73021101-7.0744609" fill="#fff"/><path d="m15.4408514 13.0889251-.1568257.0033498c-3.5434129 2.2577613-6.62361469 5.1839588-9.07590827 8.5952675-1.51527523 2.1791934-2.77290826 4.5517613-3.73021101 7.0744609 2.58005505-6.4937284 7.15676147-11.9749054 12.96294498-15.6730782" fill="#fff"/><path d="m2.47793494 28.7619424c-.11175622.2813827-.22078668.5642881-.32527421.8493251l-.00302862.0548148c.10509325-.3033086.21442657-.6047901.32830283-.9041399" fill="#fff"/><path d="m3.24502018 31.1105745c2.53585321-7.6725515 7.94997252-14.0341152 14.94869722-17.7852757l.0060551-.2956955-2.7589817.0593827c-5.80618346 3.6978683-10.38288988 9.1790453-12.96294493 15.6730782-.11383486.2993498-.22312844.6005267-.32818348.9041399l-.08537615 1.4720823z" fill="#fff"/><path d="m63.6964486 37.5603597-.1329082-2.0247984c-.6478899-3.7118765-1.9488165-7.2002304-3.7780459-10.3417284l.0151376.2871687c2.0653762 3.6351358 3.425945 7.7246256 3.8958165 12.0793581" fill="#fff"/><path d="m59.761244 24.725623.0242202.4683622c1.8292294 3.1411934 3.130156 6.6295473 3.7780459 10.3417284l-.4659358-7.0735473c-.5246697-1.2835803-1.1271468-2.5266585-1.8025871-3.7234486z" fill="#fff"/><g fill="#000"><path d="m59.9328658 22.526065c-.1014589-.1502288-.2059464-.2983374-.3098282-.446749l.0233204.444326z"/><path d="m44.1712872 58.890144c-3.885523-2.0512921-7.9045597-4.1732345-11.5963211-4.1732345-3.692367 0-7.70989 2.1219424-11.5960184 4.1732345-3.6990275 1.9535391-7.2721101 3.8330782-10.3707798 3.8440412.4616972.478716.9373211.9440329 1.4283853 1.3922963 3.0686973-.4714074 6.3744496-2.2123868 9.6247982-3.9286996 3.7286972-1.96907 7.5839449-4.0048313 10.9142202-4.0048313 3.3299724 0 7.1855229 2.0357613 10.9136146 4.0048313 3.4204955 1.8058436 6.9000276 3.6390946 10.1007248 3.9917366.520734-.4726255 1.0251193-.9632181 1.513156-1.4699506-3.2249175.2375309-7.0087156-1.7580329-10.9317798-3.8294239"/><path d="m10.6080771 62.7340634c-.0490459 0-.0993028.0039588-.1480459.0033498.4683578.4851111.9506422.956214 1.4492752 1.4105679.0420826-.0060906.0850734-.0149218.1274587-.0213169-.4910642-.4485679-.9669908-.9138848-1.428688-1.3926008"/><path d="m15.6921661 1.78946008.0314862.03776132h1.9242936l-1.3206055-1.56618107c-.1277615-.15134979-.3100184-.24423045-.5068074-.25915226-.1995137-.01400823-.3902477.05085596-.5382936.18241152l-1.8555688 1.64292181h2.2228074z"/><path d="m63.6964486 37.5603597.1750545 2.6539506c-.0208975-.8943951-.0805614-1.7793498-.1750545-2.6539506"/><path d="m32.5750569 46.1339449c-14.5130367 0-23.83720185 5.2150205-27.83807341 8.0516872.21344036.4583128.43747706.9108395.67211009 1.3569712 3.74474312-2.6579095 12.96324772-7.9326173 27.16596332-7.9326173 14.8960183 0 24.3770092 5.4555967 27.7766147 7.8120247.2316055-.4449136.4523119-.8959177.6630275-1.3530123-3.6854037-2.5549795-13.2499541-7.9350535-28.4396422-7.9350535"/><path d="m4.62278532 54.2659053c.21465138.4577038.43989908.9093169.67574312 1.354535.03542202-.0252757.07447706-.0523786.11080734-.0779588-.23493578-.4461317-.45897248-.8983539-.67241284-1.3569712-.03754129.0264938-.07780734.0545103-.11413762.080395"/><path d="m62.8532229 24.7522387.2131377 3.2368148c.1047522.256107.2061743.5134321.3045688.7728889.6466789 1.6273909 1.1668073 3.318428 1.5506972 5.06093l-.6148899-9.3395308.4977248-.7795885c.1438073-.2259589.1547064-.5131276.0278532-.7503539-.1277615-.2363128-.3720826-.3846173-.6394129-.386749l-3.9851284-.0356296c.466844.7177695.9073486 1.4544197 1.3181835 2.2096461z"/><path d="m61.4473927 24.7400272.0787156.000609c-.4111377-.7552263-.8516422-1.4918765-1.3184863-2.2096461l-.1226147-.0012181c.4825872.7171605.9361101 1.4550288 1.3623854 2.2102552"/><path d="m63.3710401 28.7617901c-.0984303-.2591522-.1998892-.5167819-.3046795-.7725843l.0027257.0383703c.1035789.2433169.2041293.4878519.3019538.734214"/><path d="m64.9647991 34.4786403-.0432936-.6556461c-.3835872-1.742502-.9040183-3.4338436-1.5506972-5.0612345.695422 1.8326419 1.23311 3.7435473 1.5939908 5.7168806"/><path d="m63.069055 28.0276675.0284588.4342551c.8422568 2.0601235 1.4828807 4.223786 1.8967431 6.4669301l-.029367-.4500906c-.3611835-1.9733333-.8985688-3.8845432-1.5939908-5.7168806-.097789-.2463622-.1983028-.4912017-.3018441-.734214"/><path d="m61.2951385 24.7388395.1522844.0012181c-.4262752-.7555309-.8797981-1.4930946-1.3623853-2.2102551l-.1522844-.0012181c.4825872.7168559.9364129 1.4547242 1.3623853 2.2102551"/><path d="m.03832844 39.3538915.00030286.0030282c.00333149-.0626827.00757156-.1250625.01090305-.1877452z"/><path d="m12.3382459 6.2183144 5.2875688-.09074897-.1147431 5.43945677-5.3835413.1151111zm1.2727706-2.51204115 3.262156-.039893v.99702057l-3.3178624.05664198zm-10.5154954 9.64679835 11.8730367-.2542798c1.282156-.853284 2.6269816-1.6179506 4.0275138-2.2848642l.0420825-2.0113992.4317248 1.01011522v.77867488c.4825872-.2204773.9721376-.4296872 1.4671376-.62671603v-.30330864c0-.10049383-.0196789-.19946502-.0593394-.29173663l-.9806147-2.2985679v-1.69438683c0-.14038683-.0396606-.2777284-.1153486-.39649383l-1.5564496-2.45753086c-.0172569-.02862552-.0372385-.05511934-.0593394-.08100412l-.5180092-.61423045h-1.9239908l.3139541.37274074-.821367.01035391.4332386-.38309465h-2.2231101l-.4638165.41050206-.0557065.00060905c-.3860091.00426338-.7023853.30939918-.7238807.69767078l-.0999083 1.80980247-.464422.00822222c-.3890367.00639507-.7054128.31823046-.7211559.70954733l-.2406881 6.25102058-8.27149543.1772346c-.38237614.0082222-.69451376.3109218-.71691743.6955391l-1.58188073 25.9743045c.23705504-3.2977202.95881651-6.4623622 2.09322936-9.4226667z"/><path d="m19.4697881 10.8346963c.4831926-.2165185.9721376-.4220741 1.4674403-.6154486v-.25458433c-.4953027.19702883-.9845504.40623873-1.4674403.62671603z"/><path d="m18.9911064 11.05493.0051468-.2411851c-1.4005321.6672181-2.7456605 1.4318847-4.0275138 2.2851687l.3154679-.0066996c1.1861835-.7558354 2.4244404-1.4367572 3.7068991-2.037284"/><path d="m.9315207 48.1160486-.03422345.5106913.15809416.0286255c-.04270359-.1793662-.08389288-.359037-.12387071-.5393168"/><path d="m1.34349358 48.5213737c-.04477431-.0584692-.11056514-.1014074-.20711927-.1014074-.01005137 0 .0024367-.4851112.00426422-.7482223-.01279266-.057251-.02497614-.114502-.03746422-.1717531-.04934312-.0088312-.09107156-.0298436-.12548991-.0609053l-.04629724.676963c.0402055.1802798.08162935.3599506.12488073.5393168l.33656881.0602963c-.01705688-.0645596-.03289542-.1294238-.04934312-.194288"/><path d="m1.34101101 48.5213737c.01635457.0644995.03210341.1289991.04906371.1931958l.033012.0057535c-.01272022-.0629855-.03634349-.138992-.08207571-.1989493"/><path d="m1.13524228 47.5061978c-.01181164-.0006056-.0218061-.0042394-.033012-.0063591.01241735.0569292.02453185.1141612.03725207.1710904.00060572-.0969008 0-.1647313-.00424007-.1647313"/><path d="m1.4344404 48.8144502c-.00060572.0405772.00181718.0333096 0 0"/><path d="m1.43798807 48.7243253-.01514312-.0027253c.00757156.0381547.01029733.070253.01150877.0923585.00030287-.0190773.00121145-.0469363.00363435-.0896332"/><path d="m56.9037468 11.7833885.1277615 2.0844856h-4.5067707l-.0841651-2.1892428zm.927633 4.0922304.1901285 3.6728971c.5531284.671177 1.0790091 1.3651935 1.5779449 2.0796132l-.2888257-5.5844115.6733211-1.0335638c.1474404-.2265679.1598532-.5170864.0311835-.7555309-.1280642-.2384444-.3763211-.3867489-.6454679-.3867489h-.8673853l-.1480459-2.4276873.3832844-.7488312c.1165597-.2280906.1068716-.500033-.0236146-.71929223-.1313945-.21925925-.3657248-.3541646-.6203395-.35720987l-6.7901284-.07704527c-.3091101.00395885-.5667523.17297119-.6836147.44765432l-.9878808 2.32262555c1.7265964 1.0393498 3.3487432 2.2352263 4.848578 3.5675308z"/><path d="m54.1638991 15.8754667h.3166789c-1.4998349-1.3323046-3.1222844-2.5278766-4.848578-3.5672264l-.102633.2408807c1.6415229.9744856 3.1919174 2.088749 4.6345321 3.3263457"/><path d="m58.0346174 19.8006947c.5507065.6599094 1.0774954 1.3411358 1.5761285 2.043679l-.0112019-.216214c-.4989357-.7144198-1.0251192-1.4087408-1.5779449-2.0796132z"/><path d="m54.0125229 15.8754667h.1513762c-1.4426147-1.2375967-2.9930092-2.3518601-4.6345321-3.3263457l-.030578.0718683c1.5970183.9574321 3.106844 2.0470288 4.5137339 3.2544774"/><path d="m59.6228862 22.0792856-.0121101-.2347901c-.498633-.7025432-1.025422-1.3837696-1.5761284-2.043679l.0099908.1915473c.5531285.6733086 1.0790092 1.3703704 1.5782477 2.0869218"/><path d="m53.5900321 64.1894881c.0460184.0051769.091734.0076131.1374496.0124856.5319357-.4823704 1.0469174-.9830124 1.5446422-1.5004033-.0566147.0054815-.1120184.0140082-.1689358.017967-.4880367.5067326-.992422.9973252-1.513156 1.4699507"/><path d="m55.3426651 64.2263663c.2394771-.0197943.4768349-.0496379.7123762-.0910535.8492202-.8630288 1.6518165-1.7726502 2.4026422-2.7252099-.3493762.2807736-.7117707.5085597-1.0835505.69493-.6460734.7369548-1.3230275 1.445284-2.0314679 2.1213334"/><path d="m57.374133 62.1049416c-.6678715.3346749-1.3702569.524395-2.1020091.5965679-.4977248.5176954-1.0127065 1.0180329-1.5446422 1.5004033.3136513.0313662.6254862.0532921.9327798.0532921.2294862 0 .4565504-.0100493.6824036-.02893.7084404-.6757449 1.3853945-1.3843786 2.0314679-2.1213333"/><path d="m18.9893505 11.1267374.0018165-.0718683c-1.2824587.6005268-2.5207156 1.2814486-3.7068991 2.037284l.1565229-.0033498c1.1374404-.7247737 2.3224129-1.3801152 3.5485597-1.9620659"/><path d="m20.9371376 10.2772601v-.0578601c-.4953027.1933745-.9842477.3986255-1.4674404.6154486v.0666913c.48289-.2195638.9721377-.4278601 1.4674404-.6242798"/><path d="m18.1996514 13.0297251-.0060551.2956955c.889789-.4771934 1.8050092-.9114486 2.7435413-1.3012428v-1.74707c-.4953027.1964198-.9845504.4047161-1.4674404.6242799v.853893c-.0009082-.0006091-.0009082-.0012181-.0009082-.0012181-.025734-.0258848-.0578257-.0365433-.0856789-.0578601-.0423853-.0322799-.0829541-.0663869-.132-.0886173-.0348165-.0155309-.0741743-.0213169-.1117156-.0316708-.0526789-.0149218-.102633-.0310617-.1586422-.0331934l.0084771-.4159836c-1.2258441.5819507-2.4108166 1.2372922-3.5482569 1.9620659z"/><path d="m60.3516716 55.4218584c.0393578.0271029.0723578.0511605.1102018.0776544.2328165-.444.4550367-.8940906.6666605-1.3505762-.0384495-.0271029-.0741743-.0523786-.1141376-.0800905-.2104128.4570946-.4311192.9080988-.6627247 1.3530123"/><path d="m61.5298624 52.8867646c.0142293.0992757.0190734.1952017.030578.2935638.3578532-.8453663.6781651-1.7102222.9621468-2.5915226-.0251285-.0819177-.0451101-.1626173-.0720551-.2448395-.2709633.8645514-.5788624 1.7123539-.9206697 2.5427983"/><path d="m61.4595028 56.2720971c-.0787156.4013663-.1831652.7881152-.3088074 1.1617696.729633-1.2662223 1.3763119-2.5857367 1.9357982-3.9509301-.0124129-.1638354-.0339083-.330716-.0532844-.4969876-.4650275 1.1285761-.9909083 2.2251769-1.5737064 3.2861481"/><path d="m61.5603193 53.1802675c.0520734.4540494.0820458.9001811.0765963 1.332-.1519817-.1117613-.3245505-.2347901-.5083211-.3633004-.2116239.4564856-.433844.9065761-.6666606 1.3505761.4483762.3139671.7889725.5712922 1.0045322.7421317-.0018166.0100494-.0048441.0200988-.0069633.0304527.5827981-1.0609712 1.1086789-2.157572 1.5737064-3.2861482-.0902202-.7753251-.2573395-1.5753168-.5104404-2.3972345-.2842844.8813004-.6042936 1.7461563-.9624495 2.5915226"/><path d="m7.82593486 62.1314049c-.08931192-.0435473-.1783211-.0877037-.26642202-.1364279.6327523.7655802 1.29850459 1.5022304 1.99634863 2.2072098.05479816.0063951.11020183.0091358.165.0140083-.66090826-.6669136-1.29244954-1.3630618-1.89492661-2.0847902"/><path d="m8.83443303 62.5114543c-.34422936-.0944033-.68058716-.2195638-1.00846789-.3800494.60247706.7217284 1.23401835 1.4178766 1.8949266 2.0847902.25491743.0240576.51104586.0389794.77050456.0389794.0145321 0 .0290643-.0015226.0435964-.0018272-.58764224-.5594156-1.15530279-1.1401481-1.70055967-1.741893"/><path d="m10.4599404 62.7373218c-.55857801-.0088313-1.10080737-.0822222-1.6254771-.2259588.54525688.6017448 1.11291743 1.1824773 1.7005596 1.7421975.4517065-.0024362.9103762-.0395885 1.3741927-.1056708-.4983303-.4540494-.9809174-.9251523-1.4492752-1.4105679"/><path d="m2.15256881 29.6111152.02755046-.4720164c-1.13441285 2.9603045-1.85617432 6.1249465-2.09322936 9.4226666l-.03723853.6075309c-.00333028.063037-.00787156.125465-.01089909.1888066l.11958716 1.0442222c.06266972-3.7846584.76051376-7.416749 1.99422936-10.7912099"/><path d="m.34316973 40.4468165c0-3.7773498.63729357-7.4042634 1.80652293-10.7805515l.00302752-.0551193c-1.23401834 3.3744609-1.93155963 7.0065514-1.99422935 10.7912099l.26248623 2.2918683c-.04995412-.7427408-.07780733-1.4918766-.07780733-2.2474074"/><path d="m.77304771 45.7676905.05936102.5204362c-.01938319.3422881-.07692704.950428.14507109 1.1511112l.02665189-.3940577c-.08601292-.4226831-.16172852-.8490205-.231084-1.2774897"/><path d="m1.97815321 32.6180428.81622018-.0191852c.13805505-.501251.28852294-.9973251.45079817-1.4882222l-1.1810367.0277119.08537615-1.4720823c-1.16892661 3.3762881-1.80622018 7.0032017-1.80622018 10.7805515 0 .7555308.02755045 1.5046666.07750458 2.2474074l.35240367 3.0735884c.06933028.4281647.1447156.8548066.23069725 1.2774898z"/><path d="m.04959083 39.1692354.03725207-.6075309c-.01484026.2019013-.02634903.4047161-.03725207.6075309"/><path d="m.15128532 1.75108971c0-.18606584.00423853-.37121811.0069633-.5566749l-.11958715-1.04422222c-.02543119.5304856-.0387523 1.06401646-.0387523 1.60089712 0 2.63933334.31183487 5.2061893.8973578 7.66767901l.03421101-.51069135c-.50922936-2.30526749-.78019266-4.69976132-.78019266-7.15698766" mask="url(#d)" transform="translate(0 39.207819)"/><path d="m.83247798 46.2881267-.05933945-.5204362c-.16409174-1.0098107-.28216514-2.0348477-.35210091-3.0732839l-.262789-2.2921729c-.00272477.1854568-.0069633.3706091-.0069633.5566749 0 2.4572264.2709633 4.8517202.78019266 7.1569877l.04601835-.6766584c-.22191743-.2006832-.16439449-.8085186-.14501835-1.1511112"/><path d="m.77317574 45.7676905-.35222895-3.0732839c.06996121 1.0384362.18807754 2.0634732.35222895 3.0732839"/><path d="m58.4577138 23.3397827c.4732018.6958436.9255137 1.4069136 1.3430091 2.1411276l-.0151376-.2871687c-.4156789-.7138107-.8589082-1.4096544-1.3278715-2.0860083z"/><path d="m57.2659294 21.6975918h.1574312c-.2951835-.3788313-.5991468-.7503539-.9109817-1.115177h-.1510734c.3106239.3639095.6103486.7372593.9046239 1.115177"/><path d="m56.5122881 20.5825366c.3118348.3645185.6157981.7360412.9109816 1.115177h1.0345046v1.4099588c.4689633.6766585.9118899 1.3721976 1.3278716 2.0863128l-.024523-.4683622 1.5340459.0130947c-.4259725-.7555309-.8797982-1.4930947-1.3623853-2.2102551l-.2864037-.0024363-.0236147-.4467407c-.4992385-.7165514-1.0248165-1.4136132-1.5779449-2.0866173l.0302752.5898683z"/><path d="m58.1984107 22.9510848c.0893444.1272922.171723.2600658.2592502.3885761v-.2320494c-.0893444-.1294238-.1795974-.2582387-.2710618-.3861399z"/><path d="m57.5499881 22.0577136h.1522936c-.09229-.1204034-.1839707-.2411093-.2780881-.36h-.1583853c.0947266.1201008.1909761.2386891.2841798.36"/><path d="m58.1522972 22.0601004.0342111.6614321c.0914311.1279012.1816513.2567161.271266.3861399v-1.4099588h-1.0345046c.0932477.119679.1846789.2411852.2764129.3623868z"/><path d="m63.8733376 40.2144016.1334092 2.0180988c.0170569-.4226831.028022-.8468889.028022-1.2735309 0-1.8493909-.1623449-3.6613251-.4715009-5.4233168l.1340183 2.0247983c.0950312.8746009.1550349 1.7592511.1760514 2.6539506"/><path d="m64.4527239 48.7371309c.0236146.0889218.0572201.1732757.1095963.245144.5095321-2.0412428.8307523-4.1567901.9406514-6.3280658l-.0378441-.5758601c-.1114128 2.2894321-.4571559 4.5164362-1.0124036 6.6587819"/><path d="m64.0320193 40.9589086c0 .426642-.0108991.8508478-.0278532 1.2735309l.4187064 6.3588231c.0030275.0511604.0172569.0983621.0299725.1458683.5552477-2.1423457.900688-4.3693498 1.0121009-6.6587819l-.4704771-7.149679c-.4138624-2.2428395-1.054789-4.4065021-1.8970459-6.4666256l.4659358 7.0735474c.3072936 1.7619917.4686606 3.5739259.4686606 5.4233168"/><path d="m2.19752752 52.4250716c-.01483486.0919671-.0336055.1854568-.0463211.2768148.51710092 1.360321 1.11957798 2.6786173 1.80440367 3.9460576.03118349-.0261893.07114679-.05786.1059633-.086181-.71177064-1.3271276-1.33574311-2.7087655-1.86404587-4.1366914"/><path d="m3.7027211 54.9515169c-.05691743.0444609-.11474312.0889218-.16772477.1309465-.01150459-.1674897-.01422936-.3386338-.01695413-.5094733-.43929358-.9230206-.83711009-1.8697942-1.19042202-2.8381893-.04995412.2320494-.0932477.4622716-.13018348.6903622.52830275 1.4279259 1.15227523 2.8095637 1.86434862 4.1366913.09930275-.0813086.21222936-.1708395.33847707-.2698107-.24250459-.4406502-.47501835-.8876955-.69754129-1.3405267"/><path d="m4.62278532 54.2659053c-.3496789.250321-.65576147.4799342-.92006422.6854898.22252294.4531358.4550367.900181.69754129 1.3408312.24946789-.1948971.54434862-.4184197.89826605-.671786-.23584404-.4452181-.46109174-.8968312-.67574312-1.354535"/><path d="m3.74026239 52.1938444c-.30850459-.803646-.58461468-1.6231275-.82711927-2.4569218-.25491743.6806173-.44444037 1.3463128-.58552294 1.998.35331193.9683951.75112844 1.9148642 1.19042202 2.8378848-.0133211-.7591852.05388991-1.5527819.22222019-2.378963"/><path d="m52.2586789 16.5875416-.006055-.1275967c-.8077432-.6462058-1.6478808-1.2537367-2.5179909-1.8180247v.1004938c.8728349.5731193 1.714789 1.1891769 2.5240459 1.8451276"/><path d="m52.2246798 15.8754667h1.7877523c-1.4068899-1.2074486-2.9167156-2.2970453-4.5137339-3.2544774l-.2397799.5639835c-.0974862.2280906-.0741743.4899836.0617615.6970618.0980918.1498271.2467431.2539753.4138624.301786v.4583127c.8701101.5642881 1.7102477 1.1715144 2.5182936 1.8177202z"/></g><path d="m3.15988624 32.5988576-.21525688.0036543c-.73417431 2.6609548-1.12805505 5.4632099-1.12805505 8.3565186 0 .7622304.02845872 1.5180658.08204587 2.2668971l2.86948624-4.3431605z" fill="#fff"/><path d="m1.81642294 40.9589086c0-2.8930041.39418348-5.6952592 1.12835779-8.3565185l-.15198165.0024362c-.7335688 2.6606502-1.12775229 5.4616873-1.12775229 8.3540823 0 .8313581.03542202 1.6547984.09930275 2.4700165l.13411927-.2031193c-.05328441-.7488313-.08204587-1.5046667-.08204587-2.2668972" fill="#fff"/><path d="m2.79267798 32.6047959-.81440367.0130946-.43747706 6.4751523s.14017431 3.4652099.22100917 4.3401152l.00272477-.0042633c-.06388073-.8152182-.0996055-1.638354-.0996055-2.4700165 0-2.8923951.39418348-5.6934321 1.12775229-8.3540823" fill="#fff"/><path d="m19.2273488 34.2676642-.0130231.6489465c.1026703-.039284.2041292-.0736955.3061939-.1114568z" fill="#fff"/><path d="m55.6756172 24.6267432-.1256878-2.567465.125385 2.567465z" fill="#fff"/><path d="m55.6779945 24.6267432-.1260991-2.567465h-.3213394l.1248807 2.567465z" fill="#fff"/><path d="m53.7597248 22.0593695.1238707 2.5674651z" fill="#fff"/><path d="m52.5197422 22.0593695.4644954 9.6577614v-9.6577614z" fill="#fff"/><path d="m54.6192083 39.8645309-.5077156-10.5156132h-.7892753v-4.7222963h.5613028l-.1238257-2.5671605h-.7780734v9.6577613l.3412018 7.1341482c.4389909.3206666.8707156.660823 1.2963854 1.0131605" fill="#fff"/><path d="m20.906378 20.5626206-1.3118257-3.9819918-.3063853 14.7269136 1.5858165 2.9106667z" fill="#fff"/><path d="m55.9062083 29.3488263.5961192 12.1993416z" fill="#fff"/><path d="m55.5827477 29.3488263.5731101 11.8692346c.1171651.1099342.2316055.2198683.3463486.330107l-.5961192-12.1993416z" fill="#fff"/><path d="m50.8569661 18.0108691-2.1776973 4.4177696 2.3899266.0213169z" fill="#fff"/><path d="m51.8033697 37.8229531-.6291192-13.1704774-2.9503211-.0255802.3415045 11.4090946c1.0871835.5183046 2.1725505 1.1112181 3.2379358 1.786963" fill="#fff"/><path d="m47.0758321 35.3706601-.2576422-8.6153663-.762633 1.485786.2385688 6.8143951c.2597615.1017119.5204312.2061646.7817064.3151852" fill="#fff"/><path d="m59.3231009 44.6609794c-.2703578-.3480741-.5625137-.6979753-.865266-1.0487901v1.3816379h-.756578c.7111651.8624197 1.3172752 1.7120493 1.8207523 2.5437119.0090825.0200988.0217981.0371523.0323945.0563374 1.1216972 1.8682716 1.7429449 3.6473169 1.9754587 5.2929795.3418073-.8304445.6500092-1.6785515.9206697-2.5427984-.3554312-1.0862469-.8586055-2.2078189-1.5358624-3.3564938l-1.1141284-21.5065926c-.4174954-.734214-.8695046-1.445284-1.3427064-2.1411276v4.6172346z" fill="#000"/><path d="m19.227344 34.2676642.2930643.5374897c-.1020276.0377613-.2034496.0721728-.3060826.1114568zm.3672386-17.6872181 1.3118257 3.9822963-.0326973 13.6552839-1.5855138-2.9106666zm27.223789 10.1751523.2573394 8.6150617c-.2612752-.1090206-.5216422-.2134733-.7817064-.3151852l-.2385688-6.8143951zm4.3556972-2.1030618.629422 13.1704774c-1.0653853-.6757449-2.151055-1.2686584-3.2382385-1.786963l-.3415046-11.4093991zm-.3169816-6.6417284.2122293 4.4390865-2.3902293-.0213169zm-47.45944959 13.0961729c-.16227522.4908971-.31244036.9869712-.45079816 1.4882222l14.85423855-.3492922-.068422 3.273358c-2.6269817 1.131926-5.2918074 2.6685679-7.7053487 4.7646256-3.68025684 3.1969218-5.89095409 6.3317201-7.02778895 9.2347736.23342202.8234403.50105504 1.6322634.79805504 2.4267737.71691744-3.1749959 2.86706422-6.7894239 7.18915601-10.5436297 8.7568073-7.6067736 21.456055-7.5431275 21.5789724-7.5431275h.0187707v-.0009136c.1410825.005786 11.716211-.0673004 20.3970275 6.5805185v-8.721037l-.4616972-9.6577613h.4616972v-.3617778h4.2845505c-.2942753-.3782222-.594-.751572-.9049266-1.115177h-3.9112569l-.1910367-3.9950864c-.8092569-.6556461-1.6515138-1.2717037-2.5240459-1.8451276v.7838519l-3.301211 7.0899918c-.0593395.0581646-.1123211.1233333-.1504679.1985514l-2.2712477 4.4613169c-.1849817.3623868-.0423853.8076049.3184954.9936707.0835596.0429383.1716606.0636461.2597615.0724774l.2158624 6.1691029c-6.3363028-2.1590947-11.8557799-2.134428-12.234523-2.1301646-.3745046-.0015226-4.7958991-.0118766-10.2284862 1.5128889l.0314862-13.4479013c0-.079786-.0124128-.1589629-.0375413-.234181l-1.3999266-4.2484527v-3.87693c-.9391376.3958847-1.8549633.8368395-2.745055 1.3201234l-.3599725 17.3601564z" fill="#000"/><path d="m18.1919615 13.4066683c.889789-.4832839 1.8059174-.9242387 2.745055-1.3201234v-.062428c-.9382293.3897942-1.8537523.8243539-2.7432385 1.3012428z" fill="#000"/><path d="m2.99963945 49.518516c-.02845872.0727819-.05933945.1458684-.08658716.2183457.24280734.8340988.51891743 1.6532757.82711927 2.4569218.01695413-.0819177.03875229-.1656625.05752294-.2481893-.29730276-.7945102-.56463303-1.6033333-.79805505-2.4270782" fill="#000"/><path d="m3.39760734 31.1070115-.15258716.0036543c-.16197247.4908972-.31244036.9869712-.45049541 1.4882223l.1522844-.0036544c.1383578-.501251.28852294-.9973251.45079817-1.4882222" fill="#000"/><path d="m54.929045 42.0855663c.0006055.000609.0021192.0012181.0030275.0027407 1.0659908.9811852 1.982422 1.9514074 2.7689725 2.9054897h.7565779v-1.3816379c-.134422-.1562222-.266422-.3118353-.4072018-.4686666l-1.5482752-1.5954157c-.1147431-.1099341-.2291835-.2201728-.3463487-.330107l-1.5364678-1.3533168c-.4259725-.3523375-.8573945-.6927984-1.2966881-1.0131605l-.3412019-7.1341482v8.7210371c.4008441.3066584.7950276.626716 1.181945.962609.2636973.2290041.5183119.4570947.7656606.6845762" fill="#000"/><path d="m55.2306165 22.0569867h.3194037l1.4710734.0006051h.5270917c-.0923394-.121311-.1883119-.2398992-.2821651-.36h-4.2845505v.3593949h.7783762z" fill="#000"/><path d="m58.457808 27.9570477v-4.6172345c-.0875272-.1288148-.1702087-.261284-.2592502-.3885762z" fill="#000"/></g></svg>