<svg height="66" viewBox="0 0 66 66" width="66" xmlns="http://www.w3.org/2000/svg" xmlns:xlink="http://www.w3.org/1999/xlink"><mask id="a" fill="#fff"><path d="m.00003041.15137615h65.84789589v65.54581105h-65.84789589z" fill="none"/></mask><mask id="b" fill="#fff"><path d="m0 65.8486239h65.8479263v-65.54587161h-65.8479263z" fill="none"/></mask><g fill="none" fill-rule="evenodd" transform=""><path d="m63.4958627 34.4928716c0 17.026789-13.8663871 30.8298715-30.9716406 30.8298715-17.1052534 0-30.97194468-13.8030825-30.97194468-30.8298715s13.86669128-30.8298716 30.97194468-30.8298716c17.1052535 0 30.9716406 13.8030826 30.9716406 30.8298716" fill="#5cd8ff"/><path d="m32.9239935 64.0320495c-17.2320829 0-31.25115203-13.9550642-31.25115203-31.1077981 0-17.152734 14.01906913-31.10779819 31.25115203-31.10779819 17.2317789 0 31.2511521 13.95506419 31.2511521 31.10779819 0 17.1527339-14.0193732 31.1077981-31.2511521 31.1077981m0-63.8807339c-18.154258 0-32.92396309 14.7019541-32.92396309 32.7729358 0 18.0709816 14.76970509 32.7729358 32.92396309 32.7729358 18.1542581 0 32.9239632-14.7019542 32.9239632-32.7729358 0-18.0709817-14.7697051-32.7729358-32.9239632-32.7729358" fill="#000" mask="url(#a)" transform="translate(0 .151376)"/><g fill="#fff"><path d="m33.228141 44.4288385c-6.1310046 0-11.1013825-4.9472752-11.1013825-11.0504587 0-6.1028807 4.9703779-11.0504587 11.1013825-11.0504587s11.1013825 4.947578 11.1013825 11.0504587c0 6.1031835-4.9703779 11.0504587-11.1013825 11.0504587m.1520737-34.81651373c-13.270258 0-24.02764972 10.70834863-24.02764972 23.91743123 0 13.2093853 10.75739172 23.9174312 24.02764972 23.9174312 13.2702581 0 24.0276498-10.7080459 24.0276498-23.9174312 0-13.2090826-10.7573917-23.91743123-24.0276498-23.91743123"/><path d="m20.6059908 45.0344037h24.9400921v-24.8256881h-24.9400921z" mask="url(#b)"/><path d="m55.5108055 34.1352606c0-.3714771-.2667373-.6366881-.6399262-.6366881-.3728848 0-.639318.265211-.639318.6366881 0 11.8327706-9.6484701 21.4369816-21.5357696 21.4369816-.3728848 0-.6396221.265211-.6396221.6366881 0 .371477.2667373.636688.6396221.636688 12.5804516 0 22.8150138-10.1879174 22.8150138-22.7103577m-22.8150138 9.4979449c5.2772627 0 9.5417143-4.2448899 9.5417143-9.4979449 0-5.2530551-4.2644516-9.497945-9.5417143-9.497945s-9.5417143 4.2448899-9.5417143 9.497945c0 5.253055 4.2644516 9.4979449 9.5417143 9.4979449m-12.046977-9.4979449c0-6.6326973 5.3837143-11.9917156 12.046977-11.9917156.3731889 0 .6399263-.2655138.6399263-.6366881 0-.3714771-.2667374-.6366881-.6399263-.6366881-7.3561106 0-13.3265253 5.9427248-13.3265253 13.2650918 0 .371477.2667373.6369908.6396221.6369908.3199631 0 .6399262-.2655138.6399262-.6369908m-3.1451889 0c0-8.3305322 6.8232442-15.1224771 15.1921659-15.1224771.3731889 0 .6399263-.265211.6399263-.6366881s-.2667374-.6366881-.6399263-.6366881c-9.1149954 0-16.4714101 7.3756514-16.4714101 16.3958533 0 .371477.2664331.6369908.6396221.6369908.3199631 0 .6396221-.2655138.6396221-.6369908m15.1921659-18.3062202c.3731889 0 .6399263-.265211.6399263-.6366881 0-.3711743-.2667374-.6366881-.6399263-.6366881-10.8209585 0-19.6165991 8.7552936-19.6165991 19.5266147 0 .3714771.2667374.6366881.6399263.6366881.3728848 0 .6396221-.265211.6396221-.6366881-.0535299-10.0286697 8.2092443-18.2532385 18.3370507-18.2532385m-21.5354654 18.3062202c0-11.8324679 9.6481659-21.4366789 21.5354654-21.4366789.3731889 0 .6399263-.2655138.6399263-.6366881 0-.3714771-.2667374-.6366881-.6399263-.6366881-12.5801475 0-22.81470967 10.1876147-22.81470967 22.7100551 0 .371477.26643317.6369908.63962207.6369908.373189 0 .6396222-.2655138.6396222-.6369908m33.5827465 0c0 6.6326972-5.3837143 11.9920183-12.0472811 11.9920183-.3728848 0-.6396221.265211-.6396221.6366881 0 .3711743.2667373.636688.6396221.636688 7.3564148 0 13.3265254-5.9427247 13.3265254-13.2653944 0-.3714771-.2664332-.6366881-.6396222-.6366881-.3199631 0-.6396221.265211-.6396221.6366881m3.145189 0c0 8.3308348-6.8232443 15.122477-15.1924701 15.122477-.3728848 0-.6396221.2655138-.6396221.6366881 0 .3714771.2667373.6369908.6396221.6369908 9.1152995 0 16.4717143-7.3756514 16.4717143-16.3961559 0-.3714771-.2664332-.6366881-.6399263-.6366881-.319659 0-.6393179.265211-.6393179.6366881m-15.1924701 18.3062201c-.3728848 0-.6396221.265211-.6396221.6366881s.2667373.6366881.6396221.6366881c10.8209585 0 19.6165991-8.7549908 19.6165991-19.5266147 0-.3711743-.2667373-.6366881-.6396221-.6366881-.373189 0-.6399263.2655138-.6399263.6366881.05353 10.0286697-8.2089401 18.2532385-18.3370507 18.2532385m25.3202765-18.3062201c0 13.9020825-11.354129 25.2041284-25.3202765 25.2041284s-25.32027649-11.3020459-25.32027649-25.2041284c0-13.9020826 11.35412899-25.20412849 25.32027649-25.20412849s25.3202765 11.30204589 25.3202765 25.20412849m-25.3202765 2.3348256c-1.2792442 0-2.3455852-1.0611468-2.3455852-2.3348256 0-1.2733762 1.066341-2.334523 2.3455852-2.334523s2.3455853 1.0611468 2.3455853 2.334523c0 1.2736788-1.0663411 2.3348256-2.3455853 2.3348256" mask="url(#b)"/></g><path d="m56.1191005 33.529756c0-.3714771-.2667374-.6366881-.6399263-.6366881-.3728848 0-.639318.265211-.639318.6366881 0 11.8327706-9.64847 21.4369816-21.5357696 21.4369816-.3728848 0-.6396221.265211-.6396221.6366881s.2667373.6366881.6396221.6366881c12.5804516 0 22.8150139-10.1879175 22.8150139-22.7103578m-22.8150139 9.4979449c5.2772627 0 9.5417143-4.2448899 9.5417143-9.4979449 0-5.2530551-4.2644516-9.497945-9.5417143-9.497945-5.2772626 0-9.5417142 4.2448899-9.5417142 9.497945 0 5.253055 4.2644516 9.4979449 9.5417142 9.4979449m-12.0469769-9.4979449c0-6.6326973 5.3837143-11.9917156 12.0469769-11.9917156.373189 0 .6399263-.2655138.6399263-.6366881 0-.3714771-.2667373-.6366881-.6399263-.6366881-7.3561106 0-13.3262212 5.9427248-13.3262212 13.2650918 0 .371477.2664332.6369908.639318.6369908.3199631 0 .6399263-.2655138.6399263-.6369908m-3.145189 0c0-8.3305321 6.8232443-15.1224771 15.1921659-15.1224771.373189 0 .6399263-.265211.6399263-.6366881 0-.371477-.2667373-.636688-.6399263-.636688-9.1149954 0-16.4714101 7.3756513-16.4714101 16.3958532 0 .371477.2664332.6369908.6396221.6369908.3199632 0 .6396221-.2655138.6396221-.6369908m15.1921659-18.3062202c.373189 0 .6399263-.265211.6399263-.6366881 0-.3711743-.2667373-.6366881-.6399263-.6366881-10.8209585 0-19.616599 8.7552936-19.616599 19.5266147 0 .3714771.2667373.6366881.6399262.6366881.3728848 0 .6396221-.265211.6396221-.6366881-.0535299-10.0286697 8.2092443-18.2532385 18.3370507-18.2532385m-21.5354654 18.3062202c0-11.8324679 9.6481659-21.4366789 21.5354654-21.4366789.373189 0 .6399263-.2655138.6399263-.6366881 0-.3714771-.2667373-.6366881-.6399263-.6366881-12.5801474 0-22.8147096 10.1876147-22.8147096 22.7100551 0 .371477.2664331.6369908.6396221.6369908.3731889 0 .6396221-.2655138.6396221-.6369908m33.5827465 0c0 6.6326972-5.3837142 11.9920183-12.0472811 11.9920183-.3728848 0-.6396221.265211-.6396221.6366881 0 .3711743.2667373.6366881.6396221.6366881 7.3564148 0 13.3265254-5.9427248 13.3265254-13.2653945 0-.3714771-.2664332-.6366881-.6396221-.6366881-.3199632 0-.6396222.265211-.6396222.6366881m3.145189 0c0 8.3308348-6.8232443 15.122477-15.1924701 15.122477-.3728848 0-.6396221.2655138-.6396221.6366881 0 .3714771.2667373.6369908.6396221.6369908 9.1152996 0 16.4717143-7.3756513 16.4717143-16.3961559 0-.3714771-.2664332-.6366881-.6399262-.6366881-.319659 0-.639318.265211-.639318.6366881m-15.1924701 18.3062201c-.3728848 0-.6396221.2652111-.6396221.6366881 0 .3714771.2667373.6366881.6396221.6366881 10.8209586 0 19.6165991-8.7549908 19.6165991-19.5266147 0-.3711743-.2667373-.6366881-.6396221-.6366881-.3731889 0-.6399263.2655138-.6399263.6366881.05353 10.0286697-8.2089401 18.2532385-18.3370507 18.2532385m25.3202765-18.3062201c0 13.9020825-11.354129 25.2041284-25.3202765 25.2041284-13.9661474 0-25.32027646-11.3020459-25.32027646-25.2041284 0-13.9020826 11.35412906-25.20412848 25.32027646-25.20412848 13.9661475 0 25.3202765 11.30204588 25.3202765 25.20412848m-25.3202765 2.3348257c-1.2792442 0-2.3455852-1.0611468-2.3455852-2.3348257 0-1.2733762 1.066341-2.334523 2.3455852-2.334523 1.2792443 0 2.3455853 1.0611468 2.3455853 2.334523 0 1.2736789-1.066341 2.3348257-2.3455853 2.3348257" fill="#000" mask="url(#b)"/></g></svg>