<svg height="76" viewBox="0 0 66 76" width="66" xmlns="http://www.w3.org/2000/svg" xmlns:xlink="http://www.w3.org/1999/xlink"><mask id="a" fill="#fff"><path d="m0 .272992h65.9239327v75.4229776h-65.9239327z" fill="none"/></mask><g fill="none" fill-rule="evenodd" transform=""><path d="m44.21903 38.6024432c-.0256645-.0036288-.0498193-.0096768-.0763896-.0102816-.0051329 0-.009662.001512-.0144929.001512.0314013 0 .060689.004536.0908825.0087696" fill="#4598fa"/><path d="m21.7347733 68.3092864c0-.35264.2858986-.6384.6390138-.6384h2.5797788l-.066-6.911744-1.3026636 1.302032c-.1222673.122208-.2855945.18696-.451659.18696-.0875945 0-.1761014-.017936-.2597419-.055328-.2414931-.107616-.391742-.35264-.3780553-.616512l1.2783318-24.321824h-.3674102c-2.7069124 0-3.9843318-2.309792-3.9843318-3.6784v-3.035744c0-.352336.2858987-.6384.6387097-.6384-.352811 0-.6387097.28576-.6387097.6384v-.74936c-.2442304-.13072-.4060368-.379392-.4224608-.662112-.0693456-1.211136-.1326083-3.906704.4224608-6.463344.235106-1.08224.5806176-2.139856 1.0839816-3.04912.5660184-1.022048 1.3306452-1.856832 2.3607926-2.33016.0203779-.009424.0416682-.017632.0632627-.025232l7.1331705-2.393088c-.4753825-.47424-.8227189-1.074032-.9976037-1.742832-15.0841935 2.189104-26.7084055 15.198176-26.7084055 30.871808 0 12.042656 6.86247926 22.512112 16.8832258 27.710208v-.01824c0-.35264.2858986-.638096.6387097-.638096h1.8556037z" fill="#5cd8ff"/><path d="m38.3993171 13.172776c-.1973918.716224-.5973457 1.347936-1.1353825 1.830992l5.4053087 1.526688c.4845069.1368.8656037.289104 1.1995576.478496 4.4910415 2.545696 4.7708572 11.23432 4.7811982 12.9504.0015207.268736-.1459908.504032-.3744056.633536l.1973918 2.687056c.002129.033744.0039539.151392-.0015208.33136-.0620461 2.062336-.9011889 4.025568-2.3227742 5.521552l-.8908479.937536c.0726912.101232.1170968.224656.1207465.359024l.5946083 22.054592c.0069954.25384-.1374746.487616-.3674101.595232-.086682.040736-.1791429.060192-.2706912.060192-.1523779 0-.3029309-.054112-.4221567-.158688l-1.3510231-1.187728v5.878144h1.7728756c.3528111 0 .6387097.285456.6387097.638096v2.741472h1.8556037c.2624792 0 .4872442.158384.585788.38456 9.7406267-5.285952 16.3686083-15.6028 16.3686083-27.438128 0-15.561456-11.4581475-28.497568-26.3841843-30.824384" fill="#5cd8ff"/><g fill="#000"><path d="m32.96773 75.0831056c-17.8659263 0-32.34882032-14.476176-32.34882032-32.333136 0-16.722432 12.70119812-30.479344 28.98707832-32.159856v-.616512-4.61016h7.0483134v4.648464.615296c16.1292442 1.829168 28.6619447 15.511904 28.6619447 32.122768 0 17.85696-14.482894 32.333136-32.3485161 32.333136zm-3.2817512-71.503232h6.8636959.3905253l-.1128387.506768h-7.3475945l-.1125345-.506768zm2.0320092-2.030416h2.7999816c1.0709032 0 1.3187834.174496 1.375659.75392h-5.5516037c.0571797-.579424.3044516-.75392 1.3759631-.75392zm6.2137327 8.628736v-5.214512c.0127742-.03192.0237235-.06536.0316314-.100016l.3966083-1.783264c.0416682-.189088-.0042581-.387296-.1256129-.538384-.1210507-.150784-.3044516-.23864-.4978894-.23864h-.5641936c-.0711705-.99408-.4653456-2.030416-2.6542949-2.030416h-2.7999816c-2.1895576 0-2.5834286 1.036336-2.6545991 2.030416h-.4924147c-.1937419 0-.3768387.087856-.4981936.23864-.1210506.151088-.1672811.349296-.1253087.53808l.3810968 1.71456v5.336416c-15.9890323 2.258416-28.32859911 16.024448-28.32859911 32.618896 0 13.036432 7.61494009 24.328208 18.63207371 29.666448.420636.20368.8470507.397632 1.2774194.58368 4.0050138 1.733104 8.4181935 2.695872 13.0524885 2.695872 4.160129 0 8.1417235-.776416 11.8103502-2.188496.1161843-.044688.2329769-.089072.348553-.134976.493023-.196384.9802673-.404016 1.4614285-.622896.4306729-.196384.8564793-.401888 1.2774194-.615904 10.7099447-5.446768 18.0642304-16.57256 18.0642304-29.383728 0-16.478016-12.1665069-30.169568-27.992212-32.571776z" mask="url(#a)" transform="translate(0 .031008)"/><path d="m47.8065069 70.2192272c-.0982396-.226176-.3230046-.38456-.585788-.38456h-1.8552995v-2.741472c0-.35264-.2862028-.638096-.6390139-.638096h-1.7728755v-5.878144l1.351023 1.187728c.1192258.104576.2697788.158688.4221567.158688.0918525 0 .1840092-.019456.2709954-.060192.2299355-.107616.3741014-.341392.3674101-.595232l-.5946083-22.054592c-.0039539-.134368-.0483594-.257792-.1210507-.35872-.0291981-.040128-.0626544-.076304-.1000645-.108528.0374101.032224.0708664.0684.1000645.108528l.8911521-.93784c1.4215852-1.495984 2.260424-3.459216 2.3227742-5.521552.0051705-.179968.0033456-.297312.0012166-.33136l-.1973917-2.687056c.2284147-.129504.3759262-.3648.3744055-.633536-.010341-1.71608-.2901567-10.404704-4.780894-12.9504-.3342581-.189392-.7153548-.341696-1.1998618-.478496l-5.4053087-1.526384c.5380369-.48336.9379908-1.114768 1.1353825-1.831296 14.926341 2.326816 26.3841843 15.262928 26.3841843 30.824384 0 11.835328-6.6279816 22.152176-16.3686083 27.438128zm-2.4410875 1.188032c-.4212443.183008-.8473549.356896-1.2777235.521664-.3062765.11704-.6146821.229824-.9258249.337744-1.6101567.558144-3.2802304.987392-4.9971429 1.276496-1.6925806.285152-3.4301751.435936-5.2027465.435936-1.7725715 0-3.5101659-.150784-5.2027466-.435936-1.7172166-.289104-3.3869862-.718352-4.997447-1.276496-.1192258-.041344-.2387557-.0836-.3576774-.12616-.4306728-.15504-.8561751-.320112-1.2777235-.493392-.4099908-.168416-.8157235-.345344-1.216894-.53048v-.005472h1.216894 1.2777235 21.6835853 1.2777235.6603041c-.218682.101232-.4391889.199728-.6603041.296096zm-26.7333457-.934496v.018544c-10.02074651-5.1984-16.88322577-15.667856-16.88322577-27.710208 0-15.673936 11.62451617-28.683008 26.70840557-30.872112.1748847.6688.5225253 1.268592.9976036 1.742832l-7.1331705 2.393088c-.0212903.0076-.0428848.015808-.0632626.025232-1.0301475.473328-1.7947742 1.308416-2.3604885 2.33016-.5036682.909568-.8491797 1.96688-1.0842857 3.049424-.5550692 2.556336-.4918065 5.251904-.4221567 6.46304.0161198.283024.1779263.531392.4221567.662112v.74936c0-.35264.2862027-.6384.6387096-.6384-.3525069 0-.6387096.286064-.6387096.638704v3.03544c0 1.368608 1.2777235 3.6784 3.9843318 3.6784h.3674101l-1.2783318 24.321824c-.0136866.263872.1368664.5092.3780553.616512.0836406.037392.1721475.055328.2597419.055328.1660646 0 .3293917-.064752.451659-.186656l1.3029678-1.302336.0656958 6.912048h-2.5797788c-.352811 0-.6390138.285456-.6390138.638096v2.741472h-1.8556037c-.3525069 0-.6387097.285456-.6387097.638096zm11.5466544-55.716816.3880922-.130416-.3880922.428032-.0404516.044688-5.4494101 6.008256-.1046268.115216-1.1831336 1.304768-.0942857.103664-3.215447 3.545552-.4708203.518928c-.0489677-2.186976.150553-3.876304.4708203-5.183808.2129032-.869744.4790322-1.57016.763106-2.13104.7357327-1.453424 1.5855207-1.98056 1.9088295-2.135904l.5435115-.1824 1.0182857-.341696zm1.8188019.19304h1.0185898l1.2284516 1.276496 7.4315392 7.722208v8.116192l-3.2270046 2.698-1.5265161 1.276496-.8409678.703152v-.703152-.6384-.638096-5.437648-2.971904c0-.35264-.2858986-.6384-.6387097-.6384h-3.568258c-.3525069 0-.6384056.28576-.6384056.6384v2.333504h-5.8229032c-.5973456 0-.7764885-.182096-.7719262-.779152l.0334562-4.88376 6.1650691-6.79744zm12.0110875 23.656976c.002129-.000304.0042581-.000304.0066913-.000912-.0024332.000608-.0045623.000608-.0066913.000912zm-2.1129124 5.94776c-.0145991-.352336-.3166175-.617424-.6648664-.611344-.3522028.014896-.6262396.312208-.6113364.664848l.5702765 13.600656-3.1153825.43928-1.9927742-.853936v-10.91208l7.4300185-6.960688.5371244 19.918992-1.5700092-1.379552zm-5.814083 21.901376v-7.272288l1.6536498.70832c.0796866.034048.1654562.051376.2515299.051376.0298065 0 .0596129-.002128.0894194-.006384l3.5746452-.504032.0252442.022192v7.000816zm-1.2774193-21.236528v1.38624 11.604896.002736 8.242656h-2.2905346v-7.8432-.002736-13.390592zm-2.2905346-1.276496h2.2905346v-4.799552h-2.2905346zm0-6.076048h2.2905346v-1.827648h-2.2905346zm0-9.180192h2.2905346v-1.695408h-2.2905346zm0 6.076048h2.2905346v-4.799248h-2.2905346zm-7.5233917 32.969712h6.8843779 3.568258 6.8716037 1.7731798v2.103072h-21.6835853v-2.103072zm4.5220645-9.424608 1.7239078.727168v7.420944h-5.6133456l-.0802949-8.422016.0912442-1.368912h3.487659v1.054576c0 .25688.1538986.488528.3908295.58824zm-5.0677051-22.268608h6.7916129v2.465744 6.076352 13.067744l-.8370138-.352944v-1.269504-7.58176c0-.352944-.2862027-.6384-.6387097-.6384-.352811 0-.6390138.285456-.6390138.6384v6.94336h-3.4024977l.5818341-8.740304c.0234194-.351728-.2427097-.656032-.5946083-.67944-.352811-.017936-.6563502.242896-.6797696.594624l-.6122488 9.192048-.0307189.461168-.1012811 1.518784-1.0319724 1.031776zm.7478987-6.075744h.3041474.0398433 5.6997235v4.799248h-6.6471428-.0048664-1.272553-.0048663-.0945899c-1.7236037 0-3.1208571-1.092576-3.1208571-2.815344v-1.983904-1.2768-.609216l3.215447-3.545552.0799908-.088464-.0310231 3.027232-.0003041.64752c-.0048664.681872.5368202 1.84528 1.8370507 1.84528zm19.0271613 8.639984c-.0304148-.004256-.0599171-.00912-.0915484-.008816.0048663 0 .0094285-.001824.014599-.00152.026765.000304.0510968.006688.0769494.010336zm.1517695.039216c-.0282857-.011248-.0562672-.023408-.0863778-.030704.0301106.007296.0580921.019456.0863778.030704zm.1383871.076912c-.0270691-.01976-.0535299-.039824-.0830322-.055328.0295023.015504.0559631.035568.0830322.055328zm-.3716682-1.13544-8.0565622 7.548016v-.550848-6.076352-.097888l2.8319171-2.367856 1.5265161-1.276496 1.2360553-1.033296 1.0483963-.876736c.1450784-.121296.2290231-.300656.2290231-.489744v-7.086848l3.3982396 3.531264.181576 2.917488c.0066913.10336.0112535.209152.0130784.316768.0416682 2.100032-.8750323 4.106128-2.4082397 5.542528zm-9.3339815-22.63432v-.244416c.0477511-.00912.0951981-.019152.1426451-.029792.0270692-.00608.0532258-.01368.0793825-.020368l1.0553917.29792 5.6103042 1.584448.0215944.00608c.3829217.108528.674295.223136.9167005.360848.1110138.062928.2180737.131936.3233088.204288 2.8887926 1.99576 3.58894 7.539808 3.7574377 10.230208l-.4820737-.500992-3.275364-3.403888-1.2774194-1.327568-5.8134747-6.040784-1.0739447-1.115984zm1.850129-4.29096v.28424c0 .295792-.0532258.578816-.1459908.843296-.1009769.286368-.2487926.550544-.4385806.780368-.2779908.336528-.6420553.598576-1.0566083.758176-.0079079.00304-.0158157.005776-.0240277.008816-.0608295.022496-.1222673.043776-.1849216.062016-.2241567.064448-.4601752.100928-.7047097.100928h-.024636-.9389032-.0139908-.9608018c-.2448387 0-.480553-.03648-.7050138-.100928-.0629586-.01824-.1240922-.03952-.1849217-.062016-.4245899-.158384-.7971705-.42408-1.0809401-.766992-.1976958-.239552-.3509862-.516496-.4513548-.817456-.0851613-.253536-.1329125-.524096-.1329125-.806208v-.321328c-16.2858802 1.680816-28.98707831 15.437728-28.98707831 32.16016 0 17.85696 14.48289401 32.333136 32.34882031 32.333136 17.8656221 0 32.3485161-14.476176 32.3485161-32.333136 0-16.610864-12.5327005-30.2936-28.6619447-32.123072z"/></g></g></svg>