<svg height="32" viewBox="0 0 32 32" width="32" xmlns="http://www.w3.org/2000/svg"><g fill="none" fill-rule="evenodd" transform=""><g fill="#231f20"><path d="m16 17.3278341c-.4986074 0-.8910222-.4254815-.850963-.9224297l.850963-10.53439996.850963 10.53439996c.0400592.4969482-.3523556.9224297-.850963.9224297"/><path d="m16 4.89901037c-.5064296 0-.9281185.38897778-.9688889.89374815l-.8508444 10.53439998c-.0410074.5065482.1332148 1.0113185.4778666 1.3848889.3445334.3735704.8336593.5877333 1.3418667.5877333s.9973333-.2141629 1.3418667-.5877333c.3446518-.3735704.518874-.8783407.4778666-1.3848889l-.8508444-10.53439998c-.0407704-.50477037-.4624593-.89374815-.9688889-.89374815m0 .97197037.850963 10.53439996c.0401777.4969482-.3523556.9224297-.850963.9224297s-.8911407-.4254815-.850963-.9224297z"/><path d="m15.14624 16.4740741c0-.4986074.4254815-.8910222.9224296-.850963l6.9788445.850963-6.9788445.8509629c-.4969481.0400593-.9224296-.3523555-.9224296-.8509629"/><path d="m15.9987319 14.64832c-1.0059852 0-1.8244741.8190815-1.8244741 1.8257778s.8184889 1.8257778 1.8244741 1.8257778c.0491851 0 .0989629-.0021334.1481481-.0060445.0131556-.0010667.0263111-.0023704.0394667-.0039111l6.9788444-.850963c.4877037-.0594963.8542815-.4736.8542815-.9648592 0-.4913778-.3665778-.905363-.8542815-.9648593l-6.9788444-.8509629c-.0131556-.0015408-.0263111-.0028445-.0394667-.0040297-.0490667-.0039111-.098963-.0059259-.1481481-.0059259m0 .9719704c.0231111 0 .0464592.0009481.0699259.0028444l6.9788444.850963-6.9788444.8508444c-.0233482.0020148-.0468148.0028445-.0699259.0028445-.4663704 0-.8523852-.3786667-.8523852-.8536889s.3861333-.8538074.8523852-.8538074"/></g><path d="m16 3.55555556c-6.86186667 0-12.44444444 5.58257777-12.44444444 12.44444444 0 6.8618667 5.58257777 12.4444444 12.44444444 12.4444444 6.8618667 0 12.4444444-5.5825777 12.4444444-12.4444444 0-6.86186667-5.5825777-12.44444444-12.4444444-12.44444444m0 28.44444444c-8.8224 0-16-7.1776-16-16s7.1776-16 16-16 16 7.1776 16 16-7.1776 16-16 16" fill="#4bccef"/></g></svg>