<svg height="74" viewBox="0 0 66 74" width="66" xmlns="http://www.w3.org/2000/svg" xmlns:xlink="http://www.w3.org/1999/xlink"><mask id="a" fill="#fff"><path d="m0 .1487582h1.02768387v13.0558443h-1.02768387z" fill="none"/></mask><mask id="b" fill="#fff"><path d="m0 73.8529098h65.9087558v-73.8529098h-65.9087558z" fill="none"/></mask><g fill="none" fill-rule="evenodd" transform=""><path d="m31.7378793 73.6408877c6.800129 0 13.0987189-2.1805738 18.2318156-5.8757213h-36.4639355c5.133401 3.6951475 11.4316867 5.8757213 18.2321199 5.8757213" fill="#5cd8ff"/><path d="m45.4660922 27.3310811h1.6554746c.4787281 0 .8689493.3827378.8762489.8597951v5.2418689h3.2422119c.4838987 0 .8762489.3909262.8762489.8734426v3.2811721h10.4508111c-2.1579263-13.4886229-13.034848-24.1145983-26.6694747-25.9327541v3.4455492c5.4101751 1.7244426 9.2074562 6.5787213 9.5684793 12.2309262" fill="#5cd8ff"/><path d="m11.6635382 32.8105385c0-.4825164.3920461-.8737459.8759447-.8737459h3.2425162v-5.248541c0-.4825164.3920461-.8734426.8759447-.8734426h1.6557788c.3598064-5.6503852 4.1540461-10.5040574 9.5614839-12.2309262v-3.4446394c-13.6382765 1.8217951-24.51641479 12.4559591-26.66582493 25.9524673h10.45415663z" fill="#5cd8ff"/><g fill="#000"><path d="m32.9476258 14.6845721h.0033213.0033213z"/><path d="m14.7222276 66.2489246h36.4642397c.7780092-.5601557 1.5298617-1.1542787 2.252212-1.7817623h-40.9683595c.7220461.6274836 1.4738986 1.2216066 2.2519078 1.7817623"/><path d="m37.1142028 8.39348033v-.58108197c.0003041-.46917213-.3713641-.85494262-.8415761-.87344262h-2.442v-6.06527049c0-.4825164-.3923502-.87344263-.8762488-.87344263s-.8762489.39092623-.8762489.87344263v6.06527049h-2.4143225c-.4838987 0-.8762489.39122951-.8762489.87344262v.5819918c1.3650138-.17256557 2.7558802-.2617295 4.1668203-.2617295 1.408811 0 2.7972442.08886065 4.1598249.26081967"/><path d="m44.9305493 25.8146877h-23.9522212c.451659-6.2642213 5.6744793-11.1191066 11.9724608-11.1300246h-.0030414.0066912-.0036498c6.3007189.0072787 11.5277973 4.8630738 11.9797604 11.1300246zm2.5317235 1.7265656v4.3750983h-29.0226636l.0209862-4.3750983zm4.1184608 6.128959v3.2814754 18.2082459h-8.9680921v-21.4897213zm-17.750046 21.4897213h7.0087742v-21.4897213h-7.0087742zm-8.7682673 0h7.0157696v-21.4897213h-7.0157696zm-1.7728756 0h-8.9683963v-21.4897213-.0066721h8.9683963zm12.0795207-41.9956066c-1.5958617-.2999426-3.2333917-.2999426-4.8289493 0v-3.21081143c-.5891336.04518853-1.1730967.10827053-1.7524977.18560653v3.4446394c-5.4071336 1.7268688-9.2016774 6.580541-9.5614838 12.2309262h-1.6557788c-.4838987 0-.8759447.3912295-.8759447.8734426v5.2488443h-3.2425162c-.4838986 0-.8759447.3912295-.8759447.8734426v3.2814754h-10.45415665c-.08941936.5616722-.16515208 1.1275902-.22385254 1.6989672h10.67800919v17.3348033h-3.44933638c-.48389861 0-.87624884.3912295-.87624884.8737459v3.7830984l-.17093088.0006065c.60890323.7994427 1.25552074 1.5685574 1.9371152 2.3049181v-5.187582h45.8757788l-.0048663 5.193041c.6779447-.7321148 1.3206082-1.4960738 1.92647-2.2900574h-.1554194v-3.7834016c0-.4825164-.3923502-.8737459-.8762488-.8737459h-3.4493364v-17.3211558h10.681659c-.0599171-.589877-.1383871-1.1742951-.2311521-1.7541639h-10.4505069v-3.2811721c0-.4825164-.3923502-.8734427-.8762489-.8734427h-3.2422119v-5.2418688c-.0072996-.4770574-.3978249-.8597951-.8762489-.8597951h-1.6554746c-.3610231-5.6522049-4.1583042-10.5064836-9.5684793-12.2309262v-3.4455492c-.5772719-.0770328-1.1588018-.13981148-1.7451982-.18469673z"/><path d="m60.1031889 48.3618508c.496977 0 .8996682-.401541.8996682-.8970983v-6.8083033c0-.4955574-.4026912-.8970984-.8996682-.8970984-.4966728 0-.899364.401541-.899364.8970984v6.8083033c0 .4955573.4026912.8970983.899364.8970983"/><path d="m5.93969585 39.7594115c-.49697696 0-.89936405.401541-.89936405.8970983v6.8083033c0 .4955574.40238709.8970984.89936405.8970984s.89966821-.401541.89966821-.8970984v-6.8083033c0-.4955573-.40269125-.8970983-.89966821-.8970983"/><path d="m7.53199908 61.5849836h-.23814747c.31509678.3894098.63840553.7712377.97023042 1.1457869v-.2756803c-.24909678-.2853853-.4927189-.5759263-.73208295-.8701066"/><path d="m7.53199908 61.5849836c.23936405.2941803.48298617.5847213.73208295.8701066v-.8701066z"/><path d="m57.6584212 62.4437172v.2717377c.3269585-.3696967.6460092-.7463688.9565438-1.1306229h-.2344977c-.2360185.2902377-.4759908.5771393-.7220461.8588852"/><path d="m57.6584212 62.4437172c.2460553-.2817459.4860276-.5686475.7220461-.8588852h-.7220461z"/><path d="m1.02759263 48.2395385v.9083197c.99395391 3.8661967 2.67832258 7.4588361 4.91198156 10.6414426l.22932719-.0006065c-2.41584332-3.4240164-4.18780645-7.3317623-5.14130875-11.5491558"/><path d="m1.73361014 40.9928156c0-1.0808853.05596313-2.1490328.16423963-3.2020164h-.8701659v10.4488606c.95319816 4.2170902 2.72546544 8.1251394 5.14130876 11.5491558l1.91035023-.005459c-3.98007374-5.2257951-6.34573272-11.7374918-6.34573272-18.790541"/><path d="m32.9562332 73.669032c-7.8898894 0-15.1273825-2.7840984-20.7793549-7.4200164h-.2804239c5.7146267 4.7450983 13.0573548 7.6038033 21.0579539 7.6038033s15.3433272-2.858705 21.0576498-7.6038033h-.2764701c-5.6519723 4.635918-12.8894654 7.4200164-20.7793548 7.4200164"/><path d="m32.9544691 72.1244943c-6.8004332 0-13.0987189-2.1805738-18.2321198-5.8757213h-2.5454101c5.6519723 4.6362213 12.8891613 7.4203196 20.7793548 7.4203196 7.8898894 0 15.1273825-2.7840983 20.7793548-7.4203196h-2.549364c-5.1330968 3.6951475-11.4316866 5.8757213-18.2318157 5.8757213"/><path d="m65.3117143 36.0710574h.2275023c-2.1852995-14.4436476-13.8326267-25.8366148-28.4250138-27.67751642v.26112295c14.4789401 1.83028687 26.0073456 13.09223767 28.1975115 27.41639347"/><path d="m37.1142028 8.65454262v1.48363938c13.6346267 1.8181557 24.5115484 12.4441311 26.6694746 25.9327541h1.5280369c-2.1901659-14.3241558-13.7188756-25.5861066-28.1975115-27.41639348"/><path d="m10.0165797 64.466274h.1612336c-.0540465-.0521722-.1074891-.1046461-.1612336-.1571199z"/><path d="m10.0165797 62.0881836v2.2209098c.0541383.0530738.1079724.105541.1624148.1580082h2.2911428c-.8607373-.7478852-1.6795023-1.5424754-2.4535576-2.378918"/><path d="m28.787588 8.65572541v-.26142623c-14.5957327 1.84454102-26.24397233 13.24600002-28.42075574 27.69753282h.23084792c2.18195392-14.3305246 13.70944702-25.600664 28.18990782-27.43610659"/><path d="m28.787588 10.1391221v-1.48333603c-14.4804608 1.83544263-26.0079539 13.10558193-28.18990782 27.43610653h1.52408295c2.14971429-13.4965082 13.02754837-24.1309754 26.66582487-25.9527705"/><path d="m59.733376 59.803373h.2259816c2.225447-3.1671394 3.9067742-6.7406722 4.9040737-10.586246l.0009125-.883754c-.9598894 4.1876721-2.7278986 8.0678196-5.1309678 11.47"/><path d="m64.0146166 37.8251303c.1061475 1.0417623.1602857 2.0983853.1602857 3.1677459 0 7.0618443-2.3717419 13.5814263-6.3609401 18.8105574h1.9194747c2.4030691-3.4024836 4.1710783-7.2823279 5.1309677-11.4703033l.0097327-10.508z"/><path d="m55.8844092 64.4663303v-.147168c-.0501213.0491565-.1002426.098313-.1509677.147168z"/><path d="m53.4386793 64.4671623h2.2947926c.0510968-.0491312.1015852-.0985656.1520737-.148l.0021291-2.2257623c-.7728388.8343197-1.590083 1.6273934-2.4489954 2.3737623"/><path d="m58.3804673 61.5849836h.2344977c.4677788-.5783525.9160921-1.1721721 1.3443318-1.7817623h-.2259816c-.4306728.6098935-.8823318 1.2037131-1.3528479 1.7817623"/><path d="m55.8855152 64.319223v.148h-.1520737c-.6411429.6202049-1.3072258 1.2152377-1.9976406 1.7817622h.2764701c1.3044884-1.0833114 2.5232073-2.2651885 3.6461198-3.5335v-.2717377c-.5657143.6487132-1.1581936 1.2734673-1.7728756 1.8754755"/><path d="m51.186376 66.2489246h2.5493641c.6904147-.5665246 1.3564977-1.1615574 1.9976405-1.7817623h-2.2947926c-.7223502.6274836-1.4738986 1.2216066-2.252212 1.7817623"/><path d="m55.8875834 62.0933697-.002129 2.2257623c.6149862-.6020082 1.2071613-1.2267623 1.7728756-1.8754754v-.858582h.722046c.4705162-.5780492.9224793-1.1721721 1.3531521-1.7817623h-1.9194746c-.6058618.7939836-1.2485254 1.5582459-1.9264701 2.2900574"/><path d="m65.5392166 36.0710574h-.2275023c.2472719 1.6173852.3756221 3.2738934.3756221 4.9601229 0 2.510541-.284682 4.9543607-.823023 7.302041l-.0009125.8840574c.6822028-2.6294262 1.0453549-5.385623 1.0453549-8.2243115 0-1.672582-.1268295-3.3160492-.3695392-4.9219098"/><path d="m64.0146166 37.8251303h.8595207l-.0097327 10.508c.5380369-2.3476803.823023-4.7915.823023-7.3017377 0-1.6865328-.1283502-3.3427377-.3756221-4.9604262h-1.528341c.092765.5798688.171235 1.1642869.2311521 1.7541639"/><path d="m.22503871 5.0882582c0-1.6792541.12743779-3.32878689.37288479-4.9395h-.23115207c-.24088479 1.59918852-.36680184 3.23568032-.36680184 4.9009836 0 2.81412295.35737327 5.5463607 1.02771428 8.1548607v-.9080164c-.52435023-2.31917217-.80264516-4.73145085-.80264516-7.2083279" mask="url(#a)" transform="translate(0 35.943074)"/><path d="m1.89784977 37.7907689c.05870046-.5710738.13443318-1.1372951.22385253-1.6989673h-1.5237788c-.245447 1.6107132-.37288479 3.2602459-.37288479 4.9395 0 2.4771804.27829493 4.8891558.80264516 7.2083279v-10.4488606z"/><path d="m10.1790249 64.4671623h-.1624148v-.1580082c-.60738245-.5953361-1.19256217-1.2131148-1.75249766-1.8539426v.2756803c1.11956682 1.2625492 2.33341936 2.4392705 3.63212906 3.5180328h.2804239c-.6904147-.5665246-1.3564977-1.1615574-1.9976405-1.7817623"/><path d="m6.16899263 59.7886943-.22932719.0006065c.4312811.6141394.88294009 1.2128115 1.35406451 1.7957131h.23814747c-.4741659-.5825983-.92886636-1.1815737-1.36288479-1.7963196"/><path d="m12.4702286 64.4671623h-2.2911429c.6411429.6202049 1.3072258 1.2152377 1.9976406 1.7817623h2.5454101c-.7777051-.5601557-1.5298617-1.1542787-2.2519078-1.7817623"/><path d="m8.07940369 59.7832352-1.91035023.0054591c.43401843.6147459.88871889 1.2137213 1.36288479 1.7963196h.73208295v.8701066c.55993548.6408279 1.14511521 1.2586065 1.7524977 1.8539426v-2.2209098c-.68159448-.7363607-1.32821199-1.5054754-1.93711521-2.3049181"/><path d="m32.9562332 8.39348033c1.4085069 0 2.7963318.08886065 4.158.26112295v-.26112295c-1.3628848-.17195902-2.7510138-.26081967-4.1598249-.26081967-1.4112442 0-2.8018065.08916393-4.1668203.2617295v.26142623c1.3650138-.17317213 2.7561844-.26233606 4.1686452-.26233606"/><path d="m30.5399945 9.95342459v-1.26740164h4.8289493v1.26740164c.5867004.04488525 1.1682304.10766391 1.7451981.18469671v-1.48363933c-1.361364-.1722623-2.7494931-.26112295-4.158-.26112295-1.4121566 0-2.8033272.08946721-4.1686451.26233606v1.48333602c.579705-.077336 1.163364-.14041799 1.7524977-.18560651"/><path d="m36.4611982 4.40027049h5.8727834v-3.07979508h-5.8727834zm-.6463134 1.28893443h7.165106c.3570691 0 .6463133-.28841803.6463133-.64446722v-4.3687295c0-.35604918-.2892442-.64446722-.6463133-.64446722h-7.165106c-.3570691 0-.6463134.28841804-.6463134.64446722v4.3687295c0 .35604919.2892443.64446722.6463134.64446722z" mask="url(#b)"/></g></g></svg>