<?xml version="1.0" encoding="UTF-8"?>
<svg width="66px" height="82px" viewBox="0 0 66 82" version="1.1" xmlns="http://www.w3.org/2000/svg" xmlns:xlink="http://www.w3.org/1999/xlink">
    <!-- Generator: sketchtool 50.2 (55047) - http://www.bohemiancoding.com/sketch -->
    <title>1B805042-6A94-4E14-BAAA-6E0C820F54F7</title>
    <desc>Created with sketchtool.</desc>
    <defs>
        <polygon id="path-1" points="0.0645096774 0.294988192 4.18202765 0.294988192 4.18202765 20.0376229 0.0645096774 20.0376229"></polygon>
        <polygon id="path-3" points="0 81.7751808 65.9239631 81.7751808 65.9239631 0 0 0"></polygon>
    </defs>
    <g id="Future-Project-Desktop" stroke="none" stroke-width="1" fill="none" fill-rule="evenodd">
        <g id="Future-Schools" transform="translate(-375.000000, -1687.000000)">
            <g id="future-schools/locations" transform="translate(1.000000, 1523.000000)">
                <g id="Group-207" transform="translate(374.000000, 164.000000)">
                    <path d="M48.2392175,61.9424672 C48.2392175,59.4785336 50.2538903,57.4742236 52.7305631,57.4742236 L53.9419825,57.4742236 C53.8516507,57.0279137 53.8060286,56.5731314 53.8060286,56.1150207 C53.8060286,52.6498399 56.4347751,49.7159948 59.8540009,49.284814 C60.662729,47.6696258 61.8245724,46.2937808 63.213918,45.221124 C61.1813005,31.8672273 50.5686829,21.2774266 37.1618627,19.2065483 L38.4240747,25.5849985 L40.8590793,25.5849985 C41.2121945,25.5849985 41.4980931,25.869124 41.4980931,26.2201203 L41.4980931,32.0505926 L42.8704065,32.8270207 C42.875577,32.8300465 42.8795309,32.8348878 42.8847014,32.8379137 C42.9269779,32.8633306 42.9671253,32.8923786 43.0024065,32.9268731 C43.0033189,32.9277808 43.0045355,32.928386 43.0054479,32.9292937 C43.040729,32.9643934 43.0705355,33.0046369 43.0969963,33.0473011 C43.1039917,33.0587993 43.1100747,33.0709026 43.1164618,33.0830059 C43.1344065,33.1165926 43.1493097,33.1513897 43.1608673,33.1883048 C43.1648212,33.2013159 43.1696876,33.2140244 43.1730332,33.2276406 C43.1851991,33.2763565 43.1934111,33.3265852 43.1934111,33.3795373 L43.1934111,37.0462384 L43.1934111,51.2479727 L43.6076599,51.2479727 C43.960471,51.2479727 44.2463696,51.5324007 44.2463696,51.883397 C44.2463696,52.2343934 43.960471,52.5185188 43.6076599,52.5185188 L43.1934111,52.5185188 L43.1934111,56.8354708 L43.6076599,56.8354708 C43.960471,56.8354708 44.2463696,57.1198989 44.2463696,57.4708952 L44.2463696,67.3121055 L44.9462129,67.3121055 C45.2987198,67.3121055 45.5846184,67.5965336 45.5846184,67.9475299 L45.5846184,69.6695299 L49.0704525,69.6695299 C49.2857889,69.6695299 49.4871346,69.777552 49.6048396,69.9566812 C49.7228488,70.1358103 49.7420101,70.3621424 49.6562406,70.5588214 L48.3179917,73.6143048 C48.2164065,73.8460834 47.986471,73.995862 47.7325078,73.995862 L47.2741576,73.995862 L47.2741576,77.1593675 C51.965024,74.6088952 55.9277613,70.8946886 58.7712359,66.4107107 L52.7305631,66.4107107 C50.2538903,66.4107107 48.2392175,64.4064007 48.2392175,61.9424672" id="Fill-1" fill="#5CD8FF"></path>
                    <path d="M17.9829318,73.995862 C17.7085908,73.995862 17.4646645,73.8215742 17.3773742,73.5625631 L16.3463143,70.5070797 C16.2806184,70.313124 16.3131622,70.099803 16.4329963,69.9339875 C16.5531346,69.7678694 16.7462682,69.6695299 16.9515677,69.6695299 L20.4374018,69.6695299 L20.4374018,67.9475299 C20.4374018,67.5965336 20.7236046,67.3121055 21.0761115,67.3121055 L21.7321576,67.3121055 L21.7321576,57.4708952 C21.7321576,57.1198989 22.0180562,56.8354708 22.3708673,56.8354708 L22.7851161,56.8354708 L22.7851161,52.5188214 L22.3708673,52.5188214 C22.0180562,52.5188214 21.7321576,52.2343934 21.7321576,51.883397 C21.7321576,51.5324007 22.0180562,51.2479727 22.3708673,51.2479727 L23.399494,51.2479727 L23.399494,37.0462384 L23.399494,33.3795373 C23.399494,33.3265852 23.4074018,33.2763565 23.4198719,33.2276406 C23.4232175,33.2140244 23.4277797,33.2013159 23.4320378,33.1883048 C23.4435954,33.1513897 23.4581945,33.1165926 23.4764433,33.0830059 C23.4828304,33.0709026 23.4886092,33.0587993 23.4959088,33.0473011 C23.5220654,33.0046369 23.5518719,32.9643934 23.587153,32.9292937 C23.5883696,32.928386 23.5895862,32.9277808 23.5904986,32.9268731 C23.6254756,32.8923786 23.665623,32.8636332 23.7082037,32.8379137 C23.71307,32.8348878 23.717024,32.8300465 23.7224986,32.8270207 L25.094812,32.0505926 L25.094812,26.2201203 C25.094812,25.869124 25.3810147,25.5849985 25.7335217,25.5849985 L28.563918,25.5849985 L29.8796599,18.9354339 C23.5126369,19.4343934 17.6778719,21.8429542 12.9526369,25.583183 C15.083494,26.1901646 16.648941,28.1415225 16.648941,30.4535594 C16.648941,33.2485188 14.3632728,35.5227328 11.5535585,35.5227328 L4.68955853,35.5227328 C2.42457235,39.8215299 1.1407659,44.7094561 1.1407659,49.8905852 C1.1407659,62.1636554 8.33507005,72.7958177 18.7481668,77.8341277 L18.7481668,73.995862 L17.9829318,73.995862 Z" id="Fill-3" fill="#5CD8FF"></path>
                    <path d="M30.7923152,42.1423417 C30.7923152,40.8079506 31.8835963,39.7219801 33.2251908,39.7219801 C34.5664811,39.7219801 35.6577622,40.8079506 35.6577622,42.1423417 L35.6577622,49.0106738 L30.7923152,49.0106738 L30.7923152,42.1423417 Z" id="Fill-5" fill="#00B8FB"></path>
                    <path d="M16.0405853,29.5456893 C16.0405853,27.4769292 14.3948433,25.7885159 12.3381982,25.6956229 C9.82320276,27.9026635 7.66710138,30.5048775 5.96995853,33.4045306 L12.1617926,33.4045306 C14.3005576,33.4045306 16.0405853,31.6734531 16.0405853,29.5456893" id="Fill-7" fill="#FFFFFF"></path>
                    <path d="M17.2571751,29.5456893 C17.2571751,27.2336524 15.6917281,25.282597 13.5611751,24.6756155 C13.3610461,24.8338664 13.1633502,24.994538 12.9674793,25.1576303 C15.060318,25.5355565 16.6488802,27.354383 16.6488802,29.5456893 C16.6488802,32.0111358 14.6399862,34.0096967 12.1617926,34.0096967 L5.6250553,34.0096967 C5.51373733,34.2100066 5.40485253,34.4118295 5.29779263,34.6148627 L12.1617926,34.6148627 C14.9715069,34.6148627 17.2571751,32.3406487 17.2571751,29.5456893" id="Fill-9" fill="#000000"></path>
                    <path d="M16.6488802,29.5456893 C16.6488802,27.354383 15.060318,25.5355565 12.9674793,25.1576303 C12.7551843,25.3340362 12.5453226,25.5137705 12.3381982,25.6956229 C14.3948433,25.7885159 16.0405853,27.4769292 16.0405853,29.5456893 C16.0405853,31.6734531 14.3005576,33.4045306 12.1617926,33.4045306 L5.96995853,33.4045306 C5.8525576,33.6048406 5.73789401,33.8066635 5.6250553,34.0096967 L12.1617926,34.0096967 C14.6399862,34.0096967 16.6488802,32.0111358 16.6488802,29.5456893" id="Fill-11" fill="#000000"></path>
                    <path d="M64.0043972,45.7330037 C62.9304525,46.6855351 62.0386922,47.8550185 61.4151899,49.1984871 L61.264941,49.5219483 L60.9078719,49.5482731 C57.9488212,49.7673432 55.6309134,52.2530627 55.6309134,55.2074834 C55.6309134,55.8114391 55.727024,56.4084354 55.9171161,56.982738 L56.1795954,57.7770185 L53.3388581,57.7770185 C51.5331346,57.7770185 50.0641023,59.2384945 50.0641023,61.0346273 C50.0641023,62.8310627 51.5331346,64.2925387 53.3388581,64.2925387 L60.1094848,64.2925387 C62.6956507,59.7716458 64.1753281,54.5460369 64.1753281,48.9827454 C64.1753281,47.8852768 64.1166276,46.8014244 64.0043972,45.7330037" id="Fill-13" fill="#FFFFFF"></path>
                    <path d="M49.4558074,61.0347181 C49.4558074,58.9012052 51.1943143,57.1716406 53.3388581,57.1716406 L55.3392359,57.1716406 C55.1348488,56.5534635 55.0226184,55.8935299 55.0226184,55.2072716 C55.0226184,51.8967107 57.5975309,49.1864745 60.8628581,48.9450133 C61.5748673,47.4112199 62.6278258,46.0689616 63.9195401,45.0029616 C63.8897336,44.7720908 63.8571899,44.5424303 63.8222129,44.3133749 C62.4328673,45.3860317 61.271024,46.7618768 60.4622959,48.3770649 C57.04307,48.8082458 54.4143235,51.7420908 54.4143235,55.2072716 C54.4143235,55.6653823 54.4599456,56.1201646 54.5502774,56.5664745 L53.3388581,56.5664745 C50.8621853,56.5664745 48.8475124,58.5707845 48.8475124,61.0347181 C48.8475124,63.4986517 50.8621853,65.5029616 53.3388581,65.5029616 L59.3795309,65.5029616 C59.5066645,65.3026517 59.631365,65.1008288 59.7539364,64.8977956 L53.3388581,64.8977956 C51.1943143,64.8977956 49.4558074,63.168231 49.4558074,61.0347181" id="Fill-15" fill="#000000"></path>
                    <path d="M50.0641023,61.0347181 C50.0641023,59.2382827 51.5331346,57.7768066 53.3388581,57.7768066 L56.1795954,57.7768066 L55.9171161,56.9825262 C55.727024,56.4085262 55.6309134,55.8112273 55.6309134,55.2072716 C55.6309134,52.2531535 57.9488212,49.7674339 60.9078719,49.5483638 L61.264941,49.5220391 L61.4151899,49.1985779 C62.0386922,47.8548066 62.9304525,46.6856258 64.0043972,45.7330945 C63.9788488,45.48891 63.9508673,45.2453306 63.9195401,45.0029616 C62.6278258,46.0689616 61.5748673,47.4112199 60.8628581,48.9450133 C57.5975309,49.1864745 55.0226184,51.8967107 55.0226184,55.2072716 C55.0226184,55.8935299 55.1348488,56.5534635 55.3392359,57.1716406 L53.3388581,57.1716406 C51.1943143,57.1716406 49.4558074,58.9012052 49.4558074,61.0347181 C49.4558074,63.168231 51.1943143,64.8977956 53.3388581,64.8977956 L59.7539364,64.8977956 C59.8746829,64.697183 59.9933005,64.4956627 60.1094848,64.2926295 L53.3388581,64.2926295 C51.5331346,64.2926295 50.0641023,62.8311535 50.0641023,61.0347181" id="Fill-17" fill="#000000"></path>
                    <path d="M26.9067097,80.8954207 C24.7323594,80.4908672 22.6340461,79.8720849 20.6339724,79.0623727 L20.6339724,79.3937011 C22.6060645,80.1879815 24.6724424,80.7970812 26.8118157,81.2004244 C26.8410138,81.099059 26.8729493,80.9973911 26.9067097,80.8954207" id="Fill-19" fill="#000000"></path>
                    <path d="M40.3489023,80.9444694 C42.5238608,80.4470229 44.6166995,79.7347424 46.6049115,78.8318347 L46.6049115,78.4968753 C44.5875014,79.4188458 42.4593816,80.1429269 40.2461005,80.6430967 C40.2825982,80.7441594 40.317271,80.844617 40.3489023,80.9444694" id="Fill-21" fill="#000000"></path>
                    <path d="M0.230695853,48.8909114 C0.230695853,43.7696937 1.42052074,38.9256421 3.53769124,34.6147417 L3.33725806,34.6147417 C1.20123041,38.956203 0.000152073733,43.8323284 0.000152073733,48.9828967 C0.000152073733,62.2408745 7.94995853,73.6860775 19.3564009,78.8493542 L19.3564009,78.5143948 C8.07161751,73.3762325 0.230695853,62.0451033 0.230695853,48.8909114" id="Fill-23" fill="#000000"></path>
                    <path d="M65.2242415,43.3804509 C65.2902415,43.3429306 65.355329,43.3038974 65.4216332,43.2675875 C62.9495226,29.3309159 51.6002599,18.4040376 37.4123889,16.4902 L37.4403705,16.6327166 C51.5786654,18.5574472 62.8394212,29.4625395 65.2242415,43.3804509" id="Fill-25" fill="#000000"></path>
                    <path d="M47.8825134,77.8811188 L47.8825134,78.2181963 C53.5259696,75.3560635 58.2344765,70.9229196 61.4252876,65.5027498 L61.1171862,65.5027498 C57.9719972,70.7673919 53.3790664,75.075569 47.8825134,77.8811188" id="Fill-27" fill="#000000"></path>
                    <path d="M30.8098645,16.3997277 L30.8375419,16.2602369 C23.2834313,16.7407387 16.4142608,19.7635432 11.0855972,24.4765764 L11.3061041,24.4765764 C16.5742424,19.8479638 23.3512562,16.8814399 30.8098645,16.3997277" id="Fill-29" fill="#000000"></path>
                    <path d="M32.9620424,81.4537469 C31.3430654,81.4537469 29.7523742,81.3348317 28.1963558,81.1091048 C28.1592498,81.2116804 28.120623,81.3151638 28.0886876,81.415924 C29.6793788,81.6516362 31.3065677,81.77509 32.9620424,81.77509 C35.054577,81.77509 37.1011853,81.5778059 39.0869641,81.2053262 C39.0519871,81.1042635 39.0200516,81.0038059 38.9805124,80.9024406 C37.0294065,81.2631196 35.0183834,81.4537469 32.9620424,81.4537469" id="Fill-31" fill="#000000"></path>
                    <path d="M32.9620424,81.4537469 C35.0183834,81.4537469 37.0294065,81.2631196 38.9805124,80.9024406 C38.8059318,80.4528022 38.5763005,80.0031638 38.298918,79.5795476 C36.5640608,79.8778945 34.7811484,80.0355402 32.9620424,80.0355402 C31.5623558,80.0355402 30.1845677,79.9417395 28.8335447,79.7632155 C28.5698488,80.204079 28.3584664,80.6606768 28.1963558,81.1091048 C29.7523742,81.3348317 31.3430654,81.4537469 32.9620424,81.4537469" id="Fill-33" fill="#000000"></path>
                    <path d="M63.8223346,44.3133144 C64.2673023,43.9698827 64.7356894,43.6582221 65.2241502,43.3804509 C62.8396341,29.4625395 51.5785742,18.5574472 37.4405834,16.6327166 L37.7702793,18.2987387 C51.1770995,20.3699196 61.7894129,30.9597203 63.8223346,44.3133144" id="Fill-35" fill="#000000"></path>
                    <path d="M13.5610535,24.675555 C18.2859843,20.9353262 24.1210535,18.5267653 30.4877724,18.0275033 L30.8098645,16.3996066 C23.3509521,16.8816214 16.5742424,19.8478428 11.3061041,24.4764554 L12.161671,24.4764554 C12.6473945,24.4764554 13.1157816,24.5487727 13.5610535,24.675555" id="Fill-37" fill="#000000"></path>
                    <path d="M1.74890876,48.9828059 C1.74890876,43.8016768 3.03271521,38.9137506 5.29770138,34.6149535 L3.5376,34.6149535 C1.42042949,38.9255513 0.230604608,43.769603 0.230604608,48.8908207 C0.230604608,62.0450125 8.07152627,73.3761417 19.3566138,78.5143041 L19.3566138,76.9263483 C8.9432129,71.8880384 1.74890876,61.255876 1.74890876,48.9828059" id="Fill-39" fill="#000000"></path>
                    <path d="M47.8825134,76.2514672 L47.8825134,77.8811793 C53.3790664,75.0756295 57.9719972,70.7671498 61.1171862,65.5028103 L59.3795917,65.5028103 C56.5361171,69.9870908 52.5733797,73.7009948 47.8825134,76.2514672" id="Fill-41" fill="#000000"></path>
                    <path d="M27.4752221,79.5546148 C25.0904018,79.1322089 22.7995631,78.438386 20.6340332,77.5082458 L20.6340332,79.0626148 C22.6341069,79.8720244 24.7321161,80.4908066 26.9067705,80.8953601 C27.0539779,80.4502605 27.2431576,79.9975963 27.4752221,79.5546148" id="Fill-43" fill="#000000"></path>
                    <path d="M39.6390221,79.3176317 C39.888423,79.7569823 40.0882479,80.2051077 40.2461005,80.643248 C42.4593816,80.1427756 44.5875014,79.4186945 46.6049115,78.4970266 L46.6049115,76.9078605 C44.413529,77.9717424 42.0788931,78.7865985 39.6390221,79.3176317" id="Fill-45" fill="#000000"></path>
                    <path d="M10.0012811,25.6868782 L9.78776959,25.6868782 C7.48689401,27.9523173 5.51814747,30.551203 3.96304147,33.4045609 L4.16256221,33.4045609 C5.7182765,30.5469668 7.6924977,27.9483838 10.0012811,25.6868782" id="Fill-47" fill="#000000"></path>
                    <path d="M12.3380765,25.6957439 C12.2790719,25.6930207 12.2212839,25.686969 12.161671,25.686969 L10.0013115,25.686969 C7.69252811,27.948172 5.71830691,30.5470576 4.16259263,33.4046517 L5.96983687,33.4046517 C7.66728387,30.5049985 9.82308111,27.9024819 12.3380765,25.6957439" id="Fill-49" fill="#000000"></path>
                    <path d="M3.84171705,34.0096664 L3.64189217,34.0096664 C3.53787373,34.2099764 3.43689677,34.4121018 3.33744055,34.6148325 L3.53756959,34.6148325 C3.63732995,34.4121018 3.73800276,34.2099764 3.84171705,34.0096664" id="Fill-51" fill="#000000"></path>
                    <path d="M10.6361585,25.0818635 C10.8566654,24.8770148 11.0799097,24.6751919 11.3061954,24.4766974 L11.0856885,24.4766974 C10.8609235,24.6754945 10.6385917,24.8770148 10.4196055,25.0818635 L10.6361585,25.0818635 Z" id="Fill-53" fill="#000000"></path>
                    <path d="M5.62502488,34.0096664 L3.84180829,34.0096664 C3.73809401,34.2099764 3.63711705,34.4121018 3.53766083,34.6148325 L5.29776221,34.6148325 C5.40482212,34.4117993 5.51370691,34.2099764 5.62502488,34.0096664" id="Fill-55" fill="#000000"></path>
                    <path d="M12.9673272,25.1575092 C13.1631982,24.994417 13.3611982,24.8337454 13.561023,24.6754945 C13.1157512,24.5487122 12.6473641,24.4766974 12.1619447,24.4766974 L11.3063779,24.4766974 C11.0800922,24.6751919 10.8568479,24.8770148 10.6360369,25.0818635 L12.1619447,25.0818635 C12.4371982,25.0818635 12.7057604,25.1103063 12.9673272,25.1575092" id="Fill-57" fill="#000000"></path>
                    <path d="M3.96319355,33.4045004 C3.85400461,33.6048103 3.7469447,33.8069358 3.64170968,34.0096664 L3.84183871,34.0096664 C3.94676959,33.8069358 4.05352535,33.6048103 4.16271429,33.4045004 L3.96319355,33.4045004 Z" id="Fill-59" fill="#000000"></path>
                    <path d="M10.0012811,25.6868782 C10.2102304,25.4823321 10.4219171,25.2808118 10.6360369,25.0817122 L10.4194839,25.0817122 C10.2062765,25.2808118 9.9955023,25.4823321 9.78776959,25.6868782 L10.0012811,25.6868782 Z" id="Fill-61" fill="#000000"></path>
                    <path d="M12.1617926,25.6868782 C12.2211014,25.6868782 12.2791935,25.6932325 12.3381982,25.6956531 C12.5453226,25.5138007 12.7551843,25.3340664 12.9671751,25.1573579 C12.7056083,25.110155 12.4373502,25.0817122 12.1617926,25.0817122 L10.6361889,25.0817122 C10.421765,25.2808118 10.2100783,25.4823321 10.001129,25.6868782 L12.1617926,25.6868782 Z" id="Fill-63" fill="#000000"></path>
                    <path d="M5.96983687,33.4045004 L4.16259263,33.4045004 C4.05340369,33.6048103 3.94664793,33.8069358 3.84171705,34.0096664 L5.62493364,34.0096664 C5.73777235,33.8066332 5.85243594,33.6048103 5.96983687,33.4045004" id="Fill-65" fill="#000000"></path>
                    <g id="Group-69" transform="translate(61.741935, 44.254886)">
                        <mask id="mask-2" fill="white">
                            <use xlink:href="#path-1"></use>
                        </mask>
                        <g id="Clip-68"></g>
                        <path d="M0.0645096774,20.0376229 L0.361661751,20.0376229 C2.79849124,15.4646856 4.18205806,10.2542059 4.18205806,4.72782952 C4.18205806,3.22459705 4.07743134,1.74526863 3.87973548,0.294988192 C3.81251889,0.335231734 3.74408571,0.372449446 3.67778157,0.413903321 C3.85783687,1.79610258 3.95121014,3.20523173 3.95121014,4.63614686 C3.95121014,10.2076081 2.54331152,15.4519771 0.0645096774,20.0376229" id="Fill-67" fill="#000000" mask="url(#mask-2)"></path>
                    </g>
                    <path d="M64.175176,48.9828059 C64.175176,54.5460974 62.6958028,59.7714037 60.1096369,64.2925993 L61.8064756,64.2925993 C64.2852774,59.7066509 65.693176,54.4625845 65.693176,48.8908207 C65.693176,47.4599055 65.5998028,46.051079 65.4197475,44.6688797 C64.9194249,44.9829609 64.447388,45.3403114 64.0042452,45.7330642 C64.1167797,46.8014849 64.175176,47.8853373 64.175176,48.9828059" id="Fill-70" fill="#000000"></path>
                    <path d="M61.4699364,64.8976745 C61.3543604,65.1007077 61.2366553,65.302228 61.1171253,65.5028406 L61.4255309,65.5028406 C61.5432359,65.3025306 61.658812,65.1007077 61.7725631,64.8976745 L61.4699364,64.8976745 Z" id="Fill-72" fill="#000000"></path>
                    <path d="M65.3265672,44.0117601 C65.3926911,43.9721218 65.4573053,43.9303653 65.524033,43.8922399 C65.491424,43.6834576 65.4570033,43.4752804 65.4204691,43.2677085 C65.3543453,43.3037159 65.2897311,43.3430517 65.2242111,43.380572 C65.2598394,43.590262 65.2951659,43.8005572 65.3265672,44.0117601" id="Fill-74" fill="#000000"></path>
                    <path d="M59.3795005,65.5028406 L61.1170949,65.5028406 C61.2366249,65.302228 61.35433,65.1007077 61.469906,64.8976745 L59.753906,64.8976745 C59.6313346,65.1010103 59.5066341,65.3025306 59.3795005,65.5028406" id="Fill-76" fill="#000000"></path>
                    <path d="M63.9194488,45.0028406 C64.3616793,44.6379255 64.8321954,44.3068996 65.3273475,44.0118812 C65.295412,43.8003756 65.2601309,43.590383 65.2242415,43.3803904 C64.7357806,43.6581616 64.2673935,43.9698221 63.8224258,44.3132539 C63.8570986,44.5426118 63.8896424,44.7722723 63.9194488,45.0028406" id="Fill-78" fill="#000000"></path>
                    <path d="M61.8064452,64.2925085 C61.6966479,64.4955417 61.5841134,64.697062 61.4700581,64.8976745 L61.7726848,64.8976745 C61.8849152,64.697062 61.9953207,64.4955417 62.1035972,64.2925085 L61.8064452,64.2925085 Z" id="Fill-80" fill="#000000"></path>
                    <path d="M65.4190142,44.6689402 C65.4848361,44.6274863 65.5527716,44.5899661 65.6194994,44.5500251 C65.5896077,44.3300472 65.5588103,44.1106745 65.5249935,43.8922096 C65.4579639,43.9306376 65.3933497,43.9720915 65.3272258,44.0117299 C65.3601368,44.2301948 65.3906323,44.4489624 65.4190142,44.6689402" id="Fill-82" fill="#000000"></path>
                    <path d="M64.0043972,45.7330037 C64.4472359,45.3402509 64.919577,44.9829004 65.4195954,44.6688192 C65.3913097,44.4491439 65.3602866,44.2300738 65.3274387,44.0119114 C64.8322866,44.3069299 64.3617705,44.6379557 63.9195401,45.0028708 C63.9508673,45.2452399 63.9788488,45.4888192 64.0043972,45.7330037" id="Fill-84" fill="#000000"></path>
                    <path d="M60.109576,64.2925085 C59.9933917,64.4955417 59.8747742,64.6973646 59.7540276,64.8976745 L61.4700276,64.8976745 C61.5840829,64.697062 61.6966175,64.4955417 61.8064147,64.2925085 L60.109576,64.2925085 Z" id="Fill-86" fill="#000000"></path>
                    <path d="M46.6050332,73.0881129 L46.6050332,76.907921 C47.0363143,76.6985336 47.4624249,76.4797661 47.8824525,76.2516185 L47.8824525,73.0881129 L46.6050332,73.0881129 Z" id="Fill-88" fill="#000000"></path>
                    <path d="M19.3564922,73.0881129 L19.3564922,76.9263786 C19.776824,77.1297144 20.2032387,77.3233675 20.6339115,77.5082458 L20.6339115,73.0881129 L19.3564922,73.0881129 Z" id="Fill-90" fill="#000000"></path>
                    <path d="M20.6339724,79.0624937 C20.2036037,78.8882059 19.7774931,78.7060509 19.356553,78.5142133 L19.356553,78.8491727 C19.7774931,79.0398 20.2036037,79.2204421 20.6339724,79.3935196 L20.6339724,79.0624937 Z" id="Fill-92" fill="#000000"></path>
                    <path d="M46.6050332,78.4969055 L46.6050332,78.8318649 C47.035706,78.6360937 47.4615124,78.4315476 47.8824525,78.2182266 L47.8824525,77.8811491 C47.4621207,78.0956804 47.035706,78.3002266 46.6050332,78.4969055" id="Fill-94" fill="#000000"></path>
                    <path d="M46.6050332,76.9077697 L46.6050332,78.4969358 C47.035706,78.3002568 47.4621207,78.0957107 47.8824525,77.8811793 L47.8824525,76.2514672 C47.4624249,76.4799173 47.0363143,76.6983823 46.6050332,76.9077697" id="Fill-96" fill="#000000"></path>
                    <path d="M19.3564922,76.9263786 L19.3564922,78.5143343 C19.7774323,78.706172 20.2035429,78.8883269 20.6339115,79.0626148 L20.6339115,77.5082458 C20.2032387,77.3233675 19.776824,77.1297144 19.3564922,76.9263786" id="Fill-98" fill="#000000"></path>
                    <path d="M19.9952323,71.817476 L19.0505502,71.817476 L18.4483382,70.0325387 L21.6844673,70.0325387 C21.3319604,70.0325387 21.0457576,69.7481107 21.0457576,69.3971144 L21.0457576,68.76169 L17.5599235,68.76169 C17.3543198,68.76169 17.1614903,68.8603321 17.0413521,69.0261476 C16.921518,69.1919631 16.8889742,69.4052841 16.9543659,69.5992399 L17.98573,72.6550258 C18.0730203,72.9137343 18.3166424,73.0880221 18.5912876,73.0880221 L19.3565226,73.0880221 L19.3565226,72.4529004 C19.3565226,72.1016015 19.6424212,71.817476 19.9952323,71.817476" id="Fill-100" fill="#000000"></path>
                    <path d="M45.5544774,70.0324177 L48.7039244,70.0324177 L47.9222654,71.817355 L47.2437124,71.817355 C47.5965235,71.817355 47.8824221,72.101783 47.8824221,72.4527793 L47.8824221,73.0882037 L48.3407724,73.0882037 C48.5947355,73.0882037 48.824671,72.9384251 48.9262562,72.7066465 L50.2645051,69.6508605 C50.3505788,69.4544841 50.3311134,69.228152 50.2131041,69.0490229 C50.0953991,68.8695911 49.8943576,68.7618716 49.6790212,68.7618716 L46.1931871,68.7618716 L46.1931871,69.3969934 C46.1931871,69.7482923 45.9069843,70.0324177 45.5544774,70.0324177" id="Fill-102" fill="#000000"></path>
                    <path d="M47.2436212,71.817476 L19.9953539,71.817476 C19.6425429,71.817476 19.3566442,72.1016015 19.3566442,72.4529004 L19.3566442,73.0880221 L20.6340636,73.0880221 L46.6049115,73.0880221 L47.882635,73.0880221 L47.882635,72.4529004 C47.882635,72.1016015 47.5964323,71.817476 47.2436212,71.817476" id="Fill-104" fill="#000000"></path>
                    <path d="M44.2161069,67.6749934 L44.9156461,67.6749934 L44.9156461,68.7618716 L46.1930654,68.7618716 L46.1930654,67.039569 C46.1930654,66.6885727 45.9071668,66.4044472 45.5543558,66.4044472 L44.8548166,66.4044472 L44.8548166,67.039569 C44.8548166,67.3908679 44.5686138,67.6749934 44.2161069,67.6749934" id="Fill-106" fill="#000000"></path>
                    <path d="M22.3232682,67.6749934 L22.9790101,67.6749934 C22.6265032,67.6749934 22.3403005,67.3908679 22.3403005,67.039569 L22.3403005,66.4044472 L21.6845585,66.4044472 C21.3317475,66.4044472 21.0458488,66.6885727 21.0458488,67.039569 L21.0458488,68.7618716 L22.3232682,68.7618716 L22.3232682,67.6749934 Z" id="Fill-108" fill="#000000"></path>
                    <path d="M22.3232682,68.7618111 L21.0458488,68.7618111 L21.0458488,69.3972354 C21.0458488,69.7482317 21.3317475,70.0323572 21.6845585,70.0323572 L45.5543558,70.0323572 C45.9071668,70.0323572 46.1930654,69.7482317 46.1930654,69.3972354 L46.1930654,68.7618111 L44.9156461,68.7618111 L22.3232682,68.7618111 Z" id="Fill-110" fill="#000000"></path>
                    <path d="M23.6178415,57.1983587 L24.0320903,57.1983587 C23.6795834,57.1983587 23.3933806,56.9142332 23.3933806,56.5629343 L23.3933806,55.9278125 L22.9791318,55.9278125 C22.6263207,55.9278125 22.3404221,56.211938 22.3404221,56.5629343 L22.3404221,66.4044472 L23.6178415,66.4044472 L23.6178415,57.1983587 Z" id="Fill-112" fill="#000000"></path>
                    <path d="M43.1628747,57.1983587 L43.5771235,57.1983587 L43.5771235,66.4044472 L44.8545429,66.4044472 L44.8545429,56.5629343 C44.8545429,56.211938 44.5686442,55.9278125 44.2161373,55.9278125 L43.8018885,55.9278125 L43.8018885,56.5629343 C43.8018885,56.9142332 43.5156857,57.1983587 43.1628747,57.1983587" id="Fill-114" fill="#000000"></path>
                    <path d="M33.5976802,53.9198716 C31.8454866,53.9198716 30.1927493,54.6478863 29.0156986,55.9278125 L24.6706479,55.9278125 L24.6706479,56.5629343 C24.6706479,56.9142332 24.3847493,57.1983587 24.0322424,57.1983587 L29.3061594,57.1983587 C29.4962516,57.1983587 29.6763069,57.1142406 29.7979659,56.9686982 C30.7399106,55.8388531 32.124694,55.1904177 33.5976802,55.1904177 C35.0703622,55.1904177 36.4554498,55.8388531 37.3970903,56.9686982 C37.5187493,57.1142406 37.6988046,57.1983587 37.8888968,57.1983587 L43.1628138,57.1983587 C42.8103069,57.1983587 42.5244083,56.9142332 42.5244083,56.5629343 L42.5244083,55.9278125 L38.1793576,55.9278125 C37.0023069,54.6478863 35.3495696,53.9198716 33.5976802,53.9198716" id="Fill-116" fill="#000000"></path>
                    <path d="M23.6178415,66.4043867 L22.3404221,66.4043867 L22.3404221,67.0398111 C22.3404221,67.3908074 22.6263207,67.6749328 22.9791318,67.6749328 L44.2162286,67.6749328 C44.5687355,67.6749328 44.8546341,67.3908074 44.8546341,67.0398111 L44.8546341,66.4043867 L43.5772147,66.4043867 L23.6178415,66.4043867 Z" id="Fill-118" fill="#000000"></path>
                    <path d="M33.6193659,63.7395077 C32.0645641,63.7395077 30.7993106,62.4807624 30.7993106,60.9336554 C30.7993106,59.3865483 32.0645641,58.127803 33.6193659,58.127803 C35.1744719,58.127803 36.4397253,59.3865483 36.4397253,60.9336554 C36.4397253,62.4807624 35.1744719,63.7395077 33.6193659,63.7395077 M33.6193659,56.9695151 C31.4222046,56.9695151 29.63473,58.747493 29.63473,60.9336554 C29.63473,63.1192125 31.4222046,64.8977956 33.6193659,64.8977956 C35.8168313,64.8977956 37.604306,63.1192125 37.604306,60.9336554 C37.604306,58.747493 35.8168313,56.9695151 33.6193659,56.9695151" id="Fill-120" fill="#000000"></path>
                    <polygon id="Fill-122" fill="#000000" points="42.5242866 51.610921 42.5242866 55.9278731 43.801706 55.9278731 43.801706 51.610921 43.1629963 51.610921"></polygon>
                    <path d="M42.5242866,56.5630554 C42.5242866,56.9140517 42.8101853,57.1984797 43.1629963,57.1984797 C43.5158074,57.1984797 43.801706,56.9140517 43.801706,56.5630554 L43.801706,55.927631 L42.5242866,55.927631 L42.5242866,56.5630554 Z" id="Fill-124" fill="#000000"></path>
                    <polygon id="Fill-126" fill="#000000" points="24.6707696 51.610921 24.6464378 51.610921 23.3933502 51.610921 23.3933502 55.9278731 24.6707696 55.9278731"></polygon>
                    <path d="M24.0321816,57.1983587 C24.3846885,57.1983587 24.6708912,56.9142332 24.6708912,56.5629343 L24.6708912,55.9278125 L23.3934719,55.9278125 L23.3934719,56.5629343 C23.3934719,56.9142332 23.6793705,57.1983587 24.0321816,57.1983587" id="Fill-128" fill="#000000"></path>
                    <path d="M43.8017668,51.610921 L44.2160157,51.610921 C44.5685226,51.610921 44.8547253,51.3267956 44.8547253,50.9754967 C44.8547253,50.6245004 44.5685226,50.3403749 44.2160157,50.3403749 L43.8017668,50.3403749 L43.8017668,50.9754967 L43.8017668,51.610921 Z" id="Fill-130" fill="#000000"></path>
                    <path d="M24.0076673,50.3426745 L24.0076673,50.3402539 L22.9790406,50.3402539 C22.6262295,50.3402539 22.3403309,50.6246819 22.3403309,50.9756782 C22.3403309,51.3266745 22.6262295,51.6108 22.9790406,51.6108 L23.3932894,51.6108 L23.3932894,50.9756782 C23.3932894,50.6328517 23.6664138,50.3556856 24.0076673,50.3426745" id="Fill-132" fill="#000000"></path>
                    <path d="M43.1628747,51.610921 L43.8018885,51.610921 L43.8018885,50.9754967 C43.8018885,51.3267956 43.5156857,51.610921 43.1628747,51.610921" id="Fill-134" fill="#000000"></path>
                    <path d="M24.0076673,50.9756177 L24.0076673,50.342614 C23.6664138,50.3559277 23.3932894,50.6327911 23.3932894,50.9756177 L23.3932894,51.6110421 L24.646377,51.6110421 C24.2935659,51.6110421 24.0076673,51.326614 24.0076673,50.9756177" id="Fill-136" fill="#000000"></path>
                    <path d="M31.4719023,41.1147697 C31.4719023,39.7803786 32.5631834,38.6944081 33.9047779,38.6944081 C35.2460682,38.6944081 36.3373493,39.7803786 36.3373493,41.1147697 L36.3373493,47.9831018 L31.4719023,47.9831018 L31.4719023,41.1147697 Z M30.8331926,49.253648 L36.9763631,49.253648 C37.32887,49.253648 37.6147687,48.9695225 37.6147687,48.6185262 L37.6147687,41.1147697 C37.6147687,39.0792937 35.9507779,37.423862 33.9047779,37.423862 C31.8587779,37.423862 30.1944829,39.0792937 30.1944829,41.1147697 L30.1944829,48.6185262 C30.1944829,48.9695225 30.4803816,49.253648 30.8331926,49.253648 Z" id="Fill-138" fill="#000000"></path>
                    <mask id="mask-4" fill="white">
                        <use xlink:href="#path-3"></use>
                    </mask>
                    <g id="Clip-141"></g>
                    <polygon id="Fill-140" fill="#000000" mask="url(#mask-4)" points="26.7461198 50.3404354 28.0235392 50.3404354 28.0235392 36.7738229 26.7461198 36.7738229"></polygon>
                    <polygon id="Fill-142" fill="#000000" mask="url(#mask-4)" points="39.8253733 50.3404354 41.1027926 50.3404354 41.1027926 36.7738229 39.8253733 36.7738229"></polygon>
                    <path d="M24.0401806,32.2806601 C24.0519561,32.2439797 24.066449,32.208815 24.0842632,32.1751661 C24.066449,32.208815 24.0519561,32.2436766 24.0401806,32.2806601" id="Fill-143" fill="#000000" mask="url(#mask-4)"></path>
                    <path d="M24.1987935,32.0192586 C24.2332142,31.9850034 24.2730697,31.9559015 24.3156426,31.9301343 C24.2733716,31.9559015 24.2335161,31.9847002 24.1987935,32.0192586" id="Fill-144" fill="#000000" mask="url(#mask-4)"></path>
                    <path d="M24.1040516,32.1398918 C24.1300181,32.0974517 24.1596077,32.0571335 24.1949342,32.0216657 C24.1599097,32.0568304 24.13032,32.0971485 24.1040516,32.1398918" id="Fill-145" fill="#000000" mask="url(#mask-4)"></path>
                    <path d="M24.0076673,32.4719185 C24.0076673,32.4197777 24.0158195,32.3691527 24.027897,32.3197402 C24.0158195,32.3688495 24.0076673,32.4191714 24.0076673,32.4719185" id="Fill-146" fill="#000000" mask="url(#mask-4)"></path>
                    <path d="M28.0235088,36.1383985 L28.0235088,36.7738229 L39.8253429,36.7738229 L39.8253429,36.1383985 C39.8253429,35.7874022 40.1112415,35.5029742 40.4637484,35.5029742 L27.3844949,35.5029742 C27.7376101,35.5029742 28.0235088,35.7874022 28.0235088,36.1383985" id="Fill-147" fill="#000000" mask="url(#mask-4)"></path>
                    <path d="M43.4928442,31.9301646 C43.5354171,31.9559318 43.5749707,31.9850336 43.6099952,32.0192889 C43.5746688,31.9847305 43.5351152,31.9556287 43.4928442,31.9301646" id="Fill-148" fill="#000000" mask="url(#mask-4)"></path>
                    <path d="M41.4674959,33.1069402 L42.5244083,33.1069402 L42.5244083,32.8412723 L42.0937355,32.5973904 C42.0347309,32.8881727 41.777118,33.1069402 41.4674959,33.1069402" id="Fill-149" fill="#000000" mask="url(#mask-4)"></path>
                    <path d="M43.7812673,32.3197705 C43.7933447,32.3691829 43.801497,32.419808 43.801497,32.4719487 C43.801497,32.4192017 43.7933447,32.3688798 43.7812673,32.3197705" id="Fill-150" fill="#000000" mask="url(#mask-4)"></path>
                    <path d="M43.6137429,32.0216052 C43.6490693,32.057073 43.678659,32.0973911 43.7046254,32.1398313 C43.6783571,32.097088 43.6487674,32.0567699 43.6137429,32.0216052" id="Fill-151" fill="#000000" mask="url(#mask-4)"></path>
                    <path d="M43.7248175,32.1752568 C43.7426317,32.2089058 43.7571246,32.2440705 43.7689001,32.2807509 C43.7571246,32.2437674 43.7426317,32.2089058 43.7248175,32.1752568" id="Fill-152" fill="#000000" mask="url(#mask-4)"></path>
                    <path d="M25.7159724,32.5975114 L25.2849954,32.8413934 L25.2849954,33.1070613 L26.3419078,33.1070613 C26.0325899,33.1070613 25.7746728,32.8879911 25.7159724,32.5975114" id="Fill-153" fill="#000000" mask="url(#mask-4)"></path>
                    <path d="M28.0235088,36.7737018 L28.0235088,36.1382775 C28.0235088,35.7872812 27.7376101,35.5031557 27.3844949,35.5031557 L25.284965,35.5031557 L25.284965,36.7737018 L26.7460894,36.7737018 L28.0235088,36.7737018 Z" id="Fill-154" fill="#000000" mask="url(#mask-4)"></path>
                    <path d="M39.8252516,36.1383985 L39.8252516,36.7738229 L41.102671,36.7738229 L42.5242562,36.7738229 L42.5242562,35.5029742 L40.4639613,35.5029742 C40.1111502,35.5029742 39.8252516,35.7874022 39.8252516,36.1383985" id="Fill-155" fill="#000000" mask="url(#mask-4)"></path>
                    <path d="M26.9806783,25.9477956 L29.6976276,25.9477956 C29.506623,25.9477956 29.3253512,25.8630723 29.2043005,25.716017 C29.0826415,25.5692642 29.0339779,25.3762162 29.0707797,25.1898251 L29.1720608,24.6772494 L26.3416645,24.6772494 C25.9891576,24.6772494 25.703259,24.9613749 25.703259,25.3123712 L25.703259,31.1428435 L26.9806783,30.4199727 L26.9806783,25.9477956 Z" id="Fill-156" fill="#000000" mask="url(#mask-4)"></path>
                    <path d="M39.0001604,25.716138 C38.8791097,25.8628908 38.6978378,25.9479166 38.5068332,25.9479166 L40.8289991,25.9479166 L40.8289991,30.4200937 L42.1064184,31.1429646 L42.1064184,25.3124923 C42.1064184,24.9614959 41.8202157,24.6770679 41.4674046,24.6770679 L39.0320959,24.6770679 L39.133377,25.1899461 C39.1704829,25.3763373 39.1215152,25.5693852 39.0001604,25.716138" id="Fill-157" fill="#000000" mask="url(#mask-4)"></path>
                    <path d="M27.0614599,31.8363336 L25.7159115,32.5976325 C25.7749161,32.8881122 26.032529,33.1068797 26.341847,33.1068797 L41.4674046,33.1068797 C41.7770267,33.1068797 42.0346396,32.8881122 42.0936442,32.5976325 L40.7480959,31.8363336 L27.0614599,31.8363336 Z" id="Fill-158" fill="#000000" mask="url(#mask-4)"></path>
                    <path d="M24.1955392,32.0216097 C24.196445,32.0207002 24.1976527,32.0200939 24.1988605,32.0191845 C24.1976527,32.0200939 24.196445,32.0207002 24.1955392,32.0216097" id="Fill-159" fill="#000000" mask="url(#mask-4)"></path>
                    <path d="M24.0845862,32.175323 C24.0909268,32.1631973 24.0969655,32.1510715 24.10391,32.139552 C24.0966636,32.1510715 24.0909268,32.1631973 24.0845862,32.175323" id="Fill-160" fill="#000000" mask="url(#mask-4)"></path>
                    <path d="M25.7031982,31.8363336 L25.7031982,31.1428133 L24.3305806,31.9192413 C24.3254101,31.9222672 24.3214562,31.9271085 24.3162857,31.9301343 C24.4130046,31.8717358 24.525235,31.8363336 24.6462857,31.8363336 L25.7031982,31.8363336 Z" id="Fill-161" fill="#000000" mask="url(#mask-4)"></path>
                    <path d="M33.5890728,26.6811963 L26.9805567,30.4199122 L26.9805567,31.8363033 L27.0614599,31.8363033 L33.9047779,27.9644509 L40.7480959,31.8363033 L40.8289991,31.8363033 L40.8289991,30.4199122 L34.2204829,26.6811963 C34.0249161,26.5701483 33.7849438,26.5701483 33.5890728,26.6811963" id="Fill-162" fill="#000000" mask="url(#mask-4)"></path>
                    <path d="M43.6107622,32.0190937 C43.611668,32.0200032 43.6128758,32.0206094 43.6137816,32.0215189 C43.6128758,32.0206094 43.611668,32.0200032 43.6107622,32.0190937" id="Fill-163" fill="#000000" mask="url(#mask-4)"></path>
                    <path d="M43.1628747,31.8363336 C43.2842295,31.8363336 43.3964599,31.8717358 43.4928747,31.9301343 C43.4877041,31.9271085 43.4840544,31.9222672 43.4785797,31.9192413 L42.1062664,31.1428133 L42.1062664,31.8363336 L43.1628747,31.8363336 Z" id="Fill-164" fill="#000000" mask="url(#mask-4)"></path>
                    <path d="M43.7052304,32.1396731 C43.7121749,32.1511925 43.7182136,32.1633183 43.7245543,32.175444 C43.7182136,32.1633183 43.7121749,32.1511925 43.7052304,32.1396731" id="Fill-165" fill="#000000" mask="url(#mask-4)"></path>
                    <path d="M24.0280147,32.3198434 C24.031336,32.3065051 24.0358651,32.2934699 24.0400922,32.2804347 C24.0358651,32.293773 24.031336,32.3065051 24.0280147,32.3198434" id="Fill-166" fill="#000000" mask="url(#mask-4)"></path>
                    <path d="M43.769071,32.2804649 C43.7732981,32.2935001 43.7778271,32.3062322 43.7811484,32.3198737 C43.7778271,32.3062322 43.7732981,32.2935001 43.769071,32.2804649" id="Fill-167" fill="#000000" mask="url(#mask-4)"></path>
                    <path d="M28.0235088,50.9756177 C28.0235088,51.326614 27.7376101,51.6110421 27.3844949,51.6110421 L40.4637484,51.6110421 C40.1112415,51.6110421 39.8253429,51.326614 39.8253429,50.9756177 L39.8253429,50.3401934 L28.0235088,50.3401934 L28.0235088,50.9756177 Z" id="Fill-168" fill="#000000" mask="url(#mask-4)"></path>
                    <path d="M25.2849954,50.3402841 L25.2849954,36.7736716 L24.6462857,36.7736716 C24.2934747,36.7736716 24.007576,36.4895461 24.007576,36.1382472 L24.007576,50.3402841 L24.032212,50.3402841 L25.2849954,50.3402841 Z" id="Fill-169" fill="#000000" mask="url(#mask-4)"></path>
                    <path d="M28.0235088,50.9756177 L28.0235088,50.3401934 L26.7460894,50.3401934 L25.284965,50.3401934 L24.0321816,50.3401934 C24.3846885,50.3401934 24.6708912,50.6246214 24.6708912,50.9756177 L24.6708912,51.6110421 L27.3844949,51.6110421 C27.7376101,51.6110421 28.0235088,51.326614 28.0235088,50.9756177" id="Fill-170" fill="#000000" mask="url(#mask-4)"></path>
                    <path d="M24.0320024,50.3402841 L24.0075456,50.3402841 L24.0075456,50.3427093 C24.0159998,50.3424061 24.0235482,50.3402841 24.0320024,50.3402841" id="Fill-171" fill="#000000" mask="url(#mask-4)"></path>
                    <path d="M24.0321816,50.3402841 C24.0236654,50.3402841 24.0160618,50.3424022 24.0075456,50.3427048 L24.0075456,50.9757085 C24.0075456,51.3267048 24.2934442,51.6108303 24.6465594,51.6108303 L24.6708912,51.6108303 L24.6708912,50.9757085 C24.6708912,50.6244096 24.3846885,50.3402841 24.0321816,50.3402841" id="Fill-172" fill="#000000" mask="url(#mask-4)"></path>
                    <path d="M43.1628747,36.7737018 L42.524165,36.7737018 L42.524165,50.3403144 L43.1628747,50.3403144 L43.8018885,50.3403144 L43.8018885,36.1382775 C43.8018885,36.4895764 43.5156857,36.7737018 43.1628747,36.7737018" id="Fill-173" fill="#000000" mask="url(#mask-4)"></path>
                    <path d="M39.8252516,50.3402841 L39.8252516,50.9757085 C39.8252516,51.3267048 40.1111502,51.6108303 40.4639613,51.6108303 L42.5242562,51.6108303 L42.5242562,50.9757085 C42.5242562,50.6244096 42.8101548,50.3402841 43.1629659,50.3402841 L42.5242562,50.3402841 L41.102671,50.3402841 L39.8252516,50.3402841 Z" id="Fill-174" fill="#000000" mask="url(#mask-4)"></path>
                    <path d="M43.8017668,50.9756177 L43.8017668,50.3401934 L43.162753,50.3401934 C43.5158682,50.3401934 43.8017668,50.6246214 43.8017668,50.9756177" id="Fill-175" fill="#000000" mask="url(#mask-4)"></path>
                    <path d="M42.5242866,50.9756177 L42.5242866,51.6110421 L43.1629963,51.6110421 C43.5158074,51.6110421 43.801706,51.326614 43.801706,50.9756177 C43.801706,50.6246214 43.5158074,50.3401934 43.1629963,50.3401934 C42.8101853,50.3401934 42.5242866,50.6246214 42.5242866,50.9756177" id="Fill-176" fill="#000000" mask="url(#mask-4)"></path>
                    <path d="M42.1063576,31.8363336 L42.1063576,32.4717579 C42.1063576,32.5147247 42.1017954,32.5567838 42.0935834,32.5976325 L42.5242562,32.8412118 L42.5242562,33.1068797 L42.5242562,35.5030347 L43.1629659,35.5030347 C43.515777,35.5030347 43.8016756,35.7874627 43.8016756,36.138459 L43.8016756,32.4717579 C43.8016756,32.4197137 43.7934636,32.3688797 43.7812977,32.3198613 C43.7779521,32.306245 43.7730857,32.2935365 43.7691318,32.2805255 C43.7575742,32.2439129 43.742671,32.2088133 43.7247263,32.1752266 C43.7183392,32.1634258 43.7122562,32.1510199 43.7052608,32.1395218 C43.6791041,32.0971601 43.6492977,32.0569166 43.6137124,32.0215144 C43.6128,32.0206066 43.6115834,32.0200015 43.610671,32.0190937 C43.575694,31.9849018 43.5355465,31.9558539 43.4929659,31.9301343 C43.396247,31.8717358 43.2843207,31.8363336 43.1629659,31.8363336 L42.1063576,31.8363336 Z" id="Fill-177" fill="#000000" mask="url(#mask-4)"></path>
                    <path d="M24.6464074,35.5030952 L25.2851171,35.5030952 L25.2851171,33.1069402 L25.2851171,32.8412723 L25.716094,32.5973904 C25.7075779,32.5568443 25.7033198,32.5147852 25.7033198,32.4715159 L25.7033198,31.8363941 L24.6464074,31.8363941 C24.5253567,31.8363941 24.4128221,31.8717963 24.3164074,31.9301948 C24.2735226,31.9559144 24.2336793,31.9849624 24.1987023,32.0191542 C24.1974857,32.020062 24.1965733,32.0206672 24.1956608,32.0215749 C24.1597714,32.0569771 24.1302691,32.0972207 24.1041124,32.1395823 C24.0968129,32.1510804 24.0910341,32.1631838 24.084647,32.1752871 C24.0667023,32.2088738 24.0517991,32.2439734 24.0402415,32.280586 C24.0359834,32.293597 24.0314212,32.3063055 24.0280756,32.3196192 C24.0159097,32.3689402 24.0076977,32.4197742 24.0076977,32.4715159 L24.0076977,36.1385196 C24.0076977,35.7872207 24.2935963,35.5030952 24.6464074,35.5030952" id="Fill-178" fill="#000000" mask="url(#mask-4)"></path>
                    <path d="M24.6464074,36.7737018 L25.2851171,36.7737018 L25.2851171,35.5031557 L24.6464074,35.5031557 C24.2935963,35.5031557 24.0076977,35.7872812 24.0076977,36.1382775 C24.0076977,36.4895764 24.2935963,36.7737018 24.6464074,36.7737018" id="Fill-179" fill="#000000" mask="url(#mask-4)"></path>
                    <path d="M43.1628747,35.5030952 L42.524165,35.5030952 L42.524165,36.7736413 L43.1628747,36.7736413 C43.5156857,36.7736413 43.8018885,36.4895159 43.8018885,36.1385196 C43.8018885,35.7872207 43.5156857,35.5030952 43.1628747,35.5030952" id="Fill-180" fill="#000000" mask="url(#mask-4)"></path>
                    <polygon id="Fill-181" fill="#000000" mask="url(#mask-4)" points="40.8288774 31.8363336 42.1062968 31.8363336 42.1062968 31.1428133 40.8288774 30.4199424"></polygon>
                    <polygon id="Fill-182" fill="#000000" mask="url(#mask-4)" points="26.9806783 31.8363336 26.9806783 30.4199424 25.703259 31.1428133 25.703259 31.8363336"></polygon>
                    <path d="M26.9806783,31.8363336 L25.703259,31.8363336 L25.703259,32.4717579 C25.703259,32.5147247 25.7075171,32.5567838 25.7160332,32.5976325 L27.0615816,31.8363336 L26.9806783,31.8363336 Z" id="Fill-183" fill="#000000" mask="url(#mask-4)"></path>
                    <path d="M42.0936138,32.5975114 C42.1018258,32.5569653 42.106388,32.5149063 42.106388,32.4716369 L42.106388,31.8362125 L40.8289687,31.8362125 L40.7480654,31.8362125 L42.0936138,32.5975114 Z" id="Fill-184" fill="#000000" mask="url(#mask-4)"></path>
                    <path d="M34.1020175,6.33956827 L36.0804968,16.3378192 C36.5269853,16.3798782 36.9710406,16.4307122 37.4123585,16.490321 L35.0536949,4.56824723 L34.1020175,4.56824723 L33.1506442,4.56824723 L30.8376028,16.2603579 C31.2731419,16.2325203 31.7111143,16.2113395 32.1512157,16.2004465 L34.1020175,6.33956827 Z" id="Fill-185" fill="#000000" mask="url(#mask-4)"></path>
                    <path d="M39.0322175,24.6771889 L37.7703097,18.2987387 C37.3277751,18.230355 36.8818949,18.1728642 36.4335816,18.1232406 L37.7301622,24.6771889 L39.0322175,24.6771889 Z" id="Fill-186" fill="#000000" mask="url(#mask-4)"></path>
                    <path d="M30.4742074,24.6771889 L31.8042442,17.9537941 C31.3632304,17.969831 30.9240415,17.9934325 30.487894,18.0276244 L29.1721521,24.6771889 L30.4742074,24.6771889 Z" id="Fill-187" fill="#000000" mask="url(#mask-4)"></path>
                    <path d="M36.1080829,16.478599 C36.5551797,16.5210391 36.999235,16.5731799 37.440553,16.6332024 L37.4122673,16.4907248 C36.9709493,16.4310054 36.526894,16.3800772 36.0804055,16.3379402 L36.1080829,16.478599 Z" id="Fill-188" fill="#000000" mask="url(#mask-4)"></path>
                    <path d="M32.1238728,16.3386801 L32.1512461,16.2004465 C31.7111447,16.2113597 31.2731724,16.2325797 30.8376332,16.260469 L30.8099558,16.4002183 C31.2457991,16.3720259 31.6834673,16.3498964 32.1238728,16.3386801" id="Fill-189" fill="#000000" mask="url(#mask-4)"></path>
                    <path d="M37.770188,18.2987085 L37.4404922,16.6326863 C36.9991742,16.5724723 36.5551189,16.5207306 36.1080221,16.478369 L36.4334599,18.1232103 C36.8817733,18.1728339 37.3276535,18.2303247 37.770188,18.2987085" id="Fill-190" fill="#000000" mask="url(#mask-4)"></path>
                    <path d="M31.8042747,17.9537336 L32.1239336,16.3385454 C31.6835281,16.3494384 31.2458599,16.3715269 30.8097124,16.3996672 L30.4879244,18.0275638 C30.9240719,17.993372 31.3632608,17.9697705 31.8042747,17.9537336" id="Fill-191" fill="#000000" mask="url(#mask-4)"></path>
                    <path d="M30.4742074,24.6771889 L29.1721521,24.6771889 L29.070871,25.1897646 C29.0340691,25.3764583 29.0827327,25.5692037 29.2040876,25.716259 C29.3254424,25.8630118 29.5064101,25.9477351 29.6974147,25.9477351 L38.5067419,25.9477351 C38.6977465,25.9477351 38.8790184,25.8630118 39.0000691,25.716259 C39.1217281,25.5692037 39.1703917,25.3764583 39.1335899,25.1897646 L39.0323088,24.6771889 L37.7299493,24.6771889 L30.4742074,24.6771889 Z" id="Fill-192" fill="#000000" mask="url(#mask-4)"></path>
                    <path d="M34.1020175,3.14501771 C34.2802479,3.14501771 34.4429668,3.2022059 34.5767917,3.29751956 L34.7410313,3.29751956 L34.7410313,0.635394096 C34.7410313,0.284397786 34.4548286,-3.02583026e-05 34.1020175,-3.02583026e-05 C33.7495106,-3.02583026e-05 33.4633078,0.284397786 33.4633078,0.635394096 L33.4633078,3.29751956 L33.6272433,3.29751956 C33.7613724,3.2022059 33.9237871,3.14501771 34.1020175,3.14501771" id="Fill-193" fill="#000000" mask="url(#mask-4)"></path>
                    <path d="M34.1020175,3.14501771 C33.9237871,3.14501771 33.7613724,3.20231191 33.6272433,3.29780224 L34.5767917,3.29780224 C34.4429668,3.20231191 34.2802479,3.14501771 34.1020175,3.14501771" id="Fill-194" fill="#000000" mask="url(#mask-4)"></path>
                    <path d="M33.4634295,3.45101993 L33.4634295,3.29761033 L32.119706,3.29761033 C31.7668949,3.29761033 31.4806922,3.58173579 31.4806922,3.9327321 C31.4806922,4.28372841 31.7668949,4.56815646 32.119706,4.56815646 L33.1507659,4.56815646 L33.2979733,3.82319705 C33.3213926,3.68189077 33.3803972,3.55571365 33.4634295,3.45101993" id="Fill-195" fill="#000000" mask="url(#mask-4)"></path>
                    <path d="M34.9060313,3.82316679 L35.0535429,4.5681262 L36.0846028,4.5681262 C36.4374138,4.5681262 36.7236166,4.28369815 36.7236166,3.93270185 C36.7236166,3.58170554 36.4374138,3.29758007 36.0846028,3.29758007 L34.7408793,3.29758007 L34.7408793,3.45098967 C34.8239115,3.55568339 34.8829161,3.68186052 34.9060313,3.82316679" id="Fill-196" fill="#000000" mask="url(#mask-4)"></path>
                    <path d="M34.7409097,3.45101993 L34.7409097,3.9327321 C34.7409097,4.28372841 34.4550111,4.56815646 34.1018959,4.56815646 L35.0535733,4.56815646 L34.9060618,3.82319705 C34.8829465,3.68189077 34.8239419,3.55571365 34.7409097,3.45101993" id="Fill-197" fill="#000000" mask="url(#mask-4)"></path>
                    <path d="M33.4634295,3.93279262 L33.4634295,3.45108044 C33.3803972,3.55577417 33.3213926,3.68195129 33.2979733,3.82325756 L33.1507659,4.56821697 L34.1021392,4.56821697 C33.7493281,4.56821697 33.4634295,4.28378893 33.4634295,3.93279262" id="Fill-198" fill="#000000" mask="url(#mask-4)"></path>
                    <path d="M33.6261727,3.2974893 L33.4634295,3.2974893 L33.4634295,3.45118326 C33.5099276,3.3920702 33.5651818,3.34114202 33.6261727,3.2974893" id="Fill-199" fill="#000000" mask="url(#mask-4)"></path>
                    <path d="M34.7397152,3.4513043 L34.7397152,3.29761033 L34.57667,3.29761033 C34.637661,3.34126306 34.6932171,3.39188809 34.7397152,3.4513043" id="Fill-200" fill="#000000" mask="url(#mask-4)"></path>
                    <path d="M33.927376,3.93279262 L33.9304175,3.93279262 L33.927376,3.93279262 Z M34.7409705,3.93279262 L34.7409705,3.45108044 C34.6941318,3.39177417 34.6381687,3.34094022 34.5767309,3.29736827 L33.6274866,3.29736827 C33.5660488,3.34094022 33.5103899,3.39177417 33.4635512,3.45108044 L33.4635512,3.93279262 C33.4635512,4.28378893 33.7494498,4.56821697 34.1019567,4.56821697 C34.4547677,4.56821697 34.7409705,4.28378893 34.7409705,3.93279262 Z" id="Fill-201" fill="#000000" mask="url(#mask-4)"></path>
                    <path d="M33.6202479,75.8116325 L33.3142756,75.8116325 C30.3898977,75.8116325 28.5057041,77.5850716 27.4752525,79.5545845 C27.9244783,79.6341638 28.3776581,79.7031528 28.8335751,79.7633668 C28.9050498,79.6441491 28.975612,79.5243262 29.0549945,79.4084369 C29.7806903,78.3472782 31.1085982,77.0821786 33.3142756,77.0821786 L33.6202479,77.0821786 C35.5719622,77.0821786 37.1106442,77.8667764 38.1940175,79.414186 C38.2314276,79.4677432 38.2633631,79.5246288 38.2989484,79.5793963 C38.7490866,79.5019351 39.1955751,79.414186 39.6390221,79.317662 C39.5182756,79.1049461 39.3865797,78.8943483 39.2421097,78.6879867 C38.3235843,77.3756841 36.6024138,75.8116325 33.6202479,75.8116325" id="Fill-202" fill="#000000" mask="url(#mask-4)"></path>
                    <path d="M39.0868728,81.2052354 C39.5102461,81.1256561 39.9311862,81.0400251 40.3487806,80.9444089 C40.3171493,80.844859 40.2827806,80.7444015 40.2462829,80.6433387 C39.8274719,80.7380472 39.4053152,80.8236782 38.9804212,80.9023498 C39.0199604,81.0037151 39.0522,81.1044753 39.0868728,81.2052354" id="Fill-203" fill="#000000" mask="url(#mask-4)"></path>
                    <path d="M26.9067097,80.8954207 C26.8729493,80.9973911 26.8410138,81.099059 26.8118157,81.2004244 C27.2345806,81.2800037 27.6600829,81.3526236 28.0886267,81.4161661 C28.1205622,81.3151033 28.1591889,81.2116199 28.1962949,81.1090443 C27.7634931,81.0464096 27.3337327,80.975 26.9067097,80.8954207" id="Fill-204" fill="#000000" mask="url(#mask-4)"></path>
                    <path d="M28.8334839,79.7632458 C28.3775668,79.7030317 27.9246912,79.6343454 27.4751613,79.5547661 C27.2430968,79.9977476 27.0539171,80.4504118 26.9067097,80.8955114 C27.3337327,80.9747882 27.7634931,81.0461978 28.1962949,81.1091351 C28.3584055,80.660707 28.569788,80.2041092 28.8334839,79.7632458" id="Fill-205" fill="#000000" mask="url(#mask-4)"></path>
                    <path d="M38.9805429,80.9023498 C39.4051327,80.8236782 39.8272894,80.7380472 40.2461005,80.6433387 C40.0882479,80.2051985 39.888423,79.7570731 39.6390221,79.3177225 C39.1955751,79.4142465 38.7490866,79.5019956 38.2989484,79.5794568 C38.5763309,80.0030731 38.8059622,80.453014 38.9805429,80.9023498" id="Fill-206" fill="#000000" mask="url(#mask-4)"></path>
                </g>
            </g>
        </g>
    </g>
</svg>