<svg height="96" viewBox="0 0 95 96" width="95" xmlns="http://www.w3.org/2000/svg" xmlns:xlink="http://www.w3.org/1999/xlink"><mask id="a" fill="#fff"><path d="m.20527617.00437333h78.47842093v45.28917337h-78.47842093z" fill="none"/></mask><mask id="b" fill="#fff"><path d="m.00021158.09874133h6.49217094v6.32954667h-6.49217094z" fill="none"/></mask><g fill="none" fill-rule="evenodd"><g transform="translate(16.291759 .209067)"><path d="m11.4233163 24.9176533c-4.95734971 0-8.99051229 4.06656-8.99051229 9.06496s4.03316258 9.06496 8.99051229 9.06496h55.2713808c5.3824165 0 9.7615145-4.4151466 9.7615145-9.8421333 0-4.0561067-2.5262806-7.75232-6.2862918-9.1976533-.4692873-.1802667-.7608463-.65536-.7115479-1.1594667.0609354-.62336.0918263-1.2494933.0918263-1.8609067 0-10.3317333-8.3365145-18.73706663-18.5833964-18.73706663-8.4279176 0-15.8157016 5.73205333-17.9657907 13.93941333-.0812472.3099733-.2900779.57024-.5738084.7150933-.2839421.14464-.61549.1602134-.9112807.04288-1.1514253-.4571733-2.3631514-.6890666-3.6021714-.6890666-4.5820045 0-8.6219377 3.27104-9.6057907 7.7774933-.1125612.5147733-.564922.8814933-1.087951.8814933zm55.2713808 20.3758934h-55.2713808c-6.18557911 0-11.21804013-5.07392-11.21804013-11.3109334 0-6.2368 5.03246102-11.3109333 11.21804013-11.3109333h4.9368262c1.5161916-5.0683733 6.2374165-8.6589867 11.5536081-8.6589867 1.1129176 0 2.2080623.1525334 3.2693541.4544 2.7729844-8.57322663 10.7443096-14.46271997 19.7836971-14.46271997 11.4751113 0 20.8107127 9.41290667 20.8107127 20.98303997 0 .4132267-.0124833.8324267-.0374499 1.2526934 4.1852895 1.9643733 6.9436748 6.2683733 6.9436748 10.9653333 0 6.6653867-5.3781848 12.0881067-11.9890423 12.0881067z" fill="#172942" mask="url(#a)"/><path d="m36.3895913 19.636416 7.5248887 14.8635733 16.8268485 2.3831467-12.1754454 11.5697067 2.8736971 16.3370666-15.0499889-7.71328-15.0499889 7.71328 2.8736972-16.3370666-12.1754455-11.5697067 16.8268486-2.3831467z" fill="#5cd8ff"/></g><g transform="translate(0 19.835733)"><path d="m52.6813508.00974933 7.5248886 14.86357337 16.8268486 2.3831466-12.1754455 11.5697067 2.8736971 16.3370667-15.0499888-7.71328-15.0499889 7.71328 2.8736971-16.3370667-12.1754454-11.5697067 16.8268485-2.3831466z" stroke="#5cd8ff" stroke-linejoin="round" stroke-width=".6375"/><g fill="#172942"><path d="m10.5859198 50.8484907c-.3125055 0-.62585744-.1166934-.86536746-.3492267-.47711581-.46592-.47711581-1.22176 0-1.6866133l17.82783966-17.3787734c.4779621-.4650666 1.2525612-.4650666 1.7307349 0 .4771159.46592.4771159 1.2206934 0 1.6868267l-17.8278396 17.37856c-.23951.2325333-.5528619.3492267-.8653675.3492267"/><path d="m1.22395546 6.428288c-.3133519 0-.62585746-.11669333-.86536749-.34922667-.47817372-.46592-.47817372-1.22176 0-1.68661333l4.0454343-3.94410667c.47817372-.46613333 1.25277283-.46613333 1.72988864 0 .47796214.46592.47796214 1.22069334 0 1.68661334l-4.04458797 3.94410666c-.23951002.23253334-.55286192.34922667-.86536748.34922667" mask="url(#b)" transform="translate(0 53.546667)"/><path d="m19.3707751 61.9327573c-.3125056 0-.6258575-.1166933-.8653675-.3492266-.4771158-.46592-.4771158-1.22176 0-1.6866134l9.9155456-9.66464c.4771158-.46592 1.251715-.46592 1.7296771 0 .4781737.4648534.4781737 1.21984 0 1.68576l-9.9144878 9.6654934c-.23951.2325333-.5520156.3492266-.8653674.3492266"/><path d="m22.0216347 76.1595307c-.3125055 0-.6258574-.1169067-.8653674-.3492267-.4771159-.46592-.4771159-1.2206933 0-1.6868267l13.2073274-12.8738133c.4771158-.4661333 1.2527728-.4661333 1.7298886 0 .4779621.46592.4779621 1.2206933 0 1.6866133l-13.2064811 12.8740267c-.23951.23232-.5520156.3492267-.8653675.3492267"/><path d="m39.9277806 58.70464c-.3125055 0-.6258574-.1166933-.8653675-.3492267-.4771158-.46592-.4771158-1.22176 0-1.6866133l6.6036637-6.43712c.4781738-.46592 1.2527729-.46592 1.7296771 0 .4781737.4650667.4781737 1.2209067 0 1.6868267l-6.6026058 6.4369066c-.23951.2325334-.5520156.3492267-.8653675.3492267"/></g></g></g></svg>