<svg height="84" viewBox="0 0 64 84" width="64" xmlns="http://www.w3.org/2000/svg" xmlns:xlink="http://www.w3.org/1999/xlink"><mask id="a" fill="#fff"><path d="m.22143319.05885034h59.29043871v76.94294286h-59.29043871z" fill="none"/></mask><g fill="none" fill-rule="evenodd" transform="translate(2)"><path d="m44.1256773 18.2906299s-13.5363518-11.96195915-9.3685833-18.23189112c0 0-14.9424584 9.16698639-12.4914445 19.98289792 0 0 .1886482.6668776.3515973 1.6436259.3967824 2.3777211.6402176 6.6015578-2.3671389 7.581653 0 0-5.343713 2.4295987-7.3592547-2.6482653 0 0-5.48209255 6.3533266-8.75547681 13.5882926-1.01186574 2.2368707 1.38803241-1.6765375-1.1285 1.1086734-2.83565278 3.138313-2.78538426 6.0250476-2.78538426 6.0381565 0 9.9763877 5.49338889 19.0605374 13.73601387 23.5892245.5329028.2250816 2.706875.8897279 3.2801621 1.0919388 0 0-8.67527319-8.0669592-6.5738797-13.7107347 0 0 2.5947593 3.4537619 5.7114074 3.238721 0 0 2.9853287-.4984149 2.7613797-3.4537619 0 0 0-1.056517-1.7791667-2.967619 0 0-7.1415185-8.6629932 1.7791667-12.8896191 0 0 19.8571944-6.75217 14.9489537-18.0631496 0 0 7.5891342 3.5943333-2.2332778 15.0525782 0 0-8.9209676 9.7808708.4478981 17.1781633 0 0 7.3592547 5.3696054 8.2547686-8.9391157 0 0 17.9286342 15.1847824-2.9695139 29.5213946 0 0 9.882-6.9499184 11.8958472-9.1569456 3.9706481-4.3515782 5.4278704-1.006034 8.9215324-11.0011088 0 0 7.0231898-21.187517-14.2771065-38.5531089" fill="#5cd8ff" mask="url(#a)" transform="translate(.282407 .220061)"/><path d="m43.2537727 34.2900293c-5.0813565 0-9.6546621 2.1386938-12.854338 5.5522925-3.1996759-3.4135987-7.7732639-5.5522925-12.8546203-5.5522925-9.6741482 0-17.51631949 7.7453741-17.51631949 17.2997687 0 4.6723265 1.87857407 8.9089932 4.92687963 12.0216462l.02937037.0309592c.12312963.119932 8.63121759 8.1919116 25.41468979 18.2706599 16.7834722-10.0787483 25.2915602-18.1507279 25.4146898-18.2706599l.0293704-.0309592c3.0480232-3.112653 4.9268796-7.3493197 4.9268796-12.0216462 0-9.5543946-7.8424537-17.2997687-17.5166018-17.2997687z" stroke="#231f20" stroke-linecap="round" stroke-linejoin="round" stroke-width="2.29628"/></g></svg>