<?xml version="1.0" encoding="UTF-8"?>
<svg width="66px" height="66px" viewBox="0 0 66 66" version="1.1" xmlns="http://www.w3.org/2000/svg" xmlns:xlink="http://www.w3.org/1999/xlink">
    <!-- Generator: sketchtool 50.2 (55047) - http://www.bohemiancoding.com/sketch -->
    <title>443A8A68-73B4-4AFC-9983-3BB82CB45B08</title>
    <desc>Created with sketchtool.</desc>
    <defs>
        <polygon id="path-1" points="0.20783945 0.106117051 0.303695394 0.106117051 0.303695394 5.16378525 0.20783945 5.16378525"></polygon>
        <polygon id="path-3" points="0 0.148697696 0.302710954 0.148697696 0.302710954 2.66460553 0 2.66460553"></polygon>
        <polygon id="path-5" points="0.242898165 0.28200553 20.0204945 0.28200553 20.0204945 2.12903226 0.242898165 2.12903226"></polygon>
        <polygon id="path-7" points="0.20783945 0.0270387097 0.303695394 0.0270387097 0.303695394 2.17796959 0.20783945 2.17796959"></polygon>
        <polygon id="path-9" points="0 65.9239631 65.698156 65.9239631 65.698156 0 0 0"></polygon>
    </defs>
    <g id="Future-Project-Desktop" stroke="none" stroke-width="1" fill="none" fill-rule="evenodd">
        <g id="Future-Schools" transform="translate(-897.000000, -1703.000000)">
            <g id="future-schools/locations" transform="translate(1.000000, 1523.000000)">
                <g id="Group-102" transform="translate(896.000000, 180.000000)">
                    <path d="M63.1390817,45.5340083 L63.2108339,45.5340083 C63.5284211,44.7672525 63.8172468,43.9852894 64.077311,43.1899438 L64.077311,42.9590959 C63.7996872,43.833824 63.4860358,44.6924323 63.1390817,45.5340083" id="Fill-1" fill="#916AF9"></path>
                    <g id="Group-5" transform="translate(65.394495, 30.338710)">
                        <mask id="mask-2" fill="white">
                            <use xlink:href="#path-1"></use>
                        </mask>
                        <g id="Clip-4"></g>
                        <path d="M0.22691978,2.62324147 C0.22691978,2.98335207 0.21934822,3.34133364 0.20783945,3.69870691 L0.20783945,5.16378525 C0.271137688,4.32890046 0.303543963,3.48580369 0.303543963,2.63479908 C0.303543963,1.78379447 0.271137688,0.940697696 0.20783945,0.106117051 L0.20783945,1.54777604 C0.21934822,1.90514931 0.22691978,2.26313088 0.22691978,2.62324147" id="Fill-3" fill="#916AF9" mask="url(#mask-2)"></path>
                    </g>
                    <path d="M32.8106587,1.74881751 C24.5546037,1.74881751 17.0415028,5.00137051 11.4714661,10.296882 L54.1501541,10.296882 C48.5801174,5.00137051 41.0667138,1.74881751 32.8106587,1.74881751" id="Fill-6" fill="#5CD8FF"></path>
                    <path d="M54.9367046,57.2794839 C58.0877505,54.4229309 60.6805211,50.9568664 62.5306404,47.066212 L62.4616128,47.066212 C60.6257229,50.9462212 58.057778,54.4110691 54.9367046,57.2794839" id="Fill-8" fill="#916AF9"></path>
                    <path d="M44.2519706,63.7426175 L44.2519706,63.8551521 C46.3712367,63.0601106 48.3872642,62.0512535 50.2743193,60.8544332 L50.1892459,60.8544332 C48.3261083,62.0086728 46.339145,62.9801198 44.2519706,63.7426175" id="Fill-10" fill="#000000"></path>
                    <path d="M54.9269257,57.2884811 C54.9302572,57.2854618 54.9332858,57.2824424 54.9366173,57.279423 C54.9332858,57.2824424 54.9302572,57.2851598 54.9269257,57.2881792 L54.9269257,57.2884811 Z" id="Fill-12" fill="#000000"></path>
                    <path d="M12.2264394,58.6097032 C12.5249532,58.8521088 12.8271,59.0905604 13.1343936,59.3226249 L13.7871275,59.3226249 C13.2545862,58.9272332 12.7338523,58.5160258 12.2264394,58.0896111 L12.2264394,58.6097032 Z" id="Fill-14" fill="#000000"></path>
                    <path d="M1.55118165,41.1108221 L1.55118165,42.9804166 C1.82729174,43.8478452 2.13821835,44.6994581 2.48214495,45.5340387 L3.02286055,45.5340387 C2.43249358,44.1075871 1.93809908,42.6309512 1.55118165,41.1108221" id="Fill-16" fill="#000000"></path>
                    <path d="M3.70326606,47.0661816 L3.15952294,47.0661816 C4.99904587,50.952882 7.57274312,54.4235088 10.7013853,57.294965 L10.7013853,56.7259051 C7.81857798,53.9791493 5.43591743,50.7089558 3.70326606,47.0661816" id="Fill-18" fill="#000000"></path>
                    <g id="Group-22" transform="translate(0.000000, 31.555300)">
                        <mask id="mask-4" fill="white">
                            <use xlink:href="#path-3"></use>
                        </mask>
                        <g id="Clip-21"></g>
                        <path d="M-0.000151431193,1.40665161 C-0.000151431193,1.8282 0.0104487523,2.24701106 0.0261975963,2.66460553 L0.0261975963,0.148697696 C0.0104487523,0.566292166 -0.000151431193,0.985407373 -0.000151431193,1.40665161" id="Fill-20" fill="#000000" mask="url(#mask-4)"></path>
                    </g>
                    <path d="M16.0445394,60.8545548 L15.3469982,60.8545548 C17.2504018,62.0617161 19.2845945,63.078177 21.4244477,63.8759558 L21.4244477,63.5313567 C19.5404202,62.8035318 17.7411633,61.9050802 16.0445394,60.8545548" id="Fill-23" fill="#000000"></path>
                    <path d="M33.1169532,0.242192627 C42.3481734,0.242192627 50.681733,4.09999908 56.6102284,10.2970037 L56.6117422,10.2970037 C50.6284486,3.95887465 42.1710633,9.12442396e-05 32.8105679,9.12442396e-05 C23.4500725,9.12442396e-05 14.9932927,3.95887465 9.00999908,10.2970037 L9.62367798,10.2970037 C15.5521734,4.09999908 23.8860358,0.242192627 33.1169532,0.242192627" id="Fill-25" fill="#000000"></path>
                    <g id="Group-29" transform="translate(22.706422, 63.794931)">
                        <mask id="mask-6" fill="white">
                            <use xlink:href="#path-5"></use>
                        </mask>
                        <g id="Clip-28"></g>
                        <path d="M10.4105312,1.90980276 C6.85954954,1.90980276 3.4423844,1.33709309 0.242898165,0.28200553 L0.242898165,0.606835023 C3.3567055,1.59470599 6.66972385,2.12909309 10.1041459,2.12909309 C13.559155,2.12909309 16.8903385,1.58801475 20.0204945,0.58919447 L20.0204945,0.461756682 C16.982678,1.40278894 13.7556413,1.90980276 10.4105312,1.90980276" id="Fill-27" fill="#000000" mask="url(#mask-6)"></path>
                    </g>
                    <path d="M52.4871661,59.3225336 C52.7965789,59.0886442 53.100845,58.8483677 53.4017807,58.6041373 L53.4017807,58.5861926 C53.0881294,58.8374184 52.7699367,59.0828654 52.4465972,59.3225336 L52.4871661,59.3225336 Z" id="Fill-30" fill="#000000"></path>
                    <path d="M4.37558807,45.5340083 C2.72316606,41.7765705 1.78796422,37.6325613 1.74497339,33.2777779 L1.55121193,33.2777779 L1.55121193,41.1107917 C1.93812936,42.6309207 2.43252385,44.1075567 3.02289083,45.5340083 L4.37558807,45.5340083 Z" id="Fill-32" fill="#000000"></path>
                    <path d="M12.2264394,56.3204157 L12.2264394,58.0896415 C12.7338523,58.5160562 13.2545862,58.9272636 13.7871275,59.3226553 L16.190678,59.3226553 C14.7889349,58.4275493 13.4640908,57.4226461 12.2264394,56.3204157" id="Fill-34" fill="#000000"></path>
                    <path d="M32.8106587,1.74881751 C41.0667138,1.74881751 48.5801174,5.00137051 54.1501541,10.296882 L56.6100165,10.296882 C50.6815211,4.09987742 42.3482642,0.242070968 33.117044,0.242070968 C23.8858239,0.242070968 15.5522642,4.09987742 9.62376881,10.296882 L11.4714661,10.296882 C17.0415028,5.00137051 24.5546037,1.74881751 32.8106587,1.74881751" id="Fill-36" fill="#000000"></path>
                    <path d="M10.7014459,56.7259963 L10.7014459,54.8685677 C8.45774862,52.5832037 6.56070275,49.9538488 5.09840917,47.0662728 L3.70332661,47.0662728 C5.43567523,50.7087429 7.81863853,53.9792406 10.7014459,56.7259963" id="Fill-38" fill="#000000"></path>
                    <path d="M64.0772202,33.2776866 L63.8767982,33.2776866 C63.8335046,37.6327742 62.8983028,41.7764793 61.2458807,45.5339171 L63.1389908,45.5339171 C63.4862477,44.6926452 63.7995963,43.8337327 64.0772202,42.9590046 L64.0772202,33.2776866 Z" id="Fill-40" fill="#000000"></path>
                    <g id="Group-44" transform="translate(65.394495, 31.859447)">
                        <mask id="mask-8" fill="white">
                            <use xlink:href="#path-7"></use>
                        </mask>
                        <g id="Clip-43"></g>
                        <path d="M0.22691978,1.10250415 C0.22691978,0.742393548 0.21934822,0.384411982 0.20783945,0.0270387097 L0.20783945,2.17796959 C0.21934822,1.82059631 0.22691978,1.46261475 0.22691978,1.10250415" id="Fill-42" fill="#000000" mask="url(#mask-8)"></path>
                    </g>
                    <path d="M62.4617339,47.0661816 L60.5229083,47.0661816 C59.0621284,49.9510203 57.1678073,52.5779419 54.9268349,54.8614811 L54.9268349,57.2879696 C54.9301651,57.2852323 54.9334954,57.2824949 54.9368257,57.2794535 C58.0575963,54.4110387 60.625844,50.9461908 62.4617339,47.0661816" id="Fill-45" fill="#000000"></path>
                    <path d="M44.2519706,61.9820295 L44.2519706,63.7427392 C46.339145,62.9799373 48.3261083,62.0084903 50.1892459,60.8545548 L46.7445303,60.8545548 C45.9334569,61.2654581 45.1020991,61.6426009 44.2519706,61.9820295" id="Fill-47" fill="#000000"></path>
                    <path d="M49.4309725,59.3225336 L52.4466881,59.3225336 C52.7697248,59.0828654 53.0882202,58.8374184 53.4018716,58.5861926 L53.4018716,56.3142111 C52.1621009,57.4188747 50.8351376,58.4259069 49.4309725,59.3225336" id="Fill-49" fill="#000000"></path>
                    <path d="M18.8766358,60.8545548 L16.0446908,60.8545548 C17.7410119,61.9050802 19.5402688,62.8035318 21.4242963,63.5313567 L21.4242963,62.0045364 C20.5550945,61.659329 19.7055716,61.2742783 18.8766358,60.8545548" id="Fill-51" fill="#000000"></path>
                    <path d="M32.8106587,64.1750848 C29.3650349,64.1750848 26.048989,63.6078498 22.949411,62.5627991 L22.949411,64.0768452 C26.1488972,65.1319327 29.5660624,65.7046424 33.117044,65.7046424 C36.4621541,65.7046424 39.6891908,65.1976286 42.7270073,64.2569005 L42.7270073,62.5448544 C39.6113835,63.6017668 36.276567,64.1750848 32.8106587,64.1750848" id="Fill-53" fill="#000000"></path>
                    <path d="M1.55118165,19.4891613 L2.86815413,19.4891613 C3.09975963,18.9715023 3.34377798,18.4605346 3.60111743,17.9571705 L2.36134679,17.9571705 L7.24625505,11.8289032 L7.65164037,11.8289032 C8.08911743,11.3042488 8.54173211,10.792977 9.01008991,10.2969124 L6.88870459,10.2969124 C6.84147523,10.2923502 6.79333761,10.2923502 6.7458055,10.2969124 C6.56536514,10.3346267 6.40430092,10.4365161 6.29319083,10.5840276 L0.193034862,18.2442857 C0.0849522936,18.3802396 0.0262183486,18.5493456 0.0262183486,18.7230138 L0.0262183486,31.7040276 C0.140658716,28.6613364 0.66653945,25.7229677 1.55118165,22.9433641 L1.55118165,19.4891613 Z" id="Fill-55" fill="#000000"></path>
                    <path d="M57.9852083,11.8289032 L58.3824193,11.8289032 L63.2670248,17.9571705 L62.0732725,17.9571705 C62.3321257,18.4605346 62.5800798,18.970894 62.8135018,19.4891613 L64.0771899,19.4891613 L64.0771899,22.7569217 C64.8773642,25.2050046 65.3993092,27.7799171 65.6021532,30.4448571 L65.6021532,18.7230138 C65.6021532,18.5493456 65.543722,18.3805438 65.4353367,18.2442857 L59.3354835,10.5840276 C59.1904651,10.4024516 58.9712725,10.2966083 58.739667,10.2969124 L56.6116211,10.2969118 C56.6213092,10.3072535 56.6306945,10.3178986 56.6406853,10.3282396 C57.1041991,10.8142673 57.551667,11.3151982 57.9852083,11.8289032" id="Fill-57" fill="#000000"></path>
                    <path d="M57.9852083,11.8289032 C57.551667,11.3151982 57.1041991,10.8142673 56.6406853,10.3282396 C57.0984468,10.8148756 57.5413734,11.3155023 57.9694651,11.8289032 L57.9852083,11.8289032 Z" id="Fill-59" fill="#000000"></path>
                    <path d="M54.150245,10.296882 L11.4712541,10.296882 C10.9523367,10.7902092 10.4512817,11.3014811 9.96748349,11.8288728 L55.6543183,11.8288728 C55.1702174,11.3014811 54.6688596,10.7902092 54.150245,10.296882" id="Fill-61" fill="#000000"></path>
                    <path d="M62.7532541,19.4891613 L62.8135018,19.4891613 C62.5800798,18.970894 62.3321257,18.4605346 62.0732725,17.9571705 L62.0205936,17.9571705 C62.2776303,18.4605346 62.5216486,18.9715023 62.7532541,19.4891613" id="Fill-63" fill="#000000"></path>
                    <path d="M63.1390817,45.5340083 C62.925944,46.0513631 62.7003936,46.5623309 62.4618248,47.0663032 L62.5305495,47.0663032 C62.7700266,46.5623309 62.9964853,46.0516673 63.2108339,45.5340083 L63.1390817,45.5340083 Z" id="Fill-65" fill="#000000"></path>
                    <path d="M64.0772202,22.9648977 C64.9754862,25.7934691 65.5028807,28.7865843 65.6021835,31.8864553 L65.6021835,30.4447963 C65.3993394,27.7798562 64.8773945,25.2052479 64.0772202,22.7568608 L64.0772202,22.9648977 Z" id="Fill-67" fill="#000000"></path>
                    <path d="M64.0772202,42.9590046 L64.0772202,43.1898525 C64.8773945,40.7417696 65.3993394,38.1671613 65.6021835,35.5022212 L65.6021835,34.037447 C65.5028807,37.137318 64.9754862,40.1304332 64.0772202,42.9590046" id="Fill-69" fill="#000000"></path>
                    <mask id="mask-10" fill="white">
                        <use xlink:href="#path-9"></use>
                    </mask>
                    <g id="Clip-72"></g>
                    <path d="M22.9013945,45.5339171 L42.7268257,45.5339171 L42.7268257,33.2776866 L22.9013945,33.2776866 L22.9013945,45.5339171 Z M12.2741835,31.7456959 L32.0993119,31.7456959 L32.0993119,19.4891613 L12.2741835,19.4891613 L12.2741835,31.7456959 Z M33.6242752,31.7456959 L53.4497064,31.7456959 L53.4497064,19.4891613 L33.6242752,19.4891613 L33.6242752,31.7456959 Z M44.2520917,45.5339171 L44.2520917,33.2776866 L63.8767982,33.2776866 C63.8777064,33.1724516 63.8807339,33.0675207 63.8807339,32.9619816 C63.8807339,32.554424 63.8701376,32.1496037 63.855,31.7456959 L54.9749725,31.7456959 L54.9749725,19.4891613 L60.8341376,19.4891613 C60.5861835,18.9702857 60.3233945,18.4599263 60.0475872,17.9571705 L5.57366972,17.9571705 C5.29846789,18.4599263 5.03537615,18.9702857 4.78711927,19.4891613 L10.7489174,19.4891613 L10.7489174,31.7456959 L1.76655963,31.7456959 C1.75111927,32.1496037 1.74082569,32.554424 1.74082569,32.9619816 C1.74082569,33.0675207 1.74355046,33.1724516 1.74476147,33.2776866 L21.3764312,33.2776866 L21.3764312,45.5339171 L4.3756789,45.5339171 C4.60365138,46.0521843 4.8440367,46.5634562 5.09834862,47.066212 L10.7013853,47.066212 L10.7013853,54.8685069 C11.193055,55.3694378 11.7019817,55.8536406 12.2263486,56.3205069 L12.2263486,47.066212 L32.0517798,47.066212 L32.0517798,59.3224424 L16.1905872,59.3224424 C17.0576697,59.8762949 17.9541193,60.3875668 18.8766055,60.8544332 L21.4242661,60.8544332 L21.4242661,59.9112719 L22.9492294,59.9112719 L22.9492294,60.8544332 L42.7268257,60.8544332 L42.7268257,60.0633456 L44.2520917,60.0633456 L44.2520917,60.8544332 L46.7446514,60.8544332 C47.6671376,60.3875668 48.5638899,59.8762949 49.4309725,59.3224424 L33.5767431,59.3224424 L33.5767431,47.066212 L53.4018716,47.066212 L53.4018716,56.3141198 C53.9265413,55.8472535 54.4351651,55.3627465 54.9268349,54.8615115 L54.9268349,47.066212 L60.5229083,47.066212 C60.7778257,46.5634562 61.0179083,46.0521843 61.2458807,45.5339171 L44.2520917,45.5339171 Z" id="Fill-71" fill="#000000" mask="url(#mask-10)"></path>
                    <path d="M10.7014459,56.7259963 L10.7014459,57.2950562 C11.1958404,57.7488442 11.704767,58.1865124 12.2264092,58.6095816 L12.2264092,58.0894894 C11.7041615,57.6506046 11.1952349,57.1962083 10.7014459,56.7259963" id="Fill-73" fill="#000000" mask="url(#mask-10)"></path>
                    <path d="M53.4019321,58.586223 L53.4019321,58.6041677 C53.9235743,58.1807945 54.4325009,57.742518 54.9268954,57.2884258 L54.9268954,57.2881217 C54.4321982,57.7361309 53.9235743,58.1689327 53.4019321,58.586223" id="Fill-74" fill="#000000" mask="url(#mask-10)"></path>
                    <path d="M1.55118165,41.1108221 C0.888759633,38.5091447 0.535750459,35.7827668 0.535750459,32.9736608 C0.535750459,30.1642507 0.888759633,27.4378728 1.55118165,24.8361954 L1.55118165,22.9434857 C0.66653945,25.7227853 0.140658716,28.6611539 0.0262183486,31.7041493 L0.0262183486,34.219753 C0.140658716,37.2627484 0.66653945,40.2011171 1.55118165,42.9804166 L1.55118165,41.1108221 Z" id="Fill-75" fill="#000000" mask="url(#mask-10)"></path>
                    <path d="M4.1609367,17.9571401 L3.60084495,17.9571401 C3.34380826,18.4605041 3.09978991,18.9714719 2.86788165,19.4891309 L3.42070734,19.4891309 C3.65412936,18.9708636 3.90178073,18.4605041 4.1609367,17.9571401" id="Fill-76" fill="#000000" mask="url(#mask-10)"></path>
                    <path d="M8.24897064,11.8289032 C8.6915945,11.3039447 9.14965872,10.7926728 9.62376881,10.2969124 L9.01008991,10.2969124 C8.54173211,10.792977 8.08911743,11.3042488 7.65164037,11.8289032 L8.24897064,11.8289032 Z" id="Fill-77" fill="#000000" mask="url(#mask-10)"></path>
                    <path d="M56.6405753,10.3281312 C56.6308837,10.3178654 56.621495,10.3072977 56.6115006,10.29673 L56.6099862,10.29673 C56.6202836,10.3072977 56.6305809,10.3175635 56.6405753,10.3281312" id="Fill-78" fill="#000000" mask="url(#mask-10)"></path>
                    <path d="M3.02295138,45.5340083 L2.48223578,45.5340083 C2.69567615,46.0513631 2.92122661,46.5623309 3.15949266,47.0663032 L3.70323578,47.0663032 C3.46375872,46.5623309 3.2373,46.0516673 3.02295138,45.5340083" id="Fill-79" fill="#000000" mask="url(#mask-10)"></path>
                    <path d="M52.4466578,59.3225336 C51.7170248,59.863612 50.9640798,60.3748839 50.1893367,60.8545244 L50.2741073,60.8545244 C51.0331073,60.3733631 51.7718229,59.8626995 52.4872266,59.3225336 L52.4466578,59.3225336 Z" id="Fill-80" fill="#000000" mask="url(#mask-10)"></path>
                    <path d="M13.7872183,59.3225336 L13.1344844,59.3225336 C13.8495853,59.8626995 14.5883009,60.3733631 15.3469982,60.8545244 L16.0445394,60.8545244 C15.2697963,60.3748839 14.5171541,59.863612 13.7872183,59.3225336" id="Fill-81" fill="#000000" mask="url(#mask-10)"></path>
                    <path d="M12.2264394,58.0896111 L12.2264394,56.3203853 C11.7020725,55.8535189 11.1931459,55.3696203 10.7014761,54.8686894 L10.7014761,56.726118 C11.1952651,57.19633 11.703889,57.6507263 12.2264394,58.0896111" id="Fill-82" fill="#000000" mask="url(#mask-10)"></path>
                    <path d="M16.1906174,59.3225336 L13.7873697,59.3225336 C14.5173055,59.863612 15.2699477,60.3748839 16.0446908,60.8545244 L18.8766358,60.8545244 C17.9541495,60.3876581 17.0577,59.8763862 16.1906174,59.3225336" id="Fill-83" fill="#000000" mask="url(#mask-10)"></path>
                    <path d="M1.74482202,33.2776866 C1.74361101,33.1724516 1.74058349,33.0675207 1.74058349,32.9619816 C1.74058349,32.554424 1.75117982,32.1496037 1.76662018,31.7456959 L1.55106055,31.7456959 L1.55106055,24.8363779 C0.888638532,27.4380553 0.53593211,30.1644332 0.53593211,32.9735392 C0.53593211,35.7826452 0.888638532,38.509023 1.55106055,41.1107005 L1.55106055,33.2776866 L1.74482202,33.2776866 Z" id="Fill-84" fill="#000000" mask="url(#mask-10)"></path>
                    <path d="M11.471345,10.296882 L9.62364771,10.296882 C9.14953761,10.7926424 8.69147339,11.3042184 8.24884954,11.8288728 L9.96727156,11.8288728 C10.4513725,11.3014811 10.9524275,10.7902092 11.471345,10.296882" id="Fill-85" fill="#000000" mask="url(#mask-10)"></path>
                    <path d="M3.70326606,47.0661816 L5.09834862,47.0661816 C4.8440367,46.5634258 4.60365138,46.0521539 4.3756789,45.5338866 L3.02298165,45.5338866 C3.23733028,46.0515456 3.46378899,46.5625134 3.70326606,47.0661816" id="Fill-86" fill="#000000" mask="url(#mask-10)"></path>
                    <path d="M60.5228174,47.0661816 L62.4616431,47.0661816 C62.7002119,46.5622092 62.9257624,46.0515456 63.1392028,45.5338866 L61.2460927,45.5338866 C61.0181202,46.0521539 60.7777349,46.5634258 60.5228174,47.0661816" id="Fill-87" fill="#000000" mask="url(#mask-10)"></path>
                    <path d="M53.4019321,56.3141806 L53.4019321,58.5861622 C53.9235743,58.1688719 54.4321982,57.73607 54.9268954,57.2880608 L54.9268954,54.8615724 C54.4352257,55.3628074 53.9262991,55.8470101 53.4019321,56.3141806" id="Fill-88" fill="#000000" mask="url(#mask-10)"></path>
                    <path d="M46.7446514,60.8545548 L50.189367,60.8545548 C50.9641101,60.3749143 51.717055,59.8636424 52.4466881,59.3225641 L49.4309725,59.3225641 C48.5638899,59.8764166 47.6671376,60.3876885 46.7446514,60.8545548" id="Fill-89" fill="#000000" mask="url(#mask-10)"></path>
                    <path d="M3.42061651,19.4891613 L4.78724037,19.4891613 C5.03549725,18.9702857 5.29828624,18.4599263 5.57348807,17.9571705 L4.16084587,17.9571705 C3.90168991,18.4605346 3.65403853,18.970894 3.42061651,19.4891613" id="Fill-90" fill="#000000" mask="url(#mask-10)"></path>
                    <path d="M55.6542578,11.8289032 L57.9694046,11.8289032 C57.5413128,11.3155023 57.098689,10.8148756 56.6406248,10.3282396 C56.6306339,10.3178986 56.6200376,10.3075576 56.6100468,10.2969124 L54.1501844,10.2969124 C54.6687991,10.7899355 55.1701569,11.3015115 55.6542578,11.8289032" id="Fill-91" fill="#000000" mask="url(#mask-10)"></path>
                    <path d="M62.0206239,17.9571401 L60.0475872,17.9571401 C60.3233945,18.4598959 60.5861835,18.9702553 60.8341376,19.4891309 L62.7532844,19.4891309 C62.5216789,18.9714719 62.2776606,18.4605041 62.0206239,17.9571401" id="Fill-92" fill="#000000" mask="url(#mask-10)"></path>
                    <path d="M63.8548789,31.7456654 C63.8703193,32.1495733 63.8806128,32.5543935 63.8806128,32.9619512 C63.8806128,33.0674903 63.8775853,33.1724212 63.8766771,33.2776562 L64.0770991,33.2776562 L64.0770991,42.9589742 C64.9753651,40.1304028 65.5027596,37.1375917 65.6020624,34.0374166 L65.6020624,31.8864857 C65.5027596,28.7866147 64.9753651,25.7934995 64.0770991,22.9649281 L64.0770991,31.7456654 L63.8548789,31.7456654 Z" id="Fill-93" fill="#000000" mask="url(#mask-10)"></path>
                    <path d="M44.2519706,61.9820295 L44.2519706,60.8545548 L42.7270073,60.8545548 L42.7270073,62.5450065 C43.2413835,62.3704258 43.7497046,62.1824627 44.2519706,61.9820295" id="Fill-94" fill="#000000" mask="url(#mask-10)"></path>
                    <path d="M42.7269468,64.2567484 L42.7269468,64.383882 C43.2407174,64.2199465 43.7493413,64.043541 44.2519101,63.8549696 L44.2519101,63.7427392 C43.7493413,63.9261401 43.2407174,64.0976793 42.7269468,64.2567484" id="Fill-95" fill="#000000" mask="url(#mask-10)"></path>
                    <path d="M42.7269468,62.5448848 L42.7269468,64.2566267 C43.2407174,64.0975576 43.7493413,63.9263226 44.2519101,63.7426175 L44.2519101,61.9819078 C43.749644,62.1826452 43.2413229,62.3703041 42.7269468,62.5448848" id="Fill-96" fill="#000000" mask="url(#mask-10)"></path>
                    <polygon id="Fill-97" fill="#000000" mask="url(#mask-10)" points="42.7271284 60.8544332 44.2520917 60.8544332 44.2520917 60.0633456 42.7271284 60.0633456"></polygon>
                    <path d="M22.9493202,62.5627078 L22.9493202,60.8546157 L21.4243569,60.8546157 L21.4243569,62.0045972 C21.9260174,62.2038138 22.434944,62.3893438 22.9493202,62.5627078" id="Fill-98" fill="#000000" mask="url(#mask-10)"></path>
                    <path d="M21.4243266,63.5314479 L21.4243266,63.8757429 C21.9268954,64.0634018 22.4352165,64.2388949 22.9492899,64.401918 L22.9492899,64.0767843 C22.4352165,63.9073742 21.9265927,63.725494 21.4243266,63.5314479" id="Fill-99" fill="#000000" mask="url(#mask-10)"></path>
                    <path d="M21.4243266,62.0044756 L21.4243266,63.5316 C21.9265927,63.7256461 22.4352165,63.9075263 22.9492899,64.0769364 L22.9492899,62.5625862 C22.4349138,62.3895263 21.9259872,62.2036922 21.4243266,62.0044756" id="Fill-100" fill="#000000" mask="url(#mask-10)"></path>
                    <polygon id="Fill-101" fill="#000000" mask="url(#mask-10)" points="21.4242661 60.8544332 22.9492294 60.8544332 22.9492294 59.9112719 21.4242661 59.9112719"></polygon>
                </g>
            </g>
        </g>
    </g>
</svg>