<svg height="95" viewBox="0 0 95 95" width="95" xmlns="http://www.w3.org/2000/svg"><g fill="none" fill-rule="evenodd" transform=""><path d="m82.3973481 46.2964462c.7572943 19.1845886-14.1811551 35.3505222-33.3657437 36.1075158-19.1845886.7572943-35.3508228-14.1808544-36.1078164-33.365443-.7572943-19.1845886 14.181155-35.3505222 33.3657436-36.1078165 19.1845887-.7572943 35.3505222 14.1811551 36.1078165 33.3657437z" stroke="#162842" stroke-linecap="round" stroke-linejoin="round" stroke-width="2.1"/><path d="m47.6605981 27.3082911c-3.4464557 0-6.6866772-1.3420253-9.1236076-3.7789557-2.4369304-2.4369303-3.7789557-5.6768512-3.7789557-9.1233069 0-3.4467563 1.3420253-6.68667723 3.7789557-9.12360761s5.6771519-3.7789557 9.1236076-3.7789557 6.6863766 1.34202532 9.123307 3.7789557c2.437231 2.43693038 3.7792563 5.67685131 3.7792563 9.12360761 0 3.4464557-1.3420253 6.6863766-3.7792563 9.1233069-2.4369304 2.4369304-5.6768513 3.7789557-9.123307 3.7789557" fill="#5cd8ff"/><path d="m47.6605981.00015032c-3.8478006 0-7.4656171 1.49835443-10.1863449 4.21938291-5.6170254 5.61672468-5.6167247 14.75596517 0 20.37268987 2.7207278 2.7210285 6.3385443 4.2193829 10.1863449 4.2193829s7.4656171-1.4983544 10.1863449-4.2193829c5.6167247-5.6167247 5.6167247-14.75596519 0-20.37268987-2.7207278-2.72102848-6.3385443-4.21938291-10.1863449-4.21938291m0 3.00632911c2.9173418 0 5.8346835 1.11294304 8.0605696 3.33882911 4.4517722 4.45177216 4.4517722 11.66936706 0 16.12113926-2.2258861 2.2258861-5.1432278 3.3388291-8.0605696 3.3388291s-5.8346835-1.112943-8.0605696-3.3388291c-4.4517722-4.4517722-4.4517722-11.6693671 0-16.12113926 2.2258861-2.22588607 5.1432278-3.33882911 8.0605696-3.33882911" fill="#fff"/><path d="m80.4595285 60.1074921c-3.4464557 0-6.6863766-1.3420253-9.123307-3.7789557-5.0307911-5.0310918-5.0307911-13.2164241 0-18.2469146 2.4369304-2.4369303 5.6768513-3.7792563 9.123307-3.7792563s6.6866772 1.342326 9.1236076 3.7792563c5.0304905 5.0304905 5.0304905 13.2158228 0 18.2469146-2.4369304 2.4369304-5.6771519 3.7789557-9.1236076 3.7789557" fill="#5cd8ff"/><path d="m80.4595285 32.799231c-3.8478007 0-7.4656171 1.4983544-10.186345 4.2193829-2.7210284 2.7207279-4.2193829 6.3385443-4.2193829 10.186345 0 3.8478006 1.4983545 7.4653164 4.2193829 10.1863449 2.7207279 2.7210285 6.3385443 4.2193829 10.186345 4.2193829 3.8478006 0 7.4656171-1.4983544 10.1863449-4.2193829 2.7210285-2.7210285 4.2193829-6.3385443 4.2193829-10.1863449 0-3.8478007-1.4983544-7.4656171-4.2193829-10.186345-2.7207278-2.7210285-6.3385443-4.2193829-10.1863449-4.2193829m0 3.0063291c2.9173418 0 5.8346835 1.1129431 8.0605696 3.3388291 4.4517722 4.4517722 4.4517722 11.6693671 0 16.1211393-2.2258861 2.2258861-5.1432278 3.3388291-8.0605696 3.3388291s-5.8346836-1.112943-8.0605696-3.3388291c-4.4517722-4.4517722-4.4517722-11.6693671 0-16.1211393 2.225886-2.225886 5.1432278-3.3388291 8.0605696-3.3388291" fill="#fff"/><path d="m14.3989937 60.8050807c-3.4464557 0-6.68667724-1.3420253-9.12360762-3.7789557s-3.7789557-5.6768513-3.7789557-9.123307c0-3.4467563 1.34202532-6.6866772 3.7789557-9.1236076 2.43693038-2.4369303 5.67715192-3.7789557 9.12360762-3.7789557s6.6863766 1.3420254 9.1233069 3.7789557c2.437231 2.4369304 3.7792564 5.6768513 3.7792564 9.1236076 0 3.4464557-1.3420254 6.6863766-3.7792564 9.123307-2.4369303 2.4369304-5.6768512 3.7789557-9.1233069 3.7789557" fill="#5cd8ff"/><path d="m14.3989937 33.4969399c-3.8478007 0-7.46561712 1.4983544-10.18634497 4.2193829-5.61672468 5.6167247-5.61672468 14.7559652 0 20.3726899 2.72072785 2.7210284 6.33854427 4.2193829 10.18634497 4.2193829 3.8478006 0 7.4656171-1.4983545 10.1863449-4.2193829 5.6167247-5.6167247 5.6167247-14.7559652 0-20.3726899-2.7207278-2.7210285-6.3385443-4.2193829-10.1863449-4.2193829m0 3.0063291c2.9173417 0 5.8346835 1.112943 8.0605696 3.3388291 4.4517721 4.4517722 4.4517721 11.6693671 0 16.1211392-2.2258861 2.2258861-5.1432279 3.3388292-8.0605696 3.3388292-2.9173418 0-5.83468357-1.1129431-8.06056965-3.3388292-4.45177215-4.4517721-4.45177215-11.669367 0-16.1211392 2.22588608-2.2258861 5.14322785-3.3388291 8.06056965-3.3388291" fill="#fff"/><path d="m47.1980744 93.3689763c-3.4464557 0-6.6866772-1.3420254-9.1236076-3.7789557-5.0307912-5.0310918-5.0304905-13.2164241 0-18.246614 2.4369304-2.437231 5.6771519-3.7792563 9.1236076-3.7792563s6.6863765 1.3420253 9.1236076 3.7792563c5.0304905 5.0301899 5.0304905 13.2155222 0 18.246614-2.4372311 2.4369303-5.6771519 3.7789557-9.1236076 3.7789557" fill="#5cd8ff"/><path d="m47.1980744 66.0608655c-3.8478007 0-7.4656171 1.4983544-10.186345 4.2193829-2.7210285 2.7207279-4.2193829 6.3385443-4.2193829 10.1860443 0 3.8481013 1.4983544 7.4656171 4.2193829 10.1866456 2.7207279 2.7207278 6.3385443 4.2190823 10.186345 4.2190823 3.8478006 0 7.4656171-1.4983545 10.1863449-4.2193829 2.7210285-2.7207279 4.2193829-6.3382437 4.2193829-10.186345 0-3.8475-1.4983544-7.4653164-4.2193829-10.1860443-2.7207278-2.7210285-6.3385443-4.2193829-10.1863449-4.2193829m0 3.0063291c2.9173417 0 5.8346835 1.1129431 8.0605696 3.3388291 4.4517721 4.4517722 4.4517721 11.6693671 0 16.1211393-2.2258861 2.2255854-5.1432279 3.3385285-8.0605696 3.3385285-2.9173418 0-5.8346836-1.1129431-8.0605697-3.3385285-4.4517721-4.4517722-4.4517721-11.6693671 0-16.1211393 2.2258861-2.225886 5.1432279-3.3388291 8.0605697-3.3388291" fill="#fff"/><path d="m75.1638196 39.9100411c-.5844304 0-1.0585285.4737975-1.0585285 1.0585285 0 .5841298.4740981 1.0582279 1.0585285 1.0582279s1.0585285-.4740981 1.0585285-1.0582279c0-.584731-.4740981-1.0585285-1.0585285-1.0585285" fill="#162842"/><path d="m80.8124114 40.9684193c-.5844304 0-1.0585285.4737975-1.0585285 1.0585285 0 .5841297.4740981 1.0582278 1.0585285 1.0582278s1.0585285-.4740981 1.0585285-1.0582278c0-.584731-.4740981-1.0585285-1.0585285-1.0585285" fill="#162842"/><path d="m72.3057627 44.5397579s3.68125 4.0898101 11.3149208 1.834462" stroke="#162842" stroke-linecap="round" stroke-linejoin="round" stroke-width="1.65"/><path d="m44.1171582 16.845875c-.0598259 0-.1202531.0051108-.180981.0156329-.5760126.0992089-.9626266.646962-.8631171 1.2229747.0886867.5149842.5360285.8784494 1.0416931.8784494.0595253 0 .1202531-.0051108.180981-.0153323.5760126-.0995095.9623259-.646962.8631171-1.2229747-.0886867-.5152848-.5360285-.87875-1.0416931-.87875" fill="#162842"/><path d="m51.1604462 16.845875c-.0598259 0-.1202532.0051108-.1812816.0156329-.5760127.0992089-.962326.646962-.8631171 1.2229747.0889873.5149842.5363291.8784494 1.0419936.8784494.0595254 0 .1202532-.0051108.1809811-.0153323.5760126-.0995095.9623259-.646962.863117-1.2229747-.0886867-.5152848-.5360284-.87875-1.041693-.87875" fill="#162842"/><path d="m42.1188513 21.1116756s4.9390981 3.8414874 11.1327373 0" stroke="#162842" stroke-linecap="round" stroke-linejoin="round" stroke-width="1.65"/><g fill="#162842"><path d="m41.2050775 72.8939509c-.5844303 0-1.0585284.4737975-1.0585284 1.0585285 0 .5844304.4740981 1.0582279 1.0585284 1.0582279.5844304 0 1.0585285-.4737975 1.0585285-1.0582279 0-.584731-.4740981-1.0585285-1.0585285-1.0585285"/><path d="m46.1396661 74.8146044c-.5844303 0-1.0585284.4737975-1.0585284 1.0585285 0 .5844304.4740981 1.0582279 1.0585284 1.0582279.5844304 0 1.0582279-.4737975 1.0582279-1.0582279 0-.584731-.4737975-1.0585285-1.0582279-1.0585285"/><path d="m15.5910934 43.7166851c-.5844304 0-1.0585285.4737975-1.0585285 1.0585285 0 .5844304.4740981 1.0582279 1.0585285 1.0582279.5844303 0 1.0585284-.4737975 1.0585284-1.0582279 0-.584731-.4740981-1.0585285-1.0585284-1.0585285"/><path d="m22.2057389 43.0110696c-.5844304 0-1.0585285.4737975-1.0585285 1.0585285 0 .5844304.4740981 1.0582278 1.0585285 1.0582278s1.0585285-.4737974 1.0585285-1.0582278c0-.584731-.4740981-1.0585285-1.0585285-1.0585285"/></g><path d="m13.8644984 49.0383987s6.3421519 3.2756962 10.2227215-1.370886" stroke="#162842" stroke-linecap="round" stroke-linejoin="round" stroke-width="1.65"/><path d="m38.2577627 76.4877468s.1277689.6947627.8769462 1.6005697c.6520727.789462 1.513386 1.3750949 2.4648892 1.7532911 1.3438291.5345253 3.5928639 1.1303797 5.5048892.1948101" stroke="#162842" stroke-linecap="round" stroke-linejoin="round" stroke-width="1.65"/></g></svg>