<svg height="39" viewBox="0 0 28 39" width="28" xmlns="http://www.w3.org/2000/svg"><g fill="none" transform=""><path d="m14 0c-7.71964169 0-14 6.33613663-14 14.1242633 0 9.6653087 12.5286285 23.8545467 13.062046 24.4538677.5010273.562987 1.3757867.5619968 1.875908 0 .5334175-.599321 13.062046-14.788559 13.062046-24.4538677-.000151-7.78812667-6.2804338-14.1242633-14-14.1242633zm0 35.7801823c-4.21652726-5.053096-11.47885691-15.022407-11.47885691-21.6557667 0-6.3858007 5.14934718-11.58088125 11.47885691-11.58088125 6.3295097 0 11.4788569 5.19508055 11.4788569 11.58080515-.0000755 6.6336643-7.2612726 16.6011472-11.4788569 21.6558428z" fill="#4bccef"/><path d="m14.5000402 8c-4.1355858 0-7.5000402 3.140182-7.5000402 7s3.3645348 7 7.5000402 7 7.4999598-3.140182 7.4999598-7-3.3644544-7-7.4999598-7zm0 11.4945173c-2.6553866 0-4.81555126-2.0161963-4.81555126-4.4945173s2.16024506-4.4945173 4.81555126-4.4945173 4.8155513 2.0161963 4.8155513 4.4945173-2.1602451 4.4945173-4.8155513 4.4945173z" fill="#212d3c"/></g></svg>