<svg height="102" viewBox="0 0 87 102" width="87" xmlns="http://www.w3.org/2000/svg" xmlns:xlink="http://www.w3.org/1999/xlink"><mask id="a" fill="#fff"><path d="m0 101.961217h86.9504529v-101.961217h-86.9504529z" fill="none"/></mask><g fill="none" fill-rule="evenodd" transform=""><path d="m37.5464691 40.0747529-1.3693722-1.360905-3.5365695-2.1547985c.1139192.6802586.1139192 1.360905.2282287 2.0415514l1.71113 1.3609049c1.2550628.9071407 1.4832915 3.062327 1.5972108 3.9694677.2282287.2268821.6846861.5670114 1.2550627.9075285l.5703767-.7942814v-.6802585c-.2282287-.113635-.4560672-.2268822-.6842959-.3401293-.3425382-.3405171-.4564574-.7938935-.4564574-1.1344106v-.1132472c.2282287-.5673992.4564574-1.1344106.6846861-1.701422" fill="#00b8fb"/><path d="m75.4242013 46.9932616c-.4564574 2.0415513-2.3962062 2.6085627-3.3087309 2.6085627h-8.4425112c-1.0268341 0-3.0808924-.5670114-3.1948117-2.8354448-.1139192-1.8146692.9129148-2.7221978 1.8254395-3.062327.2282287-1.1340228 1.0268341-1.8146692 1.0268341-1.8146692.6846861-.6806464 1.5976009-1.0207757 2.5101255-1.0207757.2282287 0 .4560673.113635.684296.113635.5703767-.6806464 1.4832915-1.2476578 2.5101256-1.360905 1.1411435-.2268821 2.1679775.1132472 3.0805022.6802586 1.2546726.9071407 1.5972108 2.1547985 1.4829013 3.175962 1.5976009.5666235 2.1679776 1.9279163 1.9397489 2.948692 0 .2268821-.1139193.3401293-.1139193.5670114m-32.2212107-25.3394373c-3.5365695 0-6.9596099.4537643-10.2683408 1.360905-.2278386 1.0207756-.5703767 2.1547985-1.368592 3.2892091 0 0-.5707668 1.1340228-.3425381 2.3816806l.1143094.9075285c.2282287 1.2476578.5699866 3.1755742.9125247 5.3303727l4.677713 1.1340228c.2282287-.3401293.4560673-.5670114.7986054-.9071407l-2.6240448-5.4440076c-.1143095-.3401293-.1143095-.6806464.2282287-.9075285.3421479-.2268822.7982152-.2268822 1.0264439 0l4.5641839 4.1967376c.4556771-.2268821 1.0264439-.3405171 1.5968206-.4537643l1.7115202-5.1038783c.1139192-.3401293.4564574-.5670114.7986053-.5670114.342148 0 .5703767.2268821.6846861.5670114l1.2550628 5.2171255c.2282287.113635.5699866.2268821.7982153.3405171l4.7920224-3.6293384c.342148-.2268821.7986054-.2268821 1.0264439 0 .2282287.2268821.342148.5670114.1143095.9071407l-3.0805023 5.2171255c.1143094.2268821.2282287.4537642.3425381.6806463l5.2476996-1.1344106c.4564574-.1132471.7989955.113635.9129148.4537643.1143094.3401292 0 .6806463-.342148.9075285l-5.2480897 3.1755741c0 .3401293-.1143094.6806464-.2282287.9071407.1139193.5670114.2282287 1.2476578.2282287 1.9283042.342148 3.1755741.1139193 3.5157034-.1143094 3.7425855-.2052108.102-.4100314.3839544-.614852.6054069v.3277186c.8528341 3.1026616 1.0681883 4.4123726.9573901 4.9646464.342148.2268821.6846861.4537643 1.0268341.7938935l1.71113 1.7010343c.7986054.7942813 1.3689821 1.8146692 1.4832915 2.9490798l.342148 2.3816806 2.966583 3.5157034 2.1671973-2.2680456c.2282287-.3405171.6846861-.3405171 1.0272242-.113635l7.9860538 5.7845247c.2282287.1132472.3425381.3401293.3425381.5670115 0 .2268821-.1143094.4537642-.2282287.5670114l-1.4832915 1.587787c0 .1132472.1139193.3401293.1139193.5670114 0 .4537643-.1139193 1.0207757-.4560673 1.360905-.3425381.2268821-.684686.4537642-1.0272242.5670114 0 .3405171-.2282287.6806464-.4560672 1.0211635-.2282287.2264943-.5707668.4533764-.9129148.5670114 0 .3401293-.1143094.6802585-.342148 1.0203878-.2278386.3405171-.684296.5673993-1.1407534.6806464 0 .3405171-.1139193.6806464-.342148 1.0207757-.3425381.4537642-.9129148.6806464-1.4832914.6806464-.3425382 0-.5707669-.1132472-.9129148-.2268822l-.1139193.113635c.1139193 1.5873993-.4564574 4.4228441-3.0805023 5.7841369l1.2546727 9.8672395v.1132472c0 .1132471-.2282287 2.1547985-1.5968206 3.8562205.1139192.4533764.1139192.9071407.2282287 1.360905 14.3748968-6.1242662 24.4150089-20.3014905 24.6432376-36.1797491 0-22.0029125-18.0261659-40.0359696-40.2735874-40.0359696" fill="#5cd8ff"/><path d="m29.7881758 96.4426677.5703767-11.2281445-1.8254395-6.124654c-.1139193-.2268821 0-.4537643.2282287-.5670114l1.1407534-1.3609049.9129148-6.124654h-.342148c-.4564574 0-.7986054-.1132472-1.0268341-.2264943-1.7115202-.9075286-1.8254395-3.8562206-1.8254395-4.1967377v-.2268821c.2282287-.9071407 1.2550628-1.9279164 2.5097355-3.0619392l-.7982153-1.0207756c-.1143094 0-.1143094-.1132472-.1143094-.1132472l-.6846861-1.815057c-.1139193-.2268821-.1139193-.4537643 0-.6802586l1.0268341-1.8146692-2.5101256-2.9490798c-.1139193-.2264943-.1139193-.4533765-.1139193-.6802586l.342148-1.9283042c-.2282287-.1132471-.4560672-.2264943-.6842959-.3401292-3.0805023-1.9279164-.6846861-7.371924-.342148-8.2794525-.5707668-6.3511483-.1143094-14.2904715 0-15.8782586l-.9129148-1.1340228c0-.113635-.1139193-.2268821-.1139193-.4537642v-.5670114c-11.9794709 6.011019-20.53629148 17.8065627-22.01958296 31.6428821.57076681-.5670114 1.48329148-.9071407 2.73835426-.9071407.4564574-.9071407 1.71152018-2.4953156 3.9930269-2.4953156.6846861 0 1.4832915.113635 2.2818969.4537643.1139192 0 2.2815067 1.0207756 2.9661928 3.5160912 1.3693722.3401293 3.1944215 1.360905 3.3087309 3.8562206.1139193 1.3609049-.3425381 2.4949277-1.2550627 3.4024562-.9125247.9071407-2.0536682 1.360905-2.8522736 1.360905h-11.06655605c1.93935875 15.3112471 12.54984755 27.9002965 26.92513455 32.8909277.1139193-.7942813.2282287-1.4745399.342148-2.0419391-.1139193 0-.2282287-.1132472-.342148-.1132472-.3425381-.2268821-.4564574-.4537642-.4564574-.7938935" fill="#5cd8ff"/><g fill="#fff"><path d="m48.9396457 50.418251h3.1210763v-6.5931559h-3.1210763z" mask="url(#a)"/><path d="m40.2881004 34.4786373.7986054.9071406c.2282287-.2268821.5703767-.3401292.7986054-.5670114l-.6846861-1.1340228c-.342148.3401293-.684296.5670114-.9125247.7938936" mask="url(#a)"/><path d="m27.5100242 20.5284114h2.0536682c.2282287 0 .342148-.2268821.342148-.3401293 0-.113635-.1139193-.2268821-.2282287-.2268821h-.1139193-.1143094-1.0268341-1.026444c-.2282287 0-.3425381.1132471-.2282287.2268821 0 .2268822.2282287.3401293.342148.3401293" mask="url(#a)"/><path d="m42.5698413 46.0469498v-1.2476578c-.1143095-.1132471-.1143095-.1132471-.2282287-.2264943l-.5703767.9071407c.342148.2268821.5703767.4537643.7986054.5670114" mask="url(#a)"/><path d="m51.2404251 32.6638905.6846861-1.2476578-1.1407534.9075285c.2282287.1132472.342148.2268821.4560673.3401293" mask="url(#a)"/><path d="m52.1532619 51.8313194c-.4564574.3401293-1.0268341.5670114-1.5972108.7938935.1139193.1132472.4564574.3401293 1.0268341.4537643.9125247.1132471 1.4832915-.113635 1.8254395-.3405171-.342148-.4537643-.7986054-.6802586-1.2550628-.9071407" mask="url(#a)"/><path d="m50.4418587 35.3859331c.1143095 0 .2282287.1132471.3425382.2268821l.3421479-.3401293c-.1139192-.2268821-.2282287-.4537642-.3421479-.6806464z" mask="url(#a)"/><path d="m40.4019807 32.4370471c.2282287-.1132471.3425381-.2268821.5707668-.3401292l-1.2550627-1.1344107z" mask="url(#a)"/><path d="m30.3623368 14.4036353v-.1131683-.3402799h-2.6240449v.1135558l1.8254395.1131683c.342148 0 .5703767.1135558.7986054.2267241" mask="url(#a)"/><path d="m27.0536058 15.8784137c0 .2264943.2282287.3401293.342148.3401293l2.0536682.1132471c.2282287 0 .3425381-.2268821.3425381-.3401293 0-.1132471-.1143094-.1132471-.1143094-.1132471s-.1139193-.1132472-.2282287-.1132472l-2.0536682-.1136349c-.1139193 0-.2282287.1136349-.342148.2268821" mask="url(#a)"/><path d="m27.3959099 18.4867825h1.026834 1.0268341.1139193c.1143094 0 .2282287-.1132471.2282287-.2264943 0-.2268821-.2282287-.3405171-.342148-.3405171l-2.0536681-.1132471c-.2282287 0-.342148.1132471-.342148.3401292 0 .2268822.2282287.3401293.342148.3401293" mask="url(#a)"/><path d="m30.2482224 50.9238684-.4564574 1.7014221 1.8254395 2.1547985 2.2818968-5.8977719c-1.1407533.9075285-2.3958161 1.815057-3.6508789 2.0415513" mask="url(#a)"/><path d="m38.804887 36.4066312.7986054.7938935c.1143094 0 .1143094-.1132471.1143094-.1132471.1139193-.2268822.2282287-.3405171.342148-.4537643l-.7986054-.9071407c-.2282287.3401293-.3425381.5670114-.4564574.6802586" mask="url(#a)"/><path d="m30.4764121 47.4079711c-.342148.2268821-.7986054.2268821-1.0268341 0-.6846861-.5670114-1.1411435-1.1340228-1.3693722-1.9279163-.342148 1.4745399-.342148 3.0619391.6846861 3.7425855 1.8254395 1.1344107 5.019861-2.3816806 6.0466951-3.7425855.2282287-.3405172.6846861-.3405172 1.0268341-.113635.3425381.2268821.3425381.6806464.1143094 1.0207756-.2282287.2268822-.7986054 1.0207757-1.5976009 1.8146692h.4564574c.4564574.2268822.5707668.6806464.4564574 1.0207757l-2.7379641 7.2586768-.1143094.1132472-1.1407534 1.9283041.5703767 1.360905.6846861.9071407c4.9059417-3.6293384 13.1202242-7.7120533 17.2275605-9.6403574-.4564574-.1132472-.9129148-.1132472-1.2550628-.1132472-2.8522735-.2268821-5.3623991-2.4953156-5.7045471-2.8354449-2.5101255-1.9279163-6.2749237-4.650114-6.5031524-4.7633612-.2282287-.1132471-.342148-.3401293-.342148-.5670114 0-.5673992-.1143094-1.5881749-.4564574-2.3816806-1.0268341 1.8142814-3.3087309 5.5572548-5.019861 6.9181597" mask="url(#a)"/><path d="m51.0125865 41.0566677c0 .3401293 0 .7938935-.1143094 1.2476578l.7986054 1.4745399c0-.3405171 0-1.3612928-.1139193-2.3820684z" mask="url(#a)"/><path d="m41.2005471 41.8506776c-.1139193.1132471-.2278386.1132471-.342148.1132471v.9075285c0 .2268822 0 .3401293-.1139193.4537643l-.6846861 1.0207757c.1139193.1132471.2282287.2268821.4564574.3401292v-.0853232.0853232l.9878206-1.6374296c-.0444753-.0872624-.0752959-.1741369-.0752959-.2908745-.1139193-.3401293-.2282287-.6802586-.2282287-.9071407" mask="url(#a)"/><path d="m44.0530157 32.5504494c-.5703767.1132472-1.0268341.2268822-1.4832915.4537643l.6846861 1.2476578c.342148-.113635.684296-.2268821 1.0268341-.3405171z" mask="url(#a)"/><path d="m45.8783771 33.7980297h.3425381c.2278386 0 .4560673.1132471.684296.1132471l.2282287-1.4741521c-.342148-.113635-.6846861-.113635-1.1407534-.113635h-.3425381z" mask="url(#a)"/><path d="m40.9727085 37.8810935c-.5707668.9071407-.9129148 1.7014221-1.0268341 2.4953156.2278386 0 .5703767.1132472 1.3689821-.113635v-.9071406c0-.2268822.1139193-.4537643.342148-.5673993l4.2212556-2.948692c.2282287-.1132471.6846861-.1132471.9129148.1132472 1.9397489 1.815057 3.8787175 2.8354448 3.8787175 2.8354448l.1143094.113635.5703767.4537643c-.7986054-2.8354449-3.0801121-3.6293384-3.0801121-3.6293384-.7989955-.2268822-1.4832915-.3405172-2.2818969-.4537643-1.9393587-.113635-3.8791076.9071407-5.019861 2.6085627" mask="url(#a)"/><path d="m31.9594305 19.7343627v2.3820685 1.2472699c.2282287-.5670114.5703767-1.1340228.6846861-1.587787.2282287-.7938936.342148-1.5877871.342148-2.2680457 0-1.0211635-.1139193-1.701422-.2282287-2.0419391-.342148-.4533764-.6846861-.6802586-.7986054-.5670114z" mask="url(#a)"/><path d="m46.1065668 30.8493376h.7986054l-.4564574-2.0415513-.684296 1.9283042c.1139193 0 .1139193 0 .2282287.1132471z" mask="url(#a)"/><path d="m40.2881004 63.9667985c-2.3962062 1.701422-5.704547 3.9694677-6.6170717 4.650114l-.6846861 4.423232z" mask="url(#a)"/><path d="m48.6165363 43.7786715c.9129148-1.0207757 1.0268341-2.8354449.7986054-3.7425856-.5703767-.4537642-1.9397489-1.2476578-3.4226502-2.4953156l-3.4226502 2.3816807c0 .7938935 0 2.7221977 1.026834 3.8562205.5703767.6806464 1.3689821 1.0207756 2.5097355 1.0207756 1.1411435 0 1.9397488-.3401292 2.5101255-1.0207756" mask="url(#a)"/><path d="m44.0530157 45.9335475v1.360905c.4564574.4537642 1.9397489 1.5881749 3.6504888 2.0415513v-3.2892091c-.4560673.113635-1.026444.2268821-1.5968206.2268821-.7986054 0-1.4832915-.1132471-2.0536682-.3401293" mask="url(#a)"/><path d="m53.864704 58.6361932-.1143094-4.423232c-.4560672.2268821-.9125246.3405171-1.4829013.3405171h-.4564574c-.2282287.1132472-.5707668.4533765-.9129148.7938936l-.4560673 13.1560608c1.3689821-1.5877871 2.7379641-3.5160913 2.6240449-4.5364791 0-.6806464-.1143095-1.1344106-.2282287-1.5881749-.3425382-1.24727-.5703767-2.3816806 1.026834-3.7425855" mask="url(#a)"/><path d="m49.7576018 33.3444981c-.3425381-.2268821-.6846861-.4537643-1.1411435-.5670114l-.2282287 1.4741521c.2282287 0 .3425381.113635.4564574.113635 0 0 .1139193 0 .342148.1132471z" mask="url(#a)"/><path d="m49.9854404 53.9861954c-.4560673-.2268821-.684296-.5670114-.9125247-.7938935-7.986444 3.8562205-17.5697085 9.1865932-18.8247713 11.9087909.1143094 1.0207756.4564574 2.3816806 1.0268341 2.7218099.342148.1136349.9125246-.1132472 1.2550628-.3401293.2282287-.2268821 7.3017578-5.1038783 9.2411165-6.3515361 1.3689821-.7938936 5.5902377-4.6497263 8.2142826-7.1450419" mask="url(#a)"/><path d="m58.5424951 64.533965 1.2550627-1.2476578-1.5976008-1.8146692z" mask="url(#a)"/><path d="m67.4413076 70.9985544c.1143094 0 .2282287 0 .342148-.1132472.1143094-.1132471.1143094-.2268821.1143094-.2268821s0-.1132472-.1143094-.2268821l-1.5972108-1.360905c-.1139192-.113635-.2282287-.113635-.2282287-.113635-.1139192 0-.1139192 0-.2282287.113635-.1139192.1132472-.1139192.2268822-.1139192.2268822 0 .1132471 0 .1132471.1139192.2268821l.7986054.6802585.7989955.6806464z" mask="url(#a)"/><path d="m63.1060157 72.4729779c-.1143094 0-.1143094 0-.2282287.1132472-.1143094.113635-.1143094.3405171 0 .4537643l1.5972108 1.2476577c.2282287.2268822.3425381.113635.4564574 0 .1139192-.1132471.1139192-.2268821.1139192-.2268821 0-.1132471 0-.1132471-.1139192-.2268821l-1.5972108-1.2476578c-.1143094-.1132472-.2282287-.1132472-.2282287-.1132472" mask="url(#a)"/><path d="m69.26663 69.2974426c.1143095-.1132472.1143095-.2268821.1143095-.2268821 0-.1132472 0-.1132472-.1143095-.2268822l-1.5972107-1.3609049c-.1143094-.113635-.2282287-.113635-.2282287-.113635-.1139193 0-.1139193 0-.2282287.113635-.1139193.1132471-.1139193.3401293 0 .4537642l1.5972107 1.360905c.2282287.2264943.3425382.1132471.4564574 0" mask="url(#a)"/><path d="m70.2933861 66.1216745-6.730991-4.8769962-4.9059417 5.1038784 1.026834 8.2794524 1.5968207 1.0207757 1.1411435-1.1340228-.5703767-.4537643c-.7986054-.6806464-1.026444-1.8146692-.3425381-2.6085627.2282287-.3405171.6846861-.5673993 1.1411435-.6806464 0-.3401293.1139193-.6806464.342148-1.0207757.3425381-.2268821.684686-.4537642 1.026834-.5670114 0-.4537642.2282287-.7938935.4564574-1.1340228.3425381-.3405171.6846861-.4537643 1.0268341-.5673992 0-.3401293.2282287-.6802586.4564574-1.0207757.6846861-.7935057 1.8250493-.9071407 2.6240449-.2268821l1.026834.9075285z" mask="url(#a)"/><path d="m66.5284318 72.4729779c.1143095-.1132471.1143095-.2268821.1143095-.2268821h-.0479866.0479866c0-.1132471-.1143095-.1132471-.1143095-.1132471l-.7986053-.6806464-.7986054-.6802586c-.1139193-.113635-.2282287-.113635-.2282287-.113635-.1139193 0-.1139193 0-.2282287.113635-.1139193.1132472-.1139193.2264943-.1139193.2264943 0 .113635 0 .113635.1139193.2268822l1.5976009 1.2476577c.2282287.2268822.342148.1132472.4560672 0" mask="url(#a)"/><path d="m56.1464448 56.3679148c-.1139192-.6802585-.3421479-1.2476578-.7986053-1.8146692l.2282287 4.423232c0 .3405171-.1143095.5670114-.3425382.6802585-1.1407533.7942814-1.026834 1.2476578-.7986053 2.3820685.1143094.5670114.2282287 1.1340228.2282287 1.8146692 0 .2268821-.1139193.4537642-.1139193.6806464l2.3958161 23.930441c0 .2268821-.1139193.5673993-.342148.6806464l-.5703766.4537643 4.1069461.9071406z" mask="url(#a)"/><path d="m53.0661377 36.179709v.2267241l.5703766-.3398924z" mask="url(#a)"/><path d="m57.0592816 91.3001224.4560673 6.5780305c.4564574-.1132472.9129148-.3401293 1.5976009-.5670115-.3425381-2.6085627-.6846861-4.7633612-.7986054-5.7841368z" mask="url(#a)"/><path d="m60.0253184 76.7828852.3425381 3.062327c1.0268341-.6806464 1.3689821-1.7014221 1.5972108-2.4953156-.1139193.1132471-.342148.2268821-.4564574.2268821-.2282287 0-.342148 0-.4560673-.113635z" mask="url(#a)"/><path d="m70.7498045 39.5823992c-.7986054.1132472-1.3689821.4533765-1.7115202 1.1340229-.2282287.3401292-.684296.4537642-1.0268341.3401292 0 0-.342148-.1132471-.7982152-.1132471-.4564574 0-1.0268341.2268821-1.3689821.5670114 0 0-.5707668.4537642-.5707668 1.2476578 0 .4537642-.342148.6802585-.684296.7938935-.1143094.1132472-1.1411435.3401293-1.026834 1.7014221 0 1.3609049 1.368982 1.4741521 1.5972107 1.4741521h8.3285919c.1143095 0 1.5968207-.1132472 1.9393588-1.4741521 0-.113635 0-.113635.1139193-.2268822 0-1.0207756-.4564574-1.5881749-1.4832915-1.701422-.2278386 0-.4556771-.1132472-.5699866-.3401293-.1139192-.2268821-.2282287-.4537642-.1139192-.6806464 0 0 .4560672-1.4741521-.6846861-2.2684334-.5703767-.3401293-1.2550628-.5666236-1.9397489-.4533765" mask="url(#a)"/><path d="m59.7974798 91.9805361c0 .3401293.1134021.6806464.1134021 1.0207757.113402-.3401293.2271924-.6806464.3405945-.9075285z" mask="url(#a)"/><path d="m50.3279395 98.6721627c0 .3401293-.1143095.6806464-.2282287 1.0207757.4564574-.113635.9129148-.2268821 1.4832914-.3401293.2282287-2.4953156.342148-4.9902433.4564574-6.8053004l-1.7115201 1.3612928z" mask="url(#a)"/><path d="m31.0467888 12.3623224h1.1407534v-1.8146692h-6.7309911v1.8146692h1.3689821z" mask="url(#a)"/><path d="m17.4701462 62.6057772c.5703767-.5670114.7986054-1.360905.7986054-2.2684335-.1143094-2.2680456-2.3958162-2.4949277-2.5101256-2.4949277-.342148-.113635-.5703767-.3405171-.684296-.6806464-.4564574-2.1547985-2.1675874-2.948692-2.1675874-2.948692-.5707668-.2268822-1.0272242-.3405171-1.5976009-.3405171-1.93935874 0-2.85227354 1.9283041-2.85227354 2.0415513-.11391928.3405171-.45606726.4537642-.79821525.4537642-2.85227354-.3401292-3.19481165 2.2684335-3.19481165 2.3816807 0 .3405171-.34214799.6806463-.79860539.6806463-1.93935874 0-2.16758744 1.7010343-2.16758744 1.9279164 0 .5673992.2282287 1.0207757.79860538 1.4745399.57037668.4533764 1.25506278.6802586 2.05366816.6802586h11.29478473c.2282287 0 1.1407534-.2268822 1.8254395-.9071407" mask="url(#a)"/><path d="m54.6632314 90.846397h-.2282287l-.7986054.5670114-.342148.2268821.2282287-.1132472-.3425381 7.5988061c.4564574-.1132471 1.0268341-.2268821 1.4832915-.3401292.4564574-.113635.9129148-.2268822 1.3693722-.4537643l-.5707668-7.3723118z" mask="url(#a)"/><path d="m31.1608641 27.7870106-.1139193-.9071406c-.1143094-.6806464 0-1.3612928.1139193-1.9283042-.1139193.2268821-.342148.3401293-.5703767.3401293h-1.5972107l.1139193.2268821c.1143094.2268821.1143094.3405171.1143094.5670114 0 .113635-.7989955 11.3417795.342148 18.260327.1139192.5670114.3421479 1.0207757.5703766 1.3609049.7986054-.9075285 1.7111301-2.2684334 2.6240449-3.6293384l-.1139193-3.2892091c-.2282287-3.7425855-1.0268341-8.6195817-1.4832915-11.0012624" mask="url(#a)"/><path d="m32.6440776 93.0014281 15.0595829-15.7650114 1.0268341-6.8049125.5707668-13.6098251c-1.2550627 1.1340228-2.8526636 2.4949277-4.1077264 3.6293384l-13.8045202 17.1259163 1.8254395 5.8973841v.2268821z" mask="url(#a)"/><path d="m27.2818345 9.07334601h3.650879c.9125246-.45376426 1.4832914-1.02077567 1.7115201-1.8146692.1139193-.68064639.1139193-1.36090495 0-1.81466921-.5707668.68025856-.9129148 1.02077567-.9129148 1.02077567-.2282287.34012928-.6846861.34012928-1.026834.11324715-.342148-.22688213-.342148-.68025856-.1143095-1.02038783.3425382-.45376426 0-1.70142206-.4560672-2.94907985-.5703767 1.47453992-.7986054 2.83544486-.7986054 2.83544486-.1139193.34051711-.4564574.68025856-.9129148.56701141-.4560673-.11324715-.7986054-.45337642-.684296-.90714068.1139193-.45376426 0-.90752852-.2282287-1.2476578-.2282287.68064639-.4564574 1.13402282-.5703767 1.36090495-1.1411435 2.04155133-.2282287 3.40245627.342148 3.85622053" mask="url(#a)"/><path d="m33.6708336 94.2490084c-.1139193.4533764-.4564574 2.0415513-.7986053 4.0827148 1.4829013.4537643 2.9661928.7942814 4.4494843 1.0211635 1.026834-2.9490799 2.2818968-7.7124411 3.4226502-12.5894373z" mask="url(#a)"/><path d="m53.180057 67.2558137c-1.0268341 1.5877871-2.3958162 3.062327-2.966583 3.6293384l-3.5365695 23.8175817 8.5568206-6.4647832z" mask="url(#a)"/><path d="m29.3353466 22.116276h-1.2550627v1.2476578.5670114h1.4832914.2282287.4564574v-2.0415513c-.2282287.113635-.4564574.2268821-.5707668.2268821z" mask="url(#a)"/><path d="m48.7304556 97.878308v-2.7221977l-2.1675874 1.5881749c.2282287.4533764.9125246 1.0207756 2.1675874 1.1340228" mask="url(#a)"/><path d="m44.8515821 96.7441688v-.3401293l2.5101255-16.5589049-4.4498744 4.6501141c-.9125247 3.7425855-2.5097354 10.661133-3.9930269 15.084365 1.9397489.3401293 3.7647982.4533763 5.7045471.4533763 1.1411435 0 2.3962062-.113247 3.5365695-.113247.1143094-.1132472.2282287-.3401293.3425381-.4533765-2.3958162-.2268821-3.4226502-1.815057-3.6508789-2.7221977" mask="url(#a)"/></g><path d="m53.0661377 36.4066312v-.2268822l.5703766-.1132471zm7.0255426 59.9496274c-.1139193-.4537643-.1139193-.9075286-.2282287-1.360905 1.3693722-1.701422 1.5976009-3.7425855 1.5976009-3.8562205v-.1132472l-1.2550628-9.8672395c2.6236547-1.3612928 3.1940314-4.1967377 3.0801121-5.7841369l.1139193-.113635c.3425381.113635.5707668.2268822.9129148.2268822.5703767 0 1.1411435-.2268822 1.4832915-.6806464.2282287-.3401293.3421479-.6802586.3421479-1.0207757.4564574-.1132471.9129148-.3401293 1.1411435-.6806464.2282287-.3397414.342148-.6802585.342148-1.0203878.3425381-.113635.684296-.3405171.9125247-.5670114.2282287-.3405171.4564574-.6806464.4564574-1.0211635.342148-.1132472.6846861-.3401293 1.0268341-.5670114.3421479-.3401293.4564574-.9071407.4564574-1.360905 0-.2268821-.1143095-.4537642-.1143095-.5670114l1.4832915-1.5877871c.1143094-.1132471.2282287-.3401292.2282287-.5670114 0-.2268821-.1139193-.4537642-.342148-.5670114l-7.9864439-5.7845247c-.342148-.2268821-.7986054-.2268821-1.0268341.113635l-2.1675874 2.2680456-2.966583-3.5157034-.342148-2.3816806c-.1139193-1.1344107-.6846861-2.1547985-1.4829013-2.9490799l-1.7115202-1.7010342c-.342148-.3401293-.684296-.5670114-1.0268341-.7938935.1143094-.5670114-.1139193-1.9283042-1.0268341-5.2171255.2282287-.2268821.4564574-.5670114.6846861-.6806464.2282287-.2268821.4564574-.5670114.1139193-3.7425855 0-.6806464-.1139193-1.3612928-.2282287-1.9279164.1143094-.2268821.2282287-.5673992.2282287-.9075285l5.2480897-3.1755741c.3425381-.2268822.4564574-.5673993.3425381-.9075286-.1143094-.3401292-.4564574-.5670114-.9129148-.4537642l-5.2480897 1.1344106c-.1139192-.2268821-.2282287-.4537642-.3421479-.6806464l3.0805022-5.2171254c.2282287-.3401293.1139193-.6802586-.1143094-.9071407-.2278386-.2268821-.684296-.2268821-1.0268341 0l-4.7916323 3.6293384c-.2282287-.113635-.5703767-.2268821-.7986054-.3405171l-1.2550627-5.2171255c-.1139193-.3401293-.342148-.5670114-.6846861-.5670114-.342148 0-.684296.2268821-.7986054.5670114l-1.7115202 5.1038783c-.5699866.1132472-1.1403632.2268822-1.5968206.4537643l-4.5637938-4.1967377c-.2282287-.2268821-.6842959-.2268821-1.0264439 0-.3425381.2268822-.3425381.5673993-.2282287.9075286l2.6236547 5.4440076c-.342148.3401292-.5703767.5670114-.7986054.9071407l-4.6773228-1.1340229c-.3425382-2.1547984-.6846861-4.0827148-.9129148-5.3303726l-.1139193-.9075285c-.2282287-1.2476578.342148-2.3816806.342148-2.3816806.7986053-1.1340228 1.1411435-2.2684335 1.368982-3.2892091 3.3083408-.9071407 6.7313812-1.360905 10.2679507-1.360905 22.2478117 0 40.2739776 18.0330571 40.2739776 40.0359696-.2282287 15.8782586-10.2683408 30.0554829-24.6436278 36.1797491zm-.2941615-4.3759164.4560673.113635c-.1139193.2268821-.2282287.5670114-.342148.9075285 0-.3405171-.1139193-.6806464-.1139193-1.0211635zm-1.2550627-27.4465323-.3425382-3.062327 1.5976009 1.815057zm3.4226502 12.8159315c-.2282287.7942814-.5703767 1.8150571-1.5972108 2.4953156l-.3425381-3.062327 1.0272242.6806464c.1139193.1132472.2278386.1132472.4560673.1132472.1143094 0 .3425381-.1132472.4564574-.2268822zm6.6170717-11.1145095c-.7986054-.6806463-1.9393587-.5670114-2.6240448.2268822-.2282287.3401292-.4564574.6802585-.4564574 1.0203878-.342148.113635-.684296.2268821-1.0268341.5673992-.2282287.3401293-.4564574.6802586-.4564574 1.1340229-.342148.1136349-.684296.3405171-1.0268341.5670114-.2282287.3405171-.342148.6806463-.342148 1.0207756-.4560672.1132472-.9125246.3401293-1.1407533.6806464-.684296.7938936-.4560673 1.9279164.3425381 2.6085628l.5699865.4537642-1.1407533 1.1340228-1.5972108-1.0207756-1.0268341-8.2794525 4.9059417-5.1038783 6.7309911 4.8769962-.684296 1.0207756zm-1.368982 1.7010343c-.1139193-.1132472-.1139193-.3401293 0-.4537643.1143094-.1132471.1143094-.1132471.2282287-.1132471 0 0 .1139192 0 .2282287.1132471l1.5968206 1.3612928c.1143094.1132471.1143094.1132471.1143094.2268821 0 0 0 .1132472-.1143094.2268821-.1139193.1132472-.2282287.2264943-.4564574 0zm-.6846861 2.2684334-.7986054-.6802585c-.1139193-.113635-.1139193-.113635-.1139193-.2268822 0 0 0-.1136349.1139193-.2268821.1143094-.113635.1143094-.113635.2282287-.113635 0 0 .1143094 0 .2282287.113635l1.5972107 1.3609049c.1143095.1132472.1143095.2268822.1143095.2268822s0 .1132471-.1143095.2264943c-.1139192.113635-.2278385.113635-.3421479.113635l-.1139193-.113635zm-1.4832915 3.8562206s0 .1132471-.1139193.2268821c-.1139193.1132471-.2282287.2264943-.4564574 0l-1.5972108-1.2476578c-.1143094-.1132472-.1143094-.3401293 0-.4537643.1139193-.1132471.1139193-.1132471.2282287-.1132471 0 0 .1139193 0 .2282287.1132471l1.5972108 1.2476578c.1139193.1132472.1139193.1132472.1139193.2268822zm-.5703767-2.8354449c-.1139193-.113635-.1139193-.113635-.1139193-.2268821 0 0 0-.113635.1139193-.2268822.1143094-.1132471.1143094-.1132471.2282287-.1132471 0 0 .1143094 0 .2282287.1132471l.7986054.6806464.7986054.6802586s.1143094 0 .1143094.113635c0 0 0 .1132471-.1143094.2268821-.1139193.1132471-.2278386.2268821-.4560673 0zm-8.4421211 18.3731863.5699866-.4533764c.2282287-.113635.342148-.4537643.342148-.6806464l-2.3954261-23.9308289c0-.2268821.1139193-.4537643.1139193-.6802586 0-.6806464-.1139193-1.2476578-.2282287-1.8146692-.2282287-1.1344106-.342148-1.587787.7986054-2.3820684.2282287-.1132472.3425381-.3401293.3425381-.6802586l-.2282287-4.4232319c.4564574.5670114.6846861 1.1340228.7986054 1.8146692l3.9930269 34.1381977zm1.4825112 8.2794525-.4560672-6.5780304 1.2550628.2268821c.1139192 1.0207756.4560672 3.1755741.7986053 5.7841369-.6846861.2268821-1.1411435.4537642-1.5976009.5670114zm-2.8518834.9075285c-.4564574.1132471-1.0268341.2268821-1.4832914.3401293l.3425381-7.5988061-.2282287.113635.3421479-.2268822.7986054-.5673992h.2282287l.7986054.113635.5707668 7.3719239c-.4564574.2268822-.9129148.3401293-1.3693722.4537643zm-7.9864439-4.0831027 3.5365695-23.8175817c.5707668-.5670114 1.9397489-2.0411635 2.966583-3.6293384l2.0536681 20.9825247zm4.9059417 4.6501141c-.5703767.1132471-1.0268341.2268821-1.4832915.3401293.1139193-.3401293.2282287-.6802586.2282287-1.0207757v-4.7633612l1.7115202-1.360905c-.1143094 1.8146692-.2282287 4.3099848-.4564574 6.8049126zm-2.8522736-1.4745399c-1.2550627-.1132472-1.9393587-.6802586-2.1675874-1.1340228l2.1675874-1.5877871zm-.5703766 2.0415513c-1.1407534 0-2.3958162.1136346-3.5369597.1136346-1.9393587 0-3.7647982-.1136346-5.7045471-.4537639 1.4832915-4.4232319 3.0808924-11.3417794 3.9934171-15.084365l4.4494843-4.6501141-2.5101256 16.558905v.3401293c.2282287.9075285 1.2550628 2.4953155 3.6512691 2.7221977-.1143094.1132471-.2282287.3401293-.3425381.4533764zm-10.8383274-.5670114c-1.4832915-.2268821-2.9665829-.5670114-4.4494843-1.0207757.342148-2.0415513.684296-3.6293384.7986054-4.0827148l7.0735291-7.4855589c-1.1411435 4.8769962-2.3962062 9.6403574-3.4226502 12.5890494zm-5.9327758-21.7760304 13.8045202-17.1255285c1.2550628-1.1344107 2.8526637-2.4953156 4.1077265-3.6293384l-.5707669 13.609825-1.026834 6.8049126-15.059583 15.7650114.5703767-9.3002281v-.2268822zm.1139193 20.3014905c-14.375287-4.9902434-24.98538564-17.5792928-26.92513452-32.89054h11.06694622c.7986053 0 1.9393587-.4537642 2.8522735-1.3609049.9125247-.9075285 1.3689821-2.0415513 1.2546727-3.4024563-.1139193-2.4953156-1.9393588-3.5160912-3.3083409-3.8562205-.6846861-2.4953156-2.8522735-3.5160913-2.9665829-3.5160913-.7982153-.3401292-1.5972108-.4537642-2.2815067-.4537642-2.2818969 0-3.53695968 1.5881749-3.99341708 2.4953156-1.25467264 0-2.16758744.3401292-2.73796412.9071407 1.48329148-13.8363194 10.039722-25.6318632 22.0191928-31.6428822v.5670114c0 .2268822.1143094.3401293.1143094.4537643l.9125247 1.1340228c-.1139193 1.5877871-.5703767 9.5271103 0 15.8782586-.342148.9075285-2.7379641 6.3515361.3425381 8.2794524.2278386.113635.4560673.2268822.684296.3401293l-.342148 1.9283042c0 .2268821 0 .4537643.1139193.6802585l2.5101255 2.9490799-1.026834 1.8146692c-.1143095.2264943-.1143095.4533764 0 .6802586l.6846861 1.815057s0 .1132471.1139192.1132471l.7986054 1.0207757c-1.2550628 1.1340228-2.2818968 2.1547985-2.5101255 3.0619392v.2268821c0 .3405171.1143094 3.2892091 1.8254394 4.1967376.2282287.1132472.5707668.2264943 1.0268341.2264943h.342148l-.9125247 6.124654-1.1407533 1.360905c-.2282287.1132471-.3425382.3401292-.2282287.5670114l1.8254394 6.124654-.5703767 11.2281445c0 .3401292.1139193.5670114.4560673.7938935.1143094 0 .2282287.1132471.342148.1132471-.1139193.5673993-.2278386 1.2476578-.342148 2.0415514zm-29.20664125-35.0453384c-.57076681-.4537643-.79860538-.9075286-.79860538-1.47454 0-.2268821.22783857-1.9279163 2.16758744-1.9279163.4564574 0 .79860539-.3405171.79860539-.6806464 0-.113635.34214798-2.7221977 3.19442152-2.3816806.34214798 0 .6846861-.113635.79860538-.4537643 0-.1132471.9129148-2.0415513 2.8522735-2.0415513.5703767 0 1.0268341.113635 1.5972108.3405171 0 0 1.7115202.7935057 2.1679776 2.948692.1139193.3401293.342148.5670114.6842959.6806464.1143095 0 2.3958162.2264943 2.5101256 2.4949278 0 .9071407-.2282287 1.7010342-.7986054 2.2684334-.6846861.6802586-1.5972107.9071407-1.8254394.9071407h-11.29517492c-.79821525 0-1.48290135-.2268821-2.05327803-.6802585zm23.15994615-50.4706084v-1.8142814h6.7313812v1.8142814h-1.1407534-4.2216457zm1.4832915-7.14504182c.1139193-.22688213.342148-.68025856.5703767-1.36090495.2282287.34012928.3425381.79389354.2282287 1.2476578-.1139193.45376426.2282287.79389353.684296.90714068.4564574.11324715.7989955-.22688213.9129148-.56701141 0 0 .2282287-1.36090494.7986053-2.83544486.4564574 1.24765779.7986054 2.49531559.4564574 2.94907985-.2282287.34012927-.2282287.7935057.1139193 1.02038783.3425381.22688213.7986054.22688213 1.0268341-.11324715 0 0 .342148-.34051711.9129148-1.02077567.1139193.45376426.1139193 1.13402282 0 1.81466921-.2282287.79389353-.7989955 1.36090494-1.7115202 1.8146692h-3.6508789c-.5703767-.45376426-1.4832915-1.8146692-.342148-3.85622053zm3.1944215 40.48973382c-.2282287-.3401293-.4564574-.7938935-.5703766-1.3609049-1.1411435-6.9185476-.342148-18.146692-.342148-18.260327 0-.2264943 0-.3401293-.1143094-.5670114l-.1139193-.2268822h1.5972107c.2282287 0 .4564574-.1132471.5703767-.3401292-.1139193.5670114-.2282287 1.2476578-.1139193 1.9283041l.1139193.9071407c.4564574 2.3816806 1.2550628 7.2586768 1.4832915 11.0012624l.1139193 3.2892091c-.9129148 1.360905-1.8254395 2.7218099-2.6240449 3.6293384zm.1143095-23.8175817v2.0415513h-.4564574-.2282287-1.4832915v-.5670114-1.2476578h1.2550628.3421479c.1143095 0 .3425382-.1132472.5707669-.2268821zm-2.8522736-1.9279164h1.026444 1.026834.1143095.1139192c.1143095 0 .2282287.1132472.2282287.2268821 0 .1132472-.1139192.3401293-.3421479.3401293h-2.0536682c-.1139193 0-.342148-.1132471-.342148-.3401293-.1143094-.1136349 0-.2268821.2282287-.2268821zm0-2.1547985 2.053278.1132472c.1143095 0 .3425382.1132471.3425382.3401293 0 .1136349-.1143095.2268821-.2282287.2268821h-.1143095-1.026834-1.026444c-.1143094 0-.3425381-.1132472-.3425381-.3401293s.1143094-.3401293.3425381-.3401293zm.342148-3.7429733v-.1132472h2.6240448v.3401293.113635c-.2282287-.113635-.4564574-.2268822-.7986053-.2268822zm1.71113 1.701422c.1143095 0 .2282287.1132472.2282287.1132472s.1143095 0 .1143095.1132471c0 .113635-.1143095.3405171-.3425382.3405171l-2.053278-.113635c-.1143094 0-.3425381-.1132471-.3425381-.3401292.1143094-.1132472.2282287-.2268822.3425381-.2268822zm.3425382 36.8600076.4564574-1.7010342c1.2546726-.2268821 2.5097354-1.1344107 3.6508789-2.0415513l-2.2818969 5.8977718zm5.704547-12.1352852c.342148.7938936.4564574 1.8146692.4564574 2.3816806 0 .2268822.1139193.4537643.342148.5670115.2282287.1132471 3.9930269 2.8354448 6.5031525 4.763749.342148.3401293 2.8518834 2.6085627 5.7045471 2.835057.342148 0 .7986054 0 1.2550628.113635-4.1077265 1.9279164-12.3216189 6.011019-17.2279507 9.6403574l-.6846861-.9075285-.5699866-1.3609049 1.1407534-1.9279164.1139193-.113635 2.7383542-7.2586768c.1139193-.3401292 0-.7938935-.4564574-1.0203878h-.4564573c.7986053-.7942814 1.3693721-1.5881749 1.5976008-1.815057.2282287-.3401293.2282287-.7938936-.1143094-1.0203879-.342148-.2268821-.7986054-.2268821-1.0268341.1132472-1.026834 1.3609049-4.2212556 4.8769962-6.046695 3.7425855-1.0268341-.6802585-1.0268341-2.2680456-.6846861-3.7425855.2282287.7938935.6846861 1.3609049 1.368982 1.9279163.2282287.2268822.6846861.2268822 1.0272243 0 1.71113-1.3609049 3.9930269-5.1034905 5.0198609-6.9181597zm4.5634036-3.8562205c-.1139192.1132472-.2282287.2268821-.3421479.4537643 0 0 0 .1132471-.1143095.1132471l-.7986053-.7938935c.1139192-.1132472.2282287-.3401293.4564574-.6802586zm.342148-4.1963498-.6842959-1.4745399 1.2550627 1.1344106c-.2282287.1132472-.3425381.2264943-.5707668.3401293zm.6846861 2.948692-.7986054-.9071407c.2282287-.2268821.5703767-.4537642.9125247-.7942813l.6846861 1.1344106c-.2282287.2268821-.5703767.3401293-.7986054.5670114zm.5703767 7.9393232c-.0553991-.1105323-.1104081-.1935285-.1529327-.2765247l-.9878207 1.6374297c-.2282287-.1132472-.3425381-.2268822-.4564574-.3401293l.6846861-1.0207757c.1139193-.113635.1139193-.2268821.1139193-.4537643v-.9071406c.1143094 0 .2282287 0 .342148-.113635 0 .2268821.1143094.5670114.2282287.9071407 0 .1167376.0308206.2036121.075296.2908745l.0390134-.0639924c0 .113635.1139193.2268821.1139193.3405171zm.9129148 1.4741521v1.2476578c-.2282287-.113635-.4564574-.3401293-.7986054-.5670114l.5703767-.9071407c.1139193.1132472.1139193.1132472.2282287.2264943zm8.5564305-9.5267224-.342148.3401292c-.1143094-.1132471-.2282287-.2268821-.3425381-.2268821l.3425381-.7938935c.1139193.2268821.2282287.4537642.342148.6806464zm.1139193-2.6085628c-.1139193-.113635-.2278386-.2268821-.4560673-.3405171l1.1407534-.9071407zm.3425381 20.4147377c-.5703767-.1132472-.9129148-.3401293-1.0268341-.4537643.5703767-.2268821 1.1407534-.4537642 1.5972108-.7938935.4564574.2268821.9129148.4537642 1.2550628.9075285-.342148.2268821-.9129148.4537643-1.8254395.3401293zm-.6846861-10.7743803c.1143094-.4537642.1143094-.9075285.1143094-1.2476578l.5703767.3401293c.1139193 1.0207757.1139193 2.0415514.1139193 2.3816806v.0853232-.0853232zm-1.5968206 2.9486921c.1139192-.1132472.3421479-.2268822.4564574-.4537643.1139192-.1132471.2278385-.3401293.3417578-.4533764l.5703767 1.1340228c.4564574 1.7010342.9129148 3.6293384 1.0268341 4.5364791-.9125247-.3401293-1.8250494-.4537643-2.5097355-.4537643zm-1.5976009.7938935v3.2892091c-1.7111301-.4537642-3.1944216-1.5877871-3.650879-2.0415513v-1.3612928c.5703767.2268821 1.2550628.3405171 2.0536682.3405171.5703767 0 1.1411435-.113635 1.5972108-.2268821zm-1.5972108-1.2476578c-1.1411435 0-1.9397489-.3401293-2.5097354-1.0207757-1.0268341-1.1340228-1.0268341-3.0619391-1.0268341-3.8562205l3.4226502-2.3816806c1.4829014 1.2476578 2.8522736 2.0415513 3.4226502 2.4953156.2282287.9071407.1143095 2.7218099-.7986053 3.7425855-.5703767.6806464-1.3689821 1.0207757-2.5101256 1.0207757zm-5.8184664 19.1674677-7.3017578 9.073346.6846861-4.423232c.9125246-.6806463 4.2208655-2.948692 6.6170717-4.650114zm-7.7582152 3.5157034c-.342148.2268821-.9125247.4537643-1.2546727.3405171-.5707668-.3405171-.9129148-1.701422-1.026834-2.7221977 1.2546726-2.7218099 10.8383273-8.0521825 18.8247713-11.908403.2282287.2264942.4564574.5670114.9125246.7938935-2.6240448 2.4949277-6.8453004 6.3511483-8.2142825 7.1450418-1.9397489 1.2476578-9.013278 6.1242662-9.2415067 6.3511483zm20.3080628-5.1034905c.1139193.4537643.2282287.9075285.2282287 1.5877871.1139193 1.0207756-1.2550628 2.9490798-2.624435 4.5364791l.4564574-13.1560609c.342148-.3405171.6846861-.6806464.9129148-.7938935h.4564574c.5703767 0 1.0268341-.1132472 1.4829013-.3401293l.1143094 4.4228441c-1.5972107 1.3612928-1.3693721 2.4953156-1.026834 3.7429734zm-4.4494843-28.1271787.2282287-1.4745399c.4564574.113635.7986053.3405171 1.1411435.5670114l-.5707669 1.1344106c-.2282287-.113635-.3421479-.113635-.3421479-.113635-.1139193 0-.2282287-.1132471-.4564574-.1132471zm-2.6240449-3.5160913.684296-1.9279163.4564574 2.0415513h-.7986054-.1139193c-.1143094-.113635-.1143094-.113635-.2282287-.113635zm.2282287 1.5877871h.0479866-.0479866c.4560673 0 .7986054 0 1.1407534.113635l-.2282287 1.4741521c-.2282287 0-.4564574-.1132472-.684296-.1132472h-.3425381l-.2282287-1.4745399zm-3.4226502.6806464c.4564574-.2268821.9129148-.3401293 1.4829013-.4537643l.2282287 1.360905c-.3425381.113635-.6842959.2268821-1.0264439.3405171zm3.4226502 2.2684335c.7986054.1132471 1.4829014.2268821 2.2818969.4537642 0 0 2.2815067.7935057 3.0801121 3.6293384l-.5703767-.4537642-.1143094-.113635s-1.9389686-1.0207757-3.8787175-2.8354449c-.2282287-.2264943-.6846861-.2264943-.9129148-.1132471l-4.2212556 2.948692c-.2282287.113635-.342148.3405171-.342148.5673992v.9071407c-.7986054.2268821-1.1411435.1132472-1.368982.1132472.1139192-.7938936.4560672-1.5877871 1.026834-2.4949278 1.1407534-1.7014221 3.0801121-2.7221977 5.019861-2.6085627zm-7.4160672 6.2379011.6846861.3401293v.6806464l-.5703767.7938935c-.5707668-.3405171-1.0268341-.6806464-1.2546727-.9075285-.1143094-.9071407-.3425381-3.0619392-1.5976009-3.9694677l-1.71113-1.3609049c-.1143094-.6806464-.1143094-1.360905-.2282287-2.0415514l3.5369596 2.1547985 1.368592 1.360905c-.2282287.5673992-.4564574 1.1340228-.6846861 1.701422v.1132472c0 .3405171.1143094.7938935.4564574 1.1344106zm-5.8184664-24.0444639c.1143094.3405171.2282287 1.0207757.2282287 2.0415514 0 .6806463-.1139193 1.4745399-.342148 2.2684334-.1143094.4533764-.4564574 1.0207757-.6846861 1.5877871v-1.2476578-2.3816806-2.8354449c.1139193-.1132471.4564574.113635.7986054.5670114zm11.8651614.3405171c-3.4226502 0-6.8453004.4533765-10.039722 1.24727 0-1.24727-.2282286-2.1547985-.3421479-2.1547985 0-.1132471-.1139193-.2268821-.1139193-.2268821-.9129148-1.1340228-1.5976009-1.5877871-2.1679776-1.5877871v-.7938935-.3401293h1.1407534c.4564574 0 .7989955-.3405171.7989955-.7938935v-3.28920916c0-.34012927-.2282287-.5670114-.4564574-.68064638.342148-.45337643.6846861-.90714069.7986054-1.36090495.6842959-2.04155133-.342148-3.96946768-.4564574-3.96946768-.1139193-.22688213-.342148-.34051711-.5703767-.34051711s-.4564574 0-.6846861.22688213l-.342148.34051711c-.3425381-1.47453992-1.1407534-3.06232699-1.3689821-3.51609125-.2282287-.45376426-.5703766-.56701141-.7986053-.56701141s-.5707669.22688213-.6846861.45376426c-.342148.68025855-.6846861 1.36090494-.9129148 2.04155133-.4560673-.68064639-1.026444-1.13441065-1.026444-1.13441065-.2282287-.22688213-.5707668-.22688213-.9129148-.11324715-.2282287.22688213-.4564574.56701141-.342148.79389354.1139193.56701141-.2282287 1.70103422-.5707668 2.38168061-1.1407533 1.8146692-.7982152 3.51609125-.2278385 4.65011407h-.5703767c-.4564574 0-.7986054.34012928-.7986054.79389353v3.28920916c0 .4533764.342148.7938935.7986054.7938935h1.368982v.6806464c-.3425381.3397414-.5707668.7935057-.5707668 1.24727 0 .4537642.1143094.7938935.3425381 1.1344106-.2282287.3401293-.3425381.6802586-.3425381 1.0203878 0 .4537643.1143094.7938936.3425381 1.1344107-.2282287.3401293-.3425381.6802585-.3425381 1.1340228 0 .6806464.3425381 1.2476578.9129148 1.5877871-13.8045202 6.4647832-23.50248428 20.3014905-24.18678025 36.293384-1.59760089.5670114-2.28189686 2.1547985-2.28189686 3.0619392-.11391928 1.0207756.4564574 2.0419391 1.36898206 2.7221977.34214799.2268821.6846861.4537642 1.1411435.5670114 1.82504933 16.4452699 13.23414345 30.0554829 28.63626455 35.2726084.4564574.1132471 1.0268341.3401297 1.4832915.4537647 1.3689821.453376 2.7379641.680258 4.1073363 1.020387.4564574.113635 1.026444.226882 1.4829014.226882 2.0536681.340518 4.2212556.453765 6.388843.453765h.9129148 1.2550628c.4564574 0 1.0268341-.113247 1.4832915-.113247 1.0268341-.113635 2.053278-.226883 2.9658027-.340518.5707668-.113247 1.0272242-.226882 1.5976009-.226882h.2282287c.5703766-.113247 1.026834-.226882 1.5972107-.340129.4564574-.113247 1.0268341-.226882 1.4832915-.453376.4560673-.113635 1.026444-.340517 1.4829014-.453765.5703766-.2268817 1.026834-.3405167 1.5972107-.5673989.4564574-.2264943 1.0268341-.3401292 1.4832915-.5670114 15.4021211-6.3511483 26.2408386-21.4355133 26.2408386-38.9015589 0-23.2505703-18.9390808-42.1907681-42.3276458-42.1907681z" fill="#000" mask="url(#a)"/><path d="m41.6559918 43.324903c0-.1131682-.113194-.2267241-.113194-.3398924l-.0387651.0639479c.0422539.0825508.0969127.1654892.1519591.2759445" fill="#fff" mask="url(#a)"/><path d="m73.3740834 42.3042479c-.1143094.2268821 0 .4537643.1139193.6806464.1143094.2268821.342148.3401293.5703767.3401293 1.0268341.1132471 1.4832915.6806464 1.4832915 1.701422-.1139193.1132472-.1139193.1132472-.1139193.2268822-.3425381 1.3609049-1.8254395 1.474152-1.9397489 1.474152h-8.3285919c-.2282287 0-1.5968207-.1132471-1.5968207-1.474152-.1143094-1.3612928.9121346-1.5881749 1.026444-1.7014221.342148-.113635.6842959-.3401293.6842959-.7938935 0-.7938936.5707669-1.2476578.5707669-1.2476578.3421479-.3401293.9125246-.5670114 1.368982-.5670114s.7986054.1132471.7986054.1132471c.3425381.113635.7986054 0 1.0268341-.3401293.3425381-.6806464.9129148-1.0207756 1.71113-1.1340228.6846861-.113635 1.3693722.1132472 1.9397489.4533764 1.1407534.7942814.6846861 2.2684335.6846861 2.2684335m-3.0805022-4.1963498c-1.0268341.113635-1.9393588.6806464-2.5101256 1.3609049-.2278386 0-.4560673-.1132471-.684296-.1132471-.9129148 0-1.8258296.3401293-2.5101255 1.0207757 0 0-.7982153.6802585-1.026444 1.8146692-.9129148.3401292-1.9397488 1.2472699-1.8258296 3.062327.1143095 2.2680456 2.1679776 2.8354448 3.1944216 2.8354448h8.4429013c.9125247 0 2.8522736-.5673992 3.3083408-2.6089505 0-.2264943.1139193-.3401293.1139193-.5670115.2282287-1.0207756-.3417578-2.3816806-1.9389686-2.948692.1139193-1.0207756-.2282287-2.2684334-1.4832915-3.1755741-.9129148-.5670114-1.9397489-.9075285-3.0805022-.6806464" fill="#000" mask="url(#a)"/></g></svg>