<?xml version="1.0" encoding="UTF-8"?>
<svg width="87px" height="102px" viewBox="0 0 87 102" version="1.1" xmlns="http://www.w3.org/2000/svg" xmlns:xlink="http://www.w3.org/1999/xlink">
    <!-- Generator: sketchtool 50.2 (55047) - http://www.bohemiancoding.com/sketch -->
    <title>9B68A352-D8B4-4259-AA41-FF908193F2BC</title>
    <desc>Created with sketchtool.</desc>
    <defs>
        <polygon id="path-1" points="0 101.961217 86.9504529 101.961217 86.9504529 -5.68434189e-14 0 -5.68434189e-14"></polygon>
    </defs>
    <g id="Future-Project-Desktop" stroke="none" stroke-width="1" fill="none" fill-rule="evenodd">
        <g id="Future-Camp" transform="translate(-165.000000, -1985.000000)">
            <g id="future-camp/tour" transform="translate(0.000000, 1588.000000)">
                <g id="side-data" transform="translate(164.000000, 397.000000)">
                    <g id="Group-62" transform="translate(1.000000, 0.000000)">
                        <path d="M37.5464691,40.0747529 L36.1770969,38.7138479 L32.6405274,36.5590494 C32.7544466,37.239308 32.7544466,37.9199544 32.8687561,38.6006008 L34.5798861,39.9615057 C35.8349489,40.8686464 36.0631776,43.0238327 36.1770969,43.9309734 C36.4053256,44.1578555 36.861783,44.4979848 37.4321596,44.8385019 L38.0025363,44.0442205 L38.0025363,43.363962 C37.7743076,43.250327 37.5464691,43.1370798 37.3182404,43.0238327 C36.9757022,42.6833156 36.861783,42.2299392 36.861783,41.8894221 L36.861783,41.7761749 C37.0900117,41.2087757 37.3182404,40.6417643 37.5464691,40.0747529" id="Fill-1" fill="#00B8FB"></path>
                        <path d="M75.4242013,46.9932616 C74.9677439,49.0348129 73.0279951,49.6018243 72.1154704,49.6018243 L63.6729592,49.6018243 C62.6461251,49.6018243 60.5920668,49.0348129 60.4781475,46.7663795 C60.3642283,44.9517103 61.3910623,44.0441817 62.303587,43.7040525 C62.5318157,42.5700297 63.3304211,41.8893833 63.3304211,41.8893833 C64.0151072,41.2087369 64.928022,40.8686076 65.8405466,40.8686076 C66.0687753,40.8686076 66.2966139,40.9822426 66.5248426,40.9822426 C67.0952193,40.3015962 68.0081341,39.7345848 69.0349682,39.6213376 C70.1761117,39.3944555 71.2029457,39.7345848 72.1154704,40.3015962 C73.370143,41.2087369 73.7126812,42.4563947 73.5983717,43.4775582 C75.1959726,44.0441817 75.7663493,45.4054745 75.5381206,46.4262502 C75.5381206,46.6531323 75.4242013,46.7663795 75.4242013,46.9932616 M43.2029906,21.6538243 C39.6664211,21.6538243 36.2433807,22.1075886 32.9346498,23.0147293 C32.7068112,24.0355049 32.3642731,25.1695278 31.5660578,26.3039384 C31.5660578,26.3039384 30.995291,27.4379612 31.2235197,28.685619 L31.3378291,29.5931475 C31.5660578,30.8408053 31.9078157,32.7687217 32.2503538,34.9235202 L36.9280668,36.057543 C37.1562955,35.7174137 37.3841341,35.4905316 37.7266722,35.1504023 L35.1026274,29.7063947 C34.9883179,29.3662654 34.9883179,29.0257483 35.3308561,28.7988662 C35.673004,28.571984 36.1290713,28.571984 36.3573,28.7988662 L40.9214839,32.9956038 C41.377161,32.7687217 41.9479278,32.6550867 42.5183045,32.5418395 L44.2298247,27.4379612 C44.3437439,27.0978319 44.6862821,26.8709498 45.02843,26.8709498 C45.370578,26.8709498 45.5988067,27.0978319 45.7131161,27.4379612 L46.9681789,32.6550867 C47.1964076,32.7687217 47.5381655,32.8819688 47.7663942,32.9956038 L52.5584166,29.3662654 C52.9005646,29.1393833 53.357022,29.1393833 53.5848605,29.3662654 C53.8130892,29.5931475 53.9270085,29.9332768 53.69917,30.2734061 L50.6186677,35.4905316 C50.7329771,35.7174137 50.8468964,35.9442958 50.9612058,36.1711779 L56.2089054,35.0367673 C56.6653628,34.9235202 57.0079009,35.1504023 57.1218202,35.4905316 C57.2361296,35.8306608 57.1218202,36.1711779 56.7796722,36.3980601 L51.5315825,39.5736342 C51.5315825,39.9137635 51.4172731,40.2542806 51.3033538,40.4807749 C51.4172731,41.0477863 51.5315825,41.7284327 51.5315825,42.4090791 C51.8737305,45.5846532 51.6455018,45.9247825 51.4172731,46.1516646 C51.2120623,46.2536646 51.0072417,46.535619 50.8024211,46.7570715 L50.8024211,47.0847901 C51.6552552,50.1874517 51.8706094,51.4971627 51.7598112,52.0494365 C52.1019592,52.2763186 52.4444973,52.5032008 52.7866453,52.84333 L54.4977753,54.5443643 C55.2963807,55.3386456 55.8667574,56.3590335 55.9810668,57.4934441 L56.3232148,59.8751247 L59.2897978,63.3908281 L61.4569951,61.1227825 C61.6852238,60.7822654 62.1416812,60.7822654 62.4842193,61.0091475 L70.4702731,66.7936722 C70.6985018,66.9069194 70.8128112,67.1338015 70.8128112,67.3606837 C70.8128112,67.5875658 70.6985018,67.8144479 70.5845825,67.9276951 L69.101291,69.5154821 C69.101291,69.6287293 69.2152103,69.8556114 69.2152103,70.0824935 C69.2152103,70.5362578 69.101291,71.1032692 68.759143,71.4433985 C68.4166049,71.6702806 68.074457,71.8971627 67.7319188,72.0104099 C67.7319188,72.350927 67.5036901,72.6910563 67.2758516,73.0315734 C67.0476229,73.2580677 66.7050848,73.4849498 66.3629368,73.5985848 C66.3629368,73.9387141 66.2486274,74.2788433 66.0207888,74.6189726 C65.7929502,74.9594897 65.3364928,75.1863719 64.8800354,75.299619 C64.8800354,75.6401361 64.7661161,75.9802654 64.5378874,76.3203947 C64.1953493,76.7741589 63.6249726,77.0010411 63.054596,77.0010411 C62.7120578,77.0010411 62.4838291,76.8877939 62.1416812,76.7741589 L62.0277619,76.8877939 C62.1416812,78.4751932 61.5713045,81.310638 58.9472596,82.6719308 L60.2019323,92.5391703 L60.2019323,92.6524175 C60.2019323,92.7656646 59.9737036,94.807216 58.6051117,96.508638 C58.7190309,96.9620144 58.7190309,97.4157787 58.8333404,97.869543 C73.2082372,91.7452768 83.2483493,77.5680525 83.476578,61.6897939 C83.476578,39.6868814 65.4504121,21.6538243 43.2029906,21.6538243" id="Fill-3" fill="#5CD8FF"></path>
                        <path d="M29.7881758,96.4426677 L30.3585525,85.2145232 L28.533113,79.0898692 C28.4191937,78.8629871 28.533113,78.6361049 28.7613417,78.5228578 L29.9020951,77.1619529 L30.8150099,71.0372989 L30.4728619,71.0372989 C30.0164045,71.0372989 29.6742565,70.9240517 29.4460278,70.8108046 C27.7345076,69.903276 27.6205883,66.954584 27.6205883,66.6140669 L27.6205883,66.3871848 C27.848817,65.4800441 28.8756511,64.4592684 30.1303238,63.3252456 L29.3321085,62.30447 C29.2177991,62.30447 29.2177991,62.1912228 29.2177991,62.1912228 L28.533113,60.3761658 C28.4191937,60.1492837 28.4191937,59.9224015 28.533113,59.6959072 L29.5599471,57.881238 L27.0498215,54.9321582 C26.9359022,54.7056639 26.9359022,54.4787817 26.9359022,54.2518996 L27.2780502,52.3235954 C27.0498215,52.2103483 26.821983,52.0971011 26.5937543,51.9834662 C23.513252,50.0555498 25.9090682,44.6115422 26.2516063,43.7040137 C25.6808395,37.3528654 26.1372969,29.4135422 26.2516063,27.8257551 L25.3386915,26.6917323 C25.3386915,26.5780973 25.2247722,26.4648502 25.2247722,26.2379681 L25.2247722,25.6709567 C13.2453013,31.6819757 4.68848072,43.4775194 3.20518924,57.3138388 C3.77595605,56.7468274 4.68848072,56.4066981 5.9435435,56.4066981 C6.4000009,55.4995574 7.65506368,53.9113825 9.9365704,53.9113825 C10.6212565,53.9113825 11.4198619,54.0250175 12.2184673,54.3651468 C12.3323865,54.3651468 14.499974,55.3859224 15.1846601,57.881238 C16.5540323,58.2213673 18.3790816,59.242143 18.493391,61.7374586 C18.6073103,63.0983635 18.1508529,64.2323863 17.2383283,65.1399148 C16.3258036,66.0470555 15.1846601,66.5008198 14.3860547,66.5008198 L3.31949865,66.5008198 C5.2588574,81.8120669 15.8693462,94.4011163 30.2446332,99.3917475 C30.3585525,98.5974662 30.4728619,97.9172076 30.5867812,97.3498084 C30.4728619,97.3498084 30.3585525,97.2365612 30.2446332,97.2365612 C29.9020951,97.0096791 29.7881758,96.782797 29.7881758,96.4426677" id="Fill-5" fill="#5CD8FF"></path>
                        <mask id="mask-2" fill="white">
                            <use xlink:href="#path-1"></use>
                        </mask>
                        <g id="Clip-8"></g>
                        <polygon id="Fill-7" fill="#FFFFFF" mask="url(#mask-2)" points="48.9396457 50.418251 52.060722 50.418251 52.060722 43.8250951 48.9396457 43.8250951"></polygon>
                        <path d="M40.2881004,34.4786373 L41.0867058,35.3857779 C41.3149345,35.1588958 41.6570825,35.0456487 41.8853112,34.8187665 L41.2006251,33.6847437 C40.8584771,34.024873 40.5163291,34.2517551 40.2881004,34.4786373" id="Fill-9" fill="#FFFFFF" mask="url(#mask-2)"></path>
                        <path d="M27.5100242,20.5284114 L29.5636924,20.5284114 C29.7919211,20.5284114 29.9058404,20.3015293 29.9058404,20.1882821 C29.9058404,20.0746471 29.7919211,19.9614 29.6776117,19.9614 L29.5636924,19.9614 L29.449383,19.9614 L28.4225489,19.9614 L27.3961049,19.9614 C27.1678762,19.9614 27.0535668,20.0746471 27.1678762,20.1882821 C27.1678762,20.4151643 27.3961049,20.5284114 27.5100242,20.5284114" id="Fill-10" fill="#FFFFFF" mask="url(#mask-2)"></path>
                        <path d="M42.5698413,46.0469498 L42.5698413,44.799292 C42.4555318,44.6860449 42.4555318,44.6860449 42.3416126,44.5727977 L41.7712359,45.4799384 C42.1133839,45.7068205 42.3416126,45.9337027 42.5698413,46.0469498" id="Fill-11" fill="#FFFFFF" mask="url(#mask-2)"></path>
                        <path d="M51.2404251,32.6638905 L51.9251112,31.4162327 L50.7843578,32.3237612 C51.0125865,32.4370084 51.1265058,32.5506433 51.2404251,32.6638905" id="Fill-12" fill="#FFFFFF" mask="url(#mask-2)"></path>
                        <path d="M52.1532619,51.8313194 C51.6968045,52.1714487 51.1264278,52.3983308 50.5560511,52.6252129 C50.6699704,52.7384601 51.0125085,52.9653422 51.5828852,53.0789772 C52.4954099,53.1922243 53.0661767,52.9653422 53.4083247,52.7384601 C53.0661767,52.2846958 52.6097193,52.0582015 52.1532619,51.8313194" id="Fill-13" fill="#FFFFFF" mask="url(#mask-2)"></path>
                        <path d="M50.4418587,35.3859331 C50.5561682,35.3859331 50.6700874,35.4991802 50.7843969,35.6128152 L51.1265448,35.2726859 C51.0126256,35.0458038 50.8983161,34.8189217 50.7843969,34.5920395 L50.4418587,35.3859331 Z" id="Fill-14" fill="#FFFFFF" mask="url(#mask-2)"></path>
                        <path d="M40.4019807,32.4370471 C40.6302094,32.3238 40.7445188,32.210165 40.9727475,32.0969179 L39.7176848,30.9625072 L40.4019807,32.4370471 Z" id="Fill-15" fill="#FFFFFF" mask="url(#mask-2)"></path>
                        <path d="M30.3623368,14.4036353 L30.3623368,14.290467 L30.3623368,13.9501871 L27.7382919,13.9501871 L27.7382919,14.0637429 L29.5637314,14.1769112 C29.9058794,14.1769112 30.1341081,14.290467 30.3623368,14.4036353" id="Fill-16" fill="#FFFFFF" mask="url(#mask-2)"></path>
                        <path d="M27.0536058,15.8784137 C27.0536058,16.104908 27.2818345,16.218543 27.3957538,16.218543 L29.449422,16.3317901 C29.6776507,16.3317901 29.7919601,16.104908 29.7919601,15.9916608 C29.7919601,15.8784137 29.6776507,15.8784137 29.6776507,15.8784137 C29.6776507,15.8784137 29.5637314,15.7651665 29.449422,15.7651665 L27.3957538,15.6515316 C27.2818345,15.6515316 27.1675251,15.7651665 27.0536058,15.8784137" id="Fill-17" fill="#FFFFFF" mask="url(#mask-2)"></path>
                        <path d="M27.3959099,18.4867825 L28.4227439,18.4867825 L29.449578,18.4867825 L29.5634973,18.4867825 C29.6778067,18.4867825 29.791726,18.3735354 29.791726,18.2602882 C29.791726,18.0334061 29.5634973,17.9197711 29.449578,17.9197711 L27.3959099,17.806524 C27.1676812,17.806524 27.0537619,17.9197711 27.0537619,18.1466532 C27.0537619,18.3735354 27.2819906,18.4867825 27.3959099,18.4867825" id="Fill-18" fill="#FFFFFF" mask="url(#mask-2)"></path>
                        <path d="M30.2482224,50.9238684 L29.791765,52.6252905 L31.6172045,54.780089 L33.8991013,48.8823171 C32.758348,49.7898456 31.5032852,50.6973741 30.2482224,50.9238684" id="Fill-19" fill="#FFFFFF" mask="url(#mask-2)"></path>
                        <path d="M38.804887,36.4066312 L39.6034924,37.2005247 C39.7178018,37.2005247 39.7178018,37.0872776 39.7178018,37.0872776 C39.8317211,36.8603954 39.9460305,36.7467605 40.0599498,36.6335133 L39.2613444,35.7263726 C39.0331157,36.0665019 38.9188063,36.293384 38.804887,36.4066312" id="Fill-20" fill="#FFFFFF" mask="url(#mask-2)"></path>
                        <path d="M30.4764121,47.4079711 C30.1342641,47.6348532 29.6778067,47.6348532 29.449578,47.4079711 C28.7648919,46.8409597 28.3084345,46.2739483 28.0802058,45.4800548 C27.7380578,46.9545947 27.7380578,48.5419939 28.7648919,49.2226403 C30.5903314,50.357051 33.7847529,46.8409597 34.811587,45.4800548 C35.0398157,45.1395376 35.4962731,45.1395376 35.8384211,45.3664198 C36.1809592,45.5933019 36.1809592,46.0470662 35.9527305,46.3871954 C35.7245018,46.6140776 35.1541251,47.4079711 34.3551296,48.2018646 L34.811587,48.2018646 C35.2680444,48.4287468 35.3823538,48.882511 35.2680444,49.2226403 L32.5300803,56.4813171 L32.4157709,56.5945643 L31.2750175,58.5228684 L31.8453942,59.8837734 L32.5300803,60.7909141 C37.436022,57.1615757 45.6503045,53.0788608 49.7576408,51.1505567 C49.3011834,51.0373095 48.844726,51.0373095 48.502578,51.0373095 C45.6503045,50.8104274 43.1401789,48.5419939 42.7980309,48.2018646 C40.2879054,46.2739483 36.5231072,43.5517506 36.2948785,43.4385034 C36.0666498,43.3252563 35.9527305,43.0983741 35.9527305,42.871492 C35.9527305,42.3040928 35.8384211,41.2833171 35.4962731,40.4898114 C34.469439,42.3040928 32.1875422,46.0470662 30.4764121,47.4079711" id="Fill-21" fill="#FFFFFF" mask="url(#mask-2)"></path>
                        <path d="M51.0125865,41.0566677 C51.0125865,41.396797 51.0125865,41.8505612 50.8982771,42.3043255 L51.6968825,43.7788654 C51.6968825,43.4383483 51.6968825,42.4175726 51.5829632,41.396797 L51.0125865,41.0566677 Z" id="Fill-22" fill="#FFFFFF" mask="url(#mask-2)"></path>
                        <path d="M41.2005471,41.8506776 C41.0866278,41.9639247 40.9727085,41.9639247 40.8583991,41.9639247 L40.8583991,42.8714532 C40.8583991,43.0983354 40.8583991,43.2115825 40.7444798,43.3252175 L40.0597937,44.3459932 C40.173713,44.4592403 40.2880224,44.5728753 40.5162511,44.6861224 L40.5162511,44.6007992 L40.5162511,44.6861224 L41.5040717,43.0486928 C41.4595964,42.9614304 41.4287758,42.8745559 41.4287758,42.7578183 C41.3148565,42.417689 41.2005471,42.0775597 41.2005471,41.8506776" id="Fill-23" fill="#FFFFFF" mask="url(#mask-2)"></path>
                        <path d="M44.0530157,32.5504494 C43.482639,32.6636966 43.0261816,32.7773316 42.5697242,33.0042137 L43.2544103,34.2518715 C43.5965583,34.1382365 43.9387063,34.0249894 44.2812444,33.9113544 L44.0530157,32.5504494 Z" id="Fill-24" fill="#FFFFFF" mask="url(#mask-2)"></path>
                        <path d="M45.8783771,33.7980297 L46.2209152,33.7980297 C46.4487538,33.7980297 46.6769825,33.9112768 46.9052112,33.9112768 L47.1334399,32.4371247 C46.7912919,32.3234897 46.4487538,32.3234897 45.9926865,32.3234897 L45.6501484,32.3234897 L45.8783771,33.7980297 Z" id="Fill-25" fill="#FFFFFF" mask="url(#mask-2)"></path>
                        <path d="M40.9727085,37.8810935 C40.4019417,38.7882342 40.0597937,39.5825156 39.9458744,40.3764091 C40.173713,40.3764091 40.5162511,40.4896563 41.3148565,40.2627741 L41.3148565,39.3556335 C41.3148565,39.1287513 41.4287758,38.9018692 41.6570045,38.7882342 L45.8782601,35.8395422 C46.1064888,35.7262951 46.5629462,35.7262951 46.7911749,35.9527894 C48.7309238,37.7678464 50.6698924,38.7882342 50.6698924,38.7882342 L50.7842018,38.9018692 L51.3545785,39.3556335 C50.5559731,36.5201886 48.2744664,35.7262951 48.2744664,35.7262951 C47.4754709,35.4994129 46.7911749,35.3857779 45.9925695,35.2725308 C44.0532108,35.1588958 42.1134619,36.1796715 40.9727085,37.8810935" id="Fill-26" fill="#FFFFFF" mask="url(#mask-2)"></path>
                        <path d="M31.9594305,19.7343627 L31.9594305,22.1164312 L31.9594305,23.3637011 C32.1876592,22.7966897 32.5298072,22.2296783 32.6441166,21.7759141 C32.8723453,20.9820205 32.9862646,20.188127 32.9862646,19.5078684 C32.9862646,18.4867049 32.8723453,17.8064464 32.7580359,17.4659293 C32.4158879,17.0125529 32.0733498,16.7856707 31.9594305,16.8989179 L31.9594305,19.7343627 Z" id="Fill-27" fill="#FFFFFF" mask="url(#mask-2)"></path>
                        <path d="M46.1065668,30.8493376 L46.9051722,30.8493376 L46.4487148,28.8077863 L45.7644188,30.7360905 C45.8783381,30.7360905 45.8783381,30.7360905 45.9926475,30.8493376 L46.1065668,30.8493376 Z" id="Fill-28" fill="#FFFFFF" mask="url(#mask-2)"></path>
                        <path d="M40.2881004,63.9667985 C37.8918942,65.6682205 34.5835534,67.9362662 33.6710287,68.6169125 L32.9863426,73.0401445 L40.2881004,63.9667985 Z" id="Fill-29" fill="#FFFFFF" mask="url(#mask-2)"></path>
                        <path d="M48.6165363,43.7786715 C49.5294511,42.7578958 49.6433704,40.9432266 49.4151417,40.0360859 C48.844765,39.5823217 47.4753928,38.7884281 45.9924915,37.5407703 L42.5698413,39.922451 C42.5698413,40.7163445 42.5698413,42.6446487 43.5966753,43.7786715 C44.167052,44.4593179 44.9656574,44.7994471 46.1064108,44.7994471 C47.2475543,44.7994471 48.0461596,44.4593179 48.6165363,43.7786715" id="Fill-30" fill="#FFFFFF" mask="url(#mask-2)"></path>
                        <path d="M44.0530157,45.9335475 L44.0530157,47.2944525 C44.5094731,47.7482167 45.9927646,48.8826274 47.7035045,49.3360038 L47.7035045,46.0467947 C47.2474372,46.1604297 46.6770605,46.2736768 46.1066839,46.2736768 C45.3080785,46.2736768 44.6233924,46.1604297 44.0530157,45.9335475" id="Fill-31" fill="#FFFFFF" mask="url(#mask-2)"></path>
                        <path d="M53.864704,58.6361932 L53.7503946,54.2129612 C53.2943274,54.4398433 52.83787,54.5534783 52.2674933,54.5534783 L51.8110359,54.5534783 C51.5828072,54.6667255 51.2402691,55.0068548 50.8981211,55.3473719 L50.4420538,68.5034327 C51.8110359,66.9156456 53.1800179,64.9873414 53.0660987,63.9669536 C53.0660987,63.2863072 52.9517892,62.832543 52.83787,62.3787787 C52.4953318,61.1315087 52.2674933,59.9970981 53.864704,58.6361932" id="Fill-32" fill="#FFFFFF" mask="url(#mask-2)"></path>
                        <path d="M49.7576018,33.3444981 C49.4150637,33.117616 49.0729157,32.8907338 48.6164583,32.7774867 L48.3882296,34.2516388 C48.6164583,34.2516388 48.7307677,34.3652738 48.844687,34.3652738 C48.844687,34.3652738 48.9586063,34.3652738 49.186835,34.4785209 L49.7576018,33.3444981 Z" id="Fill-33" fill="#FFFFFF" mask="url(#mask-2)"></path>
                        <path d="M49.9854404,53.9861954 C49.5293731,53.7593133 49.3011444,53.419184 49.0729157,53.1923019 C41.0864717,57.0485224 31.5032072,62.3788951 30.2481444,65.1010928 C30.3624538,66.1218684 30.7046018,67.4827734 31.2749785,67.8229027 C31.6171265,67.9365376 32.1875031,67.7096555 32.5300413,67.4827734 C32.75827,67.2558913 39.8317991,62.3788951 41.7711578,61.1312373 C43.1401399,60.3373437 47.3613955,56.481511 49.9854404,53.9861954" id="Fill-34" fill="#FFFFFF" mask="url(#mask-2)"></path>
                        <polygon id="Fill-35" fill="#FFFFFF" mask="url(#mask-2)" points="58.5424951 64.533965 59.7975578 63.2863072 58.199957 61.471638"></polygon>
                        <path d="M67.4413076,70.9985544 C67.555617,70.9985544 67.6695363,70.9985544 67.7834556,70.8853072 C67.897765,70.7720601 67.897765,70.6584251 67.897765,70.6584251 C67.897765,70.6584251 67.897765,70.5451779 67.7834556,70.431543 L66.1862448,69.070638 C66.0723256,68.957003 65.9580161,68.957003 65.9580161,68.957003 C65.8440969,68.957003 65.8440969,68.957003 65.7297874,69.070638 C65.6158682,69.1838852 65.6158682,69.2975202 65.6158682,69.2975202 C65.6158682,69.4107673 65.6158682,69.4107673 65.7297874,69.5244023 L66.5283928,70.2046608 L67.3273883,70.8853072 L67.4413076,70.9985544 Z" id="Fill-36" fill="#FFFFFF" mask="url(#mask-2)"></path>
                        <path d="M63.1060157,72.4729779 C62.9917063,72.4729779 62.9917063,72.4729779 62.877787,72.5862251 C62.7634776,72.6998601 62.7634776,72.9267422 62.877787,73.0399894 L64.4749978,74.2876471 C64.7032265,74.5145293 64.8175359,74.4012821 64.9314552,74.2876471 C65.0453744,74.1744 65.0453744,74.060765 65.0453744,74.060765 C65.0453744,73.9475179 65.0453744,73.9475179 64.9314552,73.8338829 L63.3342444,72.5862251 C63.219935,72.4729779 63.1060157,72.4729779 63.1060157,72.4729779" id="Fill-37" fill="#FFFFFF" mask="url(#mask-2)"></path>
                        <path d="M69.26663,69.2974426 C69.3809395,69.1841954 69.3809395,69.0705605 69.3809395,69.0705605 C69.3809395,68.9573133 69.3809395,68.9573133 69.26663,68.8436783 L67.6694193,67.4827734 C67.5551099,67.3691384 67.4411906,67.3691384 67.4411906,67.3691384 C67.3272713,67.3691384 67.3272713,67.3691384 67.2129619,67.4827734 C67.0990426,67.5960205 67.0990426,67.8229027 67.2129619,67.9365376 L68.8101726,69.2974426 C69.0384013,69.5239369 69.1527108,69.4106897 69.26663,69.2974426" id="Fill-38" fill="#FFFFFF" mask="url(#mask-2)"></path>
                        <path d="M70.2933861,66.1216745 L63.5623951,61.2446783 L58.6564534,66.3485567 L59.6832874,74.6280091 L61.2801081,75.6487848 L62.4212516,74.514762 L61.8508749,74.0609977 C61.0522695,73.3803513 60.8244309,72.2463285 61.5083368,71.452435 C61.7365655,71.1119179 62.1930229,70.8850357 62.6494803,70.7717886 C62.6494803,70.4316593 62.7633996,70.0911422 62.9916283,69.7510129 C63.3341664,69.5241308 63.6763143,69.2972487 64.0184623,69.1840015 C64.0184623,68.7302373 64.246691,68.390108 64.4749197,68.0499787 C64.8174578,67.7094616 65.1596058,67.5962144 65.5017538,67.4825795 C65.5017538,67.1424502 65.7299825,66.8023209 65.9582112,66.4618038 C66.6428973,65.6682981 67.7832605,65.5546631 68.5822561,66.2349217 L69.6090901,67.1424502 L70.2933861,66.1216745 Z" id="Fill-39" fill="#FFFFFF" mask="url(#mask-2)"></path>
                        <path d="M66.5284318,72.4729779 C66.6427413,72.3597308 66.6427413,72.2460958 66.6427413,72.2460958 L66.5947547,72.2460958 L66.6427413,72.2460958 C66.6427413,72.1328487 66.5284318,72.1328487 66.5284318,72.1328487 L65.7298265,71.4522023 L64.9312211,70.7719437 C64.8173018,70.6583087 64.7029924,70.6583087 64.7029924,70.6583087 C64.5890731,70.6583087 64.5890731,70.6583087 64.4747637,70.7719437 C64.3608444,70.8851909 64.3608444,70.998438 64.3608444,70.998438 C64.3608444,71.112073 64.3608444,71.112073 64.4747637,71.2253202 L66.0723646,72.4729779 C66.3005933,72.6998601 66.4145126,72.5862251 66.5284318,72.4729779" id="Fill-40" fill="#FFFFFF" mask="url(#mask-2)"></path>
                        <path d="M56.1464448,56.3679148 C56.0325256,55.6876563 55.8042969,55.120257 55.3478395,54.5532456 L55.5760682,58.9764776 C55.5760682,59.3169947 55.4617587,59.543489 55.23353,59.6567361 C54.0927767,60.4510175 54.206696,60.9043939 54.4349247,62.0388046 C54.5492341,62.605816 54.6631534,63.1728274 54.6631534,63.8534738 C54.6631534,64.0803559 54.5492341,64.307238 54.5492341,64.5341202 L56.9450502,88.4645612 C56.9450502,88.6914433 56.8311309,89.0319605 56.6029022,89.1452076 L56.0325256,89.5989719 L60.1394717,90.5061125 L56.1464448,56.3679148 Z" id="Fill-41" fill="#FFFFFF" mask="url(#mask-2)"></path>
                        <polygon id="Fill-42" fill="#FFFFFF" mask="url(#mask-2)" points="53.0661377 36.179709 53.0661377 36.4064331 53.6365143 36.0665407"></polygon>
                        <path d="M57.0592816,91.3001224 L57.5153489,97.8781529 C57.9718063,97.7649057 58.4282637,97.5380236 59.1129498,97.3111414 C58.7704117,94.7025787 58.4282637,92.5477802 58.3143444,91.5270046 L57.0592816,91.3001224 Z" id="Fill-43" fill="#FFFFFF" mask="url(#mask-2)"></path>
                        <path d="M60.0253184,76.7828852 L60.3678565,79.8452122 C61.3946906,79.1645658 61.7368386,78.1437901 61.9650673,77.3498966 C61.851148,77.4631437 61.6229193,77.5767787 61.5086099,77.5767787 C61.2803812,77.5767787 61.1664619,77.5767787 61.0525426,77.4631437 L60.0253184,76.7828852 Z" id="Fill-44" fill="#FFFFFF" mask="url(#mask-2)"></path>
                        <path d="M70.7498045,39.5823992 C69.9511991,39.6956464 69.3808224,40.0357757 69.0382843,40.7164221 C68.8100556,41.0565513 68.3539883,41.1701863 68.0114502,41.0565513 C68.0114502,41.0565513 67.6693022,40.9433042 67.213235,40.9433042 C66.7567776,40.9433042 66.1864009,41.1701863 65.8442529,41.5103156 C65.8442529,41.5103156 65.2734861,41.9640798 65.2734861,42.7579734 C65.2734861,43.2117376 64.9313381,43.4382319 64.5891901,43.5518669 C64.4748807,43.6651141 63.4480466,43.8919962 63.5623561,45.253289 C63.5623561,46.6141939 64.9313381,46.7274411 65.1595668,46.7274411 L73.4881587,46.7274411 C73.6024682,46.7274411 75.0849794,46.6141939 75.4275175,45.253289 C75.4275175,45.139654 75.4275175,45.139654 75.5414368,45.0264068 C75.5414368,44.0056312 75.0849794,43.4382319 74.0581453,43.3249848 C73.8303067,43.3249848 73.6024682,43.2117376 73.4881587,42.9848555 C73.3742395,42.7579734 73.25993,42.5310913 73.3742395,42.3042091 C73.3742395,42.3042091 73.8303067,40.830057 72.6895534,40.0357757 C72.1191767,39.6956464 71.4344906,39.4691521 70.7498045,39.5823992" id="Fill-45" fill="#FFFFFF" mask="url(#mask-2)"></path>
                        <path d="M59.7974798,91.9805361 C59.7974798,92.3206654 59.9108819,92.6611825 59.9108819,93.0013118 C60.0242839,92.6611825 60.1380743,92.3206654 60.2514764,92.0937833 L59.7974798,91.9805361 Z" id="Fill-46" fill="#FFFFFF" mask="url(#mask-2)"></path>
                        <path d="M50.3279395,98.6721627 C50.3279395,99.012292 50.21363,99.3528091 50.0997108,99.6929384 C50.5561682,99.5793034 51.0126256,99.4660563 51.5830022,99.3528091 C51.8112309,96.8574935 51.9251502,94.3625658 52.0394596,92.5475087 L50.3279395,93.9088015 L50.3279395,98.6721627 Z" id="Fill-47" fill="#FFFFFF" mask="url(#mask-2)"></path>
                        <polygon id="Fill-48" fill="#FFFFFF" mask="url(#mask-2)" points="31.0467888 12.3623224 32.1875422 12.3623224 32.1875422 10.5476532 25.4565511 10.5476532 25.4565511 12.3623224 26.8255332 12.3623224"></polygon>
                        <path d="M17.4701462,62.6057772 C18.0405229,62.0387658 18.2687516,61.2448722 18.2687516,60.3373437 C18.1544422,58.0692981 15.8729354,57.842416 15.758626,57.842416 C15.416478,57.728781 15.1882493,57.5018989 15.07433,57.1617696 C14.6178726,55.0069711 12.9067426,54.2130776 12.9067426,54.2130776 C12.3359758,53.9861954 11.8795184,53.8725605 11.3091417,53.8725605 C9.36978296,53.8725605 8.45686816,55.8008646 8.45686816,55.9141118 C8.34294888,56.2546289 8.0008009,56.367876 7.65865291,56.367876 C4.80637937,56.0277468 4.46384126,58.6363095 4.46384126,58.7495567 C4.46384126,59.0900738 4.12169327,59.430203 3.66523587,59.430203 C1.72587713,59.430203 1.49764843,61.1312373 1.49764843,61.3581194 C1.49764843,61.9255186 1.72587713,62.3788951 2.29625381,62.8326593 C2.86663049,63.2860357 3.55131659,63.5129179 4.34992197,63.5129179 L15.6447067,63.5129179 C15.8729354,63.5129179 16.7854601,63.2860357 17.4701462,62.6057772" id="Fill-49" fill="#FFFFFF" mask="url(#mask-2)"></path>
                        <path d="M54.6632314,90.846397 L54.4350027,90.846397 L53.6363973,91.4134084 L53.2942493,91.6402905 L53.522478,91.5270433 L53.1799399,99.1258494 C53.6363973,99.0126023 54.206774,98.8989673 54.6632314,98.7857202 C55.1196888,98.6720852 55.5761462,98.558838 56.0326036,98.3319559 L55.4618368,90.9596441 L54.6632314,90.846397 Z" id="Fill-50" fill="#FFFFFF" mask="url(#mask-2)"></path>
                        <path d="M31.1608641,27.7870106 L31.0469448,26.87987 C30.9326354,26.1992236 31.0469448,25.5185772 31.1608641,24.9515658 C31.0469448,25.1784479 30.8187161,25.2916951 30.5904874,25.2916951 L28.9932767,25.2916951 L29.107196,25.5185772 C29.2215054,25.7454593 29.2215054,25.8590943 29.2215054,26.0855886 C29.2215054,26.1992236 28.4225099,37.4273681 29.5636534,44.3459156 C29.6775726,44.912927 29.9058013,45.3666913 30.13403,45.7068205 C30.9326354,44.799292 31.8451601,43.4383871 32.7580749,42.0774821 L32.6441556,38.788273 C32.4159269,35.0456875 31.6173215,30.1686913 31.1608641,27.7870106" id="Fill-51" fill="#FFFFFF" mask="url(#mask-2)"></path>
                        <path d="M32.6440776,93.0014281 L47.7036605,77.2364167 L48.7304946,70.4315042 L49.3012614,56.8216791 C48.0461987,57.9557019 46.4485978,59.3166068 45.193535,60.4510175 L31.3890148,77.5769338 L33.2144543,83.4743179 L33.2144543,83.7012 L32.6440776,93.0014281 Z" id="Fill-52" fill="#FFFFFF" mask="url(#mask-2)"></path>
                        <path d="M27.2818345,9.07334601 L30.9327135,9.07334601 C31.8452381,8.61958175 32.4160049,8.05257034 32.6442336,7.25867681 C32.7581529,6.57803042 32.7581529,5.89777186 32.6442336,5.4440076 C32.0734668,6.12426616 31.7313188,6.46478327 31.7313188,6.46478327 C31.5030901,6.80491255 31.0466327,6.80491255 30.7044848,6.57803042 C30.3623368,6.35114829 30.3623368,5.89777186 30.5901753,5.55764259 C30.9327135,5.10387833 30.5901753,3.85622053 30.1341081,2.60856274 C29.5637314,4.08310266 29.3355027,5.4440076 29.3355027,5.4440076 C29.2215834,5.78452471 28.8790453,6.12426616 28.4225879,6.01101901 C27.9665206,5.89777186 27.6239825,5.55764259 27.7382919,5.10387833 C27.8522112,4.65011407 27.7382919,4.19634981 27.5100632,3.85622053 C27.2818345,4.53686692 27.0536058,4.99024335 26.9396865,5.21712548 C25.798543,7.25867681 26.7114578,8.61958175 27.2818345,9.07334601" id="Fill-53" fill="#FFFFFF" mask="url(#mask-2)"></path>
                        <path d="M33.6708336,94.2490084 C33.5569143,94.7023848 33.2143762,96.2905597 32.8722283,98.3317232 C34.3551296,98.7854875 35.8384211,99.1260046 37.3217126,99.3528867 C38.3485466,96.4038068 39.6036094,91.6404456 40.7443628,86.7634494 L33.6708336,94.2490084 Z" id="Fill-54" fill="#FFFFFF" mask="url(#mask-2)"></path>
                        <path d="M53.180057,67.2558137 C52.1532229,68.8436008 50.7842408,70.3181407 50.213474,70.8851521 L46.6769045,94.7027338 L55.2337251,88.2379506 L53.180057,67.2558137 Z" id="Fill-55" fill="#FFFFFF" mask="url(#mask-2)"></path>
                        <path d="M29.3353466,22.116276 L28.0802839,22.116276 L28.0802839,23.3639338 L28.0802839,23.9309452 L29.5635753,23.9309452 L29.791804,23.9309452 L30.2482614,23.9309452 L30.2482614,21.8893939 C30.0200327,22.0030289 29.791804,22.116276 29.6774946,22.116276 L29.3353466,22.116276 Z" id="Fill-56" fill="#FFFFFF" mask="url(#mask-2)"></path>
                        <path d="M48.7304556,97.878308 L48.7304556,95.1561103 L46.5628682,96.7442852 C46.7910969,97.1976616 47.4753928,97.7650608 48.7304556,97.878308" id="Fill-57" fill="#FFFFFF" mask="url(#mask-2)"></path>
                        <path d="M44.8515821,96.7441688 L44.8515821,96.4040395 L47.3617076,79.8451346 L42.9118332,84.4952487 C41.9993085,88.2378342 40.4020978,95.1563817 38.9188063,99.5796137 C40.8585552,99.919743 42.6836045,100.03299 44.6233534,100.03299 C45.7644969,100.03299 47.0195596,99.919743 48.1599229,99.919743 C48.2742323,99.8064958 48.3881516,99.5796137 48.502461,99.4663665 C46.1066448,99.2394844 45.0798108,97.6513095 44.8515821,96.7441688" id="Fill-58" fill="#FFFFFF" mask="url(#mask-2)"></path>
                        <path d="M53.0661377,36.4066312 L53.0661377,36.179749 L53.6365143,36.0665019 L53.0661377,36.4066312 Z M60.0916803,96.3562586 C59.977761,95.9024943 59.977761,95.44873 59.8634516,94.9953536 C61.2328238,93.2939316 61.4610525,91.2527681 61.4610525,91.1391331 L61.4610525,91.0258859 L60.2059897,81.1586464 C62.8296444,79.7973536 63.4000211,76.9619087 63.2861018,75.3745095 L63.4000211,75.2608745 C63.7425592,75.3745095 63.9707879,75.4877567 64.3129359,75.4877567 C64.8833126,75.4877567 65.4540794,75.2608745 65.7962274,74.8071103 C66.0244561,74.466981 66.1383753,74.1268517 66.1383753,73.7863346 C66.5948327,73.6730875 67.0512901,73.4462053 67.2795188,73.1056882 C67.5077475,72.7659468 67.6216668,72.4254297 67.6216668,72.0853004 C67.9642049,71.9716654 68.3059628,71.7447833 68.5341915,71.518289 C68.7624202,71.1777719 68.9906489,70.8376426 68.9906489,70.4971255 C69.3327969,70.3838783 69.675335,70.1569962 70.017483,69.9301141 C70.3596309,69.5899848 70.4739404,69.0229734 70.4739404,68.5692091 C70.4739404,68.342327 70.3596309,68.1154449 70.3596309,68.0021977 L71.8429224,66.4144106 C71.9572318,66.3011635 72.0711511,66.0742814 72.0711511,65.8473992 C72.0711511,65.6205171 71.9572318,65.393635 71.7290031,65.2803878 L63.7425592,59.4958631 C63.4004112,59.268981 62.9439538,59.268981 62.7157251,59.6094981 L60.5481377,61.8775437 L57.5815547,58.3618403 L57.2394067,55.9801597 C57.1254874,54.845749 56.5547206,53.8253612 55.7565054,53.0310798 L54.0449852,51.3300456 C53.7028372,50.9899163 53.3606892,50.7630342 53.0181511,50.5361521 C53.1324605,49.9691407 52.9042318,48.6078479 51.991317,45.3190266 C52.2195457,45.0921445 52.4477744,44.7520152 52.6760031,44.6383802 C52.9042318,44.4114981 53.1324605,44.0713688 52.7899224,40.8957947 C52.7899224,40.2151483 52.6760031,39.5345019 52.5616937,38.9678783 C52.6760031,38.7409962 52.7899224,38.4004791 52.7899224,38.0603498 L58.0380121,34.8847757 C58.3805502,34.6578935 58.4944695,34.3173764 58.3805502,33.9772471 C58.2662408,33.6371179 57.9240928,33.4102357 57.4676354,33.5234829 L52.2195457,34.6578935 C52.1056265,34.4310114 51.991317,34.2041293 51.8773978,33.9772471 L54.9579,28.7601217 C55.1861287,28.4199924 55.0718193,28.0798631 54.8435906,27.852981 C54.615752,27.6260989 54.1592946,27.6260989 53.8167565,27.852981 L49.0251242,31.4823194 C48.7968955,31.3686844 48.4547475,31.2554373 48.2265188,31.1418023 L46.9714561,25.9246768 C46.8575368,25.5845475 46.6293081,25.3576654 46.28677,25.3576654 C45.944622,25.3576654 45.602474,25.5845475 45.4881646,25.9246768 L43.7766444,31.0285551 C43.2066578,31.1418023 42.6362812,31.2554373 42.1798238,31.4823194 L37.61603,27.2855817 C37.3878013,27.0586996 36.9317341,27.0586996 36.5895861,27.2855817 C36.247048,27.5124639 36.247048,27.852981 36.3613574,28.1931103 L38.9850121,33.6371179 C38.6428641,33.9772471 38.4146354,34.2041293 38.1864067,34.5442586 L33.5090839,33.4102357 C33.1665457,31.2554373 32.8243978,29.3275209 32.5961691,28.0798631 L32.4822498,27.1723346 C32.2540211,25.9246768 32.8243978,24.790654 32.8243978,24.790654 C33.6230031,23.6566312 33.9655413,22.5222205 34.1933798,21.5014449 C37.5017206,20.5943042 40.924761,20.1405399 44.4613305,20.1405399 C66.7091422,20.1405399 84.7353081,38.173597 84.7353081,60.1765095 C84.5070794,76.0547681 74.4669673,90.2319924 60.0916803,96.3562586 Z M59.7975188,91.9803422 L60.2535861,92.0939772 C60.1396668,92.3208593 60.0253574,92.6609886 59.9114381,93.0015057 C59.9114381,92.6609886 59.7975188,92.3208593 59.7975188,91.9803422 Z M58.5424561,64.5338099 L58.1999179,61.4714829 L59.7975188,63.2865399 L58.5424561,64.5338099 Z M61.9651063,77.3497414 C61.7368776,78.1440228 61.3947296,79.1647985 60.3678955,79.845057 L60.0253574,76.78273 L61.0525816,77.4633764 C61.1665009,77.5766236 61.2804202,77.5766236 61.5086489,77.5766236 C61.6229583,77.5766236 61.851187,77.4633764 61.9651063,77.3497414 Z M68.582178,66.2352319 C67.7835726,65.5545856 66.6428193,65.6682205 65.9581332,66.4621141 C65.7299045,66.8022433 65.5016758,67.1423726 65.5016758,67.4825019 C65.1595278,67.5961369 64.8173798,67.709384 64.4748417,68.0499011 C64.246613,68.3900304 64.0183843,68.7301597 64.0183843,69.183924 C63.6762363,69.2975589 63.3340883,69.5244411 62.9915502,69.7509354 C62.7633215,70.0914525 62.6494022,70.4315817 62.6494022,70.771711 C62.193335,70.8849582 61.7368776,71.1118403 61.5086489,71.4523574 C60.8243529,72.246251 61.0525816,73.3802738 61.851187,74.0609202 L62.4211735,74.5146844 L61.2804202,75.6487072 L59.6832094,74.6279316 L58.6563753,66.3484791 L63.562317,61.2446008 L70.2933081,66.121597 L69.6090121,67.1423726 L68.582178,66.2352319 Z M67.213196,67.9362662 C67.0992767,67.823019 67.0992767,67.5961369 67.213196,67.4825019 C67.3275054,67.3692548 67.3275054,67.3692548 67.4414247,67.3692548 C67.4414247,67.3692548 67.5553439,67.3692548 67.6696534,67.4825019 L69.266474,68.8437947 C69.3807834,68.9570418 69.3807834,68.9570418 69.3807834,69.0706768 C69.3807834,69.0706768 69.3807834,69.183924 69.266474,69.2975589 C69.1525547,69.4108061 69.0382453,69.5240532 68.8100166,69.2975589 L67.213196,67.9362662 Z M66.5285099,70.2046996 L65.7299045,69.5244411 C65.6159852,69.4108061 65.6159852,69.4108061 65.6159852,69.2975589 C65.6159852,69.2975589 65.6159852,69.183924 65.7299045,69.0706768 C65.8442139,68.9570418 65.8442139,68.9570418 65.9581332,68.9570418 C65.9581332,68.9570418 66.0724426,68.9570418 66.1863619,69.0706768 L67.7835726,70.4315817 C67.8978821,70.5448289 67.8978821,70.6584639 67.8978821,70.6584639 C67.8978821,70.6584639 67.8978821,70.771711 67.7835726,70.8849582 C67.6696534,70.9985932 67.5557341,70.9985932 67.4414247,70.9985932 L67.3275054,70.8849582 L66.5285099,70.2046996 Z M65.0452184,74.0609202 C65.0452184,74.0609202 65.0452184,74.1741673 64.9312991,74.2878023 C64.8173798,74.4010494 64.7030704,74.5142966 64.4748417,74.2878023 L62.8776309,73.0401445 C62.7633215,72.9268973 62.7633215,72.7000152 62.8776309,72.5863802 C62.9915502,72.4731331 62.9915502,72.4731331 63.1058596,72.4731331 C63.1058596,72.4731331 63.2197789,72.4731331 63.3340883,72.5863802 L64.9312991,73.834038 C65.0452184,73.9472852 65.0452184,73.9472852 65.0452184,74.0609202 Z M64.4748417,71.2254753 C64.3609224,71.1118403 64.3609224,71.1118403 64.3609224,70.9985932 C64.3609224,70.9985932 64.3609224,70.8849582 64.4748417,70.771711 C64.5891511,70.6584639 64.5891511,70.6584639 64.7030704,70.6584639 C64.7030704,70.6584639 64.8173798,70.6584639 64.9312991,70.771711 L65.7299045,71.4523574 L66.5285099,72.132616 C66.5285099,72.132616 66.6428193,72.132616 66.6428193,72.246251 C66.6428193,72.246251 66.6428193,72.3594981 66.5285099,72.4731331 C66.4145906,72.5863802 66.3006713,72.7000152 66.0724426,72.4731331 L64.4748417,71.2254753 Z M56.0327206,89.5986616 L56.6027072,89.1452852 C56.8309359,89.0316502 56.9448552,88.6915209 56.9448552,88.4646388 L54.5494291,64.5338099 C54.5494291,64.3069278 54.6633484,64.0800456 54.6633484,63.8535513 C54.6633484,63.1729049 54.5494291,62.6058935 54.4351197,62.0388821 C54.206891,60.9044715 54.0929717,60.4510951 55.2337251,59.6568137 C55.4619538,59.5435665 55.5762632,59.3166844 55.5762632,58.9765551 L55.3480345,54.5533232 C55.8044919,55.1203346 56.0327206,55.687346 56.1466399,56.3679924 L60.1396668,90.5061901 L56.0327206,89.5986616 Z M57.5152318,97.8781141 L57.0591646,91.3000837 L58.3142274,91.5269658 C58.4281466,92.5477414 58.7702946,94.7025399 59.1128327,97.3111027 C58.4281466,97.5379848 57.9716892,97.7648669 57.5152318,97.8781141 Z M54.6633484,98.7856426 C54.206891,98.8988897 53.6365143,99.0125247 53.180057,99.1257719 L53.5225951,91.5269658 L53.2943664,91.6406008 L53.6365143,91.4137186 L54.4351197,90.8463194 L54.6633484,90.8463194 L55.4619538,90.9599544 L56.0327206,98.3318783 C55.5762632,98.5587605 55.1198058,98.6720076 54.6633484,98.7856426 Z M46.6769045,94.7025399 L50.213474,70.8849582 C50.7842408,70.3179468 52.1532229,68.8437947 53.180057,67.2556198 L55.2337251,88.2381445 L46.6769045,94.7025399 Z M51.5828462,99.352654 C51.0124695,99.4659011 50.5560121,99.5795361 50.0995547,99.6927833 C50.213474,99.352654 50.3277834,99.0125247 50.3277834,98.6720076 L50.3277834,93.9086464 L52.0393036,92.5477414 C51.9249942,94.3624106 51.8110749,96.8577262 51.5828462,99.352654 Z M48.7305726,97.8781141 C47.4755099,97.7648669 46.7912139,97.1978555 46.5629852,96.7440913 L48.7305726,95.1563042 L48.7305726,97.8781141 Z M48.160196,99.9196654 C47.0194426,99.9196654 45.7643798,100.0333 44.6232363,100.0333 C42.6838776,100.0333 40.8584381,99.9196654 38.9186892,99.5795361 C40.4019807,95.1563042 41.9995816,88.2377567 42.9121063,84.4951711 L47.3615906,79.845057 L44.851465,96.403962 L44.851465,96.7440913 C45.0796937,97.6516198 46.1065278,99.2394068 48.5027341,99.466289 C48.3884247,99.5795361 48.2745054,99.8064183 48.160196,99.9196654 Z M37.3218686,99.352654 C35.8385771,99.1257719 34.3552857,98.7856426 32.8723843,98.3318783 C33.2145323,96.290327 33.5566803,94.7025399 33.6709897,94.2491635 L40.7445188,86.7636046 C39.6033753,91.6406008 38.3483126,96.403962 37.3218686,99.352654 Z M31.3890928,77.5766236 L45.193613,60.4510951 C46.4486758,59.3166844 48.0462767,57.9557795 49.3013395,56.8217567 L48.7305726,70.4315817 L47.7037386,77.2364943 L32.6441556,93.0015057 L33.2145323,83.7012776 L33.2145323,83.4743954 L31.3890928,77.5766236 Z M31.5030121,97.8781141 C17.1277251,92.8878707 6.51762646,80.2988213 4.57787758,64.9875741 L15.6448238,64.9875741 C16.4434291,64.9875741 17.5841825,64.5338099 18.4970973,63.6266692 C19.409622,62.7191407 19.8660794,61.5851179 19.75177,60.2242129 C19.6378507,57.7288973 17.8124112,56.7081217 16.4434291,56.3679924 C15.758743,53.8726768 13.5911556,52.8519011 13.4768462,52.8519011 C12.6786309,52.5117719 11.8796354,52.3981369 11.1953395,52.3981369 C8.9134426,52.3981369 7.65837982,53.9863118 7.20192242,54.8934525 C5.94724978,54.8934525 5.03433498,55.2335817 4.4639583,55.8005932 C5.94724978,41.9642738 14.5036803,30.16873 26.4831511,24.157711 L26.4831511,24.7247224 C26.4831511,24.9516046 26.5974605,25.0648517 26.5974605,25.1784867 L27.5099852,26.3125095 C27.3960659,27.9002966 26.9396085,35.8396198 27.5099852,42.1907681 C27.1678372,43.0982966 24.7720211,48.5423042 27.8525233,50.4702205 C28.0803619,50.5838555 28.3085906,50.6971027 28.5368193,50.8103498 L28.1946713,52.738654 C28.1946713,52.9655361 28.1946713,53.1924183 28.3085906,53.4189125 L30.8187161,56.3679924 L29.7918821,58.1826616 C29.6775726,58.4091559 29.6775726,58.636038 29.7918821,58.8629202 L30.4765682,60.6779772 C30.4765682,60.6779772 30.4765682,60.7912243 30.5904874,60.7912243 L31.3890928,61.812 C30.13403,62.9460228 29.107196,63.9667985 28.8789673,64.8739392 L28.8789673,65.1008213 C28.8789673,65.4413384 28.9932767,68.3900304 30.7044067,69.2975589 C30.9326354,69.4108061 31.2751735,69.5240532 31.7312408,69.5240532 L32.0733888,69.5240532 L31.1608641,75.6487072 L30.0201108,77.0096122 C29.7918821,77.1228593 29.6775726,77.3497414 29.7918821,77.5766236 L31.6173215,83.7012776 L31.0469448,94.9294221 C31.0469448,95.2695513 31.1608641,95.4964335 31.5030121,95.7233156 C31.6173215,95.7233156 31.7312408,95.8365627 31.8451601,95.8365627 C31.7312408,96.403962 31.6173215,97.0842205 31.5030121,97.8781141 Z M2.29637085,62.8327757 C1.72560404,62.3790114 1.49776547,61.9252471 1.49776547,61.3582357 C1.49776547,61.1313536 1.72560404,59.4303194 3.66535291,59.4303194 C4.12181031,59.4303194 4.4639583,59.0898023 4.4639583,58.749673 C4.4639583,58.636038 4.80610628,56.0274753 7.65837982,56.3679924 C8.0005278,56.3679924 8.34306592,56.2543574 8.4569852,55.9142281 C8.4569852,55.800981 9.3699,53.8726768 11.3092587,53.8726768 C11.8796354,53.8726768 12.3360928,53.9863118 12.9064695,54.2131939 C12.9064695,54.2131939 14.6179897,55.0066996 15.0744471,57.1618859 C15.1883664,57.5020152 15.4165951,57.7288973 15.758743,57.8425323 C15.8730525,57.8425323 18.1545592,58.0690266 18.2688686,60.3374601 C18.2688686,61.2446008 18.0406399,62.0384943 17.4702632,62.6058935 C16.7855771,63.2861521 15.8730525,63.5130342 15.6448238,63.5130342 L4.34964888,63.5130342 C3.55143363,63.5130342 2.86674753,63.2861521 2.29637085,62.8327757 Z M25.456317,12.3621673 L25.456317,10.5478859 L32.1876982,10.5478859 L32.1876982,12.3621673 L31.0469448,12.3621673 L26.8252991,12.3621673 L25.456317,12.3621673 Z M26.9396085,5.21712548 C27.0535278,4.99024335 27.2817565,4.53686692 27.5099852,3.85622053 C27.7382139,4.19634981 27.8525233,4.65011407 27.7382139,5.10387833 C27.6242946,5.55764259 27.9664426,5.89777186 28.4225099,6.01101901 C28.8789673,6.12426616 29.2215054,5.78413688 29.3354247,5.4440076 C29.3354247,5.4440076 29.5636534,4.08310266 30.13403,2.60856274 C30.5904874,3.85622053 30.9326354,5.10387833 30.5904874,5.55764259 C30.3622587,5.89777186 30.3622587,6.35114829 30.7044067,6.57803042 C31.0469448,6.80491255 31.5030121,6.80491255 31.7312408,6.46478327 C31.7312408,6.46478327 32.0733888,6.12426616 32.6441556,5.4440076 C32.7580749,5.89777186 32.7580749,6.57803042 32.6441556,7.25867681 C32.4159269,8.05257034 31.8451601,8.61958175 30.9326354,9.07334601 L27.2817565,9.07334601 C26.7113798,8.61958175 25.798465,7.25867681 26.9396085,5.21712548 Z M30.13403,45.7068593 C29.9058013,45.36673 29.6775726,44.9129658 29.5636534,44.3459544 C28.4225099,37.4274068 29.2215054,26.1992624 29.2215054,26.0856274 C29.2215054,25.8591331 29.2215054,25.7454981 29.107196,25.518616 L28.9932767,25.2917338 L30.5904874,25.2917338 C30.8187161,25.2917338 31.0469448,25.1784867 31.1608641,24.9516046 C31.0469448,25.518616 30.9326354,26.1992624 31.0469448,26.8799087 L31.1608641,27.7870494 C31.6173215,30.16873 32.4159269,35.0457262 32.6441556,38.7883118 L32.7580749,42.0775209 C31.8451601,43.4384259 30.9326354,44.7993308 30.13403,45.7068593 Z M30.2483395,21.8892776 L30.2483395,23.9308289 L29.7918821,23.9308289 L29.5636534,23.9308289 L28.0803619,23.9308289 L28.0803619,23.3638175 L28.0803619,22.1161597 L29.3354247,22.1161597 L29.6775726,22.1161597 C29.7918821,22.1161597 30.0201108,22.0029125 30.2483395,21.8892776 Z M27.3960659,19.9613612 L28.4225099,19.9613612 L29.4493439,19.9613612 L29.5636534,19.9613612 L29.6775726,19.9613612 C29.7918821,19.9613612 29.9058013,20.0746084 29.9058013,20.1882433 C29.9058013,20.3014905 29.7918821,20.5283726 29.5636534,20.5283726 L27.5099852,20.5283726 C27.3960659,20.5283726 27.1678372,20.4151255 27.1678372,20.1882433 C27.0535278,20.0746084 27.1678372,19.9613612 27.3960659,19.9613612 Z M27.3960659,17.8065627 L29.4493439,17.9198099 C29.5636534,17.9198099 29.7918821,18.033057 29.7918821,18.2599392 C29.7918821,18.3735741 29.6775726,18.4868213 29.5636534,18.4868213 L29.4493439,18.4868213 L28.4225099,18.4868213 L27.3960659,18.4868213 C27.2817565,18.4868213 27.0535278,18.3735741 27.0535278,18.146692 C27.0535278,17.9198099 27.1678372,17.8065627 27.3960659,17.8065627 Z M27.7382139,14.0635894 L27.7382139,13.9503422 L30.3622587,13.9503422 L30.3622587,14.2904715 L30.3622587,14.4041065 C30.13403,14.2904715 29.9058013,14.1772243 29.5636534,14.1772243 L27.7382139,14.0635894 Z M29.4493439,15.7650114 C29.5636534,15.7650114 29.6775726,15.8782586 29.6775726,15.8782586 C29.6775726,15.8782586 29.7918821,15.8782586 29.7918821,15.9915057 C29.7918821,16.1051407 29.6775726,16.3320228 29.4493439,16.3320228 L27.3960659,16.2183878 C27.2817565,16.2183878 27.0535278,16.1051407 27.0535278,15.8782586 C27.1678372,15.7650114 27.2817565,15.6513764 27.3960659,15.6513764 L29.4493439,15.7650114 Z M29.7918821,52.625019 L30.2483395,50.9239848 C31.5030121,50.6971027 32.7580749,49.7895741 33.8992184,48.8824335 L31.6173215,54.7802053 L29.7918821,52.625019 Z M35.4964291,40.4897338 C35.8385771,41.2836274 35.9528865,42.304403 35.9528865,42.8714144 C35.9528865,43.0982966 36.0668058,43.3251787 36.2950345,43.4384259 C36.5232632,43.551673 40.2880614,46.2738707 42.798187,48.2021749 C43.140335,48.5423042 45.6500704,50.8107376 48.5027341,51.0372319 C48.8448821,51.0372319 49.3013395,51.0372319 49.7577969,51.1508669 C45.6500704,53.0787833 37.436178,57.1618859 32.5298462,60.7912243 L31.8451601,59.8836958 L31.2751735,58.5227909 L32.4159269,56.5948745 L32.5298462,56.4812395 L35.2682004,49.2225627 C35.3821197,48.8824335 35.2682004,48.4286692 34.811743,48.2021749 L34.3552857,48.2021749 C35.153891,47.4078935 35.7246578,46.614 35.9528865,46.3871179 C36.1811152,46.0469886 36.1811152,45.5932243 35.8385771,45.36673 C35.4964291,45.1398479 35.0399717,45.1398479 34.811743,45.4799772 C33.784909,46.8408821 30.5904874,50.3569734 28.765048,49.2225627 C27.7382139,48.5423042 27.7382139,46.9545171 28.0803619,45.4799772 C28.3085906,46.2738707 28.765048,46.8408821 29.4493439,47.4078935 C29.6775726,47.6347757 30.13403,47.6347757 30.4765682,47.4078935 C32.1876982,46.0469886 34.4695951,42.304403 35.4964291,40.4897338 Z M40.0598327,36.6335133 C39.9459135,36.7467605 39.831604,36.8603954 39.7176848,37.0872776 C39.7176848,37.0872776 39.7176848,37.2005247 39.6033753,37.2005247 L38.80477,36.4066312 C38.9186892,36.293384 39.0329987,36.0665019 39.2612274,35.7263726 L40.0598327,36.6335133 Z M40.4019807,32.4371635 L39.7176848,30.9626236 L40.9727475,32.0970342 C40.7445188,32.2102814 40.6302094,32.3235285 40.4019807,32.4371635 Z M41.0866668,35.3858555 L40.2880614,34.4787148 C40.5162901,34.2518327 40.8584381,34.0249506 41.2005861,33.6844335 L41.8852722,34.8188441 C41.6570435,35.0457262 41.3148955,35.1589734 41.0866668,35.3858555 Z M41.6570435,43.3251787 C41.6016444,43.2146464 41.5466354,43.1316502 41.5041108,43.048654 L40.5162901,44.6860837 C40.2880614,44.5728365 40.173752,44.4592015 40.0598327,44.3459544 L40.7445188,43.3251787 C40.8584381,43.2115437 40.8584381,43.0982966 40.8584381,42.8714144 L40.8584381,41.9642738 C40.9727475,41.9642738 41.0866668,41.9642738 41.2005861,41.8506388 C41.2005861,42.0775209 41.3148955,42.4176502 41.4288148,42.7577795 C41.4288148,42.8745171 41.4596354,42.9613916 41.5041108,43.048654 L41.5431242,42.9846616 C41.5431242,43.0982966 41.6570435,43.2115437 41.6570435,43.3251787 Z M42.5699583,44.7993308 L42.5699583,46.0469886 C42.3417296,45.9333536 42.1135009,45.7068593 41.7713529,45.4799772 L42.3417296,44.5728365 C42.4556489,44.6860837 42.4556489,44.6860837 42.5699583,44.7993308 Z M51.1263888,35.2726084 L50.7842408,35.6127376 C50.6699314,35.4994905 50.5560121,35.3858555 50.4417027,35.3858555 L50.7842408,34.591962 C50.8981601,34.8188441 51.0124695,35.0457262 51.1263888,35.2726084 Z M51.2403081,32.6640456 C51.1263888,32.5504106 51.0124695,32.4371635 50.7842408,32.3235285 L51.9249942,31.4163878 L51.2403081,32.6640456 Z M51.5828462,53.0787833 C51.0124695,52.9655361 50.6699314,52.738654 50.5560121,52.625019 C51.1263888,52.3981369 51.6967655,52.1712548 52.1532229,51.8311255 C52.6096803,52.0580076 53.0661377,52.2848897 53.4082857,52.738654 C53.0661377,52.9655361 52.4953709,53.1924183 51.5828462,53.0787833 Z M50.8981601,42.304403 C51.0124695,41.8506388 51.0124695,41.3968745 51.0124695,41.0567452 L51.5828462,41.3968745 C51.6967655,42.4176502 51.6967655,43.4384259 51.6967655,43.7785551 L51.6967655,43.8638783 L51.6967655,43.7785551 L50.8981601,42.304403 Z M49.3013395,45.2530951 C49.4152587,45.1398479 49.6434874,45.0262129 49.7577969,44.7993308 C49.8717161,44.6860837 49.9856354,44.4592015 50.0995547,44.3459544 L50.6699314,45.4799772 C51.1263888,47.1810114 51.5828462,49.1093156 51.6967655,50.0164563 C50.7842408,49.676327 49.8717161,49.562692 49.18703,49.562692 L49.3013395,45.2530951 Z M47.7037386,46.0469886 L47.7037386,49.3361977 C45.9926085,48.8824335 44.509317,47.7484106 44.0528596,47.2946464 L44.0528596,45.9333536 C44.6232363,46.1602357 45.3079224,46.2738707 46.1065278,46.2738707 C46.6769045,46.2738707 47.2476713,46.1602357 47.7037386,46.0469886 Z M46.1065278,44.7993308 C44.9653843,44.7993308 44.1667789,44.4592015 43.5967924,43.7785551 C42.5699583,42.6445323 42.5699583,40.716616 42.5699583,39.9223346 L45.9926085,37.540654 C47.4755099,38.7883118 48.8448821,39.5822053 49.4152587,40.0359696 C49.6434874,40.9431103 49.5295682,42.7577795 48.6166534,43.7785551 C48.0462767,44.4592015 47.2476713,44.7993308 46.1065278,44.7993308 Z M40.2880614,63.9667985 L32.9863036,73.0401445 L33.6709897,68.6169125 C34.5835143,67.9362662 37.8918552,65.6682205 40.2880614,63.9667985 Z M32.5298462,67.4825019 C32.1876982,67.709384 31.6173215,67.9362662 31.2751735,67.823019 C30.7044067,67.4825019 30.3622587,66.121597 30.2483395,65.1008213 C31.5030121,62.3790114 41.0866668,57.0486388 49.0731108,53.1924183 C49.3013395,53.4189125 49.5295682,53.7594297 49.9856354,53.9863118 C47.3615906,56.4812395 43.140335,60.3374601 41.7713529,61.1313536 C39.831604,62.3790114 32.7580749,67.2556198 32.5298462,67.4825019 Z M52.837909,62.3790114 C52.9518283,62.8327757 53.0661377,63.2865399 53.0661377,63.9667985 C53.180057,64.9875741 51.8110749,66.9158783 50.4417027,68.5032776 L50.8981601,55.3472167 C51.2403081,55.0066996 51.5828462,54.6665703 51.8110749,54.5533232 L52.2675323,54.5533232 C52.837909,54.5533232 53.2943664,54.440076 53.7504336,54.2131939 L53.864743,58.636038 C52.2675323,59.9973308 52.4953709,61.1313536 52.837909,62.3790114 Z M48.3884247,34.2518327 L48.6166534,32.7772928 C49.0731108,32.8909278 49.4152587,33.1178099 49.7577969,33.3443042 L49.18703,34.4787148 C48.9588013,34.3650798 48.8448821,34.3650798 48.8448821,34.3650798 C48.7309628,34.3650798 48.6166534,34.2518327 48.3884247,34.2518327 Z M45.7643798,30.7357414 L46.4486758,28.8078251 L46.9051332,30.8493764 L46.1065278,30.8493764 L45.9926085,30.8493764 C45.8782991,30.7357414 45.8782991,30.7357414 45.7643798,30.7357414 Z M45.9926085,32.3235285 L46.0405951,32.3235285 L45.9926085,32.3235285 C46.4486758,32.3235285 46.7912139,32.3235285 47.1333619,32.4371635 L46.9051332,33.9113156 C46.6769045,33.9113156 46.4486758,33.7980684 46.2208372,33.7980684 L45.8782991,33.7980684 L45.6500704,32.3235285 L45.9926085,32.3235285 Z M42.5699583,33.0041749 C43.0264157,32.7772928 43.4828731,32.6640456 44.0528596,32.5504106 L44.2810883,33.9113156 C43.9385502,34.0249506 43.5967924,34.1381977 43.2546444,34.2518327 L42.5699583,33.0041749 Z M45.9926085,35.2726084 C46.7912139,35.3858555 47.4755099,35.4994905 48.2745054,35.7263726 C48.2745054,35.7263726 50.5560121,36.5198783 51.3546175,39.355711 L50.7842408,38.9019468 L50.6699314,38.7883118 C50.6699314,38.7883118 48.7309628,37.7675361 46.7912139,35.9528669 C46.5629852,35.7263726 46.1065278,35.7263726 45.8782991,35.8396198 L41.6570435,38.7883118 C41.4288148,38.9019468 41.3148955,39.1288289 41.3148955,39.355711 L41.3148955,40.2628517 C40.5162901,40.4897338 40.173752,40.3760989 39.9459135,40.3760989 C40.0598327,39.5822053 40.4019807,38.7883118 40.9727475,37.8811711 C42.1135009,36.179749 44.0528596,35.1589734 45.9926085,35.2726084 Z M38.5765413,41.5105095 L39.2612274,41.8506388 L39.2612274,42.5312852 L38.6908507,43.3251787 C38.1200839,42.9846616 37.6640166,42.6445323 37.436178,42.4176502 C37.3218686,41.5105095 37.0936399,39.355711 35.8385771,38.4481825 L34.1274471,37.0872776 C34.0131377,36.4066312 34.0131377,35.7263726 33.8992184,35.0457262 L37.436178,37.2005247 L38.80477,38.5614297 C38.5765413,39.1288289 38.3483126,39.6954525 38.1200839,40.2628517 L38.1200839,40.3760989 C38.1200839,40.716616 38.2343933,41.1699924 38.5765413,41.5105095 Z M32.7580749,17.4660456 C32.8723843,17.8065627 32.9863036,18.4868213 32.9863036,19.507597 C32.9863036,20.1882433 32.8723843,20.9821369 32.6441556,21.7760304 C32.5298462,22.2294068 32.1876982,22.7968061 31.9594695,23.3638175 L31.9594695,22.1161597 L31.9594695,19.7344791 L31.9594695,16.8990342 C32.0733888,16.7857871 32.4159269,17.0126692 32.7580749,17.4660456 Z M44.6232363,17.8065627 C41.2005861,17.8065627 37.7779359,18.2599392 34.5835143,19.0538327 C34.5835143,17.8065627 34.3552857,16.8990342 34.2413664,16.8990342 C34.2413664,16.7857871 34.1274471,16.6721521 34.1274471,16.6721521 C33.2145323,15.5381293 32.5298462,15.084365 31.9594695,15.084365 L31.9594695,14.2904715 L31.9594695,13.9503422 L33.1002229,13.9503422 C33.5566803,13.9503422 33.8992184,13.6098251 33.8992184,13.1564487 L33.8992184,9.86723954 C33.8992184,9.52711027 33.6709897,9.30022814 33.442761,9.18659316 C33.784909,8.73321673 34.1274471,8.27945247 34.2413664,7.82568821 C34.9256623,5.78413688 33.8992184,3.85622053 33.784909,3.85622053 C33.6709897,3.6293384 33.442761,3.51570342 33.2145323,3.51570342 C32.9863036,3.51570342 32.7580749,3.51570342 32.5298462,3.74258555 L32.1876982,4.08310266 C31.8451601,2.60856274 31.0469448,1.02077567 30.8187161,0.567011407 C30.5904874,0.113247148 30.2483395,0 30.0201108,0 C29.7918821,0 29.4493439,0.226882129 29.3354247,0.453764259 C28.9932767,1.13402281 28.6507386,1.8146692 28.4225099,2.49531559 C27.9664426,1.8146692 27.3960659,1.36090494 27.3960659,1.36090494 C27.1678372,1.13402281 26.8252991,1.13402281 26.4831511,1.24765779 C26.2549224,1.47453992 26.0266937,1.8146692 26.1410031,2.04155133 C26.2549224,2.60856274 25.9127744,3.74258555 25.5702363,4.42323194 C24.429483,6.23790114 24.7720211,7.93932319 25.3423978,9.07334601 L24.7720211,9.07334601 C24.3155637,9.07334601 23.9734157,9.41347529 23.9734157,9.86723954 L23.9734157,13.1564487 C23.9734157,13.6098251 24.3155637,13.9503422 24.7720211,13.9503422 L26.1410031,13.9503422 L26.1410031,14.6309886 C25.798465,14.97073 25.5702363,15.4244943 25.5702363,15.8782586 C25.5702363,16.3320228 25.6845457,16.6721521 25.9127744,17.0126692 C25.6845457,17.3527985 25.5702363,17.6929278 25.5702363,18.033057 C25.5702363,18.4868213 25.6845457,18.8269506 25.9127744,19.1674677 C25.6845457,19.507597 25.5702363,19.8477262 25.5702363,20.3014905 C25.5702363,20.9821369 25.9127744,21.5491483 26.4831511,21.8892776 C12.6786309,28.3540608 2.98066682,42.1907681 2.29637085,58.1826616 C0.698769955,58.749673 0.014473991,60.3374601 0.014473991,61.2446008 C-0.0994452915,62.2653764 0.47093139,63.2865399 1.38345605,63.9667985 C1.72560404,64.1936806 2.06814215,64.4205627 2.52459955,64.5338099 C4.34964888,80.9790798 15.758743,94.5892928 31.1608641,99.8064183 C31.6173215,99.9196654 32.1876982,100.146548 32.6441556,100.260183 C34.0131377,100.713559 35.3821197,100.940441 36.7514919,101.28057 C37.2079493,101.394205 37.7779359,101.507452 38.2343933,101.507452 C40.2880614,101.84797 42.4556489,101.961217 44.6232363,101.961217 L45.5361511,101.961217 L46.7912139,101.961217 C47.2476713,101.961217 47.818048,101.84797 48.2745054,101.84797 C49.3013395,101.734335 50.3277834,101.621087 51.2403081,101.507452 C51.8110749,101.394205 52.2675323,101.28057 52.837909,101.28057 L53.0661377,101.28057 C53.6365143,101.167323 54.0929717,101.053688 54.6633484,100.940441 C55.1198058,100.827194 55.6901825,100.713559 56.1466399,100.487065 C56.6027072,100.37343 57.1730839,100.146548 57.6295413,100.0333 C58.1999179,99.8064183 58.6563753,99.6927833 59.226752,99.4659011 C59.6832094,99.2394068 60.2535861,99.1257719 60.7100435,98.8988897 C76.1121646,92.5477414 86.9508821,77.4633764 86.9508821,59.9973308 C86.9508821,36.7467605 68.0118013,17.8065627 44.6232363,17.8065627 Z" id="Fill-59" fill="#000000" mask="url(#mask-2)"></path>
                        <path d="M41.6559918,43.324903 C41.6559918,43.2117348 41.5427978,43.0981789 41.5427978,42.9850106 L41.5040327,43.0489585 C41.5462866,43.1315093 41.6009454,43.2144477 41.6559918,43.324903" id="Fill-60" fill="#FFFFFF" mask="url(#mask-2)"></path>
                        <path d="M73.3740834,42.3042479 C73.259774,42.53113 73.3740834,42.7580122 73.4880027,42.9848943 C73.6023121,43.2117764 73.8301507,43.3250236 74.0583794,43.3250236 C75.0852135,43.4382707 75.5416709,44.00567 75.5416709,45.0264456 C75.4277516,45.1396928 75.4277516,45.1396928 75.4277516,45.2533278 C75.0852135,46.6142327 73.6023121,46.7274798 73.4880027,46.7274798 L65.1594108,46.7274798 C64.9311821,46.7274798 63.5625901,46.6142327 63.5625901,45.2533278 C63.4482807,43.892035 64.4747247,43.6651529 64.5890341,43.5519057 C64.9311821,43.4382707 65.27333,43.2117764 65.27333,42.7580122 C65.27333,41.9641186 65.8440969,41.5103544 65.8440969,41.5103544 C66.1862448,41.1702251 66.7566215,40.943343 67.2130789,40.943343 C67.6695363,40.943343 68.0116843,41.0565901 68.0116843,41.0565901 C68.3542224,41.1702251 68.8102897,41.0565901 69.0385184,40.7164608 C69.3810565,40.0358144 69.9514332,39.6956852 70.7496484,39.582438 C71.4343345,39.468803 72.1190206,39.6956852 72.6893973,40.0358144 C73.8301507,40.8300958 73.3740834,42.3042479 73.3740834,42.3042479 M70.2935812,38.1078981 C69.2667471,38.2215331 68.3542224,38.7885445 67.7834556,39.468803 C67.555617,39.468803 67.3273883,39.3555559 67.0991596,39.3555559 C66.1862448,39.3555559 65.27333,39.6956852 64.5890341,40.3763316 C64.5890341,40.3763316 63.7908188,41.0565901 63.5625901,42.1910008 C62.6496753,42.53113 61.6228413,43.4382707 61.7367605,45.2533278 C61.85107,47.5213734 63.9047381,48.0887726 64.9311821,48.0887726 L73.3740834,48.0887726 C74.2866081,48.0887726 76.226357,47.5213734 76.6824242,45.4798221 C76.6824242,45.2533278 76.7963435,45.1396928 76.7963435,44.9128106 C77.0245722,43.892035 76.4545857,42.53113 74.8573749,41.9641186 C74.9712942,40.943343 74.6291462,39.6956852 73.3740834,38.7885445 C72.4611686,38.2215331 71.4343345,37.881016 70.2935812,38.1078981" id="Fill-61" fill="#000000" mask="url(#mask-2)"></path>
                    </g>
                </g>
            </g>
        </g>
    </g>
</svg>