<svg height="169" viewBox="0 0 104 169" width="104" xmlns="http://www.w3.org/2000/svg" xmlns:xlink="http://www.w3.org/1999/xlink"><mask id="a" fill="#fff"><path d="m0 168.370044h103.817198v-168.19159466h-103.817198z" fill="none"/></mask><g fill="none" fill-rule="evenodd" transform=""><path d="m54.2934978 21.7282115h11.4335859v-12.71686348h-11.4335859z" fill="#5cd8ff"/><path d="m80.7761815 26.4870132h-12.2177093v-12.7168634h12.2177093l-3.4448282 6.3584317z" fill="#5cd8ff"/><g transform="translate(0 .050626)"><path d="m50.9717744 35.7530696c-.2130396-.0430661-.3736211-.2313656-.3740792-.4570044l-.0552071-29.83425551c-.0004581-.25793832.2082291-.46754185.4661674-.468.2588546 0 .4675419.20845815.468.4661674l.0552071 29.83425551c.0004581.2579383-.2082291.4675418-.4661674.468-.0320705 0-.0636829-.003207-.0939208-.009163" fill="#323e4e"/><path d="m51.00877 5.1657533c-.0785726 0-.1525638.03092511-.208229.08681939-.0554362.05589427-.0861322.12988546-.0861322.20868722l.0552071 29.83448459c.000229.1397357.0996475.2611454.2361762.2888634h.000229c.0192423.0038943.0391719.0054978.0595595.0054978.1624141-.000229.2945903-.1328634.2943613-.2957357l-.054978-29.83425546c-.0004582-.16218502-.1333216-.29436124-.2961939-.29436124m.0572688 30.7684229c-.0442115 0-.0870485-.0041233-.128511-.0125991-.2959648-.0597886-.5112952-.3227665-.5117534-.6253745l-.055207-29.83425546c-.0002291-.1706608.0659736-.33124229.186467-.45219384.1204934-.12095154.2808458-.18761233.4515066-.18784141.3523171 0 .639348.28588547.6400352.63751542l.0552071 29.83448459c.0004581.3525462-.2854274.6395771-.6377445.6402643" fill="#323e4e"/><path d="m51.3301621 1.77056564c-.1049163-.02130397-.2134978-.03229956-.3245991-.03207049-.8972863.0009163-1.6268899.73189428-1.6257445 1.6294097.0009163.89751541.7316652 1.62597356 1.6291806 1.62574449.4350132-.00045815.8434538-.17020264 1.1506432-.47785022.3069603-.30764758.4757885-.71677533.4755595-1.1513304l-.0002291-.00022907c-.0006872-.78618502-.5621498-1.44362996-1.3048106-1.59367401m-.8354361 4.10639647c-.4879295-.09873127-.9364582-.33788546-1.296793-.69753304-.4844934-.48334801-.7513656-1.12636123-.7522819-1.81037885-.0016035-1.41270485 1.1462908-2.56311894 2.5589956-2.56472247 1.413163-.00137445 2.563348 1.14651983 2.5644934 2.55922467v-.00022907c.0009163.68424669-.2650397 1.32794713-.7483877 1.81221145-.483348.48449339-1.1263612.75182379-1.810837.75228194-.1747841.00022907-.3475066-.01718062-.5151894-.05085463" fill="#323e4e"/><path d="m51.0085868 1.91062203h-.0018326c-.3889692.00022907-.7541146.1523348-1.0292335.42768282-.2748899.27557709-.4263084.64118061-.4258502 1.02923348.0006872.80199119.6544669 1.45439647 1.4571454 1.45439647h.000229c.3887401-.00045815.7541146-.1523348 1.0287754-.42745374.2748898-.27511895.4256211-.64095154.425392-1.02969163-.0009163-.68951542-.4915947-1.28900441-1.1669075-1.42553304-.0943788-.01901322-.1910484-.02863436-.287718-.02863436zm.0004581 3.25515418c-.9923524 0-1.8002995-.80657269-1.8012158-1.79777973-.0004582-.4799119.1864669-.93187666.5264141-1.27228194.339718-.34086344.7912246-.52870485 1.2711365-.529163.122326.0027489.2412159.0119119.3587313.03527753v.00022908c.8352071.16859912 1.4420264.90965639 1.4427137 1.76204405.0009163.48059912-.1857798.93302203-.5257269 1.27319824-.3392599.34017621-.7909956.52778855-1.2718238.52847577zm-.48037.54244934c.1566872.03184141.3174978.04764758.4783084.04764758h.0027489c.6384317-.00068723 1.2383788-.24992071 1.6891982-.70165639.4510485-.45196476.6989075-1.05237004.6984493-1.69057269-.0006872-.63728634-.2501497-1.2370044-.7023436-1.68828194-.4517357-.45081938-1.0512246-.69890748-1.6878238-.69890748h-.0022907c-1.3176388.00137445-2.3885639 1.0745903-2.3874185 2.39222907.0009163.63843172.2501498 1.23837886.7018854 1.68896916.3335331.33307489.7518238.55825551 1.2092864.65057269zm.4783084.39171806c-.183489 0-.3672071-.01855506-.5461146-.05451982-.5241233-.1058326-1.0028898-.36331278-1.3845286-.74426432-.5165639-.5154185-.8015331-1.2014978-.8026784-1.93201762-.0016036-1.50731278 1.223489-2.73492511 2.7308017-2.73675771h.0027489c.7282291 0 1.4138503.28382379 1.9306432.79947137.5172511.5163348.8026784 1.20241409.8031366 1.93155947.0011453.73006167-.2826784 1.41682819-.7985551 1.93385022-.5156476.51679295-1.2019559.80176211-1.9322467.80267841z" fill="#323e4e"/><path d="m34.5559471 38.2406167h35.1098503v-8.0031894h-35.1098503z" fill="#5cd8ff" mask="url(#a)"/><path d="m.70784141 158.543648h102.40128659v-120.3030313h-102.40128659z" fill="#5cd8ff" mask="url(#a)"/><path d="m1.41602643 158.077045h100.98514557v-119.0499913h-32.7352601c-.3910308 0-.7080705-.3170396-.7080705-.7080704v-7.1320177h-34.0984846v7.1320177c0 .3910308-.3170396.7080704-.7080705.7080704h-32.73525987zm101.69321557 1.416141h-102.40128605c-.39080177 0-.70807049-.31704-.70807049-.708071v-120.4661317c0-.3910309.31726872-.7080705.70807049-.7080705h32.73548895v-7.1320176c0-.3910309.3170397-.7078415.7078414-.7078415h35.5146256c.3908018 0 .7078414.3168106.7078414.7078415v7.1320176h32.7354887c.390802 0 .708071.3170396.708071.7080705v120.4661317c0 .391031-.317269.708071-.708071.708071z" fill="#212d3c" mask="url(#a)"/><g fill="#fff"><path d="m36.0875419 161.439612h31.6418854v-6.318114h-31.6418854z" mask="url(#a)"/><path d="m39.6764581 155.080952h24.4640529v-6.300476h-24.4640529z" mask="url(#a)"/><path d="m6.95265198 114.44215h5.68632602v-13.394696h-5.68632602z" mask="url(#a)"/><path d="m15.3684053 114.44215h5.686326v-13.394696h-5.686326z" mask="url(#a)"/><path d="m23.7843877 114.44215h5.686326v-13.394696h-5.686326z" mask="url(#a)"/><path d="m6.95265198 131.47593h5.68632602v-13.394697h-5.68632602z" mask="url(#a)"/><path d="m15.3684053 131.47593h5.686326v-13.394697h-5.686326z" mask="url(#a)"/><path d="m23.7843877 131.47593h5.686326v-13.394697h-5.686326z" mask="url(#a)"/><path d="m6.95265198 148.50948h5.68632602v-13.394467h-5.68632602z" mask="url(#a)"/><path d="m15.3684053 148.50948h5.686326v-13.394467h-5.686326z" mask="url(#a)"/><path d="m23.7843877 148.50948h5.686326v-13.394467h-5.686326z" mask="url(#a)"/><path d="m74.2495859 114.44215h5.686326v-13.394696h-5.686326z" mask="url(#a)"/><path d="m82.6653392 114.44215h5.686326v-13.394696h-5.686326z" mask="url(#a)"/><path d="m91.0813216 114.44215h5.686326v-13.394696h-5.686326z" mask="url(#a)"/><path d="m74.2495859 131.47593h5.686326v-13.394697h-5.686326z" mask="url(#a)"/><path d="m82.6653392 131.47593h5.686326v-13.394697h-5.686326z" mask="url(#a)"/><path d="m91.0813216 131.47593h5.686326v-13.394697h-5.686326z" mask="url(#a)"/><path d="m74.2495859 148.50948h5.686326v-13.394467h-5.686326z" mask="url(#a)"/><path d="m82.6653392 148.50948h5.686326v-13.394467h-5.686326z" mask="url(#a)"/><path d="m91.0813216 148.50948h5.686326v-13.394467h-5.686326z" mask="url(#a)"/><path d="m6.95265198 62.4309251h5.68632602v-13.394696h-5.68632602z" mask="url(#a)"/><path d="m15.3684053 62.4309251h5.686326v-13.394696h-5.686326z" mask="url(#a)"/><path d="m23.7843877 62.4309251h5.686326v-13.394696h-5.686326z" mask="url(#a)"/><path d="m6.95265198 79.4647048h5.68632602v-13.394696h-5.68632602z" mask="url(#a)"/><path d="m15.3684053 79.4647048h5.686326v-13.394696h-5.686326z" mask="url(#a)"/><path d="m23.7843877 79.4647048h5.686326v-13.394696h-5.686326z" mask="url(#a)"/><path d="m6.95265198 96.4984846h5.68632602v-13.394467h-5.68632602z" mask="url(#a)"/><path d="m15.3684053 96.4984846h5.686326v-13.394467h-5.686326z" mask="url(#a)"/><path d="m23.7843877 96.4984846h5.686326v-13.394467h-5.686326z" mask="url(#a)"/><path d="m74.2495859 79.4647048h5.686326v-13.394696h-5.686326z" mask="url(#a)"/><path d="m82.6653392 79.4647048h5.686326v-13.394696h-5.686326z" mask="url(#a)"/><path d="m91.0813216 79.4647048h5.686326v-13.394696h-5.686326z" mask="url(#a)"/><path d="m74.2495859 96.4984846h5.686326v-13.394467h-5.686326z" mask="url(#a)"/><path d="m82.6653392 96.4984846h5.686326v-13.394467h-5.686326z" mask="url(#a)"/><path d="m91.0813216 96.4984846h5.686326v-13.394467h-5.686326z" mask="url(#a)"/><path d="m74.2495859 62.4309251h5.686326v-13.394696h-5.686326z" mask="url(#a)"/><path d="m82.6653392 62.4309251h5.686326v-13.394696h-5.686326z" mask="url(#a)"/><path d="m91.0813216 62.4309251h5.686326v-13.394696h-5.686326z" mask="url(#a)"/><path d="m40.6497974 148.780476h22.5178326v-34.095278h-22.5178326z" mask="url(#a)"/></g><path d="m64.7028211 119.234099h-25.5885815c-.3605638 0-.6528634-.292071-.6528634-.652864 0-.360564.2922996-.652634.6528634-.652634h25.5885815c.3605639 0 .6526344.29207.6526344.652634 0 .360793-.2920705.652864-.6526344.652864" fill="#323e4e" mask="url(#a)"/><path d="m64.7028211 115.574925h-25.5885815c-.3605638 0-.6528634-.29207-.6528634-.652863 0-.360335.2922996-.652406.6528634-.652406h25.5885815c.3605639 0 .6526344.292071.6526344.652406 0 .360793-.2920705.652863-.6526344.652863" fill="#323e4e" mask="url(#a)"/><path d="m51.9085991 149.162367c-.3605639 0-.6526343-.292071-.6526343-.652864v-29.928176c0-.360564.2920704-.652864.6526343-.652864s.6526344.2923.6526344.652864v29.928176c0 .360793-.2920705.652864-.6526344.652864" fill="#323e4e" mask="url(#a)"/><path d="m51.9085991 130.786277c-1.5212863 0-2.759207 1.237691-2.759207 2.759207 0 1.521515 1.2379207 2.759207 2.759207 2.759207 1.5212864 0 2.7592071-1.237692 2.7592071-2.759207 0-1.521516-1.2379207-2.759207-2.7592071-2.759207m0 6.823682c-2.2412687 0-4.0644758-1.823207-4.0644758-4.064475 0-2.24104 1.8232071-4.064476 4.0644758-4.064476s4.0644758 1.823436 4.0644758 4.064476c0 2.241268-1.8232071 4.064475-4.0644758 4.064475" fill="#323e4e" mask="url(#a)"/><path d="m40.6495683 108.755595h5.686326v-13.3944672h-5.686326z" fill="#fff" mask="url(#a)"/><path d="m49.0653216 108.755595h5.686326v-13.3944672h-5.686326z" fill="#fff" mask="url(#a)"/><path d="m57.481304 108.755595h5.686326v-13.3944672h-5.686326z" fill="#fff" mask="url(#a)"/><path d="m40.6495683 90.8119295h5.686326v-13.3944669h-5.686326z" fill="#fff" mask="url(#a)"/><path d="m49.0653216 90.8119295h5.686326v-13.3944669h-5.686326z" fill="#fff" mask="url(#a)"/><path d="m57.481304 90.8119295h5.686326v-13.3944669h-5.686326z" fill="#fff" mask="url(#a)"/><path d="m40.6495683 72.8684934h5.686326v-13.394696h-5.686326z" fill="#fff" mask="url(#a)"/><path d="m49.0653216 72.8684934h5.686326v-13.394696h-5.686326z" fill="#fff" mask="url(#a)"/><path d="m57.481304 72.8684934h5.686326v-13.394696h-5.686326z" fill="#fff" mask="url(#a)"/><path d="m40.6495683 54.9248282h5.686326v-13.394467h-5.686326z" fill="#fff" mask="url(#a)"/><path d="m49.0653216 54.9248282h5.686326v-13.394467h-5.686326z" fill="#fff" mask="url(#a)"/><path d="m57.481304 54.9248282h5.686326v-13.394467h-5.686326z" fill="#fff" mask="url(#a)"/><path d="m31.0059965 111.336375h-25.58858152c-.36056388 0-.65263436-.29207-.65263436-.652863 0-.360335.29207048-.652405.65263436-.652405h25.58858152c.3605639 0 .6526343.29207.6526343.652405 0 .360793-.2920704.652863-.6526343.652863" fill="#323e4e" mask="url(#a)"/><path d="m31.0059965 128.921905h-25.58858152c-.36056388 0-.65263436-.292071-.65263436-.652864 0-.360334.29207048-.652405.65263436-.652405h25.58858152c.3605639 0 .6526343.292071.6526343.652405 0 .360793-.2920704.652864-.6526343.652864" fill="#323e4e" mask="url(#a)"/><path d="m31.0059965 146.003424h-25.58858152c-.36056388 0-.65263436-.292071-.65263436-.652864 0-.360564.29207048-.652634.65263436-.652634h25.58858152c.3605639 0 .6526343.29207.6526343.652634 0 .360793-.2920704.652864-.6526343.652864" fill="#323e4e" mask="url(#a)"/><path d="m98.3028388 111.336375h-25.5883525c-.3605638 0-.6528634-.29207-.6528634-.652863 0-.360335.2922996-.652405.6528634-.652405h25.5883525c.3605638 0 .6526343.29207.6526343.652405 0 .360793-.2920705.652863-.6526343.652863" fill="#323e4e" mask="url(#a)"/><path d="m98.3028388 128.921905h-25.5883525c-.3605638 0-.6528634-.292071-.6528634-.652864 0-.360334.2922996-.652405.6528634-.652405h25.5883525c.3605638 0 .6526343.292071.6526343.652405 0 .360793-.2920705.652864-.6526343.652864" fill="#323e4e" mask="url(#a)"/><path d="m98.3028388 146.003424h-25.5883525c-.3605638 0-.6528634-.292071-.6528634-.652864 0-.360564.2922996-.652634.6528634-.652634h25.5883525c.3605638 0 .6526343.29207.6526343.652634 0 .360793-.2920705.652864-.6526343.652864" fill="#323e4e" mask="url(#a)"/><path d="m31.0059965 59.3251965h-25.58858152c-.36056388 0-.65263436-.2920705-.65263436-.6528635 0-.3603348.29207048-.6524052.65263436-.6524052h25.58858152c.3605639 0 .6526343.2920704.6526343.6524052 0 .360793-.2920704.6528635-.6526343.6528635" fill="#323e4e" mask="url(#a)"/><path d="m31.0059965 76.910726h-25.58858152c-.36056388 0-.65263436-.2920705-.65263436-.6526344 0-.3605638.29207048-.6526343.65263436-.6526343h25.58858152c.3605639 0 .6526343.2920705.6526343.6526343 0 .3605639-.2920704.6526344-.6526343.6526344" fill="#323e4e" mask="url(#a)"/><path d="m31.0059965 93.9920159h-25.58858152c-.36056388 0-.65263436-.2920705-.65263436-.6526344s.29207048-.6526344.65263436-.6526344h25.58858152c.3605639 0 .6526343.2920705.6526343.6526344s-.2920704.6526344-.6526343.6526344" fill="#323e4e" mask="url(#a)"/><path d="m98.3028388 59.3251965h-25.5883525c-.3605638 0-.6528634-.2920705-.6528634-.6528635 0-.3603348.2922996-.6524052.6528634-.6524052h25.5883525c.3605638 0 .6526343.2920704.6526343.6524052 0 .360793-.2920705.6528635-.6526343.6528635" fill="#323e4e" mask="url(#a)"/><path d="m98.3028388 76.910726h-25.5883525c-.3605638 0-.6528634-.2920705-.6528634-.6526344 0-.3605638.2922996-.6526343.6528634-.6526343h25.5883525c.3605638 0 .6526343.2920705.6526343.6526343 0 .3605639-.2920705.6526344-.6526343.6526344" fill="#323e4e" mask="url(#a)"/><path d="m98.3028388 93.9920159h-25.5883525c-.3605638 0-.6528634-.2920705-.6528634-.6526344s.2922996-.6526344.6528634-.6526344h25.5883525c.3605638 0 .6526343.2920705.6526343.6526344s-.2920705.6526344-.6526343.6526344" fill="#323e4e" mask="url(#a)"/><path d="m64.7028211 106.249309h-25.5885815c-.3605638 0-.6528634-.29207-.6528634-.652634s.2922996-.652634.6528634-.652634h25.5885815c.3605639 0 .6526344.29207.6526344.652634s-.2920705.652634-.6526344.652634" fill="#323e4e" mask="url(#a)"/><path d="m64.7028211 88.3058502h-25.5885815c-.3605638 0-.6528634-.2920705-.6528634-.6528634 0-.3605639.2922996-.6526344.6528634-.6526344h25.5885815c.3605639 0 .6526344.2920705.6526344.6526344 0 .3607929-.2920705.6528634-.6526344.6528634" fill="#323e4e" mask="url(#a)"/><path d="m64.7028211 70.362185h-25.5885815c-.3605638 0-.6528634-.2920705-.6528634-.6528634 0-.3603348.2922996-.6524053.6528634-.6524053h25.5885815c.3605639 0 .6526344.2920705.6526344.6524053 0 .3607929-.2920705.6528634-.6526344.6528634" fill="#323e4e" mask="url(#a)"/><path d="m64.7028211 52.4184969h-25.5885815c-.3605638 0-.6528634-.2920705-.6528634-.6528634 0-.3603348.2922996-.6524053.6528634-.6524053h25.5885815c.3605639 0 .6526344.2920705.6526344.6524053 0 .3607929-.2920705.6528634-.6526344.6528634" fill="#323e4e" mask="url(#a)"/><g fill="#323e4e" mask="url(#a)"><g transform="translate(32.070485 147.982379)"><path d="m1.37834361 19.0821674h36.91931279v-4.995207h-36.91931279zm37.57217619 1.3054978h-38.22481055c-.36056388 0-.65263436-.2922996-.65263436-.6526344v-6.3004757c0-.3605639.29207048-.6526344.65263436-.6526344h38.22481055c.3605639 0 .6526344.2920705.6526344.6526344v6.3004757c0 .3603348-.2920705.6526344-.6526344.6526344z"/><path d="m4.66969163 12.8045991h30.33661677v-5.0128458h-30.33661677zm30.98925107 1.3052687h-31.64188543c-.36056388 0-.65263436-.2920704-.65263436-.6526343v-6.31811456c0-.36056387.29207048-.65286343.65263436-.65286343h31.64188543c.3605639 0 .6526344.29229956.6526344.65286343v6.31811456c0 .3605639-.2920705.6526343-.6526344.6526343z"/><path d="m8.258837 6.44593833h23.1585551v-4.99520705h-23.1585551zm23.8111894 1.30549779h-24.46382376c-.36056387 0-.65286343-.29229956-.65286343-.65286343v-6.30047577c0-.3603348.29229956-.65263436.65286343-.65263436h24.46382376c.3605639 0 .6528635.29229956.6528635.65263436v6.30047577c0 .36056387-.2922996.65286343-.6528635.65286343z"/></g></g></g></g></svg>