<?xml version="1.0" encoding="UTF-8"?>
<svg width="63px" height="62px" viewBox="0 0 63 62" version="1.1" xmlns="http://www.w3.org/2000/svg" xmlns:xlink="http://www.w3.org/1999/xlink">
    <!-- Generator: sketchtool 50.2 (55047) - http://www.bohemiancoding.com/sketch -->
    <title>F017DEC3-DCFA-4038-B2F9-FDCCE512660C</title>
    <desc>Created with sketchtool.</desc>
    <defs>
        <polygon id="path-1" points="0.0003 0.052695 5.91597 0.052695 5.91597 5.77287 0.0003 5.77287"></polygon>
    </defs>
    <g id="Future-Project-Desktop" stroke="none" stroke-width="1" fill="none" fill-rule="evenodd">
        <g id="Homepage-" transform="translate(-167.000000, -1979.000000)">
            <g id="homepage/meaningful-impact" transform="translate(167.000000, 1904.000000)">
                <g id="3500" transform="translate(0.000000, 73.000000)">
                    <g id="elements/star-icon" transform="translate(0.000000, 4.000000)">
                        <g id="star-icon">
                            <polygon id="Stroke-2" stroke="#5CD8FF" stroke-width="3" stroke-linejoin="round" points="41.5 0 47.5256334 11.8503793 61 13.7506322 51.2502636 22.9747986 53.5515304 36 41.5 29.8503793 29.4484696 36 31.7494727 22.9747986 22 13.7506322 35.474103 11.8503793"></polygon>
                            <path d="M8.96534702,40 C8.71878146,40 8.47143646,39.905403 8.2825501,39.7172839 C7.90581663,39.3399707 7.90581663,38.7280461 8.2825501,38.3518079 L22.3515962,24.2823802 C22.7288493,23.9058733 23.3401968,23.9058733 23.7174499,24.2823802 C24.0941834,24.6594246 24.0941834,25.270543 23.7174499,25.6478562 L9.64814394,39.7172839 C9.45925758,39.905403 9.21191257,40 8.96534702,40" id="Fill-4" fill="#172942"></path>
                            <g id="Group-8" transform="translate(0.000000, 42.000000)">
                                <mask id="mask-2" fill="white">
                                    <use xlink:href="#path-1"></use>
                                </mask>
                                <g id="Clip-7"></g>
                                <path d="M1.11537,5.77287 C0.82977,5.77287 0.54507,5.66727 0.32667,5.45727 C-0.10893,5.03607 -0.10893,4.35327 0.32667,3.93297 L4.01307,0.36837 C4.44867,-0.05253 5.15457,-0.05253 5.58927,0.36837 C6.02487,0.78957 6.02487,1.47177 5.58927,1.89267 L1.90377,5.45727 C1.68567,5.66727 1.40007,5.77287 1.11537,5.77287" id="Fill-6" fill="#172942" mask="url(#mask-2)"></path>
                            </g>
                            <path d="M14.9895202,49 C14.7367804,49 14.4832417,48.903031 14.2896254,48.7101948 C13.9034582,48.3234206 13.9034582,47.6961522 14.2896254,47.31048 L22.3104518,39.289874 C22.6963527,38.9033753 23.3230089,38.9033753 23.7099751,39.289874 C24.096675,39.6758218 24.096675,40.3022638 23.7099751,40.689038 L15.6896813,48.7101948 C15.4957988,48.903031 15.243059,49 14.9895202,49" id="Fill-9" fill="#172942"></path>
                            <path d="M17.9377928,60 C17.6982812,60 17.4580124,59.9081105 17.2742774,59.7253757 C16.9085742,59.3588618 16.9085742,58.7654957 17.2742774,58.3989819 L27.3991335,48.2746896 C27.7648367,47.9084368 28.3591991,47.9084368 28.7251547,48.2746896 C29.0916151,48.6412034 29.0916151,49.2348306 28.7251547,49.6013444 L18.6010558,59.7253757 C18.4175732,59.9081105 18.1780616,60 17.9377928,60" id="Fill-11" fill="#172942"></path>
                            <path d="M31.9461593,46 C31.7044946,46 31.462066,45.9072883 31.276934,45.7229183 C30.9076887,45.3531249 30.9076887,44.7536592 31.276934,44.3846559 L36.3847427,39.2773451 C36.7544973,38.9075516 37.3536934,38.9075516 37.722684,39.2773451 C38.0924387,39.646085 38.0924387,40.245814 37.722684,40.6156075 L32.6156393,45.7229183 C32.4302527,45.9072883 32.188588,46 31.9461593,46" id="Fill-13" fill="#172942"></path>
                            <polygon id="Fill-1" fill="#5CD8FF" points="41.5 0 47.5256334 11.8503793 61 13.7506322 51.2502636 22.9747986 53.5515304 36 41.5 29.8503793 29.4484696 36 31.7494727 22.9747986 22 13.7506322 35.474103 11.8503793"></polygon>
                        </g>
                    </g>
                </g>
            </g>
        </g>
    </g>
</svg>