<svg height="62" viewBox="0 0 63 62" width="63" xmlns="http://www.w3.org/2000/svg" xmlns:xlink="http://www.w3.org/1999/xlink"><mask id="a" fill="#fff"><path d="m.0003.052695h5.91567v5.720175h-5.91567z" fill="none"/></mask><g fill="none" fill-rule="evenodd" transform="translate(0 2)"><path d="m41.5 0 6.0256334 11.8503793 13.4743666 1.9002529-9.7497364 9.2241664 2.3012668 13.0252014-12.0515304-6.1496207-12.0515304 6.1496207 2.3010031-13.0252014-9.7494727-9.2241664 13.474103-1.9002529z" stroke="#5cd8ff" stroke-linejoin="round" stroke-width="3"/><g fill="#172942"><path d="m8.96534702 40c-.24656556 0-.49391056-.094597-.68279692-.2827161-.37673347-.3773132-.37673347-.9892378 0-1.365476l14.0690461-14.0694277c.3772531-.3765069.9886006-.3765069 1.3658537 0 .3767335.3770444.3767335.9881628 0 1.365476l-14.06930596 14.0694277c-.18888636.1881191-.43623137.2827161-.68279692.2827161"/><path d="m1.11537 5.77287c-.2856 0-.5703-.1056-.7887-.3156-.4356-.4212-.4356-1.104 0-1.5243l3.6864-3.5646c.4356-.4209 1.1415-.4209 1.5762 0 .4356.4212.4356 1.1034 0 1.5243l-3.6855 3.5646c-.2181.21-.5037.3156-.7884.3156" mask="url(#a)" transform="translate(0 42)"/><path d="m14.9895202 49c-.2527398 0-.5062785-.096969-.6998948-.2898052-.3861672-.3867742-.3861672-1.0140426 0-1.3997148l8.0208264-8.020606c.3859009-.3864987 1.0125571-.3864987 1.3995233 0 .3866999.3859478.3866999 1.0123898 0 1.399164l-8.0202938 8.0211568c-.1938825.1928362-.4466223.2898052-.7001611.2898052"/><path d="m17.9377928 60c-.2395116 0-.4797804-.0918895-.6635154-.2746243-.3657032-.3665139-.3657032-.95988 0-1.3263938l10.1248561-10.1242923c.3657032-.3662528.9600656-.3662528 1.3260212 0 .3664604.3665138.3664604.960141 0 1.3266548l-10.1240989 10.1240313c-.1834826.1827348-.4229942.2746243-.663263.2746243"/><path d="m31.9461593 46c-.2416647 0-.4840933-.0927117-.6692253-.2770817-.3692453-.3697934-.3692453-.9692591 0-1.3382624l5.1078087-5.1073108c.3697546-.3697935.9689507-.3697935 1.3379413 0 .3697547.3687399.3697547.9684689 0 1.3382624l-5.1070447 5.1073108c-.1853866.18437-.4270513.2770817-.66948.2770817"/></g><path d="m41.5 0 6.0256334 11.8503793 13.4743666 1.9002529-9.7497364 9.2241664 2.3012668 13.0252014-12.0515304-6.1496207-12.0515304 6.1496207 2.3010031-13.0252014-9.7494727-9.2241664 13.474103-1.9002529z" fill="#5cd8ff"/></g></svg>