<?xml version="1.0" encoding="UTF-8"?>
<svg width="23px" height="26px" viewBox="0 0 23 26" version="1.1" xmlns="http://www.w3.org/2000/svg" xmlns:xlink="http://www.w3.org/1999/xlink">
    <!-- Generator: Sketch 50.2 (55047) - http://www.bohemiancoding.com/sketch -->
    <title>Group 345</title>
    <desc>Created with Sketch.</desc>
    <defs>
        <polygon id="path-1" points="0.0526678899 0.0339283951 11.5 0.0339283951 11.5 14.1234568 0.0526678899 14.1234568"></polygon>
        <polygon id="path-3" points="0.059409633 0.00816378601 8.17651055 0.00816378601 8.17651055 3.42386831 0.059409633 3.42386831"></polygon>
        <polygon id="path-5" points="0.00965325688 0.0431728395 0.105998325 0.0431728395 0.105998325 1.63890947 0.00965325688 1.63890947"></polygon>
        <polygon id="path-7" points="0 0.0527703704 0.326017294 0.0527703704 0.326017294 3.30929712 0 3.30929712"></polygon>
    </defs>
    <g id="Future-Project-Desktop" stroke="none" stroke-width="1" fill="none" fill-rule="evenodd">
        <g id="maps" transform="translate(-990.000000, -397.000000)">
            <g id="about-us/map" transform="translate(48.000000, 44.000000)">
                <g id="map-markers" transform="translate(417.000000, 317.000000)">
                    <g id="Group-345" transform="translate(525.000000, 36.000000)">
                        <path d="M15.2608376,21.5785556 C13.9616541,20.8867202 12.6180532,20.1714527 11.4576083,20.1714527 C10.2970578,20.1714527 8.95356239,20.8867202 7.65416789,21.5785556 C6.52147064,22.1815844 5.36946606,22.7932798 4.30007156,22.9589095 C6.21972752,24.7259465 8.76470917,25.805856 11.5536174,25.8124897 C14.3301817,25.805428 16.8645073,24.7345062 18.7807872,22.9810576 C17.6653927,22.8571564 16.4528284,22.2130412 15.2608376,21.5785556" id="Fill-1" fill="#5CD8FF"></path>
                        <path d="M7.40177982,6.03671852 L7.88963303,7.5295251 C7.8982844,7.55595309 7.90261009,7.58366502 7.90261009,7.61169794 L7.89174312,12.3366362 C9.78491743,11.8010148 11.3256009,11.8045457 11.4562156,11.8050807 C11.5882018,11.8035827 13.5115505,11.795023 15.7197615,12.5535169 L15.6445367,10.3859942 C15.6138349,10.3828914 15.583133,10.3756156 15.5540138,10.3606362 C15.4281468,10.2952617 15.3784541,10.1388337 15.4430229,10.0114016 L16.2345183,8.44401893 C16.2478119,8.41748395 16.2662752,8.39469383 16.2869541,8.37415062 L17.4372706,5.88307243 L17.4372706,5.60777202 C15.7416009,4.48485021 13.7187615,3.8298214 11.5478991,3.82554156 C10.0794862,3.8298214 8.67891284,4.13154979 7.40177982,4.67455391 L7.40177982,6.03671852 Z" id="Fill-3" fill="#5CD8FF"></path>
                        <path d="M11.4208399,2.80866337 C11.4283307,2.80866337 11.4358216,2.80898436 11.4433124,2.80898436 C11.4534408,2.80898436 11.4634638,2.80866337 11.4735922,2.80866337 C13.584106,2.80866337 15.5622115,3.39286091 17.2603078,4.40910782 L17.2960739,4.32447407 C15.5934408,3.29100082 13.6021472,2.69653169 11.4735922,2.69653169 C9.99853257,2.69653169 8.58920229,2.98199671 7.29624358,3.50103374 L7.29624358,3.5905893 C8.57622523,3.0861037 9.96719771,2.80866337 11.4208399,2.80866337" id="Fill-5" fill="#6693FA"></path>
                        <path d="M20.9394505,7.91466872 L20.9823656,7.91509506 C20.9130656,7.8085107 20.8422821,7.70309877 20.7694853,7.59907243 L20.7735119,7.67485391 C20.8297784,7.75404609 20.8851972,7.83398436 20.9394505,7.91466872" id="Fill-7" fill="#6693FA"></path>
                        <g id="Group-11" transform="translate(11.394495, 11.849794)">
                            <mask id="mask-2" fill="white">
                                <use xlink:href="#path-1"></use>
                            </mask>
                            <g id="Clip-10"></g>
                            <path d="M11.2297183,0.0339283951 L11.2448055,0.264290535 C11.3205578,0.682430453 11.3741541,1.10848807 11.4041174,1.54107243 C11.4322872,1.87072675 11.4472688,2.20423292 11.4472688,2.54116296 C11.4472688,2.74092428 11.4423101,2.93950864 11.4322872,3.13680905 C11.3940945,3.89968971 11.2820486,4.64299012 11.1044844,5.36018354 C10.9699661,5.90350864 10.7974661,6.43153333 10.5901495,6.94158272 C10.3952826,7.42113827 10.1698193,7.88475144 9.91565872,8.32964033 C9.63607156,8.81903951 9.32208991,9.28586255 8.97708991,9.7266856 C8.71543853,10.0613687 8.43585138,10.3809654 8.1398055,10.6842988 C6.0743422,12.8006774 3.21231927,14.1158708 0.0526678899,14.1231465 C0.0615302752,14.1231465 0.070287156,14.1234675 0.0791495413,14.1234675 C6.37661284,14.1234675 11.5000211,8.92774733 11.5000211,2.54116296 C11.5000211,1.68048807 11.406122,0.841640329 11.2297183,0.0339283951" id="Fill-9" fill="#000000" mask="url(#mask-2)"></path>
                        </g>
                        <path d="M22.800308,13.3909095 C22.770032,12.9583251 22.7158764,12.5322675 22.6392271,12.1141276 L22.6496744,12.2722675 C22.7175821,12.6393704 22.7676867,13.012679 22.800308,13.3909095" id="Fill-12" fill="#000000"></path>
                        <path d="M4.15019174,22.5384905 C6.07470092,24.3063835 8.62590734,25.3847951 11.4208294,25.3847951 C11.4300083,25.3847951 11.4390817,25.3844741 11.448155,25.3844741 C8.65914128,25.3779473 6.11415963,24.2979309 4.19460917,22.5310008 C4.17983853,22.5332477 4.16496239,22.5363506 4.15019174,22.5384905" id="Fill-14" fill="#000000"></path>
                        <path d="M11.4423734,3.39755802 C11.4351991,3.39755802 11.4280248,3.39713004 11.4208505,3.39713004 C9.9611945,3.39713004 8.56842844,3.6919037 7.29625413,4.22463621 L7.29625413,4.24657037 C8.57349266,3.70356626 9.97396055,3.40183786 11.4423734,3.39755802" id="Fill-16" fill="#000000"></path>
                        <path d="M17.2602761,4.40916132 C15.5621798,3.39280741 13.5840743,2.80871687 11.4735606,2.80871687 C11.4635376,2.80871687 11.4534092,2.80903786 11.4432807,2.80903786 C13.5627624,2.8132107 15.5481477,3.40618189 17.2495147,4.43441235 L17.2602761,4.40916132 Z" id="Fill-18" fill="#000000"></path>
                        <path d="M20.8868267,7.91449218 L20.9404493,7.91491852 C20.8858672,7.83423416 20.8301126,7.75440247 20.773505,7.6751037 L20.7777693,7.75728025 C20.814335,7.80950658 20.8511139,7.86162634 20.8868267,7.91449218" id="Fill-20" fill="#000000"></path>
                        <polygon id="Fill-22" fill="#FFFFFF" points="19.3583087 7.7505893 19.4020931 8.6526716 19.4019876 8.6526716 19.4824876 10.3117498 19.6902261 14.5980049 20.2296711 15.1585564 19.8709555 7.75080329"></polygon>
                        <polygon id="Fill-24" fill="#FFFFFF" points="18.7344495 7.7505893 18.7776009 8.6526716 19.0339771 14.0064247 19.5694128 14.4820214 19.2469908 7.7505893"></polygon>
                        <polygon id="Fill-26" fill="#FFFFFF" points="18.5819638 8.65263951 18.5819638 10.3117177 18.8582101 10.3117177 19.0359106 14.0064996 18.7784197 8.65263951"></polygon>
                        <polygon id="Fill-28" fill="#FFFFFF" points="19.4834899 10.3117498 19.4026399 8.6526716 19.2905307 8.6526716 19.2470858 7.7505893 19.5708037 14.4820214 19.3703211 10.3117498"></polygon>
                        <path d="M1.18401468,10.9294905 L6.21415688,10.8099761 L6.33960183,4.71046173 C3.92681743,6.03186091 2.06139083,8.25395144 1.18401468,10.9294905" id="Fill-30" fill="#FFFFFF"></path>
                        <path d="M6.33962294,4.71045103 L6.34025596,4.68188313 C3.90130642,5.99975144 2.01456789,8.23500247 1.13086147,10.9307638 L1.18403578,10.9294798 C2.06141193,8.25394074 3.92683853,6.03185021 6.33962294,4.71045103" id="Fill-32" fill="#FFFFFF"></path>
                        <path d="M20.7425394,16.7024 C20.5670853,16.4101942 20.3558651,16.1116757 20.1079294,15.8086634 L18.4632183,15.8086634 L18.4632183,14.2081119 C15.4381908,11.8722848 11.4043284,11.8979638 11.3551633,11.8960379 L11.3551633,11.8962519 L11.348622,11.8962519 C11.3058927,11.8962519 6.88029174,11.8739967 3.82878257,14.5465399 C2.32249358,15.8656922 1.5733055,17.1355193 1.32336514,18.2511654 C1.42264495,18.5185481 1.53194771,18.7810091 1.65074587,19.0382272 C3.04498899,18.0414535 6.29442477,16.209256 11.3518927,16.209256 C16.6452688,16.209256 19.9783697,18.0995523 21.2626771,18.9971407 C21.3252413,18.860186 21.3851679,18.7217333 21.4422459,18.5817827 C21.3612183,18.003684 21.1447229,17.378507 20.7537229,16.7221942 C20.7501358,16.7154535 20.7455991,16.7093547 20.7425394,16.7024" id="Fill-34" fill="#FFFFFF"></path>
                        <path d="M1.32349404,18.2511333 C1.31692431,18.2801292 1.30929495,18.3095531 1.30346697,18.338335 C1.39788028,18.5854955 1.50098257,18.8282691 1.61235,19.066442 C1.6250656,19.0572403 1.63915872,19.0475037 1.65229817,19.0381951 C1.53298349,18.781084 1.42309954,18.518623 1.32349404,18.2511333" id="Fill-36" fill="#FFFFFF"></path>
                        <path d="M20.1079716,15.8086634 C19.8337651,15.4734453 19.5145083,15.1325564 19.1430266,14.7878156 C19.1427101,14.7872807 19.1421826,14.7870667 19.1419716,14.7868527 C19.0556688,14.7069267 18.967045,14.6267868 18.875045,14.5463259 C18.7403156,14.4283095 18.6028431,14.3157498 18.4632606,14.2081119 L18.4632606,15.8086634 L20.1079716,15.8086634 Z" id="Fill-38" fill="#FFFFFF"></path>
                        <path d="M19.6410294,7.23170206 C19.2078275,6.7209037 18.7289422,6.25108477 18.2113367,5.82802305 L18.2780156,7.23170206 L19.6410294,7.23170206 Z" id="Fill-40" fill="#FFFFFF"></path>
                        <path d="M21.7630748,17.6884634 C22.0865518,16.6470724 22.2614784,15.539344 22.2614784,14.3909572 C22.2614784,14.3035416 22.2602124,14.2163399 22.2582078,14.1293523 L22.1972261,13.1968831 C22.033483,11.666842 21.5593454,10.2299942 20.8395931,8.95278436 L21.22785,16.5091547 C21.4638638,16.9127432 21.6392124,17.3068091 21.7630748,17.6884634" id="Fill-42" fill="#FFFFFF"></path>
                        <path d="M3.49439633,14.1537794 C4.3354789,13.4173267 5.26402477,12.8774255 6.17959358,12.4797218 L6.20343761,11.329623 L1.02685505,11.4523473 C1.02664404,11.4532033 1.02643303,11.4540593 1.02611651,11.4549152 L1.10113028,11.4536313 L1.66167615,13.6614914 L0.661598165,15.1874667 C0.715616514,15.9482074 0.845809174,16.687977 1.04531835,17.3984296 C1.44148807,16.3784379 2.21188257,15.2770222 3.49439633,14.1537794" id="Fill-44" fill="#FFFFFF"></path>
                        <path d="M1.02641888,11.4548813 C1.02673689,11.4540334 1.02694889,11.4531855 1.0271609,11.4524436 L0.973841974,11.4536095 C0.973629971,11.4543514 0.973417967,11.4549873 0.973205963,11.4557292 L1.02641888,11.4548813 Z" id="Fill-46" fill="#FFFFFF"></path>
                        <path d="M0.661843578,15.1874774 L0.614901835,15.2588436 C0.674347248,16.0218313 0.810510092,16.7634198 1.01692661,17.4751564 C1.02635734,17.4496914 1.03727156,17.4239053 1.04723211,17.3984403 C0.846855505,16.6878807 0.716096789,15.9482181 0.661843578,15.1874774" id="Fill-48" fill="#FFFFFF"></path>
                        <path d="M20.6745128,15.6916955 L20.3716697,9.8227572 L20.3716697,15.3232016 C20.477633,15.4464609 20.5798876,15.5693992 20.6745128,15.6916955" id="Fill-50" fill="#FFFFFF"></path>
                        <path d="M20.22965,15.158535 C20.2788151,15.2136379 20.3247096,15.2683128 20.3716592,15.3232016 L20.3716592,9.8227572 L20.2812417,8.06385185 C20.2075995,7.95813992 20.1319528,7.85381893 20.0547234,7.75088889 L19.8710399,7.75088889 L20.22965,15.158535 Z" id="Fill-52" fill="#FFFFFF"></path>
                        <path d="M1.88503991,19.5149152 C2.36951697,20.4436395 2.98123257,21.2938288 3.69676468,22.04173 C4.77660413,22.0379852 6.02176927,21.3774996 7.31082431,20.691121 C8.6651867,19.9703967 10.0651271,19.2248494 11.3519665,19.2248494 C12.6383839,19.2248494 14.0389573,19.9703967 15.3930032,20.691121 C16.7601317,21.418907 18.078728,22.120051 19.2026683,22.0365942 C19.9269573,21.2786354 20.5446867,20.4157136 21.0316959,19.4725449 C19.8468794,18.6447177 16.5430032,16.7278864 11.3519665,16.7278864 C6.40242982,16.7278864 3.18992064,18.5810551 1.88503991,19.5149152" id="Fill-54" fill="#FFFFFF"></path>
                        <path d="M1.88503991,19.5149152 C1.87237936,19.5239029 1.85876927,19.5334255 1.84653073,19.5423062 C2.32900321,20.4608658 2.93618211,21.3020675 3.64517294,22.0428 C3.66215917,22.043121 3.67967294,22.04173 3.69676468,22.04173 C2.98123257,21.2938288 2.36951697,20.4436395 1.88503991,19.5149152" id="Fill-56" fill="#FFFFFF"></path>
                        <polygon id="Fill-58" fill="#000000" points="5.45364817 0.641871381 5.47961861 0.641871381 5.46859442 0.628729218"></polygon>
                        <path d="M5.21636835,4.60231029 L1.07868945,4.69165185 L0.759749083,10.2381045 C1.11614358,9.3001786 1.59133624,8.42227737 2.16338211,7.61991523 C2.9842078,6.4298 4.02100138,5.40456543 5.21636835,4.60231029" id="Fill-60" fill="#FFFFFF"></path>
                        <path d="M2.16343486,7.61992593 C3.01812752,6.42135802 4.09142569,5.39323457 5.32635688,4.59996708 L5.2164211,4.60232099 C4.02094862,5.40457613 2.98415505,6.4298107 2.16343486,7.61992593" id="Fill-62" fill="#FFFFFF"></path>
                        <polygon id="Fill-64" fill="#FFFFFF" points="5.30270275 0.775097251 5.59018119 0.771500807 5.48029725 0.642028807 5.45433624 0.642028807"></polygon>
                        <polygon id="Fill-66" fill="#FFFFFF" points="19.8745954 4.8724642 19.8300725 4.14007737 18.2747239 4.10327078 18.3040541 4.8724642"></polygon>
                        <path d="M21.9033959,8.69673251 L21.4408638,8.69266667 C21.6396344,9.06126749 21.8187812,9.44238683 21.9776711,9.83399177 L21.9033959,8.69673251 Z" id="Fill-68" fill="#FFFFFF"></path>
                        <path d="M21.9776817,9.83403457 C21.8187917,9.44232263 21.639645,9.06131029 21.4408743,8.69270947 L21.4134431,8.69249547 C21.6220257,9.06516214 21.8109844,9.45066831 21.9786312,9.84751605 L21.9776817,9.83403457 Z" id="Fill-70" fill="#FFFFFF"></path>
                        <path d="M21.9885064,10.0001671 L21.978589,9.84759095 C21.8109422,9.45063621 21.6219835,9.06523704 21.4135064,8.69246337 L21.3604376,8.69203539 C21.5957128,9.11242222 21.8057725,9.54928642 21.9885064,10.0001671" id="Fill-72" fill="#FFFFFF"></path>
                        <polygon id="Fill-74" fill="#FFFFFF" points="5.88009771 1.28820905 4.74328578 1.3021716 4.72376743 1.65699095 5.88009771 1.63705967"></polygon>
                        <path d="M6.78664798,3.4477177 L6.63462853,3.09281235 L6.61991697,3.79952016 C6.67524523,3.77309218 6.7307867,3.74677119 6.78664798,3.72130617 L6.78664798,3.4477177 Z" id="Fill-76" fill="#FFFFFF"></path>
                        <path d="M6.7866667,3.80599605 L6.7866667,3.72129547 C6.73080541,3.74652543 6.67526394,3.77260346 6.61993569,3.79878749 L6.61812339,3.88264 C6.67398468,3.85677399 6.73016578,3.83101399 6.7866667,3.80599605" id="Fill-78" fill="#FFFFFF"></path>
                        <path d="M20.2196587,6.86839753 L20.1534018,5.57781317 L18.9856771,5.57781317 C19.4291128,5.97498189 19.8420578,6.4062823 20.2196587,6.86839753" id="Fill-80" fill="#FFFFFF"></path>
                        <path d="M20.2241849,6.95700082 L20.2196482,6.86840823 C19.8420472,6.406293 19.4291023,5.97499259 18.9856665,5.57782387 L18.8753087,5.57782387 C19.3617904,5.99874568 19.813139,6.46011193 20.2241849,6.95700082" id="Fill-82" fill="#FFFFFF"></path>
                        <path d="M20.2276876,7.02439753 L20.224206,6.95699012 C19.8131601,6.46010123 19.3618115,5.99873498 18.8753298,5.57781317 L18.8225775,5.57781317 C19.3312151,6.01778025 19.8017656,6.50161564 20.2276876,7.02439753" id="Fill-84" fill="#FFFFFF"></path>
                        <polygon id="Fill-86" fill="#FFFFFF" points="6.14230826 2.1528963 4.29967064 2.18478107 4.22623945 4.10460823 6.10232202 4.06405679"></polygon>
                        <path d="M21.0316431,19.4725449 C20.5447394,20.4157136 19.9269046,21.2786354 19.2026156,22.0365942 C19.2224505,22.0352033 19.2417578,22.0322074 19.2614872,22.0302815 C19.9761752,21.2812033 20.5868358,20.42973 21.0700468,19.4998288 C21.0568587,19.4905202 21.0453587,19.4820675 21.0316431,19.4725449" id="Fill-88" fill="#000000"></path>
                        <path d="M19.9940161,21.8206551 C20.1236812,21.7551737 20.2498647,21.6752477 20.371617,21.5764905 C20.716617,21.1356675 21.0304931,20.6688444 21.3101858,20.1794453 C21.3538647,20.0481613 21.3902638,19.9122765 21.417695,19.771256 C21.0165665,20.5074947 20.5383142,21.1943012 19.9940161,21.8206551" id="Fill-90" fill="#000000"></path>
                        <path d="M21.0700784,19.4998609 C20.5868674,20.4297621 19.9762069,21.2812354 19.2614133,22.0303136 C19.5164179,22.0049556 19.761294,21.9381901 19.9940372,21.8206016 C20.5383353,21.1942477 21.0165876,20.5074412 21.4177161,19.7713095 C21.4184546,19.7675646 21.4195096,19.7641407 21.4201427,19.7606099 C21.3449179,19.7005852 21.2262252,19.6101737 21.0700784,19.4998609" id="Fill-92" fill="#000000"></path>
                        <path d="M1.41541789,19.8730412 C1.40328486,19.8829918 1.38935826,19.8941193 1.37838578,19.903321 C1.73667936,20.5719383 2.15827569,21.2007531 2.63441789,21.7819547 C2.66511972,21.7991811 2.69613807,21.8145885 2.72726193,21.8299959 C2.2274867,21.2266461 1.78689954,20.5714033 1.41541789,19.8730412" id="Fill-94" fill="#000000"></path>
                        <path d="M1.53339312,19.7783284 C1.48939771,19.8129951 1.4500445,19.8445588 1.41543899,19.8730198 C1.78692064,20.5714889 2.2275078,21.2267317 2.72717752,21.8299745 C2.84143899,21.8863613 2.95876009,21.9303366 3.0786133,21.9635053 C2.48367294,21.3012008 1.96437936,20.568065 1.53339312,19.7783284" id="Fill-96" fill="#000000"></path>
                        <path d="M1.53339312,19.7783284 C1.96437936,20.568065 2.48367294,21.3012008 3.0786133,21.9635053 C3.26155826,22.0140074 3.45051697,22.0396864 3.64517294,22.0428963 C2.93618211,21.3020568 2.32900321,20.4608551 1.84653073,19.5422955 C1.72319587,19.631316 1.6203289,19.709851 1.53339312,19.7783284" id="Fill-98" fill="#000000"></path>
                        <path d="M19.6410294,7.23170206 L19.6936761,7.23170206 C19.2451761,6.7028214 18.747933,6.21770206 18.2093321,5.78319177 L18.2113367,5.82802305 C18.7289422,6.25108477 19.2078275,6.7209037 19.6410294,7.23170206" id="Fill-100" fill="#FFFFFF"></path>
                        <path d="M18.2093005,5.78323457 C18.7479014,6.21774486 19.2451445,6.7028642 19.6936445,7.23174486 L20.2382592,7.23174486 L20.2277087,7.02438683 C19.8017867,6.50160494 19.3312362,6.01776955 18.8224931,5.57790947 L18.1994885,5.57790947 L18.2093005,5.78323457 Z" id="Fill-102" fill="#FFFFFF"></path>
                        <path d="M1.23195266,19.3525774 C1.25050298,19.3378687 1.27064332,19.3223074 1.29067767,19.3067461 C1.2689473,19.2627267 1.24711092,19.2187074 1.22591055,19.1742617 C1.22697057,19.2341621 1.22792459,19.2940626 1.23195266,19.3525774" id="Fill-104" fill="#000000"></path>
                        <path d="M1.30376395,18.3383778 C1.24484836,18.6286576 1.2213245,18.9074889 1.22598689,19.1742296 C1.24707359,19.2188469 1.26890203,19.2630362 1.2906245,19.3073325 C1.38313047,19.2350033 1.49025937,19.1543284 1.61264698,19.0663778 C1.50127955,18.8282049 1.39828322,18.5854313 1.30376395,18.3383778" id="Fill-106" fill="#000000"></path>
                        <path d="M17.3317766,5.14450123 C15.6414876,4.03923374 13.6301482,3.39715144 11.4736344,3.39715144 C11.4631894,3.39715144 11.4527445,3.39747243 11.442405,3.39757942 C13.6132674,3.40185926 15.6361069,4.05678107 17.3317766,5.17980988 L17.3317766,5.14450123 Z" id="Fill-108" fill="#000000"></path>
                        <path d="M11.4433018,2.80902716 C11.435811,2.80902716 11.4283202,2.80870617 11.4208294,2.80870617 C9.96718716,2.80870617 8.57621468,3.08603951 7.29623303,3.5905251 L7.29623303,3.61096132 C8.58180642,3.09673909 9.98069174,2.81298601 11.4433018,2.80902716" id="Fill-110" fill="#000000"></path>
                        <path d="M7.29627523,4.22468971 C8.56844954,3.6919572 9.9612156,3.39718354 11.4208716,3.39718354 C11.4280459,3.39718354 11.4351147,3.39750453 11.4423945,3.39761152 C11.4527339,3.39750453 11.4631789,3.39718354 11.4736239,3.39718354 C13.6301376,3.39718354 15.6414771,4.03926584 17.3317661,5.14453333 L17.3317661,4.98350453 C17.273422,4.96670617 17.2217248,4.93011358 17.1875413,4.8774716 C17.1401697,4.8047144 17.1320459,4.71269794 17.1660183,4.63255802 L17.249578,4.43440165 C15.548211,3.40617119 13.5627202,2.8132 11.443344,2.80902716 C9.98062844,2.81298601 8.58184862,3.09673909 7.29627523,3.61096132 L7.29627523,4.22468971 Z" id="Fill-112" fill="#000000"></path>
                        <g id="Group-116" transform="translate(3.270642, 22.549383)">
                            <mask id="mask-4" fill="white">
                                <use xlink:href="#path-3"></use>
                            </mask>
                            <g id="Clip-115"></g>
                            <path d="M0.116909633,0.0130855967 C0.0978133028,0.0112666667 0.0785059633,0.0104106996 0.059409633,0.00816378601 C2.12888211,2.11673169 4.99185459,3.42390041 8.15023991,3.42390041 C8.15910229,3.42390041 8.16775367,3.42357942 8.17651055,3.42357942 C5.03099679,3.4163037 2.18036835,2.11287984 0.116909633,0.0130855967" id="Fill-114" fill="#000000" mask="url(#mask-4)"></path>
                        </g>
                        <path d="M11.4481445,25.3844848 C11.4566904,25.3844848 11.4651307,25.3848058 11.4735711,25.3848058 C14.2585757,25.3848058 16.8012362,24.3139909 18.7232133,22.5574395 C18.7072821,22.5558346 18.6913509,22.5548716 18.6753142,22.5530527 C16.7590344,24.3065012 14.2246032,25.37753 11.4481445,25.3844848" id="Fill-117" fill="#000000"></path>
                        <path d="M19.2860803,22.5660206 C17.2506858,24.5240453 14.5006032,25.7255021 11.4735711,25.7255021 C8.45170872,25.7255021 5.70563532,24.5278971 3.67129587,22.5755432 C3.66623165,22.5755432 3.66106193,22.5761852 3.65599771,22.5761852 C3.56568578,22.5761852 3.47632339,22.5708354 3.38759404,22.5624897 C5.45094725,24.662284 8.30168119,25.9656008 11.4470894,25.9728765 C14.6067408,25.9656008 17.4687638,24.6504074 19.5343326,22.5340288 C19.45225,22.5485802 19.3695344,22.5590658 19.2860803,22.5660206" id="Fill-119" fill="#000000"></path>
                        <path d="M18.7232239,22.5573967 C16.8012468,24.3139481 14.2585862,25.384763 11.4735817,25.384763 C11.4651413,25.384763 11.4567009,25.384442 11.448155,25.384442 C11.4390817,25.384442 11.4300083,25.384763 11.4208294,25.384763 C8.62590734,25.384763 6.07470092,24.3063514 4.15019174,22.5384584 C3.98855872,22.5616765 3.82871927,22.57473 3.67130642,22.575479 C5.70564587,24.5279399 8.45171927,25.7255449 11.4735817,25.7255449 C14.5006138,25.7255449 17.2506963,24.5240881 19.2860908,22.5660634 C19.2073844,22.5725901 19.128256,22.576121 19.0482835,22.576121 C18.9410908,22.576121 18.8325266,22.5684173 18.7232239,22.5573967" id="Fill-121" fill="#000000"></path>
                        <path d="M6.61750092,3.90842498 C6.67378862,3.88203467 6.72996972,3.85553837 6.78668385,3.82999594 L6.78668385,3.80678519 C6.73018294,3.83179769 6.67400183,3.85755209 6.61814055,3.88341247 L6.61750092,3.90842498 Z" id="Fill-123" fill="#FFFFFF"></path>
                        <path d="M6.67031202,4.06631235 C6.6835311,4.06993621 6.69749642,4.07196132 6.70964945,4.07739712 C6.72691954,4.08517778 6.74120468,4.09711523 6.75623606,4.10841317 C6.76593716,4.11587407 6.77734394,4.11960453 6.78640541,4.12855761 C6.78640541,4.12855761 6.78640541,4.12877078 6.78672523,4.12909053 L6.78672523,3.83022798 C6.7300111,3.85591481 6.67383,3.88256091 6.61754229,3.90910041 L6.61455734,4.05469465 C6.63417275,4.05544074 6.65176266,4.06108971 6.67031202,4.06631235" id="Fill-125" fill="#FFFFFF"></path>
                        <path d="M20.2781151,7.98233663 C20.2223784,7.90442346 20.1654761,7.82725638 20.1077261,7.75083539 L20.0547445,7.75083539 C20.1323096,7.85347613 20.2082853,7.9572893 20.2822477,8.06270123 L20.2781151,7.98233663 Z" id="Fill-127" fill="#FFFFFF"></path>
                        <path d="M20.2668404,7.75084609 L20.1074651,7.75084609 C20.1655651,7.82726708 20.2228123,7.90432757 20.2788868,7.98234733 L20.2668404,7.75084609 Z" id="Fill-129" fill="#FFFFFF"></path>
                        <g id="Group-133" transform="translate(22.788991, 13.347737)">
                            <mask id="mask-6" fill="white">
                                <use xlink:href="#path-5"></use>
                            </mask>
                            <g id="Clip-132"></g>
                            <path d="M0.0247055174,1.43658025 L0.0379557468,1.63890947 C0.0480259211,1.44160905 0.0530080073,1.24302469 0.0530080073,1.04326337 C0.0530080073,0.706226337 0.0379557468,0.37282716 0.00965325688,0.0431728395 C0.0286275853,0.31408642 0.0389097633,0.587460905 0.0389097633,0.863296296 C0.0389097633,1.0555679 0.0339276771,1.24666255 0.0247055174,1.43658025" id="Fill-131" fill="#000000" mask="url(#mask-6)"></path>
                        </g>
                        <path d="M22.8142972,14.7843169 C22.8235161,14.5943992 22.8284963,14.4033045 22.8284963,14.2110329 C22.8284963,13.9351975 22.8182179,13.661823 22.7992505,13.3909095 C22.7669317,13.012679 22.7170229,12.6393704 22.6495243,12.2722675 L22.8142972,14.7843169 Z" id="Fill-134" fill="#000000"></path>
                        <path d="M0.36802844,17.0951284 L0.312715596,17.0850708 C0.42863945,17.5751119 0.575822477,18.0530626 0.751509633,18.5168897 C0.755960092,18.4847909 0.76263578,18.4519432 0.767722018,18.4196305 C0.609200917,17.989507 0.475581193,17.5474 0.36802844,17.0951284" id="Fill-136" fill="#000000"></path>
                        <path d="M0.39561687,17.0113564 C0.429113449,17.0113564 0.452009846,17.0263848 0.467698117,17.046849 C0.442681684,16.948365 0.419361281,16.849135 0.397100895,16.7495852 C0.396464884,16.8416741 0.392118809,17.0113564 0.39561687,17.0113564" id="Fill-138" fill="#000000"></path>
                        <path d="M0.340589908,16.6665419 C0.352568116,16.6773547 0.367090367,16.6845633 0.384262664,16.6877435 C0.372708464,16.6349514 0.360730257,16.5824774 0.34991807,16.5294733 L0.340589908,16.6665419 Z" id="Fill-140" fill="#000000"></path>
                        <path d="M0.484931193,17.116335 L0.367841743,17.0951498 C0.475288532,17.5474214 0.60901422,17.9895284 0.767535321,18.4196519 C0.780462844,18.3395119 0.795615596,18.258623 0.813099541,18.1770922 C0.687321101,17.8310675 0.577755046,17.4771251 0.484931193,17.116335" id="Fill-142" fill="#000000"></path>
                        <path d="M0.975065138,11.4536527 L0.689388073,11.4603297 L0.974429358,11.4557724 C0.974641284,11.4550305 0.974853211,11.4543946 0.975065138,11.4536527" id="Fill-144" fill="#000000"></path>
                        <path d="M0.614859633,15.2588436 L0.613910092,15.2602346 C0.585845872,14.9528354 0.536997248,13.7353292 0.536997248,13.7353292 L0.689345872,11.4603827 L0.34983211,16.5294198 C0.360699083,16.5829177 0.372515596,16.6359877 0.384015596,16.6891646 C0.388024771,16.6899136 0.391506422,16.6910905 0.395621101,16.6914115 C0.397098165,16.6914115 0.39720367,16.7152716 0.397098165,16.7496173 C0.419254128,16.8495514 0.442465138,16.9490576 0.46736422,17.0480288 C0.483295413,17.069214 0.491524771,17.09607 0.495850459,17.1183251 L0.501125688,17.1193951 C0.500281651,17.1344815 0.499965138,17.1443251 0.499859633,17.1510658 C0.500492661,17.1628354 0.499648624,17.1652963 0.499859633,17.1510658 C0.499437615,17.1431481 0.498382569,17.1318066 0.495850459,17.1183251 L0.484455963,17.1162922 C0.576877982,17.4770823 0.685969725,17.8310247 0.811098165,18.1770494 C0.860263303,17.9480782 0.926309174,17.7142922 1.01514404,17.4751564 C0.809726606,16.7634198 0.674153211,16.0218313 0.614859633,15.2588436" id="Fill-146" fill="#000000"></path>
                        <path d="M22.2614362,14.3909679 C22.2614362,15.5393547 22.0866151,16.6469761 21.7630326,17.6884741 C21.7724225,17.717363 21.7794913,17.7457169 21.7882482,17.7743918 C22.0858766,16.8434206 22.2639683,15.8587374 22.3044821,14.8384247 L22.2582711,14.129363 C22.2601702,14.2163506 22.2614362,14.3035523 22.2614362,14.3909679" id="Fill-148" fill="#000000"></path>
                        <path d="M21.96615,18.6166848 C21.9727968,18.6751045 21.9803931,18.7337383 21.9847188,18.7913021 C22.1920353,18.2813597 22.3644298,17.753335 22.4990537,17.2100099 C22.4808014,17.1847588 22.4690904,17.155121 22.4607555,17.1238782 C22.3289803,17.6362815 22.1631271,18.1346683 21.96615,18.6166848" id="Fill-150" fill="#000000"></path>
                        <path d="M22.3045032,14.8384354 C22.2639894,15.8587481 22.0858977,16.8434313 21.7881638,17.7744025 C21.8763656,18.0631844 21.9347096,18.3443695 21.96615,18.6166741 C22.1631271,18.1346576 22.3289803,17.6362708 22.4607555,17.1238675 C22.4563243,17.1071761 22.4514711,17.0905918 22.4504161,17.0726165 L22.3045032,14.8384354 Z" id="Fill-152" fill="#000000"></path>
                        <path d="M21.2626454,18.9955753 C21.2766326,19.0052745 21.2891362,19.014121 21.3025936,19.023607 C21.3546216,18.9114802 21.405378,18.798714 21.4536972,18.6845621 C21.4497766,18.6501354 21.4479752,18.6165613 21.442995,18.5818148 C21.3856688,18.7212272 21.3255876,18.8591473 21.2626454,18.9955753" id="Fill-154" fill="#000000"></path>
                        <path d="M21.4803014,19.1511695 C21.4822087,19.0000329 21.4717183,18.8438868 21.4534927,18.6849695 C21.4051734,18.7991214 21.3545229,18.9118877 21.302389,19.0240144 C21.3667087,19.068993 21.4271078,19.1120531 21.4803014,19.1511695" id="Fill-156" fill="#000000"></path>
                        <path d="M2.16343486,7.61992593 C1.59128349,8.42228807 1.11609083,9.3001893 0.75969633,10.2381152 L0.750095413,10.4039588 C0.786494495,10.3037037 0.824581651,10.2044115 0.863512844,10.1055473 C1.19711835,9.21919342 1.6353844,8.38558848 2.16343486,7.61992593" id="Fill-158" fill="#FFFFFF"></path>
                        <path d="M5.38090275,4.59881152 L5.32625138,4.59998848 C4.09142569,5.39325597 3.01802202,6.42137942 2.16343486,7.61994733 C1.6353844,8.38560988 1.19711835,9.21921481 0.863512844,10.1055687 C1.76262294,7.82398848 3.35753578,5.89816955 5.38090275,4.59881152" id="Fill-160" fill="#FFFFFF"></path>
                        <path d="M0.864020209,10.1055473 C0.824905532,10.2040313 0.786744872,10.3030481 0.750174239,10.4028111 L0.74911422,10.4219963 C0.785896857,10.3158383 0.824163519,10.2103198 0.864020209,10.1055473" id="Fill-162" fill="#FFFFFF"></path>
                        <path d="M1.13084037,10.9307424 C2.01454679,8.23498107 3.90128532,5.99983704 6.34023486,4.68186173 L6.34234495,4.57796872 L5.38088165,4.59883292 C3.35751468,5.89808395 1.76260183,7.82390288 0.863491743,10.1055901 C0.823822018,10.2107671 0.785734862,10.316586 0.749124771,10.4232609 L0.719372477,10.940479 L1.13084037,10.9307424 Z" id="Fill-164" fill="#FFFFFF"></path>
                        <path d="M22.1972472,13.1968831 L22.1509307,12.4854675 C21.9251509,11.1812947 21.4717977,9.95565679 20.834339,8.85188724 L20.8396142,8.95278436 C21.5593665,10.2299942 22.0335041,11.666842 22.1972472,13.1968831" id="Fill-166" fill="#FFFFFF"></path>
                        <path d="M20.8258881,8.68738107 L20.8343284,8.85194074 C21.4717872,9.95560329 21.9251404,11.1812412 22.1509202,12.485521 L21.9885486,10.0002206 C21.8057092,9.54923292 21.595755,9.11247572 21.3603743,8.69198189 L20.8258881,8.68738107 Z" id="Fill-168" fill="#FFFFFF"></path>
                        <path d="M20.8861651,7.91395967 C20.8506545,7.86137959 20.8140839,7.80954156 20.7777252,7.75759753 L20.7858874,7.9131116 L20.8861651,7.91395967 Z" id="Fill-170" fill="#000000"></path>
                        <path d="M15.3930243,20.6911317 C14.0389784,19.9704074 12.638405,19.2248601 11.3518821,19.2248601 C10.0651482,19.2248601 8.66510229,19.9704074 7.31084541,20.6911317 C6.02179037,21.3775103 4.77662523,22.0378889 3.69678578,22.0417407 C3.85768028,22.2099383 4.02342798,22.373428 4.19455642,22.5309259 C5.26395092,22.3652963 6.4159555,21.7536008 7.54865275,21.150572 C8.84804725,20.4587366 10.1915427,19.7434691 11.3520931,19.7434691 C12.5125381,19.7434691 13.856139,20.4587366 15.1553225,21.150572 C16.3473133,21.7850576 17.5598775,22.4291728 18.675272,22.5530741 C18.8567399,22.3870165 19.0325106,22.2146461 19.2025839,22.0366049 C18.0787491,22.1200617 16.7601528,21.4189177 15.3930243,20.6911317" id="Fill-172" fill="#000000"></path>
                        <path d="M3.69675413,22.0416979 C3.67966239,22.0416979 3.66214862,22.0430835 3.64516239,22.0428704 C3.80837798,22.2126593 3.97644679,22.3775453 4.15021284,22.5365691 C4.16487798,22.5344374 4.17985963,22.5313465 4.19463028,22.5291082 C4.02350183,22.3721095 3.85764862,22.2092486 3.69675413,22.0416979" id="Fill-174" fill="#000000"></path>
                        <path d="M5.46848211,0.628729218 L5.47945459,0.641996708 L6.15004174,0.641996708 L5.68983073,0.0917168724 C5.6453078,0.0385399177 5.58179404,0.00590617284 5.51321606,0.000663374486 C5.44368853,-0.00425843621 5.37722064,0.0185316872 5.3256289,0.0647539095 L4.67899128,0.641996708 L5.45360596,0.641996708 L5.46848211,0.628729218 Z" id="Fill-176" fill="#000000"></path>
                        <path d="M22.1972472,13.1968831 L22.2585163,14.1293523 C22.2512022,13.8151053 22.2303198,13.5041753 22.1972472,13.1968831" id="Fill-178" fill="#000000"></path>
                        <path d="M11.3519138,16.2092239 C6.29434037,16.2092239 3.04501009,18.0415284 1.65076697,19.0381951 C1.72514771,19.1992239 1.8032211,19.3582198 1.88498716,19.5149687 C3.18997339,18.5811086 6.40248257,16.7278329 11.3519138,16.7278329 C16.5429505,16.7278329 19.8469321,18.6446642 21.0316431,19.4725984 C21.1123541,19.3162774 21.189267,19.1578165 21.2626982,18.9972156 C19.9783908,18.0995202 16.6452899,16.2092239 11.3519138,16.2092239" id="Fill-180" fill="#000000"></path>
                        <path d="M1.61097064,19.0663992 C1.68609862,19.227214 1.76493532,19.3858889 1.84748073,19.5423169 C1.85987844,19.5334362 1.87354771,19.5239136 1.8862633,19.5149259 C1.80403578,19.358177 1.72562294,19.1992881 1.65091881,19.0381523 C1.63777936,19.0474609 1.62368624,19.0573045 1.61097064,19.0663992" id="Fill-182" fill="#000000"></path>
                        <path d="M21.9033959,8.69673251 L21.9776711,9.83399177 C22.0141757,9.92397531 22.0495197,10.0143868 22.0838087,10.1055473 C22.3091665,10.6773333 22.4904234,11.2714815 22.6242032,11.8837119 L22.4099234,8.60225514 L22.5833729,8.32834568 C22.6334876,8.24895473 22.6372858,8.14805761 22.5930794,8.06470782 C22.5485564,7.98167901 22.4634142,7.92957202 22.3702537,7.92882305 L20.9814968,7.91630453 C21.1441849,8.16849383 21.297694,8.42731687 21.4408638,8.69266667 L21.9033959,8.69673251 Z" id="Fill-184" fill="#000000"></path>
                        <path d="M21.4134853,8.69244198 L21.4409165,8.69265597 C21.2976413,8.42730617 21.1441321,8.16848313 20.981444,7.91629383 L20.9387147,7.91586584 C21.106889,8.16784115 21.2649349,8.42709218 21.4134853,8.69244198" id="Fill-186" fill="#000000"></path>
                        <path d="M22.0843089,10.1044498 C22.0498584,10.0137465 22.0143477,9.92357613 21.9776711,9.83404527 L21.9786251,9.8474749 C22.0148777,9.9326358 22.0500704,10.018223 22.0843089,10.1044498" id="Fill-188" fill="#000000"></path>
                        <path d="M22.6392482,12.1141169 L22.624161,11.8837547 C22.4904867,11.2715243 22.3091243,10.6772691 22.0837665,10.1054831 C22.3261106,10.7493844 22.5134867,11.4207835 22.6392482,12.1141169" id="Fill-190" fill="#000000"></path>
                        <path d="M21.9786101,9.84755885 L21.9885275,10.000135 C22.2820413,10.7239621 22.505289,11.4841679 22.6495138,12.2722996 L22.6392798,12.1141597 C22.5134128,11.4208263 22.3261422,10.7493202 22.0837982,10.1055259 C22.0497202,10.0189663 22.0146927,9.93294156 21.9786101,9.84755885" id="Fill-192" fill="#000000"></path>
                        <path d="M21.3604271,8.69202469 L21.4134959,8.69245267 C21.2649454,8.42699588 21.1068995,8.16785185 20.9387252,7.91587654 L20.8856564,7.91544856 C21.0538307,8.16731687 21.2119821,8.4265679 21.3604271,8.69202469" id="Fill-194" fill="#000000"></path>
                        <path d="M0.0133568807,13.8267933 L0.0134628826,13.8278532 C0.0146289028,13.8059143 0.0161129284,13.7840813 0.0172789486,13.7621424 L0.0133568807,13.8267933 Z" id="Fill-196" fill="#000000"></path>
                        <path d="M4.29969174,2.18481317 L6.14232936,2.1529284 L6.10234312,4.06408889 L4.22626055,4.10453333 L4.29969174,2.18481317 Z M4.74323303,1.30220412 L5.88004495,1.28818765 L5.88004495,1.63849218 L4.72382018,1.65839342 L4.74323303,1.30220412 Z M1.0787422,4.69161975 L5.2163156,4.60227819 C5.66312752,4.30247572 6.1317789,4.03380905 6.61984312,3.79948807 L6.63450826,3.09278025 L6.7849578,3.4476856 L6.7849578,3.72127407 C6.95313211,3.64380905 7.12373303,3.57030288 7.29623303,3.50107654 L7.29623303,3.39450864 C7.29623303,3.3592 7.28937523,3.32442634 7.27555413,3.29200658 L6.93382477,2.48440165 L6.93382477,1.88907654 C6.93382477,1.83975144 6.92000367,1.7914963 6.89362752,1.7497679 L6.35122844,0.886311111 C6.34521468,0.876253498 6.33825138,0.866944856 6.33054954,0.857850206 L6.15003119,0.642039506 L5.47954954,0.642039506 L5.5889578,0.773002469 L5.30272385,0.776640329 L5.45370092,0.642039506 L4.67898073,0.642039506 L4.51734771,0.786269959 L4.49793486,0.786483951 C4.36341651,0.787981893 4.25316422,0.89519177 4.24567339,1.03161152 L4.21085688,1.66748807 L4.04901284,1.67037695 C3.91343945,1.67262387 3.80318716,1.78218765 3.79770092,1.91967737 L3.71382477,4.11598189 L0.831333945,4.1782535 C0.698081651,4.18114239 0.589306422,4.2874963 0.581499083,4.4226321 L0.0302376147,13.5487391 C0.112847706,12.3900807 0.364370642,11.2781794 0.75969633,10.2380724 L1.0787422,4.69161975 Z" id="Fill-198" fill="#000000"></path>
                        <path d="M6.78492615,3.80560947 C6.95331147,3.72982798 7.12370138,3.65788354 7.29630688,3.59020247 L7.29630688,3.50109794 C7.12370138,3.57005802 6.95320596,3.64328148 6.78492615,3.72044856 L6.78492615,3.80560947 Z" id="Fill-200" fill="#000000"></path>
                        <path d="M6.61811284,3.88416461 L6.61990642,3.79942387 C6.1318422,4.03385185 5.66308532,4.30251852 5.2163789,4.60232099 L5.32631468,4.59996708 C5.73968165,4.33440329 6.17119541,4.09516049 6.61811284,3.88416461" id="Fill-202" fill="#000000"></path>
                        <path d="M0.324672703,16.9056387 L0.312694495,17.0843807 L0.368027453,17.0943996 C0.353081194,17.0316214 0.338664945,16.9687366 0.324672703,16.9056387" id="Fill-204" fill="#000000"></path>
                        <path d="M0.46881156,17.0465877 C0.45314055,17.0261235 0.430113761,17.0110951 0.396319817,17.0110951 C0.392801835,17.0110951 0.397172661,16.8413062 0.397812294,16.7492173 C0.393334862,16.7291794 0.389070642,16.7091416 0.384699817,16.6891037 C0.367429725,16.6860128 0.352824771,16.6786584 0.340778349,16.6677868 L0.324574312,16.9047239 C0.338646239,16.9678218 0.353144587,17.0307066 0.368282569,17.0934848 L0.486081651,17.1145885 C0.480111743,17.0919926 0.474568257,17.0692901 0.46881156,17.0465877" id="Fill-206" fill="#000000"></path>
                        <path d="M0.467322018,17.0480502 C0.473046117,17.0706251 0.478558213,17.0931999 0.484494316,17.1156688 L0.496048516,17.1176825 C0.491596439,17.0956376 0.483328295,17.0690353 0.467322018,17.0480502" id="Fill-208" fill="#000000"></path>
                        <path d="M0.39566475,16.6913582 C0.391530679,16.6911462 0.388032618,16.6898744 0.38411055,16.6891325 C0.388456626,16.7090577 0.392696699,16.7290889 0.397148776,16.7490141 C0.39736078,16.7150989 0.397148776,16.6913582 0.39566475,16.6913582" id="Fill-210" fill="#000000"></path>
                        <path d="M0.499880898,17.151023 C0.499668894,17.1652251 0.500516909,17.1626814 0.499880898,17.151023" id="Fill-212" fill="#000000"></path>
                        <path d="M0.50114,17.1193539 L0.495839908,17.1184 C0.498489954,17.1317541 0.499443971,17.1429886 0.499867978,17.1507255 C0.49997398,17.1440484 0.500291985,17.1342978 0.50114,17.1193539" id="Fill-214" fill="#000000"></path>
                        <path d="M19.8300936,4.14010947 L19.8746165,4.8724963 L18.3040752,4.8724963 L18.274745,4.10330288 L19.8300936,4.14010947 Z M20.1533596,5.57792016 L20.2196165,6.86839753 C20.4123734,7.10421646 20.5956349,7.34806008 20.7695064,7.59907243 L20.668855,5.63698189 L20.9034972,5.27383786 C20.954878,5.19423292 20.9592037,5.09215885 20.9143642,5.00838107 C20.8697358,4.92460329 20.783222,4.8724963 20.6894284,4.8724963 L20.3871578,4.8724963 L20.3355661,4.0195251 L20.4691349,3.75642222 C20.5097541,3.6762823 20.506378,3.58073498 20.4609055,3.50369794 C20.4151165,3.42666091 20.333456,3.37926173 20.2447266,3.37819177 L17.8784697,3.35112181 C17.7707495,3.35251276 17.6809651,3.41189547 17.6402404,3.50840576 L17.2959789,4.32446337 C17.8976716,4.68964033 18.4629651,5.10981317 18.9856349,5.57792016 L20.1533596,5.57792016 Z" id="Fill-216" fill="#000000"></path>
                        <path d="M18.8752982,5.57786667 L18.985656,5.57786667 C18.4629862,5.10975967 17.8975872,4.68969383 17.296,4.32451687 L17.2602339,4.40915062 C17.8322798,4.75153745 18.3725688,5.14303539 18.8752982,5.57786667" id="Fill-218" fill="#000000"></path>
                        <path d="M20.2241849,6.95700082 C20.4160977,7.18886091 20.5996757,7.4282107 20.7734417,7.67505021 L20.7695381,7.59908313 C20.5956665,7.34807078 20.4122995,7.10412016 20.2196482,6.86840823 L20.2241849,6.95700082 Z" id="Fill-220" fill="#000000"></path>
                        <path d="M18.8225459,5.57786667 L18.8752982,5.57786667 C18.3725688,5.14303539 17.8322798,4.75153745 17.2602339,4.40915062 L17.249578,4.43440165 C17.8061147,4.77079671 18.3322661,5.15362798 18.8225459,5.57786667" id="Fill-222" fill="#000000"></path>
                        <path d="M20.7776725,7.75758683 L20.7734523,7.675093 C20.5996862,7.4282535 20.4161083,7.1889037 20.2241954,6.95704362 L20.2276771,7.02434403 C20.4204339,7.26091193 20.6036954,7.50582551 20.7776725,7.75758683" id="Fill-224" fill="#000000"></path>
                        <path d="M18.6753142,22.5530634 C18.6913509,22.5548823 18.7072821,22.5557383 18.7232133,22.5574502 C18.9085849,22.3879687 19.0880482,22.2120675 19.2614977,22.0302815 C19.2417683,22.0322074 19.222461,22.0352033 19.2026261,22.0365942 C19.0325528,22.2146354 18.8567821,22.3870058 18.6753142,22.5530634" id="Fill-226" fill="#000000"></path>
                        <path d="M19.2860803,22.5660206 C19.3695344,22.5590658 19.45225,22.5485802 19.5343326,22.5340288 C19.8302729,22.2308025 20.1099656,21.9112058 20.371617,21.5765226 C20.2498647,21.6751728 20.1235757,21.7552058 19.9940161,21.8206872 C19.7688693,22.0796173 19.532961,22.3284897 19.2860803,22.5660206" id="Fill-228" fill="#000000"></path>
                        <path d="M19.9940161,21.8206551 C19.7612729,21.9382436 19.5165023,22.0049021 19.2614977,22.0302601 C19.0880482,22.2121531 18.9085849,22.3879473 18.7232133,22.5574288 C18.8325161,22.5684494 18.9411858,22.5761531 19.0482729,22.5761531 C19.1282454,22.5761531 19.2073739,22.5726222 19.2860803,22.5659885 C19.532961,22.3285646 19.7688693,22.0795852 19.9940161,21.8206551" id="Fill-230" fill="#000000"></path>
                        <path d="M6.61750092,3.90939424 L6.61813394,3.88414321 C6.17121651,4.09513909 5.73970275,4.33438189 5.32633578,4.59994568 L5.38088165,4.59876872 C5.77726239,4.34411852 6.19020734,4.11386337 6.61750092,3.90939424" id="Fill-232" fill="#000000"></path>
                        <path d="M7.29627523,3.61085103 L7.29627523,3.5906 C7.12366972,3.65828107 6.95327982,3.73011893 6.7848945,3.806007 L6.7848945,3.82934897 C6.95317431,3.75250165 7.12366972,3.67959794 7.29627523,3.61085103" id="Fill-234" fill="#000000"></path>
                        <path d="M6.34230275,4.57801152 L6.34019266,4.68190453 C6.65027064,4.51424198 6.96921101,4.36166584 7.29627523,4.22471111 L7.29627523,3.61087572 C7.12366972,3.67988807 6.95317431,3.75307325 6.7848945,3.83021728 L6.7848945,4.13023374 C6.78457798,4.13001975 6.78457798,4.12980576 6.78457798,4.12980576 C6.77561009,4.12071111 6.76442661,4.11696626 6.75472018,4.10947654 C6.73994954,4.09813498 6.72581193,4.08615144 6.70872018,4.07834074 C6.69658716,4.07288395 6.68287156,4.07085103 6.66978899,4.06721317 C6.65143119,4.06197037 6.63402294,4.05629959 6.61450459,4.05555062 L6.61745872,3.90939424 C6.19027064,4.11386337 5.77732569,4.34411852 5.38094495,4.59876872 L6.34230275,4.57801152 Z" id="Fill-236" fill="#000000"></path>
                        <path d="M21.0316431,19.4725449 C21.0454183,19.4820675 21.0569683,19.4905202 21.0702138,19.4998288 C21.1516995,19.3438288 21.2294766,19.1856889 21.303545,19.0253021 C21.2900876,19.0157794 21.2775839,19.0068988 21.2635968,18.9971621 C21.1899523,19.157763 21.112705,19.3162239 21.0316431,19.4725449" id="Fill-238" fill="#000000"></path>
                        <path d="M21.4422248,18.5818362 C21.447205,18.6167169 21.4489005,18.6504206 21.4529271,18.6849802 C21.5781757,18.3879597 21.6902849,18.0840914 21.7896784,17.7744453 C21.7808835,17.7456634 21.7738899,17.7173095 21.7644592,17.6884206 C21.669622,17.9921819 21.5618573,18.2900584 21.4422248,18.5818362" id="Fill-240" fill="#000000"></path>
                        <path d="M21.4177055,19.7712774 C21.3902743,19.9122979 21.3538752,20.0481827 21.3100908,20.1794667 C21.5643569,19.7345778 21.7897147,19.2709646 21.9846872,18.7913021 C21.9803615,18.7337383 21.9728706,18.6751045 21.9661183,18.6166848 C21.8040633,19.0132115 21.6208018,19.3985037 21.4177055,19.7712774" id="Fill-242" fill="#000000"></path>
                        <path d="M21.4528385,18.6849588 C21.4709853,18.8444897 21.4814303,19.0012387 21.4795312,19.1529588 C21.4265679,19.1136914 21.3664303,19.070465 21.302389,19.0253128 C21.2286413,19.1856996 21.1512009,19.3438395 21.0700679,19.4998395 C21.2263202,19.6101523 21.3450128,19.7005638 21.4201321,19.7605885 C21.4194991,19.7641193 21.418444,19.7676502 21.4177055,19.7712881 C21.6208018,19.3985144 21.8040633,19.0132222 21.9661183,18.6166955 C21.934678,18.344284 21.8764394,18.0632058 21.7882376,17.7744239 C21.6891688,18.08407 21.5776505,18.3879383 21.4528385,18.6849588" id="Fill-244" fill="#000000"></path>
                        <path d="M2.72721972,21.8299531 C2.69609587,21.8146527 2.66507752,21.7991383 2.63437569,21.7820189 C2.85488028,22.0510066 3.08688486,22.3098296 3.33007294,22.5575251 C3.34916927,22.559772 3.36847661,22.560735 3.38757294,22.5624469 C3.15725642,22.3281259 2.93717385,22.0835333 2.72721972,21.8299531" id="Fill-246" fill="#000000"></path>
                        <path d="M3.07866606,21.963484 C2.95870734,21.9303152 2.84149174,21.8863399 2.72723028,21.8299531 C2.9371844,22.0835333 3.15726697,22.3281259 3.38758349,22.5624469 C3.47641835,22.5708996 3.56567523,22.5761424 3.65609266,22.5761424 C3.66115688,22.5761424 3.6662211,22.5756074 3.67128532,22.5755004 C3.46650092,22.378949 3.26867982,22.1749078 3.07866606,21.963484" id="Fill-248" fill="#000000"></path>
                        <path d="M3.64513073,22.0428428 C3.45047477,22.0397399 3.26151606,22.0139539 3.07867661,21.9634519 C3.26869037,22.1748757 3.46651147,22.3789169 3.67129587,22.5755753 C3.82870872,22.5747193 3.98854817,22.5616658 4.15018119,22.5384477 C3.97652064,22.3789169 3.80834633,22.2133942 3.64513073,22.0428428" id="Fill-250" fill="#000000"></path>
                        <path d="M0.750137615,10.4039053 L0.759738532,10.2380617 C0.364412844,11.2781687 0.112889908,12.39007 0.0302798165,13.5487284 L0.0173027523,13.7621852 C0.0161422018,13.7843333 0.014559633,13.8062675 0.0135045872,13.8285226 L0.0551788991,14.1954115 C0.0770183486,12.8656667 0.320206422,11.5895267 0.750137615,10.4039053" id="Fill-252" fill="#000000"></path>
                        <path d="M0.11958945,14.2110436 C0.11958945,12.8838667 0.341676606,11.6095457 0.749135321,10.4232823 L0.750190367,10.403916 C0.32015367,11.5895374 0.0770711009,12.8656774 0.0552316514,14.1954222 L0.146704128,15.0006733 C0.129295872,14.7397103 0.11958945,14.4765004 0.11958945,14.2110436" id="Fill-254" fill="#000000"></path>
                        <path d="M0.269395413,16.0805399 L0.290171772,16.2633959 C0.283387655,16.3836593 0.263247306,16.59733 0.340946651,16.6678403 L0.350274813,16.5293877 C0.320170292,16.3808774 0.293669833,16.2310831 0.269395413,16.0805399" id="Fill-256" fill="#000000"></path>
                        <path d="M0.689356422,11.4603934 L0.973796789,11.4536527 C1.02190688,11.2775374 1.07434266,11.1032412 1.13089312,10.9307638 L0.719319725,10.9405004 L0.749072018,10.4232823 C0.341718807,11.6095457 0.119631651,12.8838667 0.119631651,14.2110436 C0.119631651,14.4765004 0.129232569,14.7397103 0.146640826,15.0006733 L0.269448165,16.0805827 C0.293608716,16.2310189 0.319879358,16.3809202 0.349842661,16.5294305 L0.689356422,11.4603934 Z" id="Fill-258" fill="#000000"></path>
                        <path d="M0.0172816514,13.7613428 L0.0303198771,13.548707 C0.0251257872,13.6193724 0.0210977174,13.6903576 0.0172816514,13.7613428" id="Fill-260" fill="#000000"></path>
                        <g id="Group-264" transform="translate(0.000000, 13.775720)">
                            <mask id="mask-8" fill="white">
                                <use xlink:href="#path-7"></use>
                            </mask>
                            <g id="Clip-263"></g>
                            <path d="M0.0529498624,0.615247737 C0.0529498624,0.549873251 0.0544333486,0.484819753 0.0553870183,0.419659259 L0.0135315138,0.0527703704 C0.00463059633,0.239157202 -3.17889908e-05,0.426613992 -3.17889908e-05,0.615247737 C-3.17889908e-05,1.54258107 0.109110413,2.44444938 0.31404344,3.30929712 L0.326017294,3.12986502 C0.147787018,2.31990617 0.0529498624,1.47859753 0.0529498624,0.615247737" id="Fill-262" fill="#000000" mask="url(#mask-8)"></path>
                        </g>
                        <path d="M0.291138073,16.2633959 L0.270369266,16.0805399 C0.212937156,15.7257416 0.171611468,15.3655934 0.147133945,15.0007374 L0.0551577982,14.1953794 C0.0542041284,14.2605399 0.0527206422,14.3255934 0.0527206422,14.3909679 C0.0527206422,15.2543177 0.147557798,16.0956263 0.325788073,16.9055852 L0.341894495,16.6678403 C0.264223394,16.59733 0.284356422,16.3837663 0.291138073,16.2633959" id="Fill-265" fill="#000000"></path>
                        <path d="M0.269973712,16.0805399 L0.146693578,15.0007374 C0.171180002,15.3655934 0.212520717,15.7257416 0.269973712,16.0805399" id="Fill-267" fill="#000000"></path>
                        <path d="M20.3716275,8.2004642 C20.5372482,8.44494979 20.6955573,8.69478519 20.8416807,8.95275226 L20.8363826,8.85185514 C20.690895,8.60105679 20.5357647,8.35657119 20.3716275,8.11893333 L20.3716275,8.2004642 Z" id="Fill-269" fill="#000000"></path>
                        <path d="M19.9576794,7.62197119 L20.0127803,7.62197119 C19.9094661,7.48938025 19.8030789,7.35934733 19.6939367,7.23165926 L19.641061,7.23165926 C19.7497794,7.35902757 19.854683,7.4897 19.9576794,7.62197119" id="Fill-271" fill="#000000"></path>
                        <path d="M19.6936761,7.23170206 C19.8023459,7.35977613 19.9082725,7.49031111 20.0111394,7.62352099 L20.3716486,7.62352099 L20.3716486,8.11891193 C20.5350752,8.35665679 20.6894284,8.60103539 20.8343917,8.85194074 L20.8258459,8.68738107 L21.3604376,8.69198189 C21.2119927,8.4265251 21.0538413,8.16738107 20.885667,7.91540576 L20.7858596,7.91454979 L20.7776303,7.75758683 C20.6036532,7.50582551 20.4204972,7.26091193 20.2277404,7.02445103 L20.2382908,7.23170206 L19.6936761,7.23170206 Z" id="Fill-273" fill="#000000"></path>
                        <path d="M20.2812822,8.06358436 C20.3125528,8.10813663 20.3413853,8.15460741 20.3720198,8.19958601 L20.3720198,8.11836872 C20.3407493,8.07307037 20.3091607,8.02798519 20.2771482,7.98321975 L20.2812822,8.06358436 Z" id="Fill-275" fill="#000000"></path>
                        <path d="M20.0557294,7.74952099 L20.1090322,7.74952099 C20.0767307,7.70737981 20.0446425,7.66513275 20.0117014,7.62352099 L19.9562665,7.62352099 C19.9894208,7.66555628 20.0231082,7.70706216 20.0557294,7.74952099" id="Fill-277" fill="#000000"></path>
                        <path d="M20.2662991,7.75035638 L20.2782729,7.98185761 C20.3102739,8.02662305 20.3418509,8.07170823 20.3732161,8.11700658 L20.3732161,7.62352099 L20.0111394,7.62352099 C20.0437761,7.66540864 20.0757771,7.7079358 20.1078839,7.75035638 L20.2662991,7.75035638 Z" id="Fill-279" fill="#000000"></path>
                        <path d="M22.2593602,14.1293844 L22.3060534,14.8384461 C22.3120233,14.6899358 22.3158611,14.5408905 22.3158611,14.3909893 C22.3158611,13.7412033 22.2590404,13.1045778 22.1508358,12.4854996 L22.1977422,13.1969152 C22.2310031,13.5042074 22.2520044,13.8150305 22.2593602,14.1293844" id="Fill-281" fill="#000000"></path>
                        <path d="M22.4607977,17.1238568 C22.4690628,17.1550996 22.4808248,17.1847374 22.4991564,17.2099885 C22.6774927,16.4927951 22.7899197,15.7494947 22.8283844,14.986614 L22.815139,14.7842848 C22.7761445,15.5886798 22.6551344,16.3711407 22.4607977,17.1238568" id="Fill-283" fill="#000000"></path>
                        <path d="M22.3141885,14.3909679 C22.3141885,14.5408691 22.3103904,14.6899144 22.3044821,14.8384247 L22.450395,17.0726058 C22.45145,17.0905811 22.4564087,17.1071654 22.4608399,17.1238568 C22.6543353,16.3711407 22.7747161,15.5886798 22.8135417,14.7842848 L22.6495876,12.2722354 C22.5053628,11.4842107 22.2820096,10.7240049 21.9884959,10.0001778 L22.1508674,12.4854782 C22.2579546,13.1045564 22.3141885,13.7411819 22.3141885,14.3909679" id="Fill-285" fill="#000000"></path>
                        <path d="M0.765805046,18.4196198 C0.760635321,18.4519325 0.754094037,18.4847802 0.749662844,18.516879 C0.929864679,18.9948296 1.13981881,19.4580148 1.37847018,19.9033317 C1.38933716,19.89413 1.40326376,19.8830025 1.41539679,19.8730519 C1.1673555,19.4067638 0.94991055,18.9213235 0.765805046,18.4196198" id="Fill-287" fill="#000000"></path>
                        <path d="M1.2903422,19.3072897 C1.27050734,19.3229111 1.25035596,19.3385325 1.23189266,19.3532979 C1.22788349,19.2944502 1.22693394,19.2343185 1.2259844,19.1742938 C1.07289725,18.8499893 0.93426422,18.5173391 0.811140367,18.1770922 C0.79373211,18.258623 0.778644954,18.3395119 0.765773394,18.4196519 C0.949878899,18.9213556 1.16732385,19.4067959 1.41547064,19.873084 C1.45007615,19.844516 1.48942936,19.8130593 1.53342477,19.7782856 C1.4489156,19.6234626 1.36788807,19.4663926 1.2903422,19.3072897" id="Fill-289" fill="#000000"></path>
                        <path d="M1.61097064,19.0663992 C1.48911284,19.1543498 1.38244771,19.2350247 1.2903422,19.3072469 C1.36788807,19.4664568 1.4489156,19.6235267 1.53342477,19.7783498 C1.62036055,19.7098724 1.72312202,19.6313374 1.84645688,19.5423169 C1.76426881,19.3858889 1.68577339,19.227214 1.61097064,19.0663992" id="Fill-291" fill="#000000"></path>
                        <path d="M1.30556514,18.3383778 C1.19758853,18.0560156 1.10095,17.7680897 1.01607339,17.475135 C0.926852294,17.7142708 0.860519266,17.9481638 0.811140367,18.177135 C0.934799541,18.5173819 1.07403532,18.8499251 1.22778807,19.1742296 C1.22312569,18.9074889 1.24664954,18.6286576 1.30556514,18.3383778" id="Fill-293" fill="#000000"></path>
                        <path d="M18.2113578,5.82805514 L18.2092477,5.78322387 C17.9277615,5.5561786 17.6349862,5.34272181 17.3317661,5.14445844 L17.3317661,5.17976708 C17.6359358,5.38113333 17.929344,5.59758601 18.2113578,5.82805514" id="Fill-295" fill="#000000"></path>
                        <path d="M18.1995096,5.57786667 L18.8225142,5.57786667 C18.3322344,5.15362798 17.806083,4.77079671 17.2495463,4.43440165 L17.1659867,4.63255802 C17.1320142,4.71269794 17.1401381,4.8047144 17.1875096,4.8774716 C17.2216931,4.93011358 17.2734959,4.96670617 17.3317344,4.98350453 L17.3317344,5.14453333 C17.6349546,5.34279671 17.9277298,5.5561465 18.2093216,5.78319177 L18.1995096,5.57786667 Z" id="Fill-297" fill="#000000"></path>
                        <path d="M1.10117248,11.4536527 L1.02615872,11.4549366 C0.770310092,12.3898667 0.633048624,13.3744428 0.633048624,14.3910107 C0.633048624,14.6588214 0.642966055,14.9243852 0.661640367,15.1874881 L1.66161284,13.6615128 L1.10117248,11.4536527 Z" id="Fill-299" fill="#FFFFFF"></path>
                        <path d="M0.633225229,14.3909679 C0.633225229,13.374507 0.77118945,12.3899309 1.02815046,11.4548938 L0.974956881,11.4557498 C0.718207798,12.3905728 0.580243578,13.374721 0.580243578,14.3909679 C0.580243578,14.6830667 0.592641284,14.9723835 0.614999541,15.2588115 L0.661941284,15.1874453 C0.643291743,14.9243424 0.633225229,14.6587786 0.633225229,14.3909679" id="Fill-301" fill="#FFFFFF"></path>
                        <path d="M0.975102752,11.4557391 L0.690061468,11.4603399 L0.536944495,13.7353934 C0.536944495,13.7353934 0.586005505,14.9528996 0.614297706,15.2602988 L0.615251376,15.2588008 C0.592893119,14.9723728 0.58038945,14.683163 0.58038945,14.3909572 C0.58038945,13.3747103 0.71835367,12.3905621 0.975102752,11.4557391" id="Fill-303" fill="#FFFFFF"></path>
                        <path d="M6.70045946,12.0399901 L6.69590138,12.2671214 C6.731836,12.253372 6.76734661,12.241328 6.80306923,12.2281115 L6.70045946,12.0399901 Z" id="Fill-305" fill="#FFFFFF"></path>
                        <polygon id="Fill-307" fill="#FFFFFF" points="19.4022995 8.65263951 19.3583087 7.7505572 19.4021935 8.65263951"></polygon>
                        <polygon id="Fill-309" fill="#FFFFFF" points="19.4036154 8.65263951 19.3594807 7.7505572 19.2470119 7.7505572 19.2907202 8.65263951"></polygon>
                        <path d="M18.7344495,7.7505893 L18.7778043,8.6526716 L18.7344495,7.7505893 Z" id="Fill-311" fill="#FFFFFF"></path>
                        <polygon id="Fill-313" fill="#FFFFFF" points="18.3023344 7.7505893 18.4649078 11.1438568 18.4649078 7.7505893"></polygon>
                        <path d="M19.0339665,14.0064568 L18.8570353,10.3117819 L18.5819849,10.3117819 L18.5819849,8.65259671 L18.7775904,8.65259671 L18.734439,7.7506214 L18.4632922,7.7506214 L18.4632922,11.1438889 L18.5821959,13.6504815 C18.7351775,13.7631481 18.8856271,13.8826626 19.0339665,14.0064568" id="Fill-315" fill="#FFFFFF"></path>
                        <polygon id="Fill-317" fill="#FFFFFF" points="7.28555596 7.22470453 6.82840459 5.82562634 6.72163394 10.9999473 7.27426697 12.022614"></polygon>
                        <path d="M19.4824665,10.3117498 L19.6911083,14.5980049 L19.4824665,10.3117498 Z" id="Fill-319" fill="#FFFFFF"></path>
                        <path d="M19.3697454,10.3117498 L19.5703339,14.4820214 C19.6113417,14.5206469 19.6513959,14.5592724 19.691556,14.5980049 L19.4829142,10.3117498 L19.3697454,10.3117498 Z" id="Fill-321" fill="#FFFFFF"></path>
                        <polygon id="Fill-323" fill="#FFFFFF" points="17.7228821 6.32814321 16.9639876 7.88033251 17.7968408 7.88782222"></polygon>
                        <path d="M18.0526894,13.2891457 L17.8334509,8.66168066 L16.8053087,8.652693 L16.9243179,12.6612938 C17.3031849,12.8434008 17.6814188,13.0517218 18.0526894,13.2891457" id="Fill-325" fill="#FFFFFF"></path>
                        <path d="M16.4067601,12.4275292 L16.3165853,9.40050864 L16.0496638,9.92254156 L16.1331628,12.3167885 C16.2240794,12.3525251 16.3153138,12.3892247 16.4067601,12.4275292" id="Fill-327" fill="#FFFFFF"></path>
                        <path d="M20.6732018,15.6916955 C20.5789862,15.5693992 20.4771743,15.4464609 20.3716697,15.3232016 L20.3716697,15.808642 L20.1080138,15.808642 C20.355844,16.1116543 20.5670642,16.4101728 20.7425183,16.7023786 C20.7456835,16.7094403 20.7501147,16.7154321 20.7538073,16.7221728 C21.1447018,17.3785926 21.3611972,18.0036626 21.4422248,18.5818683 C21.5613394,18.2900905 21.6687431,17.992107 21.7630642,17.6884527 C21.6392018,17.3067984 21.4638532,16.9127325 21.2278394,16.509144 L20.8395826,8.95277366 C20.6940917,8.69480658 20.5365734,8.44497119 20.3716697,8.2004856 L20.3716697,9.8227572 L20.6732018,15.6916955 Z" id="Fill-329" fill="#000000"></path>
                        <path d="M6.70043807,12.0399901 L6.80256651,12.2288379 C6.76701147,12.2421053 6.73166743,12.2541959 6.69590138,12.2679984 L6.70043807,12.0399901 Z M6.82841514,5.82556214 L7.28556651,7.22474733 L7.27417202,12.0225498 L6.7216445,10.9998831 L6.82841514,5.82556214 Z M16.3154931,9.40061564 L16.405172,12.4275292 C16.3141216,12.3892247 16.2233876,12.3525251 16.1327592,12.3167885 L16.0496216,9.92254156 L16.3154931,9.40061564 Z M17.8333876,8.66170206 L18.0527317,13.2891671 C17.681461,13.0517432 17.3031216,12.8434222 16.9242546,12.6613152 L16.8052454,8.65260741 L17.8333876,8.66170206 Z M17.7229243,6.32812181 L17.796883,7.88780082 L16.9639243,7.88031111 L17.7229243,6.32812181 Z M1.18402523,10.9294798 C1.12747477,11.1019572 1.0751445,11.2762535 1.0269289,11.4523687 L6.20340596,11.3296444 L6.17956193,12.4797432 C5.26409862,12.8774469 4.33544725,13.4173481 3.49436468,14.1538008 C2.21185092,15.2770436 1.44145642,16.3784593 1.0452867,17.398451 C1.12663073,17.6877679 1.21989679,17.971949 1.32339679,18.2511012 C1.57323165,17.1355621 2.32252523,15.865628 3.82870872,14.5465827 C6.88032339,11.8739325 11.3058188,11.8962947 11.3486537,11.8962947 L11.355195,11.8962947 L11.355195,11.8959737 C11.4043601,11.8980066 15.438117,11.8723276 18.46325,14.2080477 L18.46325,11.1438996 L18.3023555,7.7506321 L18.46325,7.7506321 L18.46325,7.62352099 L19.9563509,7.62352099 C19.8538005,7.4906321 19.7493509,7.35945514 19.6409977,7.23170206 L18.2779839,7.23170206 L18.2114106,5.82802305 C17.9293968,5.59766091 17.635883,5.38120823 17.3318188,5.17973498 L17.3318188,5.45514239 L16.1813968,7.94622058 C16.1607179,7.96665679 16.1422546,7.98955391 16.128961,8.01598189 L15.3374656,9.5834716 C15.2730023,9.71079671 15.322695,9.86722469 15.4484564,9.93259918 C15.4775757,9.9476856 15.5082775,9.95496132 15.5389794,9.9580642 L15.6142041,12.1255868 C13.4060986,11.366986 11.4826445,11.3756527 11.3506583,11.3771506 C11.2201491,11.3766156 9.67936009,11.3729778 7.78618578,11.9087062 L7.79715826,7.1837679 C7.79715826,7.15573498 7.79283257,7.12791605 7.78407569,7.10148807 L7.29622248,5.60878848 L7.29622248,4.24662387 C6.96894725,4.38571852 6.64979587,4.54064856 6.33961239,4.71045103 L6.21416743,10.8099654 L1.18402523,10.9294798 Z" id="Fill-331" fill="#000000"></path>
                        <path d="M6.33962294,4.70858272 C6.64970092,4.53943333 6.9689578,4.38509918 7.29623303,4.24653951 L7.29623303,4.22468971 C6.96927431,4.3611177 6.65022844,4.51321358 6.34025596,4.68012469 L6.33962294,4.70858272 Z" id="Fill-333" fill="#000000"></path>
                        <path d="M1.04546009,17.3983975 C1.03549954,17.4239695 1.02469128,17.4496486 1.01515459,17.4751136 C1.10013716,17.7681753 1.19677569,18.0559942 1.30464633,18.3383564 C1.31058028,18.3095745 1.31820963,18.2801506 1.32477936,18.2511547 C1.22072339,17.9720025 1.1271578,17.6878214 1.04546009,17.3983975" id="Fill-335" fill="#000000"></path>
                        <path d="M1.18492844,10.9294905 L1.13152294,10.9307745 C1.07483257,11.1032519 1.02216881,11.2775481 0.973849541,11.4536634 L1.02714908,11.4523794 C1.07557431,11.2762642 1.12813211,11.1019679 1.18492844,10.9294905" id="Fill-337" fill="#000000"></path>
                        <path d="M19.1419399,14.7868206 C19.1421509,14.7870346 19.1426784,14.7872486 19.142995,14.7877835 C19.5144766,15.1325243 19.833839,15.4734132 20.1079399,15.8086313 L20.3715959,15.8086313 L20.3715959,15.3231909 C20.3247518,15.2683021 20.2787518,15.2136272 20.2296922,15.1585243 L19.6901417,14.5979728 C19.6501555,14.5593473 19.6102748,14.5206148 19.5694445,14.4819893 L19.0340087,14.0064996 C18.8855638,13.8827053 18.7352197,13.763084 18.5821326,13.6505243 L18.4632289,11.1439317 L18.4632289,14.2080798 C18.602917,14.3158247 18.7402839,14.4282774 18.8751188,14.5462938 C18.9670133,14.6267547 19.0557427,14.7068947 19.1419399,14.7868206" id="Fill-339" fill="#000000"></path>
                        <path d="M19.247033,7.74926642 L19.3583404,7.74926642 L19.8709872,7.74947819 L20.0546706,7.74947819 C20.0224917,7.70701937 19.9890468,7.66551348 19.9563404,7.62347819 L18.4632394,7.62347819 L18.4632394,7.74926642 L18.7344917,7.74926642 L19.247033,7.74926642 Z" id="Fill-341" fill="#000000"></path>
                        <path d="M20.3720532,9.8227465 L20.3720532,8.2004749 C20.3414186,8.15521564 20.3124801,8.10867243 20.2813156,8.06394815 L20.3720532,9.8227465 Z" id="Fill-343" fill="#000000"></path>
                    </g>
                </g>
            </g>
        </g>
    </g>
</svg>