<?xml version="1.0" encoding="UTF-8"?>
<svg width="23px" height="27px" viewBox="0 0 23 27" version="1.1" xmlns="http://www.w3.org/2000/svg" xmlns:xlink="http://www.w3.org/1999/xlink">
    <!-- Generator: Sketch 50.2 (55047) - http://www.bohemiancoding.com/sketch -->
    <title>Group</title>
    <desc>Created with Sketch.</desc>
    <defs>
        <polygon id="path-1" points="0.0997903226 0.0619830709 3.89516129 0.0619830709 3.89516129 8.8869437 0.0997903226 8.8869437"></polygon>
        <polygon id="path-3" points="0.0809458065 0.0631592913 0.185524181 0.0631592913 0.185524181 0.27260811 0.0809458065 0.27260811"></polygon>
        <polygon id="path-5" points="0.0928790323 0.0631592913 0.185610968 0.0631592913 0.185610968 0.27260811 0.0928790323 0.27260811"></polygon>
        <polygon id="path-7" points="0 0.0405956693 1.31414793 0.0405956693 1.31414793 7.58443819 0 7.58443819"></polygon>
        <polygon id="path-9" points="0.0845806452 0.0945 4.40932258 0.0945 4.40932258 3.86477362 0.0845806452 3.86477362"></polygon>
        <polygon id="path-11" points="0.0326769585 0.0892566142 1.32618848 0.0892566142 1.32618848 0.210410357 0.0326769585 0.210410357"></polygon>
    </defs>
    <g id="Future-Project-Desktop" stroke="none" stroke-width="1" fill="none" fill-rule="evenodd">
        <g id="maps" transform="translate(-477.000000, -500.000000)">
            <g id="about-us/map" transform="translate(48.000000, 44.000000)">
                <g id="map-markers" transform="translate(417.000000, 317.000000)">
                    <g id="Group" transform="translate(12.000000, 139.000000)">
                        <circle id="Oval-12" fill="#FFFFFF" fill-rule="nonzero" cx="11" cy="15" r="11"></circle>
                        <g id="Group-167">
                            <path d="M16.6744276,5.79422598 C16.4659438,5.68196142 16.2530083,5.57681811 16.0366811,5.47785354 L16.0366811,5.79422598 L16.6744276,5.79422598 Z" id="Fill-1" fill="#AA59FA"></path>
                            <path d="M18.5182572,7.1669317 C18.5310442,7.14529145 18.5441482,7.12375676 18.5572522,7.10222207 C18.5338975,7.08227082 18.5104371,7.06263625 18.486871,7.04279055 L18.4693286,7.06379743 L18.5182572,7.1669317 Z" id="Fill-3" fill="#AA59FA"></path>
                            <path d="M10.1464184,4.55941772 C10.0229346,4.57439331 9.90019585,4.59156811 9.77788295,4.61062795 L9.86538618,4.75682323 L10.1464184,4.55941772 Z" id="Fill-5" fill="#AA59FA"></path>
                            <path d="M17.6220544,6.3765811 C17.4753641,6.27772126 17.3262253,6.1822126 17.1744253,6.09026457 L17.1629286,6.20389055 L17.6220544,6.3765811 Z" id="Fill-7" fill="#AA59FA"></path>
                            <path d="M13.6306161,4.53129094 L13.1350032,4.93788543 L12.6394963,5.57047205 L12.7746346,5.75118071 L12.9548189,5.75118071 L14.0360309,5.16377126 L14.2162152,5.52529488 L15.5595424,5.13411378 C14.8828972,4.82478307 14.1692613,4.58337756 13.4273258,4.41786969 L13.4504318,4.44093661 L13.6306161,4.53129094 Z" id="Fill-9" fill="#5CD8FF"></path>
                            <path d="M11.4232309,6.02222244 L11.5582631,5.84151378 L11.5582631,5.70598228 L11.9187378,5.16375 L12.2791065,4.35056102 L12.3206548,4.23076181 C12.1275396,4.20843898 11.9328346,4.1911122 11.7367516,4.17899409 L11.3780788,5.97704528 L11.4232309,6.02222244 Z" id="Fill-11" fill="#5CD8FF"></path>
                            <path d="M14.934377,11.4517949 C14.8734323,11.1942319 14.8425889,10.9306098 14.8425889,10.6648618 C14.8425889,10.5312437 14.8513862,10.399539 14.8665429,10.269535 L14.7567364,9.63662953 L14.7116903,9.59145236 L14.4415198,9.77216102 L13.4053539,8.68790906 L13.1800175,8.32638543 L13.0449853,8.59744843 L12.1439576,8.19085394 L12.0989115,8.2360311 L12.4592802,8.73297992 L12.1890037,8.95897205 L13.2702157,10.1336846 L13.2702157,10.2692161 L12.8197548,10.4499248 L12.7746028,10.495102 L13.6305843,11.4438224 L13.6055705,11.5380035 C13.7961419,11.4829406 13.9965705,11.4517949 14.2045244,11.4517949 L14.934377,11.4517949 Z" id="Fill-13" fill="#5CD8FF"></path>
                            <path d="M10.4771783,5.25415748 L10.515653,4.1711811 C10.2642429,4.18383071 10.0152705,4.20551575 9.76841797,4.23506693 L10.3869802,5.25415748 L10.4771783,5.25415748 Z" id="Fill-15" fill="#5CD8FF"></path>
                            <path d="M17.1326576,7.44434646 L17.0092843,7.19688189 L16.8291,7.46805118 L16.4236853,7.10652756 L15.3875194,6.42887008 L15.3423673,6.7902874 L14.6217359,6.56440157 L14.3513535,6.56440157 L13.4504318,6.42887008 L13.4504318,6.56440157 L13.6306161,6.7902874 L13.3602336,6.88064173 L12.7746346,7.01617323 L12.6394963,7.15170472 L12.6394963,7.33241339 L14.3063074,7.37769685 L14.3513535,7.42276772 L14.2162152,7.64865354 L15.747888,8.23606299 L15.5226576,8.59748031 L15.5359065,8.61002362 C15.9379295,8.07905906 16.4913074,7.6678937 17.1326576,7.44434646" id="Fill-17" fill="#5CD8FF"></path>
                            <path d="M10.612359,17.2720913 L10.5221608,10.4499142 L10.5672069,8.86860709 L10.5221608,8.82342992 L10.0717,9.32037874 L9.84646959,9.00413858 L9.71133134,9.09449291 L9.531147,10.0883906 L9.17067235,10.5402685 L9.08068618,10.5402685 L8.81030369,10.3142764 L8.45004101,11.3082803 L8.35984286,11.5341661 L7.05340046,13.0251189 L6.73807788,11.6246268 L6.73807788,11.217926 L7.41387512,10.0883906 L7.09844654,9.86250472 L7.54901336,9.04931575 L8.04441429,8.68789843 L9.12573226,8.19084331 L9.17067235,8.14577244 L9.0355341,8.01013465 L8.85545576,7.96495748 L9.08068618,7.78424882 L9.93656175,7.73907165 L9.93656175,7.69389449 L9.17067235,7.46800866 L8.63011935,7.60354016 L8.17965853,7.60354016 L7.77424378,7.82942598 L7.7291977,7.82942598 L7.59395346,7.55836299 L6.60293963,8.23612677 L6.1524788,8.41672913 L6.01723456,7.96495748 L5.56677373,8.23612677 L4.35052949,9.27520157 L3.89996267,9.59144173 L3.85502258,9.59144173 L4.26043733,7.73907165 L4.66585207,7.37765433 L5.43174147,7.10659134 L5.47668157,7.06141417 L5.20640507,6.79035118 L5.25145115,6.69989055 L7.14349263,6.15776457 L8.17965853,6.38365039 L8.26975069,6.29329606 L8.17965853,5.97705591 L8.22470461,5.93187874 L8.49498111,6.1125874 L9.57619309,6.65471339 L9.62113318,6.60953622 L9.08068618,5.93187874 L8.7652576,5.70599291 L8.7652576,5.57046142 L8.85545576,5.34446929 L8.81030369,5.25411496 L6.8919765,4.9918748 C3.78294885,6.29127638 1.39942811,8.99733543 0.536557143,12.3134457 C2.52801797,12.5821701 4.07940507,14.262548 4.15169078,16.3146543 L7.06781521,16.3146543 C8.26529908,16.3146543 9.23967235,17.291863 9.23967235,18.4928315 C9.23967235,19.6939063 8.26529908,20.671115 7.06781521,20.671115 L1.734253,20.671115 C3.58506406,23.7579378 6.91518848,25.8555402 10.7338244,25.9699181 L10.7024512,21.7900205 L10.612359,17.2720913 Z" id="Fill-19" fill="#5CD8FF"></path>
                            <path d="M12.0326779,13.6299933 C12.0326779,13.140698 12.1963276,12.6900957 12.4689359,12.3260209 L12.4143507,11.8504382 L12.053876,11.8956154 L11.8286456,11.2179579 L11.9637839,10.5853713 L11.9637839,10.4498398 L11.6484613,10.4950169 L11.6034152,9.99806811 L11.513323,9.99806811 L11.513323,10.7661862 L11.6034152,11.3083122 L11.6034152,12.4829185 L11.8286456,19.847328 L12.00883,24.7719579 L12.0234567,25.9323201 C17.3297793,25.4643909 21.5543599,21.1593791 21.9144106,15.8081705 L14.204535,15.8081705 C13.0069452,15.8081705 12.0326779,14.8310681 12.0326779,13.6299933" id="Fill-21" fill="#5CD8FF"></path>
                            <path d="M18.8791207,7.39072913 C18.8310009,7.47204803 18.7851069,7.55506772 18.7411207,7.63936299 L18.8747751,7.9224378 L18.6044986,9.00679606 L17.7936691,8.23867795 L17.7476691,8.14651654 C17.1489272,8.34253228 16.6346599,8.72520945 16.2698396,9.22258346 L16.7573972,9.68445354 L17.2530101,10.5428197 L16.9376876,10.6784575 L17.1178719,12.3048354 L17.0728258,13.5699024 L16.9827336,13.5699024 L16.081706,12.4856504 L15.9015217,11.3109378 L15.8564756,11.2657606 L15.713812,11.3373 C15.73713,11.5337409 15.7777244,11.7278433 15.839729,11.9168433 L15.9313051,12.1958787 L14.6284664,12.1958787 C14.3667751,12.1958787 14.1190747,12.2555126 13.8958581,12.3594732 L13.8743419,12.4404732 L13.5590194,12.6211819 L13.5590194,13.2536622 L13.4238811,14.1121346 L13.378729,14.1121346 L12.9832774,13.3628315 C12.9180931,13.5464102 12.8805724,13.7430638 12.8805724,13.9488591 C12.8805724,14.9155441 13.6647982,15.7019457 14.6284664,15.7019457 L22.3591161,15.7019457 C22.3620839,15.5967094 22.3640977,15.4912606 22.3640977,15.3852803 C22.3640977,12.2303197 21.0211945,9.38437087 18.8791207,7.39072913" id="Fill-23" fill="#FFFFFF"></path>
                            <path d="M17.6517369,7.95418937 L17.5566631,7.76327598 C16.9153129,7.98671693 16.361829,8.39798858 15.959806,8.92884685 L16.1119028,9.07288228 C16.4960134,8.5578626 17.0310548,8.16285472 17.6517369,7.95418937" id="Fill-25" fill="#000000"></path>
                            <path d="M14.6285194,11.9832378 L15.6382935,11.9832378 C15.5591184,11.741726 15.5080309,11.4874583 15.4882106,11.224474 L15.3609157,10.9946551 L15.2905378,10.5884858 C15.2753811,10.7183835 15.2665839,10.8500882 15.2665839,10.9837063 C15.2665839,11.2494543 15.2974272,11.5131827 15.3583719,11.7706394 L14.6285194,11.7706394 C14.4205654,11.7706394 14.2200309,11.8018913 14.0295654,11.856848 L13.9644871,12.1014425 C14.172123,12.026289 14.3951276,11.9832378 14.6285194,11.9832378" id="Fill-27" fill="#000000"></path>
                            <path d="M12.6686226,13.9488378 C12.6686226,13.5922039 12.7647562,13.2587433 12.9304198,12.9703535 L12.8928991,12.6449717 C12.6202908,13.0090465 12.456641,13.4595425 12.456641,13.9488378 C12.456641,15.1499126 13.4309083,16.1271213 14.6284982,16.1271213 L22.3383737,16.1271213 C22.3431433,16.056326 22.3475949,15.9855307 22.3510926,15.9145228 L14.6284982,15.9145228 C13.5461203,15.9145228 12.6686226,15.0343654 12.6686226,13.9488378" id="Fill-29" fill="#000000"></path>
                            <path d="M18.6290161,7.39657717 C18.6585032,7.34473858 18.6887355,7.29321417 18.7198194,7.24242283 C18.6661677,7.19540157 18.6123032,7.14869449 18.5576935,7.10261575 C18.5444935,7.12397953 18.5312935,7.14534331 18.5184129,7.16681181 L18.6290161,7.39657717 Z" id="Fill-31" fill="#000000"></path>
                            <path d="M12.8806041,13.9488909 C12.8806041,13.7430957 12.9181249,13.5463358 12.9833092,13.3627571 L12.9733461,13.3440484 L12.9304198,12.9704067 C12.7647562,13.2586902 12.6686226,13.5922571 12.6686226,13.9488909 C12.6686226,15.0344185 13.5461203,15.9144697 14.6284982,15.9144697 L22.3510926,15.9144697 C22.3544843,15.8437807 22.3571341,15.7728791 22.3591479,15.7018713 L14.6284982,15.7018713 C13.664724,15.7018713 12.8806041,14.915576 12.8806041,13.9488909" id="Fill-33" fill="#000000"></path>
                            <path d="M18.7416419,7.63354449 C18.7858194,7.55049803 18.8319129,7.46870827 18.8802419,7.38859409 C18.8270161,7.34000197 18.773471,7.29203819 18.7192871,7.24449331 C18.6882032,7.29538937 18.6580774,7.34680906 18.6285903,7.39864764 L18.7416419,7.63354449 Z" id="Fill-35" fill="#000000"></path>
                            <path d="M15.4882424,11.2244528 C15.5080627,11.4875433 15.5591502,11.7417047 15.6383253,11.9832165 L14.6285512,11.9832165 C14.3951594,11.9832165 14.1721548,12.0262677 13.9645189,12.1014213 L13.8959429,12.3594094 C14.1190535,12.2555551 14.3667539,12.1959213 14.6285512,12.1959213 L15.9312839,12.1959213 L15.8397078,11.9168858 C15.7777032,11.7277795 15.7372147,11.5337835 15.7137908,11.3373425 L15.5861779,11.4013346 L15.4882424,11.2244528 Z" id="Fill-37" fill="#000000"></path>
                            <path d="M16.111871,9.07293543 L16.2697972,9.22260472 C16.6347235,8.72523071 17.1488848,8.34244724 17.7477327,8.1465378 L17.6517051,7.95424252 C17.031023,8.16290787 16.4959816,8.55780945 16.111871,9.07293543" id="Fill-39" fill="#000000"></path>
                            <path d="M9.23965115,18.811761 C9.23965115,17.845076 8.45553134,17.0587807 7.49175714,17.0587807 L4.14965576,17.0587807 L4.15431935,16.7834657 C4.15431935,14.8642335 2.71454055,13.2769736 0.861609677,13.048324 C0.697005991,13.8015602 0.609457604,14.5832846 0.609457604,15.3853122 C0.609457604,17.2586232 1.08281244,19.0229776 1.91568802,20.5647413 L7.49175714,20.5647413 C8.45553134,20.5647413 9.23965115,19.7784461 9.23965115,18.811761" id="Fill-41" fill="#FFFFFF"></path>
                            <path d="M9.66361429,18.811761 C9.66361429,17.6106862 8.689347,16.6335839 7.49175714,16.6335839 L4.57573871,16.6335839 C4.503347,14.5813713 2.95195991,12.9010996 0.960605069,12.6323752 C0.942692627,12.7012571 0.925734101,12.7704579 0.909093548,12.8399776 C2.85900599,13.0904185 4.36630092,14.7597413 4.36630092,16.7833594 C4.36630092,16.8044067 4.36502903,16.825135 4.36471106,16.846076 L7.49165115,16.846076 C8.57413502,16.846076 9.45163272,17.7261272 9.45163272,18.811761 C9.45163272,19.8972886 8.57413502,20.7773398 7.49165115,20.7773398 L2.03386774,20.7773398 C2.07446221,20.8487728 2.1160106,20.9195681 2.15819493,20.9899382 L7.49175714,20.9899382 C8.689347,20.9899382 9.66361429,20.0128358 9.66361429,18.811761" id="Fill-43" fill="#000000"></path>
                            <path d="M9.45163272,18.8117185 C9.45163272,17.7261909 8.57413502,16.8461398 7.49165115,16.8461398 L4.36471106,16.8461398 C4.36502903,16.8251988 4.36630092,16.8044705 4.36630092,16.7834232 C4.36630092,14.7598051 2.85900599,13.090376 0.909093548,12.839935 C0.892558986,12.9091358 0.876766359,12.9786555 0.861609677,13.0483878 C2.71454055,13.2770374 4.15431935,14.8642972 4.15431935,16.7834232 L4.14965576,17.0587382 L7.49175714,17.0587382 C8.45553134,17.0587382 9.23965115,17.8451398 9.23965115,18.8117185 C9.23965115,19.7784035 8.45553134,20.5648051 7.49175714,20.5648051 L1.91568802,20.5648051 C1.95426866,20.6361319 1.99369724,20.7069272 2.03386774,20.7772972 L7.49165115,20.7772972 C8.57413502,20.7772972 9.45163272,19.8972461 9.45163272,18.8117185" id="Fill-45" fill="#000000"></path>
                            <path d="M0.422956221,12.5942988 C1.2603894,9.24481063 3.57003456,6.4815626 6.62246313,5.03599961 L6.39129724,5.06268071 C3.41274424,6.54768071 1.16404378,9.29115709 0.341343318,12.5952555 C0.361163594,12.5949366 0.38087788,12.5937673 0.400804147,12.5937673 C0.408223502,12.5937673 0.415536866,12.5942988 0.422956221,12.5942988" id="Fill-47" fill="#000000"></path>
                            <path d="M12.9228309,4.03339685 L12.9497525,3.95694803 C12.6313562,3.91673386 12.3086143,3.89034331 11.9826926,3.87651969 L11.9688078,3.95548189 C12.2903839,3.96867717 12.6086742,3.99443937 12.9228309,4.03339685" id="Fill-49" fill="#000000"></path>
                            <path d="M11.1648783,3.94936417 L11.1235419,3.87144921 C10.5534175,3.88904291 9.9934682,3.94737441 9.44697972,4.04455866 L9.49011797,4.11702795 C10.0360765,4.02183346 10.5952839,3.96496811 11.1648783,3.94936417" id="Fill-51" fill="#000000"></path>
                            <path d="M18.8584207,6.65654173 C18.8734714,6.63634488 18.8886281,6.61636063 18.9038908,6.59637638 C17.6552134,5.53487244 16.1786558,4.73560866 14.5587986,4.28415591 L14.439559,4.33358504 C16.0899415,4.77610866 17.5926788,5.5802622 18.8584207,6.65654173" id="Fill-53" fill="#000000"></path>
                            <path d="M1.54171014,20.9899701 L1.45426774,20.9899701 C3.37089908,24.4270488 6.9919682,26.7840213 11.1622816,26.9006315 L11.1616456,26.8199504 C7.02938295,26.703978 3.44731843,24.3836787 1.54171014,20.9899701" id="Fill-55" fill="#000000"></path>
                            <path d="M12.4541608,26.7835323 L12.4552207,26.8642134 C18.0941424,26.3898 22.5869857,21.8128748 22.9490502,16.1270362 L22.8686032,16.1270362 C22.5078106,21.7774772 18.0575756,26.3114575 12.4541608,26.7835323" id="Fill-57" fill="#000000"></path>
                            <path d="M13.8512889,4.7367248 C14.5932244,4.90233898 15.3068604,5.14363819 15.9835055,5.4529689 L16.0367129,5.43755551 L16.0367129,5.47794921 C16.2530401,5.57829567 16.4659756,5.68502008 16.6744594,5.79897283 L16.8026023,5.79897283 L17.2080171,5.75379567 L17.174418,6.09023268 C17.3254548,6.18356339 17.4740539,6.28050827 17.6201092,6.38085472 L18.6945378,6.79297677 L18.4869018,7.04277992 C18.5105378,7.06276417 18.5341737,7.08253583 18.5574917,7.10262638 C18.6513995,6.94881142 18.7517728,6.79999252 18.8583995,6.65659488 C17.5926576,5.58031535 16.0899203,4.77605551 14.4395378,4.33363819 L13.7391507,4.62426024 L13.8512889,4.7367248 Z" id="Fill-59" fill="#000000"></path>
                            <path d="M12.1624742,4.48872874 L12.1606724,4.49787047 C12.3567553,4.50998858 12.5514604,4.52731535 12.7445756,4.54974449 L12.9228521,4.0357878 C12.6086954,3.99624449 12.2904051,3.97009488 11.968829,3.95670118 L11.8921977,4.39837441 L12.1624742,4.48872874 Z" id="Fill-61" fill="#000000"></path>
                            <path d="M2.15819493,20.9899701 L1.54175253,20.9899701 C3.44736083,24.3836787 7.02942535,26.703978 11.161688,26.8199504 L11.1577664,26.2888795 C7.33913041,26.1743953 4.00900599,24.0768992 2.15819493,20.9899701" id="Fill-63" fill="#000000"></path>
                            <path d="M12.4474304,26.2512602 L12.4541078,26.7835004 C18.0576286,26.3114256 22.5078636,21.7775516 22.8685502,16.1271106 L22.3383843,16.1271106 C21.9783336,21.4783193 17.753647,25.7833311 12.4474304,26.2512602" id="Fill-65" fill="#000000"></path>
                            <path d="M7.31598203,5.31072992 L7.25217558,5.30201339 L7.38731382,5.03095039 L6.6665765,5.03095039 L6.62248433,5.03605276 C3.57005576,6.48161575 1.2604106,9.24486378 0.422977419,12.594352 C0.605175576,12.5953087 0.784511982,12.6085961 0.960562673,12.6323008 C1.82343364,9.31629685 4.20684839,6.6101315 7.31598203,5.31072992" id="Fill-67" fill="#000000"></path>
                            <path d="M10.144823,4.55941772 L10.18033,4.53390591 L10.1924129,4.55389016 C10.4391594,4.52444528 10.6882378,4.50265394 10.9396479,4.49011063 L10.9462194,4.30802008 L11.306588,4.35319724 L11.3516341,4.30802008 L11.1648783,3.95053583 C10.5952839,3.96637441 10.0360765,4.02409488 9.49011797,4.12072087 L9.77788295,4.61139803 C9.89966636,4.59205157 10.0218737,4.5746185 10.144823,4.55941772" id="Fill-69" fill="#000000"></path>
                            <g id="Group-73" transform="translate(19.078341, 6.814949)">
                                <mask id="mask-2" fill="white">
                                    <use xlink:href="#path-1"></use>
                                </mask>
                                <g id="Clip-72"></g>
                                <path d="M3.81476728,8.57038465 C3.81476728,8.67625866 3.81307143,8.78170748 3.81020968,8.8869437 L3.89065668,8.8869437 C3.89351843,8.78170748 3.89521429,8.67625866 3.89521429,8.57038465 C3.89521429,5.20388858 2.44780415,2.17032165 0.144412442,0.0619830709 C0.12925576,0.082073622 0.114735023,0.102801969 0.0997903226,0.123105118 C2.38251382,2.21496732 3.81476728,5.22482953 3.81476728,8.57038465" id="Fill-71" fill="#000000" mask="url(#mask-2)"></path>
                            </g>
                            <path d="M22.3640871,15.3853335 C22.3640871,15.4912075 22.3620733,15.5966563 22.3591055,15.7018925 L22.8885295,15.7018925 C22.8914972,15.5966563 22.8930871,15.4912075 22.8930871,15.3853335 C22.8930871,12.0397783 21.4609396,9.02991614 19.1781101,6.93805394 C19.0716954,7.08325866 18.9715341,7.23420354 18.8791101,7.39078228 C21.0211839,9.38431772 22.3640871,12.2302665 22.3640871,15.3853335" id="Fill-74" fill="#000000"></path>
                            <path d="M19.0194502,6.79238858 C19.0344599,6.77249094 19.049576,6.75259331 19.0647986,6.73280039 C19.0116793,6.68682638 18.9580276,6.64148071 18.9040567,6.59634449 C18.8887276,6.61603268 18.8735051,6.63572087 18.8583889,6.6556185 C18.9124664,6.70075472 18.9662244,6.74630984 19.0194502,6.79238858" id="Fill-76" fill="#000000"></path>
                            <g id="Group-80" transform="translate(22.788018, 15.850382)">
                                <mask id="mask-4" fill="white">
                                    <use xlink:href="#path-3"></use>
                                </mask>
                                <g id="Clip-79"></g>
                                <path d="M0.0927816774,0.0631592913 C0.0896113548,0.133115197 0.0854899355,0.202861654 0.0809458065,0.27260811 L0.16104929,0.27260811 C0.165593419,0.202861654 0.169820516,0.133115197 0.172990839,0.0631592913 L0.0927816774,0.0631592913 Z" id="Fill-78" fill="#000000" mask="url(#mask-4)"></path>
                            </g>
                            <path d="M22.3384161,16.1239398 L22.868582,16.1239398 C22.8731396,16.0541933 22.8772733,15.9844469 22.880453,15.9144909 L22.351029,15.9144909 C22.3476373,15.9844469 22.3431857,16.0541933 22.3384161,16.1239398" id="Fill-81" fill="#000000"></path>
                            <path d="M18.7195959,7.24451457 C18.8129539,7.08974291 18.9135507,6.94007362 19.0207475,6.79529409 C18.9675217,6.74852244 18.9137636,6.70228228 18.8596862,6.65657362 C18.7527023,6.79997126 18.6517862,6.94879016 18.5575765,7.10271142 C18.6120797,7.14937677 18.6659442,7.19678622 18.7195959,7.24451457" id="Fill-83" fill="#000000"></path>
                            <path d="M19.1788456,6.93506417 C19.1938553,6.91506181 19.2083327,6.89464055 19.2236618,6.87484764 C19.1710747,6.82761693 19.1176359,6.78111929 19.0640908,6.7348311 C19.0488682,6.75462402 19.0337521,6.77452165 19.0187424,6.79441929 C19.0725005,6.84091693 19.1260456,6.88762402 19.1788456,6.93506417" id="Fill-85" fill="#000000"></path>
                            <g id="Group-89" transform="translate(22.788018, 15.637783)">
                                <mask id="mask-6" fill="white">
                                    <use xlink:href="#path-5"></use>
                                </mask>
                                <g id="Clip-88"></g>
                                <path d="M0.100910516,0.0631592913 C0.0990083226,0.133115197 0.0960493548,0.202861654 0.0928790323,0.27260811 L0.173088194,0.27260811 C0.176258516,0.202861654 0.179217484,0.133115197 0.181119677,0.0631592913 L0.100910516,0.0631592913 Z" id="Fill-87" fill="#000000" mask="url(#mask-6)"></path>
                            </g>
                            <path d="M22.3591161,15.7018925 C22.3571023,15.7718484 22.3544525,15.8416996 22.3510608,15.9113413 L22.8804848,15.9113413 C22.8836645,15.8415949 22.8867382,15.7718484 22.8885401,15.7018925 L22.3591161,15.7018925 Z" id="Fill-90" fill="#000000"></path>
                            <path d="M18.8798175,7.39072913 C18.9726433,7.23415039 19.0731336,7.08331181 19.1801175,6.93810709 C19.1273175,6.88995354 19.0737724,6.84254409 19.0200143,6.79534724 C18.912924,6.94002047 18.8122207,7.08979606 18.7188627,7.24456772 C18.7730465,7.29272126 18.8265917,7.3415126 18.8798175,7.39072913" id="Fill-92" fill="#000000"></path>
                            <g id="Group-96" transform="translate(0.000000, 12.980303)">
                                <mask id="mask-8" fill="white">
                                    <use xlink:href="#path-7"></use>
                                </mask>
                                <g id="Clip-95"></g>
                                <path d="M0.324935945,0.0405956693 C0.297696313,0.0411271654 0.270350691,0.0415523622 0.243217051,0.0427216535 C0.0841248848,0.805418504 -3.1797235e-05,1.59554055 -3.1797235e-05,2.40500906 C-3.1797235e-05,4.26673346 0.443221659,6.02651693 1.22840138,7.58443819 L1.31414793,7.58443819 C0.525364516,6.02928071 0.0804152074,4.26928465 0.0804152074,2.40500906 C0.0804152074,1.59437126 0.164995853,0.803611417 0.324935945,0.0405956693" id="Fill-94" fill="#000000" mask="url(#mask-8)"></path>
                            </g>
                            <path d="M0.861567281,13.0483559 C0.710424424,13.0296472 0.556843779,13.0190173 0.400719355,13.0190173 C0.375281567,13.0190173 0.350267742,13.0203992 0.324935945,13.0209307 C0.164995853,13.7838402 0.0804152074,14.5746 0.0804152074,15.3853441 C0.0804152074,17.2496197 0.525364516,19.0096157 1.31414793,20.5647732 L1.91564562,20.5647732 C1.08287604,19.0230094 0.609415207,17.2585488 0.609415207,15.3853441 C0.609415207,14.5833165 0.696963594,13.8014858 0.861567281,13.0483559" id="Fill-97" fill="#000000"></path>
                            <path d="M1.42548571,20.7773185 L1.3386212,20.7773185 C1.37662442,20.8475886 1.41526636,20.9174398 1.45475991,20.9867673 L1.54258249,20.9867673 C1.50287604,20.9174398 1.46370184,20.8475886 1.42548571,20.7773185" id="Fill-99" fill="#000000"></path>
                            <path d="M0.371118618,12.8038976 C0.38739294,12.7337323 0.404935392,12.6639858 0.422583521,12.5943441 C0.415186101,12.5943441 0.407894359,12.5938205 0.400391263,12.5938205 C0.380523908,12.5938205 0.360973585,12.5949724 0.341211908,12.5952866 C0.323563779,12.6652425 0.306127005,12.7354079 0.289747005,12.8059921 C0.316906101,12.8052591 0.343853843,12.8041071 0.371118618,12.8038976" id="Fill-101" fill="#000000"></path>
                            <path d="M0.909135945,12.8363169 C0.925776498,12.7679319 0.942629032,12.6996516 0.960541475,12.6317902 C0.784490783,12.6083319 0.605154378,12.5952413 0.422956221,12.5942988 C0.405361751,12.6639406 0.387767281,12.733687 0.37133871,12.8038524 C0.381195853,12.8038524 0.390841014,12.803224 0.400804147,12.803224 C0.573145161,12.803224 0.742518433,12.8152673 0.909135945,12.8363169" id="Fill-103" fill="#000000"></path>
                            <path d="M2.03383594,20.7773185 L1.42513088,20.7773185 C1.46318157,20.8475886 1.50218618,20.9174398 1.54172074,20.9867673 L2.15816313,20.9867673 C2.1159788,20.9174398 2.07443041,20.8476933 2.03383594,20.7773185" id="Fill-105" fill="#000000"></path>
                            <path d="M1.22844378,20.5647732 C1.26453088,20.6350433 1.30157604,20.7047898 1.339047,20.774222 L1.42591152,20.774222 C1.3881212,20.7047898 1.35086313,20.6350433 1.31456313,20.5647732 L1.22844378,20.5647732 Z" id="Fill-107" fill="#000000"></path>
                            <path d="M0.324694341,13.0177303 C0.339594857,12.9473555 0.354706728,12.8769807 0.370981051,12.8070248 C0.343716276,12.8072343 0.316768535,12.8083862 0.289609438,12.8091193 C0.27354647,12.8790752 0.258117567,12.9493453 0.243217051,13.0198248 C0.27027047,13.0186728 0.297535244,13.0182539 0.324694341,13.0177303" id="Fill-109" fill="#000000"></path>
                            <path d="M1.91567742,20.5647732 L1.31417972,20.5647732 C1.35032258,20.6350433 1.38752535,20.7047898 1.42515207,20.774222 L2.03385714,20.774222 C1.99368664,20.7047898 1.95425806,20.6350433 1.91567742,20.5647732" id="Fill-111" fill="#000000"></path>
                            <path d="M0.400761751,13.0158252 C0.556886175,13.0158252 0.710360829,13.0264024 0.861609677,13.0447291 C0.876766359,12.9761346 0.892558986,12.9076449 0.909093548,12.8394693 C0.742582028,12.8184197 0.573102765,12.8063764 0.400761751,12.8063764 C0.390904608,12.8063764 0.381153456,12.8070047 0.371402304,12.8070047 C0.355079724,12.8769606 0.339923041,12.9473354 0.324978341,13.0177102 C0.350204147,13.0171866 0.375323963,13.0158252 0.400761751,13.0158252" id="Fill-113" fill="#000000"></path>
                            <path d="M9.41448295,3.99174803 L9.18925253,3.63033071 L8.15319263,3.26891339 L7.38730323,3.13338189 L7.38730323,3.67550787 L6.26115115,3.22373622 L4.8645106,4.17245669 L4.09872719,4.85022047 L5.49526175,5.16646063 L6.39130783,5.0627126 C7.34310507,4.58829921 8.36898986,4.24176378 9.44702212,4.04712992 L9.41448295,3.99174803 Z" id="Fill-115" fill="#000000"></path>
                            <path d="M15.0456567,4.08211299 L15.4961175,3.6755185 L15.2708871,3.44963268 L16.3971452,2.6363374 L16.2169608,2.50080591 L17.0728364,1.64243976 L17.5232972,0.783967323 L16.4872373,0.783967323 L15.6312558,1.19056181 L14.6402419,2.22974291 L14.3248134,2.00385709 L14.1896751,2.13938858 L13.3787396,3.6755185 L13.2437074,3.63034134 L13.063523,3.63034134 L12.9497949,3.95816811 C13.4991452,4.02853819 14.0363065,4.13855787 14.558735,4.2841878 L15.0456567,4.08211299 Z" id="Fill-117" fill="#000000"></path>
                            <g id="Group-121" transform="translate(7.843318, 0.011799)">
                                <mask id="mask-10" fill="white">
                                    <use xlink:href="#path-9"></use>
                                </mask>
                                <g id="Clip-120"></g>
                                <path d="M4.13936406,3.86477362 L4.40932258,2.30823425 L4.18409217,2.39869488 L4.00390783,2.39869488 L4.04884793,1.49504528 L3.86866359,1.26915945 L3.73352535,0.907742126 L3.3281106,0.636679134 L3.3281106,0.952919291 L2.42718894,0.139730315 L2.02177419,0.0944468504 L0.0845806452,0.365616142 L0.985502304,0.77221063 L1.52616129,0.952919291 L1.93157604,1.13362795 L1.61614747,1.35951378 L2.06671429,1.81128543 L3.28306452,2.53422638 L2.78745161,2.71493504 L2.92269585,2.8956437 L3.01278802,3.34741535 L3.28030876,3.85967126 C3.40092627,3.85595079 3.52186175,3.85339961 3.64343318,3.85339961 C3.80973272,3.85339961 3.97486636,3.85775787 4.13936406,3.86477362" id="Fill-119" fill="#000000" mask="url(#mask-10)"></path>
                            </g>
                            <path d="M12.25263,20.1662469 L12.0273995,12.8018374 L12.0273995,11.6272311 L11.9372014,11.0849988 L11.9372014,10.316987 L12.0273995,10.316987 L12.0724456,10.8139358 L12.3876622,10.7687587 L12.3876622,10.9042902 L12.25263,11.5368768 L12.4778604,12.2145343 L12.838229,12.1693571 L12.8929203,12.6449398 C13.1733719,12.2705539 13.5697774,11.9894988 14.0295654,11.8568374 L14.0545793,11.7627626 L13.1985977,10.8139358 L13.2437498,10.7687587 L13.6942106,10.58805 L13.6942106,10.4525185 L12.6128926,9.27780591 L12.8832751,9.05192008 L12.5229065,8.55497126 L12.5679525,8.50979409 L13.4689802,8.91638858 L13.6040124,8.64532559 L13.8293488,9.00674291 L14.8654088,10.0911012 L15.1356853,9.91039252 L15.1807313,9.95556969 L15.2905378,10.5884752 C15.3627175,9.97268386 15.6005608,9.40323898 15.9598696,8.92893189 L15.9466207,8.91638858 L16.1718512,8.55497126 L14.6401783,7.96756181 L14.7753166,7.74167598 L14.7302705,7.69649882 L13.0634594,7.65132165 L13.0634594,7.47061299 L13.1985977,7.3350815 L13.7841968,7.19955 L14.0545793,7.10919567 L13.8743949,6.88330984 L13.8743949,6.74777835 L14.7753166,6.88330984 L15.0456991,6.88330984 L15.7663304,7.10919567 L15.8114825,6.74777835 L16.8476484,7.42543583 L17.2530631,7.78685315 L17.4332475,7.51579016 L17.5566207,7.76325472 C17.7893765,7.68214843 18.0335793,7.62517205 18.2865793,7.59689646 C18.358123,7.44977835 18.4358143,7.3070185 18.5183811,7.16776654 L18.4693074,7.0640185 L18.4869018,7.04275866 C18.209418,6.8081563 17.9202751,6.58716024 17.6201092,6.38083346 L17.162865,6.20565236 L17.174418,6.09031772 C17.0105562,5.98901457 16.8439387,5.89153819 16.6744594,5.79895157 L16.0367129,5.79895157 L16.0367129,5.47792795 C16.0189065,5.46974291 16.001312,5.46113268 15.9835055,5.45294764 L14.6401783,5.84412874 L14.459994,5.48271142 L13.378782,6.07001457 L13.1985977,6.07001457 L13.0634594,5.88930591 L13.5589664,5.25682559 L14.0545793,4.8502311 L13.8743949,4.75977047 L13.8512889,4.73670354 C13.4888005,4.65580984 13.1196346,4.59330591 12.7446392,4.54972323 L12.7030908,4.66941614 L12.3427221,5.48271142 L11.9822475,6.0248374 L11.9822475,6.1603689 L11.8472152,6.34107756 L11.8020631,6.29600669 L12.1607359,4.49795551 C11.9376253,4.48413661 11.7131369,4.47637677 11.4867406,4.47637677 C11.3032705,4.47637677 11.1208604,4.48105394 10.9396161,4.49008937 L10.9011415,5.57306575 L10.8109433,5.57306575 L10.1924871,4.5538689 C10.1765885,4.55578228 10.1606899,4.55748307 10.1447912,4.55939646 L9.86508157,4.75977047 L9.77785115,4.61137677 C8.92006774,4.74775866 8.09524747,4.9850185 7.31600323,5.31071929 L9.23422442,5.57306575 L9.2793765,5.66342008 L9.18928433,5.88930591 L9.18928433,6.0248374 L9.50460691,6.25072323 L10.0451599,6.92848701 L10.0001138,6.97366417 L8.91900783,6.43153819 L8.64862535,6.25072323 L8.60357926,6.29600669 L8.69377742,6.61224685 L8.60357926,6.70260118 L7.56751935,6.47660906 L5.67547788,7.01884134 L5.63032581,7.10919567 L5.90070829,7.38025866 L5.85566221,7.42543583 L5.08977281,7.69649882 L4.68435806,8.05791614 L4.27894332,9.91039252 L4.3239894,9.91039252 L4.77445023,9.59404606 L5.99080046,8.55497126 L6.44126129,8.28390827 L6.57639954,8.73567992 L7.02686037,8.55497126 L8.01798018,7.87731378 L8.15311843,8.14827047 L8.19816452,8.14827047 L8.60357926,7.92238465 L9.05404009,7.92238465 L9.59469908,7.78685315 L10.3604825,8.01273898 L10.3604825,8.05791614 L9.50460691,8.10319961 L9.2793765,8.28390827 L9.45945484,8.32908543 L9.59469908,8.46461693 L9.549653,8.50979409 L8.46844101,9.00674291 L7.9729341,9.36816024 L7.52247327,10.1814555 L7.83779585,10.4073413 L7.16210461,11.5368768 L7.16210461,11.9434713 L7.47742719,13.3440697 L8.78376359,11.8531169 L8.87396175,11.6272311 L9.23422442,10.6332272 L9.50460691,10.859113 L9.59469908,10.859113 L9.95506774,10.4073413 L10.1352521,9.4133374 L10.2704963,9.32298307 L10.4957267,9.63922323 L10.9461876,9.14227441 L10.9912336,9.18745157 L10.9461876,10.7687587 L11.0362797,17.5909358 L11.1263719,22.1089713 L11.1577452,26.2888689 C11.2670217,26.2920579 11.3766161,26.2942902 11.4867406,26.2942902 C11.8105424,26.2942902 12.1308465,26.2791957 12.447441,26.251239 L12.4328143,25.0908768 L12.25263,20.1662469 Z" id="Fill-122" fill="#000000"></path>
                            <path d="M12.983288,13.362789 L13.3787396,14.1120921 L13.4238917,14.1120921 L13.55903,13.253726 L13.55903,12.6211394 L13.8743525,12.4404307 L13.8958687,12.3594307 C13.4724355,12.5566157 13.1412143,12.9182457 12.983288,13.362789" id="Fill-124" fill="#000000"></path>
                            <path d="M18.5665327,8.00007874 L18.4419935,8.00932677 C18.2013945,8.02718504 17.9687447,8.07416929 17.7476479,8.14655906 L17.7936479,8.23872047 L18.6044774,9.00673228 L18.8747539,7.92248031 L18.7410995,7.63940551 C18.6985972,7.72061811 18.6573668,7.8025748 18.6187862,7.88644488 L18.5665327,8.00007874 Z" id="Fill-126" fill="#000000"></path>
                            <path d="M15.7137908,11.3372894 L15.8565604,11.26575 L15.9015005,11.3109272 L16.0817908,12.4856398 L16.9828184,13.5698917 L17.0728046,13.5698917 L17.1178507,12.3049311 L16.9376664,10.6784469 L17.2529889,10.5428091 L16.757482,9.68444291 L16.2698184,9.22257283 C15.9058461,9.71877756 15.6904728,10.3291476 15.6904728,10.9837382 C15.6904728,11.1023681 15.699906,11.2201476 15.7137908,11.3372894" id="Fill-128" fill="#000000"></path>
                            <path d="M15.4882424,11.2244528 C15.4822009,11.1449409 15.4784912,11.0647913 15.4784912,10.983685 C15.4784912,10.2669094 15.7145327,9.60583465 16.1118922,9.07295669 L15.9597954,8.92892126 C15.6005926,9.40322835 15.3626433,9.97277953 15.2905696,10.5884646 L15.3609475,10.9946339 L15.4882424,11.2244528 Z" id="Fill-130" fill="#000000"></path>
                            <path d="M13.9645295,12.1014213 L14.0295018,11.8568268 C13.5697138,11.9894882 13.1733083,12.2705433 12.8929627,12.6449291 L12.9303774,12.9704173 C13.1600594,12.5703071 13.5257276,12.2602323 13.9645295,12.1014213" id="Fill-132" fill="#000000"></path>
                            <path d="M18.4263811,7.79729173 C18.4885977,7.66218543 18.5564318,7.53016181 18.6285055,7.40100827 L18.5183811,7.1677878 C18.4358143,7.30703976 18.3580171,7.44979961 18.2865793,7.59691772 C18.0335793,7.62508701 17.7893765,7.68216969 17.5566207,7.76327598 L17.6516945,7.95418937 C17.8980171,7.87138228 18.1573765,7.81727598 18.4263811,7.79729173" id="Fill-134" fill="#000000"></path>
                            <path d="M12.930388,12.9703961 L12.9733143,13.3440378 L12.9832774,13.3627465 C13.1412037,12.9182031 13.4724249,12.5565732 13.8958581,12.3593882 L13.9645401,12.1014 C13.5257382,12.260211 13.16007,12.5702858 12.930388,12.9703961" id="Fill-136" fill="#000000"></path>
                            <path d="M18.4263811,7.79729173 C18.1573765,7.81727598 17.8980171,7.87138228 17.6516945,7.95418937 L17.7477221,8.14659094 C17.9688189,8.07420118 18.2013627,8.02721693 18.4419618,8.00935866 L18.5665009,8.00011063 L18.6187544,7.88637047 C18.657441,7.80260669 18.6985654,7.7205437 18.7411737,7.6394374 L18.6285055,7.40100827 C18.5564318,7.53016181 18.4885977,7.66218543 18.4263811,7.79729173" id="Fill-138" fill="#000000"></path>
                            <path d="M15.4785124,10.9837169 C15.4785124,11.0648232 15.4822221,11.1449728 15.4882636,11.2244846 L15.5861991,11.4012602 L15.713812,11.3372681 C15.6999272,11.2201264 15.690494,11.1023469 15.690494,10.9837169 C15.690494,10.3291264 15.9058673,9.7188626 16.2698396,9.22255157 L16.1119134,9.07288228 C15.7145539,9.60586654 15.4785124,10.2669413 15.4785124,10.9837169" id="Fill-140" fill="#000000"></path>
                            <path d="M14.4395166,4.32807598 L14.5587562,4.27937913 C14.0362217,4.13590669 13.4991664,4.0274122 12.9497101,3.95818937 L12.9227885,4.03463819 C13.4400235,4.09883425 13.9463415,4.19779882 14.4395166,4.32807598" id="Fill-142" fill="#000000"></path>
                            <g id="Group-146" transform="translate(11.129032, 26.692902)">
                                <mask id="mask-12" fill="white">
                                    <use xlink:href="#path-11"></use>
                                </mask>
                                <g id="Clip-145"></g>
                                <path d="M0.357750691,0.130320312 C0.249004147,0.130320312 0.140681567,0.128420192 0.0326769585,0.12546445 L0.0332069124,0.205586164 C0.14110553,0.208541906 0.249216129,0.210442025 0.357750691,0.210442025 C0.683884332,0.210442025 1.00673226,0.196085565 1.32618848,0.169378328 L1.32512857,0.0892566142 C1.00609631,0.115963852 0.683566359,0.130320312 0.357750691,0.130320312" id="Fill-144" fill="#000000" mask="url(#mask-12)"></path>
                            </g>
                            <path d="M11.4867829,3.94520434 C11.6483129,3.94520434 11.8088889,3.94942683 11.968829,3.95607725 L11.9827138,3.87648334 C11.8182161,3.86951624 11.6529765,3.86518819 11.4867829,3.86518819 C11.3652115,3.86518819 11.244276,3.86772168 11.1235525,3.87141636 L11.1648889,3.94995464 C11.2719396,3.9469989 11.3790963,3.94520434 11.4867829,3.94520434" id="Fill-147" fill="#000000"></path>
                            <path d="M9.49013917,4.1207315 L9.44700092,4.04717244 C8.36896866,4.2417 7.34308387,4.58823543 6.39128664,5.06275512 L6.62245253,5.03596772 C7.52040645,4.61077087 8.48227281,4.29920787 9.49013917,4.1207315" id="Fill-149" fill="#000000"></path>
                            <path d="M11.3065774,4.35320787 L10.9462088,4.30803071 L10.9396373,4.49012126 C11.1208816,4.48108583 11.3032917,4.47640866 11.4867618,4.47640866 C11.7131581,4.47640866 11.9376465,4.4841685 12.1607571,4.4978811 L12.162453,4.48873937 L11.8921765,4.39838504 L11.9688078,3.95671181 C11.8088677,3.95001496 11.6483977,3.94576299 11.4867618,3.94576299 C11.3791811,3.94576299 11.2719184,3.94757008 11.1648677,3.95054646 L11.3516235,4.30803071 L11.3065774,4.35320787 Z" id="Fill-151" fill="#000000"></path>
                            <path d="M16.0365662,5.43753425 L15.9835161,5.45294633 C16.0012699,5.46096906 16.0188124,5.4695196 16.0365662,5.47764789 L16.0365662,5.43753425 Z" id="Fill-153" fill="#000000"></path>
                            <path d="M10.1802144,4.5339378 L10.1448124,4.55927272 C10.1605584,4.55726704 10.1765157,4.55568361 10.1922616,4.55378349 L10.1802144,4.5339378 Z" id="Fill-155" fill="#000000"></path>
                            <path d="M13.8512889,4.7367248 L13.7391507,4.62426024 L14.4395378,4.33363819 C13.9462567,4.20140197 13.4400447,4.10094921 12.9228097,4.0357878 L12.7446392,4.54974449 C13.1196346,4.59322087 13.4888005,4.6558311 13.8512889,4.7367248" id="Fill-157" fill="#000000"></path>
                            <path d="M11.4867829,26.2942902 C11.3766585,26.2942902 11.2670641,26.2920579 11.1577876,26.2888689 L11.1617092,26.8199398 C11.2697138,26.8230224 11.3780364,26.8248295 11.4867829,26.8248295 C11.8125986,26.8248295 12.1351286,26.8103728 12.4541608,26.7835854 L12.4473774,26.251239 C12.1307829,26.2791957 11.8105848,26.2942902 11.4867829,26.2942902" id="Fill-159" fill="#000000"></path>
                            <path d="M7.38730323,5.0309185 L7.25216498,5.3019815 L7.31597143,5.31069803 C8.09532166,4.98499724 8.92003594,4.7477374 9.77792535,4.61135551 L9.49016037,4.12067835 C8.48229401,4.29915472 7.52032166,4.61071772 6.62247373,5.03602087 L6.6665659,5.0309185 L7.38730323,5.0309185 Z" id="Fill-161" fill="#000000"></path>
                            <path d="M17.2080065,5.75378504 L16.8025917,5.79829291 L16.6744488,5.79829291 C16.8439281,5.88950787 17.0105456,5.98554016 17.1744074,6.08534252 L17.2080065,5.75378504 Z" id="Fill-163" fill="#000000"></path>
                            <path d="M18.6945696,6.79294488 L17.620035,6.38092913 C17.9202009,6.58714961 18.2094498,6.80825197 18.4869336,7.04285433 L18.6945696,6.79294488 Z" id="Fill-165" fill="#000000"></path>
                        </g>
                    </g>
                </g>
            </g>
        </g>
    </g>
</svg>