<svg height="23" viewBox="0 0 21 23" width="21" xmlns="http://www.w3.org/2000/svg" xmlns:xlink="http://www.w3.org/1999/xlink"><mask id="a" fill="#fff"><path d="m0 .04399833h8.92292903v14.69584517h-8.92292903z" fill="none"/></mask><mask id="b" fill="#fff"><path d="m.04875484.04565356h13.96538706v2.74514142h-13.96538706z" fill="none"/></mask><mask id="c" fill="#fff"><path d="m.01969355.06678661h3.23564516v2.11104393h-3.23564516z" fill="none"/></mask><g fill="none" fill-rule="evenodd" transform=""><path d="m10.5 22.6891892c5.7989899 0 10.5-4.5921064 10.5-10.2567568 0-5.20501113-3.9690658-9.50447278-9.1119929-10.16793412-.4541567-.05858831.4705397-1.33206585 0-1.33206585-.3434752 0-2.07110558 1.25935334-2.40612822 1.29084219-5.32125995.50014635-9.48187888 4.88002573-9.48187888 10.20915778 0 5.6646504 4.70101013 10.2567568 10.5 10.2567568z" fill="#fff" fill-rule="nonzero"/><path d="m17.8263677 13.1841967c.0063871.0051966.012871.0108744.0194517.0177071.0512903.0509079.0796451.1186569.0796451.1908326s-.028258.1401172-.0797419.1913138c-.0896129.0894979-.2403871.1036444-.3457742.0317573l-.0135484-.0064477c-1.7077742-.503979-3.5695161-.4523975-5.3844194.1495481l-.0330967.0109708v.7193514h6.3944516l-.5337097 3.1839122.0588387-.0017323c.580742-.0170334.8923549-.1719707 1.1939032-.3218075.0718065-.0357029.1429355-.0709247.2167742-.1042217.6526452-1.3148494 1.0201936-2.7937783 1.0201936-4.3566235 0-4.85242257-3.5373871-8.89859412-8.1824516-9.72264851.3404516 2.13361088 1.1979677 4.26683682 2.5628709 6.36561088 1.3963549 2.14746863 2.8619033 3.50312133 3.0266129 3.65247703" fill="#5cd8ff"/><path d="m16.6211323 17.9001879c-.3198388-.1590753-.6505162-.3235398-1.3020968-.3235398-.651871 0-.9825484.1645607-1.3024839.3235398-.3240968.1611924-.6300968.3134351-1.2589355.3134351-.6287419 0-.9347419-.1522427-1.2587419-.3134351-.3198387-.1589791-.6506129-.3235398-1.3025807-.3235398-.65167737 0-.98235479.1644645-1.3021935.3235398-.324.1611924-.63009677.3134351-1.25893548.3134351-.62893549 0-.93503226-.1522427-1.25903226-.3134351-.31974194-.1590753-.65041936-.3235398-1.302-.3235398-.6517742 0-.98254839.1644645-1.30229032.3235398-.32409678.1611924-.63009678.3134351-1.25903226.3134351-.15106452 0-.28296774-.0089498-.40151613-.0245397.42435484.6607447.92564516 1.2679832 1.491 1.8096862.07335484-.0332971.14332258-.0678452.2126129-.1022971.32409678-.1610962.63009678-.3133389 1.25903226-.3133389.62883871 0 .93493548.1522427 1.25893548.3133389.31974194.1590753.65051613.3235397 1.30229033.3235397.65167742 0 .98245161-.1644644 1.30229032-.3235397.32390322-.1610962.63-.3133389 1.25883866-.3133389.6290323 0 .9351291.1522427 1.2593226.3134351.319742.1589791.6504194.3234435 1.302.3234435.6517742 0 .9824516-.1644644 1.3021936-.3234435.3240968-.1611924.6301935-.3134351 1.2592258-.3134351.6287419 0 .9348387.1521464 1.2588387.3133389.1874516.093251.3793548.1881381.636871.2509791.6946451-.6371674 1.2980322-1.3710502 1.7879032-2.1803808-.2799678.1339582-.5819032.2465523-1.1225807.2465523-.6288387 0-.9349354-.1522427-1.2589354-.3134351" fill="#5cd8ff"/><path d="m3.81490645 17.3495736c.28674194-.142523.5576129-.2771548 1.05251613-.3070836l.084-.0051005-1.70806452-2.5481882h8.28203224v-.7193515l-.0330968-.0109707c-1.93074189-.6398619-5.70532253-.6451548-7.66616124-.0156862-.60503226-2.1641172-.17641936-4.64715482 1.20948387-6.99796654.7466129-1.26653975 1.73254839-2.41615481 2.89354839-3.39957322-4.24016129 1.12526778-7.37274194 4.97694979-7.37274194 9.54307536 0 1.694205.43141936 3.2899623 1.19051613 4.6848786.20216129.0593766.44496774.0993138.76567742.0993138.65158064 0 .98235484-.1643682 1.30229032-.3233473" fill="#5cd8ff"/><path d="m15.3190355 20.1238259c-.651871 0-.9825484.1644645-1.3024839.3234436-.3240968.1611924-.6300968.3133389-1.2589355.3133389-.6287419 0-.9347419-.1521465-1.2587419-.3133389-.3198387-.1589791-.6506129-.3234436-1.3025807-.3234436-.65167737 0-.98235479.1643682-1.3021935.3234436-.324.1610962-.63009677.3133389-1.25893548.3133389-.62893549 0-.93503226-.1522427-1.25903226-.3133389-.31983871-.1590754-.65041936-.3234436-1.302-.3234436-.51154839 0-.82509678.1013348-1.09103226.2218201 1.74387097 1.5062594 4.01912903 2.4191381 6.5047742 2.4191381 2.3856774 0 4.5774193-.8409916 6.2915806-2.2402385-.0532258-.0252134-.1055806-.0511004-.1583225-.0772761-.3198388-.1590754-.6505162-.3234436-1.3020968-.3234436" fill="#5cd8ff"/><g fill="#000"><path d="m20.9023548 12.5038393c0 1.4855691-.3150967 2.8976151-.8815161 4.1747406.0264194-.0036569.0534194-.0070251.0813871-.0100084.5612903-1.2764518.8735807-2.6849372.8735807-4.1647322 0-5.18539327-3.8254839-9.4985188-8.8172904-10.29649369.0029033.02482845.004742.04975313.0078387.07467782 4.9535807.79816736 8.736 5.07039331 8.736 10.22181587"/><path d="m17.8442323 19.8345552c.012.0000963.0234193.0005774.0358064.0005774.0208065 0 .0404516-.0006736.0605807-.0009623.7524193-.7564017 1.3898709-1.6259749 1.8832258-2.5810042-.0310646.0068326-.0614517.0140502-.0906775.0218452-.4959677.9484854-1.1349677 1.8113222-1.8889354 2.5595439"/><path d="m1.41738387 17.595c-.03687097-.0173222-.07335484-.0350293-.10974193-.0530251.46093548.8272301 1.03151612 1.5857489 1.69238709 2.2564059.02787097-.0045231.05496774-.009431.08129032-.0146277-.64693548-.6509288-1.20764516-1.3865439-1.66393548-2.1887531"/><path d="m.0734129 10.3572368c0-5.14516734 3.77322581-9.41315898 8.718-10.21892885.04364516-.03156485.08748387-.06312971.13151613-.09430962-5.04338709.75361088-8.92296774 5.09127615-8.92296774 10.31323847 0 1.5470628.34103226 3.016272.9513871 4.337954.03348387.0145314.06629032.0293515.09870967.0446527-.6262258-1.331113-.97664516-2.8161046-.97664516-4.3826067" mask="url(#a)" transform="translate(0 2.146603)"/><path d="m7.1007871 2.71779163c-2.68616129 0-5.13464516-1.01151883-6.9817742-2.67213807-.02303225.00991213-.04645161.01953556-.07025806.02896652 1.86396774 1.68669875 4.33935484 2.71621339 7.05203226 2.71621339 2.64619355 0 5.0662258-.98005021 6.9133548-2.59361088-.0293225-.00490795-.0577742-.0101046-.0854516-.01578242-1.828258 1.57987866-4.2156774 2.53635146-6.8279032 2.53635146" mask="url(#b)" transform="translate(3.387097 20.142418)"/><path d="m1.74691935 17.1886314c-.75909677-1.3948201-1.19051612-2.9905774-1.19051612-4.6847824 0-4.5662218 3.13258064-8.41790381 7.37274193-9.54317159.27764516-.23510042.56525807-.46048118.86225807-.67575733-4.9447742.80567364-8.718 5.07376151-8.718 10.21892892 0 1.566502.35041935 3.0514937.97664516 4.3825104.05390322.0255021.10693548.0516778.16035484.0782385.16238709.0807406.32787096.1627322.53651612.2240335"/><path d="m2.11134194 17.804146c-.29216129-.0383975-.50012904-.1179832-.69396775-.2091171.45629033.8022092 1.017 1.5378242 1.66393549 2.1886569.20641935-.0408996.37141935-.1022009.52093548-.1698536-.56535484-.5417029-1.06654839-1.1489414-1.49090322-1.8096862"/><path d="m10.4878839 22.3798854c-2.48574196 0-4.76090325-.9128787-6.50477422-2.4191381-.07296774.0330083-.14245162.067364-.21125807.1016234-.08758064.0434979-.174.086226-.26574193.125682 1.84712903 1.6606193 4.2956129 2.6721381 6.98177422 2.6721381 2.6122258 0 4.9996451-.9564728 6.8279032-2.5363515-.2126129-.0433054-.3789677-.1099958-.5363226-.1842887-1.7141613 1.3992469-3.9059032 2.2403348-6.2915806 2.2403348"/><path d="m19.0026871 17.5821238c-.489871.8093306-1.0933548 1.5433097-1.788 2.1803808.1734194.0421506.3770323.0695774.6295161.0720795.7539678-.748318 1.3929678-1.6110586 1.8889355-2.5595439-.2365161.062456-.4170968.1521464-.5940968.240297-.0454838.0226151-.0906774.0449415-.1363548.0667866"/><path d="m12.1663161 2.28199456c.0202258.16638912.0440323.33277824.0705484.49916736 4.6451613.8240544 8.1824516 4.87022595 8.1824516 9.72264858 0 1.5628451-.3675484 3.041774-1.0201935 4.3566234.1747742-.0788159.3658064-.1461799.6216774-.1817866.5665161-1.2771255.8815161-2.6892678.8815161-4.1748368 0-5.15142263-3.7824193-9.42364858-8.736-10.22181594"/><path d="m2.55343548 1.31162552.06890323-.03214226v.81645189c.21290323.02097908.42396774.04850209.633.08189539-.05883871-.50773221-.08970968-1.0153682-.08970968-1.52242677v-.3183431c0-.14906695-.12193548-.27032218-.27164516-.27032218-.14980645 0-.27164516.12125523-.27164516.27032218v.34961925l-.02874194.01270293c-.91316129.40360669-1.77532258.89651882-2.57390322 1.46179916.37606452-.05620084.75870968-.09190377 1.14658064-.10720502.44603226-.27118829.90929033-.51966527 1.38716129-.74235147" mask="url(#c)" transform="translate(8.903226 .029448)"/><path d="m12.0688742 4.54537741.0947419.31102928c.4966452 1.63155649 1.2795484 3.25204603 2.326742 4.8165272.6134516.91605441 1.2982258 1.78630121 2.0353548 2.58648951.0385161.0422469.0777097.0843013.1172903.1264519l.0975484.1039331-.141-.0236737c-1.4434839-.2417406-2.9882903-.1275104-4.4679677.3302762l-.0627097.0193431zm5.7525484 10.09959829-.1227097.7328243h-12.94829032l-.4916129-.7328243zm-.4365484 2.6060251-.0484839-.009046c-.3208064-.0597615-.5433871-.1703347-.7586129-.2773473-.3240968-.1610962-.6300968-.3131464-1.2587419-.3131464-.6290323 0-.935129.1521464-1.2592258.3131464-.319742.1589791-.6504194.3233473-1.3021936.3233473-.6515806 0-.982258-.1643682-1.302-.323251-.3241935-.1610963-.6302903-.3132427-1.2593226-.3132427-.62883866 0-.93493544.1520502-1.25883866.3131464-.31983871.1589791-.6506129.3233473-1.30229032.3233473s-.98235484-.1643682-1.30219355-.3233473c-.20487097-.1018159-.39832258-.1979539-.67461291-.257138l-.01916129-.0041381-.52635483-.7850795h12.49538706zm-5.8592903-4.434477-.0621291-.0182845c-1.85661286-.5447824-5.08132254-.5988661-7.18819351-.1208703l-.04925806.0111632-.00909678-.0494644c-.34577419-1.8777239.11148387-4.01056487 1.28758065-6.00550211.8842258-1.49990795 2.12593548-2.83708368 3.6056129-3.9102887-.40180645.05571966-.79596774.13530544-1.18093548.23741004-1.161.98341841-2.14693549 2.13303347-2.89354839 3.39957322-1.38590323 2.35090795-1.81451613 4.83384935-1.20948387 6.99796655 1.96083871-.6294686 5.73541935-.6241758 7.66616124.0157824l.0330968.0108745v.7193514h-8.28203224l1.70806452 2.5481883-.084.0051004c-.49490323.0299289-.76577419.1645607-1.05251613.3070837-.31993548.1589791-.65070968.3233473-1.30229032.3233473-.32080645 0-.56351613-.0399372-.76567742-.0993138.11419355.209887.23564516.4150586.36435484.6155146.11854839.0154938.25045161.0245398.40151613.0245398.62893548 0 .93493548-.1522427 1.25903226-.3134351.31974193-.1590754.65051612-.3235398 1.30229032-.3235398.65158064 0 .98225806.1644644 1.302.3235398.324.1611924.63009677.3134351 1.25903226.3134351.62883871 0 .93493548-.1522427 1.25893548-.3134351.31983871-.1590754.65051613-.3235398 1.3021935-.3235398.6519678 0 .982742.1645607 1.3025807.3235398.324.1611924.63.3134351 1.2587419.3134351.6288387 0 .9348387-.1522427 1.2589355-.3134351.3199355-.1589791.6506129-.3235398 1.3024839-.3235398.6515806 0 .982258.1644644 1.3020968.3235398.324.1611924.6300967.3134351 1.2589354.3134351.5406775 0 .8426129-.1125941 1.1225807-.2465523.141871-.2344268.2740645-.475205.3964839-.7216611-.0738388.0332008-.1449678.0684226-.2167742.1041255-.3014516.1498369-.6131613.3048703-1.1939033.3218076l-.0587419.0017322.5336129-3.1839122h-6.3944516v-.7193514l.0330968-.0108745c1.8149032-.6019456 3.6766451-.6536234 5.3844193-.1495481l.0135484.0064477c.1053871.0717908.2562581.0577406.3457742-.0317573.0515806-.0511967.0798387-.1191381.0798387-.1914101 0-.0720795-.0283548-.1399247-.0797419-.1907364-.0065807-.0068326-.0129678-.0125104-.0194516-.0177071-.1647097-.1494519-1.6302581-1.5051046-3.0266129-3.65247698-1.3649033-2.09887029-2.2224194-4.232-2.562871-6.36561088-.2343871-.04157322-.4715807-.07477406-.7112903-.09969874z"/><path d="m1.04862857 16.8863979c-.03195622-.015205-.06429401-.0301213-.09729954-.0445565.10855576.2383724.22588756.4717406.35123226.7001046.03586728.0179958.07182995.035703.10817419.0530251-.12954193-.2307698-.25021244-.4671213-.36210691-.7085732"/><path d="m9.94617097 2.16232757c.04132258-.02604088.08177423-.05325213.12329033-.07890288-.3877742.01550749-.77041936.05169163-1.14648388.10864995-.04403226.03160017-.08787097.06359046-.1316129.09558076.37858064-.06251762.76374193-.10513883 1.15480645-.12532783"/><path d="m20.0179229 16.6786088c-.0888126.2022845-.1837568.4011046-.2848326.596364.0290294-.0076987.0591126-.0149163.0898665-.0218452.0978184-.19141.1894093-.3865732.2756351-.5845272-.027688.002887-.0545138.0063515-.080669.0100084"/><path d="m11.5255645 2.19947653c.2157097.0214569.4291936.0500336.640742.08465724-.003-.02526063-.0049355-.05052126-.007742-.07568436-.2090322-.03394092-.4200968-.06183489-.633-.0829992z"/><path d="m1.74691935 17.1886314c-.20864516-.0613013-.37412903-.1432929-.53651612-.2240335-.05341936-.0265607-.10645162-.0527364-.16035484-.0782385.11351613.2414519.23593548.4778034.36735484.7086695.19383871.0911339.40180645.1707196.69396774.2091171-.12870968-.200456-.25025807-.4056276-.36445162-.6155146"/><path d="m12.2369032 2.78121004c-.0265161-.16638912-.0504193-.33277824-.0705484-.49916736-.2116451-.03416318-.425129-.06235983-.6408387-.08353138v.483c.2398065.02492468.477.05812552.7113871.09969874"/><path d="m9.11008065 2.72326736c.27096774-.19651046.54987096-.38387866.83612903-.56200836-.39106452.0199205-.77622581.06197489-1.15480645.12366108-.297.21527615-.58461291.44065691-.86225807.67575733.38496774-.10210461.77922581-.18169038 1.18093549-.23741005"/><path d="m19.0026871 17.5821238c.0456774-.0218451.090871-.0441715.1363548-.0667866.177-.0881506.3575807-.177841.5940968-.240297.1020968-.1952594.198-.3941758.2877097-.5964603-.2559678.0356067-.447.103067-.6216774.1818829-.1224194.2465523-.2546129.4872343-.3964839.721661"/><path d="m15.3190355 19.198177c-.6290323 0-.935129.1522427-1.2592258.3134351-.319742.1590753-.6504194.3235398-1.3021936.3235398-.6515806 0-.982258-.1644645-1.302-.3235398-.3240967-.1611924-.6302903-.3134351-1.2593226-.3134351-.62883866 0-.93493544.1522427-1.25883866.3133389-.31983871.1590753-.6506129.323636-1.30229032.323636-.6517742 0-.98254839-.1644645-1.30229033-.323636-.324-.1610962-.63009677-.3133389-1.25893548-.3133389-.62893548 0-.93493548.1522427-1.25903226.3133389-.06929032.0344519-.13916129.0690962-.2126129.1022971.12396774.1187531.25083871.2346192.38080645.3469247.26593548-.1204854.57948387-.2218201 1.09103226-.2218201.65158064 0 .98216129.1643682 1.302.3233473.324.1611924.63009677.3133389 1.25903226.3133389.62883871 0 .93493548-.1521465 1.25893548-.3132427.31983871-.1590753.65051613-.3234435 1.3021935-.3234435.6519678 0 .982742.1644644 1.3025807.3234435.324.1610962.63.3132427 1.2587419.3132427.6288387 0 .9348387-.1521465 1.2589355-.3132427.3199355-.1589791.6506129-.3234435 1.3024839-.3234435.6515806 0 .982258.1643682 1.3020968.3233473.0527419.0262719.1050967.0521589.1583225.0772761.1488387-.1214477.2939033-.2474184.4352904-.377046-.2575162-.062841-.4494194-.1576318-.636871-.2509791-.324-.1610962-.6300968-.3133389-1.2588387-.3133389"/><path d="m3.08118464 19.7837146c-.02626962.0052667-.05340846.0102408-.08122335.0148248.14110263.1454193.28587528.2872299.434994.4242615.02375856-.0094605.04713079-.0192137.07021329-.0292594-.14515897-.1325451-.28645475-.2693817-.42398394-.4098269"/><path d="m17.8442323 19.8345552c-.1704194.1690837-.346742.3322971-.5284839.4892553.0276774.005774.056129.0109707.0855484.0157824.1857097-.1622511.3656129-.3307573.5393226-.5054226-.0201291.0002887-.0397742.0009623-.0605807.0009623-.0123871 0-.0238064-.0004811-.0358064-.0005774"/><path d="m3.98312903 19.960728c-.13006451-.1123054-.25683871-.2281715-.38090322-.3469247-.14941936.0676528-.31451613.128954-.52083871.1699498.13770967.1385774.27929032.2734979.42474193.4042804.09174194-.0393599.17816129-.0821841.26564516-.125682.06880646-.0342594.1383871-.0686151.21135484-.1016235"/><path d="m16.7794355 20.1395699c.1573548.0741966.3238064.140887.5363226.1842887.1817419-.1570544.3580645-.3202678.5284838-.4892553-.2524838-.002502-.4560967-.0299288-.6295161-.0720795-.1413871.1296277-.2864516.2555984-.4352903.3770461"/></g></g></svg>