<svg height="23" viewBox="0 0 23 23" width="23" xmlns="http://www.w3.org/2000/svg" xmlns:xlink="http://www.w3.org/1999/xlink"><mask id="a" fill="#fff"><path d="m.0000106.05275229h22.946994v22.84172201h-22.946994z" fill="none"/></mask><mask id="b" fill="#fff"><path d="m0 22.9472477h22.9470046v-22.84174311h-22.9470046z" fill="none"/></mask><g fill="none" fill-rule="evenodd" transform=""><path d="m22.1273461 12.0202431c0 5.933578-4.8322258 10.7437431-10.7931475 10.7437431-5.96092164 0-10.79325344-4.8101651-10.79325344-10.7437431 0-5.93357796 4.8323318-10.7437431 10.79325344-10.7437431 5.9609217 0 10.7931475 4.81016514 10.7931475 10.7437431" fill="#5cd8ff"/><path d="m11.4735129 22.3141991c-6.00511981 0-10.89055299-4.8631285-10.89055299-10.8405963 0-5.97746794 4.88543318-10.84059638 10.89055299-10.84059638 6.0050138 0 10.890553 4.86312844 10.890553 10.84059638 0 5.9774678-4.8855392 10.8405963-10.890553 10.8405963m0-22.26146791c-6.32648387 0-11.4735023 5.12340826-11.4735023 11.42087161 0 6.2974633 5.14701843 11.4208715 11.4735023 11.4208715 6.3264839 0 11.4735023-5.1234082 11.4735023-11.4208715 0-6.29746335-5.1470184-11.42087161-11.4735023-11.42087161" fill="#000" mask="url(#a)" transform="translate(0 .052752)"/><g fill="#fff"><path d="m11.5795037 15.4827771c-2.13656223 0-3.86866361-1.7240505-3.86866361-3.8509175 0-2.12676143 1.73210138-3.8509174 3.86866361-3.8509174 2.1365622 0 3.8686636 1.72415597 3.8686636 3.8509174 0 2.126867-1.7321014 3.8509175-3.8686636 3.8509175m.0529954-12.13302756c-4.62448389 0-8.37327191 3.73169725-8.37327191 8.33486236 0 4.6032707 3.74878802 8.3348624 8.37327191 8.3348624 4.6244838 0 8.3732719-3.7315917 8.3732719-8.3348624 0-4.60316511-3.7487881-8.33486236-8.3732719-8.33486236"/><path d="m7.18087558 15.6938073h8.69124422v-8.65137611h-8.69124422z" mask="url(#b)"/><path d="m19.3446747 11.8956211c0-.1294541-.092954-.2218761-.2230047-.2218761-.1299447 0-.2227926.092422-.2227926.2218761 0 4.1235413-3.3623456 7.4704633-7.5048894 7.4704633-.1299447 0-.2228986.092422-.2228986.2218762 0 .1294541.0929539.2218761.2228986.2218761 4.3840968 0 7.9506867-3.5503349 7.9506867-7.9142156m-7.9506867 3.3098899c1.8390461 0 3.3251429-1.4792798 3.3251429-3.3098899s-1.4860968-3.30988991-3.3251429-3.30988991c-1.83904606 0-3.32514284 1.47927981-3.32514284 3.30988991s1.48609678 3.3098899 3.32514284 3.3098899m-4.19818892-3.3098899c0-2.31139449 1.87614286-4.17893119 4.19818892-4.17893119.1300507 0 .2230046-.09252752.2230046-.22187615 0-.12945413-.0929539-.22187615-.2230046-.22187615-2.56349307 0-4.64409215 2.07094955-4.64409215 4.62268349 0 .1294541.09295392.2219817.22289862.2219817.1115023 0 .22300461-.0925276.22300461-.2219817m-1.09605069 0c0-2.90306422 2.37779723-5.26995413 5.29423961-5.26995413.1300507 0 .2230046-.09242202.2230046-.22187614 0-.12945413-.0929539-.22187615-.2230046-.22187615-3.17643777 0-5.74003685 2.57030275-5.74003685 5.71370642 0 .1294541.09284793.2219817.22289862.2219817.1115023 0 .22289862-.0925276.22289862-.2219817m5.29423961-6.37944037c.1300507 0 .2230046-.09242201.2230046-.22187614 0-.12934863-.0929539-.22187615-.2230046-.22187615-3.77094007 0-6.83608754 3.05108716-6.83608754 6.80472936 0 .1294541.09295392.2218761.22300461.2218761.1299447 0 .22289862-.092422.22289862-.2218761-.01865438-3.49483945 2.86079723-6.36097707 6.39018431-6.36097707m-7.50478339 6.37944037c0-4.12343578 3.36223963-7.4703578 7.50478339-7.4703578.1300507 0 .2230046-.09252752.2230046-.22187614 0-.12945413-.0929539-.22187615-.2230046-.22187615-4.38399076 0-7.95058063 3.55022936-7.95058063 7.91411009 0 .1294541.09284793.2219817.22289862.2219817s.22289862-.0925276.22289862-.2219817m11.70307829 0c0 2.3113945-1.8761428 4.1790367-4.1982949 4.1790367-.1299447 0-.2228986.092422-.2228986.2218761 0 .1293487.0929539.2218762.2228986.2218762 2.5635991 0 4.6440922-2.0709495 4.6440922-4.622789 0-.1294541-.0928479-.2218761-.2228986-.2218761-.1115023 0-.2228987.092422-.2228987.2218761m1.0960507 0c0 2.9031697-2.3777972 5.2699541-5.2943456 5.2699541-.1299447 0-.2228986.0925276-.2228986.2218762 0 .1294541.0929539.2219816.2228986.2219816 3.1765438 0 5.7401429-2.5703027 5.7401429-5.7138119 0-.1294541-.092848-.2218761-.2230046-.2218761-.1113963 0-.2227927.092422-.2227927.2218761m-5.2943456 6.3794404c-.1299447 0-.2228986.092422-.2228986.2218761s.0929539.2218762.2228986.2218762c3.7709401 0 6.8360876-3.0509817 6.8360876-6.8047294 0-.1293486-.0929539-.2218761-.2228986-.2218761-.1300507 0-.2230046.0925275-.2230046.2218761.0186543 3.4948395-2.8606913 6.3609771-6.3901844 6.3609771m8.8237327-6.3794404c0 4.8446651-3.9567419 8.7832569-8.8237327 8.7832569-4.86699076 0-8.8237327-3.9385918-8.8237327-8.7832569 0-4.84466514 3.95674194-8.78325688 8.8237327-8.78325688 4.8669908 0 8.8237327 3.93859174 8.8237327 8.78325688m-8.8237327.8136514c-.4457972 0-.8174009-.3697936-.8174009-.8136514 0-.4437523.3716037-.8135459.8174009-.8135459.4457973 0 .8174009.3697936.8174009.8135459 0 .4438578-.3716036.8136514-.8174009.8136514" mask="url(#b)"/></g><path d="m19.5566562 11.6846119c0-.1294541-.0929539-.2218761-.2230046-.2218761-.1299447 0-.2227926.092422-.2227926.2218761 0 4.1235413-3.3623456 7.4704633-7.5048894 7.4704633-.1299447 0-.2228986.092422-.2228986.2218762 0 .1294541.0929539.2218761.2228986.2218761 4.3840968 0 7.9506866-3.5503348 7.9506866-7.9142156m-7.9506866 3.3098899c1.8390461 0 3.3251428-1.4792798 3.3251428-3.3098899 0-1.83061007-1.4860967-3.30988988-3.3251428-3.30988988s-3.32514287 1.47927981-3.32514287 3.30988988c0 1.8306101 1.48609677 3.3098899 3.32514287 3.3098899m-4.19818895-3.3098899c0-2.31139447 1.87614285-4.17893117 4.19818895-4.17893117.1300507 0 .2230046-.09252752.2230046-.22187614 0-.12945413-.0929539-.22187615-.2230046-.22187615-2.5634931 0-4.64398619 2.07094954-4.64398619 4.62268346 0 .1294542.09284793.2219817.22279263.2219817.1115023 0 .22300461-.0925275.22300461-.2219817m-1.0960507 0c0-2.90306419 2.37779724-5.2699541 5.29423965-5.2699541.1300507 0 .2230046-.09242202.2230046-.22187615s-.0929539-.22187615-.2230046-.22187615c-3.1764378 0-5.74003688 2.57030276-5.74003688 5.7137064 0 .1294542.09284793.2219817.22289862.2219817.1115023 0 .22289861-.0925275.22289861-.2219817m5.29423965-6.37944034c.1300507 0 .2230046-.09242202.2230046-.22187615 0-.12934862-.0929539-.22187614-.2230046-.22187614-3.77094011 0-6.83608757 3.05108715-6.83608757 6.80472933 0 .1294542.09295391.2218762.22300461.2218762.1299447 0 .22289861-.092422.22289861-.2218762-.01865437-3.49483943 2.86079724-6.36097704 6.39018435-6.36097704m-7.50478342 6.37944034c0-4.12343575 3.36223963-7.47035777 7.50478342-7.47035777.1300507 0 .2230046-.09252752.2230046-.22187615 0-.12945413-.0929539-.22187615-.2230046-.22187615-4.3839908 0-7.95058066 3.55022936-7.95058066 7.91411007 0 .1294542.09284793.2219817.22289862.2219817s.22289862-.0925275.22289862-.2219817m11.70307832 0c0 2.3113945-1.8761428 4.1790367-4.1982949 4.1790367-.1299447 0-.2228986.092422-.2228986.2218762 0 .1293486.0929539.2218761.2228986.2218761 2.5635991 0 4.6440922-2.0709495 4.6440922-4.622789 0-.1294541-.092848-.2218761-.2228987-.2218761-.1115023 0-.2228986.092422-.2228986.2218761m1.0960507 0c0 2.9031698-2.3777972 5.2699542-5.2943456 5.2699542-.1299447 0-.2228986.0925275-.2228986.2218761 0 .1294541.0929539.2219817.2228986.2219817 3.1765438 0 5.7401428-2.5703028 5.7401428-5.713812 0-.1294541-.0928479-.2218761-.2230046-.2218761-.1113963 0-.2227926.092422-.2227926.2218761m-5.2943456 6.3794404c-.1299447 0-.2228986.092422-.2228986.2218761 0 .1294542.0929539.2218762.2228986.2218762 3.7709401 0 6.8360875-3.0509817 6.8360875-6.8047294 0-.1293486-.0929539-.2218761-.2228986-.2218761-.1300507 0-.2230046.0925275-.2230046.2218761.0186544 3.4948395-2.8606912 6.3609771-6.3901843 6.3609771m8.8237327-6.3794404c0 4.8446652-3.9567419 8.7832569-8.8237327 8.7832569s-8.82373273-3.9385917-8.82373273-8.7832569c0-4.84466511 3.95674193-8.78325685 8.82373273-8.78325685s8.8237327 3.93859174 8.8237327 8.78325685m-8.8237327.8136514c-.4457972 0-.8174009-.3697936-.8174009-.8136514 0-.4437523.3716037-.8135458.8174009-.8135458s.8174009.3697935.8174009.8135458c0 .4438578-.3716037.8136514-.8174009.8136514" fill="#000" mask="url(#b)"/></g></svg>