<?xml version="1.0" encoding="UTF-8"?>
<svg width="24px" height="26px" viewBox="0 0 24 26" version="1.1" xmlns="http://www.w3.org/2000/svg" xmlns:xlink="http://www.w3.org/1999/xlink">
    <!-- Generator: Sketch 50.2 (55047) - http://www.bohemiancoding.com/sketch -->
    <title>Group 7</title>
    <desc>Created with Sketch.</desc>
    <defs>
        <polygon id="path-1" points="0.0834520548 0.0430564315 6.816 0.0430564315 6.816 11.1559527 0.0834520548 11.1559527"></polygon>
        <polygon id="path-3" points="0.0879232877 0.00931037344 18.1142247 0.00931037344 18.1142247 5.07053942 0.0879232877 5.07053942"></polygon>
    </defs>
    <g id="Future-Project-Desktop" stroke="none" stroke-width="1" fill="none" fill-rule="evenodd">
        <g id="maps" transform="translate(-465.000000, -454.000000)">
            <g id="about-us/map" transform="translate(48.000000, 44.000000)">
                <g id="map-markers" transform="translate(417.000000, 317.000000)">
                    <g id="Group-7" transform="translate(0.000000, 93.000000)">
                        <path d="M11.5,26 C17.8512746,26 23,20.8512746 23,14.5 C23,10.0572906 20.4807355,6.20298685 16.79284,4.28772244 C16.5003512,4.13582186 17.3065168,1.12683306 17,1 C15.6462318,0.439826507 13.5,2 12,2 C10.9947214,2 8.22527503,0.398204875 7,1 C6.39701316,1.29615762 7.23356429,3.8044914 6.75658864,4.02073534 C2.7717603,5.82731608 0,9.83996839 0,14.5 C0,20.8512746 5.14872538,26 11.5,26 Z" id="Oval-2" fill="#FFFFFF" fill-rule="nonzero"></path>
                        <g id="Group-169">
                            <g id="Group-3" transform="translate(16.986301, 3.563618)">
                                <mask id="mask-2" fill="white">
                                    <use xlink:href="#path-1"></use>
                                </mask>
                                <g id="Clip-2"></g>
                                <path d="M6.81112329,10.6400523 C6.81112329,10.81299 6.80652055,10.984849 6.7989589,11.1559527 C6.8100274,10.9494631 6.81605479,10.7414631 6.81605479,10.5321685 C6.81605479,5.90341328 4.06427397,1.90782822 0.0834520548,0.0430564315 C0.0848767123,0.0643095436 0.0860821918,0.0857784232 0.0875068493,0.107031535 C4.06273973,1.99942158 6.81112329,6.00967884 6.81112329,10.6400523" id="Fill-1" fill="#916AF9" mask="url(#mask-2)"></path>
                            </g>
                            <path d="M14.8780164,20.7437602 L11.1598795,20.7437602 C11.5024548,21.0837021 11.7735781,21.4975444 11.9440986,21.9613369 C12.319989,21.8249718 12.720537,21.7537685 13.1280986,21.7537685 C13.7451945,21.7537685 14.3437699,21.9179676 14.8632219,22.218532 C14.940263,22.1112954 15.0236603,22.0064324 15.1084822,21.9064241 L15.1087014,20.9447477 C15.0943452,20.8312539 14.9971397,20.7437602 14.8780164,20.7437602" id="Fill-4" fill="#5CD8FF"></path>
                            <path d="M3.55427945,20.3631137 C3.84885479,20.3935369 4.13707397,20.4561095 4.41356712,20.5504 L4.41356712,15.0475701 C4.14211507,15.5934622 3.85532055,16.1171303 3.55427945,16.6177112 L3.55427945,20.3631137 Z" id="Fill-6" fill="#5CD8FF"></path>
                            <path d="M1.00290411,14.2036705 C1.00290411,15.6596705 1.29046575,17.0506166 1.81167123,18.325156 C4.49046575,14.9526 6.27260274,10.0266249 6.7989589,4.52217676 C3.34515068,6.41413527 1.00290411,10.0444257 1.00290411,14.2036705" id="Fill-8" fill="#5CD8FF"></path>
                            <path d="M5.41461918,12.7490838 C5.24782466,13.1893577 5.07127671,13.6190589 4.88672877,14.0375402 L4.88672877,20.7481295 C5.19708493,20.9013245 5.48585205,21.0963784 5.74612603,21.3260631 L5.74579726,11.8248432 C5.63960548,12.1366274 5.52957808,12.4451751 5.41461918,12.7490838" id="Fill-10" fill="#5CD8FF"></path>
                            <path d="M6.21866301,20.8186207 C6.43926575,20.5859154 6.69044384,20.3846041 6.96649863,20.2210523 L6.96649863,6.89955851 C6.7748274,8.06146722 6.52463562,9.19608133 6.21866301,10.292073 L6.21866301,20.8186207 Z" id="Fill-12" fill="#5CD8FF"></path>
                            <path d="M14.8780164,12.4200598 L9.41083836,12.4200598 C9.28185205,12.4200598 9.17752329,12.5229809 9.17752329,12.6497444 C9.17752329,12.6511469 9.17686575,12.6524415 9.17686575,12.6543834 L9.17686575,17.693205 C9.17686575,17.6946075 9.17752329,17.6965494 9.17752329,17.6984913 C9.17752329,17.8246075 9.28218082,17.9273129 9.41083836,17.9273129 L14.8780164,17.9273129 C14.9971397,17.9273129 15.0943452,17.838956 15.1087014,17.7269726 L15.1087014,12.6206158 C15.0943452,12.5080929 14.9971397,12.4200598 14.8780164,12.4200598" id="Fill-14" fill="#5CD8FF"></path>
                            <path d="M14.3880767,7.73743817 C14.0073644,7.73743817 13.6334466,7.87250871 13.3073096,8.12873278 C13.2639123,8.16250041 13.2121863,8.17943817 13.1596932,8.17943817 C13.1073096,8.17943817 13.055474,8.16282407 13.0124055,8.12873278 C12.685611,7.87218506 12.3116932,7.73743817 11.9309808,7.73743817 C11.8004603,7.73743817 11.6945973,7.63279087 11.6945973,7.50408548 C11.6945973,7.37559585 11.8004603,7.27170373 11.9309808,7.27170373 C12.3627616,7.27170373 12.7840219,7.40407718 13.1593644,7.65771203 C13.5356932,7.40407718 13.9566247,7.27170373 14.3880767,7.27170373 C14.518926,7.27170373 14.624789,7.3759195 14.6244603,7.50408548 C14.6244603,7.63279087 14.518926,7.73743817 14.3880767,7.73743817 M10.7566247,5.52042573 C10.6258849,5.52172033 10.518926,5.41815187 10.517611,5.28977012 C10.5162959,5.16160415 10.6211726,5.05598589 10.7515836,5.05469129 C11.1111452,5.05102324 11.4625973,5.155239 11.7785425,5.35827635 C12.0906521,5.14930539 12.4398027,5.03840083 12.7988164,5.03451701 C12.929337,5.03311452 13.0362959,5.13646722 13.037611,5.26517261 C13.038926,5.39366224 12.9343781,5.4992805 12.8035288,5.50025145 C12.4952548,5.50348797 12.1936658,5.61644232 11.9309808,5.82670788 C11.8875836,5.86112282 11.8357479,5.87827635 11.7832548,5.87870788 C11.7315288,5.87957095 11.6793644,5.86338838 11.6360767,5.82962075 C11.3683507,5.62410207 11.0646795,5.51740498 10.7566247,5.52042573 M14.8780493,4.12009378 L9.41087123,4.12009378 C9.28177534,4.12009378 9.17755616,4.22312282 9.17755616,4.34956266 C9.17755616,4.35150456 9.17678904,4.3525834 9.17678904,4.35452531 L9.17678904,9.36918091 C9.17678904,9.37079917 9.17755616,9.37241743 9.17755616,9.37349627 C9.17755616,9.50090705 9.28210411,9.60350456 9.41087123,9.60350456 L14.8780493,9.60350456 C14.9971726,9.60350456 15.0942685,9.51547137 15.1087342,9.4026249 L15.1087342,4.32108133 C15.0942685,4.20823485 14.9971726,4.12009378 14.8780493,4.12009378" id="Fill-16" fill="#5CD8FF"></path>
                            <path d="M22.0561973,18.5589079 C21.759211,18.1794805 21.4724164,17.7812813 21.1962521,17.3648498 L21.1962521,20.9040863 C21.5113205,20.4973643 21.7984438,20.068634 22.0547726,19.6207004 L22.0547726,18.5622523 C22.0555397,18.5605261 22.0561973,18.5602025 22.0561973,18.5589079" id="Fill-18" fill="#5CD8FF"></path>
                            <path d="M20.7235836,16.6153593 C20.4222137,16.1147784 20.1350904,15.5904631 19.8642959,15.0455419 L19.8642959,20.4862307 C20.1612822,20.5696249 20.4484055,20.6832266 20.7235836,20.8242307 L20.7235836,16.6153593 Z" id="Fill-20" fill="#5CD8FF"></path>
                            <path d="M18.0588822,10.290088 C17.7576219,9.20758174 17.510389,8.08742407 17.3194849,6.93997178 L17.3194849,20.4921212 C17.5598137,20.4229676 17.8073753,20.3736647 18.0588822,20.3438888 L18.0588822,10.290088 Z" id="Fill-22" fill="#5CD8FF"></path>
                            <path d="M19.3914959,20.3783361 L19.3914959,14.037249 C19.1137973,13.4095809 18.8561534,12.7577469 18.620537,12.0840124 C18.5908384,11.9979212 18.5613589,11.9118299 18.5316603,11.8258465 L18.5316603,20.3111245 C18.5555507,20.3104772 18.580537,20.3104772 18.6046466,20.3104772 C18.8699616,20.3104772 19.1323178,20.3335643 19.3914959,20.3783361" id="Fill-24" fill="#5CD8FF"></path>
                            <path d="M21.2269041,11.5748979 C21.1747397,11.5748979 21.1230137,11.5587154 21.0796164,11.5241925 C20.7531507,11.2679685 20.3795616,11.1325743 19.9985205,11.1325743 C19.8674521,11.1325743 19.762137,11.0286822 19.762137,10.8998689 C19.762137,10.7711635 19.8674521,10.6671635 19.9985205,10.6671635 C20.4296438,10.6671635 20.8516712,10.7995369 21.2269041,11.0531718 C21.6019178,10.7995369 22.0236164,10.6671635 22.4550685,10.6671635 C22.5858082,10.6671635 22.6913425,10.7711635 22.6913425,10.8998689 C22.6913425,11.0286822 22.5854795,11.1325743 22.455726,11.1325743 C22.0743562,11.1325743 21.7010959,11.2684 21.3743014,11.5241925 C21.3311233,11.5583917 21.2787397,11.5748979 21.2269041,11.5748979 M23.4960548,14.2037029 C23.4960548,9.94898091 21.0453151,6.24791867 17.4608767,4.39479834 C17.9758356,10.041761 19.8073973,15.078317 22.6123288,18.5057859 C23.1813151,17.182483 23.4960548,15.7285328 23.4960548,14.2037029" id="Fill-26" fill="#5CD8FF"></path>
                            <path d="M3.08113973,17.3668025 C2.8054137,17.7838813 2.51861918,18.1815411 2.22196164,18.559566 L2.22196164,19.2136656 C2.42568767,19.6071178 2.65264658,19.9869768 2.90086575,20.351732 C2.96081096,20.347956 3.02086575,20.3447195 3.08113973,20.3435328 L3.08113973,17.3668025 Z" id="Fill-28" fill="#5CD8FF"></path>
                            <path d="M22.7355726,19.0342116 C23.3488329,17.7089668 23.7173808,16.2521037 23.7852164,14.7196141 C23.7033534,16.241639 23.3232986,17.685556 22.7022575,18.9965602 C22.7134356,19.0091826 22.7243945,19.0216971 22.7355726,19.0342116" id="Fill-30" fill="#000000"></path>
                            <g id="Group-34" transform="translate(2.082192, 20.825029)">
                                <mask id="mask-4" fill="white">
                                    <use xlink:href="#path-3"></use>
                                </mask>
                                <g id="Clip-33"></g>
                                <path d="M9.92649863,4.88080415 C5.96529315,4.88080415 2.46052603,2.95820664 0.321786301,0.00931037344 C0.243320548,0.0188041494 0.16540274,0.0308871369 0.0879232877,0.0457751037 C2.23553973,3.080439 5.80518356,5.07057178 9.83849863,5.07057178 C13.0246904,5.07057178 15.9215671,3.82872116 18.0568,1.81129378 C18.0747726,1.74904481 18.0937315,1.6871195 18.1142247,1.62616515 C15.9929096,3.64100332 13.1069918,4.88080415 9.92649863,4.88080415" id="Fill-32" fill="#000000" mask="url(#mask-4)"></path>
                            </g>
                            <path d="M0.215123288,14.0957867 C0.215123288,9.63047552 2.77621918,5.75464149 6.53084932,3.81240913 C6.53150685,3.80356266 6.53216438,3.7946083 6.53271233,3.78576183 C2.68460274,5.72238423 0.0439452055,9.66510622 0.0439452055,14.2036705 C0.0439452055,15.8606581 0.396712329,17.4378116 1.03090411,18.8673801 C1.08021918,18.8106332 1.1299726,18.755073 1.17863014,18.6973552 C0.559123288,17.2863427 0.215123288,15.7306581 0.215123288,14.0957867" id="Fill-35" fill="#000000"></path>
                            <path d="M1.24873425,19.330044 C1.30361553,19.4409519 1.36045297,19.5506776 1.4187032,19.6595436 L1.41859452,19.2122581 C1.41055251,19.1959228 1.40218447,19.1798025 1.39414247,19.1634672 C1.34599909,19.219566 1.297421,19.2749124 1.24873425,19.330044" id="Fill-37" fill="#000000"></path>
                            <path d="M22.1996055,19.941795 L22.1996055,19.9913137 C22.217211,19.9809568 22.2357945,19.9720025 22.2536174,19.9618614 C22.3428402,19.8059693 22.4286941,19.6479195 22.510853,19.487712 C22.4986813,19.4742266 22.4864009,19.4612805 22.4741205,19.4476871 C22.3866365,19.6147992 22.2950228,19.7795378 22.1996055,19.941795" id="Fill-39" fill="#000000"></path>
                            <path d="M1.89320548,20.4519701 C1.96417078,20.4346676 2.03567945,20.419622 2.10762283,20.4064033 C2.03426667,20.2946357 1.96275799,20.1815784 1.89320548,20.0672315 L1.89320548,20.4519701 Z" id="Fill-41" fill="#000000"></path>
                            <path d="M1.39535342,19.1633947 C1.40332544,19.1797697 1.41162065,19.1959292 1.4197004,19.2123041 L1.4197004,19.1352772 C1.41162065,19.1447574 1.40343317,19.1539145 1.39535342,19.1633947" id="Fill-43" fill="#000000"></path>
                            <path d="M1.89320548,19.2136871 L1.89320548,20.0672639 C1.96334247,20.1820523 2.03545205,20.2954382 2.10942466,20.4076373 C2.26175342,20.3798033 2.41638356,20.361571 2.57210959,20.3517535 C2.32389041,19.9869983 2.09682192,19.6071394 1.89320548,19.2136871" id="Fill-45" fill="#000000"></path>
                            <path d="M0.674136986,14.2036705 C0.674136986,10.0444257 3.01638356,6.41413527 6.47019178,4.52217676 C6.49276712,4.28666639 6.51293151,4.04996929 6.53079452,3.81240913 C2.77627397,5.75464149 0.215178082,9.63047552 0.215178082,14.0957867 C0.215178082,15.7306581 0.559068493,17.2863427 1.17868493,18.6973552 C1.28136986,18.5755544 1.38263014,18.4513801 1.48290411,18.325156 C0.96169863,17.0506166 0.674136986,15.6596705 0.674136986,14.2036705" id="Fill-47" fill="#000000"></path>
                            <path d="M20.8675288,21.1039734 C20.8792548,21.1122805 20.8915288,21.120156 20.9032548,21.1284631 C21.1402959,20.82121 21.4171178,20.5465378 21.7260493,20.3098407 L21.7260493,19.6206788 C21.4697205,20.0686124 21.1825973,20.4973427 20.8675288,20.9040647 L20.8675288,21.1039734 Z" id="Fill-49" fill="#000000"></path>
                            <path d="M20.460526,21.3997585 C18.3963068,23.7703975 15.3338411,25.2752689 11.9206904,25.2752689 C8.23214247,25.2752689 4.95269041,23.5179494 2.90063562,20.8092025 C2.87290959,20.8085552 2.84540274,20.8066133 2.81767671,20.8066133 C2.67871781,20.8066133 2.54085479,20.8176174 2.40397808,20.8343394 C4.54271781,23.7832357 8.04748493,25.7058332 12.0086904,25.7058332 C15.1891836,25.7058332 18.0751014,24.4660324 20.1964164,22.4511942 C20.3077589,22.1185884 20.4560329,21.8039992 20.636526,21.5118498 C20.5793205,21.4721485 20.5197041,21.4363311 20.460526,21.3997585" id="Fill-51" fill="#000000"></path>
                            <path d="M17.073863,3.67067137 C17.0909589,3.91308631 17.110137,4.15453029 17.1320548,4.39478755 C20.7164932,6.24790788 23.1673425,9.94897012 23.1673425,14.2036921 C23.1673425,15.7286299 22.8524932,17.1824722 22.2835068,18.5057751 C22.4207123,18.6733187 22.5604384,18.8367627 22.7022466,18.9966465 C23.3232877,17.6855344 23.7033425,16.2416174 23.7852055,14.7195925 C23.7928767,14.5484888 23.7974795,14.3766299 23.7974795,14.2036921 C23.7974795,9.57331867 21.0489863,5.56306141 17.073863,3.67067137" id="Fill-53" fill="#000000"></path>
                            <path d="M22.1996055,19.1345651 L22.1996055,19.9417519 C22.2950228,19.7796025 22.3866365,19.6148639 22.4741205,19.4477519 C22.3820721,19.3449386 22.2905671,19.2406149 22.1996055,19.1345651" id="Fill-55" fill="#000000"></path>
                            <path d="M9.90339726,2.3225444 C9.90339726,2.193839 9.79798174,2.08951535 9.66865753,2.08951535 C9.53889863,2.08951535 9.43391781,2.193839 9.43391781,2.3225444 L9.43391781,2.76400498 C9.5893242,2.72959004 9.74570868,2.69776432 9.90339726,2.66960664 L9.90339726,2.3225444 Z" id="Fill-57" fill="#000000"></path>
                            <path d="M7.11089315,1.06428465 L7.42968767,1.06428465 C7.56053699,1.06428465 7.6664,0.960392531 7.6664,0.831579253 L7.6664,0.465421577 L7.81982466,0.465421577 L7.81982466,0.831579253 C7.81982466,0.960392531 7.92503014,1.06428465 8.05620822,1.06428465 L8.37522192,1.06428465 L8.37522192,3.0439527 C8.49215342,3.0079195 8.60985205,2.9739361 8.72820822,2.94135519 C8.76820822,2.9299195 8.8084274,2.91880747 8.84875616,2.90780332 L8.84875616,1.76908963 L14.7799342,1.76908963 L14.7799342,2.80887386 C14.9401534,2.84684896 15.0992767,2.88752116 15.2568658,2.93186141 L15.2568658,1.53670788 C15.2568658,1.52678257 15.2554411,1.51750456 15.254126,1.50822656 L15.254126,1.06428465 L15.5729205,1.06428465 C15.7033315,1.06428465 15.8093041,0.960392531 15.8093041,0.831579253 L15.8093041,0.465421577 L15.9624,0.465421577 L15.9624,0.831579253 C15.9624,0.960392531 16.0672767,1.06428465 16.1987836,1.06428465 L16.5158247,1.06428465 C16.5138521,1.07690705 16.5117699,1.08909793 16.5117699,1.10172033 C16.5117699,1.30820996 16.5138521,1.51480747 16.5179068,1.72075768 L16.5179068,3.36533859 C16.7043178,3.4412888 16.8883178,3.52166224 17.0697973,3.60667469 C17.0270575,2.98709793 16.9990027,2.3612639 16.9883726,1.72960415 L16.9883726,0.831579253 C16.9883726,0.702442324 16.8830575,0.598873859 16.7515507,0.598873859 L16.4330849,0.598873859 L16.4330849,0.232716183 C16.4330849,0.103902905 16.3277699,1.07883817e-05 16.1967014,1.07883817e-05 L15.5711671,1.07883817e-05 C15.4400986,1.07883817e-05 15.334126,0.103902905 15.334126,0.232716183 L15.334126,0.598873859 L15.0157699,0.598873859 C14.884811,0.598873859 14.7786192,0.702442324 14.7786192,0.831579253 L14.7786192,1.3032473 L8.84678356,1.3032473 L8.84678356,0.831579253 C8.84678356,0.702442324 8.74146849,0.598873859 8.6104,0.598873859 L8.29149589,0.598873859 L8.29149589,0.232716183 C8.29149589,0.103902905 8.18596164,1.07883817e-05 8.05511233,1.07883817e-05 L7.42859178,1.07883817e-05 C7.29785205,1.07883817e-05 7.19220822,0.103902905 7.19220822,0.232716183 L7.19220822,0.598873859 L6.87352329,0.598873859 C6.74267397,0.598873859 6.63670137,0.702442324 6.63670137,0.831579253 L6.63670137,1.07615187 C6.63604384,1.08445892 6.63396164,1.09276598 6.63396164,1.10139668 C6.63396164,2.0072971 6.59856438,2.90294855 6.53281096,3.78576183 C6.72250959,3.69028465 6.91549589,3.60009378 7.11089315,3.51454191 L7.11089315,1.06428465 Z" id="Fill-59" fill="#000000"></path>
                            <path d="M10.7615945,2.3225444 C10.7615945,2.193839 10.6568311,2.08951535 10.5271808,2.08951535 C10.3974219,2.08951535 10.2927671,2.193839 10.2927671,2.3225444 L10.2927671,2.60843651 C10.4480648,2.58599668 10.6043406,2.56625394 10.7615945,2.5498556 L10.7615945,2.3225444 Z" id="Fill-61" fill="#000000"></path>
                            <path d="M11.6201123,2.32164813 C11.6201123,2.19343776 11.5150228,2.08951535 11.3856986,2.08951535 C11.2556137,2.08951535 11.1509589,2.19343776 11.1509589,2.32164813 L11.1509589,2.51476971 C11.306474,2.50370041 11.4629671,2.49596266 11.6201123,2.49091162 L11.6201123,2.32164813 Z" id="Fill-63" fill="#000000"></path>
                            <path d="M14.1945973,2.3225444 C14.1945973,2.193839 14.0899425,2.08951535 13.9601836,2.08951535 C13.8304247,2.08951535 13.7251178,2.193839 13.7251178,2.3225444 L13.7251178,2.60843651 C13.8826977,2.63130788 14.0390822,2.65730788 14.1945973,2.68632863 L14.1945973,2.3225444 Z" id="Fill-65" fill="#000000"></path>
                            <path d="M13.3363973,2.32164813 C13.3363973,2.19343776 13.2317425,2.08951535 13.1019836,2.08951535 C12.9725507,2.08951535 12.8672438,2.19343776 12.8672438,2.32164813 L12.8672438,2.51487718 C13.0246064,2.52605394 13.1808822,2.54066971 13.3363973,2.5579722 L13.3363973,2.32164813 Z" id="Fill-67" fill="#000000"></path>
                            <path d="M12.4778877,2.32164813 C12.4778877,2.19343776 12.3735589,2.08951535 12.2435826,2.08951535 C12.1140411,2.08951535 12.0087342,2.19343776 12.0087342,2.32164813 L12.0087342,2.48414108 C12.1659881,2.48414108 12.3221553,2.48811743 12.4778877,2.49424315 L12.4778877,2.32164813 Z" id="Fill-69" fill="#000000"></path>
                            <path d="M12.4778877,2.52508312 L12.4778877,2.49578056 C12.3221553,2.48963995 12.1659881,2.48565394 12.0087342,2.48565394 L12.0087342,2.5128019 C12.1658795,2.5138792 12.3222639,2.51786521 12.4778877,2.52508312" id="Fill-71" fill="#000000"></path>
                            <path d="M12.2435817,3.32851909 C12.3563872,3.32851909 12.4497397,3.25038921 12.472453,3.14560705 C12.3199808,3.1381917 12.1665306,3.13443029 12.012537,3.13324813 C12.0305772,3.24383361 12.12719,3.32851909 12.2435817,3.32851909" id="Fill-73" fill="#000000"></path>
                            <path d="M11.3857553,3.32852988 C11.5013863,3.32852988 11.597021,3.2455639 11.6161479,3.13605311 C11.4633498,3.14013693 11.3115297,3.14776722 11.1603616,3.15786929 C11.1876393,3.25609585 11.2774055,3.32852988 11.3857553,3.32852988" id="Fill-75" fill="#000000"></path>
                            <path d="M10.5275963,3.32904171 C10.6226877,3.32904171 10.7038685,3.27303706 10.7407096,3.19258423 C10.6081251,3.20626229 10.47641,3.22284828 10.3452384,3.24115749 C10.388274,3.29436191 10.4533708,3.32904171 10.5275963,3.32904171" id="Fill-77" fill="#000000"></path>
                            <path d="M22.3625973,10.8998905 C22.3625973,10.7711851 22.257063,10.6671851 22.1263233,10.6671851 C21.6947616,10.6671851 21.2731726,10.7995585 20.8981589,11.0531934 C20.522926,10.7995585 20.100789,10.6671851 19.6697753,10.6671851 C19.5385973,10.6671851 19.4333918,10.7711851 19.4333918,10.8998905 C19.4333918,11.0287037 19.5385973,11.1325959 19.6697753,11.1325959 C20.0507068,11.1325959 20.4242959,11.26799 20.7508712,11.5242141 C20.7941589,11.558629 20.8459945,11.5749195 20.8981589,11.5749195 C20.9498849,11.5749195 21.0023781,11.5584133 21.0454466,11.5242141 C21.3723507,11.2684216 21.745611,11.1325959 22.1269808,11.1325959 C22.2567342,11.1325959 22.3625973,11.0287037 22.3625973,10.8998905" id="Fill-79" fill="#000000"></path>
                            <path d="M14.1945973,2.72820006 L14.1945973,2.68618536 C14.0390822,2.65720599 13.8826977,2.63124306 13.7251178,2.60851203 L13.7251178,2.64643299 C13.8826977,2.67024132 14.0390822,2.69814339 14.1945973,2.72820006" id="Fill-81" fill="#000000"></path>
                            <path d="M11.6201123,2.51541869 L11.6201123,2.4924722 C11.4629671,2.49742778 11.306474,2.50529207 11.1509589,2.51638826 L11.1509589,2.53696469 C11.3065826,2.5269458 11.4628584,2.51929697 11.6201123,2.51541869" id="Fill-83" fill="#000000"></path>
                            <path d="M13.3363973,2.59546402 L13.3363973,2.55969766 C13.1808822,2.54235313 13.0246064,2.52770185 12.8672438,2.51649793 L12.8672438,2.54881693 C13.0246064,2.56120588 13.1808822,2.57704219 13.3363973,2.59546402" id="Fill-85" fill="#000000"></path>
                            <path d="M13.1020804,3.32951369 C13.1874995,3.32951369 13.2613991,3.28391668 13.3023699,3.21616946 C13.1629388,3.19898954 13.0225297,3.18483502 12.8814685,3.17284149 C12.9135279,3.26392747 12.9997078,3.32951369 13.1020804,3.32951369" id="Fill-87" fill="#000000"></path>
                            <path d="M13.9610986,3.32922227 C13.9774,3.32922227 13.9933753,3.32749859 14.0086986,3.32448215 C13.9518612,3.31370915 13.8948064,3.3034748 13.8375342,3.29367137 C13.8736146,3.31586375 13.9157808,3.32922227 13.9610986,3.32922227" id="Fill-89" fill="#000000"></path>
                            <path d="M12.2435498,10.391078 C12.1141169,10.391078 12.0087014,10.4949701 12.0087014,10.6237834 L12.0087014,11.3974183 C12.0087014,11.5262315 12.1141169,11.6301237 12.2435498,11.6301237 C12.373526,11.6301237 12.4778548,11.5262315 12.4778548,11.3974183 L12.4778548,10.6237834 C12.4782895,10.4954017 12.373526,10.391078 12.2435498,10.391078" id="Fill-91" fill="#000000"></path>
                            <path d="M9.66863562,10.391078 C9.53898539,10.391078 9.43389589,10.4949701 9.43389589,10.6237834 L9.43389589,11.3974183 C9.43389589,11.5262315 9.53898539,11.6301237 9.66863562,11.6301237 C9.79795982,11.6301237 9.90337534,11.5262315 9.90337534,11.3974183 L9.90337534,10.6237834 C9.90337534,10.4954017 9.79795982,10.391078 9.66863562,10.391078" id="Fill-93" fill="#000000"></path>
                            <path d="M13.1019616,10.391078 C12.9726374,10.391078 12.8672219,10.4949701 12.8672219,10.6237834 L12.8672219,11.3974183 C12.8672219,11.5262315 12.9723114,11.6301237 13.1019616,11.6301237 C13.2317205,11.6301237 13.3363753,11.5262315 13.3363753,11.3974183 L13.3363753,10.6237834 C13.3363753,10.4954017 13.2313945,10.391078 13.1019616,10.391078" id="Fill-95" fill="#000000"></path>
                            <path d="M11.3856767,10.391078 C11.2555918,10.391078 11.150937,10.4949701 11.150937,10.6237834 L11.150937,11.3974183 C11.150937,11.5262315 11.2555918,11.6301237 11.3856767,11.6301237 C11.5150009,11.6301237 11.6200904,11.5262315 11.6200904,11.3974183 L11.6200904,10.6237834 C11.6200904,10.4954017 11.5146749,10.391078 11.3856767,10.391078" id="Fill-97" fill="#000000"></path>
                            <path d="M10.7615945,2.56715698 L10.7615945,2.54981245 C10.6043406,2.56618741 10.4480648,2.585902 10.2927671,2.60830984 L10.2927671,2.62199155 C10.4480648,2.60076874 10.6043406,2.58234691 10.7615945,2.56715698" id="Fill-99" fill="#000000"></path>
                            <path d="M10.5271589,10.391078 C10.3975087,10.391078 10.2927452,10.4949701 10.2927452,10.6237834 L10.2927452,11.3974183 C10.2927452,11.5262315 10.3975087,11.6301237 10.5271589,11.6301237 C10.6568091,11.6301237 10.7615726,11.5262315 10.7615726,11.3974183 L10.7615726,10.6237834 C10.7615726,10.4954017 10.6568091,10.391078 10.5271589,10.391078" id="Fill-101" fill="#000000"></path>
                            <path d="M13.9601616,10.391078 C13.8305114,10.391078 13.7250959,10.4949701 13.7250959,10.6237834 L13.7250959,11.3974183 C13.7250959,11.5262315 13.8305114,11.6301237 13.9601616,11.6301237 C14.0899205,11.6301237 14.1945753,11.5262315 14.1945753,11.3974183 L14.1945753,10.6237834 C14.1945753,10.4954017 14.0899205,10.391078 13.9601616,10.391078" id="Fill-103" fill="#000000"></path>
                            <path d="M11.6022247,5.82666473 C11.8648,5.61639917 12.166389,5.5035527 12.4747726,5.50031618 C12.6056219,5.49923734 12.7101699,5.39361909 12.7088548,5.26523734 C12.7075397,5.13642407 12.6005808,5.03317925 12.4700603,5.03447386 C12.1110466,5.03846556 11.7618959,5.14937012 11.4497863,5.3582332 C11.1338411,5.15530373 10.782389,5.05108797 10.4228274,5.05464813 C10.2924164,5.05594274 10.1875397,5.161561 10.1888548,5.28972697 C10.1901699,5.41810871 10.2971288,5.52178506 10.4278685,5.52049046 C10.7359233,5.51746971 11.0395945,5.62405892 11.3073205,5.82968548 C11.3506082,5.86345311 11.4027726,5.87963568 11.4544986,5.87866473 C11.5069918,5.87834108 11.5588274,5.86107967 11.6022247,5.82666473" id="Fill-105" fill="#000000"></path>
                            <path d="M8.8467532,2.90784647 C8.80710856,2.91883493 8.76757165,2.92993112 8.72814247,2.9413505 C8.76757165,2.93025431 8.80710856,2.91969677 8.8467532,2.90913923 L8.8467532,2.90784647 Z" id="Fill-107" fill="#000000"></path>
                            <path d="M15.2528913,2.98222888 L15.2528913,2.93198573 C15.0966155,2.88768531 14.9388183,2.84695054 14.7799342,2.80891701 L14.7799342,2.85516232 C14.9388183,2.8943844 15.0966155,2.93673992 15.2528913,2.98222888" id="Fill-109" fill="#000000"></path>
                            <path d="M14.0593096,7.27166058 C13.6278575,7.27166058 13.206926,7.40414191 12.8305973,7.65766888 C12.4552548,7.40414191 12.0339945,7.27166058 11.6022137,7.27166058 C11.4716932,7.27166058 11.3658301,7.3755527 11.3658301,7.50404232 C11.3658301,7.6328556 11.4716932,7.73739502 11.6022137,7.73739502 C11.982926,7.73739502 12.3568438,7.87214191 12.6836384,8.12868963 C12.7267068,8.16278091 12.7785425,8.17939502 12.830926,8.17939502 C12.8834192,8.17939502 12.9351452,8.16245726 12.9785425,8.12868963 C13.3046795,7.87246556 13.6785973,7.73739502 14.0593096,7.73739502 C14.1901589,7.73739502 14.2956932,7.6328556 14.2956932,7.50404232 C14.2960219,7.37598423 14.1901589,7.27166058 14.0593096,7.27166058" id="Fill-111" fill="#000000"></path>
                            <path d="M16.9907068,6.93995021 C17.181611,8.08740249 17.4288438,9.20766805 17.7301041,10.2900664 L17.7301041,20.3438672 C17.4785973,20.373751 17.2310356,20.4230539 16.9907068,20.4922075 L16.9907068,6.93995021 Z M18.2029808,11.8257925 C18.2325699,11.9118838 18.2621589,11.9979751 18.2917479,12.0840664 C18.5273644,12.7576929 18.7850082,13.409527 19.0627068,14.037195 L19.0627068,20.3782822 C18.8035288,20.3336183 18.5411726,20.3104232 18.2759671,20.3104232 C18.2517479,20.3104232 18.2267616,20.3104232 18.2029808,20.3110705 L18.2029808,11.8257925 Z M19.5355836,15.0455851 C19.8062685,15.5905062 20.0933918,16.1148216 20.3947616,16.6154025 L20.3947616,20.8242739 C20.1196932,20.6831618 19.8325699,20.569668 19.5355836,20.486166 L19.5355836,15.0455851 Z M14.7799671,9.40261411 C14.7655014,9.51546058 14.6684055,9.60349378 14.5492822,9.60349378 L9.08210411,9.60349378 C8.95333699,9.60349378 8.84878904,9.50089627 8.84878904,9.37348548 C8.84878904,9.37240664 8.84802192,9.37078838 8.84802192,9.36917012 L8.84802192,4.35451452 C8.84802192,4.35257261 8.84878904,4.35149378 8.84878904,4.34955187 C8.84878904,4.22311203 8.95300822,4.12008299 9.08210411,4.12008299 L14.5492822,4.12008299 C14.6684055,4.12008299 14.7655014,4.20822407 14.7799671,4.32107054 L14.7799671,9.40261411 Z M14.7799671,11.9923651 C14.7084055,11.9677676 14.6300493,11.9542822 14.5492822,11.9542822 L9.08210411,11.9542822 C9.00046027,11.9542822 8.92210411,11.9681992 8.84878904,11.9933361 L8.84878904,10.0302822 C8.92166575,10.0550954 9.00046027,10.0689046 9.08210411,10.0689046 L14.5492822,10.0689046 C14.6303781,10.0689046 14.7084055,10.0557427 14.7799671,10.0309295 L14.7799671,11.9923651 Z M14.7799671,17.7270373 C14.7655014,17.8389129 14.6684055,17.9272697 14.5492822,17.9272697 L9.08210411,17.9272697 C8.95333699,17.9272697 8.84878904,17.8246722 8.84878904,17.698556 C8.84878904,17.6965062 8.84802192,17.6945643 8.84802192,17.6932697 L8.84802192,12.6544481 C8.84802192,12.6523983 8.84878904,12.6511037 8.84878904,12.6498091 C8.84878904,12.5229378 8.95300822,12.4200166 9.08210411,12.4200166 L14.5492822,12.4200166 C14.6684055,12.4200166 14.7655014,12.5080498 14.7799671,12.6206805 L14.7799671,17.7270373 Z M14.7799671,20.3150622 C14.7084055,20.2905726 14.6300493,20.2770871 14.5492822,20.2770871 L10.2470356,20.2770871 C9.82928219,20.0119087 9.35289863,19.8341162 8.84878904,19.7669046 L8.84878904,18.3529793 C8.92166575,18.3787635 9.00046027,18.3923568 9.08210411,18.3923568 L14.5492822,18.3923568 C14.6303781,18.3923568 14.7084055,18.3787635 14.7799671,18.3536266 L14.7799671,20.3150622 Z M14.7796384,21.9064564 C14.694926,22.0063568 14.6115288,22.1113278 14.5344877,22.2185643 C14.0150356,21.918 13.4164603,21.7538008 12.7993644,21.7538008 C12.3916932,21.7538008 11.9912548,21.8250041 11.6152548,21.9613693 C11.4448438,21.4975768 11.1737205,21.0837344 10.8311452,20.7437925 L14.5492822,20.7437925 C14.6684055,20.7437925 14.7655014,20.8311784 14.7799671,20.9446722 L14.7796384,21.9064564 Z M6.63772055,20.2210954 C6.36166575,20.3846473 6.11048767,20.5858506 5.88988493,20.8186639 L5.88988493,10.2921162 C6.19585753,9.1960166 6.44604932,8.06151037 6.63772055,6.89949378 L6.63772055,20.2210954 Z M4.55793973,20.7481079 L4.55793973,14.0375187 C4.74248767,13.6190373 4.91903562,13.1893361 5.08583014,12.7490622 C5.20078904,12.4451535 5.31081644,12.1366058 5.41711781,11.8248216 L5.41744658,21.3261494 C5.1571726,21.0963568 4.86829589,20.9014108 4.55793973,20.7481079 Z M4.08473425,20.5504647 C3.80835068,20.4560664 3.52013151,20.3936017 3.22555616,20.3630705 L3.22555616,16.617668 C3.52659726,16.1170871 3.81339178,15.5934191 4.08473425,15.047527 L4.08473425,20.5504647 Z M16.5184877,20.6570539 C16.0581041,20.8460664 15.6300493,21.1079004 15.2540493,21.4329544 L15.2540493,21.00239 C15.255474,20.9934357 15.2568986,20.9830788 15.2568986,20.9738008 L15.2568986,17.6979087 C15.2568986,17.6876598 15.255474,17.6779502 15.2540493,17.6687801 C15.2540493,17.6687801 15.2568986,12.6594108 15.2568986,12.6498091 L15.2568986,3.6293195 C15.0993096,3.58109544 14.9402959,3.5366473 14.7799671,3.49511203 L14.7799671,3.69243154 C14.7084055,3.66794191 14.6300493,3.65434855 14.5492822,3.65434855 L9.08210411,3.65434855 C9.00046027,3.65434855 8.92210411,3.66794191 8.84878904,3.69340249 L8.84878904,3.55185892 C8.68944658,3.59652282 8.53174795,3.64496266 8.37525479,3.69631535 L8.37525479,19.737668 C7.93580274,19.7403651 7.50741918,19.8288299 7.11092603,19.9873112 L7.11092603,4.19711203 C6.89328219,4.29884647 6.67980274,4.40737759 6.4701589,4.52216598 C5.94380274,10.0266141 4.16177534,14.9525892 1.48287123,18.3251452 C1.60681644,18.628083 1.74358356,18.9245477 1.8931726,19.2136763 L1.8931726,18.5595768 C2.18983014,18.1815519 2.47673425,17.7838921 2.75235068,17.3668133 L2.75235068,20.3435436 C2.69207671,20.3446224 2.63213151,20.3479668 2.5721863,20.3517427 C2.67793973,20.5069876 2.78730959,20.6595353 2.90062466,20.8091701 C3.98840548,20.835278 5.00177534,21.3717842 5.62347397,22.2563237 C5.66928219,22.322888 5.74248767,22.3576266 5.81788493,22.3576266 C5.86402192,22.3576266 5.91136438,22.3440332 5.95202192,22.3161992 C6.06007671,22.2430539 6.08692603,22.0980581 6.01229589,21.9921162 C5.94709041,21.898473 5.87739178,21.8090373 5.80451507,21.7229461 C6.31662466,20.7954689 7.31870685,20.2031867 8.39640548,20.2031867 C9.64703562,20.2031867 10.7738301,20.9990456 11.1821589,22.1523237 C10.9770082,22.2609627 10.7830356,22.3910705 10.6030904,22.5389793 C10.5755836,22.5376846 10.5482959,22.5370373 10.5206795,22.5370373 C10.0445151,22.5370373 9.58489863,22.7065228 9.22665205,23.0150705 C9.12889863,23.0998672 9.11881644,23.2464813 9.2051726,23.3434689 C9.29054247,23.4398091 9.44056986,23.4500581 9.53843288,23.3652614 C9.81043288,23.1312614 10.1588164,23.0018008 10.5206795,23.0018008 C10.9571726,23.0018008 11.3705425,23.1895187 11.6543781,23.5158672 C11.7009534,23.5695934 11.7676932,23.5973195 11.8342137,23.5973195 C11.8886795,23.5973195 11.9431452,23.579195 11.9879671,23.5417593 C12.0871452,23.4583651 12.0988712,23.3109959 12.0141589,23.213361 C11.7985973,22.9657676 11.527474,22.779668 11.2265425,22.6652033 C11.6947068,22.3747801 12.2384877,22.2182407 12.7982685,22.2182407 C13.6608438,22.2182407 14.4787068,22.5887137 15.0395836,23.2346141 C15.0863781,23.2888797 15.1526795,23.3156349 15.2195288,23.3156349 C15.2739945,23.3156349 15.3284603,23.2975104 15.3731726,23.2600747 C15.4724603,23.1765726 15.4841863,23.0296349 15.3993644,22.932 C15.2540493,22.7651037 15.0940493,22.6157925 14.9233096,22.4820166 C15.6929534,21.4135353 16.9455562,20.7759419 18.2748712,20.7759419 C19.0515288,20.7759419 19.8092274,20.9965643 20.4605151,21.3997261 C20.6008986,21.2385477 20.7366795,21.0730539 20.8675288,20.9041079 L20.8675288,17.3647635 C21.1436932,17.7813029 21.4304877,18.1795021 21.727474,18.5589295 C21.727474,18.5602241 21.7268164,18.5605477 21.7260493,18.562166 L21.7260493,19.620722 C21.9320767,19.2608216 22.1188164,18.8889461 22.2835288,18.5057427 C19.4785973,15.0783817 17.6470356,10.0417178 17.1320767,4.39486307 C16.9307616,4.29075519 16.7261589,4.19214938 16.5179397,4.1000166 L16.5184877,20.6570539 Z" id="Fill-113" fill="#000000"></path>
                            <path d="M9.90339726,2.669639 C9.74570868,2.69775653 9.5893242,2.72953688 9.43391781,2.76390275 L9.43391781,2.77025882 C9.58921553,2.73729344 9.74581735,2.7073445 9.90339726,2.68062746 L9.90339726,2.669639 Z" id="Fill-115" fill="#000000"></path>
                            <path d="M12.2435498,18.6923386 C12.1141169,18.6923386 12.0087014,18.7965544 12.0087014,18.9256913 L12.0087014,19.6990025 C12.0087014,19.8281394 12.1141169,19.9317079 12.2435498,19.9317079 C12.373526,19.9317079 12.4778548,19.8281394 12.4778548,19.6990025 L12.4778548,18.9256913 C12.4782895,18.7965544 12.373526,18.6923386 12.2435498,18.6923386" id="Fill-117" fill="#000000"></path>
                            <path d="M13.1019616,18.6923386 C12.9726374,18.6923386 12.8672219,18.7965544 12.8672219,18.9256913 L12.8672219,19.6990025 C12.8672219,19.8281394 12.9723114,19.9317079 13.1019616,19.9317079 C13.2317205,19.9317079 13.3363753,19.8281394 13.3363753,19.6990025 L13.3363753,18.9256913 C13.3363753,18.7965544 13.2313945,18.6923386 13.1019616,18.6923386" id="Fill-119" fill="#000000"></path>
                            <path d="M10.5271589,18.6923386 C10.3975087,18.6923386 10.2927452,18.7965544 10.2927452,18.9256913 L10.2927452,19.6990025 C10.2927452,19.8281394 10.3975087,19.9317079 10.5271589,19.9317079 C10.6568091,19.9317079 10.7615726,19.8281394 10.7615726,19.6990025 L10.7615726,18.9256913 C10.7615726,18.7965544 10.6568091,18.6923386 10.5271589,18.6923386" id="Fill-121" fill="#000000"></path>
                            <path d="M11.3856767,18.6923386 C11.2555918,18.6923386 11.150937,18.7965544 11.150937,18.9256913 L11.150937,19.6990025 C11.150937,19.8281394 11.2555918,19.9317079 11.3856767,19.9317079 C11.5150009,19.9317079 11.6200904,19.8281394 11.6200904,19.6990025 L11.6200904,18.9256913 C11.6200904,18.7965544 11.5146749,18.6923386 11.3856767,18.6923386" id="Fill-123" fill="#000000"></path>
                            <path d="M9.66863562,18.6923386 C9.53898539,18.6923386 9.43389589,18.7965544 9.43389589,18.9256913 L9.43389589,19.6990025 C9.43389589,19.8281394 9.53898539,19.9317079 9.66863562,19.9317079 C9.79795982,19.9317079 9.90337534,19.8281394 9.90337534,19.6990025 L9.90337534,18.9256913 C9.90337534,18.7965544 9.79795982,18.6923386 9.66863562,18.6923386" id="Fill-125" fill="#000000"></path>
                            <path d="M16.5178849,3.42317842 C16.7057205,3.50077095 16.8910356,3.58287718 17.0738301,3.6694971 C17.0724055,3.64832573 17.0712,3.62693942 17.0697753,3.60576805 C16.8882959,3.52108257 16.7042959,3.44101826 16.5178849,3.36536017 L16.5178849,3.42317842 Z" id="Fill-127" fill="#000000"></path>
                            <path d="M13.9601616,18.6923386 C13.8305114,18.6923386 13.7250959,18.7965544 13.7250959,18.9256913 L13.7250959,19.6990025 C13.7250959,19.8281394 13.8305114,19.9317079 13.9601616,19.9317079 C14.0899205,19.9317079 14.1945753,19.8281394 14.1945753,19.6990025 L14.1945753,18.9256913 C14.1945753,18.7965544 14.0899205,18.6923386 13.9601616,18.6923386" id="Fill-129" fill="#000000"></path>
                            <path d="M1.39231689,19.1634349 C1.31733059,19.0100241 1.24571324,18.8545635 1.17735616,18.6973768 C1.12910411,18.7550946 1.0797653,18.8106548 1.03096986,18.8672938 C1.09976164,19.0236174 1.17159635,19.1781071 1.24690868,19.3306548 C1.29559543,19.2754183 1.34417352,19.2197502 1.39231689,19.1634349" id="Fill-131" fill="#000000"></path>
                            <path d="M22.2540822,19.9618183 C22.2361096,19.9719593 22.2173699,19.9809137 22.1996164,19.9912705 L22.1996164,19.9417519 C21.6503562,20.8675029 20.9750685,21.711478 20.1964384,22.4511295 C20.1759452,22.5121917 20.1568767,22.5740091 20.1390137,22.636366 C20.968274,21.8528058 21.6823562,20.9521917 22.2540822,19.9618183" id="Fill-133" fill="#000000"></path>
                            <path d="M2.10939178,20.4076805 C2.03684384,20.4209502 1.96484384,20.4361618 1.8931726,20.4534232 L1.8931726,20.0671992 C1.72374795,19.7896141 1.56604932,19.5043693 1.42007671,19.2124357 L1.4201863,19.6614481 C1.64583014,20.0802531 1.89635068,20.4840622 2.17010411,20.8708257 C2.24758356,20.8559378 2.32550137,20.8438548 2.40396712,20.834361 C2.30259726,20.6944357 2.20451507,20.552029 2.10939178,20.4076805" id="Fill-135" fill="#000000"></path>
                            <path d="M8.72524475,2.94135519 C8.60787489,2.97388965 8.49115708,3.0078246 8.3752,3.04380642 L8.3752,3.04790016 C8.49126575,3.01073331 8.60776621,2.97496695 8.72524475,2.94135519" id="Fill-137" fill="#000000"></path>
                            <path d="M22.4764712,19.445995 C22.4886429,19.4594286 22.501032,19.4724324 22.5132037,19.4857585 C22.5897114,19.3370216 22.6632849,19.1864577 22.7333808,19.0340668 C22.7224046,19.0216004 22.7114283,19.009134 22.7004521,18.9965602 C22.6288347,19.1481988 22.5543918,19.2981178 22.4764712,19.445995" id="Fill-139" fill="#000000"></path>
                            <path d="M7.11089315,3.53164025 L7.11089315,3.5145527 C6.91549589,3.59977552 6.72250959,3.6896195 6.53281096,3.78472946 C6.53215342,3.79354191 6.53149589,3.80246183 6.53083836,3.81127427 C6.72119452,3.71304772 6.91450959,3.61965726 7.11089315,3.53164025" id="Fill-141" fill="#000000"></path>
                            <path d="M1.48289315,18.3251237 C1.38261918,18.4513477 1.2813589,18.5756299 1.17867397,18.6974307 C1.24760548,18.8545095 1.31971507,19.0099701 1.39533151,19.1634888 C1.40355068,19.153995 1.41198904,19.1448249 1.42009863,19.1352232 L1.42009863,19.212468 C1.56607123,19.5044017 1.72376986,19.7896465 1.89319452,20.0672315 L1.89319452,19.2136548 C1.74360548,18.924634 1.60683836,18.6280614 1.48289315,18.3251237" id="Fill-143" fill="#000000"></path>
                            <path d="M22.4764712,19.4477303 C22.5550466,19.2992822 22.6301151,19.1487842 22.7023342,18.9965602 C22.560526,18.8367842 22.4206904,18.6733402 22.2834849,18.5057967 C22.1187726,18.889 21.9320329,19.2608755 21.7260055,19.620668 L21.7260055,20.3098299 C21.417074,20.546527 21.1403616,20.8211992 20.9033205,21.1284523 C20.8914849,21.1201452 20.8793205,21.1122697 20.8674849,21.1039627 L20.8674849,20.9040539 C20.7366356,21.0731079 20.6009644,21.2384938 20.4604712,21.3997801 C20.5197589,21.4363527 20.5792658,21.4721701 20.6365808,21.5117635 C20.4559781,21.8040207 20.3078137,22.1185021 20.1963616,22.4511079 C20.9751014,21.7114564 21.650389,20.8674813 22.1996493,19.9418382 L22.1996493,19.1345436 C22.2913753,19.2407012 22.3835397,19.344917 22.4764712,19.4477303" id="Fill-145" fill="#000000"></path>
                            <path d="M2.90059178,20.8074216 C2.78727671,20.6583622 2.67790685,20.5064012 2.57215342,20.3517535 C2.4164274,20.3615332 2.26179726,20.3796954 2.1093589,20.4074224 C2.20448219,20.5513232 2.30256438,20.6931822 2.40404384,20.8324618 C2.54092055,20.8159116 2.67878356,20.8049498 2.81763288,20.8049498 C2.8453589,20.8049498 2.87286575,20.8067768 2.90059178,20.8074216" id="Fill-147" fill="#000000"></path>
                            <path d="M7.11089315,4.19713361 L7.11089315,3.53170622 C6.91450959,3.62006307 6.72119452,3.71392199 6.53083836,3.81241992 C6.51297534,4.04998008 6.49270137,4.28667718 6.47012603,4.52218755 C6.67976986,4.40739917 6.8933589,4.29886805 7.11089315,4.19713361" id="Fill-149" fill="#000000"></path>
                            <path d="M10.7615945,2.56718174 C10.6043406,2.58239336 10.4480648,2.60084149 10.2927671,2.62209461 L10.2927671,3.09624398 C10.2927671,3.15137261 10.3127635,3.20132282 10.3448228,3.24123983 C10.4759945,3.22289959 10.6077096,3.20628548 10.7402941,3.19258423 C10.7536612,3.16313195 10.7615945,3.1307668 10.7615945,3.09624398 L10.7615945,2.56718174 Z" id="Fill-151" fill="#000000"></path>
                            <path d="M13.7250849,3.09622241 C13.7250849,3.17983237 13.769968,3.25254606 13.8365863,3.29364979 C13.8938584,3.30346722 13.9509132,3.31382407 14.0078594,3.32450456 C14.114579,3.30271203 14.1945644,3.20906888 14.1945644,3.09622241 L14.1945644,2.72833859 C14.039158,2.69834689 13.8826648,2.67040498 13.7250849,2.64645477 L13.7250849,3.09622241 Z" id="Fill-153" fill="#000000"></path>
                            <path d="M12.4778877,2.52513942 C12.3222639,2.5179112 12.1658795,2.5139195 12.0087342,2.51284066 L12.0087342,3.09616846 C12.0087342,3.10889876 12.0104731,3.12108963 12.0125379,3.13317261 C12.1665315,3.13446722 12.3199817,3.13824315 12.4724539,3.14568714 C12.4758228,3.12972033 12.4778877,3.11321411 12.4778877,3.09616846 L12.4778877,2.52513942 Z" id="Fill-155" fill="#000000"></path>
                            <path d="M13.3363973,2.59557676 C13.1808822,2.57712863 13.0246064,2.56126971 12.8672438,2.54886307 L12.8672438,3.09626556 C12.8672438,3.12323651 12.8727863,3.1486971 12.8813717,3.17286307 C13.0223242,3.18473029 13.1627333,3.19897095 13.3022731,3.2160166 C13.3235735,3.18095436 13.3363973,3.14028216 13.3363973,3.09626556 L13.3363973,2.59557676 Z" id="Fill-157" fill="#000000"></path>
                            <path d="M9.66863562,3.32927303 C9.79795982,3.32927303 9.90337534,3.22538091 9.90337534,3.09624398 L9.90337534,2.68056763 C9.74579543,2.70743071 9.58930228,2.73742241 9.43389589,2.77043485 L9.43389589,3.09624398 C9.43389589,3.22505726 9.53898539,3.32927303 9.66863562,3.32927303" id="Fill-159" fill="#000000"></path>
                            <path d="M15.2528913,3.6293195 L15.2528913,2.9820166 C15.0966155,2.93648963 14.9388183,2.89419917 14.7799342,2.85503734 L14.7799342,3.49511203 C14.9389269,3.5366473 15.0967242,3.58109544 15.2528913,3.6293195" id="Fill-161" fill="#000000"></path>
                            <path d="M11.6201123,2.51545145 C11.4628584,2.51933527 11.3065826,2.52699502 11.1509589,2.53702822 L11.1509589,3.09619004 C11.1509589,3.1177668 11.1547626,3.13815685 11.160305,3.15800747 C11.3114731,3.14786639 11.4632932,3.14009876 11.6160913,3.13610705 C11.6182648,3.12305311 11.6201123,3.10989129 11.6201123,3.09619004 L11.6201123,2.51545145 Z" id="Fill-163" fill="#000000"></path>
                            <path d="M17.1320767,4.39483071 C17.1101589,4.15457344 17.0909808,3.91312946 17.0738849,3.67071452 C16.8910904,3.58365228 16.7056658,3.50133693 16.5179397,3.42344481 L16.5179397,4.09998423 C16.7261589,4.1922249 16.9307616,4.29083071 17.1320767,4.39483071" id="Fill-165" fill="#000000"></path>
                            <path d="M8.37523288,3.6962722 C8.53042192,3.6449195 8.68680639,3.59647967 8.844821,3.55192365 L8.844821,2.90915187 C8.80482831,2.91972448 8.76494429,2.9302971 8.72527763,2.94130124 C8.60779909,2.97506888 8.49118995,3.01077842 8.37523288,3.04810622 L8.37523288,3.6962722 Z" id="Fill-167" fill="#000000"></path>
                        </g>
                    </g>
                </g>
            </g>
        </g>
    </g>
</svg>