<svg height="24" viewBox="0 0 23 24" width="23" xmlns="http://www.w3.org/2000/svg" xmlns:xlink="http://www.w3.org/1999/xlink"><mask id="a" fill="#fff"><path d="m.07168157.07151366h21.76245163v21.70822204h-21.76245163z" fill="none"/></mask><mask id="b" fill="#fff"><path d="m.07168157.07151366h21.76245163v21.70822204h-21.76245163z" fill="none"/></mask><mask id="c" fill="#fff"><path d="m.0321576.09261674h3.82213364v1.08401762h-3.82213364z" fill="none"/></mask><mask id="d" fill="#fff"><path d="m0 .00575154h22.9470046v19.87090046h-22.9470046z" fill="none"/></mask><g fill="none" fill-rule="evenodd" transform=""><path d="m21.8341332 10.9256458c0 5.9945022-4.8717604 10.8541322-10.8812258 10.8541322-6.00946546 0-10.88122583-4.85963-10.88122583-10.8541322 0-5.99460791 4.87176037-10.85413214 10.88122583-10.85413214 6.0094654 0 10.8812258 4.85952423 10.8812258 10.85413214" fill="#4598fa" mask="url(#a)" transform="translate(.741935 2.127648)"/><path d="m21.8341332 10.9256458c0 5.9945022-4.8717604 10.8541322-10.8812258 10.8541322-6.00946546 0-10.88122583-4.85963-10.88122583-10.8541322 0-5.99460791 4.87176037-10.85413214 10.88122583-10.85413214 6.0094654 0 10.8812258 4.85952423 10.8812258 10.85413214" fill="#5cd8ff" mask="url(#b)" transform="translate(.635945 2.127648)"/><g fill="#fff"><path d="m11.3742737 6.16050396c.1375761-.00179735.2739862-.00179735.391742 0 .0080553 0 .0154746.00042291.022788.00137445.3585668.00803525.7188295.03562996 1.0793041.07855507v-2.06643172h-2.4738249v2.05110132c.3196683-.03446696.6390185-.05635242.9574148-.06322467.0073134-.00095154.0150507-.00137445.022576-.00137445"/><path d="m10.0037387 1.69829075.3746774 1.98681938h2.5368894l.4207834-1.92655506c-.6053133-.10445815-1.2276912-.15954185-1.862576-.15954185-.4984747 0-.989.0342555-1.4697742.09927753"/><path d="m3.70929585 1.17663436.14499539-.66364758-.42141935-.42037004h-2.97632719l-.4243871.42364758.11245623.59682819c.51596313-.07104846 1.04252534-.10868722 1.5777788-.10868722.67749308 0 1.34131336.05931277 1.98690322.17222907" mask="url(#c)" transform="translate(9.751152 .01311)"/><path d="m19.2015447.99914009c0-.1172511-.0952857-.21240529-.2129355-.21208811h-4.9386405l-.1088526.49786784c1.9972904.43834362 3.8011475 1.39675771 5.2606406 2.72585022z"/><path d="m13.8171281 1.85311718-.4084885 1.87083701 1.9675069.71133039h1.6710507c.1352443 0 .2448387.10942731.2448387.2443348v.46498679l.6984793.52979735c.0607327.04599119.0965576.11809692.0965576.19443172v.2978326l.6891521.5225022c.0612627.04620265.0967696.11830837.0967696.19464318v.30428193l.3291014.24919824-.000212-2.62107489c-1.4482581-1.45638766-3.3061705-2.50657269-5.3847558-2.96310132"/><path d="m9.33373917.78675595h-4.91320276c-.1173318 0-.21293549.09515418-.21293549.21240528v2.61251102c1.4743318-1.20655507 3.25423502-2.05437886 5.20457143-2.40877533z"/><path d="m4.53621475 7.18793656v-.30428193c0-.07633481.03571889-.14854626.09676958-.1947489l.68936406-.52239648v-.29793832c0-.07622908.03550691-.14844053.0965576-.19464318l.69816129-.5295859v-.46498678c0-.13459031.10970046-.24433481.2449447-.24433481h1.67073272l1.86236406-.67316299-.37510139-1.98745375c-2.01848848.36613216-3.84449769 1.28933921-5.31236405 2.60331278v3.05931277z"/><path d="m11.6786899 18.7012652c0-.0469427.011235-.0790837.0315852-.1383965.0294655-.0871189.0863825-.2576564.1105484-.4534625-.1085346.0009515-.2163272.0022202-.3251797.0022202-2.6245438 0-5.31469587-.2939207-7.32470509-.8877885-.2104977.1958062-.2956083.4589603-.23794931.741674.05871889.2877885.24356682.4992423.52073272.5952423 1.23065899.428511 3.49589401.6419736 6.92522578.6537092l.3829447.0004229c.0520415-.0004229.1013272-.0008458.1535807-.0015859l-.2089079-.3990132c-.0182304-.0348898-.0278755-.0734802-.0278755-.113022"/><path d="m12.6008309 7.57862907c.1351382 0 .2449447.10963877.2449447.24433481 0 .13469603-.1098065.2443348-.2449447.2443348h-.5543318c.0005299-.0015859.0005299-.00370044.0012719-.0054978h-.0255438v-.47439647c-.0011659-.00296036-.0016959-.00581498-.0027558-.00877534zm-.862977-.92965638c-.1183917-.00148018-.2356175-.001163-.3356728 0-.0062535.00063436-.0129309.00105727-.0192903.00105727-1.1678065.02368282-2.3519355.24211453-3.51974195.64905726-.15782028.05476652-.28363134.1534097-.36905991.27954185h3.37167286c0 .00021146 0 .00074009-.000212.00095155h.0119769v.48581497h-.0392166c0 .00074009 0 .00148018.00053.00211454h-3.46939632c-.01229493 6.80912777-1.62144701 8.01811457-2.71177419 8.78579737 1.97757603.5270484 4.59470046.778044 7.12141471.7573216-.0195023-.0546608-.0446221-.1075243-.0780092-.1583789l-.9387604-.7168282c-.0333871-.0257973-.0598847-.0598414-.0764193-.0988546l-.80245623-1.8909251c-.0126129-.0301322-.01929032-.0622731-.01929032-.0951542v-3.51637c0-.1349075.10991244-.2445463.24494465-.2445463.1352443 0 .2449447.1094273.2449447.2445463v3.4668898l.7575162 1.7855154.9175622.7011807c.0186544.0140616.0350829.0310837.0490737.049903.1007973.1381851.1686314.2939208.206788.4654097 2.3361429-.0526519 4.5477466-.3399119 6.0500599-.8548017-1.0864055-.7837533-2.5648709-2.1820969-2.5648709-8.75651104 0-.32130396-.1888756-.58657268-.4928572-.69261674-1.1678064-.40694273-2.3522534-.62516299-3.5196359-.64905726-.0066774 0-.0130369-.00042291-.0198203-.00105727z"/><path d="m12.1876258 18.6785022.2779078.5307489c3.0378019-.0381674 5.0777005-.2505727 6.2212351-.6482115.2772719-.0961057.4623318-.3075594.5207327-.595348.0582949-.2872599-.0292535-.5539031-.2472765-.7508722-.0450461-.0407049-.0971936-.0806696-.1488111-.1206344-1.5643179.6100441-3.9622534.94763-6.5016866 1.0073657-.0161106.1800528-.0547972.371207-.1221014.5769515"/><path d="m15.8072535 7.61631013c.3039815.10593833.4928571.37120705.4928571.69251102 0 6.57451985 1.4784654 7.97286345 2.564871 8.75661675-1.5023134.5148899-3.7139171.8021498-6.0500599.8548017-.0381567-.1714889-.1059908-.3273303-.2067881-.4654096-.0139907-.0189252-.0304193-.0359472-.0489677-.0499031l-.9176682-.7012864-.7575161-1.7854097v-3.4669956c0-.1351189-.1097005-.2445462-.2449447-.2445462-.1350323 0-.2449447.1096388-.2449447.2445462v3.5163701c0 .032881.0066774.065022.0192903.0952599l.8024562 1.8908194c.0165346.0391189.0430323.073163.0764194.0988546l.9387603.7169339c.0333871.0507489.0585069.1036124.0780092.1583789-2.52671424.0206167-5.14383866-.2302731-7.1214147-.7573216 1.09032719-.7677885 2.69947927-1.9766696 2.7117742-8.78579736h3.4693963c-.0005299-.00074009-.0005299-.00148018-.0005299-.00211454h.0392165v-.4859207h-.0119769c.000212-.00021146.000212-.00063436.000212-.00084582h-3.37167284c.08553456-.12623788.21134562-.22477533.36905991-.27954185 1.16780645-.40704846 2.35193543-.62537445 3.51974193-.64905727.0063594 0 .0130369-.0004229.0192903-.00116299.1000553-.001163.2172811-.00137445.3356728 0 .0067834.00074009.0131429.00116299.0198203.00116299 1.1673825.02389428 2.3518295.24200881 3.519636.64905727zm-3.5153964 11.91584137-.3829447-.0005286c-3.42933175-.0117357-5.69456678-.2251982-6.92522576-.6536035-.2771659-.0961057-.46201383-.3075595-.52073272-.595348-.05765899-.2827137.02745161-.5458679.23794931-.741674 2.01000921.5938678 4.70016129.8878942 7.32470507.8878942.1088525 0 .2166452-.0013744.3251797-.002326-.0241659.1958062-.0810829.3663437-.1105484.4534626-.0203502.0593128-.0315852.0914537-.0315852.1383965 0 .0395418.0096451.0781321.0278756.1131277l.2089078.3989075c-.0522535.0007401-.1015392.001163-.1535807.0016916zm-1.367599-15.04102198h2.4738248v2.06653744c-.3604746-.04292511-.7207373-.07051982-1.0793041-.07855507-.0073134-.00095154-.0147327-.00148017-.022788-.00148017-.1177558-.00179736-.2541659-.00179736-.391742 0-.0075253 0-.0152626.00052863-.022576.00148017-.3183963.00687225-.6378525.02865199-.9574147.06311895zm8.8077281 3.26336563-.3289954-.24919823v-.30428194c0-.0763348-.0355069-.14854626-.0967696-.1947489l-.6891521-.52239648v-.2978326c0-.0763348-.0358249-.14854625-.0965576-.19443171l-.6984792-.52979736v-.46498678c0-.13490749-.1095945-.24433481-.2449447-.24433481h-1.6709447l-1.967507-.71133039.4084885-1.87083701c-.1590921-.03499559-.3194562-.06660793-.4809862-.09451982l-.4208894 1.92644934h-2.5368894l-.3746774-1.98681939c-.1623779.02199119-.3236958.04715419-.4836359.07612335l.3749954 1.98745375-1.86236408.67326872h-1.67073272c-.13524424 0-.2449447.10963877-.2449447.2443348v.46498679l-.69816129.52948017c-.06105069.04620265-.09645161.1184141-.09645161.1947489v.2978326l-.68947005.5225022c-.06105069.04620265-.09676958.11830837-.09676958.19464317v.30428194l-.32857143.24919824v-3.0594185c-.16820738.15055506-.33153917.30629075-.49010139.46678414v3.08532159c0 .09293392.05278341.17751541.13619816.21885462.03434101.01702203.07164977.02548018.10874654.02548018.05257143 0 .10482489-.0169163.14817512-.04979736l.81846083-.62061674c.06105069-.04620264.09676958-.1184141.09676958-.19464317v-.30438767l.68915208-.52239647c.06126267-.04620265.09676958-.1184141.09676958-.19464317v-.29793833l.69837328-.5295859c.06083871-.04620265.09676958-.11830837.09676958-.19464318v-.34170925h1.46850231c.02851152 0 .05670506-.00507489.08362672-.01469603l1.74524427-.63097798v2.01113657c-.73610602.11143612-1.47316593.29370925-2.20312445.54840528-.49900461.17402644-.82121659.6267489-.82121659 1.15400882 0 6.70022905-1.52923502 7.77631715-2.54123502 8.48817625-.1748848.1229603-.34033641.2392599-.48829954.3730044-.34584793.3128458-.49094931.7541497-.3978894 1.2103612.09284792.4564229.39884331.8062731.83934101.9593656 1.28185253.4456388 3.59965899.6688282 7.08558989.6815155h.3848525c.000212 0 .000424-.000423.0009539-.000423.1764747-.0009515.3481797-.0023259.5188249-.004229.0129309.002326.0253318.0052863.0385807.0052863.0161106 0 .0326451-.0027489.0489677-.0057092 3.1480323-.0348899 5.2713456-.2567049 6.4778387-.6764406.4404977-.1530925.7464931-.5029427.839765-.9593656.0930599-.4567401-.0520415-.8975154-.3978894-1.2103612-.1481751-.1337445-.3132028-.2500441-.4882996-.3730044-1.011788-.7120705-2.540811-1.7879472-2.540811-8.48817625 0-.52704846-.322318-.97998238-.8212166-1.15400882-.689788-.2404229-1.3857235-.41529515-2.0808111-.52821145v-2.08419383l1.8919355.68405286c.0267097.00962115.0547973.01469604.0833088.01469604h1.4692442v.34181498c0 .07622907.0355069.14844052.0965576.19432599l.6981613.52990308v.2978326c0 .0763348.0357189.14844053.0967696.19464317l.68947.5225022v.30428194c0 .07622908.035401.14844053.0966636.19464317l.8186728.62061674c.0737696.05582379.173507.06523348.2569217.02410573.0832028-.04133921.1358802-.1259207.1358802-.21885462v-2.5876652c-.1575023-.1805815-.3210461-.35587666-.4899954-.52588547z"/></g><path d="m15.2772995 7.29912952c.3039816.10593832.4928572.37120704.4928572.69251101 0 6.57451987 1.4784654 7.97286347 2.5648709 8.75661677-1.5023133.5148898-3.713917.8021497-6.0500599.8548017-.0381566-.171489-.1059907-.3273304-.206788-.4654097-.0139908-.0189251-.0304193-.0359471-.0489677-.049903l-.9176682-.7012864-.7575162-1.7854097v-3.4669956c0-.1351189-.1097004-.2445462-.2449447-.2445462-.13503221 0-.24494465.1096387-.24494465.2445462v3.5163701c0 .032881.00667742.065022.01929032.0952599l.80245623 1.8908194c.0165346.0391189.0430323.073163.0764193.0988546l.9387604.7169339c.0333871.0507489.0585069.1036123.0780092.1583789-2.52671425.0206167-5.14383868-.2302732-7.12141471-.7573216 1.09032719-.7677886 2.69947926-1.9766696 2.71177419-8.78579738h3.46939632c-.00053-.00074009-.00053-.00148017-.00053-.00211453h.0392166v-.48592071h-.0119769c.000212-.00021145.000212-.00063436.000212-.00084581h-3.37167286c.08553456-.12623789.21134562-.22477533.36905991-.27954185 1.16780645-.40704846 2.35193545-.62537445 3.51974195-.64905727.0063594 0 .0130369-.00042291.0192903-.001163.1000553-.00116299.2172811-.00137445.3356728 0 .0067834.00074009.0131429.001163.0198203.001163 1.1673825.02389427 2.3518295.24200881 3.5196359.64905727zm3.5341567 9.79506608c.0516175.0399648.103659.0799295.1488111.1206344.218023.1969691.3055714.4636123.2472765.7508722-.0585069.2877885-.2435668.4992423-.5207327.595348-1.1435346.3976388-3.1834332.6100441-6.2212351.6481057l-.2779078-.5306431c.0671982-.2057445.1059908-.3970044.1221014-.5769516 2.5394332-.0597356 4.9373686-.3973216 6.5016866-1.0073656zm-7.049553 2.1207753-.3829447-.0005286c-3.42933177-.0117357-5.69456679-.2251982-6.92522578-.6536035-.2771659-.0961058-.46201383-.3075595-.52073272-.5953481-.05765899-.2827136.02745161-.5458678.23794931-.741674 2.01000922.5938679 4.70016129.8878943 7.32470509.8878943.1088525 0 .2166451-.0013744.3251797-.002326-.0241659.1958062-.0810829.3663436-.1105484.4534626-.0203502.0593128-.0315852.0914537-.0315852.1383965 0 .0395418.0096451.0781321.0278755.1131277l.2089079.3989075c-.0522535.0007401-.1015392.001163-.1535807.0016916zm-1.3675991-15.041022h2.4738249v2.06653744c-.3604746-.04292511-.7207373-.07051982-1.0793041-.07855506-.0073134-.00095154-.0147327-.00148018-.022788-.00148018-.1177558-.00179736-.2541659-.00179736-.391742 0-.0075253 0-.0152626.00052864-.022576.00148018-.3183963.00687224-.6378525.02865198-.9574148.06311894zm8.8077282 3.26336564-.3289954-.24919824v-.30428194c0-.0763348-.0355069-.14854625-.0967696-.1947489l-.6891521-.52239647v-.2978326c0-.0763348-.0358249-.14854626-.0965576-.19443172l-.6984793-.52979736v-.46498678c0-.13490749-.1095944-.2443348-.2449447-.2443348h-1.6709447l-1.9675069-.7113304.4084885-1.870837c-.1590922-.0349956-.3194562-.06660793-.4809862-.09451983l-.4208894 1.92644934h-2.5368894l-.3746774-1.98681938c-.16237787.02199119-.32369584.04715418-.48363593.07612335l.37499539 1.98745374-1.86236406.67326872h-1.67073272c-.13524424 0-.2449447.10963877-.2449447.2443348v.46498679l-.69816129.52948018c-.06105069.04620264-.09645161.11841409-.09645161.19474889v.2978326l-.68947005.52250221c-.06105069.04620264-.09676958.11830837-.09676958.19464317v.30428194l-.32857143.24919823v-3.0594185c-.16820737.15055507-.33153917.30629075-.49010138.46678414v3.08532159c0 .09293392.05278341.17751542.13619815.21885462.03434102.01702203.07164977.02548018.10874655.02548018.05257143 0 .10482488-.0169163.14817511-.04979736l.81846083-.62061674c.06105069-.04620264.09676959-.11841409.09676959-.19464317v-.30438766l.68915207-.52239648c.06126267-.04620264.09676959-.1184141.09676959-.19464317v-.29793833l.69837327-.5295859c.06083871-.04620264.09676958-.11830837.09676958-.19464317v-.34170925h1.46850231c.02851152 0 .05659908-.00507489.08362673-.01469604l1.74524424-.63097797v2.01113656c-.736106.11143613-1.4731659.29370925-2.20312443.54840529-.49900461.17402643-.82121659.6267489-.82121659 1.15400881 0 6.70022907-1.52923502 7.77631717-2.54123502 8.48817617-.17488479.1229604-.34033641.23926-.48829954.3730044-.34584793.3128459-.49094931.7541498-.3978894 1.2103613.09284793.4564229.39884332.8062731.83934101.9593656 1.28185254.4456388 3.59965899.6688282 7.08558991.6815154h.3848525c.000212 0 .000424-.0004229.0009539-.0004229.1764747-.0009515.3481797-.002326.5188249-.004229.0129309.0023259.0253318.0052863.0385806.0052863.0161106 0 .0326452-.0027489.0489678-.0057093 3.1480322-.0348898 5.2713456-.2567048 6.4778387-.6764405.4404977-.1530925.7464931-.5029427.839765-.9593656.0930599-.4567401-.0520415-.8975154-.3978894-1.2103613-.1481752-.1337444-.3132028-.250044-.4882996-.3730044-1.011788-.7120704-2.540811-1.7879471-2.540811-8.48817617 0-.52704846-.322318-.97998238-.8212166-1.15400881-.689788-.24042291-1.3857235-.41529516-2.0808111-.52821146v-2.08419383l1.8919355.68405287c.0267097.00962114.0547972.01469603.0833088.01469603h1.4692442v.34181498c0 .07622907.0355069.14844053.0965576.19432599l.6981613.52990308v.2978326c0 .0763348.0357189.14844053.0967696.19464317l.68947.52250221v.30428194c0 .07622907.0354009.14844052.0966636.19464317l.8186728.62061674c.0737696.05582379.1735069.06523348.2569217.02410572.0832027-.0413392.1358802-.1259207.1358802-.21885462v-2.5876652c-.1575023-.1805815-.3210461-.35587665-.4899954-.52588546z" fill="#000"/><path d="m12.0222272 8.06479956h.0255438c-.000742.00191498-.000742.00393634-.0012719.00553216h.5543318c.1351382 0 .2449447-.11032401.2449447-.2458619 0-.13553788-.1098065-.24586189-.2449447-.24586189h-.5813595c.0010599.00297885.0015899.00585132.0027558.00883018z" fill="#000"/><path d="m19.6918581.45424493v.85712776c1.6636313 1.90815859 2.6722396 4.39897797 2.6722396 7.12038766 0 5.99006165-4.8855392 10.86343615-10.890553 10.86343615-6.00511982 0-10.89065899-4.8733745-10.89065899-10.86343615 0-2.9650044 1.19748388-5.65585903 3.13467742-7.61804405v-.80796476c-2.28378341 2.09339207-3.71762672 5.09561234-3.71762672 8.42600881 0 6.31073125 5.14701843 11.44493395 11.47360829 11.44493395 6.3264839 0 11.4735023-5.1342027 11.4735023-11.44493395 0-3.09948898-1.242106-5.91457268-3.2551889-7.97751542" fill="#000" mask="url(#d)" transform="translate(0 4.030731)"/><path d="m11.4735341 1.59901322c.6348848 0 1.2571567.0550837 1.862576.15954185l.1243272-.56881058c-.6455898-.1129163-1.3094101-.17222907-1.9869032-.17222907-.5352535 0-1.0618157.03753304-1.5777788.10868722l.1080046.57208811c.4807742-.06502203.9712995-.09927753 1.4697742-.09927753" fill="#000"/><path d="m19.2018521 4.81625022-.000106-.80553304c-1.4594931-1.32909251-3.2633502-2.28740088-5.2606406-2.72585022l-.1240092.56828194c2.0786913.45652863 3.9364977 1.50671366 5.3847558 2.96310132" fill="#000"/><path d="m9.41220415 1.20290749c-1.95033641.35439647-3.73023963 1.20222026-5.20457143 2.40877533v.76599119c1.46786636-1.31386784 3.29387557-2.23707489 5.31247004-2.60331278z" fill="#000"/><path d="m4.20976359 4.37770573v-.76609692c-.16819354.13702203-.33223548.27880176-.49223225.42481057v.80807049c.15925161-.16059912.32329354-.31622908.49223225-.46678414" fill="#000"/><path d="m19.2017567 4.01075947.0001064.80553304c.1696839.16990308.3339387.34519824.4921258.52588546v-.85723348c-.1594645-.16271365-.3232935-.32109251-.4922322-.47418502" fill="#000"/><path d="m13.8171281 1.85311718.1240092-.56828194c-.1590921-.03488987-.3192442-.06681938-.4806682-.09504846l-.1243272.56881058c.16153.02791189.321894.05952423.4809862.09451982" fill="#000"/><path d="m10.0037387 1.69829075-.1080046-.57208811c-.1621659.0224141-.32348387.04768282-.48352995.07665199l.10789861.57155947c.1599401-.02907489.32125807-.05413216.48363594-.07612335" fill="#000"/></g></svg>