<?xml version="1.0" encoding="UTF-8"?>
<svg width="21px" height="24px" viewBox="0 0 21 24" version="1.1" xmlns="http://www.w3.org/2000/svg" xmlns:xlink="http://www.w3.org/1999/xlink">
    <!-- Generator: Sketch 50.2 (55047) - http://www.bohemiancoding.com/sketch -->
    <title>Group 27</title>
    <desc>Created with Sketch.</desc>
    <defs>
        <polygon id="path-1" points="0 0.086208 20.9757968 0.086208 20.9757968 23.9039904 0 23.9039904"></polygon>
    </defs>
    <g id="Future-Project-Desktop" stroke="none" stroke-width="1" fill="none" fill-rule="evenodd">
        <g id="maps" transform="translate(-1206.000000, -361.000000)">
            <g id="about-us/map" transform="translate(48.000000, 44.000000)">
                <g id="map-markers" transform="translate(417.000000, 317.000000)">
                    <g id="Group-27" transform="translate(741.000000, 0.000000)">
                        <polygon id="Rectangle-12" fill="#FFFFFF" fill-rule="nonzero" points="9.54545455 0.315789474 11.1363636 0.315789474 11.7727273 1.26315789 11.7727273 5.36842105 9.22727273 5.36842105 9.22727273 1.26315789"></polygon>
                        <ellipse id="Oval-10" fill="#FFFFFF" fill-rule="nonzero" cx="10.6590909" cy="13.4210526" rx="10.0227273" ry="9.94736842"></ellipse>
                        <g id="Group-12">
                            <path d="M14.0708742,12.1903984 C14.0623742,12.1891984 14.0543742,12.1871984 14.0455742,12.1869984 C14.0438742,12.1869984 14.0423742,12.1874984 14.0407742,12.1874984 C14.0511742,12.1874984 14.0608742,12.1889984 14.0708742,12.1903984" id="Fill-1" fill="#4598FA"></path>
                            <path d="M6.91560968,21.5713536 C6.91560968,21.4599936 7.00657742,21.3697536 7.11893226,21.3697536 L7.93977097,21.3697536 L7.91877097,19.1870976 L7.5042871,19.5982656 C7.46538387,19.6368576 7.41341613,19.6573056 7.36057742,19.6573056 C7.33270645,19.6573056 7.30454516,19.6516416 7.27793226,19.6398336 C7.20109355,19.6058496 7.1532871,19.5284736 7.15764194,19.4451456 L7.56438387,11.7645696 L7.44748065,11.7645696 C6.58619032,11.7645696 6.17973871,11.0351616 6.17973871,10.6029696 L6.17973871,9.6443136 C6.17973871,9.5330496 6.27070645,9.4427136 6.38296452,9.4427136 C6.27070645,9.4427136 6.17973871,9.5329536 6.17973871,9.6443136 L6.17973871,9.4076736 C6.10202903,9.3663936 6.05054516,9.2878656 6.04531935,9.1985856 C6.02325484,8.8161216 6.00312581,7.9648896 6.17973871,7.1575296 C6.25454516,6.8157696 6.36448065,6.4817856 6.52464194,6.1946496 C6.70473871,5.8718976 6.94802903,5.6082816 7.27580323,5.4588096 C7.2822871,5.4558336 7.28906129,5.4532416 7.29593226,5.4508416 L9.56557742,4.6951296 C9.41431935,4.5453696 9.30380323,4.3559616 9.24815806,4.1447616 C4.44864194,4.8360576 0.750029032,8.9441856 0.750029032,13.8937536 C0.750029032,17.6966976 2.93354516,21.0028416 6.12196452,22.6443456 L6.12196452,22.6385856 C6.12196452,22.5272256 6.21293226,22.4370816 6.32519032,22.4370816 L6.91560968,22.4370816 L6.91560968,21.5713536 Z" id="Fill-3" fill="#5CD8FF"></path>
                            <path d="M12.2179645,4.159824 C12.1551581,4.386 12.0279,4.585488 11.8567065,4.738032 L13.5765774,5.220144 C13.7307387,5.263344 13.8519968,5.31144 13.9582548,5.371248 C15.3872226,6.175152 15.4762548,8.918928 15.4795452,9.460848 C15.480029,9.545712 15.4330935,9.620016 15.3604161,9.660912 L15.4232226,10.509456 C15.4239,10.520112 15.4244806,10.557264 15.4227387,10.614096 C15.4029968,11.26536 15.1359968,11.885328 14.6836742,12.357744 L14.4002226,12.653808 C14.4233516,12.685776 14.4374806,12.724752 14.4386419,12.767184 L14.6278355,19.731792 C14.6300613,19.811952 14.5840935,19.885776 14.5109323,19.91976 C14.4833516,19.932624 14.4539323,19.938768 14.4248032,19.938768 C14.3763194,19.938768 14.3284161,19.92168 14.2904806,19.888656 L13.8606097,19.513584 L13.8606097,21.36984 L14.4247065,21.36984 C14.5369645,21.36984 14.6279323,21.459984 14.6279323,21.571344 L14.6279323,22.437072 L15.2183516,22.437072 C15.3018677,22.437072 15.3733839,22.487088 15.4047387,22.558512 C18.504029,20.889264 20.6129323,17.631312 20.6129323,13.89384 C20.6129323,8.979696 16.9671581,4.894608 12.2179645,4.159824" id="Fill-5" fill="#5CD8FF"></path>
                            <g id="Group-9" transform="translate(0.000000, 0.009792)">
                                <mask id="mask-2" fill="white">
                                    <use xlink:href="#path-1"></use>
                                </mask>
                                <g id="Clip-8"></g>
                                <path d="M10.4897323,23.7104544 C4.80511935,23.7104544 0.196925806,19.1390304 0.196925806,13.4999904 C0.196925806,8.2192224 4.23821613,3.8749344 9.4200871,3.3442464 L9.4200871,3.1495584 L9.4200871,1.6937184 L11.6627323,1.6937184 L11.6627323,3.1616544 L11.6627323,3.3559584 C16.7947645,3.9335904 20.7824419,8.2544544 20.7824419,13.4999904 C20.7824419,19.1390304 16.1742484,23.7104544 10.4897323,23.7104544 Z M9.44553871,1.1304864 L11.6294419,1.1304864 L11.7537,1.1304864 L11.7177968,1.2905184 L9.37992581,1.2905184 L9.34411935,1.1304864 L9.44553871,1.1304864 Z M10.0920871,0.4893024 L10.9829903,0.4893024 C11.3237323,0.4893024 11.4026032,0.5444064 11.4207,0.7273824 L9.65428065,0.7273824 C9.67247419,0.5444064 9.75115161,0.4893024 10.0920871,0.4893024 Z M12.0691839,3.2141664 L12.0691839,1.5674784 C12.0732484,1.5573984 12.0767323,1.5468384 12.0792484,1.5358944 L12.2054419,0.9727584 C12.2187,0.9130464 12.2040871,0.8504544 12.1654742,0.8027424 C12.1269581,0.7551264 12.0686032,0.7273824 12.0070548,0.7273824 L11.8275387,0.7273824 C11.8048935,0.4134624 11.6794742,0.0861984 10.9829903,0.0861984 L10.0920871,0.0861984 C9.39540968,0.0861984 9.2700871,0.4134624 9.24744194,0.7273824 L9.09076452,0.7273824 C9.02911935,0.7273824 8.97086129,0.7551264 8.93224839,0.8027424 C8.89373226,0.8504544 8.87902258,0.9130464 8.89237742,0.9726624 L9.01363548,1.5141024 L9.01363548,3.1992864 C3.92621613,3.9124704 -9.67741936e-06,8.2596384 -9.67741936e-06,13.4999904 C-9.67741936e-06,17.6167584 2.42292581,21.1825824 5.92837742,22.8683424 C6.06221613,22.9326624 6.19789355,22.9939104 6.33482903,23.0526624 C7.60915161,23.5999584 9.01334516,23.9039904 10.4878935,23.9039904 C11.811571,23.9039904 13.0784419,23.6588064 14.2457323,23.2128864 C14.2827,23.1987744 14.3198613,23.1847584 14.3566355,23.1702624 C14.5135065,23.1082464 14.6685387,23.0426784 14.8216355,22.9735584 C14.9586677,22.9115424 15.0941516,22.8466464 15.2280871,22.7790624 C18.6357968,21.0590304 20.9757968,17.5456224 20.9757968,13.4999904 C20.9757968,8.2964064 17.1046355,3.9727584 12.0691839,3.2141664 Z" id="Fill-7" fill="#000000" mask="url(#mask-2)"></path>
                            </g>
                            <path d="M15.2111613,22.1744928 C15.1799032,22.1030688 15.1083871,22.0530528 15.0247742,22.0530528 L14.4344516,22.0530528 L14.4344516,21.1873248 C14.4344516,21.0759648 14.3433871,20.9858208 14.231129,20.9858208 L13.6670323,20.9858208 L13.6670323,19.1295648 L14.0969032,19.5046368 C14.1348387,19.5376608 14.1827419,19.5547488 14.2312258,19.5547488 C14.2604516,19.5547488 14.2897742,19.5486048 14.3174516,19.5357408 C14.3906129,19.5017568 14.4364839,19.4279328 14.4343548,19.3477728 L14.2451613,12.3831648 C14.2439032,12.3407328 14.2297742,12.3017568 14.2066452,12.2698848 C14.1973548,12.2572128 14.1867097,12.2457888 14.1748065,12.2356128 C14.1867097,12.2457888 14.1973548,12.2572128 14.2066452,12.2698848 L14.4901935,11.9737248 C14.9425161,11.5013088 15.2094194,10.8813408 15.2292581,10.2300768 C15.2309032,10.1732448 15.2303226,10.1361888 15.2296452,10.1254368 L15.1668387,9.2768928 C15.2395161,9.2359968 15.2864516,9.1616928 15.2859677,9.0768288 C15.2826774,8.5349088 15.1936452,5.7911328 13.7647742,4.9872288 C13.6584194,4.9274208 13.5371613,4.8793248 13.383,4.8361248 L11.663129,4.3541088 C11.8343226,4.2014688 11.9615806,4.0020768 12.0243871,3.7758048 C16.7736774,4.5105888 20.4193548,8.5956768 20.4193548,13.5098208 C20.4193548,17.2472928 18.3104516,20.5052448 15.2111613,22.1744928 Z M14.4344516,22.5496608 C14.3004194,22.6074528 14.1648387,22.6623648 14.0279032,22.7143968 C13.9304516,22.7513568 13.8323226,22.7869728 13.7333226,22.8210528 C13.221,22.9973088 12.6896129,23.1328608 12.1433226,23.2241568 C11.6047742,23.3142048 11.0519032,23.3618208 10.4879032,23.3618208 C9.92390323,23.3618208 9.37103226,23.3142048 8.83248387,23.2241568 C8.28609677,23.1328608 7.75480645,22.9973088 7.2423871,22.8210528 C7.20445161,22.8079968 7.16641935,22.7946528 7.12858065,22.7812128 C6.99154839,22.7322528 6.85616129,22.6801248 6.72203226,22.6254048 C6.59158065,22.5722208 6.46248387,22.5163488 6.33483871,22.4578848 L6.33483871,22.4561568 L6.72203226,22.4561568 L7.12858065,22.4561568 L14.0279032,22.4561568 L14.4344516,22.4561568 L14.6445484,22.4561568 C14.5749677,22.4881248 14.5048065,22.5192288 14.4344516,22.5496608 Z M5.9283871,22.2545568 L5.9283871,22.2604128 C2.73996774,20.6188128 0.556451613,17.3126688 0.556451613,13.5098208 C0.556451613,8.5601568 4.25516129,4.4520288 9.05458065,3.7607328 C9.11022581,3.9719328 9.22083871,4.1613408 9.372,4.3111008 L7.10235484,5.0668128 C7.09558065,5.0692128 7.08870968,5.0718048 7.08222581,5.0747808 C6.75445161,5.2242528 6.51116129,5.4879648 6.33116129,5.8106208 C6.17090323,6.0978528 6.06096774,6.4317408 5.98616129,6.7735968 C5.80954839,7.5808608 5.82967742,8.4320928 5.85183871,8.8145568 C5.85696774,8.9039328 5.90845161,8.9823648 5.98616129,9.0236448 L5.98616129,9.2602848 C5.98616129,9.1489248 6.07722581,9.0586848 6.1893871,9.0586848 C6.07722581,9.0586848 5.98616129,9.1490208 5.98616129,9.2603808 L5.98616129,10.2189408 C5.98616129,10.6511328 6.39270968,11.3805408 7.25390323,11.3805408 L7.37080645,11.3805408 L6.96406452,19.0611168 C6.95970968,19.1444448 7.0076129,19.2219168 7.08435484,19.2558048 C7.11096774,19.2676128 7.13912903,19.2732768 7.167,19.2732768 C7.21983871,19.2732768 7.27180645,19.2528288 7.31070968,19.2143328 L7.72529032,18.8030688 L7.74619355,20.9858208 L6.92535484,20.9858208 C6.81309677,20.9858208 6.72203226,21.0759648 6.72203226,21.1873248 L6.72203226,22.0530528 L6.1316129,22.0530528 C6.01945161,22.0530528 5.9283871,22.1431968 5.9283871,22.2545568 Z M9.60232258,4.6597728 L9.72580645,4.6185888 L9.60232258,4.7537568 L9.58945161,4.7678688 L7.85554839,6.6652128 L7.82225806,6.7015968 L7.44580645,7.1136288 L7.41580645,7.1463648 L6.39270968,8.2660128 L6.24290323,8.4298848 C6.22732258,7.7392608 6.29080645,7.2057888 6.39270968,6.7928928 C6.46045161,6.5182368 6.54512903,6.2970528 6.63551613,6.1199328 C6.8696129,5.6609568 7.14,5.4944928 7.24287097,5.4454368 L7.41580645,5.3878368 L7.73980645,5.2799328 L9.60232258,4.6597728 Z M10.1810323,4.7207328 L10.505129,4.7207328 L10.896,5.1238368 L13.2605806,7.5624288 L13.2605806,10.1254368 L12.2338065,10.9774368 L11.7480968,11.3805408 L11.4805161,11.6025888 L11.4805161,11.3805408 L11.4805161,11.1789408 L11.4805161,10.9774368 L11.4805161,9.2602848 L11.4805161,8.3217888 C11.4805161,8.2104288 11.3895484,8.1201888 11.2772903,8.1201888 L10.1419355,8.1201888 C10.0297742,8.1201888 9.93880645,8.2104288 9.93880645,8.3217888 L9.93880645,9.0586848 L8.08606452,9.0586848 C7.896,9.0586848 7.839,9.0011808 7.84045161,8.8126368 L7.85109677,7.2703968 L9.81270968,5.1238368 L10.1810323,4.7207328 Z M14.0027419,12.1913688 C14.0034521,12.1912688 14.0041622,12.1912688 14.0049738,12.1910688 C14.0041622,12.1912688 14.0034521,12.1912688 14.0027419,12.1913688 Z M13.3304516,14.0695968 C13.3258065,13.9583328 13.2297097,13.8746208 13.1189032,13.8765408 C13.0068387,13.8812448 12.9196452,13.9751328 12.9243871,14.0864928 L13.1058387,18.3814368 L12.1145806,18.5201568 L11.4805161,18.2504928 L11.4805161,14.8045728 L13.8446129,12.6064608 L14.0155161,18.8966688 L13.5159677,18.4610208 L13.3304516,14.0695968 Z M11.4805161,20.9858208 L11.4805161,18.6893088 L12.0066774,18.9129888 C12.0320323,18.9237408 12.0593226,18.9292128 12.0867097,18.9292128 C12.0961935,18.9292128 12.1056774,18.9285408 12.1151613,18.9271968 L13.2525484,18.7680288 L13.2605806,18.7750368 L13.2605806,20.9858208 L11.4805161,20.9858208 Z M11.0740645,14.2795488 L11.0740645,14.7173088 L11.0740645,18.3820128 L11.0740645,18.3828768 L11.0740645,20.9858208 L10.3452581,20.9858208 L10.3452581,18.5090208 L10.3452581,18.5081568 L10.3452581,14.2795488 L11.0740645,14.2795488 Z M10.3452581,13.8764448 L11.0740645,13.8764448 L11.0740645,12.3607968 L10.3452581,12.3607968 L10.3452581,13.8764448 Z M10.3452581,11.9576928 L11.0740645,11.9576928 L11.0740645,11.3805408 L10.3452581,11.3805408 L10.3452581,11.9576928 Z M10.3452581,9.0586848 L11.0740645,9.0586848 L11.0740645,8.5232928 L10.3452581,8.5232928 L10.3452581,9.0586848 Z M10.3452581,10.9774368 L11.0740645,10.9774368 L11.0740645,9.4618848 L10.3452581,9.4618848 L10.3452581,10.9774368 Z M7.95145161,21.3889248 L10.1419355,21.3889248 L11.2772903,21.3889248 L13.4637097,21.3889248 L14.0279032,21.3889248 L14.0279032,22.0530528 L7.12858065,22.0530528 L7.12858065,21.3889248 L7.95145161,21.3889248 Z M9.39029032,18.4127328 L9.93880645,18.6423648 L9.93880645,20.9858208 L8.15274194,20.9858208 L8.12719355,18.3262368 L8.15622581,17.8939488 L9.26593548,17.8939488 L9.26593548,18.2269728 C9.26593548,18.3080928 9.31490323,18.3812448 9.39029032,18.4127328 Z M7.77783871,11.3805408 L9.93880645,11.3805408 L9.93880645,12.1591968 L9.93880645,14.0780448 L9.93880645,18.2047008 L9.67248387,18.0932448 L9.67248387,17.6923488 L9.67248387,15.2981088 C9.67248387,15.1866528 9.58141935,15.0965088 9.46925806,15.0965088 C9.357,15.0965088 9.26593548,15.1866528 9.26593548,15.2981088 L9.26593548,17.4907488 L8.18332258,17.4907488 L8.36845161,14.7306528 C8.37590323,14.6195808 8.29122581,14.5234848 8.17925806,14.5160928 C8.067,14.5104288 7.97041935,14.5927968 7.96296774,14.7038688 L7.76816129,17.6066208 L7.7583871,17.7522528 L7.72616129,18.2318688 L7.39780645,18.5576928 L7.77783871,11.3805408 Z M8.01580645,9.4618848 L8.11258065,9.4618848 L8.12525806,9.4618848 L9.93880645,9.4618848 L9.93880645,10.9774368 L7.82380645,10.9774368 L7.82225806,10.9774368 L7.41735484,10.9774368 L7.41580645,10.9774368 L7.38570968,10.9774368 C6.83729032,10.9774368 6.39270968,10.6324128 6.39270968,10.0883808 L6.39270968,9.4618848 L6.39270968,9.0586848 L6.39270968,8.8663008 L7.41580645,7.7466528 L7.44125806,7.7187168 L7.4313871,8.6746848 L7.43129032,8.8791648 C7.42974194,9.0944928 7.60209677,9.4618848 8.01580645,9.4618848 Z M14.0713104,12.1904372 C14.0611655,12.1890372 14.0513249,12.1874372 14.0407742,12.1875372 C14.0423974,12.1875372 14.0439191,12.1869372 14.0456438,12.1870372 C14.0545713,12.1871372 14.0626872,12.1892372 14.0713104,12.1904372 Z M14.1195213,12.2030888 C14.1100865,12.1993888 14.1007532,12.1953888 14.0907097,12.1929888 C14.1007532,12.1953888 14.1100865,12.1993888 14.1195213,12.2030888 Z M14.1635021,12.2277008 C14.1544731,12.2212008 14.145647,12.2146008 14.1358065,12.2095008 C14.145647,12.2146008 14.1544731,12.2212008 14.1635021,12.2277008 Z M14.0439677,11.8684128 L11.4805161,14.2519968 L11.4805161,14.0780448 L11.4805161,12.1591968 L11.4805161,12.1282848 L12.3815806,11.3805408 L12.8672903,10.9774368 L13.2605806,10.6511328 L13.5941613,10.3742688 C13.6403226,10.3359648 13.6670323,10.2793248 13.6670323,10.2196128 L13.6670323,7.9816608 L14.7482903,9.0967968 L14.8060645,10.0181088 C14.8081935,10.0507488 14.8096452,10.0841568 14.8102258,10.1181408 C14.8234839,10.7813088 14.5318065,11.4148128 14.0439677,11.8684128 Z M11.0740645,4.7207328 L11.0740645,4.6435488 C11.0892581,4.6406688 11.1043548,4.6375008 11.1194516,4.6341408 C11.1280645,4.6322208 11.1363871,4.6298208 11.1447097,4.6277088 L11.4805161,4.7217888 L13.2656129,5.2221408 L13.2724839,5.2240608 C13.3943226,5.2583328 13.4870323,5.2945248 13.5641613,5.3380128 C13.5994839,5.3578848 13.6335484,5.3796768 13.6670323,5.4025248 C14.5861935,6.0327648 14.8089677,7.7835168 14.8625806,8.6331168 L14.7091935,8.4749088 L13.6670323,7.3999968 L13.2605806,6.9807648 L11.4108387,5.0731488 L11.069129,4.7207328 L11.0740645,4.7207328 Z M11.6627419,3.3656928 L11.6627419,3.4554528 C11.6627419,3.5488608 11.6458065,3.6382368 11.6162903,3.7217568 C11.5841613,3.8121888 11.537129,3.8956128 11.4767419,3.9681888 C11.3882903,4.0744608 11.2724516,4.1572128 11.1405484,4.2076128 C11.1380323,4.2085728 11.1355161,4.2094368 11.1329032,4.2103968 C11.1135484,4.2175008 11.094,4.2242208 11.0740645,4.2299808 C11.0027419,4.2503328 10.9276452,4.2618528 10.8498387,4.2618528 L10.842,4.2618528 L10.5432581,4.2618528 L10.5388065,4.2618528 L10.2330968,4.2618528 C10.1551935,4.2618528 10.0801935,4.2503328 10.0087742,4.2299808 C9.98874194,4.2242208 9.96929032,4.2175008 9.94993548,4.2103968 C9.81483871,4.1603808 9.69629032,4.0764768 9.606,3.9681888 C9.54309677,3.8925408 9.49432258,3.8050848 9.4623871,3.7100448 C9.43529032,3.6299808 9.42009677,3.5445408 9.42009677,3.4554528 L9.42009677,3.3539808 C4.23822581,3.8847648 0.196935484,8.2290528 0.196935484,13.5098208 C0.196935484,19.1488608 4.80512903,23.7202848 10.4897419,23.7202848 C16.1742581,23.7202848 20.7824516,19.1488608 20.7824516,13.5098208 C20.7824516,8.2642848 16.7947742,3.9434208 11.6627419,3.3656928 Z" id="Fill-10" fill="#000000"></path>
                        </g>
                    </g>
                </g>
            </g>
        </g>
    </g>
</svg>