<?xml version="1.0" encoding="UTF-8"?>
<svg width="20px" height="25px" viewBox="0 0 20 25" version="1.1" xmlns="http://www.w3.org/2000/svg" xmlns:xlink="http://www.w3.org/1999/xlink">
    <!-- Generator: Sketch 50.2 (55047) - http://www.bohemiancoding.com/sketch -->
    <title>Group 4</title>
    <desc>Created with Sketch.</desc>
    <defs>
        <polygon id="path-1" points="0.0195483871 0.0899354244 1.26728111 0.0899354244 1.26728111 6.10903137 0.0195483871 6.10903137"></polygon>
        <polygon id="path-3" points="0 24.9314576 19.9769585 24.9314576 19.9769585 0 0 0"></polygon>
    </defs>
    <g id="Future-Project-Desktop" stroke="none" stroke-width="1" fill="none" fill-rule="evenodd">
        <g id="maps" transform="translate(-1227.000000, -367.000000)">
            <g id="about-us/map" transform="translate(48.000000, 44.000000)">
                <g id="map-markers" transform="translate(417.000000, 317.000000)">
                    <g id="Group-4" transform="translate(762.000000, 6.000000)">
                        <polygon id="Line" fill="#FFFFFF" fill-rule="nonzero" points="6.21212121 23.9329268 6.21212121 22.1036585 5.45454545 22.1036585 5.45454545 21.0365854 6.66666667 21.0365854 6.66666667 20.4268293 6.96969697 20.4268293 6.96969697 17.3780488 7.27272727 17.3780488 7.27272727 15.5487805 7.57575758 9.75609756 7.87878788 9.45121951 7.87878788 7.62195122 9.09090909 7.62195122 10.3030303 1.52439024 11.8181818 7.62195122 12.7272727 7.62195122 12.4242424 9.75609756 13.030303 10.0609756 13.030303 17.3780488 13.3333333 17.3780488 13.3333333 20.1219512 13.9393939 20.4268293 13.9393939 21.0365854 15.1515152 21.0365854 14.8484848 22.1036585 14.2424242 22.1036585 14.2424242 23.4756098 12.4242424 24.3902439 10.3030303 24.695122 7.57575758 24.3902439"></polygon>
                        <g id="Group-207">
                            <path d="M14.6179447,18.8848985 C14.6179447,18.1336993 15.2284516,17.5226292 15.9789585,17.5226292 L16.3460553,17.5226292 C16.318682,17.386559 16.3048571,17.2479059 16.3048571,17.108238 C16.3048571,16.0517804 17.101447,15.1573155 18.137576,15.0258579 C18.3826452,14.5334225 18.7347189,14.1139576 19.1557327,13.786928 C18.539788,9.71561808 15.3238433,6.4870203 11.2611705,5.85565498 L11.643659,7.80030443 L12.3815392,7.80030443 C12.4885438,7.80030443 12.5751797,7.88692804 12.5751797,7.99393911 L12.5751797,9.77152214 L12.9910323,10.008238 C12.9925991,10.0091605 12.9937972,10.0106365 12.9953641,10.011559 C13.0081751,10.0193081 13.020341,10.0281642 13.0310323,10.0386808 C13.0313088,10.0389576 13.0316774,10.0391421 13.0319539,10.0394188 C13.0426452,10.0501199 13.0516774,10.0623893 13.0596959,10.0753967 C13.0618157,10.0789022 13.063659,10.0825923 13.0655945,10.0862823 C13.0710323,10.0965221 13.0755484,10.107131 13.0790507,10.1183856 C13.0802488,10.1223524 13.0817235,10.1262269 13.0827373,10.1303782 C13.086424,10.1452306 13.0889124,10.1605443 13.0889124,10.1766882 L13.0889124,11.2945849 L13.0889124,15.6243819 L13.2144424,15.6243819 C13.3213548,15.6243819 13.4079908,15.7110978 13.4079908,15.8181089 C13.4079908,15.9251199 13.3213548,16.0117435 13.2144424,16.0117435 L13.0889124,16.0117435 L13.0889124,17.3278875 L13.2144424,17.3278875 C13.3213548,17.3278875 13.4079908,17.4146033 13.4079908,17.5216144 L13.4079908,20.5219834 L13.6200645,20.5219834 C13.7268848,20.5219834 13.8135207,20.6086993 13.8135207,20.7157103 L13.8135207,21.2407103 L14.8698341,21.2407103 C14.9350876,21.2407103 14.9961014,21.2736439 15.0317696,21.3282565 C15.06753,21.382869 15.0733364,21.4518727 15.0473456,21.5118358 L14.6418157,22.4433856 C14.6110323,22.5140498 14.5413548,22.559714 14.4643963,22.559714 L14.3255023,22.559714 L14.3255023,23.5241974 C15.746977,22.7466144 16.9478065,21.6142343 17.8094654,20.2471679 L15.9789585,20.2471679 C15.2284516,20.2471679 14.6179447,19.6360978 14.6179447,18.8848985" id="Fill-1" fill="#5CD8FF"></path>
                            <path d="M5.44937327,22.559714 C5.36623963,22.559714 5.29232258,22.5065775 5.26587097,22.4276107 L4.95342857,21.4960609 C4.93352074,21.436928 4.94338249,21.3718911 4.97969585,21.3213376 C5.01610138,21.2706919 5.07462673,21.2407103 5.13683871,21.2407103 L6.19315207,21.2407103 L6.19315207,20.7157103 C6.19315207,20.6086993 6.27988018,20.5219834 6.38670046,20.5219834 L6.5855023,20.5219834 L6.5855023,17.5216144 C6.5855023,17.4146033 6.67213825,17.3278875 6.77905069,17.3278875 L6.90458065,17.3278875 L6.90458065,16.0118358 L6.77905069,16.0118358 C6.67213825,16.0118358 6.5855023,15.9251199 6.5855023,15.8181089 C6.5855023,15.7110978 6.67213825,15.6243819 6.77905069,15.6243819 L7.09075576,15.6243819 L7.09075576,11.2945849 L7.09075576,10.1766882 C7.09075576,10.1605443 7.09315207,10.1452306 7.09693088,10.1303782 C7.0979447,10.1262269 7.09932719,10.1223524 7.10061751,10.1183856 C7.10411982,10.107131 7.10854378,10.0965221 7.11407373,10.0862823 C7.11600922,10.0825923 7.11776037,10.0789022 7.11997235,10.0753967 C7.12789862,10.0623893 7.13693088,10.0501199 7.14762212,10.0394188 C7.14799078,10.0391421 7.14835945,10.0389576 7.14863594,10.0386808 C7.15923502,10.0281642 7.17140092,10.0194004 7.18430415,10.011559 C7.1857788,10.0106365 7.18697696,10.0091605 7.18863594,10.008238 L7.60448848,9.77152214 L7.60448848,7.99393911 C7.60448848,7.88692804 7.69121659,7.80030443 7.79803687,7.80030443 L8.65573272,7.80030443 L9.0544424,5.77299815 C7.12504147,5.92511993 5.35693088,6.65943727 3.92504147,7.79975092 C4.57075576,7.98480627 5.04513364,8.57973247 5.04513364,9.28462177 C5.04513364,10.1367435 4.35250691,10.8301015 3.50107834,10.8301015 L1.42107834,10.8301015 C0.734718894,12.1407103 0.345686636,13.6309317 0.345686636,15.2105443 C0.345686636,18.9523339 2.5257788,22.1938469 5.68126267,23.729917 L5.68126267,22.559714 L5.44937327,22.559714 Z" id="Fill-3" fill="#5CD8FF"></path>
                            <path d="M9.33100461,12.8482749 C9.33100461,12.4414483 9.66169585,12.1103598 10.0682396,12.1103598 C10.4746912,12.1103598 10.8053825,12.4414483 10.8053825,12.8482749 L10.8053825,14.9422786 L9.33100461,14.9422786 L9.33100461,12.8482749 Z" id="Fill-5" fill="#00B8FB"></path>
                            <path d="M4.86078341,9.0078321 C4.86078341,8.37711255 4.36207373,7.8623524 3.73884793,7.83403137 C2.97672811,8.50690959 2.32336406,9.30026753 1.80907834,10.1843081 L3.68539171,10.1843081 C4.3335023,10.1843081 4.86078341,9.65654059 4.86078341,9.0078321" id="Fill-7" fill="#FFFFFF"></path>
                            <path d="M5.229447,9.0078321 C5.229447,8.3029428 4.75506912,7.70810886 4.109447,7.52305351 C4.04880184,7.57130074 3.98889401,7.62028598 3.92953917,7.67000923 C4.56373272,7.78523063 5.04511521,8.33975092 5.04511521,9.0078321 C5.04511521,9.75949262 4.43635945,10.36881 3.68539171,10.36881 L1.70456221,10.36881 C1.67082949,10.4298801 1.6378341,10.4914114 1.60539171,10.5533118 L3.68539171,10.5533118 C4.53682028,10.5533118 5.229447,9.85995387 5.229447,9.0078321" id="Fill-9" fill="#000000"></path>
                            <path d="M5.04511521,9.0078321 C5.04511521,8.33975092 4.56373272,7.78523063 3.92953917,7.67000923 C3.86520737,7.72379151 3.8016129,7.77858856 3.73884793,7.83403137 C4.36207373,7.8623524 4.86078341,8.37711255 4.86078341,9.0078321 C4.86078341,9.65654059 4.3335023,10.1843081 3.68539171,10.1843081 L1.80907834,10.1843081 C1.7735023,10.2453782 1.73875576,10.3069096 1.70456221,10.36881 L3.68539171,10.36881 C4.43635945,10.36881 5.04511521,9.75949262 5.04511521,9.0078321" id="Fill-11" fill="#000000"></path>
                            <path d="M19.3952719,13.9429889 C19.0698341,14.2333948 18.7996037,14.5899446 18.6106636,14.9995387 L18.5651336,15.098155 L18.4569309,15.1061808 C17.5602488,15.1729705 16.8578525,15.9308118 16.8578525,16.8315498 C16.8578525,17.0156827 16.886977,17.1976937 16.9445806,17.372786 L17.0241198,17.6149446 L16.1632903,17.6149446 C15.6161014,17.6149446 15.1709401,18.0605166 15.1709401,18.6081181 C15.1709401,19.1558118 15.6161014,19.6013838 16.1632903,19.6013838 L18.2149954,19.6013838 C18.998682,18.2230627 19.4470691,16.6298893 19.4470691,14.9337638 C19.4470691,14.5991697 19.4292811,14.2687269 19.3952719,13.9429889" id="Fill-13" fill="#FFFFFF"></path>
                            <path d="M14.9866083,18.6081458 C14.9866083,17.9576845 15.5134286,17.4303782 16.1632903,17.4303782 L16.7694654,17.4303782 C16.70753,17.2419096 16.6735207,17.0407103 16.6735207,16.8314852 C16.6735207,15.8221679 17.4537972,14.9958764 18.4432903,14.9222601 C18.6590507,14.4546402 18.978129,14.0454151 19.3695576,13.7204151 C19.3605253,13.6500277 19.3506636,13.5800092 19.3400645,13.5101753 C18.9190507,13.8372048 18.566977,14.2566697 18.3219078,14.7491052 C17.2857788,14.8805627 16.4891889,15.7750277 16.4891889,16.8314852 C16.4891889,16.9711531 16.5030138,17.1098063 16.5303871,17.2458764 L16.1632903,17.2458764 C15.4127834,17.2458764 14.8022765,17.8569465 14.8022765,18.6081458 C14.8022765,19.359345 15.4127834,19.9704151 16.1632903,19.9704151 L17.9937972,19.9704151 C18.0323226,19.909345 18.0701106,19.8478137 18.1072535,19.7859133 L16.1632903,19.7859133 C15.5134286,19.7859133 14.9866083,19.258607 14.9866083,18.6081458" id="Fill-15" fill="#000000"></path>
                            <path d="M15.1709401,18.6081458 C15.1709401,18.060452 15.6161014,17.6148801 16.1632903,17.6148801 L17.0241198,17.6148801 L16.9445806,17.3727214 C16.886977,17.1977214 16.8578525,17.0156181 16.8578525,16.8314852 C16.8578525,15.9308395 17.5602488,15.1729982 18.4569309,15.1062085 L18.5651336,15.0981827 L18.6106636,14.9995664 C18.7996037,14.5898801 19.0698341,14.2334225 19.3952719,13.9430166 C19.38753,13.8685701 19.3790507,13.7943081 19.3695576,13.7204151 C18.978129,14.0454151 18.6590507,14.4546402 18.4432903,14.9222601 C17.4537972,14.9958764 16.6735207,15.8221679 16.6735207,16.8314852 C16.6735207,17.0407103 16.70753,17.2419096 16.7694654,17.4303782 L16.1632903,17.4303782 C15.5134286,17.4303782 14.9866083,17.9576845 14.9866083,18.6081458 C14.9866083,19.258607 15.5134286,19.7859133 16.1632903,19.7859133 L18.1072535,19.7859133 C18.1438433,19.7247509 18.179788,19.6633118 18.2149954,19.6014114 L16.1632903,19.6014114 C15.6161014,19.6014114 15.1709401,19.1558395 15.1709401,18.6081458" id="Fill-17" fill="#000000"></path>
                            <path d="M8.15354839,24.663238 C7.49465438,24.5398985 6.85880184,24.3512454 6.25271889,24.1043819 L6.25271889,24.2053967 C6.85032258,24.4475554 7.4764977,24.6332565 8.12479263,24.7562269 C8.13364055,24.7253229 8.14331797,24.6943266 8.15354839,24.663238" id="Fill-19" fill="#000000"></path>
                            <path d="M12.2269401,24.6781919 C12.8860184,24.5265314 13.520212,24.3093727 14.1227005,24.0340959 L14.1227005,23.9319742 C13.5113641,24.2130627 12.8664793,24.4338192 12.195788,24.58631 C12.2068479,24.6171218 12.2173548,24.6477491 12.2269401,24.6781919" id="Fill-21" fill="#000000"></path>
                            <path d="M0.0699078341,14.9057657 C0.0699078341,13.3444188 0.430460829,11.8675738 1.07202765,10.5532749 L1.01129032,10.5532749 C0.364009217,11.8768911 4.60829493e-05,13.3635148 4.60829493e-05,14.93381 C4.60829493e-05,18.9758764 2.40907834,22.4652675 5.86557604,24.0394373 L5.86557604,23.9373155 C2.4459447,22.3708026 0.0699078341,18.91619 0.0699078341,14.9057657" id="Fill-23" fill="#000000"></path>
                            <path d="M19.7649217,13.2257472 C19.7849217,13.2143081 19.8046452,13.2024077 19.8247373,13.1913376 C19.0756129,8.9423524 15.6364424,5.61098708 11.3370876,5.0275 L11.3455668,5.07095018 C15.6298986,5.6577583 19.0422488,8.98248155 19.7649217,13.2257472" id="Fill-25" fill="#000000"></path>
                            <path d="M14.5098525,23.7442435 L14.5098525,23.8470111 C16.2199908,22.9744096 17.6468111,21.6228413 18.6137235,19.9703506 L18.5203594,19.9703506 C17.5672719,21.5754244 16.1754747,22.888893 14.5098525,23.7442435" id="Fill-27" fill="#000000"></path>
                            <path d="M9.33632258,4.99991697 L9.34470968,4.9573893 C7.05558525,5.10388376 4.97401843,6.02547048 3.35927189,7.46237085 L3.42609217,7.46237085 C5.0224977,6.05120849 7.07613825,5.14678044 9.33632258,4.99991697" id="Fill-29" fill="#000000"></path>
                            <path d="M9.9884977,24.8307701 C9.49789862,24.8307701 9.01587097,24.7950956 8.54435023,24.7273775 C8.53310599,24.7581502 8.52140092,24.7891952 8.5117235,24.8194232 C8.99375115,24.8901369 9.48683871,24.9271731 9.9884977,24.9271731 C10.6225991,24.9271731 11.2427834,24.8679878 11.8445346,24.7562439 C11.8339355,24.7259251 11.8242581,24.6957878 11.8122765,24.6653782 C11.2210323,24.7735819 10.6116313,24.8307701 9.9884977,24.8307701" id="Fill-31" fill="#000000"></path>
                            <path d="M9.9884977,24.8334594 C10.6116313,24.8334594 11.2210323,24.7753413 11.8122765,24.6653782 C11.7593733,24.5282934 11.689788,24.3912085 11.6057327,24.2620572 C11.0800184,24.3530166 10.5397419,24.4010793 9.9884977,24.4010793 C9.56435023,24.4010793 9.14683871,24.3724815 8.73743779,24.3180535 C8.65752995,24.4524631 8.59347465,24.5916697 8.54435023,24.7283856 C9.01587097,24.7972048 9.49789862,24.8334594 9.9884977,24.8334594" id="Fill-33" fill="#000000"></path>
                            <path d="M19.3401014,13.5101568 C19.4749401,13.405452 19.6168756,13.3104336 19.764894,13.2257472 C19.0423134,8.98248155 15.629871,5.6577583 11.3456313,5.07095018 L11.4455392,5.57888376 C15.508212,6.21034133 18.7240645,9.43893911 19.3401014,13.5101568" id="Fill-35" fill="#000000"></path>
                            <path d="M4.10941014,7.52303506 C5.54120737,6.3827214 7.30941014,5.64840406 9.23871889,5.49619004 L9.33632258,4.99988007 C7.07604608,5.14683579 5.0224977,6.05117159 3.42609217,7.46233395 L3.68535484,7.46233395 C3.83254378,7.46233395 3.97447926,7.48438192 4.10941014,7.52303506" id="Fill-37" fill="#000000"></path>
                            <path d="M0.52997235,14.9337823 C0.52997235,13.3541697 0.919004608,11.8639483 1.60536406,10.5533395 L1.072,10.5533395 C0.43043318,11.8675461 0.0698801843,13.3443911 0.0698801843,14.905738 C0.0698801843,18.9161624 2.44591705,22.3707749 5.86564055,23.9372878 L5.86564055,23.453155 C2.71006452,21.9170849 0.52997235,18.675572 0.52997235,14.9337823" id="Fill-39" fill="#000000"></path>
                            <path d="M14.5098525,23.2473985 L14.5098525,23.744262 C16.1754747,22.8889114 17.5672719,21.5753506 18.5203594,19.970369 L17.9938157,19.970369 C17.1321567,21.3375277 15.9313272,22.4698155 14.5098525,23.2473985" id="Fill-41" fill="#000000"></path>
                            <path d="M8.32582488,24.2544557 C7.60315207,24.1256734 6.90895853,23.9141421 6.25273733,23.6305627 L6.25273733,24.1044557 C6.85882028,24.3512269 7.49458065,24.5398801 8.15356682,24.6632196 C8.19817512,24.5275185 8.2555023,24.3895111 8.32582488,24.2544557" id="Fill-43" fill="#000000"></path>
                            <path d="M12.0118249,24.1822048 C12.0874009,24.3161531 12.1479539,24.4527768 12.195788,24.5863561 C12.8664793,24.4337731 13.5113641,24.2130166 14.1227005,23.9320203 L14.1227005,23.4475185 C13.4586452,23.7718727 12.7511797,24.0203044 12.0118249,24.1822048" id="Fill-45" fill="#000000"></path>
                            <path d="M3.03069124,7.83136531 L2.96599078,7.83136531 C2.26875576,8.52204797 1.6721659,9.31439114 1.20092166,10.1843173 L1.26138249,10.1843173 C1.73281106,9.31309963 2.33105991,8.52084871 3.03069124,7.83136531" id="Fill-47" fill="#000000"></path>
                            <path d="M3.73881106,7.83406827 C3.72093088,7.83323801 3.70341935,7.83139299 3.68535484,7.83139299 L3.03070046,7.83139299 C2.33106912,8.52078413 1.73282028,9.31312731 1.26139171,10.184345 L1.80904147,10.184345 C2.32341935,9.30030443 2.97669124,8.50685424 3.73881106,7.83406827" id="Fill-49" fill="#000000"></path>
                            <path d="M1.16262857,10.3688007 L1.10268111,10.3688007 C1.07147558,10.4288937 1.04118249,10.4895314 1.01134562,10.5503506 L1.07138433,10.5503506 C1.10131244,10.4895314 1.13151429,10.4288937 1.16262857,10.3688007" id="Fill-51" fill="#000000"></path>
                            <path d="M3.22242212,7.64395756 C3.28857419,7.58250295 3.35554747,7.52195609 3.42343318,7.46240775 L3.35728111,7.46240775 C3.28985161,7.52204686 3.22315207,7.58250295 3.15745622,7.64395756 L3.22242212,7.64395756 Z" id="Fill-53" fill="#000000"></path>
                            <path d="M1.704553,10.3688007 L1.16418433,10.3688007 C1.13275576,10.4288937 1.10215668,10.4895314 1.07201843,10.5503506 L1.60538249,10.5503506 C1.63782488,10.4894406 1.67082028,10.4288937 1.704553,10.3688007" id="Fill-55" fill="#000000"></path>
                            <path d="M3.92949309,7.66665129 C3.98884793,7.61772362 4.04884793,7.56952214 4.10940092,7.52204686 C3.97447005,7.48401218 3.83253456,7.46240775 3.68543779,7.46240775 L3.42617512,7.46240775 C3.35760369,7.52195609 3.28995392,7.58250295 3.22304147,7.64395756 L3.68543779,7.64395756 C3.76884793,7.64395756 3.85023041,7.65249041 3.92949309,7.66665129" id="Fill-57" fill="#000000"></path>
                            <path d="M1.19999355,10.1842989 C1.16723687,10.2443919 1.13511889,10.3050295 1.10354839,10.3658487 L1.1635871,10.3658487 C1.19506636,10.3050295 1.22709309,10.2443919 1.25984977,10.1842989 L1.19999355,10.1842989 Z" id="Fill-59" fill="#000000"></path>
                            <path d="M3.03004424,7.82841328 C3.09272903,7.76704945 3.15623502,7.70659336 3.22047097,7.64686347 L3.15550507,7.64686347 C3.09154286,7.70659336 3.0283106,7.76704945 2.96599078,7.82841328 L3.03004424,7.82841328 Z" id="Fill-61" fill="#000000"></path>
                            <path d="M3.68539171,7.82841328 C3.70336406,7.82841328 3.72096774,7.83031956 3.73884793,7.83104576 C3.8016129,7.77649004 3.86520737,7.72256974 3.929447,7.6695572 C3.85018433,7.65539631 3.76889401,7.64686347 3.68539171,7.64686347 L3.22308756,7.64686347 C3.1581106,7.70659336 3.09396313,7.76704945 3.03064516,7.82841328 L3.68539171,7.82841328 Z" id="Fill-63" fill="#000000"></path>
                            <path d="M1.80904147,10.1842989 L1.26139171,10.1842989 C1.22830415,10.2443919 1.19595392,10.3050295 1.16415668,10.3658487 L1.70452535,10.3658487 C1.73871889,10.3049387 1.77346544,10.2443919 1.80904147,10.1842989" id="Fill-65" fill="#000000"></path>
                            <g id="Group-69" transform="translate(18.709677, 13.492343)">
                                <mask id="mask-2" fill="white">
                                    <use xlink:href="#path-1"></use>
                                </mask>
                                <g id="Clip-68"></g>
                                <path d="M0.0195483871,6.10903137 L0.10959447,6.10903137 C0.84802765,4.71484317 1.26729032,3.12628229 1.26729032,1.44141144 C1.26729032,0.983108856 1.23558525,0.532094096 1.17567742,0.0899354244 C1.15530876,0.102204797 1.13457143,0.113551661 1.11447926,0.126190037 C1.16904147,0.547592251 1.19733641,0.977204797 1.19733641,1.41345941 C1.19733641,3.11207565 0.770700461,4.71096863 0.0195483871,6.10903137" id="Fill-67" fill="#000000" mask="url(#mask-2)"></path>
                            </g>
                            <path d="M19.447023,14.9337823 C19.447023,16.6299077 18.9987281,18.2229889 18.2150415,19.6014022 L18.729235,19.6014022 C19.4803871,18.2032472 19.907023,16.6044465 19.907023,14.905738 C19.907023,14.4694834 19.8787281,14.0399631 19.8241659,13.6185609 C19.672553,13.7143173 19.5295115,13.8232657 19.3952258,13.9430074 C19.4293272,14.2687454 19.447023,14.5991882 19.447023,14.9337823" id="Fill-70" fill="#000000"></path>
                            <path d="M18.6261843,19.7858764 C18.5915115,19.8467863 18.5562,19.9072424 18.520341,19.9674262 L18.6128627,19.9674262 C18.6481742,19.9073332 18.682847,19.8467863 18.7169724,19.7858764 L18.6261843,19.7858764 Z" id="Fill-72" fill="#000000"></path>
                            <path d="M19.7988124,13.41459 C19.8207124,13.4026985 19.8421124,13.3901716 19.8642124,13.3787339 C19.8534124,13.3160993 19.8420124,13.2536461 19.8299124,13.1913745 C19.8080124,13.2021768 19.7866124,13.2139775 19.7649124,13.2252336 C19.7767124,13.2881406 19.7884124,13.3512292 19.7988124,13.41459" id="Fill-74" fill="#000000"></path>
                            <path d="M17.993788,19.9674262 L18.5203318,19.9674262 C18.556553,19.9072424 18.5922212,19.8467863 18.6272442,19.7858764 L18.1072442,19.7858764 C18.0701014,19.8468771 18.0323134,19.9073332 17.993788,19.9674262" id="Fill-76" fill="#000000"></path>
                            <path d="M19.3692359,13.7124638 C19.5019051,13.6029893 19.6430599,13.5036815 19.7916055,13.415176 C19.7820249,13.3517244 19.7714406,13.2887266 19.7606737,13.2257288 C19.6141355,13.3090601 19.4736194,13.4025583 19.340129,13.5055878 C19.3505309,13.5743952 19.360294,13.6432934 19.3692359,13.7124638" id="Fill-78" fill="#000000"></path>
                            <path d="M18.7282065,19.6013745 C18.6952673,19.6622845 18.6615069,19.7227406 18.6272903,19.7829244 L18.7180783,19.7829244 C18.7517475,19.7227406 18.7848691,19.6622845 18.8173521,19.6013745 L18.7282065,19.6013745 Z" id="Fill-80" fill="#000000"></path>
                            <path d="M19.826529,13.6147904 C19.848329,13.6023542 19.870829,13.5910982 19.892929,13.5791159 C19.883029,13.5131225 19.872829,13.4473107 19.861629,13.3817712 C19.839429,13.3932996 19.818029,13.4057358 19.796129,13.4176273 C19.807029,13.4831668 19.817129,13.548797 19.826529,13.6147904" id="Fill-82" fill="#000000"></path>
                            <path d="M19.3950147,13.9429889 C19.5278664,13.8232472 19.6695687,13.7142989 19.8195742,13.6185424 C19.8110885,13.5515683 19.8017816,13.4847786 19.7919272,13.4182657 C19.6433816,13.5082103 19.5022267,13.6091328 19.3695576,13.7203875 C19.3789558,13.7942804 19.3873502,13.8685424 19.3950147,13.9429889" id="Fill-84" fill="#000000"></path>
                            <path d="M18.215023,19.6013745 C18.1798157,19.6622845 18.143871,19.7228314 18.1072811,19.7829244 L18.6272811,19.7829244 C18.6618433,19.7227406 18.6959447,19.6622845 18.7292166,19.6013745 L18.215023,19.6013745 Z" id="Fill-86" fill="#000000"></path>
                            <path d="M14.1227373,22.2829613 L14.1227373,23.4475369 C14.2521217,23.3836993 14.3799548,23.3170018 14.5059631,23.2474446 L14.5059631,22.2829613 L14.1227373,22.2829613 Z" id="Fill-88" fill="#000000"></path>
                            <path d="M5.86560369,22.2829613 L5.86560369,23.4531642 C5.99170323,23.5151568 6.11962765,23.5741974 6.24882949,23.6305627 L6.24882949,22.2829613 L5.86560369,22.2829613 Z" id="Fill-90" fill="#000000"></path>
                            <path d="M6.24884793,24.1017443 C6.11973733,24.0494579 5.99190415,23.9948114 5.86562212,23.9372601 L5.86562212,24.037748 C5.99190415,24.0949362 6.11973733,24.1491288 6.24884793,24.201052 L6.24884793,24.1017443 Z" id="Fill-92" fill="#000000"></path>
                            <path d="M14.1227373,23.9289797 L14.1227373,24.0294675 C14.2519392,23.9707362 14.3796811,23.9093723 14.5059631,23.845376 L14.5059631,23.7442528 C14.3798636,23.8086122 14.2519392,23.869976 14.1227373,23.9289797" id="Fill-94" fill="#000000"></path>
                            <path d="M14.1227373,23.4474908 L14.1227373,23.9319926 C14.2519392,23.8720295 14.3798636,23.8096679 14.5059631,23.744262 L14.5059631,23.2473985 C14.3799548,23.317048 14.2521217,23.3836531 14.1227373,23.4474908" id="Fill-96" fill="#000000"></path>
                            <path d="M5.86560369,23.4531642 L5.86560369,23.937297 C5.99188571,23.9957841 6.11971889,24.0513192 6.24882949,24.1044557 L6.24882949,23.6305627 C6.11962765,23.5741974 5.99170323,23.5151568 5.86560369,23.4531642" id="Fill-98" fill="#000000"></path>
                            <path d="M6.05916129,21.895572 L5.77289401,21.895572 L5.59040553,21.3513838 L6.57105069,21.3513838 C6.46423041,21.3513838 6.3775023,21.2646679 6.3775023,21.1576568 L6.3775023,20.9639299 L5.32118894,20.9639299 C5.25888479,20.9639299 5.20045161,20.9940037 5.16404608,21.0445572 C5.12773272,21.0951107 5.11787097,21.1601476 5.13768664,21.2192804 L5.4502212,22.1509225 C5.47667281,22.229797 5.5504977,22.2829336 5.6337235,22.2829336 L5.8656129,22.2829336 L5.8656129,22.0892989 C5.8656129,21.9821956 5.95224885,21.895572 6.05916129,21.895572" id="Fill-100" fill="#000000"></path>
                            <path d="M13.8043871,21.3513469 L14.758765,21.3513469 L14.5218986,21.8955351 L14.3162765,21.8955351 C14.4231889,21.8955351 14.5098249,21.9822509 14.5098249,22.089262 L14.5098249,22.2829889 L14.6487189,22.2829889 C14.7256774,22.2829889 14.7953548,22.2373247 14.8261382,22.1666605 L15.2316682,21.2350185 C15.2577512,21.1751476 15.2518525,21.1061439 15.2160922,21.0515314 C15.180424,20.9968266 15.1195023,20.9639852 15.0542488,20.9639852 L13.9979355,20.9639852 L13.9979355,21.1576199 C13.9979355,21.2647232 13.9112074,21.3513469 13.8043871,21.3513469" id="Fill-102" fill="#000000"></path>
                            <path d="M14.3162488,21.895572 L6.05919816,21.895572 C5.95228571,21.895572 5.86564977,21.9808096 5.86564977,22.0861993 L5.86564977,22.2767358 L6.25274654,22.2767358 L14.1227005,22.2767358 L14.5098894,22.2767358 L14.5098894,22.0861993 C14.5098894,21.9808096 14.4231613,21.895572 14.3162488,21.895572" id="Fill-104" fill="#000000"></path>
                            <path d="M13.3988203,20.6326199 L13.6108018,20.6326199 L13.6108018,20.9639852 L13.9978986,20.9639852 L13.9978986,20.438893 C13.9978986,20.3318819 13.9112627,20.2452583 13.8043502,20.2452583 L13.5923687,20.2452583 L13.5923687,20.438893 C13.5923687,20.5459963 13.5056406,20.6326199 13.3988203,20.6326199" id="Fill-106" fill="#000000"></path>
                            <path d="M6.76462673,20.6326199 L6.96333641,20.6326199 C6.85651613,20.6326199 6.76978802,20.5459963 6.76978802,20.438893 L6.76978802,20.2452583 L6.57107834,20.2452583 C6.4641659,20.2452583 6.37752995,20.3318819 6.37752995,20.438893 L6.37752995,20.9639852 L6.76462673,20.9639852 L6.76462673,20.6326199 Z" id="Fill-108" fill="#000000"></path>
                            <path d="M6.76462673,20.9639668 L6.37752995,20.9639668 L6.37752995,21.1545941 C6.37752995,21.259893 6.4641659,21.3451306 6.57107834,21.3451306 L13.8043502,21.3451306 C13.9112627,21.3451306 13.9978986,21.259893 13.9978986,21.1545941 L13.9978986,20.9639668 L13.6108018,20.9639668 L6.76462673,20.9639668 Z" id="Fill-110" fill="#000000"></path>
                            <path d="M7.15692166,17.438524 L7.28245161,17.438524 C7.17563134,17.438524 7.08890323,17.3519004 7.08890323,17.244797 L7.08890323,17.0511624 L6.96337327,17.0511624 C6.85646083,17.0511624 6.76982488,17.137786 6.76982488,17.244797 L6.76982488,20.2452583 L7.15692166,20.2452583 L7.15692166,17.438524 Z" id="Fill-112" fill="#000000"></path>
                            <path d="M13.079659,17.438524 L13.2051889,17.438524 L13.2051889,20.2452583 L13.5922857,20.2452583 L13.5922857,17.244797 C13.5922857,17.137786 13.5056498,17.0511624 13.3988295,17.0511624 L13.2732995,17.0511624 L13.2732995,17.244797 C13.2732995,17.3519004 13.1865714,17.438524 13.079659,17.438524" id="Fill-114" fill="#000000"></path>
                            <path d="M10.1811152,16.4389852 C9.65014747,16.4389852 9.14931797,16.660941 8.79263594,17.0511624 L7.47595392,17.0511624 L7.47595392,17.244797 C7.47595392,17.3519004 7.38931797,17.438524 7.2824977,17.438524 L8.88065438,17.438524 C8.93825806,17.438524 8.99282028,17.4128782 9.02968664,17.3685055 C9.31512442,17.0240406 9.73475576,16.8263469 10.1811152,16.8263469 C10.6273825,16.8263469 11.047106,17.0240406 11.3324516,17.3685055 C11.369318,17.4128782 11.4238802,17.438524 11.4814839,17.438524 L13.0796406,17.438524 C12.9728203,17.438524 12.8861843,17.3519004 12.8861843,17.244797 L12.8861843,17.0511624 L11.5695023,17.0511624 C11.2128203,16.660941 10.7119908,16.4389852 10.1811152,16.4389852" id="Fill-116" fill="#000000"></path>
                            <path d="M7.15692166,20.2452399 L6.76982488,20.2452399 L6.76982488,20.4358672 C6.76982488,20.5411661 6.85646083,20.6264037 6.96337327,20.6264037 L13.3988571,20.6264037 C13.5056774,20.6264037 13.5923134,20.5411661 13.5923134,20.4358672 L13.5923134,20.2452399 L13.2052166,20.2452399 L7.15692166,20.2452399 Z" id="Fill-118" fill="#000000"></path>
                            <path d="M10.1876866,19.4327768 C9.71653456,19.4327768 9.33312442,19.0490129 9.33312442,18.5773339 C9.33312442,18.105655 9.71653456,17.7218911 10.1876866,17.7218911 C10.6589309,17.7218911 11.042341,18.105655 11.042341,18.5773339 C11.042341,19.0490129 10.6589309,19.4327768 10.1876866,19.4327768 M10.1876866,17.3687546 C9.52188018,17.3687546 8.9802212,17.910821 8.9802212,18.5773339 C8.9802212,19.2436624 9.52188018,19.7859133 10.1876866,19.7859133 C10.8535853,19.7859133 11.3952442,19.2436624 11.3952442,18.5773339 C11.3952442,17.910821 10.8535853,17.3687546 10.1876866,17.3687546" id="Fill-120" fill="#000000"></path>
                            <polygon id="Fill-122" fill="#000000" points="12.8861475 15.7350369 12.8861475 17.0511808 13.2693733 17.0511808 13.2693733 15.7350369 13.0777604 15.7350369"></polygon>
                            <path d="M12.8861475,17.2417343 C12.8861475,17.3470332 12.9719171,17.4323616 13.0777604,17.4323616 C13.1836037,17.4323616 13.2693733,17.3470332 13.2693733,17.2417343 L13.2693733,17.051107 L12.8861475,17.051107 L12.8861475,17.2417343 Z" id="Fill-124" fill="#000000"></path>
                            <polygon id="Fill-126" fill="#000000" points="7.47211982 15.7350369 7.46482028 15.7350369 7.08889401 15.7350369 7.08889401 17.0511808 7.47211982 17.0511808"></polygon>
                            <path d="M7.28054378,17.4323262 C7.38629585,17.4323262 7.47215668,17.3470886 7.47215668,17.2416989 L7.47215668,17.0511624 L7.08893088,17.0511624 L7.08893088,17.2416989 C7.08893088,17.3470886 7.17470046,17.4323262 7.28054378,17.4323262" id="Fill-128" fill="#000000"></path>
                            <path d="M13.2732627,15.7288391 L13.3975373,15.7288391 C13.5032894,15.7288391 13.5891502,15.6436015 13.5891502,15.5382118 C13.5891502,15.4329129 13.5032894,15.3476753 13.3975373,15.3476753 L13.2732627,15.3476753 L13.2732627,15.5382118 L13.2732627,15.7288391 Z" id="Fill-130" fill="#000000"></path>
                            <path d="M7.27505069,15.3483646 L7.27505069,15.3476384 L6.96334562,15.3476384 C6.85643318,15.3476384 6.76979724,15.4329668 6.76979724,15.5382657 C6.76979724,15.6435646 6.85643318,15.7288022 6.96334562,15.7288022 L7.08887558,15.7288022 L7.08887558,15.5382657 C7.08887558,15.4354177 7.17164055,15.3522679 7.27505069,15.3483646" id="Fill-132" fill="#000000"></path>
                            <path d="M13.079659,15.7319373 L13.2713631,15.7319373 L13.2713631,15.54131 C13.2713631,15.6466996 13.1855023,15.7319373 13.079659,15.7319373" id="Fill-134" fill="#000000"></path>
                            <path d="M7.27318894,15.538259 L7.27318894,15.3483579 C7.1708129,15.352352 7.08887558,15.4354111 7.08887558,15.538259 L7.08887558,15.7288863 L7.46480184,15.7288863 C7.35895853,15.7288863 7.27318894,15.6435579 7.27318894,15.538259" id="Fill-136" fill="#000000"></path>
                            <path d="M9.53694009,12.5349908 C9.53694009,12.1281642 9.86763134,11.7970756 10.2741751,11.7970756 C10.6806267,11.7970756 11.011318,12.1281642 11.011318,12.5349908 L11.011318,14.6289945 L9.53694009,14.6289945 L9.53694009,12.5349908 Z M9.34339171,15.0163561 L11.2049585,15.0163561 C11.3117788,15.0163561 11.3984147,14.9297325 11.3984147,14.8227214 L11.3984147,12.5349908 C11.3984147,11.9144188 10.8941751,11.409714 10.2741751,11.409714 C9.65417512,11.409714 9.14984332,11.9144188 9.14984332,12.5349908 L9.14984332,14.8227214 C9.14984332,14.9297325 9.23647926,15.0163561 9.34339171,15.0163561 Z" id="Fill-138" fill="#000000"></path>
                            <mask id="mask-4" fill="white">
                                <use xlink:href="#path-3"></use>
                            </mask>
                            <g id="Clip-141"></g>
                            <polygon id="Fill-140" fill="#000000" mask="url(#mask-4)" points="8.10488479 15.3476937 8.4881106 15.3476937 8.4881106 11.2115314 8.10488479 11.2115314"></polygon>
                            <polygon id="Fill-142" fill="#000000" mask="url(#mask-4)" points="12.0682949 15.3476937 12.4515207 15.3476937 12.4515207 11.2115314 12.0682949 11.2115314"></polygon>
                            <path d="M7.28490323,9.84430185 C7.28880323,9.83220185 7.29360323,9.82060185 7.29950323,9.80950185 C7.29360323,9.82060185 7.28880323,9.83210185 7.28490323,9.84430185" id="Fill-143" fill="#000000" mask="url(#mask-4)"></path>
                            <path d="M7.33296774,9.76419705 C7.34436774,9.75289705 7.35756774,9.74329705 7.37166774,9.73479705 C7.35766774,9.74329705 7.34446774,9.75279705 7.33296774,9.76419705" id="Fill-144" fill="#000000" mask="url(#mask-4)"></path>
                            <path d="M7.30425806,9.80170295 C7.31285806,9.78770295 7.32265806,9.77440295 7.33435806,9.76270295 C7.32275806,9.77430295 7.31295806,9.78760295 7.30425806,9.80170295" id="Fill-145" fill="#000000" mask="url(#mask-4)"></path>
                            <path d="M7.27505069,9.90377934 C7.27505069,9.88657934 7.27775069,9.86987934 7.28175069,9.85357934 C7.27775069,9.86977934 7.27505069,9.88637934 7.27505069,9.90377934" id="Fill-146" fill="#000000" mask="url(#mask-4)"></path>
                            <path d="M8.49197235,11.0147048 L8.49197235,11.2053321 L12.0682857,11.2053321 L12.0682857,11.0147048 C12.0682857,10.9094059 12.1549217,10.8240775 12.2617419,10.8240775 L8.2983318,10.8240775 C8.40533641,10.8240775 8.49197235,10.9094059 8.49197235,11.0147048" id="Fill-147" fill="#000000" mask="url(#mask-4)"></path>
                            <path d="M13.1796498,9.73480627 C13.1937498,9.74330627 13.2068498,9.75290627 13.2184498,9.76420627 C13.2067498,9.75280627 13.1936498,9.74320627 13.1796498,9.73480627" id="Fill-148" fill="#000000" mask="url(#mask-4)"></path>
                            <path d="M12.5659078,10.0910937 L12.8829816,10.0910937 L12.8829816,10.0113934 L12.7537797,9.93822878 C12.7360783,10.0254635 12.6587945,10.0910937 12.5659078,10.0910937" id="Fill-149" fill="#000000" mask="url(#mask-4)"></path>
                            <path d="M13.2670507,9.85358856 C13.2710507,9.86988856 13.2737507,9.88658856 13.2737507,9.90378856 C13.2737507,9.88638856 13.2710507,9.86978856 13.2670507,9.85358856" id="Fill-150" fill="#000000" mask="url(#mask-4)"></path>
                            <path d="M13.2162857,9.7626845 C13.2279857,9.7743845 13.2377857,9.7876845 13.2463857,9.8016845 C13.2376857,9.7875845 13.2278857,9.7742845 13.2162857,9.7626845" id="Fill-151" fill="#000000" mask="url(#mask-4)"></path>
                            <path d="M13.2499447,9.80952952 C13.2558447,9.82062952 13.2606447,9.83222952 13.2645447,9.84432952 C13.2606447,9.83212952 13.2558447,9.82062952 13.2499447,9.80952952" id="Fill-152" fill="#000000" mask="url(#mask-4)"></path>
                            <path d="M7.7914129,9.93826568 L7.66211982,10.0114303 L7.66211982,10.0911306 L7.97919355,10.0911306 C7.88639816,10.0911306 7.80902304,10.0254096 7.7914129,9.93826568" id="Fill-153" fill="#000000" mask="url(#mask-4)"></path>
                            <path d="M8.49197235,11.2052967 L8.49197235,11.0146694 C8.49197235,10.9093705 8.40533641,10.8241328 8.2983318,10.8241328 L7.6621106,10.8241328 L7.6621106,11.2052967 L8.10487558,11.2052967 L8.49197235,11.2052967 Z" id="Fill-154" fill="#000000" mask="url(#mask-4)"></path>
                            <path d="M12.0682581,11.0147048 L12.0682581,11.2053321 L12.4553548,11.2053321 L12.8861382,11.2053321 L12.8861382,10.8240775 L12.2618065,10.8240775 C12.154894,10.8240775 12.0682581,10.9094059 12.0682581,11.0147048" id="Fill-155" fill="#000000" mask="url(#mask-4)"></path>
                            <path d="M8.17596313,7.91091328 L8.99928111,7.91091328 C8.94140092,7.91091328 8.88647005,7.88508303 8.84978802,7.84024908 C8.81292166,7.79550738 8.79817512,7.73665129 8.80932719,7.67982472 L8.84001843,7.52355166 L7.98232258,7.52355166 C7.8755023,7.52355166 7.78886636,7.61017528 7.78886636,7.71718635 L7.78886636,9.49476937 L8.17596313,9.27438192 L8.17596313,7.91091328 Z" id="Fill-156" fill="#000000" mask="url(#mask-4)"></path>
                            <path d="M11.8182304,7.84028598 C11.7815484,7.88502768 11.7266175,7.91095018 11.6687373,7.91095018 L12.372424,7.91095018 L12.372424,9.27441882 L12.7595207,9.49480627 L12.7595207,7.71722325 C12.7595207,7.61021218 12.6727926,7.52349631 12.5658802,7.52349631 L11.8279078,7.52349631 L11.8585991,7.67986162 C11.8698433,7.73668819 11.8550046,7.79554428 11.8182304,7.84028598" id="Fill-157" fill="#000000" mask="url(#mask-4)"></path>
                            <path d="M8.2004424,9.70619926 L7.79270046,9.93458893 C7.81058065,10.0217328 7.88864516,10.0873631 7.98237788,10.0873631 L12.5658802,10.0873631 C12.6597051,10.0873631 12.7377696,10.0217328 12.7556498,9.93458893 L12.3479078,9.70619926 L8.2004424,9.70619926 Z" id="Fill-158" fill="#000000" mask="url(#mask-4)"></path>
                            <path d="M7.33198157,9.76274649 C7.33228157,9.76244649 7.33268157,9.76224649 7.33308157,9.76194649 C7.33268157,9.76224649 7.33228157,9.76244649 7.33198157,9.76274649" id="Fill-159" fill="#000000" mask="url(#mask-4)"></path>
                            <path d="M7.29835945,9.81044391 C7.30045945,9.80644391 7.30245945,9.80244391 7.30475945,9.79864391 C7.30235945,9.80244391 7.30045945,9.80644391 7.29835945,9.81044391" id="Fill-160" fill="#000000" mask="url(#mask-4)"></path>
                            <path d="M7.78464516,9.70281624 L7.78464516,9.49476015 L7.37285991,9.72768856 C7.37130876,9.72859631 7.37012258,9.73004871 7.36857143,9.73095646 C7.3975871,9.7134369 7.43125622,9.70281624 7.46757143,9.70281624 L7.78464516,9.70281624 Z" id="Fill-161" fill="#000000" mask="url(#mask-4)"></path>
                            <path d="M10.1785069,8.13451107 L8.17592627,9.27436347 L8.17592627,9.70619004 L8.2004424,9.70619004 L10.2741751,8.52574723 L12.3479078,9.70619004 L12.372424,9.70619004 L12.372424,9.27436347 L10.3698433,8.13451107 C10.3105806,8.10065498 10.2378618,8.10065498 10.1785069,8.13451107" id="Fill-162" fill="#000000" mask="url(#mask-4)"></path>
                            <path d="M13.2153825,9.76191882 C13.2156825,9.76221882 13.2160825,9.76241882 13.2163825,9.76271882 C13.2160825,9.76241882 13.2156825,9.76221882 13.2153825,9.76191882" id="Fill-163" fill="#000000" mask="url(#mask-4)"></path>
                            <path d="M13.0764571,9.70281624 C13.1128636,9.70281624 13.1465327,9.7134369 13.1754571,9.73095646 C13.173906,9.73004871 13.1728111,9.72859631 13.1711687,9.72768856 L12.7594747,9.49476015 L12.7594747,9.70281624 L13.0764571,9.70281624 Z" id="Fill-164" fill="#000000" mask="url(#mask-4)"></path>
                            <path d="M13.2440092,9.79868081 C13.2463092,9.80248081 13.2483092,9.80648081 13.2504092,9.81048081 C13.2483092,9.80648081 13.2463092,9.80248081 13.2440092,9.79868081" id="Fill-165" fill="#000000" mask="url(#mask-4)"></path>
                            <path d="M7.28121659,9.85459594 C7.28231659,9.85019594 7.28381659,9.84589594 7.28521659,9.84159594 C7.28381659,9.84599594 7.28231659,9.85019594 7.28121659,9.85459594" id="Fill-166" fill="#000000" mask="url(#mask-4)"></path>
                            <path d="M13.2633548,9.84160517 C13.2647548,9.84590517 13.2662548,9.85010517 13.2673548,9.85460517 C13.2662548,9.85010517 13.2647548,9.84590517 13.2633548,9.84160517" id="Fill-167" fill="#000000" mask="url(#mask-4)"></path>
                            <path d="M8.49197235,15.5382472 C8.49197235,15.6435461 8.40533641,15.7288745 8.2983318,15.7288745 L12.2617419,15.7288745 C12.1549217,15.7288745 12.0682857,15.6435461 12.0682857,15.5382472 L12.0682857,15.3476199 L8.49197235,15.3476199 L8.49197235,15.5382472 Z" id="Fill-168" fill="#000000" mask="url(#mask-4)"></path>
                            <path d="M7.65824885,15.3476476 L7.65824885,11.2114852 L7.46663594,11.2114852 C7.36079263,11.2114852 7.27502304,11.1248616 7.27502304,11.0177583 L7.27502304,15.3476476 L7.28241382,15.3476476 L7.65824885,15.3476476 Z" id="Fill-169" fill="#000000" mask="url(#mask-4)"></path>
                            <path d="M8.49197235,15.5382472 L8.49197235,15.3476199 L8.10487558,15.3476199 L7.6621106,15.3476199 L7.28247926,15.3476199 C7.38929954,15.3476199 7.47602765,15.4329483 7.47602765,15.5382472 L7.47602765,15.7288745 L8.2983318,15.7288745 C8.40533641,15.7288745 8.49197235,15.6435461 8.49197235,15.5382472" id="Fill-170" fill="#000000" mask="url(#mask-4)"></path>
                            <path d="M7.28311382,15.3476476 L7.27501382,15.3476476 L7.27501382,15.3484476 C7.27781382,15.3483476 7.28031382,15.3476476 7.28311382,15.3476476" id="Fill-171" fill="#000000" mask="url(#mask-4)"></path>
                            <path d="M7.28240461,15.3476476 C7.27984977,15.3476476 7.27756866,15.348283 7.27501382,15.3483738 L7.27501382,15.5382749 C7.27501382,15.6435738 7.36078341,15.7288114 7.46671797,15.7288114 L7.47401751,15.7288114 L7.47401751,15.5382749 C7.47401751,15.4328852 7.38815668,15.3476476 7.28240461,15.3476476" id="Fill-172" fill="#000000" mask="url(#mask-4)"></path>
                            <path d="M13.0777235,11.2114945 L12.8861106,11.2114945 L12.8861106,15.3476568 L13.0777235,15.3476568 L13.2694276,15.3476568 L13.2694276,11.0177675 C13.2694276,11.1248708 13.1835668,11.2114945 13.0777235,11.2114945" id="Fill-173" fill="#000000" mask="url(#mask-4)"></path>
                            <path d="M12.0682581,15.3476476 L12.0682581,15.5382749 C12.0682581,15.6435738 12.154894,15.7288114 12.2618065,15.7288114 L12.8861382,15.7288114 L12.8861382,15.5382749 C12.8861382,15.4328852 12.9727742,15.3476476 13.0796866,15.3476476 L12.8861382,15.3476476 L12.4553548,15.3476476 L12.0682581,15.3476476 Z" id="Fill-174" fill="#000000" mask="url(#mask-4)"></path>
                            <path d="M13.2713263,15.5382472 L13.2713263,15.3476199 L13.0796221,15.3476199 C13.1855567,15.3476199 13.2713263,15.4329483 13.2713263,15.5382472" id="Fill-175" fill="#000000" mask="url(#mask-4)"></path>
                            <path d="M12.8861475,15.5382472 L12.8861475,15.7288745 L13.0777604,15.7288745 C13.1836037,15.7288745 13.2693733,15.6435461 13.2693733,15.5382472 C13.2693733,15.4329483 13.1836037,15.3476199 13.0777604,15.3476199 C12.9719171,15.3476199 12.8861475,15.4329483 12.8861475,15.5382472" id="Fill-176" fill="#000000" mask="url(#mask-4)"></path>
                            <path d="M12.7595023,9.70619926 L12.7595023,9.8999262 C12.7595023,9.91302583 12.7581198,9.92584871 12.7556313,9.93830258 L12.8861382,10.0125646 L12.8861382,10.0935609 L12.8861382,10.8240959 L13.0796866,10.8240959 C13.1865991,10.8240959 13.273235,10.9108118 13.273235,11.0178229 L13.273235,9.8999262 C13.273235,9.88405904 13.2707465,9.86856089 13.2670599,9.85361624 C13.2660461,9.84946494 13.2645714,9.84559041 13.2633733,9.84162362 C13.259871,9.83046125 13.2553548,9.81976015 13.2499171,9.8095203 C13.2479816,9.80592251 13.2461382,9.80214022 13.2440184,9.79863469 C13.2360922,9.78571956 13.2270599,9.77345018 13.2162765,9.76265683 C13.216,9.76238007 13.2156313,9.76219557 13.2153548,9.76191882 C13.2047558,9.75149446 13.1925899,9.74263838 13.1796866,9.73479705 C13.1503779,9.71699262 13.1164608,9.70619926 13.0796866,9.70619926 L12.7595023,9.70619926 Z" id="Fill-177" fill="#000000" mask="url(#mask-4)"></path>
                            <path d="M7.46860829,10.8241144 L7.66215668,10.8241144 L7.66215668,10.0935793 L7.66215668,10.012583 L7.79275576,9.93822878 C7.79017512,9.92586716 7.78888479,9.91304428 7.78888479,9.8998524 L7.78888479,9.70621771 L7.46860829,9.70621771 C7.43192627,9.70621771 7.39782488,9.71701107 7.36860829,9.7348155 C7.3556129,9.74265683 7.34353917,9.75151292 7.33294009,9.76193727 C7.33257143,9.76221402 7.33229493,9.76239852 7.33201843,9.76267528 C7.32114286,9.77346863 7.31220276,9.78573801 7.3042765,9.79865314 C7.30206452,9.80215867 7.30031336,9.80584871 7.29837788,9.80953875 C7.29294009,9.8197786 7.28842396,9.8304797 7.28492166,9.84164207 C7.28363134,9.84560886 7.28224885,9.84948339 7.28123502,9.85354244 C7.27754839,9.86857934 7.27505991,9.88407749 7.27505991,9.8998524 L7.27505991,11.0178413 C7.27505991,10.910738 7.36169585,10.8241144 7.46860829,10.8241144" id="Fill-178" fill="#000000" mask="url(#mask-4)"></path>
                            <path d="M7.46667281,11.2052967 L7.65828571,11.2052967 L7.65828571,10.8241328 L7.46667281,10.8241328 C7.36082949,10.8241328 7.27505991,10.9093705 7.27505991,11.0146694 C7.27505991,11.120059 7.36082949,11.2052967 7.46667281,11.2052967" id="Fill-179" fill="#000000" mask="url(#mask-4)"></path>
                            <path d="M13.0777235,10.8241144 L12.8861106,10.8241144 L12.8861106,11.2052782 L13.0777235,11.2052782 C13.1835668,11.2052782 13.2694276,11.1200406 13.2694276,11.0147417 C13.2694276,10.909352 13.1835668,10.8241144 13.0777235,10.8241144" id="Fill-180" fill="#000000" mask="url(#mask-4)"></path>
                            <polygon id="Fill-181" fill="#000000" mask="url(#mask-4)" points="12.3723871 9.69929004 12.7556129 9.69929004 12.7556129 9.49123395 12.3723871 9.27437269"></polygon>
                            <polygon id="Fill-182" fill="#000000" mask="url(#mask-4)" points="8.17209217 9.69929004 8.17209217 9.27437269 7.78886636 9.49123395 7.78886636 9.69929004"></polygon>
                            <path d="M8.17209217,9.70619926 L7.78886636,9.70619926 L7.78886636,9.89682657 C7.78886636,9.90971661 7.79014378,9.92233432 7.79269862,9.93458893 L8.19636313,9.70619926 L8.17209217,9.70619926 Z" id="Fill-183" fill="#000000" mask="url(#mask-4)"></path>
                            <path d="M12.7515631,9.93455203 C12.7540267,9.92238819 12.7553954,9.90977048 12.7553954,9.89678967 L12.7553954,9.70616236 L12.3721696,9.70616236 L12.3478986,9.70616236 L12.7515631,9.93455203 Z" id="Fill-184" fill="#000000" mask="url(#mask-4)"></path>
                            <path d="M10.3339447,1.9327952 L10.9334839,4.98104244 C11.0687834,4.99386531 11.2033456,5.00936347 11.3370783,5.0275369 L10.6223318,1.3927583 L10.3339447,1.3927583 L10.0456498,1.3927583 L9.34472811,4.9574262 C9.47670968,4.94893911 9.60942857,4.94248155 9.74279263,4.93916052 L10.3339447,1.9327952 Z" id="Fill-185" fill="#000000" mask="url(#mask-4)"></path>
                            <path d="M11.8279447,7.52353321 L11.4455484,5.57888376 C11.311447,5.55803506 11.1763318,5.54050738 11.0404793,5.52537823 L11.4333825,7.52353321 L11.8279447,7.52353321 Z" id="Fill-186" fill="#000000" mask="url(#mask-4)"></path>
                            <path d="M9.23460829,7.52353321 L9.63764977,5.47371771 C9.50400922,5.47860701 9.37092166,5.48580258 9.23875576,5.49622694 L8.84004608,7.52353321 L9.23460829,7.52353321 Z" id="Fill-187" fill="#000000" mask="url(#mask-4)"></path>
                            <path d="M10.9417594,5.02747934 C11.0758885,5.04147934 11.2091051,5.05867934 11.3415005,5.07847934 L11.3330147,5.03147934 C11.2006194,5.01177934 11.0674028,4.99497934 10.9334562,4.98107934 L10.9417594,5.02747934 Z" id="Fill-188" fill="#000000" mask="url(#mask-4)"></path>
                            <path d="M9.73052535,4.98476052 L9.73873733,4.93916052 C9.60670691,4.94276052 9.47531521,4.94976052 9.34465346,4.95896052 L9.33635023,5.00506052 C9.46710323,4.99576052 9.59840369,4.98846052 9.73052535,4.98476052" id="Fill-189" fill="#000000" mask="url(#mask-4)"></path>
                            <path d="M11.4441513,5.57887454 L11.3445133,5.07094096 C11.2111417,5.05258303 11.0769429,5.03680812 10.9418249,5.02389299 L11.0401761,5.525369 C11.1756618,5.54049815 11.3104121,5.55802583 11.4441513,5.57887454" id="Fill-190" fill="#000000" mask="url(#mask-4)"></path>
                            <path d="M9.63367005,5.47369926 L9.72956774,4.98126384 C9.59744608,4.98458487 9.46614562,4.99131919 9.33530138,4.99989852 L9.23876498,5.49620849 C9.36960922,5.48578413 9.5013659,5.47858856 9.63367005,5.47369926" id="Fill-191" fill="#000000" mask="url(#mask-4)"></path>
                            <path d="M9.23460829,7.52353321 L8.84004608,7.52353321 L8.80935484,7.6773059 C8.79820276,7.73331402 8.81294931,7.79113764 8.8497235,7.83525424 C8.8864977,7.87928007 8.94133641,7.90469705 8.99921659,7.90469705 L11.6687097,7.90469705 C11.7265899,7.90469705 11.7815207,7.87928007 11.8182028,7.83525424 C11.8550691,7.79113764 11.8698157,7.73331402 11.8586636,7.6773059 L11.8279724,7.52353321 L11.433318,7.52353321 L9.23460829,7.52353321 Z" id="Fill-192" fill="#000000" mask="url(#mask-4)"></path>
                            <path d="M10.3320092,0.958846863 C10.3854783,0.958846863 10.434294,0.976282288 10.4744415,1.00534133 L10.5237134,1.00534133 L10.5237134,0.193717712 C10.5237134,0.0867066421 10.4378525,-9.22509225e-06 10.3320092,-9.22509225e-06 C10.2262571,-9.22509225e-06 10.1403963,0.0867066421 10.1403963,0.193717712 L10.1403963,1.00534133 L10.189577,1.00534133 C10.2298157,0.976282288 10.2785401,0.958846863 10.3320092,0.958846863" id="Fill-193" fill="#000000" mask="url(#mask-4)"></path>
                            <path d="M10.332506,0.958846863 C10.2790369,0.958846863 10.2303124,0.977746863 10.1900737,1.00924686 L10.4749382,1.00924686 C10.4347908,0.977746863 10.3859751,0.958846863 10.332506,0.958846863" id="Fill-194" fill="#000000" mask="url(#mask-4)"></path>
                            <path d="M10.1404332,1.05139188 L10.1404332,1.005369 L9.73324424,1.005369 C9.6263318,1.005369 9.53960369,1.09060664 9.53960369,1.19590554 C9.53960369,1.30120443 9.6263318,1.38653284 9.73324424,1.38653284 L10.0456866,1.38653284 L10.0902949,1.16304502 C10.0973917,1.12065314 10.1152719,1.0828 10.1404332,1.05139188" id="Fill-195" fill="#000000" mask="url(#mask-4)"></path>
                            <path d="M10.5775853,1.16303579 L10.6222857,1.38652362 L10.9347281,1.38652362 C11.0416406,1.38652362 11.1283687,1.3011952 11.1283687,1.19589631 C11.1283687,1.09059742 11.0416406,1.00535978 10.9347281,1.00535978 L10.5275392,1.00535978 L10.5275392,1.05138266 C10.5527005,1.08279077 10.5705806,1.12064391 10.5775853,1.16303579" id="Fill-196" fill="#000000" mask="url(#mask-4)"></path>
                            <path d="M10.525612,1.05214022 L10.525612,1.19665387 C10.525612,1.30195277 10.4398424,1.38728118 10.3339078,1.38728118 L10.6194111,1.38728118 L10.5751576,1.16379336 C10.568223,1.12140148 10.5505217,1.08354834 10.525612,1.05214022" id="Fill-197" fill="#000000" mask="url(#mask-4)"></path>
                            <path d="M10.1394857,1.19667232 L10.1394857,1.05215867 C10.114576,1.08356679 10.0968747,1.12141993 10.0898488,1.16381181 L10.0456866,1.38729963 L10.3310986,1.38729963 C10.2252553,1.38729963 10.1394857,1.30197122 10.1394857,1.19667232" id="Fill-198" fill="#000000" mask="url(#mask-4)"></path>
                            <path d="M10.1943332,1.0053321 L10.1404332,1.0053321 L10.1404332,1.0560321 C10.1558332,1.0365321 10.1741332,1.0197321 10.1943332,1.0053321" id="Fill-199" fill="#000000" mask="url(#mask-4)"></path>
                            <path d="M10.5317788,1.056069 L10.5317788,1.005369 L10.4777788,1.005369 C10.4979788,1.019769 10.5163788,1.036469 10.5317788,1.056069" id="Fill-200" fill="#000000" mask="url(#mask-4)"></path>
                            <path d="M10.2796175,1.19592251 L10.2806175,1.19592251 L10.2796175,1.19592251 Z M10.5236959,1.19592251 L10.5236959,1.05140886 C10.5096442,1.03361697 10.4928553,1.01836679 10.474424,1.0052952 L10.1896507,1.0052952 C10.1712194,1.01836679 10.1545217,1.03361697 10.14047,1.05140886 L10.14047,1.19592251 C10.14047,1.3012214 10.2262396,1.38654982 10.3319917,1.38654982 C10.437835,1.38654982 10.5236959,1.3012214 10.5236959,1.19592251 Z" id="Fill-201" fill="#000000" mask="url(#mask-4)"></path>
                            <path d="M10.1879539,23.1133026 L10.095235,23.1133026 C9.20905991,23.1133026 8.63809217,23.6539852 8.3258341,24.2544465 C8.46196313,24.2787085 8.59929032,24.2997417 8.737447,24.3180996 C8.75910599,24.2817528 8.78048848,24.2452214 8.80454378,24.2098893 C9.02445161,23.8863653 9.42684793,23.5006642 10.095235,23.5006642 L10.1879539,23.5006642 C10.7793825,23.5006642 11.2456498,23.7398708 11.5739447,24.2116421 C11.5852811,24.2279705 11.5949585,24.2453137 11.6057419,24.2620111 C11.7421475,24.2383948 11.877447,24.2116421 12.0118249,24.182214 C11.975235,24.1173616 11.9353272,24.053155 11.8915484,23.9902399 C11.6132074,23.5901476 11.0916406,23.1133026 10.1879539,23.1133026" id="Fill-202" fill="#000000" mask="url(#mask-4)"></path>
                            <path d="M11.8441843,24.7549528 C11.9711963,24.731079 12.0974783,24.7053897 12.2227567,24.6767048 C12.2132673,24.6468399 12.2029567,24.6167026 12.1920074,24.5863838 C12.0663641,24.6147963 11.9397171,24.6404856 11.8122488,24.6640871 C11.8241106,24.6944967 11.8337825,24.7247247 11.8441843,24.7549528" id="Fill-203" fill="#000000" mask="url(#mask-4)"></path>
                            <path d="M8.15326083,24.663238 C8.14313272,24.6938292 8.13355207,24.7243295 8.12479263,24.7547391 C8.25162212,24.7786129 8.37927281,24.8003989 8.50783594,24.8194616 C8.51741659,24.7891428 8.52900461,24.7580978 8.54013641,24.7273251 C8.41029585,24.7085347 8.28136774,24.6871118 8.15326083,24.663238" id="Fill-204" fill="#000000" mask="url(#mask-4)"></path>
                            <path d="M8.73741935,24.3170458 C8.59926267,24.2989815 8.46202765,24.2783756 8.32580645,24.2545018 C8.25548387,24.3873963 8.19815668,24.5231956 8.15354839,24.6567255 C8.28294931,24.6805085 8.41317972,24.7019314 8.5443318,24.7208125 C8.59345622,24.5862841 8.65751152,24.4493048 8.73741935,24.3170458" id="Fill-205" fill="#000000" mask="url(#mask-4)"></path>
                            <path d="M11.8122857,24.6576207 C11.9409493,24.6340192 12.0688756,24.6083299 12.195788,24.5799173 C12.1479539,24.4484753 12.0874009,24.3140376 12.0118249,24.1822325 C11.877447,24.2111897 11.7421475,24.2375144 11.6057419,24.2607528 C11.6897972,24.3878376 11.7593825,24.5228199 11.8122857,24.6576207" id="Fill-206" fill="#000000" mask="url(#mask-4)"></path>
                        </g>
                    </g>
                </g>
            </g>
        </g>
    </g>
</svg>