<svg height="26" viewBox="0 0 24 26" width="24" xmlns="http://www.w3.org/2000/svg" xmlns:xlink="http://www.w3.org/1999/xlink"><mask id="a" fill="#fff"><path d="m.08345205.04305643h6.73254795v11.11289627h-6.73254795z" fill="none"/></mask><mask id="b" fill="#fff"><path d="m.08792329.00931037h18.02630141v5.06122905h-18.02630141z" fill="none"/></mask><g fill="none" fill-rule="evenodd" transform=""><path d="m11.5 26c6.3512746 0 11.5-5.1487254 11.5-11.5 0-4.4427094-2.5192645-8.29701315-6.20716-10.21227756-.2924888-.15190058.5136768-3.16088938.20716-3.28772244-1.3537682-.56017349-3.5 1-5 1-1.0052786 0-3.77472497-1.60179512-5-1-.60298684.29615762.23356429 2.8044914-.24341136 3.02073534-3.98482834 1.80658074-6.75658864 5.81923305-6.75658864 10.47926466 0 6.3512746 5.14872538 11.5 11.5 11.5z" fill="#fff" fill-rule="nonzero"/><path d="m6.81112329 10.6400523c0 .1729377-.00460274.3447967-.01216439.5159004.0110685-.2064896.01709589-.4144896.01709589-.6237842 0-4.62875522-2.75178082-8.62434028-6.73260274-10.48911207.00142466.02125311.00263014.04272199.0040548.06397511 3.97523288 1.89239004 6.72361644 5.9026473 6.72361644 10.53302076" fill="#916af9" mask="url(#a)" transform="translate(16.986301 3.563618)"/><path d="m14.8780164 20.7437602h-3.7181369c.3425753.3399419.6136986.7537842.7842191 1.2175767.3758904-.1363651.7764384-.2075684 1.184-.2075684.6170959 0 1.2156713.1641991 1.7351233.4647635.0770411-.1072366.1604384-.2120996.2452603-.3121079l.0002192-.9616764c-.0143562-.1134938-.1115617-.2009875-.230685-.2009875" fill="#5cd8ff"/><path d="m3.55427945 20.3631137c.29457534.0304232.58279452.0929958.85928767.1872863v-5.5028299c-.27145205.5458921-.55824657 1.0695602-.85928767 1.5701411z" fill="#5cd8ff"/><path d="m1.00290411 14.2036705c0 1.456.28756164 2.8469461.80876712 4.1214855 2.67879452-3.372556 4.46093151-8.2985311 4.98728767-13.80297924-3.45380822 1.89195851-5.79605479 5.52224894-5.79605479 9.68149374" fill="#5cd8ff"/><path d="m5.41461918 12.7490838c-.16679452.4402739-.34334247.8699751-.52789041 1.2884564v6.7105893c.31035616.153195.59912328.3482489.85939726.5779336l-.00032877-9.5012199c-.10619178.3117842-.21621918.6203319-.33117808.9242406" fill="#5cd8ff"/><path d="m6.21866301 20.8186207c.22060274-.2327053.47178083-.4340166.74783562-.5975684v-13.32149379c-.19167123 1.16190871-.44186301 2.29652282-.74783562 3.39251449z" fill="#5cd8ff"/><path d="m14.8780164 12.4200598h-5.46717804c-.12898631 0-.23331507.1029211-.23331507.2296846 0 .0014025-.00065754.0026971-.00065754.004639v5.0388216c0 .0014025.00065754.0033444.00065754.0052863 0 .1261162.10465753.2288216.23331507.2288216h5.46717804c.1191233 0 .2163288-.0883569.230685-.2003403v-5.1063568c-.0143562-.1125229-.1115617-.200556-.230685-.200556" fill="#5cd8ff"/><path d="m14.3880767 7.73743817c-.3807123 0-.7546301.13507054-1.0807671.39129461-.0433973.03376763-.0951233.05070539-.1476164.05070539-.0523836 0-.1042192-.0166141-.1472877-.05070539-.3267945-.25654772-.7007123-.39129461-1.0814247-.39129461-.1305205 0-.2363835-.1046473-.2363835-.23335269 0-.12848963.105863-.23238175.2363835-.23238175.4317808 0 .8530411.13237345 1.2283836.3860083.3763288-.25363485.7972603-.3860083 1.2287123-.3860083.1308493 0 .2367123.10421577.2363836.23238175 0 .12870539-.1055343.23335269-.2363836.23335269m-3.631452-2.21701244c-.1307398.0012946-.2376987-.10227386-.2390137-.23065561-.0013151-.12816597.1035616-.23378423.2339726-.23507883.3595616-.00366805.7110137.10054771 1.0269589.30358506.3121096-.20897096.6612602-.31987552 1.0202739-.32375934.1305206-.00140249.2374795.10195021.2387946.2306556.001315.12848963-.1032329.23410789-.2340822.23507884-.308274.00323652-.609863.11619087-.872548.32645643-.0433972.03441494-.0952329.05156847-.147726.052-.051726.00086307-.1038904-.0153195-.1471781-.04908713-.267726-.20551868-.5713972-.31221577-.879452-.30919502m4.1214246-1.40033195h-5.46717807c-.12909589 0-.23331507.10302904-.23331507.22946888 0 .0019419-.00076712.00302074-.00076712.00496265v5.0146556c0 .00161826.00076712.00323652.00076712.00431536 0 .12741078.10454795.23000829.23331507.23000829h5.46717807c.1191233 0 .2162192-.08803319.2306849-.20087966v-5.08154357c-.0144657-.11284648-.1115616-.20098755-.2306849-.20098755" fill="#5cd8ff"/><path d="m22.0561973 18.5589079c-.2969863-.3794274-.5837809-.7776266-.8599452-1.1940581v3.5392365c.3150684-.406722.6021917-.8354523.8585205-1.2833859v-1.0584481c.0007671-.0017262.0014247-.0020498.0014247-.0033444" fill="#5cd8ff"/><path d="m20.7235836 16.6153593c-.3013699-.5005809-.5884932-1.0248962-.8592877-1.5698174v5.4406888c.2969863.0833942.5841096.1969959.8592877.338z" fill="#5cd8ff"/><path d="m18.0588822 10.290088c-.3012603-1.08250626-.5484932-2.20266393-.7393973-3.35011622v13.55214942c.2403288-.0691536.4878904-.1184565.7393973-.1482324z" fill="#5cd8ff"/><path d="m19.3914959 20.3783361v-6.3410871c-.2776986-.6276681-.5353425-1.2795021-.7709589-1.9532366-.0296986-.0860912-.0591781-.1721825-.0888767-.2581659v8.485278c.0238904-.0006473.0488767-.0006473.0729863-.0006473.265315 0 .5276712.0230871.7868493.0678589" fill="#5cd8ff"/><path d="m21.2269041 11.5748979c-.0521644 0-.1038904-.0161825-.1472877-.0507054-.3264657-.256224-.7000548-.3916182-1.0810959-.3916182-.1310684 0-.2363835-.1038921-.2363835-.2327054 0-.1287054.1053151-.2327054.2363835-.2327054.4311233 0 .8531507.1323734 1.2283836.3860083.3750137-.2536349.7967123-.3860083 1.2281644-.3860083.1307397 0 .236274.104.236274.2327054 0 .1288133-.105863.2327054-.2356165.2327054-.3813698 0-.7546301.1358257-1.0814246.3916182-.0431781.0341992-.0955617.0507054-.1473973.0507054m2.2691507 2.628805c0-4.25472199-2.4507397-7.95578423-6.0351781-9.80890456.5149589 5.64696266 2.3465206 10.68351866 5.1514521 14.11098756.5689863-1.3233029.883726-2.7772531.883726-4.302083" fill="#5cd8ff"/><path d="m3.08113973 17.3668025c-.27572603.4170788-.56252055.8147386-.85917809 1.1927635v.6540996c.20372603.3934522.43068494.7733112.67890411 1.1380664.05994521-.003776.12-.0070125.18027398-.0081992z" fill="#5cd8ff"/><g fill="#000"><path d="m22.7355726 19.0342116c.6132603-1.3252448.9818082-2.7821079 1.0496438-4.3145975-.081863 1.5220249-.4619178 2.9659419-1.0829589 4.2769461.0111781.0126224.022137.0251369.0333151.0376514"/><path d="m9.92649863 4.88080415c-3.96120548 0-7.4659726-1.92259751-9.60471233-4.87149378-.07846575.00949378-.15638356.02157677-.23386301.03646473 2.14761644 3.0346639 5.71726027 5.02479668 9.75057534 5.02479668 3.18619177 0 6.08306847-1.24185062 8.21830137-3.259278.0179726-.06224897.0369315-.12417428.0574247-.18512863-2.1213151 2.01483817-5.0072329 3.254639-8.18772607 3.254639" mask="url(#b)" transform="translate(2.082192 20.825029)"/><path d="m.21512329 14.0957867c0-4.46531118 2.56109589-8.34114521 6.31572603-10.28337757.00065753-.00884647.00131506-.01780083.00186301-.0266473-3.84810959 1.9366224-6.48876712 5.87934439-6.48876712 10.41790867 0 1.6569876.35276712 3.2341411.9869589 4.6637096.04931507-.0567469.09906849-.1123071.14772603-.1700249-.61950685-1.4110125-.96350685-2.9666971-.96350685-4.6015685"/><path d="m1.24873425 19.330044c.05488128.1109079.11171872.2206336.16996895.3294996l-.00010868-.4472855c-.00804201-.0163353-.01641005-.0324556-.02445205-.0487909-.04814338.0560988-.09672147.1114452-.14540822.1665768"/><path d="m22.1996055 19.941795v.0495187c.0176055-.0103569.036189-.0193112.0540119-.0294523.0892228-.1558921.1750767-.3139419.2572356-.4741494-.0121717-.0134854-.0244521-.0264315-.0367325-.0400249-.087484.1671121-.1790977.3318507-.274515.4941079"/><path d="m1.89320548 20.4519701c.0709653-.0173025.14247397-.0323481.21441735-.0455668-.07335616-.1117676-.14486484-.2248249-.21441735-.3391718z"/><path d="m1.39535342 19.1633947c.00797202.016375.01626723.0325345.02434698.0489094v-.0770269c-.00807975.0094802-.01626723.0186373-.02434698.0281175"/><path d="m1.89320548 19.2136871v.8535768c.07013699.1147884.14224657.2281743.21621918.3403734.15232876-.027834.3069589-.0460663.46268493-.0558838-.24821918-.3647552-.47528767-.7446141-.67890411-1.1380664"/><path d="m.67413699 14.2036705c0-4.1592448 2.34224657-7.78953523 5.79605479-9.68149374.02257534-.23551037.04273973-.47220747.06060274-.70976763-3.75452055 1.94223236-6.31561644 5.81806639-6.31561644 10.28337757 0 1.6348714.34389041 3.190556.96350685 4.6015685.10268493-.1218008.20394521-.2459751.30421918-.3721992-.52120548-1.2745394-.80876712-2.6654855-.80876712-4.1214855"/><path d="m20.8675288 21.1039734c.011726.0083071.024.0161826.035726.0244897.2370411-.3072531.513863-.5819253.8227945-.8186224v-.6891619c-.2563288.4479336-.543452.8766639-.8585205 1.2833859z"/><path d="m20.460526 21.3997585c-2.0642192 2.370639-5.1266849 3.8755104-8.5398356 3.8755104-3.68854793 0-6.96799999-1.7573195-9.02005478-4.4660664-.02772603-.0006473-.05523288-.0025892-.08295891-.0025892-.1389589 0-.27682192.0110041-.41369863.0277261 2.13873973 2.9488963 5.64350685 4.8714938 9.60471232 4.8714938 3.1804932 0 6.066411-1.2398008 8.187726-3.254639.1113425-.3326058.2596165-.647195.4401096-.9393444-.0572055-.0397013-.1168219-.0755187-.176-.1120913"/><path d="m17.073863 3.67067137c.0170959.24241494.036274.48385892.0581918.72411618 3.5844384 1.85312033 6.0352877 5.55418257 6.0352877 9.80890455 0 1.5249378-.3148493 2.9787801-.8838357 4.302083.1372055.1675436.2769316.3309876.4187398.4908714.6210411-1.3111121 1.0010959-2.7550291 1.0829589-4.277054.0076712-.1711037.012274-.3429626.012274-.5159004 0-4.63037343-2.7484932-8.64063069-6.7236165-10.53302073"/><path d="m22.1996055 19.1345651v.8071868c.0954173-.1621494.187031-.326888.274515-.494-.0920484-.1028133-.1835534-.207137-.274515-.3131868"/><path d="m9.90339726 2.3225444c0-.1287054-.10541552-.23302905-.23473973-.23302905-.1297589 0-.23473972.10432365-.23473972.23302905v.44146058c.15540639-.03441494.31179087-.06624066.46947945-.09439834z"/><path d="m7.11089315 1.06428465h.31879452c.13084932 0 .23671233-.10389212.23671233-.2327054v-.36615767h.15342466v.36615767c0 .12881328.10520548.2327054.23638356.2327054h.3190137v1.97966805c.1169315-.0360332.23463013-.0700166.3529863-.10259751.04-.01143569.08021918-.02254772.12054794-.03355187v-1.13871369h5.93117804v1.03978423c.1602192.0379751.3193425.0786473.4769316.12298755v-1.39515353c0-.00992531-.0014247-.01920332-.0027398-.02848132v-.44394191h.3187945c.130411 0 .2363836-.10389212.2363836-.2327054v-.36615767h.1530959v.36615767c0 .12881328.1048767.2327054.2363836.2327054h.3170411c-.0019726.0126224-.0040548.02481328-.0040548.03743568 0 .20648963.0020822.41308714.0061369.61903735v1.64458091c.186411.07595021.370411.15632365.5518905.2413361-.0427398-.61957676-.0707946-1.24541079-.0814247-1.87707054v-.8980249c0-.12913693-.1053151-.23270539-.2368219-.23270539h-.3184658v-.36615768c0-.12881327-.105315-.23270539-.2363835-.23270539h-.6255343c-.1310685 0-.2370411.10389212-.2370411.23270539v.36615768h-.3183561c-.1309589 0-.2371507.10356846-.2371507.23270539v.47166805h-5.93183564v-.47166805c0-.12913693-.10531507-.23270539-.23638356-.23270539h-.31890411v-.36615768c0-.12881327-.10553425-.23270539-.23638356-.23270539h-.62652055c-.13073973 0-.23638356.10389212-.23638356.23270539v.36615768h-.31868493c-.13084932 0-.23682192.10356846-.23682192.23270539v.24457262c-.00065753.00830705-.00273973.01661411-.00273973.02524481 0 .90590042-.03539726 1.80155187-.10115068 2.68436515.18969863-.09547718.38268493-.18566805.57808219-.27121992z"/><path d="m10.7615945 2.3225444c0-.1287054-.1047634-.23302905-.2344137-.23302905-.1297589 0-.2344137.10432365-.2344137.23302905v.28589211c.1552977-.02243983.3115735-.04218257.4688274-.05858091z"/><path d="m11.6201123 2.32164813c0-.12821037-.1050895-.23213278-.2344137-.23213278-.1300849 0-.2347397.10392241-.2347397.23213278v.19312158c.1555151-.0110693.3120082-.01880705.4691534-.02385809z"/><path d="m14.1945973 2.3225444c0-.1287054-.1046548-.23302905-.2344137-.23302905s-.2350658.10432365-.2350658.23302905v.28589211c.1575799.02287137.3139644.04887137.4694795.07789212z"/><path d="m13.3363973 2.32164813c0-.12821037-.1046548-.23213278-.2344137-.23213278-.1294329 0-.2347398.10392241-.2347398.23213278v.19322905c.1573626.01117676.3136384.02579253.4691535.04309502z"/><path d="m12.4778877 2.32164813c0-.12821037-.1043288-.23213278-.2343051-.23213278-.1295415 0-.2348484.10392241-.2348484.23213278v.16249295c.1572539 0 .3134211.00397635.4691535.01010207z"/><path d="m12.4778877 2.52508312v-.02930256c-.1557324-.00614061-.3118996-.01012662-.4691535-.01012662v.02714796c.1571453.0010773.3135297.00506331.4691535.01228122"/><path d="m12.2435817 3.32851909c.1128055 0 .206158-.07812988.2288713-.18291204-.1524722-.00741535-.3059224-.01117676-.459916-.01235892.0180402.11058548.114653.19527096.2310447.19527096"/><path d="m11.3857553 3.32852988c.115631 0 .2112657-.08296598.2303926-.19247677-.1527981.00408382-.3046182.01171411-.4557863.02181618.0272777.09822656.1170439.17066059.2253937.17066059"/><path d="m10.5275963 3.32904171c.0950914 0 .1762722-.05600465.2131133-.13645748-.1325845.01367806-.2642996.03026405-.3954712.04857326.0430356.05320442.1081324.08788422.1823579.08788422"/><path d="m22.3625973 10.8998905c0-.1287054-.1055343-.2327054-.236274-.2327054-.4315617 0-.8531507.1323734-1.2281644.3860083-.3752329-.2536349-.7973699-.3860083-1.2283836-.3860083-.131178 0-.2363835.104-.2363835.2327054 0 .1288132.1052055.2327054.2363835.2327054.3809315 0 .7545206.1353941 1.0810959.3916182.0432877.0344149.0951233.0507054.1472877.0507054.051726 0 .1042192-.0165062.1472877-.0507054.3269041-.2557925.7001644-.3916182 1.0815342-.3916182.1297534 0 .2356165-.1038922.2356165-.2327054"/><path d="m14.1945973 2.72820006v-.0420147c-.1555151-.02897937-.3118996-.0549423-.4694795-.07767333v.03792096c.1575799.02380833.3139644.0517104.4694795.08176707"/><path d="m11.6201123 2.51541869v-.02294649c-.1571452.00495558-.3136383.01281987-.4691534.02391606v.02057643c.1556237-.01001889.3118995-.01766772.4691534-.021546"/><path d="m13.3363973 2.59546402v-.03576636c-.1555151-.01734453-.3117909-.03199581-.4691535-.04319973v.032319c.1573626.01238895.3136384.02822526.4691535.04664709"/><path d="m13.1020804 3.32951369c.0854191 0 .1593187-.04559701.2002895-.11334423-.1394311-.01717992-.2798402-.03133444-.4209014-.04332797.0320594.09108598.1182393.1566722.2206119.1566722"/><path d="m13.9610986 3.32922227c.0163014 0 .0322767-.00172368.0476-.00474012-.0568374-.010773-.1138922-.02100735-.1711644-.03081078.0360804.02219238.0782466.0355509.1235644.0355509"/><path d="m12.2435498 10.391078c-.1294329 0-.2348484.1038921-.2348484.2327054v.7736349c0 .1288132.1054155.2327054.2348484.2327054.1299762 0 .234305-.1038922.234305-.2327054v-.7736349c.0004347-.1283817-.1043288-.2327054-.234305-.2327054"/><path d="m9.66863562 10.391078c-.12965023 0-.23473973.1038921-.23473973.2327054v.7736349c0 .1288132.1050895.2327054.23473973.2327054.1293242 0 .23473972-.1038922.23473972-.2327054v-.7736349c0-.1283817-.10541552-.2327054-.23473972-.2327054"/><path d="m13.1019616 10.391078c-.1293242 0-.2347397.1038921-.2347397.2327054v.7736349c0 .1288132.1050895.2327054.2347397.2327054.1297589 0 .2344137-.1038922.2344137-.2327054v-.7736349c0-.1283817-.1049808-.2327054-.2344137-.2327054"/><path d="m11.3856767 10.391078c-.1300849 0-.2347397.1038921-.2347397.2327054v.7736349c0 .1288132.1046548.2327054.2347397.2327054.1293242 0 .2344137-.1038922.2344137-.2327054v-.7736349c0-.1283817-.1054155-.2327054-.2344137-.2327054"/><path d="m10.7615945 2.56715698v-.01734453c-.1572539.01637496-.3135297.03608955-.4688274.05849739v.01368171c.1552977-.02122281.3115735-.03964464.4688274-.05483457"/><path d="m10.5271589 10.391078c-.1296502 0-.2344137.1038921-.2344137.2327054v.7736349c0 .1288132.1047635.2327054.2344137.2327054s.2344137-.1038922.2344137-.2327054v-.7736349c0-.1283817-.1047635-.2327054-.2344137-.2327054"/><path d="m13.9601616 10.391078c-.1296502 0-.2350657.1038921-.2350657.2327054v.7736349c0 .1288132.1054155.2327054.2350657.2327054.1297589 0 .2344137-.1038922.2344137-.2327054v-.7736349c0-.1283817-.1046548-.2327054-.2344137-.2327054"/><path d="m11.6022247 5.82666473c.2625753-.21026556.5641643-.32311203.8725479-.32634855.1308493-.00107884.2353973-.10669709.2340822-.23507884-.0013151-.12881327-.108274-.23205809-.2387945-.23076348-.3590137.0039917-.7081644.11489626-1.020274.32375934-.3159452-.20292947-.6673973-.30714523-1.0269589-.30358507-.130411.00129461-.2352877.10691287-.2339726.23507884.0013151.12838174.108274.23205809.2390137.23076349.3080548-.00302075.611726.10356846.879452.30919502.0432877.03376763.0954521.0499502.1471781.04897925.0524932-.00032365.1043288-.01758506.1477261-.052"/><path d="m8.8467532 2.90784647c-.03964464.01098846-.07918155.02208465-.11861073.03350403.03942918-.01109619.07896609-.02165373.11861073-.03221127z"/><path d="m15.2528913 2.98222888v-.05024315c-.1562758-.04430042-.314073-.08503519-.4729571-.12306872v.04624531c.1588841.03922208.3166813.0815776.4729571.12706656"/><path d="m14.0593096 7.27166058c-.4314521 0-.8523836.13248133-1.2287123.3860083-.3753425-.25352697-.7966028-.3860083-1.2283836-.3860083-.1305205 0-.2363836.10389212-.2363836.23238174 0 .12881328.1058631.2333527.2363836.2333527.3807123 0 .7546301.13474689 1.0814247.39129461.0430684.03409128.0949041.05070539.1472876.05070539.0524932 0 .1042192-.01693776.1476165-.05070539.326137-.25622407.7000548-.39129461 1.0807671-.39129461.1308493 0 .2363836-.10453942.2363836-.2333527.0003287-.12805809-.1055343-.23238174-.2363836-.23238174"/><path d="m16.9907068 6.93995021c.1909042 1.14745228.438137 2.26771784.7393973 3.35011619v10.0538008c-.2515068.0298838-.4990685.0791867-.7393973.1483403zm1.212274 4.88584229c.0295891.0860913.0591781.1721826.0887671.2582739.2356165.6736265.4932603 1.3254606.7709589 1.9531286v6.3410872c-.259178-.0446639-.5215342-.067859-.7867397-.067859-.0242192 0-.0492055 0-.0729863.0006473zm1.3326028 3.2197926c.2706849.5449211.5578082 1.0692365.859178 1.5698174v4.2088714c-.2750684-.1411121-.5621917-.2546059-.859178-.3381079zm-4.7556165-5.64297099c-.0144657.11284647-.1115616.20087967-.2306849.20087967h-5.46717809c-.12876712 0-.23331507-.10259751-.23331507-.2300083 0-.00107884-.00076712-.0026971-.00076712-.00431536v-5.0146556c0-.00194191.00076712-.00302074.00076712-.00496265 0-.12643984.10421918-.22946888.23331507-.22946888h5.46717809c.1191233 0 .2162192.08814108.2306849.20098755zm0 2.58975099c-.0715616-.0245975-.1499178-.0380829-.2306849-.0380829h-5.46717809c-.08164384 0-.16.013917-.23331507.0390539v-1.9630539c.07287671.0248132.15167123.0386224.23331507.0386224h5.46717809c.0810959 0 .1591233-.0131619.2306849-.0379751zm0 5.7346722c-.0144657.1118756-.1115616.2002324-.2306849.2002324h-5.46717809c-.12876712 0-.23331507-.1025975-.23331507-.2287137 0-.0020498-.00076712-.0039917-.00076712-.0052863v-5.0388216c0-.0020498.00076712-.0033444.00076712-.004639 0-.1268713.10421918-.2297925.23331507-.2297925h5.46717809c.1191233 0 .2162192.0880332.2306849.2006639zm0 2.5880249c-.0715616-.0244896-.1499178-.0379751-.2306849-.0379751h-4.3022466c-.41775341-.2651784-.89413697-.4429709-1.39824656-.5101825v-1.4139253c.07287671.0257842.15167123.0393775.23331507.0393775h5.46717809c.0810959 0 .1591233-.0135933.2306849-.0387302zm-.0003287 1.5913942c-.0847124.0999004-.1681096.2048714-.2451507.3121079-.5194521-.3005643-1.1180274-.4647635-1.7351233-.4647635-.4076712 0-.8081096.0712033-1.1841096.2075685-.170411-.4637925-.4415343-.8776349-.7841096-1.2175768h3.718137c.1191233 0 .2162192.0873859.2306849.2008797zm-8.14191785-1.685361c-.2760548.1635519-.52723288.3647552-.74783562.5975685v-10.5265477c.3059726-1.0960996.55616439-2.23060583.74783562-3.39262242zm-2.07978082.5270125v-6.7105892c.18454794-.4184814.36109589-.8481826.52789041-1.2884565.1149589-.3039087.2249863-.6124564.33128767-.9242406l.00032877 9.5013278c-.26027398-.2297926-.54915069-.4247386-.85950685-.5780415zm-.47320548-.1976432c-.27638357-.0943983-.56460274-.156863-.85917809-.1873942v-3.7454025c.3010411-.5005809.58783562-1.0242489.85917809-1.570141zm12.43375345.1065892c-.4603836.1890125-.8884384.4508465-1.2644384.7759005v-.4305644c.0014247-.0089543.0028493-.0193112.0028493-.0285892v-3.2758921c0-.0102489-.0014246-.0199585-.0028493-.0291286 0 0 .0028493-5.0093693.0028493-5.018971v-9.0204896c-.157589-.04822406-.3166027-.0926722-.4769315-.13420747v.19731951c-.0715616-.02448963-.1499178-.03808299-.2306849-.03808299h-5.46717809c-.08164384 0-.16.01359336-.23331507.03905394v-.14154357c-.15934246.0446639-.31704109.09310374-.47353425.14445643v16.04135265c-.43945205.0026971-.86783561.0911619-1.26432876.2496432v-15.79019917c-.21764384.10173444-.43112329.21026556-.64076713.32505395-.52635616 5.50444812-2.30838356 10.43042322-4.98728767 13.80297922.12394521.3029378.26071233.5994025.41030137.8885311v-.6540995c.29665754-.3780249.58356165-.7756847.85917808-1.1927635v2.9767303c-.06027397.0010788-.12021917.0044232-.18016438.0081991.10575343.1552449.21512329.3077926.32843836.4574274 1.08778082.0261079 2.10115068.5626141 2.72284931 1.4471536.04580822.0665643.1190137.1013029.19441096.1013029.04613699 0 .09347945-.0135934.13413699-.0414274.10805479-.0731453.13490411-.2181411.06027397-.324083-.06520548-.0936432-.13490411-.1830789-.20778082-.2691701.51210959-.9274772 1.51419178-1.5197594 2.59189041-1.5197594 1.25063014 0 2.37742462.7958589 2.78575342 1.949137-.2051507.108639-.3991233.2387468-.5790685.3866556-.0275068-.0012947-.0547945-.001942-.0824109-.001942-.4761644 0-.93578087.1694855-1.29402745.4780332-.09775342.0847967-.10783561.2314108-.02147945.3283984.08536987.0963402.23539726.1065892.33326028.0217925.272-.234.62038352-.3634606.98224662-.3634606.4364931 0 .849863.1877179 1.1336986.5140664.0465753.0537262.1133151.0814523.1798356.0814523.0544658 0 .1089315-.0181245.1537534-.0555602.0991781-.0833942.1109041-.2307634.0261918-.3283983-.2155616-.2475934-.4866849-.433693-.7876164-.5481577.4681643-.2904232 1.0119452-.4469626 1.571726-.4469626.8625753 0 1.6804383.370473 2.2413151 1.0163734.0467945.0542656.1130959.0810208.1799452.0810208.0544657 0 .1089315-.0181245.1536438-.0555602.0992877-.0835021.1110137-.2304398.0261918-.3280747-.1453151-.1668963-.3053151-.3162075-.4760548-.4499834.7696438-1.0684813 2.0222466-1.7060747 3.3515616-1.7060747.7766576 0 1.5343562.2206224 2.1856439.6237842.1403835-.1611784.2761644-.3266722.4070137-.4956182v-3.5393444c.2761644.4165394.5629589.8147386.8599452 1.194166 0 .0012946-.0006576.0016182-.0014247.0032365v1.058556c.2060274-.3599004.3927671-.7317759.5574795-1.1149793-2.8049315-3.427361-4.6364932-8.4640249-5.1514521-14.11087963-.2013151-.10410788-.4059178-.20271369-.614137-.29484647z"/><path d="m9.90339726 2.669639c-.15768858.02811753-.31407306.05989788-.46947945.09426375v.00635607c.15529772-.03296538.31189954-.06291432.46947945-.08963136z"/><path d="m12.2435498 18.6923386c-.1294329 0-.2348484.1042158-.2348484.2333527v.7733112c0 .1291369.1054155.2327054.2348484.2327054.1299762 0 .234305-.1035685.234305-.2327054v-.7733112c.0004347-.1291369-.1043288-.2333527-.234305-.2333527"/><path d="m13.1019616 18.6923386c-.1293242 0-.2347397.1042158-.2347397.2333527v.7733112c0 .1291369.1050895.2327054.2347397.2327054.1297589 0 .2344137-.1035685.2344137-.2327054v-.7733112c0-.1291369-.1049808-.2333527-.2344137-.2333527"/><path d="m10.5271589 18.6923386c-.1296502 0-.2344137.1042158-.2344137.2333527v.7733112c0 .1291369.1047635.2327054.2344137.2327054s.2344137-.1035685.2344137-.2327054v-.7733112c0-.1291369-.1047635-.2333527-.2344137-.2333527"/><path d="m11.3856767 18.6923386c-.1300849 0-.2347397.1042158-.2347397.2333527v.7733112c0 .1291369.1046548.2327054.2347397.2327054.1293242 0 .2344137-.1035685.2344137-.2327054v-.7733112c0-.1291369-.1054155-.2333527-.2344137-.2333527"/><path d="m9.66863562 18.6923386c-.12965023 0-.23473973.1042158-.23473973.2333527v.7733112c0 .1291369.1050895.2327054.23473973.2327054.1293242 0 .23473972-.1035685.23473972-.2327054v-.7733112c0-.1291369-.10541552-.2333527-.23473972-.2333527"/><path d="m16.5178849 3.42317842c.1878356.07759253.3731507.15969876.5559452.24631868-.0014246-.02117137-.0026301-.04255768-.0040548-.06372905-.1814794-.08468548-.3654794-.16474979-.5518904-.24040788z"/><path d="m13.9601616 18.6923386c-.1296502 0-.2350657.1042158-.2350657.2333527v.7733112c0 .1291369.1054155.2327054.2350657.2327054.1297589 0 .2344137-.1035685.2344137-.2327054v-.7733112c0-.1291369-.1046548-.2333527-.2344137-.2333527"/><path d="m1.39231689 19.1634349c-.0749863-.1534108-.14660365-.3088714-.21496073-.4660581-.04825205.0577178-.09759086.113278-.1463863.169917.06879178.1563236.14062649.3108133.21593882.463361.04868675-.0552365.09726484-.1109046.14540821-.1672199"/><path d="m22.2540822 19.9618183c-.0179726.010141-.0367123.0190954-.0544658.0294522v-.0495186c-.5492602.925751-1.2245479 1.7697261-2.003178 2.5093776-.0204932.0610622-.0395617.1228796-.0574247.1852365.8292603-.7835602 1.5433425-1.6841743 2.1150685-2.6745477"/><path d="m2.10939178 20.4076805c-.07254794.0132697-.14454794.0284813-.21621918.0457427v-.386224c-.16942465-.2775851-.32712328-.5628299-.47309589-.8547635l.00010959.4490124c.22564384.418805.47616438.8226141.74991781 1.2093776.07747945-.0148879.15539726-.0269709.23386301-.0364647-.10136986-.1399253-.19945205-.282332-.29457534-.4266805"/><path d="m8.72524475 2.94135519c-.11736986.03253446-.23408767.06646941-.35004475.10245123v.00409374c.11606575-.03716685.23256621-.07293321.35004475-.10654497"/><path d="m22.4764712 19.445995c.0121717.0134336.0245608.0264374.0367325.0397635.0765077-.1487369.1500812-.2993008.2201771-.4516917-.0109762-.0124664-.0219525-.0249328-.0329287-.0375066-.0716174.1516386-.1460603.3015576-.2239809.4494348"/><path d="m7.11089315 3.53164025v-.01708755c-.19539726.08522282-.38838356.1750668-.57808219.27017676-.00065754.00881245-.00131507.01773237-.0019726.02654481.19035616-.09822655.38367123-.19161701.58005479-.27963402"/><path d="m1.48289315 18.3251237c-.10027397.126224-.20153425.2505062-.30421918.372307.06893151.1570788.1410411.3125394.21665754.4660581.00821917-.0094938.01665753-.0186639.02476712-.0282656v.0772448c.1459726.2919337.30367123.5771785.47309589.8547635v-.8535767c-.14958904-.2890208-.28635616-.5855934-.41030137-.8885311"/><path d="m22.4764712 19.4477303c.0785754-.1484481.1536439-.2989461.225863-.4511701-.1418082-.159776-.2816438-.32322-.4188493-.4907635-.1647123.3832033-.351452.7550788-.5574794 1.1148713v.6891619c-.3089315.2366971-.5856439.5113693-.822685.8186224-.0118356-.0083071-.024-.0161826-.0358356-.0244896v-.1999088c-.1308493.169054-.2665205.3344399-.4070137.4957262.0592877.0365726.1187946.07239.1761096.1119834-.1806027.2922572-.3287671.6067386-.4402192.9393444.7787398-.7396515 1.4540274-1.5836266 2.0032877-2.5092697v-.8072946c.091726.1061576.1838904.2103734.2768219.3131867"/><path d="m2.90059178 20.8074216c-.11331507-.1490594-.22268493-.3010204-.32843836-.4556681-.15572602.0097797-.31035616.0279419-.46279452.0556689.09512329.1439008.19320548.2857598.29468494.4250394.13687671-.0165502.27473972-.027512.41358904-.027512.02772602 0 .05523287.001827.0829589.0024718"/><path d="m7.11089315 4.19713361v-.66542739c-.19638356.08835685-.38969863.18221577-.58005479.2807137-.01786302.23756016-.03813699.47425726-.06071233.70976763.20964383-.11478838.42323287-.2233195.64076712-.32505394"/><path d="m10.7615945 2.56718174c-.1572539.01521162-.3135297.03365975-.4688274.05491287v.47414937c0 .05512863.0199964.10507884.0520557.14499585.1311717-.01834024.2628868-.03495435.3954713-.0486556.0133671-.02945228.0213004-.06181743.0213004-.09634025z"/><path d="m13.7250849 3.09622241c0 .08360996.0448831.15632365.1115014.19742738.0572721.00981743.1143269.02017428.1712731.03085477.1067196-.02179253.186705-.11543568.186705-.22828215v-.36788382c-.1554064-.0299917-.3118996-.05793361-.4694795-.08188382z"/><path d="m12.4778877 2.52513942c-.1556238-.00722822-.3120082-.01121992-.4691535-.01229876v.5833278c0 .0127303.0017389.02492117.0038037.03700415.1539936.00129461.3074438.00507054.459916.01251453.0033689-.01596681.0054338-.03247303.0054338-.04951868z"/><path d="m13.3363973 2.59557676c-.1555151-.01844813-.3117909-.03430705-.4691535-.04671369v.54740249c0 .02697095.0055425.05243154.0141279.07659751.1409525.01186722.2813616.02610788.4209014.04315353.0213004-.03506224.0341242-.07573444.0341242-.11975104z"/><path d="m9.66863562 3.32927303c.1293242 0 .23473972-.10389212.23473972-.23302905v-.41567635c-.15757991.02686308-.31407306.05685478-.46947945.08986722v.32580913c0 .12881328.1050895.23302905.23473973.23302905"/><path d="m15.2528913 3.6293195v-.6473029c-.1562758-.04552697-.314073-.08781743-.4729571-.12697926v.64007469c.1589927.04153527.31679.08598341.4729571.13420747"/><path d="m11.6201123 2.51545145c-.1572539.00388382-.3135297.01154357-.4691534.02157677v.55916182c0 .02157676.0038037.04196681.0093461.06181743.1511681-.01014108.3029882-.01790871.4557863-.02190042.0021735-.01305394.004021-.02621576.004021-.03991701z"/><path d="m17.1320767 4.39483071c-.0219178-.24025727-.0410959-.48170125-.0581918-.72411619-.1827945-.08706224-.3682191-.16937759-.5559452-.24726971v.67653942c.2082192.09224067.4128219.19084648.614137.29484648"/><path d="m8.37523288 3.6962722c.15518904-.0513527.31157351-.09979253.46958812-.14434855v-.64277178c-.03999269.01057261-.07987671.02114523-.11954337.03214937-.11747854.03376764-.23408768.06947718-.35004475.10680498z"/></g></g></svg>