<?xml version="1.0" encoding="UTF-8"?>
<svg width="23px" height="24px" viewBox="0 0 23 24" version="1.1" xmlns="http://www.w3.org/2000/svg" xmlns:xlink="http://www.w3.org/1999/xlink">
    <!-- Generator: Sketch 50.2 (55047) - http://www.bohemiancoding.com/sketch -->
    <title>Group 51</title>
    <desc>Created with Sketch.</desc>
    <defs>
        <polygon id="path-1" points="0.0716815668 0.0715136564 21.8341332 0.0715136564 21.8341332 21.7797357 0.0716815668 21.7797357"></polygon>
        <polygon id="path-3" points="0.0716815668 0.0715136564 21.8341332 0.0715136564 21.8341332 21.7797357 0.0716815668 21.7797357"></polygon>
        <polygon id="path-5" points="0.0321576037 0.0926167401 3.85429124 0.0926167401 3.85429124 1.17663436 0.0321576037 1.17663436"></polygon>
        <polygon id="path-7" points="0 0.00575154185 22.9470046 0.00575154185 22.9470046 19.876652 0 19.876652"></polygon>
    </defs>
    <g id="Future-Project-Desktop" stroke="none" stroke-width="1" fill="none" fill-rule="evenodd">
        <g id="maps" transform="translate(-1173.000000, -414.000000)">
            <g id="about-us/map" transform="translate(48.000000, 44.000000)">
                <g id="map-markers" transform="translate(417.000000, 317.000000)">
                    <g id="Group-51" transform="translate(708.000000, 53.000000)">
                        <g id="Group-3" transform="translate(0.741935, 2.127648)">
                            <mask id="mask-2" fill="white">
                                <use xlink:href="#path-1"></use>
                            </mask>
                            <g id="Clip-2"></g>
                            <path d="M21.8341332,10.9256458 C21.8341332,16.920148 16.9623728,21.779778 10.9529074,21.779778 C4.94344194,21.779778 0.0716815668,16.920148 0.0716815668,10.9256458 C0.0716815668,4.93103789 4.94344194,0.0715136564 10.9529074,0.0715136564 C16.9623728,0.0715136564 21.8341332,4.93103789 21.8341332,10.9256458" id="Fill-1" fill="#4598FA" mask="url(#mask-2)"></path>
                        </g>
                        <g id="Group-6" transform="translate(0.635945, 2.127648)">
                            <mask id="mask-4" fill="white">
                                <use xlink:href="#path-3"></use>
                            </mask>
                            <g id="Clip-5"></g>
                            <path d="M21.8341332,10.9256458 C21.8341332,16.920148 16.9623728,21.779778 10.9529074,21.779778 C4.94344194,21.779778 0.0716815668,16.920148 0.0716815668,10.9256458 C0.0716815668,4.93103789 4.94344194,0.0715136564 10.9529074,0.0715136564 C16.9623728,0.0715136564 21.8341332,4.93103789 21.8341332,10.9256458" id="Fill-4" fill="#5CD8FF" mask="url(#mask-4)"></path>
                        </g>
                        <path d="M11.3742737,6.16050396 C11.5118498,6.15870661 11.6482599,6.15870661 11.7660157,6.16050396 C11.774071,6.16050396 11.7814903,6.16092687 11.7888037,6.16187841 C12.1473705,6.16991366 12.5076332,6.19750837 12.8681078,6.24043348 L12.8681078,4.17400176 L10.3942829,4.17400176 L10.3942829,6.22510308 C10.7139512,6.19063612 11.0333014,6.16875066 11.3516977,6.16187841 C11.3590111,6.16092687 11.3667484,6.16050396 11.3742737,6.16050396" id="Fill-7" fill="#FFFFFF"></path>
                        <path d="M10.0037387,1.69829075 L10.3784161,3.68511013 L12.9153055,3.68511013 L13.3360889,1.75855507 C12.7307756,1.65409692 12.1083977,1.59901322 11.4735129,1.59901322 C10.9750382,1.59901322 10.4845129,1.63326872 10.0037387,1.69829075" id="Fill-9" fill="#FFFFFF"></path>
                        <g id="Group-13" transform="translate(9.751152, 0.013110)">
                            <mask id="mask-6" fill="white">
                                <use xlink:href="#path-5"></use>
                            </mask>
                            <g id="Clip-12"></g>
                            <path d="M3.70929585,1.17663436 L3.85429124,0.512986784 L3.43287189,0.0926167401 L0.4565447,0.0926167401 L0.0321576037,0.516264317 L0.144613825,1.11309251 C0.660576959,1.04204405 1.18713917,1.00440529 1.72239263,1.00440529 C2.39988571,1.00440529 3.06370599,1.06371806 3.70929585,1.17663436" id="Fill-11" fill="#FFFFFF" mask="url(#mask-6)"></path>
                        </g>
                        <path d="M19.2015447,0.999140088 C19.2015447,0.881888987 19.106259,0.786734802 18.9886092,0.787051982 L14.0499687,0.787051982 L13.9411161,1.28491982 C15.9384065,1.72326344 17.7422636,2.68167753 19.2017567,4.01077004 L19.2015447,0.999140088 Z" id="Fill-14" fill="#FFFFFF"></path>
                        <path d="M13.8171281,1.85311718 L13.4086396,3.72395419 L15.3761465,4.43528458 L17.0471972,4.43528458 C17.1824415,4.43528458 17.2920359,4.54471189 17.2920359,4.67961938 L17.2920359,5.14460617 L17.9905152,5.67440352 C18.0512479,5.72039471 18.0870728,5.79250044 18.0870728,5.86883524 L18.0870728,6.16666784 L18.7762249,6.68917004 C18.8374876,6.73537269 18.8729945,6.80747841 18.8729945,6.88381322 L18.8729945,7.18809515 L19.2020959,7.43729339 L19.2018839,4.8162185 C17.7536258,3.35983084 15.8957134,2.30964581 13.8171281,1.85311718" id="Fill-16" fill="#FFFFFF"></path>
                        <path d="M9.33373917,0.786755947 L4.42053641,0.786755947 C4.30320461,0.786755947 4.20760092,0.881910132 4.20760092,0.999161233 L4.20760092,3.61167225 C5.68193272,2.40511718 7.46183594,1.55729339 9.41217235,1.20289692 L9.33373917,0.786755947 Z" id="Fill-18" fill="#FFFFFF"></path>
                        <path d="M4.53621475,7.18793656 L4.53621475,6.88365463 C4.53621475,6.80731982 4.57193364,6.73510837 4.63298433,6.68890573 L5.32234839,6.16650925 L5.32234839,5.86857093 C5.32234839,5.79234185 5.3578553,5.7201304 5.41890599,5.67392775 L6.11706728,5.14434185 L6.11706728,4.67935507 C6.11706728,4.54476476 6.22676774,4.43502026 6.36201198,4.43502026 L8.0327447,4.43502026 L9.89510876,3.76185727 L9.52000737,1.77440352 C7.50151889,2.14053568 5.67550968,3.06374273 4.20764332,4.3777163 L4.20764332,7.43702907 L4.53621475,7.18793656 Z" id="Fill-20" fill="#FFFFFF"></path>
                        <path d="M11.6786899,18.7012652 C11.6786899,18.6543225 11.6899249,18.6221815 11.7102751,18.5628687 C11.7397406,18.4757498 11.7966576,18.3052123 11.8208235,18.1094062 C11.7122889,18.1103577 11.6044963,18.1116264 11.4956438,18.1116264 C8.8711,18.1116264 6.18094793,17.8177057 4.17093871,17.2238379 C3.96044101,17.4196441 3.87533041,17.6827982 3.9329894,17.9655119 C3.99170829,18.2533004 4.17655622,18.4647542 4.45372212,18.5607542 C5.68438111,18.9892652 7.94961613,19.2027278 11.3789479,19.2144634 L11.7618926,19.2148863 C11.8139341,19.2144634 11.8632198,19.2140405 11.9154733,19.2133004 L11.7065654,18.8142872 C11.688335,18.7793974 11.6786899,18.740807 11.6786899,18.7012652" id="Fill-22" fill="#FFFFFF"></path>
                        <path d="M12.6008309,7.57862907 C12.7359691,7.57862907 12.8457756,7.68826784 12.8457756,7.82296388 C12.8457756,7.95765991 12.7359691,8.06729868 12.6008309,8.06729868 L12.0464991,8.06729868 C12.047029,8.06571278 12.047029,8.06359824 12.047771,8.06180088 L12.0222272,8.06180088 L12.0222272,7.58740441 C12.0210613,7.58444405 12.0205313,7.58158943 12.0194714,7.57862907 L12.6008309,7.57862907 Z M11.7378539,6.64897269 C11.6194622,6.64749251 11.5022364,6.64780969 11.4021811,6.64897269 C11.3959276,6.64960705 11.3892502,6.65002996 11.3828908,6.65002996 C10.2150843,6.67371278 9.0309553,6.89214449 7.86314885,7.29908722 C7.70532857,7.35385374 7.57951751,7.45249692 7.49408894,7.57862907 L10.8657618,7.57862907 C10.8657618,7.57884053 10.8657618,7.57936916 10.8655498,7.57958062 L10.8775267,7.57958062 L10.8775267,8.06539559 L10.8383101,8.06539559 C10.8383101,8.06613568 10.8383101,8.06687577 10.8388401,8.06751013 L7.36944378,8.06751013 C7.35714885,14.8766379 5.74799677,16.0856247 4.65766959,16.8533075 C6.63524562,17.3803559 9.25237005,17.6313515 11.7790843,17.6106291 C11.759582,17.5559683 11.7344622,17.5031048 11.7010751,17.4522502 L10.7623147,16.735422 C10.7289276,16.7096247 10.70243,16.6755806 10.6858954,16.6365674 L9.88343917,14.7456423 C9.87082627,14.7155101 9.86414885,14.6833692 9.86414885,14.6504881 L9.86414885,11.1341181 C9.86414885,10.9992106 9.97406129,10.8895718 10.1090935,10.8895718 C10.2443378,10.8895718 10.3540382,10.9989991 10.3540382,11.1341181 L10.3540382,14.6010079 L11.1115544,16.3865233 L12.0291166,17.087704 C12.047771,17.1017656 12.0641995,17.1187877 12.0781903,17.137607 C12.1789876,17.2757921 12.2468217,17.4315278 12.2849783,17.6030167 C14.6211212,17.5503648 16.8327249,17.2631048 18.3350382,16.748215 C17.2486327,15.9644617 15.7701673,14.5661181 15.7701673,7.99170396 C15.7701673,7.6704 15.5812917,7.40513128 15.2773101,7.29908722 C14.1095037,6.89214449 12.9250567,6.67392423 11.7576742,6.65002996 C11.7509968,6.65002996 11.7446373,6.64960705 11.7378539,6.64897269 Z" id="Fill-24" fill="#FFFFFF"></path>
                        <path d="M12.1876258,18.6785022 L12.4655336,19.2092511 C15.5033355,19.1710837 17.5432341,18.9586784 18.6867687,18.5610396 C18.9640406,18.4649339 19.1491005,18.2534802 19.2075014,17.9656916 C19.2657963,17.6784317 19.1782479,17.4117885 18.9602249,17.2148194 C18.9151788,17.1741145 18.8630313,17.1341498 18.8114138,17.094185 C17.2470959,17.7042291 14.8491604,18.041815 12.3097272,18.1015507 C12.2936166,18.2816035 12.25493,18.4727577 12.1876258,18.6785022" id="Fill-26" fill="#FFFFFF"></path>
                        <path d="M15.8072535,7.61631013 C16.111235,7.72224846 16.3001106,7.98751718 16.3001106,8.30882115 C16.3001106,14.883341 17.778576,16.2816846 18.8649816,17.0654379 C17.3626682,17.5803278 15.1510645,17.8675877 12.8149217,17.9202396 C12.776765,17.7487507 12.7089309,17.5929093 12.6081336,17.45483 C12.5941429,17.4359048 12.5777143,17.4188828 12.5591659,17.4049269 L11.6414977,16.7036405 L10.8839816,14.9182308 L10.8839816,11.4512352 C10.8839816,11.3161163 10.7742811,11.206689 10.6390369,11.206689 C10.5040046,11.206689 10.3940922,11.3163278 10.3940922,11.4512352 L10.3940922,14.9676053 C10.3940922,15.0004863 10.4007696,15.0326273 10.4133825,15.0628652 L11.2158387,16.9536846 C11.2323733,16.9928035 11.258871,17.0268476 11.2922581,17.0525392 L12.2310184,17.7694731 C12.2644055,17.820222 12.2895253,17.8730855 12.3090276,17.927852 C9.78231336,17.9484687 7.16518894,17.6975789 5.1876129,17.1705304 C6.27794009,16.4027419 7.88709217,15.1938608 7.8993871,8.38473304 L11.3687834,8.38473304 C11.3682535,8.38399295 11.3682535,8.38325286 11.3682535,8.3826185 L11.40747,8.3826185 L11.40747,7.8966978 L11.3954931,7.8966978 C11.3957051,7.89648634 11.3957051,7.89606344 11.3957051,7.89585198 L8.02403226,7.89585198 C8.10956682,7.7696141 8.23537788,7.67107665 8.39309217,7.61631013 C9.56089862,7.20926167 10.7450276,6.99093568 11.9128341,6.96725286 C11.9191935,6.96725286 11.925871,6.96682996 11.9321244,6.96608987 C12.0321797,6.96492687 12.1494055,6.96471542 12.2677972,6.96608987 C12.2745806,6.96682996 12.2809401,6.96725286 12.2876175,6.96725286 C13.455,6.99114714 14.639447,7.20926167 15.8072535,7.61631013 Z M12.2918571,19.5321515 L11.9089124,19.5316229 C8.47958065,19.5198872 6.21434562,19.3064247 4.98368664,18.8780194 C4.70652074,18.7819137 4.52167281,18.5704599 4.46295392,18.2826714 C4.40529493,17.9999577 4.49040553,17.7368035 4.70090323,17.5409974 C6.71091244,18.1348652 9.40106452,18.4288916 12.0256083,18.4288916 C12.1344608,18.4288916 12.2422535,18.4275172 12.350788,18.4265656 C12.3266221,18.6223718 12.2697051,18.7929093 12.2402396,18.8800282 C12.2198894,18.939341 12.2086544,18.9714819 12.2086544,19.0184247 C12.2086544,19.0579665 12.2182995,19.0965568 12.23653,19.1315524 L12.4454378,19.5304599 C12.3931843,19.5312 12.3438986,19.5316229 12.2918571,19.5321515 Z M10.9242581,4.49112952 L13.3980829,4.49112952 L13.3980829,6.55766696 C13.0376083,6.51474185 12.6773456,6.48714714 12.3187788,6.47911189 C12.3114654,6.47816035 12.3040461,6.47763172 12.2959908,6.47763172 C12.178235,6.47583436 12.0418249,6.47583436 11.9042488,6.47763172 C11.8967235,6.47763172 11.8889862,6.47816035 11.8816728,6.47911189 C11.5632765,6.48598414 11.2438203,6.50776388 10.9242581,6.54223084 L10.9242581,4.49112952 Z M19.7319862,7.75449515 L19.4029908,7.50529692 L19.4029908,7.20101498 C19.4029908,7.12468018 19.3674839,7.05246872 19.3062212,7.00626608 L18.6170691,6.4838696 L18.6170691,6.186037 C18.6170691,6.1097022 18.5812442,6.03749075 18.5205115,5.99160529 L17.8220323,5.46180793 L17.8220323,4.99682115 C17.8220323,4.86191366 17.7124378,4.75248634 17.5770876,4.75248634 L15.9061429,4.75248634 L13.9386359,4.04115595 L14.3471244,2.17031894 C14.1880323,2.13532335 14.0276682,2.10371101 13.8661382,2.07579912 L13.4452488,4.00224846 L10.9083594,4.00224846 L10.533682,2.01542907 C10.3713041,2.03742026 10.2099862,2.06258326 10.0500461,2.09155242 L10.4250415,4.07900617 L8.56267742,4.75227489 L6.8919447,4.75227489 C6.75670046,4.75227489 6.647,4.86191366 6.647,4.99660969 L6.647,5.46159648 L5.94883871,5.99107665 C5.88778802,6.0372793 5.8523871,6.10949075 5.8523871,6.18582555 L5.8523871,6.48365815 L5.16291705,7.00616035 C5.10186636,7.052363 5.06614747,7.12446872 5.06614747,7.20080352 L5.06614747,7.50508546 L4.73757604,7.7542837 L4.73757604,4.6948652 C4.56936866,4.84542026 4.40603687,5.00115595 4.24747465,5.16164934 L4.24747465,8.24697093 C4.24747465,8.33990485 4.30025806,8.42448634 4.38367281,8.46582555 C4.41801382,8.48284758 4.45532258,8.49130573 4.49241935,8.49130573 C4.54499078,8.49130573 4.59724424,8.47438943 4.64059447,8.44150837 L5.4590553,7.82089163 C5.52010599,7.77468899 5.55582488,7.70247753 5.55582488,7.62624846 L5.55582488,7.32186079 L6.24497696,6.79946432 C6.30623963,6.75326167 6.34174654,6.68105022 6.34174654,6.60482115 L6.34174654,6.30688282 L7.04011982,5.77729692 C7.10095853,5.73109427 7.1368894,5.65898855 7.1368894,5.58265374 L7.1368894,5.24094449 L8.60539171,5.24094449 C8.63390323,5.24094449 8.66209677,5.2358696 8.68901843,5.22624846 L10.4342627,4.59527048 L10.4342627,6.60640705 C9.69815668,6.71784317 8.96109677,6.9001163 8.23113825,7.15481233 C7.73213364,7.32883877 7.40992166,7.78156123 7.40992166,8.30882115 C7.40992166,15.0090502 5.88068664,16.0851383 4.86868664,16.7969974 C4.69380184,16.9199577 4.52835023,17.0362573 4.3803871,17.1700018 C4.03453917,17.4828476 3.88943779,17.9241515 3.9824977,18.380363 C4.07534562,18.8367859 4.38134101,19.1866361 4.82183871,19.3397286 C6.10369124,19.7853674 8.4214977,20.0085568 11.9074286,20.0212441 L12.2922811,20.0212441 C12.2924931,20.0212441 12.2927051,20.0208211 12.293235,20.0208211 C12.4697097,20.0198696 12.6414147,20.0184952 12.8120599,20.0165921 C12.8249908,20.0189181 12.8373917,20.0218784 12.8506406,20.0218784 C12.8667512,20.0218784 12.8832857,20.0191295 12.8996083,20.0161692 C16.0476406,19.9812793 18.1709539,19.7594643 19.377447,19.3397286 C19.8179447,19.1866361 20.1239401,18.8367859 20.217212,18.380363 C20.3102719,17.9236229 20.1651705,17.4828476 19.8193226,17.1700018 C19.6711475,17.0362573 19.5061198,16.9199577 19.331023,16.7969974 C18.319235,16.0849269 16.790212,15.0090502 16.790212,8.30882115 C16.790212,7.78177269 16.467894,7.32883877 15.9689954,7.15481233 C15.2792074,6.91438943 14.5832719,6.73951718 13.8881843,6.62660088 L13.8881843,4.54240705 L15.7801198,5.22645991 C15.8068295,5.23608106 15.8349171,5.24115595 15.8634286,5.24115595 L17.3326728,5.24115595 L17.3326728,5.58297093 C17.3326728,5.6592 17.3681797,5.73141145 17.4292304,5.77729692 L18.1273917,6.3072 L18.1273917,6.6050326 C18.1273917,6.6813674 18.1631106,6.75347313 18.2241613,6.79967577 L18.9136313,7.32217797 L18.9136313,7.62645991 C18.9136313,7.70268899 18.9490323,7.77490044 19.0102949,7.82110308 L19.8289677,8.44171982 C19.9027373,8.49754361 20.0024747,8.5069533 20.0858894,8.46582555 C20.1690922,8.42448634 20.2217696,8.33990485 20.2217696,8.24697093 L20.2217696,5.65930573 C20.0642673,5.47872423 19.9007235,5.30342907 19.7317742,5.13342026 L19.7319862,7.75449515 Z" id="Fill-28" fill="#FFFFFF"></path>
                        <path d="M15.2772995,7.29912952 C15.5812811,7.40506784 15.7701567,7.67033656 15.7701567,7.99164053 C15.7701567,14.5661604 17.2486221,15.964504 18.3350276,16.7482573 C16.8327143,17.2631471 14.6211106,17.550407 12.2849677,17.603059 C12.2468111,17.43157 12.178977,17.2757286 12.0781797,17.1376493 C12.0641889,17.1187242 12.0477604,17.1017022 12.029212,17.0877463 L11.1115438,16.3864599 L10.3540276,14.6010502 L10.3540276,11.1340546 C10.3540276,10.9989357 10.2443272,10.8895084 10.1090829,10.8895084 C9.97405069,10.8895084 9.86413825,10.9991471 9.86413825,11.1340546 L9.86413825,14.6504247 C9.86413825,14.6833057 9.87081567,14.7154467 9.88342857,14.7456846 L10.6858848,16.636504 C10.7024194,16.6756229 10.7289171,16.709667 10.7623041,16.7353586 L11.7010645,17.4522925 C11.7344516,17.5030414 11.7595714,17.5559048 11.7790737,17.6106714 C9.25235945,17.6312881 6.63523502,17.3803982 4.65765899,16.8533498 C5.74798618,16.0855612 7.35713825,14.8766802 7.36943318,8.06755242 L10.8388295,8.06755242 C10.8382995,8.06681233 10.8382995,8.06607225 10.8382995,8.06543789 L10.8775161,8.06543789 L10.8775161,7.57951718 L10.8655392,7.57951718 C10.8657512,7.57930573 10.8657512,7.57888282 10.8657512,7.57867137 L7.49407834,7.57867137 C7.5796129,7.45243348 7.70542396,7.35389604 7.86313825,7.29912952 C9.0309447,6.89208106 10.2150737,6.67375507 11.3828802,6.65007225 C11.3892396,6.65007225 11.3959171,6.64964934 11.4021705,6.64890925 C11.5022258,6.64774626 11.6194516,6.6475348 11.7378433,6.64890925 C11.7446267,6.64964934 11.7509862,6.65007225 11.7576636,6.65007225 C12.9250461,6.67396652 14.1094931,6.89208106 15.2772995,7.29912952 Z M18.8114562,17.0941956 C18.8630737,17.1341604 18.9151152,17.1741251 18.9602673,17.21483 C19.1782903,17.4117991 19.2658387,17.6784423 19.2075438,17.9657022 C19.1490369,18.2534907 18.963977,18.4649445 18.6868111,18.5610502 C17.5432765,18.958689 15.5033779,19.1710943 12.465576,19.2091559 L12.1876682,18.6785128 C12.2548664,18.4727683 12.293659,18.2815084 12.3097696,18.1015612 C14.8492028,18.0418256 17.2471382,17.7042396 18.8114562,17.0941956 Z M11.7619032,19.2149709 L11.3789585,19.2144423 C7.94962673,19.2027066 5.68439171,18.9892441 4.45373272,18.5608388 C4.17656682,18.464733 3.99171889,18.2532793 3.933,17.9654907 C3.87534101,17.6827771 3.96045161,17.4196229 4.17094931,17.2238167 C6.18095853,17.8176846 8.8711106,18.111711 11.4956544,18.111711 C11.6045069,18.111711 11.7122995,18.1103366 11.8208341,18.109385 C11.7966682,18.3051912 11.7397512,18.4757286 11.7102857,18.5628476 C11.6899355,18.6221604 11.6787005,18.6543013 11.6787005,18.7012441 C11.6787005,18.7407859 11.6883456,18.7793762 11.706576,18.8143718 L11.9154839,19.2132793 C11.8632304,19.2140194 11.8139447,19.2144423 11.7619032,19.2149709 Z M10.3943041,4.1739489 L12.868129,4.1739489 L12.868129,6.24048634 C12.5076544,6.19756123 12.1473917,6.16996652 11.7888249,6.16193128 C11.7815115,6.16097974 11.7740922,6.1604511 11.7660369,6.1604511 C11.6482811,6.15865374 11.511871,6.15865374 11.3742949,6.1604511 C11.3667696,6.1604511 11.3590323,6.16097974 11.3517189,6.16193128 C11.0333226,6.16880352 10.7138664,6.19058326 10.3943041,6.22505022 L10.3943041,4.1739489 Z M19.2020323,7.43731454 L18.8730369,7.1881163 L18.8730369,6.88383436 C18.8730369,6.80749956 18.83753,6.73528811 18.7762673,6.68908546 L18.0871152,6.16668899 L18.0871152,5.86885639 C18.0871152,5.79252159 18.0512903,5.72031013 17.9905576,5.67442467 L17.2920783,5.14462731 L17.2920783,4.67964053 C17.2920783,4.54473304 17.1824839,4.43530573 17.0471336,4.43530573 L15.3761889,4.43530573 L13.408682,3.72397533 L13.8171705,1.85313833 C13.6580783,1.81814273 13.4977143,1.7865304 13.3361843,1.7586185 L12.9152949,3.68506784 L10.3784055,3.68506784 L10.0037281,1.69824846 C9.84135023,1.72023965 9.68003226,1.74540264 9.52009217,1.77437181 L9.89508756,3.76182555 L8.0327235,4.43509427 L6.36199078,4.43509427 C6.22674654,4.43509427 6.11704608,4.54473304 6.11704608,4.67942907 L6.11704608,5.14441586 L5.41888479,5.67389604 C5.3578341,5.72009868 5.32243318,5.79231013 5.32243318,5.86864493 L5.32243318,6.16647753 L4.63296313,6.68897974 C4.57191244,6.73518238 4.53619355,6.80728811 4.53619355,6.88362291 L4.53619355,7.18790485 L4.20762212,7.43710308 L4.20762212,4.37768458 C4.03941475,4.52823965 3.87608295,4.68397533 3.71752074,4.84446872 L3.71752074,7.92979031 C3.71752074,8.02272423 3.77030415,8.10730573 3.85371889,8.14864493 C3.88805991,8.16566696 3.92536866,8.17412511 3.96246544,8.17412511 C4.01503687,8.17412511 4.06729032,8.15720881 4.11064055,8.12432775 L4.92910138,7.50371101 C4.99015207,7.45750837 5.02587097,7.38529692 5.02587097,7.30906784 L5.02587097,7.00468018 L5.71502304,6.4822837 C5.77628571,6.43608106 5.81179263,6.3638696 5.81179263,6.28764053 L5.81179263,5.9897022 L6.5101659,5.4601163 C6.57100461,5.41391366 6.60693548,5.34180793 6.60693548,5.26547313 L6.60693548,4.92376388 L8.07543779,4.92376388 C8.10394931,4.92376388 8.13203687,4.91868899 8.15906452,4.90906784 L9.90430876,4.27808987 L9.90430876,6.28922643 C9.16820276,6.40066256 8.43114286,6.58293568 7.70118433,6.83763172 C7.20217972,7.01165815 6.87996774,7.46438062 6.87996774,7.99164053 C6.87996774,14.6918696 5.35073272,15.7679577 4.33873272,16.4798167 C4.16384793,16.6027771 3.99839631,16.7190767 3.85043318,16.8528211 C3.50458525,17.165667 3.35948387,17.6069709 3.45254378,18.0631824 C3.54539171,18.5196053 3.8513871,18.8694555 4.29188479,19.022548 C5.57373733,19.4681868 7.89154378,19.6913762 11.3774747,19.7040634 L11.7623272,19.7040634 C11.7625392,19.7040634 11.7627512,19.7036405 11.7632811,19.7036405 C11.9397558,19.702689 12.1114608,19.7013145 12.282106,19.6994115 C12.2950369,19.7017374 12.3074378,19.7046978 12.3206866,19.7046978 C12.3367972,19.7046978 12.3533318,19.7019489 12.3696544,19.6989885 C15.5176866,19.6640987 17.641,19.4422837 18.8474931,19.022548 C19.2879908,18.8694555 19.5939862,18.5196053 19.6872581,18.0631824 C19.780318,17.6064423 19.6352166,17.165667 19.2893687,16.8528211 C19.1411935,16.7190767 18.9761659,16.6027771 18.8010691,16.4798167 C17.7892811,15.7677463 16.2602581,14.6918696 16.2602581,7.99164053 C16.2602581,7.46459207 15.9379401,7.01165815 15.4390415,6.83763172 C14.7492535,6.59720881 14.053318,6.42233656 13.3582304,6.30942026 L13.3582304,4.22522643 L15.2501659,4.9092793 C15.2768756,4.91890044 15.3049631,4.92397533 15.3334747,4.92397533 L16.8027189,4.92397533 L16.8027189,5.26579031 C16.8027189,5.34201938 16.8382258,5.41423084 16.8992765,5.4601163 L17.5974378,5.99001938 L17.5974378,6.28785198 C17.5974378,6.36418678 17.6331567,6.43629251 17.6942074,6.48249515 L18.3836774,7.00499736 L18.3836774,7.3092793 C18.3836774,7.38550837 18.4190783,7.45771982 18.480341,7.50392247 L19.2990138,8.12453921 C19.3727834,8.180363 19.4725207,8.18977269 19.5559355,8.14864493 C19.6391382,8.10730573 19.6918157,8.02272423 19.6918157,7.92979031 L19.6918157,5.34212511 C19.5343134,5.16154361 19.3707696,4.98624846 19.2018203,4.81623965 L19.2020323,7.43731454 Z" id="Fill-30" fill="#000000"></path>
                        <path d="M12.0222272,8.06479956 L12.047771,8.06479956 C12.047029,8.06671454 12.047029,8.0687359 12.0464991,8.07033172 L12.6008309,8.07033172 C12.7359691,8.07033172 12.8457756,7.96000771 12.8457756,7.82446982 C12.8457756,7.68893194 12.7359691,7.57860793 12.6008309,7.57860793 L12.0194714,7.57860793 C12.0205313,7.58158678 12.0210613,7.58445925 12.0222272,7.58743811 L12.0222272,8.06479956 Z" id="Fill-32" fill="#000000"></path>
                        <g id="Group-36" transform="translate(0.000000, 4.030731)">
                            <mask id="mask-8" fill="white">
                                <use xlink:href="#path-7"></use>
                            </mask>
                            <g id="Clip-35"></g>
                            <path d="M19.6918581,0.454244934 L19.6918581,1.31137269 C21.3554894,3.21953128 22.3640977,5.71035066 22.3640977,8.43176035 C22.3640977,14.421822 17.4785585,19.2951965 11.4735447,19.2951965 C5.46842488,19.2951965 0.582885714,14.421822 0.582885714,8.43176035 C0.582885714,5.46675595 1.78036959,2.77590132 3.71756313,0.8137163 L3.71756313,0.00575154185 C1.43377972,2.09914361 -6.359447e-05,5.10136388 -6.359447e-05,8.43176035 C-6.359447e-05,14.7424916 5.14695484,19.8766943 11.4735447,19.8766943 C17.8000286,19.8766943 22.947047,14.7424916 22.947047,8.43176035 C22.947047,5.33227137 21.704941,2.51718767 19.6918581,0.454244934" id="Fill-34" fill="#000000" mask="url(#mask-8)"></path>
                        </g>
                        <path d="M11.4735341,1.59901322 C12.1084189,1.59901322 12.7306908,1.65409692 13.3361101,1.75855507 L13.4604373,1.18974449 C12.8148475,1.07682819 12.1510272,1.01751542 11.4735341,1.01751542 C10.9382806,1.01751542 10.4117184,1.05504846 9.8957553,1.12620264 L10.0037599,1.69829075 C10.4845341,1.63326872 10.9750594,1.59901322 11.4735341,1.59901322" id="Fill-37" fill="#000000"></path>
                        <path d="M19.2018521,4.81625022 L19.2017461,4.01071718 C17.742253,2.68162467 15.9383959,1.7233163 13.9411055,1.28486696 L13.8170963,1.8531489 C15.8957876,2.30967753 17.753594,3.35986256 19.2018521,4.81625022" id="Fill-39" fill="#000000"></path>
                        <path d="M9.41220415,1.20290749 C7.46186774,1.55730396 5.68196452,2.40512775 4.20763272,3.61168282 L4.20763272,4.37767401 C5.67549908,3.06380617 7.50150829,2.14059912 9.52010276,1.77436123 L9.41220415,1.20290749 Z" id="Fill-41" fill="#000000"></path>
                        <path d="M4.20976359,4.37770573 L4.20976359,3.61160881 C4.04157005,3.74863084 3.87752811,3.89041057 3.71753134,4.03641938 L3.71753134,4.84448987 C3.87678295,4.68389075 4.04082488,4.52826079 4.20976359,4.37770573" id="Fill-43" fill="#000000"></path>
                        <path d="M19.2017567,4.01075947 L19.2018631,4.81629251 C19.371547,4.98619559 19.5358018,5.16149075 19.6939889,5.34217797 L19.6939889,4.48494449 C19.5345244,4.32223084 19.3706954,4.16385198 19.2017567,4.01075947" id="Fill-45" fill="#000000"></path>
                        <path d="M13.8171281,1.85311718 L13.9411373,1.28483524 C13.7820452,1.24994537 13.6218931,1.21801586 13.4604691,1.18978678 L13.3361419,1.75859736 C13.4976719,1.78650925 13.6580359,1.81812159 13.8171281,1.85311718" id="Fill-47" fill="#000000"></path>
                        <path d="M10.0037387,1.69829075 L9.8957341,1.12620264 C9.7335682,1.14861674 9.57225023,1.17388546 9.41220415,1.20285463 L9.52010276,1.7744141 C9.68004286,1.74533921 9.84136083,1.72028194 10.0037387,1.69829075" id="Fill-49" fill="#000000"></path>
                    </g>
                </g>
            </g>
        </g>
    </g>
</svg>