<svg height="24" viewBox="0 0 21 24" width="21" xmlns="http://www.w3.org/2000/svg" xmlns:xlink="http://www.w3.org/1999/xlink"><mask id="a" fill="#fff"><path d="m0 .086208h20.9757968v23.8177824h-20.9757968z" fill="none"/></mask><g fill="none" fill-rule="evenodd" transform=""><path d="m9.54545455.31578947h1.59090905l.6363637.94736842v4.10526316h-2.54545457v-4.10526316z" fill="#fff" fill-rule="nonzero"/><ellipse cx="10.659091" cy="13.421053" fill="#fff" fill-rule="nonzero" rx="10.022727" ry="9.947368"/><path d="m14.0708742 12.1903984c-.0085-.0012-.0165-.0032-.0253-.0034-.0017 0-.0032.0005-.0048.0005.0104 0 .0201.0015.0301.0029" fill="#4598fa"/><path d="m6.91560968 21.5713536c0-.11136.09096774-.2016.20332258-.2016h.82083871l-.021-2.182656-.41448387.411168c-.03890323.038592-.09087097.05904-.14370968.05904-.02787097 0-.05603226-.005664-.08264516-.017472-.07683871-.033984-.12464516-.11136-.12029032-.194688l.40674193-7.680576h-.11690322c-.86129033 0-1.26774194-.729408-1.26774194-1.1616v-.958656c0-.111264.09096774-.2016.20322581-.2016-.11225807 0-.20322581.09024-.20322581.2016v-.23664c-.07770968-.04128-.12919355-.119808-.13441936-.209088-.02206451-.382464-.04219354-1.233696.13441936-2.041056.07480645-.34176.18474194-.675744.34490323-.96288.18009677-.322752.42338709-.586368.75116129-.73584.00648387-.002976.01325806-.005568.02012903-.007968l2.26964516-.755712c-.15125807-.14976-.26177419-.339168-.31741936-.550368-4.79951612.691296-8.49812903 4.799424-8.49812903 9.748992 0 3.802944 2.18351613 7.109088 5.37193549 8.750592v-.00576c0-.11136.09096774-.201504.2032258-.201504h.59041936z" fill="#5cd8ff"/><path d="m12.2179645 4.159824c-.0628064.226176-.1900645.425664-.361258.578208l1.7198709.482112c.1541613.0432.2754194.091296.3816774.151104 1.4289678.803904 1.518 3.54768 1.5212904 4.0896.0004838.084864-.0464517.159168-.1191291.200064l.0628065.848544c.0006774.010656.001258.047808-.0004839.10464-.0197419.651264-.2867419 1.271232-.7390645 1.743648l-.2834516.296064c.023129.031968.037258.070944.0384193.113376l.1891936 6.964608c.0022258.08016-.043742.153984-.1169032.187968-.0275807.012864-.057.019008-.0861291.019008-.0484838 0-.0963871-.017088-.1343226-.050112l-.4298709-.375072v1.856256h.5640968c.112258 0 .2032258.090144.2032258.201504v.865728h.5904193c.0835161 0 .1550323.050016.1863871.12144 3.0992903-1.669248 5.2081936-4.9272 5.2081936-8.664672 0-4.914144-3.6457742-8.999232-8.3949678-9.734016" fill="#5cd8ff"/><g fill="#000"><path d="m10.4897323 23.7104544c-5.68461295 0-10.29280649-4.571424-10.29280649-10.210464 0-5.280768 4.04129032-9.625056 9.22316129-10.155744v-.194688-1.45584h2.2426452v1.467936.194304c5.1320322.577632 9.1197096 4.898496 9.1197096 10.144032 0 5.63904-4.6081935 10.210464-10.2927096 10.210464zm-1.04419359-22.579968h2.18390319.1242581l-.0359032.160032h-2.33787099l-.03580646-.160032zm.64654839-.641184h.8909032c.340742 0 .4196129.055104.4377097.23808h-1.76641935c.01819354-.182976.09687096-.23808.43780645-.23808zm1.9770968 2.724864v-1.646688c.0040645-.01008.0075484-.02064.0100645-.031584l.1261935-.563136c.0132581-.059712-.0013548-.122304-.0399677-.170016-.0385161-.047616-.096871-.07536-.1584194-.07536h-.1795161c-.0226452-.31392-.1480645-.641184-.8445484-.641184h-.8909032c-.69667742 0-.822.327264-.84464516.641184h-.15667742c-.06164517 0-.11990323.027744-.15851613.07536-.03851613.047712-.05322581.110304-.03987097.16992l.12125806.54144v1.685184c-5.08741935.713184-9.01364516 5.060352-9.01364516 10.300704 0 4.116768 2.42293549 7.682592 5.9283871 9.368352.13383871.06432.26951613.125568.40645161.18432 1.27432258.547296 2.67851613.851328 4.15306447.851328 1.3236775 0 2.5905484-.245184 3.7578388-.691104.0369677-.014112.074129-.028128.1109032-.042624.156871-.062016.3119032-.127584.465-.196704.1370322-.062016.2725161-.126912.4064516-.194496 3.4077097-1.720032 5.7477097-5.23344 5.7477097-9.279072 0-5.203584-3.8711613-9.527232-8.9066129-10.285824z" mask="url(#a)" transform="translate(0 .009792)"/><path d="m15.2111613 22.1744928c-.0312581-.071424-.1027742-.12144-.1863871-.12144h-.5903226v-.865728c0-.11136-.0910645-.201504-.2033226-.201504h-.5640967v-1.856256l.4298709.375072c.0379355.033024.0858387.050112.1343226.050112.0292258 0 .0585484-.006144.0862258-.019008.0731613-.033984.1190323-.107808.1169032-.187968l-.1891935-6.964608c-.0012581-.042432-.0153871-.081408-.0385161-.11328-.0092904-.012672-.0199355-.024096-.0318387-.034272.0119032.010176.0225483.0216.0318387.034272l.2835483-.29616c.4523226-.472416.7192259-1.092384.7390646-1.743648.0016451-.056832.0010645-.093888.0003871-.10464l-.0628065-.848544c.0726774-.040896.1196129-.1152.119129-.200064-.0032903-.54192-.0923225-3.285696-1.5211935-4.0896-.1063548-.059808-.2276129-.107904-.3817742-.151104l-1.719871-.482016c.1711936-.15264.2984516-.352032.3612581-.578304 4.7492903.734784 8.3949677 4.819872 8.3949677 9.734016 0 3.737472-2.1089032 6.995424-5.2081935 8.664672zm-.7767097.375168c-.1340322.057792-.2696129.112704-.4065484.164736-.0974516.03696-.1955806.072576-.2945806.106656-.5123226.176256-1.0437097.311808-1.59.403104-.5385484.090048-1.0914194.137664-1.6554194.137664-.56399997 0-1.11687094-.047616-1.65541933-.137664-.5463871-.091296-1.07767742-.226848-1.59009677-.403104-.03793549-.013056-.07596775-.0264-.11380645-.03984-.13703226-.04896-.27241936-.101088-.40654839-.155808-.13045161-.053184-.25954839-.109056-.38719355-.16752v-.001728h.38719355.40654839 6.89932255.4065484.2100968c-.0695807.031968-.1397419.063072-.2100968.093504zm-8.5060645-.295104v.005856c-3.18841936-1.6416-5.37193549-4.947744-5.37193549-8.750592 0-4.949664 3.69870968-9.057792 8.49812904-9.749088.05564516.2112.16625806.400608.31741935.550368l-2.26964516.755712c-.00677419.0024-.01364516.004992-.02012903.007968-.3277742.149472-.57106452.413184-.75106452.73584-.16025806.287232-.27019355.62112-.345.962976-.1766129.807264-.15648387 1.658496-.13432258 2.04096.00512903.089376.0566129.167808.13432258.209088v.23664c0-.11136.09106452-.2016.20322581-.2016-.11216129 0-.20322581.090336-.20322581.201696v.95856c0 .432192.40654839 1.1616 1.26774194 1.1616h.11690322l-.40674193 7.680576c-.00435484.083328.04354838.1608.12029032.194688.0266129.011808.05477419.017472.08264516.017472.05283871 0 .10480645-.020448.14370968-.058944l.41458064-.411264.02090323 2.182752h-.82083871c-.11225807 0-.20332258.090144-.20332258.201504v.865728h-.59041936c-.11216129 0-.2032258.090144-.2032258.201504zm3.67393548-17.594784.12348387-.041184-.12348387.135168-.01287097.014112-1.73390322 1.897344-.03329033.036384-.37645161.412032-.03.032736-1.02309677 1.119648-.14980645.163872c-.01558065-.690624.04790322-1.224096.14980645-1.636992.06774193-.274656.15241935-.49584.24280645-.67296.23409677-.458976.50448387-.62544.60735484-.674496l.17293548-.0576.324-.107904zm.57870972.06096h.3240967l.390871.403104 2.3645806 2.438592v2.563008l-1.0267741.852-.4857097.403104-.2675807.222048v-.222048-.2016-.201504-1.717152-.938496c0-.11136-.0909677-.2016-.2032258-.2016h-1.1353548c-.1121613 0-.20312905.09024-.20312905.2016v.736896h-1.85274193c-.19006452 0-.24706452-.057504-.24561291-.246048l.01064516-1.54224 1.96161291-2.14656zm3.8217096 7.470636c.0007102-.0001.0014203-.0001.0022319-.0003-.0008116.0002-.0015217.0002-.0022319.0003zm-.6722903 1.878228c-.0046451-.111264-.1007419-.194976-.2115484-.193056-.1120645.004704-.199258.098592-.1945161.209952l.1814516 4.294944-.9912581.13872-.6340645-.269664v-3.44592l2.3640968-2.198112.1709032 6.290208-.4995484-.435648zm-1.8499355 6.916224v-2.296512l.5261613.22368c.0253549.010752.0526452.016224.0800323.016224.0094838 0 .0189677-.000672.0284516-.002016l1.1373871-.159168.0080322.007008v2.210784zm-.4064516-6.706272v.43776 3.664704.000864 2.602944h-.7288064v-2.4768-.000864-4.228608zm-.7288064-.403104h.7288064v-1.515648h-.7288064zm0-1.918752h.7288064v-.577152h-.7288064zm0-2.899008h.7288064v-.535392h-.7288064zm0 1.918752h.7288064v-1.515552h-.7288064zm-2.39380649 10.411488h2.19048389 1.1353548 2.1864194.5641935v.664128h-6.89932255v-.664128zm1.43883871-2.976192.54851613.229632v2.343456h-1.78606451l-.02554839-2.659584.02903226-.432288h1.10970967v.333024c0 .08112.04896775.154272.12435484.18576zm-1.61245161-7.032192h2.16096774v.778656 1.918848 4.126656l-.26632258-.111456v-.400896-2.39424c0-.111456-.09106452-.2016-.20322581-.2016-.11225806 0-.20332258.090144-.20332258.2016v2.19264h-1.0826129l.18512903-2.760096c.00745162-.111072-.0772258-.207168-.18919355-.21456-.11225806-.005664-.20883871.076704-.21629032.187776l-.19480645 2.902752-.00977419.145632-.03222581.479616-.32835484.325824zm.23796774-1.918656h.0967742.01267741 1.81354839v1.515552h-2.115-.00154839-.40490322-.00154839-.03009677c-.54841936 0-.993-.345024-.993-.889056v-.626496-.4032-.192384l1.02309677-1.119648.02545161-.027936-.00987096.955968-.00009678.20448c-.00154838.215328.17080645.58272.58451613.58272zm6.05550395 2.7285524c-.0101449-.0014-.0199855-.003-.0305362-.0029.0016232 0 .0031449-.0006.0048696-.0005.0089275.0001.0170434.0022.0256666.0034zm.0482109.0126516c-.0094348-.0037-.0187681-.0077-.0288116-.0101.0100435.0024.0193768.0064.0288116.0101zm.0439808.024612c-.009029-.0065-.0178551-.0131-.0276956-.0182.0098405.0051.0186666.0117.0276956.0182zm-.1195344-.359288-2.5634516 2.383584v-.173952-1.918848-.030912l.9010645-.747744.4857097-.403104.3932903-.326304.3335807-.276864c.0461613-.038304.072871-.094944.072871-.154656v-2.237952l1.081258 1.115136.0577742.921312c.002129.03264.0035807.066048.0041613.100032.0132581.663168-.2784193 1.296672-.7662581 1.750272zm-2.9699032-7.14768v-.077184c.0151936-.00288.0302903-.006048.0453871-.009408.0086129-.00192.0169355-.00432.0252581-.006432l.3358064.09408 1.7850968.500352.006871.00192c.1218387.034272.2145484.070464.2916774.113952.0353226.019872.0693871.041664.102871.064512.9191612.63024 1.1419354 2.380992 1.1955483 3.230592l-.1533871-.158208-1.0421612-1.074912-.4064517-.419232-1.8497419-1.907616-.3417097-.352416zm.5886774-1.35504v.08976c0 .093408-.0169354.182784-.0464516.266304-.032129.090432-.0791613.173856-.1395484.246432-.0884516.106272-.2042903.189024-.3361935.239424-.0025161.00096-.0050323.001824-.0076452.002784-.0193548.007104-.0389032.013824-.0588387.019584-.0713226.020352-.1464193.031872-.2242258.031872h-.0078387-.2987419-.0044516-.3057097c-.0779033 0-.1529033-.01152-.2243226-.031872-.02003226-.00576-.03948388-.01248-.05883872-.019584-.13509677-.050016-.25364516-.13392-.34393548-.242208-.06290323-.075648-.11167742-.163104-.1436129-.258144-.02709678-.080064-.04229033-.165504-.04229033-.254592v-.101472c-5.18187096.530784-9.22316129 4.875072-9.22316129 10.15584 0 5.63904 4.60819355 10.210464 10.29280642 10.210464 5.6845162 0 10.2927097-4.571424 10.2927097-10.210464 0-5.245536-3.9876774-9.5664-9.1197097-10.144128z"/></g></g></svg>