<?xml version="1.0" encoding="UTF-8"?>
<svg width="23px" height="26px" viewBox="0 0 23 26" version="1.1" xmlns="http://www.w3.org/2000/svg" xmlns:xlink="http://www.w3.org/1999/xlink">
    <!-- Generator: Sketch 50.2 (55047) - http://www.bohemiancoding.com/sketch -->
    <title>Group 8</title>
    <desc>Created with Sketch.</desc>
    <defs>
        <polygon id="path-1" points="0 0.0522663934 0.359689355 0.0522663934 0.359689355 4.63945492 0 4.63945492"></polygon>
        <polygon id="path-3" points="0 25.9483197 22.9682028 25.9483197 22.9682028 -2.84217094e-14 0 -2.84217094e-14"></polygon>
    </defs>
    <g id="Future-Project-Desktop" stroke="none" stroke-width="1" fill="none" fill-rule="evenodd">
        <g id="maps" transform="translate(-1150.000000, -419.000000)">
            <g id="about-us/map" transform="translate(48.000000, 44.000000)">
                <g id="map-markers" transform="translate(417.000000, 317.000000)">
                    <g id="Group-8" transform="translate(685.000000, 58.000000)">
                        <rect id="Rectangle-11" fill="#FFFFFF" fill-rule="nonzero" x="12.5454545" y="0" width="2.43939394" height="1.75675676"></rect>
                        <ellipse id="Oval-9" fill="#FFFFFF" fill-rule="nonzero" cx="11.3257576" cy="14.4054054" rx="11.3257576" ry="11.2432432"></ellipse>
                        <g id="Group-86">
                            <path d="M11.06017,25.8738254 C13.429912,25.8738254 15.6248751,25.1076779 17.4136816,23.8093828 L4.70655253,23.8093828 C6.49546498,25.1076779 8.69032212,25.8738254 11.06017,25.8738254" id="Fill-1" fill="#5CD8FF"></path>
                            <path d="M15.8442442,9.6028123 L16.4211521,9.6028123 C16.5879816,9.6028123 16.7239677,9.7372877 16.7265115,9.90490246 L16.7265115,11.7466402 L17.8563733,11.7466402 C18.0250046,11.7466402 18.1617327,11.8839926 18.1617327,12.0535254 L18.1617327,13.2063697 L21.803682,13.2063697 C21.0516774,8.46712377 17.261235,4.73367295 12.5097742,4.09486148 L12.5097742,5.30545984 C14.3951382,5.91134508 15.7184332,7.61690246 15.8442442,9.6028123" id="Fill-3" fill="#5CD8FF"></path>
                            <path d="M4.06456636,11.528027 C4.06456636,11.3584943 4.20118848,11.2210352 4.36981982,11.2210352 L5.49978756,11.2210352 L5.49978756,9.37695328 C5.49978756,9.20742049 5.63640968,9.07006803 5.80504101,9.07006803 L6.38205484,9.07006803 C6.50744194,7.08479754 7.82967696,5.37945328 9.7140871,4.77271557 L9.7140871,3.56243689 C4.96135438,4.20252705 1.17048802,7.93885492 0.421451152,12.6808713 L4.06456636,12.6808713 L4.06456636,11.528027 Z" id="Fill-5" fill="#5CD8FF"></path>
                            <polygon id="Fill-7" fill="#000000" points="11.4817484 5.15944426 11.4829108 5.15944426 11.4840733 5.15944426"></polygon>
                            <path d="M5.13047327,23.2766492 L17.8377083,23.2766492 C18.1088327,23.0798377 18.3708419,22.8710918 18.62257,22.6506246 L4.34571751,22.6506246 C4.59733963,22.8710918 4.85934885,23.0798377 5.13047327,23.2766492" id="Fill-9" fill="#000000"></path>
                            <path d="M12.9337373,2.94906066 L12.9337373,2.74489672 C12.9338433,2.58005246 12.8043226,2.44451148 12.6404608,2.43801148 L11.7894608,2.43801148 L11.7894608,0.306970492 C11.7894608,0.137437705 11.6527327,8.52459016e-05 11.4841014,8.52459016e-05 C11.31547,8.52459016e-05 11.1787419,0.137437705 11.1787419,0.306970492 L11.1787419,2.43801148 L10.3373871,2.43801148 C10.1687558,2.43801148 10.0320276,2.57547049 10.0320276,2.74489672 L10.0320276,2.94938033 C10.5077143,2.88874918 10.9924101,2.85742131 11.4841014,2.85742131 C11.9750507,2.85742131 12.4588986,2.88864262 12.9337373,2.94906066" id="Fill-11" fill="#000000"></path>
                            <path d="M15.6576157,9.07002541 L7.31062949,9.07002541 C7.46802581,6.86908279 9.28809954,5.1633123 11.4828507,5.15947623 L11.4817908,5.15947623 L11.4841226,5.15947623 L11.4828507,5.15947623 C13.6785558,5.16203361 15.5001134,6.86812377 15.6576157,9.07002541 Z M16.5398829,9.67665656 L16.5398829,11.2138533 L6.42592442,11.2138533 L6.43323779,9.67665656 L16.5398829,9.67665656 Z M17.9751041,11.8300746 L17.9751041,12.9830254 L17.9751041,19.3805172 L14.8498599,19.3805172 L14.8498599,11.8300746 L17.9751041,11.8300746 Z M11.789482,19.3805172 L14.2319336,19.3805172 L14.2319336,11.8300746 L11.789482,11.8300746 L11.789482,19.3805172 Z M8.73387373,19.3805172 L11.1787631,19.3805172 L11.1787631,11.8300746 L8.73387373,11.8300746 L8.73387373,19.3805172 Z M8.11605346,19.3805172 L4.99070323,19.3805172 L4.99070323,11.8300746 L4.99070323,11.8277303 L8.11605346,11.8277303 L8.11605346,19.3805172 Z M12.3255834,4.6253041 C11.7694498,4.51991885 11.1987954,4.51991885 10.6427677,4.6253041 L10.6427677,3.49718115 C10.4374636,3.5130582 10.2339613,3.53522213 10.0320488,3.56239426 L10.0320488,4.77267295 C8.1477447,5.37941066 6.82540369,7.08475492 6.70001659,9.07002541 L6.12300276,9.07002541 C5.95437143,9.07002541 5.81774931,9.20748443 5.81774931,9.37691066 L5.81774931,11.2210992 L4.68778157,11.2210992 C4.51915023,11.2210992 4.38252811,11.3585582 4.38252811,11.5279844 L4.38252811,12.6809352 L0.739412903,12.6809352 C0.708251613,12.8782795 0.681859908,13.0771156 0.661403687,13.2778697 L4.38252811,13.2778697 L4.38252811,19.3684762 L3.18048664,19.3684762 C3.0118553,19.3684762 2.87512719,19.5059352 2.87512719,19.675468 L2.87512719,21.0046648 L2.81556037,21.0048779 C3.02775392,21.2857631 3.25309032,21.5559926 3.49061567,21.8147139 L3.49061567,19.99205 L19.4776295,19.99205 L19.4759336,21.816632 C19.7121871,21.5594025 19.9361456,21.2909844 20.1472793,21.0120172 L20.093118,21.0120172 L20.093118,19.6827139 C20.093118,19.5131811 19.9563899,19.3757221 19.7877585,19.3757221 L18.5857171,19.3757221 L18.5857171,13.2899107 L22.3081134,13.2899107 C22.2872332,13.0826566 22.2598876,12.8773205 22.2275604,12.6735828 L18.5857171,12.6735828 L18.5857171,11.5207385 C18.5857171,11.3512057 18.4489889,11.2138533 18.2803576,11.2138533 L17.1504959,11.2138533 L17.1504959,9.37211557 C17.1479521,9.20450082 17.0118599,9.07002541 16.8451364,9.07002541 L16.2682286,9.07002541 C16.1424175,7.08411557 14.8191226,5.3785582 12.9337585,4.77267295 L12.9337585,3.56207459 C12.732588,3.53500902 12.5299336,3.51295164 12.3255834,3.49718115 L12.3255834,4.6253041 Z" id="Fill-13" fill="#000000"></path>
                            <path d="M20.9450507,16.9920016 C21.1182396,16.9920016 21.2585714,16.8509197 21.2585714,16.6768049 L21.2585714,14.2846984 C21.2585714,14.1105836 21.1182396,13.9695016 20.9450507,13.9695016 C20.7719677,13.9695016 20.6316359,14.1105836 20.6316359,14.2846984 L20.6316359,16.6768049 C20.6316359,16.8509197 20.7719677,16.9920016 20.9450507,16.9920016" id="Fill-15" fill="#000000"></path>
                            <path d="M2.06989401,13.969523 C1.89670507,13.969523 1.75647926,14.1106049 1.75647926,14.2847197 L1.75647926,16.6768262 C1.75647926,16.850941 1.89670507,16.992023 2.06989401,16.992023 C2.24308295,16.992023 2.38341475,16.850941 2.38341475,16.6768262 L2.38341475,14.2847197 C2.38341475,14.1106049 2.24308295,13.969523 2.06989401,13.969523" id="Fill-17" fill="#000000"></path>
                            <path d="M2.62514839,21.6379672 L2.54179677,21.6379672 C2.65208065,21.7742607 2.76523871,21.9079004 2.88137742,22.0389926 L2.88137742,21.9425045 C2.79419355,21.8426197 2.70892581,21.7409303 2.62514839,21.6379672" id="Fill-19" fill="#000000"></path>
                            <path d="M2.62478756,21.6379672 C2.70856498,21.7409303 2.79383272,21.8426197 2.88101659,21.9425045 L2.88101659,21.6379672 L2.62478756,21.6379672 Z" id="Fill-21" fill="#000000"></path>
                            <path d="M20.0930862,21.9385238 L20.0930862,22.033632 C20.2075217,21.9042381 20.3191894,21.7724029 20.4278765,21.6379139 L20.3458023,21.6379139 C20.2631959,21.7394971 20.1792055,21.8399127 20.0930862,21.9385238" id="Fill-23" fill="#000000"></path>
                            <path d="M20.0930862,21.9385238 C20.1792055,21.8399127 20.2631959,21.7394971 20.3458023,21.6379139 L20.0930862,21.6379139 L20.0930862,21.9385238 Z" id="Fill-25" fill="#000000"></path>
                            <path d="M0.358100461,16.949027 L0.358100461,17.2681664 C0.704478341,18.6265598 1.2914553,19.8888385 2.06985161,21.0070516 L2.14976866,21.0068385 C1.30788387,19.8038057 0.690381567,18.4308139 0.358100461,16.949027" id="Fill-27" fill="#000000"></path>
                            <path d="M0.604136866,14.4028811 C0.604136866,14.0231107 0.623639171,13.6478156 0.661371889,13.2778484 L0.358132258,13.2778484 L0.358132258,16.9490697 C0.690307373,18.43075 1.30791567,19.8038484 2.14980046,21.0068811 L2.81552857,21.0049631 C1.42853318,19.168873 0.604136866,16.8809795 0.604136866,14.4028811" id="Fill-29" fill="#000000"></path>
                            <path d="M11.4847479,25.8837139 C8.73524101,25.8837139 6.21308433,24.9055172 4.2434576,23.2766811 L4.1457341,23.2766811 C6.13719493,24.9438779 8.69602442,25.9482877 11.484112,25.9482877 C14.2721995,25.9482877 16.831029,24.9438779 18.8223839,23.2766811 L18.7260382,23.2766811 C16.7564115,24.9055172 14.2342548,25.8837139 11.4847479,25.8837139" id="Fill-31" fill="#000000"></path>
                            <path d="M11.4841332,25.3410385 C9.11428525,25.3410385 6.91942811,24.574891 5.13051567,23.2765959 L4.2434788,23.2765959 C6.21310553,24.9055385 8.73515622,25.8837352 11.4847691,25.8837352 C14.234276,25.8837352 16.7564327,24.9055385 18.7260594,23.2765959 L17.8376447,23.2765959 C16.0488382,24.574891 13.8538751,25.3410385 11.4841332,25.3410385" id="Fill-33" fill="#000000"></path>
                            <path d="M22.7601429,12.6736148 L22.839424,12.6736148 C22.0778802,7.59881967 18.0189631,3.59588525 12.9337373,2.94908197 L12.9337373,3.04082787 C17.9794286,3.68390164 21.9969032,7.64080328 22.7601429,12.6736148" id="Fill-35" fill="#000000"></path>
                            <path d="M12.9337373,3.04078525 L12.9337373,3.56206393 C17.6851982,4.20087541 21.4756406,7.93432623 22.2276452,12.6735721 L22.7601429,12.6735721 C21.9969032,7.64076066 17.9793226,3.68385902 12.9337373,3.04078525" id="Fill-37" fill="#000000"></path>
                            <path d="M3.49062627,22.6501002 L3.54705801,22.6501002 C3.52814175,22.6318399 3.50943685,22.613474 3.49062627,22.5951082 L3.49062627,22.6501002 Z" id="Fill-39" fill="#000000"></path>
                            <path d="M3.49062627,21.8147672 L3.49062627,22.5950869 C3.50949263,22.6137344 3.528253,22.6321689 3.54722535,22.6506033 L4.34565392,22.6506033 C4.0457,22.3878328 3.76037281,22.1086525 3.49062627,21.8147672" id="Fill-41" fill="#000000"></path>
                            <path d="M10.0320382,3.04120082 L10.0320382,2.94934836 C4.94564654,3.59743033 0.886411521,7.60334836 0.127835484,12.6809139 L0.208282488,12.6809139 C0.968660369,7.64586475 4.98581705,3.68608607 10.0320382,3.04120082" id="Fill-43" fill="#000000"></path>
                            <path d="M10.0320382,3.56239426 L10.0320382,3.04122213 C4.98581705,3.68610738 0.968660369,7.64588607 0.208282488,12.6809352 L0.739402304,12.6809352 C1.48854516,7.93891885 5.27930553,4.20248443 10.0320382,3.56239426" id="Fill-45" fill="#000000"></path>
                            <path d="M20.8161765,21.0119959 L20.8949276,21.0119959 C21.6704622,19.8992172 22.2563793,18.6436516 22.603923,17.2925041 L22.604241,16.9819959 C22.2697341,18.4533402 21.6536097,19.8166352 20.8161765,21.0119959" id="Fill-47" fill="#000000"></path>
                            <path d="M22.308124,13.2899107 C22.3451147,13.6559352 22.3639811,14.0271811 22.3639811,14.4029025 C22.3639811,16.884091 21.537465,19.1747549 20.1472899,21.0120172 L20.8161977,21.0120172 C21.6536309,19.81655 22.2697553,18.4533615 22.6042622,16.9819107 L22.6076539,13.2899107 L22.308124,13.2899107 Z" id="Fill-49" fill="#000000"></path>
                            <path d="M19.4750986,22.6501334 L19.4750986,22.5986246 C19.4575562,22.6158294 19.4400137,22.6330342 19.4222599,22.6501334 L19.4750986,22.6501334 Z" id="Fill-51" fill="#000000"></path>
                            <path d="M18.62257,22.6506246 L19.4222705,22.6506246 C19.440077,22.6333623 19.4576714,22.6159934 19.4752659,22.5986246 L19.4760078,21.8166 C19.2066853,22.1097393 18.921888,22.3883869 18.62257,22.6506246" id="Fill-53" fill="#000000"></path>
                            <path d="M20.3447083,21.6379672 L20.4264272,21.6379672 C20.589441,21.4347623 20.7456714,21.226123 20.8949065,21.0119426 L20.8161553,21.0119426 C20.6660724,21.2262295 20.508676,21.4348689 20.3447083,21.6379672" id="Fill-55" fill="#000000"></path>
                            <path d="M19.4752553,22.5986459 L19.4752553,22.6506459 L19.4222599,22.6506459 C19.1988313,22.8685557 18.9667115,23.0776213 18.7261124,23.2766705 L18.8224581,23.2766705 C19.2770525,22.8960475 19.7017576,22.4807934 20.0930756,22.0351705 L20.0930756,21.9396951 C19.8959327,22.1676213 19.6894627,22.3871295 19.4752553,22.5986459" id="Fill-57" fill="#000000"></path>
                            <path d="M17.8376765,23.2766492 L18.7260912,23.2766492 C18.9666903,23.0776 19.1988101,22.8685344 19.4222387,22.6506246 L18.6225382,22.6506246 C18.3708101,22.8710918 18.1089069,23.0798377 17.8376765,23.2766492" id="Fill-59" fill="#000000"></path>
                            <path d="M19.475976,21.8165893 L19.4752341,22.5986139 C19.6895475,22.3870975 19.8959115,22.1675893 20.0930544,21.9396631 L20.0930544,21.6379992 L20.3446765,21.6379992 C20.5086442,21.4349008 20.6661465,21.2261549 20.8162295,21.0119746 L20.1473217,21.0119746 C19.936188,21.2909418 19.7122295,21.5594664 19.475976,21.8165893" id="Fill-61" fill="#000000"></path>
                            <path d="M22.8404479,12.6736148 L22.7608221,12.6736148 C22.8473673,13.2418852 22.8922899,13.8239016 22.8922899,14.4163607 C22.8922899,15.2984426 22.7926512,16.157082 22.6042318,16.9819426 L22.6039124,17.2925574 C22.8426834,16.3687049 22.9697866,15.4003115 22.9697866,14.4029344 C22.9697866,13.8152705 22.9253963,13.2378361 22.8404479,12.6736148" id="Fill-63" fill="#000000"></path>
                            <path d="M22.308124,13.2899107 L22.6076539,13.2899107 L22.6042622,16.9819107 C22.7917599,16.15705 22.8910733,15.2984107 22.8910733,14.4164352 C22.8910733,13.8238697 22.8463452,13.2419598 22.7601747,12.6735828 L22.227571,12.6735828 C22.2598982,12.8773205 22.2872438,13.0826566 22.308124,13.2899107" id="Fill-65" fill="#000000"></path>
                            <g id="Group-69" transform="translate(0.000000, 12.628648)">
                                <mask id="mask-2" fill="white">
                                    <use xlink:href="#path-1"></use>
                                </mask>
                                <g id="Clip-68"></g>
                                <path d="M0.0787635484,1.78776639 C0.0787635484,1.1977582 0.123366774,0.618192623 0.209273226,0.0522663934 L0.12837,0.0522663934 C0.0440603226,0.614143443 -1.06451613e-05,1.18912705 -1.06451613e-05,1.77423361 C-1.06451613e-05,2.76297951 0.12507,3.72295492 0.359689355,4.63945492 L0.359689355,4.32042213 C0.176166774,3.50557787 0.0787635484,2.65802049 0.0787635484,1.78776639" id="Fill-67" fill="#000000" mask="url(#mask-2)"></path>
                            </g>
                            <path d="M0.661371889,13.2778377 C0.681828111,13.0771902 0.708219816,12.8782475 0.739381106,12.6809033 L0.208367281,12.6809033 C0.122832719,13.2468295 0.0784225806,13.8263951 0.0784225806,14.4164033 C0.0784225806,15.2867639 0.175404147,16.1342148 0.358132258,16.949059 L0.358132258,13.2778377 L0.661371889,13.2778377 Z" id="Fill-70" fill="#000000"></path>
                            <path d="M3.54723594,22.6506246 L3.49063687,22.6506246 L3.49063687,22.5951082 C3.27897327,22.3859361 3.075047,22.1688787 2.87991797,21.943723 L2.87991797,22.0405836 C3.27007005,22.484182 3.69307926,22.8976246 4.14565991,23.2766492 L4.24338341,23.2766492 C4.00278433,23.0776 3.77066452,22.8685344 3.54723594,22.6506246" id="Fill-72" fill="#000000"></path>
                            <path d="M2.14980046,21.0068385 L2.06988341,21.0070516 C2.22017834,21.2228303 2.37757465,21.4331746 2.54175438,21.6379779 L2.62474516,21.6379779 C2.45950553,21.4332811 2.30104931,21.2228303 2.14980046,21.0068385" id="Fill-74" fill="#000000"></path>
                            <path d="M4.34568571,22.6506246 L3.54725714,22.6506246 C3.77068571,22.8685344 4.00280553,23.0776 4.24340461,23.2766492 L5.13044147,23.2766492 C4.85942304,23.0798377 4.59730783,22.8710918 4.34568571,22.6506246" id="Fill-76" fill="#000000"></path>
                            <path d="M2.81554977,21.0049205 L2.14982166,21.0068385 C2.30107051,21.2228303 2.45952673,21.4332811 2.62476636,21.6379779 L2.87988618,21.6379779 L2.87988618,21.943691 C3.07501521,22.1688467 3.27894147,22.3859041 3.49060507,22.5950762 L3.49060507,21.8147566 C3.25307972,21.5560352 3.02774332,21.2858057 2.81554977,21.0049205" id="Fill-78" fill="#000000"></path>
                            <path d="M11.4847479,2.9487082 C11.9755912,2.9487082 12.4592272,2.97980943 12.9337479,3.04010123 L12.9337479,2.9487082 C12.4588032,2.88852254 11.9750613,2.85742131 11.484112,2.85742131 C10.9923147,2.85742131 10.5077249,2.88862869 10.0320382,2.94902664 L10.0320382,3.04052582 C10.5077249,2.97991557 10.9925267,2.9487082 11.4847479,2.9487082" id="Fill-80" fill="#000000"></path>
                            <path d="M10.6427253,3.49714918 L10.6427253,3.0518459 L12.325541,3.0518459 L12.325541,3.49714918 C12.5299972,3.51291967 12.7326516,3.53497705 12.9337161,3.56204262 L12.9337161,3.04076393 C12.4593014,2.98023934 11.9755594,2.94901803 11.4847161,2.94901803 C10.9926009,2.94901803 10.5077991,2.98045246 10.0320065,3.04119016 L10.0320065,3.5623623 C10.2340249,3.53519016 10.4374212,3.51302623 10.6427253,3.49714918" id="Fill-82" fill="#000000"></path>
                            <mask id="mask-4" fill="white">
                                <use xlink:href="#path-3"></use>
                            </mask>
                            <g id="Clip-85"></g>
                            <path d="M12.7061751,1.54604098 L14.7527512,1.54604098 L14.7527512,0.46395082 L12.7061751,0.46395082 L12.7061751,1.54604098 Z M12.4809447,1.99890984 L14.9778756,1.99890984 C15.1023088,1.99890984 15.203106,1.89757377 15.203106,1.77247541 L15.203106,0.237516393 C15.203106,0.112418033 15.1023088,0.0110819672 14.9778756,0.0110819672 L12.4809447,0.0110819672 C12.3565115,0.0110819672 12.2557143,0.112418033 12.2557143,0.237516393 L12.2557143,1.77247541 C12.2557143,1.89757377 12.3565115,1.99890984 12.4809447,1.99890984 Z" id="Fill-84" fill="#000000" mask="url(#mask-4)"></path>
                        </g>
                    </g>
                </g>
            </g>
        </g>
    </g>
</svg>