<svg height="27" viewBox="0 0 23 27" width="23" xmlns="http://www.w3.org/2000/svg" xmlns:xlink="http://www.w3.org/1999/xlink"><mask id="a" fill="#fff"><path d="m.09979032.06198307h3.79537097v8.82496063h-3.79537097z" fill="none"/></mask><mask id="b" fill="#fff"><path d="m.08094581.06315929h.10457837v.20944882h-.10457837z" fill="none"/></mask><mask id="c" fill="#fff"><path d="m.09287903.06315929h.09273194v.20944882h-.09273194z" fill="none"/></mask><mask id="d" fill="#fff"><path d="m0 .04059567h1.31414793v7.54384252h-1.31414793z" fill="none"/></mask><mask id="e" fill="#fff"><path d="m.08458065.0945h4.32474193v3.77027362h-4.32474193z" fill="none"/></mask><mask id="f" fill="#fff"><path d="m.03267696.08925661h1.29351152v.12115375h-1.29351152z" fill="none"/></mask><g fill="none" fill-rule="evenodd"><circle cx="11" cy="15" fill="#fff" fill-rule="nonzero" r="11"/><g transform=""><path d="m16.6744276 5.79422598c-.2084838-.11226456-.4214193-.21740787-.6377465-.31637244v.31637244z" fill="#aa59fa"/><path d="m18.5182572 7.1669317c.012787-.02164025.025891-.04317494.038995-.06470963-.0233547-.01995125-.0468151-.03958582-.0703812-.05943152l-.0175424.02100688z" fill="#aa59fa"/><path d="m10.1464184 4.55941772c-.1234838.01497559-.24622255.03215039-.36853545.05121023l.08750323.14619528z" fill="#aa59fa"/><path d="m17.6220544 6.3765811c-.1466903-.09885984-.2958291-.1943685-.4476291-.28631653l-.0114967.11362598z" fill="#aa59fa"/><path d="m13.6306161 4.53129094-.4956129.40659449-.4955069.63258662.1351383.18070866h.1801843l1.081212-.58740945.1801843.36152362 1.3433272-.3911811c-.6766452-.30933071-1.3902811-.55073622-2.1322166-.71624409l.023106.02306692z" fill="#5cd8ff"/><path d="m11.4232309 6.02222244.1350322-.18070866v-.1355315l.3604747-.54223228.3603687-.81318898.0415483-.11979921c-.1931152-.02232283-.3878202-.03964961-.5839032-.05176772l-.3586728 1.79805119z" fill="#5cd8ff"/><path d="m14.934377 11.4517949c-.0609447-.257563-.0917881-.5211851-.0917881-.7869331 0-.1336181.0087973-.2653228.023954-.3953268l-.1098065-.63290547-.0450461-.04517717-.2701705.18070866-1.0361659-1.08425196-.2253364-.36152363-.1350322.271063-.9010277-.40659449-.0450461.04517716.3603687.49694882-.2702765.22599213 1.081212 1.17471255v.1355315l-.4504609.1807087-.045152.0451772.8559815.9487204-.0250138.0941811c.1905714-.0550629.391-.0862086.5989539-.0862086z" fill="#5cd8ff"/><path d="m10.4771783 5.25415748.0384747-1.08297638c-.2514101.01264961-.5003825.03433465-.74723503.06388583l.61856223 1.01909055z" fill="#5cd8ff"/><path d="m17.1326576 7.44434646-.1233733-.24746457-.1801843.27116929-.4054147-.36152362-1.0361659-.67765748-.0451521.36141732-.7206314-.22588583h-.2703824l-.9009217-.13553149v.13553149l.1801843.22588583-.2703825.09035433-.585599.1355315-.1351383.13553149v.18070867l1.6668111.04528346.0450461.04507087-.1351383.22588582 1.5316728.58740945-.2252304.36141732.0132489.01254331c.402023-.53096456.9554009-.94212992 1.5967511-1.16567716" fill="#5cd8ff"/><path d="m10.612359 17.2720913-.0901982-6.8221771.0450461-1.58130711-.0450461-.04517717-.4504608.49694882-.22523041-.31624016-.13513825.09035433-.18018434.99389769-.36047465.4518779h-.08998617l-.27038249-.2259921-.36026268.9940039-.09019815.2258858-1.3064424 1.4909528-.31532258-1.4004921v-.4067008l.67579724-1.1295354-.31542858-.22588588.45056682-.81318897.49540093-.36141732 1.08131797-.49705512.04494009-.04507087-.13513825-.13563779-.18007834-.04517717.22523042-.18070866.85587557-.04517717v-.04517716l-.7658894-.22588583-.540553.1355315h-.45046082l-.40541475.22588582h-.04504608l-.13524424-.27106299-.99101383.67776378-.45046083.18060236-.13524424-.45177165-.45046083.27116929-1.21624424 1.0390748-.45056682.31624016h-.04494009l.40541475-1.85237008.40541474-.36141732.7658894-.27106299.0449401-.04517717-.2702765-.27106299.04504608-.09046063 1.89204148-.54212598 1.0361659.22588582.09009216-.09035433-.09009216-.31624015.04504608-.04517717.2702765.18070866 1.08121198.54212599.04494009-.04517717-.540447-.67765748-.31542858-.22588583v-.13553149l.09019816-.22599213-.04515207-.09035433-1.91832719-.26224016c-3.10902765 1.29940158-5.49254839 4.00546063-6.35541936 7.3215709 1.99146083.2687244 3.54284793 1.9491023 3.61513364 4.0012086h2.91612443c1.19748387 0 2.17185714.9772087 2.17185714 2.1781772 0 1.2010748-.97437327 2.1782835-2.17185714 2.1782835h-5.33356221c1.85081106 3.0868228 5.18093548 5.1844252 8.9995714 5.2988031l-.0313732-4.1798976z" fill="#5cd8ff"/><path d="m12.0326779 13.6299933c0-.4892953.1636497-.9398976.436258-1.3039724l-.0545852-.4755827-.3604747.0451772-.2252304-.6776575.1351383-.6325866v-.1355315l-.3153226.0451771-.0450461-.49694879h-.0900922v.76811809l.0900922.542126v1.1746063l.2252304 7.3644095.1801844 4.9246299.0146267 1.1603622c5.3063226-.4679292 9.5309032-4.772941 9.8909539-10.1241496h-7.7098756c-1.1975898 0-2.1718571-.9771024-2.1718571-2.1781772" fill="#5cd8ff"/><path d="m18.8791207 7.39072913c-.0481198.0813189-.0940138.16433859-.138.24863386l.1336544.28307481-.2702765 1.08435826-.8108295-.76811811-.046-.09216141c-.5987419.19601574-1.1130092.57869291-1.4778295 1.07606692l.4875576.46187008.4956129.85836616-.3153225.1356378.1801843 1.6263779-.0450461 1.265067h-.0900922l-.9010276-1.084252-.1801843-1.1747126-.0450461-.0451772-.1426636.0715394c.023318.1964409.0639124.3905433.125917.5795433l.0915761.2790354h-1.3028387c-.2616913 0-.5093917.0596339-.7326083.1635945l-.0215162.081-.3153225.1807087v.6324803l-.1351383.8584724h-.0451521l-.3954516-.7493031c-.0651843.1835787-.102705.3802323-.102705.5860276 0 .966685.7842258 1.7530866 1.747894 1.7530866h7.7306497c.0029678-.1052363.0049816-.2106851.0049816-.3166654 0-3.1549606-1.3429032-6.00090943-3.484977-7.99455117" fill="#fff"/><path d="m17.6517369 7.95418937-.0950738-.19091339c-.6413502.22344095-1.1948341.6347126-1.5968571 1.16557087l.1520968.14403543c.3841106-.51501968.919152-.91002756 1.5398341-1.11869291" fill="#000"/><path d="m14.6285194 11.9832378h1.0097741c-.0791751-.2415118-.1302626-.4957795-.1500829-.7587638l-.1272949-.2298189-.0703779-.4061693c-.0151567.1298977-.0239539.2616024-.0239539.3952205 0 .265748.0308433.5294764.091788.7869331h-.7298525c-.207954 0-.4084885.0312519-.598954.0862086l-.0650783.2445945c.2076359-.0751535.4306405-.1182047.6640323-.1182047" fill="#000"/><path d="m12.6686226 13.9488378c0-.3566339.0961336-.6900945.2617972-.9784843l-.0375207-.3253818c-.2726083.3640748-.4362581.8145708-.4362581 1.3038661 0 1.2010748.9742673 2.1782835 2.1718572 2.1782835h7.7098755c.0047696-.0707953.0092212-.1415906.0127189-.2125985h-7.7225944c-1.0823779 0-1.9598756-.8801574-1.9598756-1.965685" fill="#000"/><path d="m18.6290161 7.39657717c.0294871-.05183859.0597194-.103363.0908033-.15415434-.0536517-.04702126-.1075162-.09372834-.1621259-.13980708-.0132.02136378-.0264.04272756-.0392806.06419606z" fill="#000"/><path d="m12.8806041 13.9488909c0-.2057952.0375208-.4025551.1027051-.5861338l-.0099631-.0187087-.0429263-.3736417c-.1656636.2882835-.2617972.6218504-.2617972.9784842 0 1.0855276.8774977 1.9655788 1.9598756 1.9655788h7.7225944c.0033917-.070689.0060415-.1415906.0080553-.2125984h-7.7306497c-.9637742 0-1.7478941-.7862953-1.7478941-1.7529804" fill="#000"/><path d="m18.7416419 7.63354449c.0441775-.08304646.090271-.16483622.1386-.2449504-.0532258-.04859212-.1067709-.0965559-.1609548-.14410078-.0310839.05089606-.0612097.10231575-.0906968.15415433z" fill="#000"/><path d="m15.4882424 11.2244528c.0198203.2630905.0709078.5172519.1500829.7587637h-1.0097741c-.2333918 0-.4563964.0430512-.6640323.1182048l-.068576.2579881c.2231106-.1038543.470811-.1634881.7326083-.1634881h1.3027327l-.0915761-.2790355c-.0620046-.1891063-.1024931-.3831023-.125917-.5795433l-.1276129.0639921z" fill="#000"/><path d="m16.111871 9.07293543.1579262.14966929c.3649263-.49737401.8790876-.88015748 1.4779355-1.07606692l-.0960276-.19229528c-.6206821.20866535-1.1557235.60356693-1.5398341 1.11869291" fill="#000"/><path d="m9.23965115 18.811761c0-.966685-.78411981-1.7529803-1.74789401-1.7529803h-3.34210138l.00466359-.275315c0-1.9192322-1.4397788-3.5064921-3.29270967-3.7351417-.16460369.7532362-.25215208 1.5349606-.25215208 2.3369882 0 1.873311.47335484 3.6376654 1.30623042 5.1794291h5.57606912c.9637742 0 1.74789401-.7862952 1.74789401-1.7529803" fill="#fff"/><g fill="#000"><path d="m9.66361429 18.811761c0-1.2010748-.97426729-2.1781771-2.17185715-2.1781771h-2.91601843c-.07239171-2.0522126-1.6237788-3.7324843-3.61513364-4.0012087-.01791244.0688819-.03487097.1380827-.05151152.2076024 1.94991244.2504409 3.45720737 1.9197637 3.45720737 3.9433818 0 .0210473-.00127189.0417756-.00158986.0627166h3.12694009c1.08248387 0 1.95998157.8800512 1.95998157 1.965685 0 1.0855276-.8774977 1.9655788-1.95998157 1.9655788h-5.45778341c.04059447.071433.08214286.1422283.12432719.2125984h5.33356221c1.19758986 0 2.17185715-.9771024 2.17185715-2.1781772"/><path d="m9.45163272 18.8117185c0-1.0855276-.8774977-1.9655787-1.95998157-1.9655787h-3.12694009c.00031797-.020941.00158986-.0416693.00158986-.0627166 0-2.0236181-1.50729493-3.6930472-3.45720737-3.9434882-.01653456.0692008-.03232719.1387205-.04748387.2084528 1.85293087.2286496 3.29270967 1.8159094 3.29270967 3.7350354l-.00466359.275315h3.34210138c.9637742 0 1.74789401.7864016 1.74789401 1.7529803 0 .966685-.78411981 1.7530866-1.74789401 1.7530866h-5.57606912c.03858064.0713268.07800922.1421221.11817972.2124921h5.45778341c1.08248387 0 1.95998157-.8800511 1.95998157-1.9655787"/><path d="m.42295622 12.5942988c.83743318-3.34948817 3.14707834-6.1127362 6.19950691-7.55829919l-.23116589.0266811c-2.978553 1.485-5.22725346 4.22847638-6.04995392 7.53257479.01982027-.0003189.03953456-.0014882.05946083-.0014882.00741935 0 .01473272.0005315.02215207.0005315"/><path d="m12.9228309 4.03339685.0269216-.07644882c-.3183963-.04021417-.6411382-.06660472-.9670599-.08042834l-.0138848.0789622c.3215761.01319528.6398664.03895748.9540231.07791496"/><path d="m11.1648783 3.94936417-.0413364-.07791496c-.5701244.0175937-1.1300737.0759252-1.67656218.17310945l.04313825.07246929c.54595853-.09519449 1.10516593-.15205984 1.67476033-.16766378"/><path d="m18.8584207 6.65654173c.0150507-.02019685.0302074-.0401811.0454701-.06016535-1.2486774-1.06150394-2.725235-1.86076772-4.3450922-2.31222047l-.1192396.04942913c1.6503825.44252362 3.1531198 1.24667716 4.4188617 2.32295669"/><path d="m1.54171014 20.9899701h-.0874424c1.91663134 3.4370787 5.53770046 5.7940512 9.70801386 5.9106614l-.000636-.0806811c-4.13226265-.1159724-7.71432717-2.4362717-9.61993546-5.8299803"/><path d="m12.4541608 26.7835323.0010599.0806811c5.6389217-.4744134 10.131765-5.0513386 10.4938295-10.7371772h-.080447c-.3607926 5.650441-4.8110276 10.1844213-10.4144424 10.6564961"/><path d="m13.8512889 4.7367248c.7419355.16561418 1.4555715.40691339 2.1322166.7162441l.0532074-.01541339v.0403937c.2163272.10034646.4292627.20707087.6377465.32102362h.1281429l.4054148-.04517716-.0335991.33643701c.1510368.09333071.2996359.19027559.4456912.29062204l1.0744286.41212205-.207636.24980315c.023636.01998425.0472719.03975591.0705899.05984646.0939078-.15381496.1942811-.30263386.3009078-.4460315-1.2657419-1.07627953-2.7684792-1.88053937-4.4188617-2.32295669l-.7003871.29062205z"/><path d="m12.1624742 4.48872874-.0018018.00914173c.1960829.01211811.390788.02944488.5839032.05187402l.1782765-.51395669c-.3141567-.03954331-.632447-.06569292-.9540231-.07908662l-.0766313.44167323z"/><path d="m2.15819493 20.9899701h-.6164424c1.9056083 3.3937086 5.48767282 5.7140079 9.61993547 5.8299803l-.0039216-.5310709c-3.81863599-.1144842-7.14876041-2.2119803-8.99957147-5.2989094"/><path d="m12.4474304 26.2512602.0066774.5322402c5.6035208-.4720748 10.0537558-5.0059488 10.4144424-10.6563898h-.5301659c-.3600507 5.3512087-4.5847373 9.6562205-9.8909539 10.1241496"/><path d="m7.31598203 5.31072992-.06380645-.00871653.13513824-.271063h-.72073732l-.04409217.00510237c-3.05242857 1.44556299-5.36207373 4.20881102-6.19950691 7.55829924.18219816.0009567.36153456.0142441.53758525.0379488.86287097-3.31600395 3.24628572-6.0221693 6.35541936-7.32157088"/><path d="m10.144823 4.55941772.035507-.02551181.0120829.01998425c.2467465-.02944488.4958249-.05123622.747235-.06377953l.0065715-.18209055.3603686.04517716.0450461-.04517716-.1867558-.35748425c-.5695944.01583858-1.1288018.07355905-1.67476033.17018504l.28776498.49067716c.12178341-.01934646.24399075-.03677953.36694005-.05198031"/><path d="m3.81476728 8.57038465c0 .10587401-.00169585.21132283-.0045576.31655905h.080447c.00286175-.10523622.00455761-.21068504.00455761-.31655905 0-3.36649607-1.44741014-6.400063-3.75080185-8.50840158-.01515668.02009055-.02967742.0408189-.04462212.06112205 2.2827235 2.0918622 3.71497696 5.10172441 3.71497696 8.44727953" mask="url(#a)" transform="translate(19.078341 6.814949)"/><path d="m22.3640871 15.3853335c0 .105874-.0020138.2113228-.0049816.316559h.529424c.0029677-.1052362.0045576-.210685.0045576-.316559 0-3.3455552-1.4321475-6.35541736-3.714977-8.44727956-.1064147.14520472-.206576.2961496-.299.45272834 2.1420738 1.99353544 3.484977 4.83948422 3.484977 7.99455122"/><path d="m19.0194502 6.79238858c.0150097-.01989764.0301258-.03979527.0453484-.05958819-.0531193-.04597401-.106771-.09131968-.1607419-.1364559-.0153291.01968819-.0305516.03937638-.0456678.05927401.0540775.04513622.1078355.09069134.1610613.13677008"/><path d="m.09278168.06315929c-.00317033.06995591-.00729174.13970236-.01183587.20944882h.08010348c.00454413-.06974646.00877123-.13949291.01194155-.20944882z" mask="url(#b)" transform="translate(22.788018 15.850382)"/><path d="m22.3384161 16.1239398h.5301659c.0045576-.0697465.0086913-.1394929.011871-.2094489h-.529424c-.0033917.069956-.0078433.1397024-.0126129.2094489"/><path d="m18.7195959 7.24451457c.093358-.15477166.1939548-.30444095.3011516-.44922048-.0532258-.04677165-.1069839-.09301181-.1610613-.13872047-.1069839.14339764-.2079.29221654-.3021097.4461378.0545032.04666535.1083677.0940748.1620194.14180315"/><path d="m19.1788456 6.93506417c.0150097-.02000236.0294871-.04042362.0448162-.06021653-.0525871-.04723071-.1060259-.09372835-.159571-.14001654-.0152226.01979292-.0303387.03969055-.0453484.05958819.0537581.04649764.1073032.09320473.1601032.14064488"/><path d="m.10091052.06315929c-.0019022.06995591-.00486117.13970236-.00803149.20944882h.08020916c.00317033-.06974646.00612929-.13949291.00803149-.20944882z" mask="url(#c)" transform="translate(22.788018 15.637783)"/><path d="m22.3591161 15.7018925c-.0020138.0699559-.0046636.1398071-.0080553.2094488h.529424c.0031797-.0697464.0062534-.1394929.0080553-.2094488z"/><path d="m18.8798175 7.39072913c.0928258-.15657874.1933161-.30741732.3003-.45262204-.0528-.04815355-.1063451-.095563-.1601032-.14275985-.1070903.14467323-.2077936.29444882-.3011516.44922048.0541838.04815354.107729.09694488.1609548.14616141"/><path d="m.32493595.04059567c-.02723964.0005315-.05458526.00095669-.0817189.00212598-.15909217.76269685-.24324885 1.5528189-.24324885 2.36228741 0 1.8617244.44325346 3.62150787 1.22843318 5.17942913h.08574655c-.78878341-1.55515748-1.23373272-3.31515354-1.23373272-5.17942913 0-.8106378.08458064-1.60139764.24452074-2.36441339" mask="url(#d)" transform="translate(0 12.980303)"/><path d="m.86156728 13.0483559c-.15114286-.0187087-.3047235-.0293386-.46084792-.0293386-.02543779 0-.05045162.0013819-.07578341.0019134-.1599401.7629095-.24452074 1.5536693-.24452074 2.3644134 0 1.8642756.44494931 3.6242716 1.23373272 5.1794291h.60149769c-.83276958-1.5417638-1.30623041-3.3062244-1.30623041-5.1794291 0-.8020276.08754838-1.5838583.25215207-2.3369882"/><path d="m1.42548571 20.7773185h-.08686451c.03800322.0702701.07664516.1401213.11613871.2094488h.08782258c-.03970645-.0693275-.07888065-.1391787-.11709678-.2094488"/><path d="m.37111862 12.8038976c.01627432-.0701653.03381677-.1399118.0514649-.2095535-.00739742 0-.01468916-.0005236-.02219226-.0005236-.01986735 0-.03941767.0011519-.05917935.0014661-.01764813.0699559-.0350849.1401213-.0514649.2107055.02715909-.000733.05410683-.001885.08137161-.0020945"/><path d="m.90913595 12.8363169c.01664055-.068385.03349308-.1366653.05140553-.2045267-.1760507-.0234583-.3553871-.0365489-.53758526-.0374914-.01759447.0696418-.03518894.1393882-.05161751.2095536.00985714 0 .0195023-.0006284.02946544-.0006284.17234101 0 .34171428.0120433.5083318.0330929"/><path d="m2.03383594 20.7773185h-.60870506c.03805069.0702701.0770553.1401213.11658986.2094488h.61644239c-.04218433-.0693275-.08373272-.139074-.12432719-.2094488"/><path d="m1.22844378 20.5647732c.0360871.0702701.07313226.1400166.11060322.2094488h.08686452c-.03779032-.0694322-.07504839-.1391787-.11134839-.2094488z"/><path d="m.32469434 13.0177303c.01490052-.0703748.03001239-.1407496.04628671-.2107055-.02726477.0002095-.05421251.0013614-.08137161.0020945-.01606297.0699559-.03149187.140226-.04639239.2107055.02705342-.001152.05431819-.0015709.08147729-.0020945"/><path d="m1.91567742 20.5647732h-.6014977c.03614286.0702701.07334563.1400166.11097235.2094488h.60870507c-.0401705-.0694322-.07959908-.1391787-.11817972-.2094488"/><path d="m.40076175 13.0158252c.15612443 0 .30959908.0105772.46084793.0289039.01515668-.0685945.03094931-.1370842.04748387-.2052598-.16651152-.0210496-.33599078-.0330929-.5083318-.0330929-.00985714 0-.01960829.0006283-.02935945.0006283-.01632258.0699559-.03147926.1403307-.04642396.2107055.02522581-.0005236.05034562-.001885.07578341-.001885"/><path d="m9.41448295 3.99174803-.22523042-.36141732-1.0360599-.36141732-.7658894-.1355315v.54212598l-1.12615208-.45177165-1.39664055.94872047-.76578341.67776378 1.39653456.31624016.89604608-.10374803c.95179724-.47441339 1.97768203-.82094882 3.05571429-1.01558268z"/><path d="m15.0456567 4.08211299.4504608-.40659449-.2252304-.22588582 1.1262581-.81329528-.1801844-.13553149.8558756-.85836615.4504608-.85847244h-1.0360599l-.8559815.40659449-.9910139 1.0391811-.3154285-.22588582-.1351383.13553149-.8109355 1.53612992-.1350322-.04517716h-.1801844l-.1137281.32782677c.5493503.07037008 1.0865116.18038976 1.6089401.32601969z"/><path d="m4.13936406 3.86477362.26995852-1.55653937-.22523041.09046063h-.18018434l.0449401-.9036496-.18018434-.22588583-.13513824-.36141732-.40541475-.271063v.31624016l-.90092166-.81318897-.40541475-.04528347-1.93719354.27116929.90092165.40659449.54065899.18070866.40541475.18070866-.31542857.22588583.45056682.45177165 1.21635023.72294095-.49561291.18070866.13524424.18070866.09009217.45177165.26752074.51225591c.12061751-.00372047.24155299-.00627165.36312442-.00627165.16629954 0 .33143318.00435826.49593088.01137401" mask="url(#e)" transform="translate(7.843318 .011799)"/><path d="m12.25263 20.1662469-.2252305-7.3644095v-1.1746063l-.0901981-.5422323v-.7680118h.0901981l.0450461.4969488.3152166-.0451771v.1355315l-.1350322.6325866.2252304.6776575.3603686-.0451772.0546913.4755827c.2804516-.3743859.6768571-.655441 1.1366451-.7881024l.0250139-.0940748-.8559816-.9488268.0451521-.0451771.4504608-.1807087v-.1355315l-1.081318-1.17471259.2703825-.22588583-.3603686-.49694882.045046-.04517717.9010277.40659449.1350322-.27106299.2253364.36141732 1.03606 1.08435829.2702765-.18070868.045046.04517717.1098065.63290551c.0721797-.61579134.310023-1.18523622.6693318-1.65954331l-.0132489-.01254331.2252305-.36141732-1.5316729-.58740945.1351383-.22588583-.0450461-.04517716-1.6668111-.04517717v-.18070866l.1351383-.13553149.5855991-.1355315.2703825-.09035433-.1801844-.22588583v-.13553149l.9009217.13553149h.2703825l.7206313.22588583.0451521-.36141732 1.0361659.67765748.4054147.36141732.1801844-.27106299.1233732.24746456c.2327558-.08110629.4769586-.13808267.7299586-.16635826.0715437-.14711811.149235-.28987796.2318018-.42912992l-.0490737-.10374804.0175944-.02125984c-.2774838-.23460236-.5666267-.45559842-.8667926-.6619252l-.4572442-.1751811.011553-.11533464c-.1638618-.10130315-.3304793-.19877953-.4999586-.29136615h-.6377465v-.32102362c-.0178064-.00818504-.0354009-.01679527-.0532074-.02498031l-1.3433272.3911811-.1801843-.36141732-1.081212.58730315h-.1801843l-.1351383-.18070866.495507-.63248032.4956129-.40659449-.1801844-.09046063-.023106-.02306693c-.3624884-.0808937-.7316543-.14339763-1.1066497-.18698031l-.0415484.11969291-.3603687.81329528-.3604746.54212598v.1355315l-.1350323.18070866-.0451521-.04507087.3586728-1.79805118c-.2231106-.0138189-.447599-.02157874-.6739953-.02157874-.1834701 0-.3658802.00467717-.5471245.0137126l-.0384746 1.08297638h-.0901982l-.6184562-1.01919685c-.0158986.00191338-.0317972.00361417-.0476959.00552756l-.27970963.20037401-.08723042-.1483937c-.85778341.13638189-1.68260368.37364173-2.46184792.69934252l1.91822119.26234646.04515208.09035433-.09009217.22588583v.13553149l.31532258.22588583.54055299.67776378-.0450461.04517716-1.08110597-.54212598-.27038248-.18081496-.04504609.04528346.09019816.31624016-.09019816.09035433-1.03605991-.22599212-1.89204147.54223228-.04515207.09035433.27038248.27106299-.04504608.04517717-.7658894.27106299-.40541475.36141732-.40541474 1.85247638h.04504608l.45046083-.31634646 1.21635023-1.0390748.45046083-.27106299.13513825.45177165.45046083-.18070866.99111981-.67765748.13513825.27095669h.04504609l.40541474-.22588582h.45046083l.54065899-.1355315.76578342.22588583v.04517716l-.85587559.04528347-.22523041.18070866.18007834.04517716.13524424.1355315-.04504608.04517716-1.08121199.49694882-.49550691.36141733-.45046083.81329526.31532258.2258858-.67569124 1.1295355v.4065945l.31532258 1.4005984 1.3063364-1.4909528.09019816-.2258858.36026267-.9940039.27038249.2258858h.09009217l.36036866-.4517717.18018436-.9940039.1352442-.09035433.2252304.31624016.4504609-.49694882.045046.04517716-.045046 1.58130713.0900921 6.8221771.0900922 4.5180355.0313733 4.1798976c.1092765.003189.2188709.0054213.3289954.0054213.3238018 0 .6441059-.0150945.9607004-.0430512l-.0146267-1.1603622z"/><path d="m12.983288 13.362789.3954516.7493031h.0451521l.1351383-.8583661v-.6325866l.3153225-.1807087.0215162-.081c-.4234332.197185-.7546544.558815-.9125807 1.0033583"/><path d="m18.5665327 8.00007874-.1245392.00924803c-.240599.01785827-.4732488.06484252-.6943456.13723229l.046.09216141.8108295.76801181.2702765-1.08425197-.1336544-.2830748c-.0425023.0812126-.0837327.16316929-.1223133.24703937z"/><path d="m15.7137908 11.3372894.1427696-.0715394.0449401.0451772.1802903 1.1747126.9010276 1.0842519h.0899862l.0450461-1.2649606-.1801843-1.6264842.3153225-.1356378-.4955069-.85836619-.4876636-.46187008c-.3639723.49620473-.5793456 1.10657477-.5793456 1.76116537 0 .1186299.0094332.2364094.023318.3535512"/><path d="m15.4882424 11.2244528c-.0060415-.0795119-.0097512-.1596615-.0097512-.2407678 0-.7167756.2360415-1.37785035.633401-1.91072831l-.1520968-.14403543c-.3592028.47430709-.5971521 1.04385827-.6692258 1.65954334l.0703779.4061693z"/><path d="m13.9645295 12.1014213.0649723-.2445945c-.459788.1326614-.8561935.4137165-1.1365391.7881023l.0374147.3254882c.229682-.4001102.5953502-.710185 1.0341521-.868996"/><path d="m18.4263811 7.79729173c.0622166-.1351063.1300507-.26712992.2021244-.39628346l-.1101244-.23322047c-.0825668.13925196-.160364.28201181-.2318018.42912992-.253.02816929-.4972028.08525197-.7299586.16635826l.0950738.19091339c.2463226-.08280709.505682-.13691339.7746866-.15689764"/><path d="m12.930388 12.9703961.0429263.3736417.0099631.0187087c.1579263-.4445434.4891475-.8061733.9125807-1.0033583l.068682-.2579882c-.4388019.158811-.8044701.4688858-1.0341521.8689961"/><path d="m18.4263811 7.79729173c-.2690046.01998425-.528364.07409055-.7746866.15689764l.0960276.19240157c.2210968-.07238976.4536406-.11937401.6942397-.13723228l.1245391-.00924803.0522535-.11374016c.0386866-.08376378.079811-.16582677.1224193-.24693307l-.1126682-.23842913c-.0720737.12915354-.1399078.26117716-.2021244.39628346"/><path d="m15.4785124 10.9837169c0 .0811063.0037097.1612559.0097512.2407677l.0979355.1767756.1276129-.0639921c-.0138848-.1171417-.023318-.2349212-.023318-.3535512 0-.6545905.2153733-1.2648543.5793456-1.76116533l-.1579262-.14966929c-.3973595.53298426-.633401 1.19405902-.633401 1.91083462"/><path d="m14.4395166 4.32807598.1192396-.04869685c-.5225345-.14347244-1.0595898-.25196693-1.6090461-.32118976l-.0269216.07644882c.517235.06419606 1.023553.16316063 1.5167281.29343779"/><path d="m.35775069.13032031c-.10874654 0-.21706912-.00190012-.32507373-.00485586l.00052995.08012171c.10789862.00295575.21600922.00485587.32454378.00485587.32613364 0 .64898157-.01435646.96843779-.0410637l-.00105991-.08012172c-.31903226.02670724-.64156221.0410637-.96737788.0410637" mask="url(#f)" transform="translate(11.129032 26.692902)"/><path d="m11.4867829 3.94520434c.16153 0 .322106.00422249.4820461.01087291l.0138848-.07959391c-.1644977-.0069671-.3297373-.01129515-.4959309-.01129515-.1215714 0-.2425069.00253349-.3632304.00622817l.0413364.07853828c.1070507-.00295574.2142074-.0047503.321894-.0047503"/><path d="m9.49013917 4.1207315-.04313825-.07355906c-1.07803226.19452756-2.10391705.54106299-3.05571428 1.01558268l.23116589-.0267874c.89795392-.42519685 1.85982028-.73675985 2.86768664-.91523622"/><path d="m11.3065774 4.35320787-.3603686-.04517716-.0065715.18209055c.1812443-.00903543.3636544-.0137126.5471245-.0137126.2263963 0 .4508847.00775984.6739953.02147244l.0016959-.00914173-.2702765-.09035433.0766313-.44167323c-.1599401-.00669685-.3204101-.01094882-.482046-.01094882-.1075807 0-.2148434.00180709-.3218941.00478347l.1867558.35748425z"/><path d="m16.0365662 5.43753425-.0530501.01541208c.0177538.00802273.0352963.01657327.0530501.02470156z"/><path d="m10.1802144 4.5339378-.035402.02533492c.015746-.00200568.0317033-.00358911.0474492-.00548923z"/><path d="m13.8512889 4.7367248-.1121382-.11246456.7003871-.29062205c-.4932811-.13223622-.9994931-.23268898-1.5167281-.29785039l-.1781705.51395669c.3749954.04347638.7441613.10608661 1.1066497.18698031"/><path d="m11.4867829 26.2942902c-.1101244 0-.2197188-.0022323-.3289953-.0054213l.0039216.5310709c.1080046.0030826.2163272.0048897.3250737.0048897.3258157 0 .6483457-.0144567.9673779-.0412441l-.0067834-.5323464c-.3165945.0279567-.6367926.0430512-.9605945.0430512"/><path d="m7.38730323 5.0309185-.13513825.271063.06380645.00871653c.77935023-.32570079 1.60406451-.56296063 2.46195392-.69934252l-.28776498-.49067716c-1.00786636.17847637-1.96983871.49003937-2.86768664.91534252l.04409217-.00510237z"/><path d="m17.2080065 5.75378504-.4054148.04450787h-.1281429c.1694793.09121496.3360968.18724725.4999586.28704961z"/><path d="m18.6945696 6.79294488-1.0745346-.41201575c.3001659.20622048.5894148.42732284.8668986.6619252z"/></g></g></g></svg>