<?xml version="1.0" encoding="UTF-8"?>
<svg width="24px" height="28px" viewBox="0 0 24 28" version="1.1" xmlns="http://www.w3.org/2000/svg" xmlns:xlink="http://www.w3.org/1999/xlink">
    <!-- Generator: Sketch 50.2 (55047) - http://www.bohemiancoding.com/sketch -->
    <title>Group 62</title>
    <desc>Created with Sketch.</desc>
    <defs>
        <polygon id="path-1" points="0 27.9893536 23.9863318 27.9893536 23.9863318 -5.68434189e-14 0 -5.68434189e-14"></polygon>
    </defs>
    <g id="Future-Project-Desktop" stroke="none" stroke-width="1" fill="none" fill-rule="evenodd">
        <g id="maps" transform="translate(-1194.000000, -392.000000)">
            <g id="about-us/map" transform="translate(48.000000, 44.000000)">
                <g id="map-markers" transform="translate(417.000000, 317.000000)">
                    <g id="Group-62" transform="translate(729.000000, 31.000000)">
                        <path d="M10.3576466,11.0009125 L9.97988879,10.6273308 L9.00428341,10.0358175 C9.03570942,10.2225551 9.03570942,10.4093992 9.06724305,10.5962433 L9.53927892,10.9698251 C9.88550314,11.2188441 9.94846278,11.8104639 9.97988879,12.0594829 C10.0428484,12.1217643 10.1687677,12.2151331 10.326113,12.3086084 L10.4834583,12.0905703 L10.4834583,11.9038327 C10.4204987,11.8726388 10.3576466,11.8415513 10.294687,11.8104639 C10.2001937,11.7169886 10.1687677,11.5925323 10.1687677,11.499057 L10.1687677,11.4679696 C10.2317274,11.3122129 10.294687,11.1565627 10.3576466,11.0009125" id="Fill-1" fill="#00B8FB"></path>
                        <path d="M20.8066762,12.900111 C20.680757,13.4605369 20.1456538,13.6161871 19.8939229,13.6161871 L17.5649543,13.6161871 C17.2816897,13.6161871 16.7150529,13.4605369 16.6836269,12.8378297 C16.6522009,12.3396852 16.9354655,12.0905597 17.1871964,11.9971909 C17.2501561,11.6858905 17.470461,11.4990464 17.470461,11.4990464 C17.6593399,11.3122023 17.9111785,11.2188335 18.1629094,11.2188335 C18.2258691,11.2188335 18.2887211,11.2500274 18.3516807,11.2500274 C18.509026,11.0631833 18.7608646,10.9075331 19.0441291,10.8764456 C19.3589274,10.8141643 19.6421919,10.9075331 19.8939229,11.0631833 C20.2400395,11.3122023 20.3345327,11.6546966 20.3029991,11.935016 C20.7437166,12.0905597 20.9010619,12.4642479 20.8381022,12.7444608 C20.8381022,12.8067422 20.8066762,12.8378297 20.8066762,12.900111 M11.9180664,5.94418707 C10.942461,5.94418707 9.99817399,6.06874981 9.08542063,6.31776882 C9.02256861,6.59798175 8.92807534,6.90928213 8.70787803,7.22068897 C8.70787803,7.22068897 8.55042511,7.53198935 8.61338475,7.87448365 L8.64491839,8.12360913 C8.70787803,8.46610342 8.80215605,8.99533536 8.89664933,9.58684867 L10.1870529,9.89814905 C10.2500126,9.80478023 10.3128646,9.74249886 10.4073578,9.64913004 L9.68348341,8.15469658 C9.65194978,8.06132776 9.65194978,7.96785247 9.74644305,7.9055711 C9.8408287,7.84328973 9.96664036,7.84328973 10.0296,7.9055711 L11.2886852,9.05761673 C11.4143892,8.99533536 11.5718422,8.96414144 11.7291874,8.93305399 L12.2013309,7.53198935 C12.232757,7.43862053 12.3272502,7.37633916 12.4216359,7.37633916 C12.5160215,7.37633916 12.5789812,7.43862053 12.6105148,7.53198935 L12.956739,8.96414144 C13.0196987,8.99533536 13.1139767,9.02642281 13.1769363,9.05761673 L14.4988735,8.06132776 C14.5932592,7.99904639 14.7191785,7.99904639 14.7820305,8.06132776 C14.8449901,8.12360913 14.8764161,8.21697795 14.8135641,8.31034677 L13.9637704,9.74249886 C13.995304,9.80478023 14.02673,9.8670616 14.0582637,9.92934297 L15.5059049,9.61793612 C15.6318242,9.58684867 15.7263175,9.64913004 15.7577435,9.74249886 C15.7892771,9.83586768 15.7577435,9.92934297 15.6633578,9.99162433 L14.215609,10.8633506 C14.215609,10.9567194 14.1840753,11.0501947 14.1526493,11.1123696 C14.1840753,11.2680198 14.215609,11.4548639 14.215609,11.641708 C14.3099946,12.5134342 14.247035,12.606803 14.1840753,12.6690844 C14.1274655,12.6970844 14.0709632,12.7744837 14.014461,12.8352745 L14.014461,12.9252365 C14.2497256,13.7769475 14.3091336,14.136476 14.2785686,14.2880806 C14.3729543,14.350362 14.4674475,14.4126433 14.5618332,14.5060122 L15.0338691,14.9729627 C15.254174,15.1910008 15.4115193,15.4711072 15.4430529,15.7825141 L15.5374386,16.4363087 L16.3558063,17.4014038 L16.9536538,16.778803 C17.0166135,16.6853278 17.1425327,16.6853278 17.237026,16.7476091 L19.4400753,18.3355179 C19.503035,18.3666053 19.5345686,18.4288867 19.5345686,18.4911681 C19.5345686,18.5534494 19.503035,18.6157308 19.471609,18.6468183 L19.0624251,19.0826814 C19.0624251,19.1137688 19.0938511,19.1760502 19.0938511,19.2383316 C19.0938511,19.3628943 19.0624251,19.5185445 18.9680395,19.6119133 C18.8735462,19.6741947 18.7791605,19.736476 18.6846673,19.7675635 C18.6846673,19.8610388 18.6217076,19.9544076 18.5588556,20.0478829 C18.495896,20.1100578 18.4014027,20.1723392 18.307017,20.2035331 C18.307017,20.2969019 18.2754834,20.3902707 18.2126314,20.4836395 C18.1497794,20.5771148 18.0238601,20.6393962 17.8979408,20.6704837 C17.8979408,20.7639589 17.8665148,20.8573278 17.8035552,20.9506966 C17.7090619,21.0752593 17.5517166,21.1375407 17.3943713,21.1375407 C17.299878,21.1375407 17.2369184,21.1064532 17.1425327,21.0752593 L17.1111067,21.1064532 C17.1425327,21.5422099 16.9851874,22.3205673 16.261313,22.6942555 L16.6074296,25.4029095 L16.6074296,25.433997 C16.6074296,25.4650844 16.54447,26.0255103 16.1669274,26.4925673 C16.1983534,26.6170236 16.1983534,26.7415863 16.229887,26.866149 C20.1953758,25.1849779 22.9650619,21.2931909 23.0280215,16.9344532 C23.0280215,10.894438 18.0552861,5.94418707 11.9180664,5.94418707" id="Fill-3" fill="#5CD8FF"></path>
                        <path d="M8.2174278,26.4744578 L8.37477309,23.3922221 L7.87120359,21.7109445 C7.83977758,21.6486631 7.87120359,21.5863817 7.93416323,21.5552943 L8.24885381,21.1817125 L8.50069238,19.500435 L8.40630673,19.500435 C8.28038744,19.500435 8.18600179,19.4693475 8.12304215,19.4382601 C7.65089865,19.1891346 7.61947265,18.3796897 7.61947265,18.2862144 L7.61947265,18.2239331 C7.68243229,17.9749141 7.96569686,17.6947011 8.31181345,17.3834008 L8.09161614,17.1031878 C8.06008251,17.1031878 8.06008251,17.0721004 8.06008251,17.0721004 L7.87120359,16.5738494 C7.83977758,16.5115681 7.83977758,16.4492867 7.87120359,16.3871118 L8.15446816,15.8889673 L7.46201973,15.079416 C7.43059372,15.0172411 7.43059372,14.9549597 7.43059372,14.8926783 L7.52497937,14.3633399 C7.46201973,14.3322525 7.39916771,14.301165 7.33620807,14.2699711 C6.48641435,13.7407392 7.14732915,12.2463057 7.24182242,11.9971802 C7.08436951,10.2537278 7.21028879,8.0743057 7.24182242,7.63844259 L6.98998386,7.32714221 C6.98998386,7.29594829 6.95855785,7.26486084 6.95855785,7.20257947 L6.95855785,7.04692928 C3.65387623,8.69701293 1.29337399,11.9350053 0.884190135,15.7332106 C1.04164305,15.5775605 1.29337399,15.4841916 1.63959821,15.4841916 C1.76551749,15.2351726 2.1117417,14.799203 2.74112287,14.799203 C2.93000179,14.799203 3.15030673,14.830397 3.37061166,14.9237658 C3.40203767,14.9237658 3.99999283,15.2039787 4.18887175,15.8889673 C4.5666296,15.9823361 5.07009148,16.262549 5.10162511,16.9475376 C5.13305112,17.3211194 5.00713184,17.6324198 4.7554009,17.8815452 C4.50366996,18.1305643 4.18887175,18.255127 3.96856682,18.255127 L0.915723767,18.255127 C1.45071928,22.4582144 4.37775067,25.9140319 8.34334709,27.2840091 C8.37477309,27.0659711 8.40630673,26.8792335 8.43773274,26.7234768 C8.40630673,26.7234768 8.37477309,26.6923894 8.34334709,26.6923894 C8.24885381,26.630108 8.2174278,26.5678266 8.2174278,26.4744578" id="Fill-5" fill="#5CD8FF"></path>
                        <mask id="mask-2" fill="white">
                            <use xlink:href="#path-1"></use>
                        </mask>
                        <g id="Clip-8"></g>
                        <polygon id="Fill-7" fill="#FFFFFF" mask="url(#mask-2)" points="13.5005919 13.8403042 14.3615785 13.8403042 14.3615785 12.0304183 13.5005919 12.0304183"></polygon>
                        <path d="M11.1139587,9.46472395 L11.3324278,9.71374297 C11.3948628,9.6514616 11.4884619,9.62037414 11.5508969,9.55809278 L11.3635919,9.2467924 C11.2699928,9.34016122 11.1763937,9.40244259 11.1139587,9.46472395" id="Fill-9" fill="#FFFFFF" mask="url(#mask-2)"></path>
                        <path d="M7.5889722,5.63525019 L8.15550135,5.63525019 C8.21846099,5.63525019 8.249887,5.57296882 8.249887,5.54188137 C8.249887,5.51068745 8.21846099,5.4796 8.18692735,5.4796 L8.15550135,5.4796 L8.12396771,5.4796 L7.84070314,5.4796 L7.55754619,5.4796 C7.49458655,5.4796 7.46305291,5.51068745 7.49458655,5.54188137 C7.49458655,5.60416274 7.55754619,5.63525019 7.5889722,5.63525019" id="Fill-10" fill="#FFFFFF" mask="url(#mask-2)"></path>
                        <path d="M11.7415686,12.6403392 L11.7415686,12.2978449 C11.7102978,12.2667574 11.7102978,12.2667574 11.6791336,12.23567 L11.5230996,12.484689 C11.6166987,12.5469703 11.6791336,12.6092517 11.7415686,12.6403392" id="Fill-11" fill="#FFFFFF" mask="url(#mask-2)"></path>
                        <path d="M14.1342413,8.96655817 L14.3215462,8.62406388 L14.009478,8.87318935 C14.071913,8.90427681 14.1030771,8.93547072 14.1342413,8.96655817" id="Fill-12" fill="#FFFFFF" mask="url(#mask-2)"></path>
                        <path d="M14.3871067,14.2282053 C14.2611874,14.3215741 14.1038422,14.3838555 13.9464969,14.4461369 C13.9779229,14.4772243 14.0724161,14.5395057 14.2297614,14.5706996 C14.4814924,14.6017871 14.6389453,14.5395057 14.7333309,14.4772243 C14.6389453,14.3526616 14.513026,14.2904867 14.3871067,14.2282053" id="Fill-13" fill="#FFFFFF" mask="url(#mask-2)"></path>
                        <path d="M13.9149955,9.71378555 C13.9462664,9.71378555 13.9774305,9.744873 14.0087013,9.77606692 L14.1023004,9.6826981 C14.0711363,9.62041673 14.0398655,9.55813536 14.0087013,9.49585399 L13.9149955,9.71378555 Z" id="Fill-14" fill="#FFFFFF" mask="url(#mask-2)"></path>
                        <path d="M11.1438009,8.90428745 C11.2062359,8.8732 11.2375067,8.84200608 11.2999417,8.81091863 L10.9566027,8.49951179 L11.1438009,8.90428745 Z" id="Fill-15" fill="#FFFFFF" mask="url(#mask-2)"></path>
                        <path d="M8.37581704,3.95345287 L8.37581704,3.92250842 L8.37581704,3.82946312 L7.6519426,3.82946312 L7.6519426,3.86051354 L8.15551211,3.89145799 C8.24989776,3.89145799 8.3128574,3.92250842 8.37581704,3.95345287" id="Fill-16" fill="#FFFFFF" mask="url(#mask-2)"></path>
                        <path d="M7.46306368,4.35878023 C7.46306368,4.42095513 7.52602332,4.45214905 7.55744933,4.45214905 L8.12397848,4.4832365 C8.18693812,4.4832365 8.21847175,4.42095513 8.21847175,4.38986768 C8.21847175,4.35878023 8.18693812,4.35878023 8.18693812,4.35878023 C8.18693812,4.35878023 8.15551211,4.32769278 8.12397848,4.32769278 L7.55744933,4.29649886 C7.52602332,4.29649886 7.49448969,4.32769278 7.46306368,4.35878023" id="Fill-17" fill="#FFFFFF" mask="url(#mask-2)"></path>
                        <path d="M7.55749238,5.07480304 L7.84075695,5.07480304 L8.12402152,5.07480304 L8.15544753,5.07480304 C8.18698117,5.07480304 8.21840717,5.04371559 8.21840717,5.01262814 C8.21840717,4.95034677 8.15544753,4.91915285 8.12402152,4.91915285 L7.55749238,4.8880654 C7.49453274,4.8880654 7.46310673,4.91915285 7.46310673,4.98143422 C7.46310673,5.04371559 7.52606637,5.07480304 7.55749238,5.07480304" id="Fill-18" fill="#FFFFFF" mask="url(#mask-2)"></path>
                        <path d="M8.34433722,13.9791011 L8.21841794,14.4461582 L8.72198744,15.0376715 L9.35147623,13.4186753 C9.03678565,13.6678008 8.69056143,13.9169262 8.34433722,13.9791011" id="Fill-19" fill="#FFFFFF" mask="url(#mask-2)"></path>
                        <path d="M10.7047964,9.99397719 L10.9232655,10.2119087 C10.9545363,10.2119087 10.9545363,10.1808213 10.9545363,10.1808213 C10.9857004,10.1185399 11.0169713,10.087346 11.0481354,10.0562586 L10.8296664,9.80723954 C10.7672314,9.90060837 10.7359605,9.96288973 10.7047964,9.99397719" id="Fill-20" fill="#FFFFFF" mask="url(#mask-2)"></path>
                        <path d="M8.4072861,13.0139529 C8.31290045,13.0762342 8.18698117,13.0762342 8.12402152,13.0139529 C7.9351426,12.8583027 7.80922332,12.7026525 7.74626368,12.4847209 C7.65187803,12.8894966 7.65187803,13.3252532 7.9351426,13.5120973 C8.43871211,13.8235042 9.31993184,12.8583027 9.60319641,12.4847209 C9.66615605,12.3912456 9.79207534,12.3912456 9.88646099,12.453527 C9.98095426,12.5158084 9.98095426,12.6403711 9.91799462,12.7337399 C9.85503498,12.7960213 9.69768969,13.0139529 9.47727713,13.2318844 L9.60319641,13.2318844 C9.7291157,13.2941658 9.76064933,13.4187285 9.7291157,13.5120973 L8.97381525,15.5046753 L8.94228161,15.5357627 L8.62759103,16.0651011 L8.78493632,16.4386829 L8.97381525,16.6877019 C10.3271785,15.6914129 12.5931874,14.5706677 13.7262457,14.0413293 C13.6003265,14.0102418 13.4744072,14.0102418 13.3800215,14.0102418 C12.5931874,13.9479605 11.900739,13.3252532 11.8063534,13.2318844 C11.1139049,12.7026525 10.0753399,11.9553825 10.0123803,11.9242951 C9.94942063,11.8932076 9.91799462,11.8309262 9.91799462,11.7686449 C9.91799462,11.6128882 9.88646099,11.3326753 9.79207534,11.1148502 C9.50881076,11.6128882 8.87932197,12.6403711 8.4072861,13.0139529" id="Fill-21" fill="#FFFFFF" mask="url(#mask-2)"></path>
                        <path d="M14.0721749,11.2704578 C14.0721749,11.3638266 14.0721749,11.4883894 14.040904,11.6129521 L14.2593731,12.0177278 C14.2593731,11.9242525 14.2593731,11.6440395 14.228209,11.3638266 L14.0721749,11.2704578 Z" id="Fill-22" fill="#FFFFFF" mask="url(#mask-2)"></path>
                        <path d="M11.3630457,11.4884213 C11.3318816,11.5195087 11.3007175,11.5195087 11.2694466,11.5195087 L11.2694466,11.7686342 C11.2694466,11.8309156 11.2694466,11.862003 11.2382825,11.893197 L11.0509776,12.1734099 C11.0821417,12.2044973 11.1134126,12.2356913 11.1758475,12.2667787 L11.1758475,12.2433567 L11.1758475,12.2667787 L11.4460789,11.8172882 C11.4339121,11.7933338 11.4254807,11.7694859 11.4254807,11.7374403 C11.3943166,11.6440715 11.3630457,11.5507027 11.3630457,11.4884213" id="Fill-23" fill="#FFFFFF" mask="url(#mask-2)"></path>
                        <path d="M12.1491462,8.93541749 C11.9931121,8.96650494 11.8682422,8.99769886 11.7433722,9.05998023 L11.9306771,9.40247452 C12.0242762,9.37128061 12.1178753,9.34019316 12.2115812,9.30899924 L12.1491462,8.93541749 Z" id="Fill-24" fill="#FFFFFF" mask="url(#mask-2)"></path>
                        <path d="M12.6555794,9.27789049 L12.7492852,9.27789049 C12.8116135,9.27789049 12.8740484,9.30897795 12.9364834,9.30897795 L12.9989184,8.90430875 C12.9053193,8.87311483 12.8116135,8.87311483 12.6868502,8.87311483 L12.5931444,8.87311483 L12.6555794,9.27789049 Z" id="Fill-25" fill="#FFFFFF" mask="url(#mask-2)"></path>
                        <path d="M11.3028161,10.3987316 C11.1453632,10.6477506 11.0509776,10.8657886 11.0195516,11.0837202 C11.0824036,11.0837202 11.1768969,11.1148076 11.3972018,11.0525262 L11.3972018,10.8035072 C11.3972018,10.7412259 11.4286278,10.6789445 11.4915874,10.6477506 L12.6560717,9.8383057 C12.7190314,9.80721825 12.8449507,9.80721825 12.9079103,9.86939316 C13.4430135,10.3676441 13.9779013,10.6477506 13.9779013,10.6477506 L14.009435,10.6789445 L14.1667803,10.8035072 C13.9464753,10.0251498 13.3170942,9.80721825 13.3170942,9.80721825 C13.0966816,9.74493688 12.9079103,9.71374297 12.6876054,9.68265551 C12.1526099,9.6514616 11.6175067,9.93167452 11.3028161,10.3987316" id="Fill-26" fill="#FFFFFF" mask="url(#mask-2)"></path>
                        <path d="M8.81639462,5.41727605 L8.81639462,6.07117719 L8.81639462,6.41356502 C8.8788296,6.25791483 8.9724287,6.10226464 9.00369955,5.9777019 C9.06613453,5.75977034 9.09729865,5.54183878 9.09729865,5.35510114 C9.09729865,5.07478175 9.06613453,4.88804411 9.03486368,4.79456882 C8.94126457,4.67011255 8.84755874,4.60783118 8.81639462,4.63891863 L8.81639462,5.41727605 Z" id="Fill-27" fill="#FFFFFF" mask="url(#mask-2)"></path>
                        <path d="M12.7182664,8.46844563 L12.9367354,8.46844563 L12.8118655,7.90801977 L12.6246673,8.43735817 C12.6558314,8.43735817 12.6558314,8.43735817 12.6871022,8.46844563 L12.7182664,8.46844563 Z" id="Fill-28" fill="#FFFFFF" mask="url(#mask-2)"></path>
                        <path d="M11.1139587,17.5595133 C10.4529363,18.0265703 9.54029058,18.6491711 9.28855964,18.8360152 L9.09968072,20.0502357 L11.1139587,17.5595133 Z" id="Fill-29" fill="#FFFFFF" mask="url(#mask-2)"></path>
                        <path d="M13.4114583,12.0176745 C13.6632969,11.7374616 13.6947229,11.2393171 13.6317632,10.9902981 C13.4744179,10.8657354 13.0966601,10.6478038 12.6875839,10.3053095 L11.7434045,10.9591042 C11.7434045,11.1770357 11.7434045,11.7063741 12.0266691,12.0176745 C12.1840143,12.2045186 12.4043193,12.2978875 12.7190099,12.2978875 C13.0338081,12.2978875 13.254113,12.2045186 13.4114583,12.0176745" id="Fill-30" fill="#FFFFFF" mask="url(#mask-2)"></path>
                        <path d="M12.1525561,12.6092091 L12.1525561,12.9827909 C12.2784753,13.1073536 12.6876592,13.4187605 13.1595874,13.5432167 L13.1595874,12.6402966 C13.0337758,12.6714905 12.8764305,12.7025779 12.7190852,12.7025779 C12.4987803,12.7025779 12.3099013,12.6714905 12.1525561,12.6092091" id="Fill-31" fill="#FFFFFF" mask="url(#mask-2)"></path>
                        <path d="M14.8592287,16.0962099 L14.8276951,14.8819894 C14.7018834,14.9442707 14.5759641,14.9754646 14.4186188,14.9754646 L14.2926996,14.9754646 C14.2297399,15.0065521 14.1352466,15.0999209 14.040861,15.1933962 L13.9150493,18.8048639 C14.2926996,18.3690008 14.6703498,17.8396624 14.6389238,17.5595559 C14.6389238,17.3727118 14.6073901,17.248149 14.5759641,17.1235863 C14.4814709,16.7811985 14.4186188,16.4697916 14.8592287,16.0962099" id="Fill-32" fill="#FFFFFF" mask="url(#mask-2)"></path>
                        <path d="M13.723087,9.15339163 C13.6293812,9.09111027 13.5357821,9.0288289 13.4109121,8.99774144 L13.3484771,9.40241065 C13.4109121,9.40241065 13.442183,9.43360456 13.4733471,9.43360456 C13.4733471,9.43360456 13.5045112,9.43360456 13.5669462,9.46469202 L13.723087,9.15339163 Z" id="Fill-33" fill="#FFFFFF" mask="url(#mask-2)"></path>
                        <path d="M13.789087,14.8197399 C13.6632753,14.7574586 13.6003157,14.6640897 13.5373561,14.6018084 C11.3341991,15.6603787 8.69053991,17.1236183 8.3443157,17.8708882 C8.37584933,18.1511011 8.47023498,18.5246829 8.62758027,18.6180517 C8.72196592,18.6492456 8.87931121,18.5869643 8.97380448,18.5246829 C9.03676413,18.4624015 10.9880825,17.1236183 11.523078,16.781124 C11.9007283,16.5631924 13.0652126,15.5047285 13.789087,14.8197399" id="Fill-34" fill="#FFFFFF" mask="url(#mask-2)"></path>
                        <polygon id="Fill-35" fill="#FFFFFF" mask="url(#mask-2)" points="16.1488664 17.7152061 16.4922054 17.3727118 16.0551605 16.8745673"></polygon>
                        <path d="M18.6044987,19.4897992 C18.6360323,19.4897992 18.6674583,19.4897992 18.6988843,19.4587118 C18.7304179,19.4276243 18.7304179,19.3964304 18.7304179,19.3964304 C18.7304179,19.3964304 18.7304179,19.365343 18.6988843,19.334149 L18.2582744,18.9605673 C18.2268484,18.9293734 18.1953148,18.9293734 18.1953148,18.9293734 C18.1638888,18.9293734 18.1638888,18.9293734 18.1323552,18.9605673 C18.1009291,18.9916548 18.1009291,19.0228487 18.1009291,19.0228487 C18.1009291,19.0539361 18.1009291,19.0539361 18.1323552,19.08513 L18.3526601,19.2718677 L18.5730726,19.4587118 L18.6044987,19.4897992 Z" id="Fill-36" fill="#FFFFFF" mask="url(#mask-2)"></path>
                        <path d="M17.4085561,19.894543 C17.3770224,19.894543 17.3770224,19.894543 17.3455964,19.9256304 C17.3140628,19.9568243 17.3140628,20.0191057 17.3455964,20.0501932 L17.7862063,20.3926875 C17.8491659,20.4549688 17.8806996,20.4238814 17.9121256,20.3926875 C17.9435516,20.3616 17.9435516,20.3304061 17.9435516,20.3304061 C17.9435516,20.2993186 17.9435516,20.2993186 17.9121256,20.2681247 L17.4715157,19.9256304 C17.4399821,19.894543 17.4085561,19.894543 17.4085561,19.894543" id="Fill-37" fill="#FFFFFF" mask="url(#mask-2)"></path>
                        <path d="M19.1080359,19.0228274 C19.1395695,18.9917399 19.1395695,18.960546 19.1395695,18.960546 C19.1395695,18.9294586 19.1395695,18.9294586 19.1080359,18.8982646 L18.667426,18.5246829 C18.6358924,18.493489 18.6044664,18.493489 18.6044664,18.493489 C18.5730404,18.493489 18.5730404,18.493489 18.5415067,18.5246829 C18.5100807,18.5557703 18.5100807,18.6180517 18.5415067,18.6492456 L18.9821166,19.0228274 C19.0450762,19.0850023 19.0766099,19.0539148 19.1080359,19.0228274" id="Fill-38" fill="#FFFFFF" mask="url(#mask-2)"></path>
                        <path d="M19.3912789,18.1510479 L17.5344538,16.8122646 L16.1810906,18.2133293 L16.4643552,20.4861202 L16.9048574,20.7663331 L17.2196556,20.4550327 L17.0623103,20.33047 C16.8420054,20.1436259 16.7791534,19.8323255 16.967817,19.6143939 C17.0307767,19.5209186 17.156696,19.4586373 17.2826152,19.4275498 C17.2826152,19.334181 17.3140413,19.2407057 17.3770009,19.1473369 C17.4714942,19.0850555 17.5658798,19.0227741 17.6602655,18.9916867 C17.6602655,18.867124 17.7232251,18.7737551 17.7861848,18.6803863 C17.880678,18.586911 17.9750637,18.5558236 18.0694493,18.5246297 C18.0694493,18.4312608 18.132409,18.337892 18.1953686,18.2444167 C18.3842475,18.0265916 18.6988305,17.9953977 18.919243,18.1821354 L19.2025076,18.4312608 L19.3912789,18.1510479 Z" id="Fill-39" fill="#FFFFFF" mask="url(#mask-2)"></path>
                        <path d="M18.3526709,19.894543 C18.3842045,19.8634555 18.3842045,19.8322616 18.3842045,19.8322616 L18.3709668,19.8322616 L18.3842045,19.8322616 C18.3842045,19.8011741 18.3526709,19.8011741 18.3526709,19.8011741 L18.1323659,19.61433 L17.912061,19.4275924 C17.880635,19.3963985 17.8491013,19.3963985 17.8491013,19.3963985 C17.8176753,19.3963985 17.8176753,19.3963985 17.7861417,19.4275924 C17.7547157,19.4586798 17.7547157,19.4897673 17.7547157,19.4897673 C17.7547157,19.5209612 17.7547157,19.5209612 17.7861417,19.5520487 L18.2268592,19.894543 C18.2898188,19.9568243 18.3212448,19.9256304 18.3526709,19.894543" id="Fill-40" fill="#FFFFFF" mask="url(#mask-2)"></path>
                        <path d="M15.4886744,15.4735452 C15.4572484,15.2868076 15.3942888,15.131051 15.2683695,14.9754008 L15.3313291,16.1896213 C15.3313291,16.2830966 15.2997955,16.3452715 15.2368359,16.3763589 C14.9221453,16.594397 14.9535713,16.7188532 15.0165309,17.0302601 C15.0480646,17.1859103 15.0794906,17.3415605 15.0794906,17.5284046 C15.0794906,17.5906859 15.0480646,17.6529673 15.0480646,17.7152487 L15.7089794,24.2843894 C15.7089794,24.3466707 15.6775534,24.440146 15.6145937,24.4712335 L15.4572484,24.5957962 L16.5901991,24.8448152 L15.4886744,15.4735452 Z" id="Fill-41" fill="#FFFFFF" mask="url(#mask-2)"></path>
                        <polygon id="Fill-42" fill="#FFFFFF" mask="url(#mask-2)" points="14.6389345 9.93156346 14.6389345 9.99355834 14.7949686 9.90061901"></polygon>
                        <path d="M15.7404915,25.0627787 L15.8663031,26.8685125 C15.9922224,26.8374251 16.1181417,26.7751437 16.3070206,26.7128624 C16.2125274,25.9967863 16.1181417,25.405273 16.0867157,25.1250601 L15.7404915,25.0627787 Z" id="Fill-43" fill="#FFFFFF" mask="url(#mask-2)"></path>
                        <path d="M16.5587085,21.0776548 L16.6532018,21.9182935 C16.9364664,21.7314494 17.030852,21.4512365 17.0938117,21.2333049 C17.0623857,21.2643924 16.999426,21.2955863 16.9678924,21.2955863 C16.9049327,21.2955863 16.8735067,21.2955863 16.8420807,21.2643924 L16.5587085,21.0776548 Z" id="Fill-44" fill="#FFFFFF" mask="url(#mask-2)"></path>
                        <path d="M19.5171874,10.8657567 C19.2968825,10.8968441 19.1395372,10.9902129 19.0450439,11.177057 C18.9820843,11.2704259 18.8562726,11.3016198 18.7617794,11.2704259 C18.7617794,11.2704259 18.6673937,11.2393384 18.5415821,11.2393384 C18.4156628,11.2393384 18.2583175,11.3016198 18.1639318,11.3949886 C18.1639318,11.3949886 18.0064789,11.5195513 18.0064789,11.7374829 C18.0064789,11.8620456 17.9120933,11.9242205 17.8177076,11.9554144 C17.786174,11.9865019 17.5029094,12.0487833 17.534443,12.4224715 C17.534443,12.7960532 17.9120933,12.8271407 17.9750529,12.8271407 L20.2725955,12.8271407 C20.3041291,12.8271407 20.7130978,12.7960532 20.807591,12.4224715 C20.807591,12.3912776 20.807591,12.3912776 20.839017,12.3601901 C20.839017,12.0799772 20.7130978,11.9242205 20.4298332,11.8931331 C20.3669812,11.8931331 20.3041291,11.8620456 20.2725955,11.7997643 C20.2411695,11.7374829 20.2096359,11.6752015 20.2411695,11.6129202 C20.2411695,11.6129202 20.3669812,11.208251 20.0522906,10.9902129 C19.8949453,10.8968441 19.7060664,10.8346692 19.5171874,10.8657567" id="Fill-45" fill="#FFFFFF" mask="url(#mask-2)"></path>
                        <path d="M16.4958565,25.2495589 C16.4958565,25.3429278 16.526808,25.436403 16.526808,25.5297719 C16.5577595,25.436403 16.5888169,25.3429278 16.6197684,25.2806464 L16.4958565,25.2495589 Z" id="Fill-46" fill="#FFFFFF" mask="url(#mask-2)"></path>
                        <path d="M13.8835695,27.086476 C13.8835695,27.1798449 13.8520359,27.2733202 13.8206099,27.366689 C13.9465291,27.3354951 14.0724484,27.3044076 14.2297937,27.2733202 C14.2927534,26.5883316 14.3241794,25.9034494 14.355713,25.4051985 L13.8835695,25.7788867 L13.8835695,27.086476 Z" id="Fill-47" fill="#FFFFFF" mask="url(#mask-2)"></path>
                        <polygon id="Fill-48" fill="#FFFFFF" mask="url(#mask-2)" points="8.56463139 3.39357871 8.87932197 3.39357871 8.87932197 2.89543422 7.02249686 2.89543422 7.02249686 3.39357871 7.40014709 3.39357871"></polygon>
                        <path d="M4.81935067,17.1858996 C4.97669596,17.0302494 5.03965561,16.8123179 5.03965561,16.5631924 C5.00812197,15.9405916 4.37874081,15.8783103 4.34720717,15.8783103 C4.25282152,15.8471163 4.18986188,15.784835 4.15843587,15.6914662 C4.03251659,15.0999529 3.56048072,14.8820213 3.56048072,14.8820213 C3.4030278,14.8197399 3.27710852,14.788546 3.11976323,14.788546 C2.58476771,14.788546 2.33292915,15.3178844 2.33292915,15.3489719 C2.30150314,15.4424471 2.20711749,15.4735346 2.11273184,15.4735346 C1.32589776,15.3801658 1.23140448,16.0962418 1.23140448,16.1273293 C1.23140448,16.2208046 1.13701883,16.3141734 1.01109955,16.3141734 C0.476104036,16.3141734 0.413144395,16.781124 0.413144395,16.8434053 C0.413144395,16.999162 0.476104036,17.1236183 0.633449327,17.248181 C0.790794619,17.3726373 0.979673543,17.4349186 1.19997848,17.4349186 L4.31578117,17.4349186 C4.37874081,17.4349186 4.63047175,17.3726373 4.81935067,17.1858996" id="Fill-49" fill="#FFFFFF" mask="url(#mask-2)"></path>
                        <path d="M15.0795121,24.9382266 L15.0165525,24.9382266 L14.7962475,25.0938768 L14.7018619,25.1561582 L14.7648215,25.1250707 L14.6703283,27.2110175 C14.7962475,27.17993 14.9535928,27.1487361 15.0795121,27.1176487 C15.2054314,27.0864548 15.3313507,27.0553673 15.45727,26.9930859 L15.299817,24.9693141 L15.0795121,24.9382266 Z" id="Fill-50" fill="#FFFFFF" mask="url(#mask-2)"></path>
                        <path d="M8.59610045,7.62780684 L8.56467444,7.37878783 C8.53314081,7.19194373 8.56467444,7.00509962 8.59610045,6.84944943 C8.56467444,6.9117308 8.5017148,6.94281825 8.43875516,6.94281825 L7.99814529,6.94281825 L8.0295713,7.00509962 C8.06110493,7.06738099 8.06110493,7.0985749 8.06110493,7.16074981 C8.06110493,7.19194373 7.84069238,10.2741795 8.15549058,12.1733886 C8.18691659,12.3290388 8.24987623,12.4536015 8.31283587,12.5469703 C8.53314081,12.2978449 8.78487175,11.9242631 9.03671031,11.5506814 L9.0052843,10.6477612 C8.94232466,9.62038479 8.72201973,8.28160152 8.59610045,7.62780684" id="Fill-51" fill="#FFFFFF" mask="url(#mask-2)"></path>
                        <path d="M9.00526278,25.5298038 L13.1596305,21.2021536 L13.4428951,19.3341384 L13.600348,15.598108 C13.2541238,15.9094084 12.8134063,16.2829901 12.4671821,16.594397 L8.65903857,21.2956289 L9.16260807,22.9145186 L9.16260807,22.9768 L9.00526278,25.5298038 Z" id="Fill-52" fill="#FFFFFF" mask="url(#mask-2)"></path>
                        <path d="M7.52602332,2.49072243 L8.53316233,2.49072243 C8.78489327,2.3661597 8.94234619,2.21050951 9.00530583,1.99257795 C9.03673184,1.80573384 9.03673184,1.6189962 9.00530583,1.49443346 C8.84785291,1.6811711 8.75346726,1.77464639 8.75346726,1.77464639 C8.69050762,1.86801521 8.56458834,1.86801521 8.47020269,1.80573384 C8.37581704,1.74345247 8.37581704,1.6189962 8.43866906,1.52562738 C8.53316233,1.40106464 8.43866906,1.05857034 8.3128574,0.716076046 C8.15551211,1.12085171 8.09255247,1.49443346 8.09255247,1.49443346 C8.06112646,1.58790875 7.96663318,1.6811711 7.8407139,1.65008365 C7.71490224,1.6189962 7.62040897,1.52562738 7.6519426,1.40106464 C7.68336861,1.2765019 7.6519426,1.15193916 7.58898296,1.05857034 C7.52602332,1.24541445 7.46306368,1.36987072 7.43163767,1.43215209 C7.11683946,1.99257795 7.36867803,2.3661597 7.52602332,2.49072243" id="Fill-53" fill="#FFFFFF" mask="url(#mask-2)"></path>
                        <path d="M9.28850583,25.8722768 C9.25707982,25.9967331 9.16258655,26.4327027 9.0682009,26.9930221 C9.47727713,27.1175848 9.88646099,27.2110601 10.2956448,27.2733414 C10.5789094,26.4637901 10.9251336,25.1562008 11.2398242,23.8174175 L9.28850583,25.8722768 Z" id="Fill-54" fill="#FFFFFF" mask="url(#mask-2)"></path>
                        <path d="M14.6703605,18.4623802 C14.387096,18.8982433 14.0094457,19.303019 13.8519928,19.4586692 L12.8763874,25.9968289 L15.2368897,24.2221825 L14.6703605,18.4623802 Z" id="Fill-55" fill="#FFFFFF" mask="url(#mask-2)"></path>
                        <path d="M8.09250942,6.0711346 L7.7462852,6.0711346 L7.7462852,6.4136289 L7.7462852,6.56927909 L8.15546906,6.56927909 L8.2184287,6.56927909 L8.34434798,6.56927909 L8.34434798,6.00885323 C8.28138834,6.04004715 8.2184287,6.0711346 8.18689507,6.0711346 L8.09250942,6.0711346 Z" id="Fill-56" fill="#FFFFFF" mask="url(#mask-2)"></path>
                        <path d="M13.4428843,26.8685551 L13.4428843,26.1212852 L12.8449291,26.5572548 C12.9078888,26.681711 13.0966601,26.8374677 13.4428843,26.8685551" id="Fill-57" fill="#FFFFFF" mask="url(#mask-2)"></path>
                        <path d="M12.3728502,26.5572228 L12.3728502,26.463854 L13.0652987,21.9182722 L11.8377471,23.1947741 C11.5860161,24.2221506 11.1454063,26.1213597 10.7362224,27.3355802 C11.2713256,27.428949 11.7747874,27.4600365 12.3098906,27.4600365 C12.6246888,27.4600365 12.970913,27.428949 13.285496,27.428949 C13.3170296,27.3978616 13.3484556,27.3355802 13.3799892,27.3044928 C12.7190744,27.2422114 12.4358099,26.8062418 12.3728502,26.5572228" id="Fill-58" fill="#FFFFFF" mask="url(#mask-2)"></path>
                        <path d="M14.6389345,9.99397719 L14.6389345,9.93169582 L14.7962798,9.90060837 L14.6389345,9.99397719 Z M16.5770152,26.4507376 C16.5455892,26.3261749 16.5455892,26.2016122 16.5140556,26.0771559 C16.8918135,25.6100989 16.9547731,25.0497795 16.9547731,25.0185856 L16.9547731,24.9874981 L16.6085489,22.2788441 C17.3323157,21.9051559 17.489661,21.1267985 17.458235,20.6910418 L17.489661,20.6598479 C17.5841543,20.6910418 17.6471139,20.7221293 17.7414996,20.7221293 C17.8988448,20.7221293 18.0562978,20.6598479 18.1506834,20.5352852 C18.213643,20.4419163 18.2450691,20.3485475 18.2450691,20.2550722 C18.3709883,20.2239848 18.4969076,20.1617034 18.5598673,20.0682281 C18.6228269,19.9749658 18.6542529,19.8814905 18.6542529,19.7881217 C18.7487462,19.7569278 18.8430242,19.6946464 18.9059839,19.6324715 C18.9689435,19.5389962 19.0319031,19.4456274 19.0319031,19.3521521 C19.1262888,19.3210646 19.2207821,19.2587833 19.3151677,19.1965019 C19.4095534,19.1031331 19.441087,18.9474829 19.441087,18.8229202 C19.441087,18.7606388 19.4095534,18.6983574 19.4095534,18.66727 L19.8187372,18.2314068 C19.8502709,18.2003194 19.8816969,18.138038 19.8816969,18.0757567 C19.8816969,18.0134753 19.8502709,17.9511939 19.7873112,17.9201065 L17.5841543,16.3321977 C17.4897686,16.2699163 17.3638493,16.2699163 17.3008897,16.3633916 L16.7029345,16.9859924 L15.8845668,16.0208973 L15.7901812,15.3671027 C15.7587552,15.0556958 15.6013022,14.7755894 15.3811049,14.5575513 L14.9089614,14.0906008 C14.8145758,13.9972319 14.7201901,13.9349506 14.6256969,13.8726692 C14.6572305,13.717019 14.5942709,13.3433308 14.3424323,12.4405171 C14.4053919,12.3782357 14.4683516,12.2848669 14.5313112,12.253673 C14.5942709,12.1913916 14.6572305,12.0980228 14.5627372,11.2262966 C14.5627372,11.0394525 14.5313112,10.8526084 14.4997776,10.6970646 C14.5313112,10.6347833 14.5627372,10.541308 14.5627372,10.4479392 L16.0104861,9.57621293 C16.1049794,9.51393156 16.1364054,9.42045627 16.1049794,9.32708745 C16.0734457,9.23371863 15.9790601,9.17143726 15.8531408,9.20252471 L14.4053919,9.51393156 C14.3739659,9.45165019 14.3424323,9.38936882 14.3110063,9.32708745 L15.1608,7.89493536 C15.2237596,7.80156654 15.192226,7.70819772 15.1292664,7.64591635 C15.0664143,7.58363498 14.9404951,7.58363498 14.8460018,7.64591635 L13.5241722,8.64220532 C13.4612126,8.61101141 13.3668269,8.57992395 13.3038673,8.54873004 L12.957643,7.11657795 C12.926217,7.02320913 12.8632574,6.96092776 12.7687641,6.96092776 C12.6743785,6.96092776 12.5799928,7.02320913 12.5484592,7.11657795 L12.0763157,8.51764259 C11.919078,8.54873004 11.7617327,8.57992395 11.6358135,8.64220532 L10.3768359,7.4901597 C10.3138762,7.42787833 10.1880646,7.42787833 10.0936789,7.4901597 C9.99918565,7.55244106 9.99918565,7.64591635 10.0307193,7.73928517 L10.7544861,9.23371863 C10.6601004,9.32708745 10.5971408,9.38936882 10.5341812,9.48273764 L9.2438852,9.17143726 C9.14939193,8.57992395 9.05500628,8.05069202 8.99204664,7.70819772 L8.96062063,7.45907224 C8.89766099,7.11657795 9.05500628,6.80527757 9.05500628,6.80527757 C9.27531121,6.49397719 9.36980448,6.18257034 9.4326565,5.90235741 C10.3453022,5.6533384 11.2895892,5.52877567 12.2651946,5.52877567 C18.402522,5.52877567 23.3752574,10.4790266 23.3752574,16.5190418 C23.3122978,20.8777795 20.5426117,24.7695665 16.5770152,26.4507376 Z M16.4958673,25.2495057 L16.6216789,25.2806996 C16.5902529,25.342981 16.5587193,25.4363498 16.5272933,25.5298251 C16.5272933,25.4363498 16.4958673,25.342981 16.4958673,25.2495057 Z M16.149643,17.7151635 L16.0551498,16.8745247 L16.4958673,17.3727757 L16.149643,17.7151635 Z M17.0938224,21.2332624 C17.0308628,21.4513004 16.9364771,21.7315133 16.6532126,21.918251 L16.5587193,21.0776122 L16.8420915,21.2644563 C16.8735175,21.2955437 16.9049435,21.2955437 16.9679031,21.2955437 C16.9994368,21.2955437 17.0623964,21.2644563 17.0938224,21.2332624 Z M18.9192215,18.1822205 C18.6989166,17.9953764 18.384226,18.0265703 18.1953471,18.2445019 C18.1323874,18.3378707 18.0694278,18.4312395 18.0694278,18.5246084 C17.9750422,18.5558023 17.8806565,18.5868897 17.7861632,18.680365 C17.7232036,18.7737338 17.6602439,18.8671027 17.6602439,18.9916654 C17.5658583,19.0228593 17.4714726,19.0851407 17.3769794,19.1473156 C17.3140197,19.2407909 17.2825937,19.3341597 17.2825937,19.4275285 C17.1567821,19.458616 17.0308628,19.5208973 16.9679031,19.6143726 C16.7791318,19.8323042 16.8420915,20.1436046 17.0623964,20.3304487 L17.2196341,20.4550114 L16.9049435,20.7663118 L16.4643336,20.4860989 L16.1810691,18.213308 L17.5344323,16.8122433 L19.3912574,18.1510266 L19.2024861,18.4312395 L18.9192215,18.1822205 Z M18.5415713,18.6491711 C18.5101453,18.6180837 18.5101453,18.5558023 18.5415713,18.5246084 C18.5731049,18.4935209 18.5731049,18.4935209 18.6045309,18.4935209 C18.6045309,18.4935209 18.635957,18.4935209 18.6674906,18.5246084 L19.1079928,18.8982966 C19.1395265,18.929384 19.1395265,18.929384 19.1395265,18.9605779 C19.1395265,18.9605779 19.1395265,18.9916654 19.1079928,19.0228593 C19.0765668,19.0539468 19.0450332,19.0850342 18.9820735,19.0228593 L18.5415713,18.6491711 Z M18.3526924,19.2718783 L18.1323874,19.0851407 C18.1009614,19.0539468 18.1009614,19.0539468 18.1009614,19.0228593 C18.1009614,19.0228593 18.1009614,18.9916654 18.1323874,18.9605779 C18.1639211,18.929384 18.1639211,18.929384 18.1953471,18.929384 C18.1953471,18.929384 18.2268807,18.929384 18.2583067,18.9605779 L18.6989166,19.3341597 C18.7304502,19.3652471 18.7304502,19.3964411 18.7304502,19.3964411 C18.7304502,19.3964411 18.7304502,19.4275285 18.6989166,19.458616 C18.6674906,19.4898099 18.6360646,19.4898099 18.6045309,19.4898099 L18.5731049,19.458616 L18.3526924,19.2718783 Z M17.9435085,20.3304487 C17.9435085,20.3304487 17.9435085,20.3615361 17.9120825,20.39273 C17.8806565,20.4238175 17.8491229,20.4549049 17.7861632,20.39273 L17.3455534,20.0502357 C17.3140197,20.0191483 17.3140197,19.9568669 17.3455534,19.925673 C17.3769794,19.8945856 17.3769794,19.8945856 17.408513,19.8945856 C17.408513,19.8945856 17.439939,19.8945856 17.4714726,19.925673 L17.9120825,20.2681673 C17.9435085,20.2992548 17.9435085,20.2992548 17.9435085,20.3304487 Z M17.7861632,19.5520913 C17.7547372,19.5208973 17.7547372,19.5208973 17.7547372,19.4898099 C17.7547372,19.4898099 17.7547372,19.458616 17.7861632,19.4275285 C17.8176969,19.3964411 17.8176969,19.3964411 17.8491229,19.3964411 C17.8491229,19.3964411 17.8806565,19.3964411 17.9120825,19.4275285 L18.1323874,19.6143726 L18.3526924,19.8011103 C18.3526924,19.8011103 18.384226,19.8011103 18.384226,19.8323042 C18.384226,19.8323042 18.384226,19.8633916 18.3526924,19.8945856 C18.3212664,19.925673 18.2898404,19.9568669 18.2268807,19.8945856 L17.7861632,19.5520913 Z M15.4573022,24.595711 L15.6145399,24.4712548 C15.6774996,24.4400608 15.7089256,24.346692 15.7089256,24.2844106 L15.0481184,17.7151635 C15.0481184,17.6528821 15.0795444,17.5906008 15.0795444,17.5284259 C15.0795444,17.3415817 15.0481184,17.1859316 15.0165848,17.0302814 C14.9536251,16.7188745 14.9221991,16.5944183 15.2368897,16.3763802 C15.2998493,16.3452928 15.331383,16.2830114 15.331383,16.1896426 L15.2684233,14.9754221 C15.3943426,15.1310722 15.4573022,15.2867224 15.4887283,15.4735665 L16.5902529,24.8448365 L15.4573022,24.595711 Z M15.8662709,26.8685019 L15.7404592,25.0627681 L16.0866834,25.1250494 C16.1181094,25.4052624 16.2124951,25.9967757 16.3069883,26.7128517 C16.1181094,26.7751331 15.9921901,26.8374144 15.8662709,26.8685019 Z M15.0795444,27.1176274 C14.9536251,27.1487148 14.7962798,27.1799087 14.6703605,27.2109962 L14.7648538,25.1250494 L14.7018942,25.1562433 L14.7962798,25.093962 L15.0165848,24.9382053 L15.0795444,24.9382053 L15.2998493,24.9693992 L15.4573022,26.9930646 C15.331383,27.055346 15.2054637,27.0864335 15.0795444,27.1176274 Z M12.8763874,25.9967757 L13.8519928,19.458616 C14.0094457,19.3029658 14.387096,18.8982966 14.6703605,18.462327 L15.2368897,24.2222357 L12.8763874,25.9967757 Z M14.2297507,27.2732776 C14.0724054,27.304365 13.9464861,27.3355589 13.8205668,27.3666464 C13.8519928,27.2732776 13.8835265,27.1799087 13.8835265,27.0864335 L13.8835265,25.7788441 L14.35567,25.4052624 C14.3241363,25.9034068 14.2927103,26.5883954 14.2297507,27.2732776 Z M13.4429166,26.8685019 C13.0966924,26.8374144 12.9079211,26.6817643 12.8449614,26.5572015 L13.4429166,26.1213384 L13.4429166,26.8685019 Z M13.2855713,27.4289278 C12.9708807,27.4289278 12.6246565,27.4601217 12.3098583,27.4601217 C11.7748628,27.4601217 11.2712933,27.4289278 10.7361901,27.3355589 C11.145374,26.1213384 11.5860915,24.2221293 11.8378224,23.1947529 L13.0652664,21.918251 L12.3728179,26.4638327 L12.3728179,26.5572015 C12.4357776,26.806327 12.7190422,27.2421901 13.3800646,27.3044715 C13.3485309,27.3355589 13.3171049,27.3978403 13.2855713,27.4289278 Z M10.2956879,27.2732776 C9.88650404,27.2109962 9.47732018,27.1176274 9.06824395,26.9930646 C9.1626296,26.4326388 9.25701525,25.9967757 9.28854888,25.8723194 L11.2398673,23.8174601 C10.9250691,25.1562433 10.5788448,26.4638327 10.2956879,27.2732776 Z M8.65906009,21.2955437 L12.4672036,16.5944183 C12.8134278,16.2830114 13.2541453,15.9094297 13.6003695,15.5981293 L13.4429166,19.3341597 L13.159652,21.2021749 L9.0052843,25.5298251 L9.1626296,22.9768213 L9.1626296,22.9145399 L8.65906009,21.2955437 Z M8.6904861,26.8685019 C4.72488969,25.4986312 1.79796592,22.0428137 1.26286278,17.8397262 L4.31581345,17.8397262 C4.53611839,17.8397262 4.85080897,17.7151635 5.10264753,17.4661445 C5.35437848,17.217019 5.48029776,16.9057186 5.44876413,16.5321369 C5.41733812,15.8471483 4.91376861,15.5669354 4.53611839,15.4735665 C4.34723946,14.7885779 3.7492843,14.508365 3.71775067,14.508365 C3.49755336,14.4149962 3.27714081,14.3838023 3.08836951,14.3838023 C2.45888072,14.3838023 2.1126565,14.8197719 1.98673722,15.0687909 C1.64062063,15.0687909 1.38878206,15.1621597 1.23143677,15.3178099 C1.64062063,11.5196046 4.00101525,8.28161217 7.30569686,6.63152852 L7.30569686,6.78717871 C7.30569686,6.84946008 7.33723049,6.88054753 7.33723049,6.91174144 L7.58896143,7.22304183 C7.55753543,7.65890494 7.43161614,9.838327 7.58896143,11.5817795 C7.49457578,11.8309049 6.83366099,13.3253384 7.68345471,13.8545703 C7.74630673,13.8857643 7.80926637,13.9168517 7.87222601,13.9479392 L7.77784036,14.4772776 C7.77784036,14.5395589 7.77784036,14.6018403 7.80926637,14.6640152 L8.5017148,15.4735665 L8.21845022,15.971711 C8.18691659,16.0338859 8.18691659,16.0961673 8.21845022,16.1584487 L8.40732915,16.6566996 C8.40732915,16.6566996 8.40732915,16.6877871 8.43875516,16.6877871 L8.65906009,16.968 C8.31283587,17.2793004 8.0295713,17.5595133 7.96661166,17.8085323 L7.96661166,17.8708137 C7.96661166,17.964289 7.99814529,18.7737338 8.47018117,19.0228593 C8.53314081,19.0539468 8.62763408,19.0850342 8.75344574,19.0850342 L8.84783139,19.0850342 L8.59610045,20.7663118 L8.28140987,21.1398935 C8.21845022,21.170981 8.18691659,21.2332624 8.21845022,21.2955437 L8.72201973,22.9768213 L8.56467444,26.059057 C8.56467444,26.1524259 8.59610045,26.2147072 8.6904861,26.2769886 C8.72201973,26.2769886 8.75344574,26.308076 8.78487175,26.308076 C8.75344574,26.4638327 8.72201973,26.6505703 8.6904861,26.8685019 Z M0.633481614,17.2482129 C0.4760287,17.1236502 0.413176682,16.9990875 0.413176682,16.8434373 C0.413176682,16.7811559 0.4760287,16.3142053 1.01113184,16.3142053 C1.13705112,16.3142053 1.23143677,16.22073 1.23143677,16.1273612 C1.23143677,16.0961673 1.32582242,15.3800913 2.1126565,15.4735665 C2.20704215,15.4735665 2.30153543,15.4423726 2.33296143,15.3490038 C2.33296143,15.3179163 2.5848,14.7885779 3.11979552,14.7885779 C3.27714081,14.7885779 3.40306009,14.8197719 3.56040538,14.8820532 C3.56040538,14.8820532 4.03254888,15.0998783 4.15846816,15.6914981 C4.18989417,15.7848669 4.25285381,15.8471483 4.34723946,15.8783422 C4.37877309,15.8783422 5.00815426,15.9405171 5.03968789,16.5632243 C5.03968789,16.8122433 4.97672825,17.0301749 4.81938296,17.1859316 C4.63050404,17.3726692 4.37877309,17.4349506 4.31581345,17.4349506 L1.19990314,17.4349506 C0.97970583,17.4349506 0.790826906,17.3726692 0.633481614,17.2482129 Z M7.02243229,3.39353612 L7.02243229,2.8954981 L8.87936502,2.8954981 L8.87936502,3.39353612 L8.56467444,3.39353612 L7.40008251,3.39353612 L7.02243229,3.39353612 Z M7.43161614,1.43215209 C7.46304215,1.36987072 7.52600179,1.24541445 7.58896143,1.05857034 C7.65192108,1.15193916 7.68345471,1.2765019 7.65192108,1.40106464 C7.62049507,1.52562738 7.71488072,1.6189962 7.84069238,1.65008365 C7.96661166,1.6811711 8.06110493,1.58780228 8.09253094,1.49443346 C8.09253094,1.49443346 8.15549058,1.12085171 8.31283587,0.716076046 C8.43875516,1.05857034 8.53314081,1.40106464 8.43875516,1.52562738 C8.37579552,1.6189962 8.37579552,1.74345247 8.47018117,1.80573384 C8.56467444,1.86801521 8.6904861,1.86801521 8.75344574,1.77464639 C8.75344574,1.77464639 8.84783139,1.6811711 9.0052843,1.49443346 C9.03671031,1.6189962 9.03671031,1.80573384 9.0052843,1.99257795 C8.94232466,2.21050951 8.78487175,2.3661597 8.53314081,2.49072243 L7.52600179,2.49072243 C7.3686565,2.3661597 7.11681794,1.99257795 7.43161614,1.43215209 Z M8.31283587,12.546981 C8.24987623,12.4536122 8.18691659,12.3290494 8.15549058,12.1733992 C7.84069238,10.2741901 8.06110493,7.19195437 8.06110493,7.16076046 C8.06110493,7.09858555 8.06110493,7.06739163 8.0295713,7.00511027 L7.99814529,6.9428289 L8.43875516,6.9428289 C8.5017148,6.9428289 8.56467444,6.91174144 8.59610045,6.84946008 C8.56467444,7.00511027 8.53314081,7.19195437 8.56467444,7.37879848 L8.59610045,7.62781749 C8.72201973,8.28161217 8.94232466,9.62039544 9.0052843,10.6477719 L9.03671031,11.550692 C8.78487175,11.9242738 8.53314081,12.2978555 8.31283587,12.546981 Z M8.34436951,6.00882129 L8.34436951,6.56924715 L8.21845022,6.56924715 L8.15549058,6.56924715 L7.74630673,6.56924715 L7.74630673,6.41359696 L7.74630673,6.07110266 L8.09253094,6.07110266 L8.18691659,6.07110266 C8.21845022,6.07110266 8.28140987,6.04001521 8.34436951,6.00882129 Z M7.55753543,5.47958935 L7.84069238,5.47958935 L8.12395695,5.47958935 L8.15549058,5.47958935 L8.18691659,5.47958935 C8.21845022,5.47958935 8.24987623,5.51067681 8.24987623,5.54187072 C8.24987623,5.57295817 8.21845022,5.63523954 8.15549058,5.63523954 L7.58896143,5.63523954 C7.55753543,5.63523954 7.49457578,5.60415209 7.49457578,5.54187072 C7.46304215,5.51067681 7.49457578,5.47958935 7.55753543,5.47958935 Z M7.55753543,4.88807605 L8.12395695,4.9191635 C8.15549058,4.9191635 8.21845022,4.95025095 8.21845022,5.01253232 C8.21845022,5.04372624 8.18691659,5.07481369 8.15549058,5.07481369 L8.12395695,5.07481369 L7.84069238,5.07481369 L7.55753543,5.07481369 C7.52600179,5.07481369 7.46304215,5.04372624 7.46304215,4.98144487 C7.46304215,4.9191635 7.49457578,4.88807605 7.55753543,4.88807605 Z M7.65192108,3.86059316 L7.65192108,3.8295057 L8.37579552,3.8295057 L8.37579552,3.92287452 L8.37579552,3.95406844 C8.31283587,3.92287452 8.24987623,3.89178707 8.15549058,3.89178707 L7.65192108,3.86059316 Z M8.12395695,4.32765019 C8.15549058,4.32765019 8.18691659,4.35873764 8.18691659,4.35873764 C8.18691659,4.35873764 8.21845022,4.35873764 8.21845022,4.3898251 C8.21845022,4.42101901 8.18691659,4.48330038 8.12395695,4.48330038 L7.55753543,4.45210646 C7.52600179,4.45210646 7.46304215,4.42101901 7.46304215,4.35873764 C7.49457578,4.32765019 7.52600179,4.29645627 7.55753543,4.29645627 L8.12395695,4.32765019 Z M8.21845022,14.4460837 L8.34436951,13.9791331 C8.6904861,13.9168517 9.03671031,13.6677262 9.35150852,13.4187072 L8.72201973,15.0377034 L8.21845022,14.4460837 Z M9.79211839,11.1148289 C9.88650404,11.3327605 9.91803767,11.6129734 9.91803767,11.7686236 C9.91803767,11.8309049 9.94946368,11.8931863 10.0124233,11.9242738 C10.075383,11.9553612 11.113948,12.7026312 11.8063964,13.2319696 C11.9007821,13.3253384 12.5931229,13.9480456 13.3800646,14.0102205 C13.4744502,14.0102205 13.6003695,14.0102205 13.7262888,14.0414144 C12.5931229,14.5706464 10.3272215,15.6914981 8.97375067,16.6877871 L8.78487175,16.4386616 L8.62763408,16.0650798 L8.94232466,15.5358479 L8.97375067,15.504654 L9.72915874,13.512076 C9.76058475,13.4187072 9.72915874,13.2941445 9.60323946,13.2319696 L9.47732018,13.2319696 C9.69762511,13.0139316 9.85507803,12.796 9.91803767,12.7337186 C9.98099731,12.6403498 9.98099731,12.5157871 9.88650404,12.4536122 C9.79211839,12.3913308 9.6661991,12.3913308 9.60323946,12.4846996 C9.31997489,12.8582814 8.43875516,13.8234829 7.93518565,13.512076 C7.65192108,13.3253384 7.65192108,12.8894753 7.74630673,12.4846996 C7.80926637,12.7026312 7.93518565,12.8582814 8.12395695,13.0139316 C8.18691659,13.0762129 8.31283587,13.0762129 8.40732915,13.0139316 C8.87936502,12.6403498 9.50885381,11.6129734 9.79211839,11.1148289 Z M11.0509883,10.0562586 C11.0195623,10.087346 10.9880287,10.1185399 10.9566027,10.1808213 C10.9566027,10.1808213 10.9566027,10.2119087 10.9250691,10.2119087 L10.7047641,9.99397719 C10.7361901,9.96288973 10.7677238,9.90060837 10.8306834,9.80723954 L11.0509883,10.0562586 Z M11.145374,8.90431939 L10.9566027,8.49954373 L11.3028269,8.81095057 C11.2398673,8.84203802 11.2083336,8.87312548 11.145374,8.90431939 Z M11.3342529,9.71376426 L11.113948,9.46474525 C11.1769076,9.40246388 11.2712933,9.34018251 11.3656789,9.24670722 L11.5545578,9.55811407 C11.4915982,9.62039544 11.3972126,9.65148289 11.3342529,9.71376426 Z M11.4915982,11.8931863 C11.4763157,11.8628441 11.4611408,11.8400608 11.4494099,11.8172776 L11.1769076,12.2667681 C11.113948,12.2356806 11.0824143,12.2044867 11.0509883,12.1733992 L11.2398673,11.8931863 C11.2712933,11.8619924 11.2712933,11.8309049 11.2712933,11.7686236 L11.2712933,11.5196046 C11.3028269,11.5196046 11.3342529,11.5196046 11.3656789,11.4884106 C11.3656789,11.550692 11.3972126,11.6440608 11.4286386,11.7374297 C11.4286386,11.7694753 11.4371408,11.7933232 11.4494099,11.8172776 L11.4601722,11.799711 C11.4601722,11.8309049 11.4915982,11.8619924 11.4915982,11.8931863 Z M11.7434368,12.2978555 L11.7434368,12.6403498 C11.6804771,12.6091559 11.6175175,12.546981 11.5231318,12.4846996 L11.6804771,12.2356806 C11.7119031,12.2667681 11.7119031,12.2667681 11.7434368,12.2978555 Z M14.1038314,9.68267681 L14.0094457,9.77604563 C13.9779121,9.74495817 13.9464861,9.71376426 13.9149525,9.71376426 L14.0094457,9.4958327 C14.0408717,9.55811407 14.0724054,9.62039544 14.1038314,9.68267681 Z M14.1352574,8.96660076 C14.1038314,8.93540684 14.0724054,8.90431939 14.0094457,8.87312548 L14.3241363,8.62410646 L14.1352574,8.96660076 Z M14.2297507,14.5706464 C14.0724054,14.5395589 13.9779121,14.4772776 13.9464861,14.4460837 C14.1038314,14.3838023 14.2611767,14.3215209 14.387096,14.2281521 C14.5130152,14.2904335 14.6389345,14.3527148 14.7333202,14.4772776 C14.6389345,14.5395589 14.4814816,14.6018403 14.2297507,14.5706464 Z M14.0408717,11.6129734 C14.0724054,11.4884106 14.0724054,11.3638479 14.0724054,11.2704791 L14.2297507,11.3638479 C14.2611767,11.6440608 14.2611767,11.9242738 14.2611767,12.0176426 L14.2611767,12.0410646 L14.2611767,12.0176426 L14.0408717,11.6129734 Z M13.6003695,12.4224183 C13.6317955,12.3913308 13.6947552,12.3601369 13.7262888,12.2978555 C13.7577148,12.2667681 13.7891408,12.2044867 13.8205668,12.1733992 L13.9779121,12.4846996 C14.1038314,12.9516502 14.2297507,13.4809886 14.2611767,13.7300076 C14.0094457,13.6366388 13.7577148,13.6054449 13.5688359,13.6054449 L13.6003695,12.4224183 Z M13.159652,12.6403498 L13.159652,13.54327 C12.6876161,13.4187072 12.2784323,13.1074068 12.152513,12.9828441 L12.152513,12.6091559 C12.3098583,12.6714373 12.4987372,12.7026312 12.7190422,12.7026312 C12.8763874,12.7026312 13.0338404,12.6714373 13.159652,12.6403498 Z M12.7190422,12.2978555 C12.4042439,12.2978555 12.183939,12.2044867 12.0267013,12.0176426 C11.7434368,11.7063422 11.7434368,11.1771103 11.7434368,10.9590722 L12.6876161,10.3052776 C13.0966924,10.6477719 13.4744502,10.8657034 13.6317955,10.9902662 C13.6947552,11.2392852 13.6633291,11.7374297 13.4114906,12.0176426 C13.2541453,12.2044867 13.0338404,12.2978555 12.7190422,12.2978555 Z M11.113948,17.5595133 L9.09966996,20.0502357 L9.28854888,18.8360152 C9.54027982,18.6491711 10.4529256,18.0265703 11.113948,17.5595133 Z M8.97375067,18.5246084 C8.87936502,18.5868897 8.72201973,18.6491711 8.62763408,18.6180837 C8.47018117,18.5246084 8.37579552,18.1510266 8.34436951,17.8708137 C8.6904861,17.1236502 11.3342529,15.6604106 13.5374099,14.6018403 C13.6003695,14.6640152 13.6633291,14.7574905 13.7891408,14.8197719 C13.0652664,15.504654 11.9007821,16.5632243 11.5231318,16.7811559 C10.9880287,17.1236502 9.03671031,18.462327 8.97375067,18.5246084 Z M14.5759749,17.1236502 C14.6074009,17.2482129 14.6389345,17.3727757 14.6389345,17.5595133 C14.6703605,17.8397262 14.2927103,18.3690646 13.9149525,18.8048213 L14.0408717,15.1933536 C14.1352574,15.0998783 14.2297507,15.0065095 14.2927103,14.9754221 L14.4186296,14.9754221 C14.5759749,14.9754221 14.7018942,14.9443346 14.8277058,14.8820532 L14.8592395,16.0961673 C14.4186296,16.4698555 14.4814816,16.7811559 14.5759749,17.1236502 Z M13.3485309,9.40246388 L13.4114906,8.99768821 C13.5374099,9.02888213 13.6317955,9.0911635 13.7262888,9.1533384 L13.5688359,9.46474525 C13.5058762,9.43355133 13.4744502,9.43355133 13.4744502,9.43355133 C13.4430242,9.43355133 13.4114906,9.40246388 13.3485309,9.40246388 Z M12.6246565,8.43726236 L12.8134278,7.90803042 L12.9393471,8.46845627 L12.7190422,8.46845627 L12.6876161,8.46845627 C12.6560825,8.43726236 12.6560825,8.43726236 12.6246565,8.43726236 Z M12.6876161,8.87312548 L12.7008538,8.87312548 L12.6876161,8.87312548 C12.8134278,8.87312548 12.9079211,8.87312548 13.0023067,8.90431939 L12.9393471,9.30898859 C12.8763874,9.30898859 12.8134278,9.27790114 12.7505758,9.27790114 L12.6560825,9.27790114 L12.5931229,8.87312548 L12.6876161,8.87312548 Z M11.7434368,9.05996958 C11.8693561,8.99768821 11.9952753,8.96660076 12.152513,8.93540684 L12.2154726,9.30898859 C12.1209794,9.34018251 12.0267013,9.37126996 11.9323157,9.40246388 L11.7434368,9.05996958 Z M12.6876161,9.68267681 C12.9079211,9.71376426 13.0966924,9.74495817 13.3171049,9.80723954 C13.3171049,9.80723954 13.9464861,10.0250646 14.166791,10.8035285 L14.0094457,10.6789658 L13.9779121,10.6477719 C13.9779121,10.6477719 13.4430242,10.3675589 12.9079211,9.86941445 C12.8449614,9.80723954 12.7190422,9.80723954 12.6560825,9.838327 L11.4915982,10.6477719 C11.4286386,10.6789658 11.3972126,10.7412471 11.3972126,10.8035285 L11.3972126,11.0525475 C11.1769076,11.1148289 11.0824143,11.083635 11.0195623,11.083635 C11.0509883,10.8657034 11.145374,10.6477719 11.3028269,10.3987529 C11.6175175,9.93169582 12.152513,9.65148289 12.6876161,9.68267681 Z M10.6418045,11.3950418 L10.8306834,11.4884106 L10.8306834,11.6752548 L10.6733381,11.8931863 C10.5158852,11.799711 10.3900735,11.7063422 10.3272215,11.6440608 C10.2956879,11.3950418 10.2327283,10.8035285 9.88650404,10.554403 L9.41446816,10.1808213 C9.38293453,9.99397719 9.38293453,9.80723954 9.35150852,9.62039544 L10.3272215,10.2119087 L10.7047641,10.5854905 C10.6418045,10.7412471 10.5788448,10.8967909 10.5158852,11.0525475 L10.5158852,11.083635 C10.5158852,11.1771103 10.5474188,11.3015665 10.6418045,11.3950418 Z M9.03671031,4.79460076 C9.06824395,4.88807605 9.09966996,5.07481369 9.09966996,5.35502662 C9.09966996,5.54187072 9.06824395,5.75980228 9.0052843,5.97773384 C8.97375067,6.10219011 8.87936502,6.25794677 8.81640538,6.41359696 L8.81640538,6.07110266 L8.81640538,5.41730798 L8.81640538,4.63895057 C8.84783139,4.60786312 8.94232466,4.67014449 9.03671031,4.79460076 Z M12.3098583,4.88807605 C11.3656789,4.88807605 10.4214996,5.01253232 9.54027982,5.23046388 C9.54027982,4.88807605 9.47732018,4.63895057 9.44589417,4.63895057 C9.44589417,4.60786312 9.41446816,4.5766692 9.41446816,4.5766692 C9.1626296,4.26536882 8.97375067,4.14080608 8.81640538,4.14080608 L8.81640538,3.92287452 L8.81640538,3.8295057 L9.13109596,3.8295057 C9.25701525,3.8295057 9.35150852,3.73603042 9.35150852,3.61157414 L9.35150852,2.70865399 C9.35150852,2.61528517 9.28854888,2.5530038 9.22558924,2.52180989 C9.31997489,2.39735361 9.41446816,2.27279087 9.44589417,2.14822814 C9.63466547,1.58780228 9.35150852,1.05857034 9.31997489,1.05857034 C9.28854888,0.996288973 9.22558924,0.965095057 9.1626296,0.965095057 C9.09966996,0.965095057 9.03671031,0.965095057 8.97375067,1.02737643 L8.87936502,1.12085171 C8.78487175,0.716076046 8.56467444,0.280212928 8.5017148,0.15565019 C8.43875516,0.0310874525 8.34436951,0 8.28140987,0 C8.21845022,0 8.12395695,0.0622813688 8.09253094,0.124562738 C7.99814529,0.31130038 7.90365202,0.498144487 7.84069238,0.684988593 C7.71488072,0.498144487 7.55753543,0.373581749 7.55753543,0.373581749 C7.49457578,0.31130038 7.40008251,0.31130038 7.30569686,0.342494297 C7.24273722,0.404775665 7.17977758,0.498144487 7.21131121,0.560425856 C7.24273722,0.716076046 7.14835157,1.02737643 7.0538583,1.21422053 C6.73916771,1.71236502 6.83366099,2.17942205 6.99100628,2.49072243 L6.83366099,2.49072243 C6.7077417,2.49072243 6.61335605,2.58409125 6.61335605,2.70865399 L6.61335605,3.61157414 C6.61335605,3.73603042 6.7077417,3.8295057 6.83366099,3.8295057 L7.21131121,3.8295057 L7.21131121,4.01634981 C7.11681794,4.10961217 7.0538583,4.2341749 7.0538583,4.35873764 C7.0538583,4.48330038 7.08539193,4.5766692 7.14835157,4.67014449 C7.08539193,4.76351331 7.0538583,4.85688213 7.0538583,4.95025095 C7.0538583,5.07481369 7.08539193,5.16818251 7.14835157,5.26165779 C7.08539193,5.35502662 7.0538583,5.44839544 7.0538583,5.57295817 C7.0538583,5.75980228 7.14835157,5.91545247 7.30569686,6.00882129 C3.49755336,7.78346768 0.822252915,11.5817795 0.633481614,15.971711 C0.192764126,16.1273612 0.00399282511,16.5632243 0.00399282511,16.8122433 C-0.0274331839,17.0924563 0.129912108,17.3727757 0.381643049,17.5595133 C0.4760287,17.6217947 0.570521973,17.684076 0.696441256,17.7151635 C1.19990314,22.2295513 4.34723946,25.9656882 8.59610045,27.3978403 C8.72201973,27.4289278 8.87936502,27.4912091 9.0052843,27.522403 C9.38293453,27.6468593 9.76058475,27.7091407 10.1383426,27.8025095 C10.2642619,27.8337034 10.4214996,27.8647909 10.5474188,27.8647909 C11.113948,27.9582662 11.7119031,27.9893536 12.3098583,27.9893536 L12.5616969,27.9893536 L12.9079211,27.9893536 C13.0338404,27.9893536 13.1911857,27.9582662 13.3171049,27.9582662 C13.6003695,27.9270722 13.8835265,27.8959848 14.1352574,27.8647909 C14.2927103,27.8337034 14.4186296,27.8025095 14.5759749,27.8025095 L14.6389345,27.8025095 C14.7962798,27.7714221 14.9221991,27.7402281 15.0795444,27.7091407 C15.2054637,27.6780532 15.362809,27.6468593 15.4887283,27.5846844 C15.6145399,27.5534905 15.7718852,27.4912091 15.8978045,27.4601217 C16.0551498,27.3978403 16.1810691,27.3666464 16.3384143,27.304365 C16.4643336,27.2421901 16.6216789,27.2109962 16.7475982,27.1487148 C20.9964592,25.4052624 23.9864502,21.2644563 23.9864502,16.4698555 C23.9864502,10.087346 18.7618762,4.88807605 12.3098583,4.88807605 Z" id="Fill-59" fill="#000000" mask="url(#mask-2)"></path>
                        <path d="M11.4909396,11.8927462 C11.4909396,11.8618017 11.4599882,11.8307513 11.4599882,11.7998068 L11.4493883,11.8172926 C11.4609421,11.8398651 11.4758879,11.8625435 11.4909396,11.8927462" id="Fill-60" fill="#FFFFFF" mask="url(#mask-2)"></path>
                        <path d="M20.2411265,11.6129308 C20.2095928,11.6752122 20.2411265,11.7374935 20.2725525,11.7997749 C20.3040861,11.8620563 20.3669381,11.8931437 20.4298978,11.8931437 C20.7131623,11.9242312 20.8390816,12.0799878 20.8390816,12.3602008 C20.8076556,12.3912882 20.8076556,12.3912882 20.8076556,12.4224821 C20.7131623,12.7960639 20.3040861,12.8271513 20.2725525,12.8271513 L17.9750099,12.8271513 C17.9120502,12.8271513 17.5345076,12.7960639 17.5345076,12.4224821 C17.502974,12.0487939 17.7861309,11.9865125 17.8176646,11.9554251 C17.9120502,11.9242312 18.0064359,11.8620563 18.0064359,11.7374935 C18.0064359,11.519562 18.1638888,11.3949992 18.1638888,11.3949992 C18.2582744,11.3016304 18.4156197,11.239349 18.541539,11.239349 C18.6674583,11.239349 18.7618439,11.2704365 18.7618439,11.2704365 C18.8563372,11.3016304 18.9821489,11.2704365 19.0451085,11.1770677 C19.1396018,10.9902236 19.2969471,10.8968548 19.5171444,10.8657673 C19.7060233,10.8345734 19.8949022,10.8968548 20.0522475,10.9902236 C20.3669381,11.2082616 20.2411265,11.6129308 20.2411265,11.6129308 M19.3913327,10.4609916 C19.1080682,10.4921856 18.8563372,10.6478357 18.6988843,10.8345734 C18.6360323,10.8345734 18.5730726,10.8034859 18.510113,10.8034859 C18.2582744,10.8034859 18.0064359,10.8968548 17.8176646,11.0836989 C17.8176646,11.0836989 17.5974673,11.2704365 17.5345076,11.5818433 C17.2826691,11.6752122 16.9994045,11.9242312 17.0308305,12.4224821 C17.0623641,13.0450829 17.6288933,13.2008395 17.9120502,13.2008395 L20.2411265,13.2008395 C20.4928574,13.2008395 21.0279605,13.0450829 21.1537722,12.484657 C21.1537722,12.4224821 21.1851982,12.3912882 21.1851982,12.3290068 C21.2481578,12.0487939 21.0909202,11.6752122 20.6503103,11.519562 C20.6817363,11.239349 20.5873507,10.8968548 20.2411265,10.6478357 C19.9892879,10.4921856 19.7060233,10.3987103 19.3913327,10.4609916" id="Fill-61" fill="#000000" mask="url(#mask-2)"></path>
                    </g>
                </g>
            </g>
        </g>
    </g>
</svg>