<svg height="26" viewBox="0 0 23 26" width="23" xmlns="http://www.w3.org/2000/svg" xmlns:xlink="http://www.w3.org/1999/xlink"><mask id="a" fill="#fff"><path d="m.05266789.0339284h11.44733211v14.0895284h-11.44733211z" fill="none"/></mask><mask id="b" fill="#fff"><path d="m.05940963.00816379h8.11710092v3.41570452h-8.11710092z" fill="none"/></mask><mask id="c" fill="#fff"><path d="m.00965326.04317284h.09634507v1.59573663h-.09634507z" fill="none"/></mask><mask id="d" fill="#fff"><path d="m0 .05277037h.32601729v3.25652675h-.32601729z" fill="none"/></mask><g fill="none" fill-rule="evenodd" transform=""><path d="m15.2608376 21.5785556c-1.2991835-.6918354-2.6427844-1.4071029-3.8032293-1.4071029-1.1605505 0-2.50404591.7152675-3.80344041 1.4071029-1.13269725.6030288-2.28470183 1.2147242-3.35409633 1.3803539 1.91965596 1.767037 4.46463761 2.8469465 7.25354584 2.8535802 2.7765643-.0070617 5.3108899-1.0779835 7.2271698-2.8314321-1.1153945-.1239012-2.3279588-.7680164-3.5199496-1.402502" fill="#5cd8ff"/><path d="m7.40177982 6.03671852.48785321 1.49280658c.00865137.02642799.01297706.05413992.01297706.08217284l-.01086697 4.72493826c1.89317431-.5356214 3.43385778-.5320905 3.56447248-.5315555.1319862-.001498 2.0553349-.0100577 4.2635459.7484362l-.0752248-2.1675227c-.0307018-.0031028-.0614037-.0103786-.0905229-.025358-.125867-.0653745-.1755597-.2218025-.1109909-.3492346l.7914954-1.56738267c.0132936-.02653498.0317569-.0493251.0524358-.06986831l1.1503165-2.49107819v-.27530041c-1.6956697-1.12292181-3.7185091-1.77795062-5.8893715-1.78223046-1.4684129.00427984-2.86898626.30600823-4.14611928.84901235z" fill="#5cd8ff"/><path d="m11.4208399 2.80866337c.0074908 0 .0149817.00032099.0224725.00032099.0101284 0 .0201514-.00032099.0302798-.00032099 2.1105138 0 4.0886193.58419754 5.7867156 1.60044445l.0357661-.08463375c-1.7026331-1.03347325-3.6939267-1.62794238-5.8224817-1.62794238-1.47505963 0-2.88438991.28546502-4.17734862.80450205v.08955556c1.27998165-.5044856 2.67095413-.78192593 4.12459632-.78192593" fill="#6693fa"/><path d="m20.9394505 7.91466872.0429151.00042634c-.0693-.10658436-.1400835-.21199629-.2128803-.31602263l.0040266.07578148c.0562665.07919218.1116853.15913045.1659386.23981481" fill="#6693fa"/><path d="m11.2297183.0339284.0150872.23036214c.0757523.41813991.1293486.84419753.1593119 1.27678189.0281698.32965432.0431514.66316049.0431514 1.00009053 0 .19976132-.0049587.39834568-.0149816.59564609-.0381927.76288066-.1502386 1.50618107-.3278028 2.22337449-.1345183.5433251-.3070183 1.07134979-.5143349 1.58139918-.1948669.47955555-.4203302.94316872-.67449078 1.38805761-.27958716.48939918-.59356881.95622222-.93856881 1.39704527-.26165138.3346831-.54123853.6542798-.83728441.9576132-2.0654633 2.1163786-4.92748623 3.431572-8.08713761 3.4388477.00886239 0 .01761927.000321.02648165.000321 6.2974633 0 11.42087156-5.19572017 11.42087156-11.58230454 0-.86067489-.0938991-1.69952263-.2703028-2.50723456" fill="#000" mask="url(#a)" transform="translate(11.394495 11.849794)"/><path d="m22.800308 13.3909095c-.030276-.4325844-.0844316-.858642-.1610809-1.2767819l.0104473.1581399c.0679077.3671029.1180123.7404115.1506336 1.118642" fill="#000"/><path d="m4.15019174 22.5384905c1.92450918 1.767893 4.4757156 2.8463046 7.27063766 2.8463046.0091789 0 .0182523-.000321.0273256-.000321-2.78901372-.0065268-5.33399537-1.0865432-7.25354583-2.8534733-.01477064.0022469-.02964678.0053498-.04441743.0074897" fill="#000"/><path d="m11.4423734 3.39755802c-.0071743 0-.0143486-.00042798-.0215229-.00042798-1.459656 0-2.85242206.29477366-4.12459637.82750617v.02193416c1.27723853-.54300411 2.67770642-.84473251 4.14611927-.84901235" fill="#000"/><path d="m17.2602761 4.40916132c-1.6980963-1.01635391-3.6762018-1.60044445-5.7867155-1.60044445-.010023 0-.0201514.00032099-.0302799.00032099 2.1194817.00417284 4.104867.59714403 5.806234 1.62537449z" fill="#000"/><path d="m20.8868267 7.91449218.0536226.00042634c-.0545821-.08068436-.1103367-.16051605-.1669443-.23981482l.0042643.08217655c.0365657.05222633.0733446.10434609.1090574.15721193" fill="#000"/><path d="m19.3583087 7.7505893.0437844.9020823h-.0001055l.0805 1.6590782.2077385 4.2862551.539445.5605515-.3587156-7.40775311z" fill="#fff"/><path d="m18.7344495 7.7505893.0431514.9020823.2563762 5.3537531.5354357.4755967-.322422-6.7314321z" fill="#fff"/><path d="m18.5819638 8.65263951v1.65907819h.2762463l.1777005 3.6947819-.2574909-5.35386009z" fill="#fff"/><path d="m19.4834899 10.3117498-.08085-1.6590782h-.1121092l-.0434449-.9020823.3237179 6.7314321-.2004826-4.1702716z" fill="#fff"/><path d="m1.18401468 10.9294905 5.0301422-.1195144.12544495-6.09951437c-2.4127844 1.32139918-4.278211 3.54348971-5.15558715 6.21902877" fill="#fff"/><path d="m6.33962294 4.71045103.00063302-.0285679c-2.43894954 1.31786831-4.32568807 3.55311934-5.20939449 6.24888067l.05317431-.001284c.87737615-2.67553906 2.74280275-4.89762959 5.15558716-6.21902877" fill="#fff"/><path d="m20.7425394 16.7024c-.1754541-.2922058-.3866743-.5907243-.63461-.8937366h-1.6447111v-1.6005515c-3.0250275-2.3358271-7.0588899-2.3101481-7.108055-2.312074v.000214h-.0065413c-.0427293 0-4.46833026-.0222552-7.51983943 2.650288-1.50628899 1.3191523-2.25547707 2.5889794-2.50541743 3.7046255.09927981.2673827.20858257.5298437.32738073.7870618 1.39424312-.9967737 4.6436789-2.8289712 9.70114683-2.8289712 5.2933761 0 8.626477 1.8902963 9.9107844 2.7878847.0625642-.1369547.1224908-.2754074.1795688-.415358-.0810276-.5780987-.297523-1.2032757-.688523-1.8595885-.0035871-.0067407-.0081238-.0128395-.0111835-.0197942" fill="#fff"/><path d="m1.32349404 18.2511333c-.00656973.0289959-.01419909.0584198-.02002707.0872017.09441331.2471605.1975156.4899341.30888303.728107.0127156-.0092017.02680872-.0189383.03994817-.0282469-.11931468-.2571111-.22919863-.5195721-.32880413-.7870618" fill="#fff"/><path d="m20.1079716 15.8086634c-.2742065-.3352181-.5934633-.676107-.964945-1.0208478-.0003165-.0005349-.000844-.0007489-.001055-.0009629-.0863028-.079926-.1749266-.1600659-.2669266-.2405268-.1347294-.1180164-.2722019-.2305761-.4117844-.338214v1.6005515z" fill="#fff"/><path d="m19.6410294 7.23170206c-.4332019-.51079836-.9120872-.98061729-1.4296927-1.40367901l.0666789 1.40367901z" fill="#fff"/><path d="m21.7630748 17.6884634c.323477-1.041391.4984036-2.1491194.4984036-3.2975062 0-.0874156-.001266-.1746173-.0032706-.2616049l-.0609817-.9324692c-.1637431-1.5300411-.6378807-2.9668889-1.357633-4.24409874l.3882569 7.55637034c.2360138.4035885.4113624.7976544.5352248 1.1793087" fill="#fff"/><path d="m3.49439633 14.1537794c.84108257-.7364527 1.76962844-1.2763539 2.68519725-1.6740576l.02384403-1.1500988-5.17658256.1227243c-.00021101.000856-.00042202.001712-.00073854.0025679l.07501377-.0012839.56054587 2.2078601-1.00007798 1.5259753c.05401834.7607407.184211 1.5005103.38372018 2.2109629.39616972-1.0199917 1.16656422-2.1214074 2.44907798-3.2446502" fill="#fff"/><path d="m1.02641888 11.4548813c.00031801-.0008479.00053001-.0016958.00074202-.0024377l-.05331893.0011659c-.000212.0007419-.000424.0013778-.00063601.0021197z" fill="#fff"/><path d="m.66184358 15.1874774-.04694175.0713662c.05944542.7629877.19560826 1.5045762.40202478 2.2163128.00943073-.025465.02034495-.0512511.0303055-.0767161-.2003766-.7105596-.33113532-1.4502222-.38538853-2.2109629" fill="#fff"/><path d="m20.6745128 15.6916955-.3028431-5.8689383v5.5004444c.1059633.1232593.2082179.2461976.3028431.3684939" fill="#fff"/><path d="m20.22965 15.158535c.0491651.0551029.0950596.1097778.1420092.1646666v-5.5004444l-.0904175-1.75890535c-.0736422-.10571193-.1492889-.21003292-.2265183-.31296296h-.1836835z" fill="#fff"/><path d="m1.88503991 19.5149152c.48447706.9287243 1.09619266 1.7789136 1.81172477 2.5268148 1.07983945-.0037448 2.32500459-.6642304 3.61405963-1.350609 1.35436239-.7207243 2.75430279-1.4662716 4.04114219-1.4662716 1.2864174 0 2.6869908.7455473 4.0410367 1.4662716 1.3671285.727786 2.6857248 1.42893 3.8096651 1.3454732.724289-.7579588 1.3420184-1.6208806 1.8290276-2.5640493-1.1848165-.8278272-4.4886927-2.7446585-9.6797294-2.7446585-4.94953668 0-8.16204586 1.8531687-9.46692659 2.7870288" fill="#fff"/><path d="m1.88503991 19.5149152c-.01266055.0089877-.02627064.0185103-.03850918.027391.48247248.9185596 1.08965138 1.7597613 1.79864221 2.5004938.01698623.000321.0345-.00107.05159174-.00107-.71553211-.7479012-1.32724771-1.5980905-1.81172477-2.5268148" fill="#fff"/><path d="m5.45364817.64187138h.02597044l-.01102419-.01314216z" fill="#000"/><path d="m5.21636835 4.60231029-4.1376789.08934156-.31894037 5.54645265c.3563945-.9379259.83158716-1.81582713 1.40363303-2.61818927.82082569-1.19011523 1.85761927-2.2153498 3.05298624-3.01760494" fill="#fff"/><path d="m2.16343486 7.61992593c.85469266-1.19856791 1.92799083-2.22669136 3.16292202-3.01995885l-.10993578.00235391c-1.19547248.80225514-2.23226605 1.82748971-3.05298624 3.01760494" fill="#fff"/><path d="m5.30270275.77509725.28747844-.00359644-.10988394-.129472h-.02596101z" fill="#fff"/><path d="m19.8745954 4.8724642-.0445229-.73238683-1.5553486-.03680659.0293302.76919342z" fill="#fff"/><path d="m21.9033959 8.69673251-.4625321-.00406584c.1987706.36860082.3779174.74972016.5368073 1.1413251z" fill="#fff"/><path d="m21.9776817 9.83403457c-.15889-.39171194-.3380367-.77272428-.5368074-1.1413251l-.0274312-.000214c.2085826.37266667.3975413.75817284.5651881 1.15502058z" fill="#fff"/><path d="m21.9885064 10.0001671-.0099174-.15257615c-.1676468-.39695474-.3566055-.78235391-.5650826-1.15512758l-.0530688-.00042798c.2352752.42038683.4453349.85725103.6280688 1.30813171" fill="#fff"/><path d="m5.88009771 1.28820905-1.13681193.01396255-.01951835.35481935 1.15633028-.01993128z" fill="#fff"/><path d="m6.78664798 3.4477177-.15201945-.35490535-.01471156.70670781c.05532826-.02642798.11086973-.05274897.16673101-.07821399z" fill="#fff"/><path d="m6.7866667 3.80599605v-.08470058c-.05586129.02522996-.11140276.05130799-.16673101.07749202l-.0018123.08385251c.05586129-.02586601.11204239-.05162601.16854331-.07664395" fill="#fff"/><path d="m20.2196587 6.86839753-.0662569-1.29058436h-1.1677247c.4434357.39716872.8563807.82846913 1.2339816 1.29058436" fill="#fff"/><path d="m20.2241849 6.95700082-.0045367-.08859259c-.377601-.46211523-.7905459-.89341564-1.2339817-1.29058436h-.1103578c.4864817.42092181.9378303.88228806 1.3488762 1.37917695" fill="#fff"/><path d="m20.2276876 7.02439753-.0034816-.06740741c-.4110459-.49688889-.8623945-.95825514-1.3488762-1.37917695h-.0527523c.5086376.43996708.9791881.92380247 1.4051101 1.44658436" fill="#fff"/><path d="m6.14230826 2.1528963-1.84263762.03188477-.07343119 1.91982716 1.87608257-.04055144z" fill="#fff"/><path d="m21.0316431 19.4725449c-.4869037.9431687-1.1047385 1.8060905-1.8290275 2.5640493.0198349-.0013909.0391422-.0043868.0588716-.0063127.714688-.7490782 1.3253486-1.6005515 1.8085596-2.5304527-.0131881-.0093086-.0246881-.0177613-.0384037-.0272839" fill="#000"/><path d="m19.9940161 21.8206551c.1296651-.0654814.2558486-.1454074.3776009-.2441646.345-.440823.6588761-.9076461.9385688-1.3970452.0436789-.131284.080078-.2671688.1075092-.4081893-.4011285.7362387-.8793808 1.4230452-1.4236789 2.0493991" fill="#000"/><path d="m21.0700784 19.4998609c-.483211.9299012-1.0938715 1.7813745-1.8086651 2.5304527.2550046-.025358.4998807-.0921235.7326239-.209712.5442981-.6263539 1.0225504-1.3131604 1.4236789-2.0492921.0007385-.0037449.0017935-.0071688.0024266-.0106996-.0752248-.0600247-.1939175-.1504362-.3500643-.260749" fill="#000"/><path d="m1.41541789 19.8730412c-.01213303.0099506-.02605963.0210781-.03703211.0302798.35829358.6686173.77988991 1.2974321 1.25603211 1.8786337.03070183.0172264.06172018.0326338.09284404.0480412-.49977523-.6033498-.94036239-1.2585926-1.31184404-1.9569547" fill="#000"/><path d="m1.53339312 19.7783284c-.04399541.0346667-.08334862.0662304-.11795413.0946914.37148165.6984691.81206881 1.3537119 1.31173853 1.9569547.11426147.0563868.23158257.1003621.35143578.1335308-.59494036-.6623045-1.11423394-1.3954403-1.54522018-2.1851769" fill="#000"/><path d="m1.53339312 19.7783284c.43098624.7897366.95027982 1.5228724 1.54522018 2.1851769.18294496.0505021.37190367.0761811.56655964.079391-.70899083-.7408395-1.31616973-1.5820412-1.79864221-2.5006008-.12333486.0890205-.22620183.1675555-.31313761.2360329" fill="#000"/><path d="m19.6410294 7.23170206h.0526467c-.4485-.52888066-.9457431-1.014-1.484344-1.44851029l.0020046.04483128c.5176055.42306172.9964908.89288065 1.4296927 1.40367901" fill="#fff"/><path d="m18.2093005 5.78323457c.5386009.43451029 1.035844.91962963 1.484344 1.44851029h.5446147l-.0105505-.20735803c-.425922-.52278189-.8964725-1.00661728-1.4052156-1.44647736h-.6230046z" fill="#fff"/><path d="m1.23195266 19.3525774c.01855032-.0147087.03869066-.03027.05872501-.0458313-.02173037-.0440194-.04356675-.0880387-.06476712-.1324844.00106002.0599004.00201404.1198009.00604211.1783157" fill="#000"/><path d="m1.30376395 18.3383778c-.05891559.2902798-.08243945.5691111-.07777706.8358518.0210867.0446173.04291514.0888066.06463761.1331029.09250597-.0723292.19963487-.1530041.32202248-.2409547-.11136743-.2381729-.21436376-.4809465-.30888303-.728" fill="#000"/><path d="m17.3317766 5.14450123c-1.690289-1.10526749-3.7016284-1.74734979-5.8581422-1.74734979-.010445 0-.0208899.00032099-.0312294.00042798 2.1708624.00427984 4.1937019.65920165 5.8893716 1.78223046z" fill="#000"/><path d="m11.4433018 2.80902716c-.0074908 0-.0149816-.00032099-.0224724-.00032099-1.45364224 0-2.84461472.27733334-4.12459637.78181893v.02043622c1.28557339-.51422223 2.68445871-.79797531 4.14706877-.80193416" fill="#000"/><path d="m7.29627523 4.22468971c1.27217431-.53273251 2.66494037-.82750617 4.12459637-.82750617.0071743 0 .0142431.00032099.0215229.00042798.0103394-.00010699.0207844-.00042798.0312294-.00042798 2.1565137 0 4.1678532.6420823 5.8581422 1.74734979v-.1610288c-.0583441-.01679836-.1100413-.05339095-.1442248-.10603293-.0473716-.0727572-.0554954-.16477366-.021523-.24491358l.0835597-.19815637c-1.701367-1.02823046-3.6868578-1.62120165-5.806234-1.62537449-1.46271556.00395885-2.86149538.28771193-4.14706877.80193416z" fill="#000"/><path d="m.11690963.0130856c-.01909633-.00181893-.03840367-.0026749-.0575-.00492181 2.06947248 2.1085679 4.93244496 3.41573662 8.09083028 3.41573662.00886238 0 .01751376-.00032099.02627064-.00032099-3.14551376-.00727572-5.9961422-1.31069958-8.05960092-3.41049382" fill="#000" mask="url(#b)" transform="translate(3.270642 22.549383)"/><path d="m11.4481445 25.3844848c.0085459 0 .0169862.000321.0254266.000321 2.7850046 0 5.3276651-1.0708149 7.2496422-2.8273663-.0159312-.0016049-.0318624-.0025679-.0478991-.0043868-1.9162798 1.7534485-4.450711 2.8244773-7.2271697 2.8314321" fill="#000"/><path d="m19.2860803 22.5660206c-2.0353945 1.9580247-4.7854771 3.1594815-7.8125092 3.1594815-3.02186238 0-5.76793578-1.197605-7.80227523-3.1499589-.00506422 0-.01023394.000642-.01529816.000642-.09031193 0-.17967432-.0053498-.26840367-.0136955 2.06335321 2.0997943 4.91408715 3.4031111 8.05949536 3.4103868 3.1596514-.0072757 6.0216744-1.3224691 8.0872432-3.4388477-.0820826.0145514-.1647982.025037-.2482523.0319918" fill="#000"/><path d="m18.7232239 22.5573967c-1.9219771 1.7565514-4.4646377 2.8273663-7.2496422 2.8273663-.0084404 0-.0168808-.000321-.0254267-.000321-.0090733 0-.0181467.000321-.0273256.000321-2.79492206 0-5.34612848-1.0784116-7.27063766-2.8463046-.16163302.0232181-.32147247.0362716-.47888532.0370206 2.03433945 1.9524609 4.78041285 3.1500659 7.80227528 3.1500659 3.0270321 0 5.7771146-1.2014568 7.8125091-3.1594815-.0787064.0065267-.1578348.0100576-.2378073.0100576-.1071927 0-.2157569-.0077037-.3250596-.0187243" fill="#000"/><path d="m6.61750092 3.90842498c.0562877-.02639031.1124688-.05288661.16918293-.07842904v-.02321075c-.05650091.0250125-.11268202.0507669-.1685433.07662728z" fill="#fff"/><path d="m6.67031202 4.06631235c.01321908.00362386.0271844.00564897.03933743.01108477.01727009.00778066.03155523.01971811.04658661.03101605.0097011.0074609.02110788.01119136.03016935.02014444 0 0 0 .00021317.00031982.00053292v-.29886255c-.05671413.02568683-.11289523.05233293-.16918294.07887243l-.00298495.14559424c.01961541.00074609.03720532.00639506.05575468.0116177" fill="#fff"/><path d="m20.2781151 7.98233663c-.0557367-.07791317-.112639-.15508025-.170389-.23150124h-.0529816c.0775651.10264074.1535408.20645391.2275032.31186584z" fill="#fff"/><path d="m20.2668404 7.75084609h-.1593753c.0581.07642099.1153472.15348148.1714217.23150124z" fill="#fff"/><path d="m.02470552 1.43658025.01325023.20232922c.01007017-.19730042.01505226-.39588478.01505226-.5956461 0-.33703703-.01505226-.67043621-.04335475-1.00009053.01897433.27091358.0292565.54428807.0292565.82012346 0 .1922716-.00498208.38336625-.01420424.57328395" fill="#000" mask="url(#c)" transform="translate(22.788991 13.347737)"/><path d="m22.8142972 14.7843169c.0092189-.1899177.0141991-.3810124.0141991-.573284 0-.2758354-.0102784-.5492099-.0292458-.8201234-.0323188-.3782305-.0822276-.7515391-.1497262-1.118642z" fill="#000"/><path d="m.36802844 17.0951284-.05531284-.0100576c.11592385.4900411.26310688.9679918.43879403 1.4318189.00445046-.0320988.01112615-.0649465.01621239-.0972592-.1585211-.4301235-.29214083-.8722305-.39969358-1.3245021" fill="#000"/><path d="m.39561687 17.0113564c.03349658 0 .05639298.0150284.07208125.0354926-.02501644-.098484-.04833684-.197714-.07059722-.2972638-.00063602.0920889-.00498209.2617712-.00148403.2617712" fill="#000"/><path d="m.34058991 16.6665419c.01197821.0108128.02650046.0180214.04367275.0212016-.0115542-.0527921-.0235324-.1052661-.03434459-.1582702z" fill="#000"/><path d="m.48493119 17.116335-.11708945-.0211852c.10744679.4522716.24117248.8943786.39969358 1.3245021.01292752-.08014.02808028-.1610289.04556422-.2425597-.12577844-.3460247-.23534449-.6999671-.32816835-1.0607572" fill="#000"/><path d="m.97506514 11.4536527-.28567707.006677.28504129-.0045573c.00021192-.0007419.00042385-.0013778.00063578-.0021197" fill="#000"/><path d="m.61485963 15.2588436-.00094954.001391c-.02806422-.3073992-.07691284-1.5249054-.07691284-1.5249054l.15234862-2.2749465-.33951376 5.0690371c.01086697.0534979.02268349.1065679.03418349.1597448.00400917.000749.00749082.0019259.0116055.0022469.00147707 0 .00158257.0238601.00147707.0582058.02215596.0999341.04536697.1994403.07026605.2984115.01593119.0211852.02416055.0480412.02848624.0702963l.00527523.00107c-.00084404.0150864-.00116055.02493-.00126606.0316707.00063303.0117696-.00021101.0142305 0 0-.00042201-.0079177-.00147706-.0192592-.00400917-.0327407l-.0113945-.0020329c.09242202.3607901.20151377.7147325.32664221 1.0607572.04916513-.2289712.115211-.4627572.20404587-.701893-.20541743-.7117366-.34099083-1.4533251-.40028441-2.2163128" fill="#000"/><path d="m22.2614362 14.3909679c0 1.1483868-.1748211 2.2560082-.4984036 3.2975062.0093899.0288889.0164587.0572428.0252156.0859177.2976284-.9309712.4757201-1.9156544.5162339-2.9359671l-.046211-.7090617c.0018991.0869876.0031651.1741893.0031651.2616049" fill="#000"/><path d="m21.96615 18.6166848c.0066468.0584197.0142431.1170535.0185688.1746173.2073165-.5099424.379711-1.0379671.5143349-1.5812922-.0182523-.0252511-.0299633-.0548889-.0382982-.0861317-.1317752.5124033-.2976284 1.0107901-.4946055 1.4928066" fill="#000"/><path d="m22.3045032 14.8384354c-.0405138 1.0203127-.2186055 2.0049959-.5163394 2.9359671.0882018.2887819.1465458.569967.1779862.8422716.1969771-.4820165.3628303-.9804033.4946055-1.4928066-.0044312-.0166914-.0092844-.0332757-.0103394-.051251z" fill="#000"/><path d="m21.2626454 18.9955753c.0139872.0096992.0264908.0185457.0399482.0280317.052028-.1121268.1027844-.224893.1511036-.3390449-.0039206-.0344267-.005722-.0680008-.0107022-.1027473-.0573262.1394124-.1174074.2773325-.1803496.4137605" fill="#000"/><path d="m21.4803014 19.1511695c.0019073-.1511366-.0085831-.3072827-.0268087-.4662-.0483193.1141519-.0989698.2269182-.1511037.3390449.0643197.0449786.1247188.0880387.1779124.1271551" fill="#000"/><path d="m2.16343486 7.61992593c-.57215137.80236214-1.04734403 1.68026337-1.40373853 2.61818927l-.00960092.1658436c.03639909-.1002551.07448624-.1995473.11341743-.2984115.33360551-.88635388.77187156-1.71995882 1.29992202-2.48562137" fill="#fff"/><path d="m5.38090275 4.59881152-.05465137.00117696c-1.23482569.79326749-2.30822936 1.82139094-3.16281652 3.01995885-.52805046.76566255-.96631651 1.59926748-1.29992202 2.48562137.8991101-2.28158022 2.49402294-4.20739915 4.51738991-5.50675718" fill="#fff"/><path d="m.86402021 10.1055473c-.03911468.098484-.07727534.1975008-.11384597.2972638l-.00106002.0191852c.03678264-.106158.0750493-.2116765.11490599-.316449" fill="#fff"/><path d="m1.13084037 10.9307424c.88370642-2.69576133 2.77044495-4.93090536 5.20939449-6.24888067l.00211009-.10389301-.9614633.0208642c-2.02336697 1.29925103-3.61827982 3.22506996-4.51738991 5.50675718-.03966972.105177-.07775688.2109959-.11436697.3176708l-.02975229.5172181z" fill="#fff"/><path d="m22.1972472 13.1968831-.0463165-.7114156c-.2257798-1.3041728-.679133-2.52981071-1.3165917-3.63358026l.0052752.10089712c.7197523 1.27720984 1.1938899 2.71405764 1.357633 4.24409874" fill="#fff"/><path d="m20.8258881 8.68738107.0084403.16455967c.6374588 1.10366255 1.090812 2.32930046 1.3165918 3.63358026l-.1623716-2.4853004c-.1828394-.45098768-.3927936-.88774488-.6281743-1.30823871z" fill="#fff"/><g fill="#000"><path d="m20.8861651 7.91395967c-.0355106-.05258008-.0720812-.10441811-.1084399-.15636214l.0081622.15551407z"/><path d="m15.3930243 20.6911317c-1.3540459-.7207243-2.7546193-1.4662716-4.0411422-1.4662716-1.2867339 0-2.68677981.7455473-4.04103669 1.4662716-1.28905504.6863786-2.53422018 1.3467572-3.61405963 1.350609.1608945.1681976.3266422.3316873.49777064.4891852 1.0693945-.1656296 2.22139908-.7773251 3.35409633-1.3803539 1.2993945-.6918354 2.64288995-1.4071029 3.80344035-1.4071029 1.160445 0 2.5040459.7152675 3.8032294 1.4071029 1.1919908.6344856 2.404555 1.2786008 3.5199495 1.4025021.1814679-.1660576.3572386-.338428.5273119-.5164692-1.1238348.0834568-2.4424311-.6176872-3.8095596-1.3454732"/><path d="m3.69675413 22.0416979c-.01709174 0-.03460551.0013856-.05159174.0011725.16321559.1697889.3312844.3346749.50505045.4936987.01466514-.0021317.02964679-.0052226.04441744-.0074609-.17112845-.1569987-.33698166-.3198596-.49787615-.4874103"/><path d="m5.46848211.62872922.01097248.01326749h.67058715l-.46021101-.55027984c-.04452293-.05317695-.10803669-.0858107-.17661467-.0910535-.06952753-.00492181-.13599542.01786832-.18758716.06409054l-.64663762.5772428h.77461468z"/><path d="m22.1972472 13.1968831.0612691.9324692c-.0073141-.314247-.0281965-.625177-.0612691-.9324692"/><path d="m11.3519138 16.2092239c-5.05757343 0-8.30690371 1.8323045-9.70114683 2.8289712.07438074.1610288.15245413.3200247.23422019.4767736 1.30498623-.9338601 4.51749541-2.7871358 9.46692664-2.7871358 5.1910367 0 8.4950183 1.9168313 9.6797293 2.7447655.080711-.156321.1576239-.3147819.2310551-.4753828-1.2843074-.8976954-4.6174083-2.7879917-9.9107844-2.7879917"/><path d="m1.61097064 19.0663992c.07512798.1608148.15396468.3194897.23651009.4759177.01239771-.0088807.02606698-.0184033.03878257-.027391-.08222752-.1567489-.16064036-.3156378-.23534449-.4767736-.01313945.0093086-.02723257.0191522-.03994817.0282469"/><path d="m21.9033959 8.69673251.0742752 1.13725926c.0365046.08998354.0718486.18039503.1061376.27155553.2253578.571786.4066147 1.1659342.5403945 1.7781646l-.2142798-3.28145676.1734495-.27390946c.0501147-.07939095.0539129-.18028807.0097065-.26363786-.044523-.08302881-.1296652-.1351358-.2228257-.13588477l-1.3887569-.01251852c.1626881.2521893.3161972.51101234.459367.77636214z"/><path d="m21.4134853 8.69244198.0274312.00021399c-.1432752-.2653498-.2967844-.52417284-.4594725-.77636214l-.0427293-.00042799c.1681743.25197531.3262202.51122634.4747706.77657614"/><path d="m22.0843089 10.1044498c-.0344505-.0907033-.0699612-.18087367-.1066378-.27040453l.000954.01342963c.0362526.0851609.0714453.1707481.1056838.2569749"/><path d="m22.6392482 12.1141169-.0150872-.2303622c-.1336743-.6122304-.3150367-1.2064856-.5403945-1.7782716.2423441.6439013.4297202 1.3153004.5554817 2.0086338"/><path d="m21.9786101 9.84755885.0099174.15257615c.2935138.7238271.5167615 1.4840329.6609863 2.2721646l-.010234-.1581399c-.125867-.6933334-.3131376-1.3648395-.5554816-2.0086338-.034078-.0865596-.0691055-.17258434-.1051881-.25796705"/><path d="m21.3604271 8.69202469.0530688.00042798c-.1485505-.26545679-.3065964-.52460082-.4747707-.77657613l-.0530688-.00042798c.1681743.25186831.3263257.51111934.4747707.77657613"/><path d="m.01335688 13.8267933.000106.0010599c.00116602-.0219389.00265005-.0437719.00381607-.0657108z"/><path d="m4.29969174 2.18481317 1.84263762-.03188477-.03998624 1.91116049-1.87608257.04044444zm.44354129-.88260905 1.13681192-.01401647v.35030453l-1.15622477.01990124zm-3.66449083 3.38941563 4.1375734-.08934156c.44681192-.29980247.9154633-.56846914 1.40352752-.80279012l.01466514-.70670782.15044954.35490535v.27358847c.16817431-.07746502.33877523-.15097119.51127523-.22019753v-.1065679c0-.03530864-.0068578-.0700823-.0206789-.10250206l-.34172936-.80760493v-.59532511c0-.0493251-.0138211-.09758024-.04019725-.13930864l-.54239908-.86345679c-.00601376-.01005761-.01297706-.01936625-.0206789-.0284609l-.18051835-.2158107h-.67048165l.10940826.13096296-.28623395.00363786.15097707-.13460082h-.77472019l-.16163302.14423045-.01941285.00021399c-.13451835.00149794-.24477064.10870782-.25226147.24512757l-.03481651.63587655-.16184404.00288888c-.13557339.00224692-.24582568.1118107-.25131192.24930042l-.08387615 2.19630452-2.88249082.06227161c-.1332523.00288889-.24202753.1092428-.24983487.2443786l-.55126147 9.126107c.0826101-1.1586584.33413303-2.2705597.72945872-3.3106667z"/><path d="m6.78492615 3.80560947c.16838532-.07578149.33877523-.14772593.51138073-.215407v-.08910453c-.1726055.06896008-.34310092.14218354-.51138073.21935062z"/><path d="m6.61811284 3.88416461.00179358-.08474074c-.48806422.23442798-.9568211.50309465-1.40352752.80289712l.10993578-.00235391c.41336697-.26556379.84488073-.50480659 1.29179816-.71580247"/><path d="m.3246727 16.9056387-.0119782.178742.05533295.0100189c-.01494626-.0627782-.0293625-.125663-.04335475-.1887609"/><path d="m.46881156 17.0465877c-.01567101-.0204642-.0386978-.0354926-.07249174-.0354926-.00351798 0 .00085284-.1697889.00149247-.2618778-.00447743-.0200379-.00874165-.0400757-.01311247-.0601136-.01727009-.0030909-.03187505-.0104453-.04392147-.0213169l-.01620404.2369371c.01407193.0630979.02857028.1259827.04370826.1887609l.11779908.0211037c-.00596991-.0225959-.01151339-.0452984-.01727009-.0680008"/><path d="m.46732202 17.0480502c.0057241.0225749.01123619.0451497.0171723.0676186l.0115542.0020137c-.00445208-.0220449-.01272022-.0486472-.0287265-.0696323"/><path d="m.39566475 16.6913582c-.00413407-.000212-.00763213-.0014838-.0115542-.0022257.00434608.0199252.00858615.0399564.01303823.0598816.000212-.0339152 0-.0576559-.00148403-.0576559"/><path d="m.4998809 17.151023c-.00021201.0142021.00063601.0116584 0 0"/><path d="m.50114 17.1193539-.00530009-.0009539c.00265004.0133541.00360406.0245886.00402807.0323255.000106-.0066771.00042401-.0164277.00127202-.0313716"/><path d="m19.8300936 4.14010947.0445229.73238683h-1.5705413l-.0293302-.76919342zm.323266 1.43781069.0662569 1.29047737c.1927569.23581893.3760184.47966255.5498899.7306749l-.1006514-1.96209054.2346422-.36314403c.0513808-.07960494.0557065-.18167901.010867-.26545679-.0446284-.08377778-.1311422-.13588477-.2249358-.13588477h-.3022706l-.0515917-.8529712.1335688-.26310288c.0406192-.08013992.0372431-.17568724-.0082294-.25272428-.045789-.07703703-.1274495-.12443621-.2161789-.12550617l-2.3662569-.02706996c-.1077202.00139095-.1975046.06077366-.2382293.15728395l-.3442615.81605761c.6016927.36517696 1.1669862.7853498 1.689656 1.25345679z"/><path d="m18.8752982 5.57786667h.1103578c-.5226698-.468107-1.0880688-.88817284-1.689656-1.2533498l-.0357661.08463375c.5720459.34238683 1.1123349.73388477 1.6150643 1.16871605"/><path d="m20.2241849 6.95700082c.1919128.23186009.3754908.47120988.5492568.71804939l-.0039036-.07596708c-.1738716-.25101235-.3572386-.49496297-.5498899-.7306749z"/><path d="m18.8225459 5.57786667h.0527523c-.5027294-.43483128-1.0430184-.82632922-1.6150643-1.16871605l-.0106559.02525103c.5565367.33639506 1.0826881.71922633 1.5729679 1.14346502"/><path d="m20.7776725 7.75758683-.0042202-.08249383c-.1737661-.2468395-.357344-.4861893-.5492569-.71804938l.0034817.06730041c.1927568.2365679.3760183.48148148.5499954.7332428"/><path d="m18.6753142 22.5530634c.0160367.0018189.0319679.0026749.0478991.0043868.1853716-.1694815.3648349-.3453827.5382844-.5271687-.0197294.0019259-.0390367.0049218-.0588716.0063127-.1700733.1780412-.345844.3504116-.5273119.5164692"/><path d="m19.2860803 22.5660206c.0834541-.0069548.1661697-.0174404.2482523-.0319918.2959403-.3032263.575633-.622823.8372844-.9575062-.1217523.0986502-.2480413.1786832-.3776009.2441646-.2251468.2589301-.4610551.5078025-.7079358.7453334"/><path d="m19.9940161 21.8206551c-.2327432.1175885-.4775138.184247-.7325184.209605-.1734495.181893-.3529128.3576872-.5382844.5271687.1093028.0110206.2179725.0187243.3250596.0187243.0799725 0 .159101-.0035309.2378074-.0101646.2468807-.2374239.482789-.4864033.7079358-.7453334"/><path d="m6.61750092 3.90939424.00063302-.02525103c-.44691743.21099588-.87843119.45023868-1.29179816.71580247l.05454587-.00117696c.39638074-.2546502.80932569-.48490535 1.23661927-.68937448"/><path d="m7.29627523 3.61085103v-.02025103c-.17260551.06768107-.34299541.13951893-.51138073.215407v.02334197c.16827981-.07684732.33877522-.14975103.51138073-.21849794"/><path d="m6.34230275 4.57801152-.00211009.10389301c.31007798-.16766255.62901835-.32023869.95608257-.45719342v-.61383539c-.17260551.06901235-.34310092.14219753-.51138073.21934156v.30001646c-.00031652-.00021399-.00031652-.00042798-.00031652-.00042798-.00896789-.00909465-.02015137-.0128395-.0298578-.02032922-.01477064-.01134156-.02890825-.0233251-.046-.0311358-.01213302-.00545679-.02584862-.00748971-.03893119-.01112757-.0183578-.0052428-.03576605-.01091358-.0552844-.01166255l.00295413-.14615638c-.42718808.20446913-.84013303.43472428-1.23651377.68937448z"/><path d="m21.0316431 19.4725449c.0137752.0095226.0253252.0179753.0385707.0272839.0814857-.156.1592628-.3141399.2333312-.4745267-.0134574-.0095227-.0259611-.0184033-.0399482-.02814-.0736445.1606009-.1508918.3190618-.2319537.4753828"/><path d="m21.4422248 18.5818362c.0049802.0348807.0066757.0685844.0107023.103144.1252486-.2970205.2373578-.6008888.3367513-.9105349-.0087949-.0287819-.0157885-.0571358-.0252192-.0860247-.0948372.3037613-.2026019.6016378-.3222344.8934156"/><path d="m21.4177055 19.7712774c-.0274312.1410205-.0638303.2769053-.1076147.4081893.2542661-.4448889.4796239-.9085021.6745964-1.3881646-.0043257-.0575638-.0118166-.1161976-.0185689-.1746173-.162055.3965267-.3453165.7818189-.5484128 1.1545926"/><path d="m21.4528385 18.6849588c.0181468.1595309.0285918.3162799.0266927.468-.0529633-.0392674-.1131009-.0824938-.1771422-.127646-.0737477.1603868-.1511881.3185267-.2323211.4745267.1562523.1103128.2749449.2007243.3500642.260749-.000633.0035308-.0016881.0070617-.0024266.0106996.2030963-.3727737.3863578-.7580659.5484128-1.1545926-.0314403-.2724115-.0896789-.5534897-.1778807-.8422716-.0990688.3096461-.2105871.6135144-.3353991.9105349"/><path d="m2.72721972 21.8299531c-.03112385-.0153004-.0621422-.0308148-.09284403-.0479342.22050459.2689877.45250917.5278107.69569725.7755062.01909633.0022469.03840367.0032099.0575.0049218-.23031652-.234321-.45039909-.4789136-.66035322-.7324938"/><path d="m3.07866606 21.963484c-.11995872-.0331688-.23717432-.0771441-.35143578-.1335309.20995412.2535802.43003669.4981728.66035321.7324938.08883486.0084527.17809174.0136955.26850917.0136955.00506422 0 .01012844-.000535.01519266-.000642-.2047844-.1965514-.4026055-.4005926-.59261926-.6120164"/><path d="m3.64513073 22.0428428c-.19465596-.0031029-.38361467-.0288889-.56645412-.0793909.19001376.2114238.38783486.415465.59261926.6121234.15741285-.000856.3172523-.0139095.47888532-.0371276-.17366055-.1595308-.34183486-.3250535-.50505046-.4956049"/><path d="m.75013762 10.4039053.00960091-.1658436c-.39532569 1.040107-.64684862 2.1520083-.72945871 3.3106667l-.01297707.2134568c-.00116055.0221481-.00274312.0440823-.00379816.0663374l.04167431.3668889c.02183945-1.3297448.26502752-2.6058848.69495872-3.7915062"/><path d="m.11958945 14.2110436c0-1.3271769.22208716-2.6014979.62954587-3.7877613l.00105505-.0193663c-.4300367 1.1856214-.67311927 2.4617614-.69495872 3.7915062l.09147248.8052511c-.01740826-.260963-.02711468-.5241729-.02711468-.7896297"/><path d="m.26939541 16.0805399.02077636.182856c-.00678411.1202634-.02692446.3339341.05077488.4044444l.00932816-.1384526c-.03010452-.1485103-.05660498-.2983046-.0808794-.4488478"/><path d="m.68935642 11.4603934.28444037-.0067407c.04811009-.1761153.10054587-.3504115.15709633-.5228889l-.41157339.0097366.02975229-.5172181c-.40735321 1.1862634-.62944037 2.4605844-.62944037 3.7877613 0 .2654568.00960092.5286667.02700918.7896297l.12280734 1.0799094c.02416055.1504362.05043119.3003375.08039449.4488478z"/><path d="m.01728165 13.7613428.01303823-.2126358c-.00519409.0706654-.00922216.1416506-.01303823.2126358"/><path d="m.05294986.61524774c0-.06537449.00148349-.13042799.00243716-.19558848l-.04185551-.36688889c-.00890091.18638683-.0135633.37384362-.0135633.56247737 0 .92733333.1091422 1.82920164.31407523 2.69404938l.01197385-.1794321c-.17823027-.80995885-.27306743-1.65126749-.27306743-2.51461728" mask="url(#d)" transform="translate(0 13.77572)"/><path d="m.29113807 16.2633959-.0207688-.182856c-.05743211-.3547983-.0987578-.7149465-.12323533-1.0798025l-.09197614-.805358c-.00095367.0651605-.00243716.130214-.00243716.1955885 0 .8633498.09483716 1.7046584.27306743 2.5146173l.01610643-.2377449c-.07767111-.0705103-.05753808-.284074-.05075643-.4044444"/><path d="m.26997371 16.0805399-.12328013-1.0798025c.02448642.364856.06582714.7250042.12328013 1.0798025"/><path d="m20.3716275 8.2004642c.1656207.24448559.3239298.49432099.4700532.75228806l-.0052981-.10089712c-.1454876-.25079835-.3006179-.49528395-.4647551-.73292181z"/><path d="m19.9576794 7.62197119h.0551009c-.1033142-.13259094-.2097014-.26262386-.3188436-.39031193h-.0528757c.1087184.12736831.213622.25804074.3166184.39031193"/><path d="m19.6936761 7.23170206c.1086698.12807407.2145964.25860905.3174633.39181893h.3605092v.49539094c.1634266.23774486.3177798.48212346.4627431.73302881l-.0085458-.16455967.5345917.00460082c-.1484449-.26545679-.3065963-.52460082-.4747706-.77657613l-.0998074-.00085597-.0082293-.15696296c-.1739771-.25176132-.3571331-.4966749-.5498899-.7331358l.0105504.20725103z"/><path d="m20.2812822 8.06358436c.0312706.04455227.0601031.09102305.0907376.13600165v-.08121729c-.0312705-.04529835-.0628591-.09038353-.0948716-.13514897z"/><path d="m20.0557294 7.74952099h.0533028c-.0323015-.04214118-.0643897-.08438824-.0973308-.126h-.0554349c.0331543.04203529.0668417.08354117.0994629.126"/><path d="m20.2662991 7.75035638.0119738.23150123c.032001.04476544.063578.08985062.0949432.13514897v-.49348559h-.3620767c.0326367.04188765.0646377.08441481.0967445.12683539z"/><path d="m22.2593602 14.1293844.0466932.7090617c.0059699-.1485103.0098077-.2975556.0098077-.4474568 0-.649786-.0568207-1.2864115-.1650253-1.9054897l.0469064.7114156c.0332609.3072922.0542622.6181153.061618.9324692"/><path d="m22.4607977 17.1238568c.0082651.0312428.0200271.0608806.0383587.0861317.1783363-.7171934.2907633-1.4604938.329228-2.2233745l-.0132454-.2023292c-.0389945.804395-.1600046 1.5868559-.3543413 2.339572"/><path d="m22.3141885 14.3909679c0 .1499012-.0037981.2989465-.0097064.4474568l.1459129 2.2341811c.001055.0179753.0060137.0345596.0104449.051251.1934954-.7527161.3138762-1.535177.3527018-2.339572l-.1639541-2.5120494c-.1442248-.7880247-.367578-1.5482305-.6610917-2.2720576l.1623715 2.4853004c.1070872.6190782.1633211 1.2557037.1633211 1.9054897"/><path d="m.76580505 18.4196198c-.00516973.0323127-.01171101.0651604-.01614221.0972592.18020184.4779506.39015597.9411358.62880734 1.3864527.01086698-.0092017.02479358-.0203292.03692661-.0302798-.24804129-.4662881-.46548624-.9517284-.64959174-1.4534321"/><path d="m1.2903422 19.3072897c-.01983486.0156214-.03998624.0312428-.05844954.0460082-.00400917-.0588477-.00495872-.1189794-.00590826-.1790041-.15308715-.3243045-.29172018-.6569547-.41484403-.9972016-.01740826.0815308-.03249542.1624197-.04536698.2425597.18410551.5017037.40155046.987144.64969725 1.4534321.03460551-.028568.07395872-.0600247.11795413-.0947984-.08450917-.154823-.1655367-.311893-.24308257-.4709959"/><path d="m1.61097064 19.0663992c-.1218578.0879506-.22852293.1686255-.32062844.2408477.07754587.1592099.1585734.3162798.24308257.4711029.08693578-.0684774.18969725-.1470124.31303211-.2360329-.08218807-.156428-.16068349-.3151029-.23548624-.4759177"/><path d="m1.30556514 18.3383778c-.10797661-.2823622-.20461514-.5702881-.28949175-.8632428-.0892211.2391358-.15555412.4730288-.20493302.702.12365917.3402469.26289495.6727901.4166477.9970946-.00466238-.2667407.01886147-.545572.07777707-.8358518"/><path d="m18.2113578 5.82805514-.0021101-.04483127c-.2814862-.22704527-.5742615-.44050206-.8774816-.63876543v.03530864c.3041697.20136625.5975779.41781893.8795917.64828806"/><path d="m18.1995096 5.57786667h.6230046c-.4902798-.42423869-1.0164312-.80706996-1.5729679-1.14346502l-.0835596.19815637c-.0339725.08013992-.0258486.17215638.0215229.24491358.0341835.05264198.0859863.08923457.1442248.10603293v.1610288c.3032202.19826338.5959954.41161317.8775872.63865844z"/></g><path d="m1.10117248 11.4536527-.07501376.0012839c-.25584863.9349301-.3931101 1.9195062-.3931101 2.9360741 0 .2678107.00991744.5333745.02859175.7964774l.99997247-1.5259753z" fill="#fff"/><path d="m.63322523 14.3909679c0-1.0164609.13796422-2.001037.39492523-2.9360741l-.05319358.000856c-.25674908.934823-.3947133 1.9189712-.3947133 2.9352181 0 .2920988.0123977.5814156.03475596.8678436l.04694174-.0713662c-.01864954-.2631029-.02871605-.5286667-.02871605-.7964774" fill="#fff"/><path d="m.97510275 11.4557391-.28504128.0046008-.15311697 2.2750535s.04906101 1.2175062.07735321 1.5249054l.00095367-.001498c-.02235826-.286428-.03486193-.5756378-.03486193-.8678436 0-1.0162469.13796422-2.0003951.3947133-2.9352181" fill="#fff"/><path d="m6.70045946 12.0399901-.00455808.2271313c.03593462-.0137494.07144523-.0257934.10716785-.0390099z" fill="#fff"/><path d="m19.4022995 8.65263951-.0439908-.90208231.0438848.90208231z" fill="#fff"/><path d="m19.4036154 8.65263951-.0441347-.90208231h-.1124688l.0437083.90208231z" fill="#fff"/><path d="m18.7344495 7.7505893.0433548.9020823z" fill="#fff"/><path d="m18.3023344 7.7505893.1625734 3.3932675v-3.3932675z" fill="#fff"/><path d="m19.0339665 14.0064568-.1769312-3.6946749h-.2750504v-1.65918519h.1956055l-.0431514-.90197531h-.2711468v3.3932675l.1189037 2.5065926c.1529816.1126666.3034312.2321811.4517706.3559753" fill="#fff"/><path d="m7.28555596 7.22470453-.45715137-1.39907819-.10677065 5.17432096.55263303 1.0226667z" fill="#fff"/><path d="m19.4824665 10.3117498.2086418 4.2862551z" fill="#fff"/><path d="m19.3697454 10.3117498.2005885 4.1702716c.0410078.0386255.081062.077251.1212221.1159835l-.2086418-4.2862551z" fill="#fff"/><path d="m17.7228821 6.32814321-.7588945 1.5521893.8328532.00748971z" fill="#fff"/><path d="m18.0526894 13.2891457-.2192385-4.62746504-1.0281422-.00898766.1190092 4.0086008c.378867.182107.7571009.390428 1.1283715.6278519" fill="#fff"/><path d="m16.4067601 12.4275292-.0901748-3.02702056-.2669215.52203292.083499 2.39424694c.0909166.0357366.182151.0724362.2735973.1107407" fill="#fff"/><path d="m20.6732018 15.6916955c-.0942156-.1222963-.1960275-.2452346-.3015321-.3684939v.4854404h-.2636559c.2478302.3030123.4590504.6015308.6345045.8937366.0031652.0070617.0075964.0130535.011289.0197942.3908945.6564198.6073899 1.2814898.6884175 1.8596955.1191146-.2917778.2265183-.5897613.3208394-.8934156-.1238624-.3816543-.299211-.7757202-.5352248-1.1793087l-.3882568-7.55637034c-.1454909-.25796708-.3030092-.50780247-.4679129-.75228806v1.6222716z" fill="#000"/><path d="m6.70043807 12.0399901.10212844.1888478c-.03555504.0132674-.07089908.025358-.10666513.0391605zm.12797707-6.21442796.45715137 1.39918519-.01139449 4.79780247-.55252752-1.0226667zm9.48707796 3.5750535.0896789 3.02691356c-.0910504-.0383045-.1817844-.0750041-.2724128-.1107407l-.0831376-2.39424694zm1.5178945-.73891358.2193441 4.62746504c-.3712707-.2374239-.7496101-.4457449-1.1284771-.6278519l-.1190092-4.00870779zm-.1104633-2.33358025.0739587 1.55967901-.8329587-.00748971zm-16.53889907 4.60135799c-.05655046.1724774-.10888073.3467737-.15709633.5228889l5.17647706-.1227243-.02384403 1.1500988c-.91546331.3977037-1.84411468.9376049-2.68519725 1.6740576-1.28251376 1.1232428-2.05290826 2.2246585-2.44907798 3.2446502.08134403.2893169.17461009.573498.27811009.8526502.24983486-1.1155391.99912844-2.3854732 2.50531193-3.7045185 3.05161467-2.6726502 7.47711008-2.650288 7.51994498-2.650288h.0065413v-.000321c.0491651.0020329 4.082922-.0236461 7.108055 2.312074v-3.0641481l-.1608945-3.3932675h.1608945v-.12711111h1.4931009c-.1025504-.13288889-.207-.26406585-.3153532-.39181893h-1.3630138l-.0665733-1.40367901c-.2820138-.23036214-.5755276-.44681482-.8795918-.64828807v.27540741l-1.150422 2.49107819c-.0206789.02043621-.0391422.04333333-.0524358.06976131l-.7914954 1.56748971c-.0644633.12732511-.0147706.28375309.1109908.34912758.0291193.01508642.0598211.02236214.090523.02546502l.0752247 2.1675226c-2.2081055-.7586008-4.1315596-.7499341-4.2635458-.7484362-.1305092-.000535-1.67129821-.0041728-3.56447252.5315556l.01097248-4.7249383c0-.02803292-.00432569-.05585185-.01308257-.08227983l-.48785321-1.49269959v-1.36216461c-.32727523.13909465-.64642661.29402469-.95661009.46382716l-.12544496 6.09951437z" fill="#000"/><path d="m6.33962294 4.70858272c.31007798-.16914939.62933486-.32348354.95661009-.46204321v-.0218498c-.32695872.13642799-.64600459.28852387-.95597707.45543498z" fill="#000"/><path d="m1.04546009 17.3983975c-.00996055.025572-.02076881.0512511-.0303055.0767161.08498257.2930617.1816211.5808806.28949174.8632428.00593395-.0287819.0135633-.0582058.02013303-.0872017-.10405597-.2791522-.19762156-.5633333-.27931927-.8527572" fill="#000"/><path d="m1.18492844 10.9294905-.0534055.001284c-.05669037.1724774-.10935413.3467736-.1576734.5228889l.05329954-.001284c.04842523-.1761152.10098303-.3504115.15777936-.5228889" fill="#000"/><path d="m19.1419399 14.7868206c.000211.000214.0007385.000428.0010551.0009629.3714816.3447408.690844.6856297.9649449 1.0208478h.263656v-.4854404c-.0468441-.0548888-.0928441-.1095637-.1419037-.1646666l-.5395505-.5605515c-.0399862-.0386255-.0798669-.077358-.1206972-.1159835l-.5354358-.4754897c-.1484449-.1237943-.298789-.2434156-.4518761-.3559753l-.1189037-2.5065926v3.0641481c.1396881.1077449.277055.2201976.4118899.338214.0918945.0804609.1806239.1606009.2668211.2405268" fill="#000"/><path d="m19.247033 7.74926642h.1113074l.5126468.00021177h.1836834c-.0321789-.04245882-.0656238-.08396471-.0983302-.126h-1.493101v.12578823h.2712523z" fill="#000"/><path d="m20.3720532 9.8227465v-1.6222716c-.0306346-.04525926-.0595731-.09180247-.0907376-.13652675z" fill="#000"/></g></svg>