<?xml version="1.0" encoding="UTF-8"?>
<svg width="21px" height="23px" viewBox="0 0 21 23" version="1.1" xmlns="http://www.w3.org/2000/svg" xmlns:xlink="http://www.w3.org/1999/xlink">
    <!-- Generator: Sketch 50.2 (55047) - http://www.bohemiancoding.com/sketch -->
    <title>Group 28</title>
    <desc>Created with Sketch.</desc>
    <defs>
        <polygon id="path-1" points="0 0.0439983264 8.92292903 0.0439983264 8.92292903 14.7398435 0 14.7398435"></polygon>
        <polygon id="path-3" points="0.0487548387 0.0456535565 14.0141419 0.0456535565 14.0141419 2.79079498 0.0487548387 2.79079498"></polygon>
        <polygon id="path-5" points="0.0196935484 0.0667866109 3.25533871 0.0667866109 3.25533871 2.17783054 0.0196935484 2.17783054"></polygon>
    </defs>
    <g id="Future-Project-Desktop" stroke="none" stroke-width="1" fill="none" fill-rule="evenodd">
        <g id="maps" transform="translate(-1212.000000, -383.000000)">
            <g id="about-us/map" transform="translate(48.000000, 44.000000)">
                <g id="map-markers" transform="translate(417.000000, 317.000000)">
                    <g id="Group-28" transform="translate(747.000000, 22.000000)">
                        <path d="M10.5,22.6891892 C16.2989899,22.6891892 21,18.0970828 21,12.4324324 C21,7.22742127 17.0309342,2.92795962 11.8880071,2.26449828 C11.4338504,2.20590997 12.3585468,0.932432432 11.8880071,0.932432432 C11.5445319,0.932432432 9.81690152,2.19178577 9.48187888,2.22327462 C4.16061893,2.72342097 0,7.10330035 0,12.4324324 C0,18.0970828 4.70101013,22.6891892 10.5,22.6891892 Z" id="Oval-11" fill="#FFFFFF" fill-rule="nonzero"></path>
                        <g id="Group-62">
                            <path d="M17.8263677,13.1841967 C17.8327548,13.1893933 17.8392387,13.1950711 17.8458194,13.2019038 C17.8971097,13.2528117 17.9254645,13.3205607 17.9254645,13.3927364 C17.9254645,13.4649121 17.8972065,13.5328536 17.8457226,13.5840502 C17.7561097,13.6735481 17.6053355,13.6876946 17.4999484,13.6158075 L17.4864,13.6093598 C15.7786258,13.1053808 13.9168839,13.1569623 12.1019806,13.7589079 L12.0688839,13.7698787 L12.0688839,14.4892301 L18.4633355,14.4892301 L17.9296258,17.6731423 L17.9884645,17.67141 C18.5692065,17.6543766 18.8808194,17.4994393 19.1823677,17.3496025 C19.2541742,17.3138996 19.3253032,17.2786778 19.3991419,17.2453808 C20.0517871,15.9305314 20.4193355,14.4516025 20.4193355,12.8887573 C20.4193355,8.03633473 16.8819484,3.99016318 12.2368839,3.16610879 C12.5773355,5.29971967 13.4348516,7.43294561 14.7997548,9.53171967 C16.1961097,11.6791883 17.6616581,13.034841 17.8263677,13.1841967" id="Fill-1" fill="#5CD8FF"></path>
                            <path d="M16.6211323,17.9001879 C16.3012935,17.7411126 15.9706161,17.5766481 15.3190355,17.5766481 C14.6671645,17.5766481 14.3364871,17.7412088 14.0165516,17.9001879 C13.6924548,18.0613803 13.3864548,18.213623 12.7576161,18.213623 C12.1288742,18.213623 11.8228742,18.0613803 11.4988742,17.9001879 C11.1790355,17.7412088 10.8482613,17.5766481 10.1962935,17.5766481 C9.54461613,17.5766481 9.21393871,17.7411126 8.8941,17.9001879 C8.5701,18.0613803 8.26400323,18.213623 7.63516452,18.213623 C7.00622903,18.213623 6.70013226,18.0613803 6.37613226,17.9001879 C6.05639032,17.7411126 5.7257129,17.5766481 5.07413226,17.5766481 C4.42235806,17.5766481 4.09158387,17.7411126 3.77184194,17.9001879 C3.44774516,18.0613803 3.14174516,18.213623 2.51280968,18.213623 C2.36174516,18.213623 2.22984194,18.2046732 2.11129355,18.1890833 C2.53564839,18.849828 3.03693871,19.4570665 3.60229355,19.9987695 C3.67564839,19.9654724 3.74561613,19.9309243 3.81490645,19.8964724 C4.13900323,19.7353762 4.44500323,19.5831335 5.07393871,19.5831335 C5.70277742,19.5831335 6.00887419,19.7353762 6.33287419,19.8964724 C6.65261613,20.0555477 6.98339032,20.2200121 7.63516452,20.2200121 C8.28684194,20.2200121 8.61761613,20.0555477 8.93745484,19.8964724 C9.26135806,19.7353762 9.56745484,19.5831335 10.1962935,19.5831335 C10.8253258,19.5831335 11.1314226,19.7353762 11.4556161,19.8965686 C11.7753581,20.0555477 12.1060355,20.2200121 12.7576161,20.2200121 C13.4093903,20.2200121 13.7400677,20.0555477 14.0598097,19.8965686 C14.3839065,19.7353762 14.6900032,19.5831335 15.3190355,19.5831335 C15.9477774,19.5831335 16.2538742,19.7352799 16.5778742,19.8964724 C16.7653258,19.9897234 16.957229,20.0846105 17.2147452,20.1474515 C17.9093903,19.5102841 18.5127774,18.7764013 19.0026484,17.9670707 C18.7226806,18.1010289 18.4207452,18.213623 17.8800677,18.213623 C17.251229,18.213623 16.9451323,18.0613803 16.6211323,17.9001879" id="Fill-3" fill="#5CD8FF"></path>
                            <path d="M3.81490645,17.3495736 C4.10164839,17.2070506 4.37251935,17.0724188 4.86742258,17.04249 L4.95142258,17.0373895 L3.24335806,14.4892013 L11.5253903,14.4892013 L11.5253903,13.7698498 L11.4922935,13.7588791 C9.56155161,13.1190172 5.78697097,13.1137243 3.82613226,13.7431929 C3.2211,11.5790757 3.6497129,9.09603808 5.03561613,6.74522636 C5.78222903,5.47868661 6.76816452,4.32907155 7.92916452,3.34565314 C3.68900323,4.47092092 0.556422581,8.32260293 0.556422581,12.8887285 C0.556422581,14.5829335 0.987841935,16.1786908 1.74693871,17.5736071 C1.9491,17.6329837 2.19190645,17.6729209 2.51261613,17.6729209 C3.16419677,17.6729209 3.49497097,17.5085527 3.81490645,17.3495736" id="Fill-5" fill="#5CD8FF"></path>
                            <path d="M15.3190355,20.1238259 C14.6671645,20.1238259 14.3364871,20.2882904 14.0165516,20.4472695 C13.6924548,20.6084619 13.3864548,20.7606084 12.7576161,20.7606084 C12.1288742,20.7606084 11.8228742,20.6084619 11.4988742,20.4472695 C11.1790355,20.2882904 10.8482613,20.1238259 10.1962935,20.1238259 C9.54461613,20.1238259 9.21393871,20.2881941 8.8941,20.4472695 C8.5701,20.6083657 8.26400323,20.7606084 7.63516452,20.7606084 C7.00622903,20.7606084 6.70013226,20.6083657 6.37613226,20.4472695 C6.05629355,20.2881941 5.7257129,20.1238259 5.07413226,20.1238259 C4.56258387,20.1238259 4.24903548,20.2251607 3.9831,20.345646 C5.72697097,21.8519054 8.00222903,22.7647841 10.4878742,22.7647841 C12.8735516,22.7647841 15.0652935,21.9237925 16.7794548,20.5245456 C16.726229,20.4993322 16.6738742,20.4734452 16.6211323,20.4472695 C16.3012935,20.2881941 15.9706161,20.1238259 15.3190355,20.1238259" id="Fill-7" fill="#5CD8FF"></path>
                            <path d="M20.9023548,12.5038393 C20.9023548,13.9894084 20.5872581,15.4014544 20.0208387,16.6785799 C20.0472581,16.674923 20.0742581,16.6715548 20.1022258,16.6685715 C20.6635161,15.3921197 20.9758065,13.9836343 20.9758065,12.5038393 C20.9758065,7.31844603 17.1503226,3.0053205 12.1585161,2.20734561 C12.1614194,2.23217406 12.1632581,2.25709874 12.1663548,2.28202343 C17.1199355,3.08019079 20.9023548,7.35241674 20.9023548,12.5038393" id="Fill-9" fill="#000000"></path>
                            <path d="M17.8442323,19.8345552 C17.8562323,19.8346515 17.8676516,19.8351326 17.8800387,19.8351326 C17.9008452,19.8351326 17.9204903,19.834459 17.9406194,19.8341703 C18.6930387,19.0777686 19.3304903,18.2081954 19.8238452,17.2531661 C19.7927806,17.2599987 19.7623935,17.2672163 19.7331677,17.2750113 C19.2372,18.2234967 18.5982,19.0863335 17.8442323,19.8345552" id="Fill-11" fill="#000000"></path>
                            <path d="M1.41738387,17.595 C1.3805129,17.5776778 1.34402903,17.5599707 1.30764194,17.5419749 C1.76857742,18.369205 2.33915806,19.1277238 3.00002903,19.7983808 C3.0279,19.7938577 3.05499677,19.7889498 3.08131935,19.7837531 C2.43438387,19.1328243 1.87367419,18.3972092 1.41738387,17.595" id="Fill-13" fill="#000000"></path>
                            <g id="Group-17" transform="translate(0.000000, 2.146603)">
                                <mask id="mask-2" fill="white">
                                    <use xlink:href="#path-1"></use>
                                </mask>
                                <g id="Clip-16"></g>
                                <path d="M0.0734129032,10.3572368 C0.0734129032,5.21206946 3.84663871,0.944077824 8.7914129,0.13830795 C8.83505806,0.106743096 8.87889677,0.0751782427 8.92292903,0.0439983264 C3.87954194,0.797609205 -3.87096774e-05,5.13527448 -3.87096774e-05,10.3572368 C-3.87096774e-05,11.9042996 0.340993548,13.3735088 0.951348387,14.6951908 C0.984832258,14.7097222 1.01763871,14.7245423 1.05005806,14.7398435 C0.423832258,13.4087305 0.0734129032,11.9237389 0.0734129032,10.3572368" id="Fill-15" fill="#000000" mask="url(#mask-2)"></path>
                            </g>
                            <g id="Group-20" transform="translate(3.387097, 20.142418)">
                                <mask id="mask-4" fill="white">
                                    <use xlink:href="#path-3"></use>
                                </mask>
                                <g id="Clip-19"></g>
                                <path d="M7.1007871,2.71779163 C4.41462581,2.71779163 1.96614194,1.7062728 0.119012903,0.0456535565 C0.0959806452,0.0555656904 0.0725612903,0.0651891213 0.0487548387,0.0746200837 C1.91272258,1.76131883 4.38810968,2.79083347 7.1007871,2.79083347 C9.74698065,2.79083347 12.1670129,1.81078326 14.0141419,0.197222594 C13.9848194,0.192314644 13.9563677,0.187117992 13.9286903,0.181440167 C12.1004323,1.76131883 9.7130129,2.71779163 7.1007871,2.71779163" id="Fill-18" fill="#000000" mask="url(#mask-4)"></path>
                            </g>
                            <path d="M1.74691935,17.1886314 C0.987822581,15.7938113 0.556403226,14.198054 0.556403226,12.503849 C0.556403226,7.9376272 3.68898387,4.08594519 7.92914516,2.96067741 C8.20679032,2.72557699 8.49440323,2.50019623 8.79140323,2.28492008 C3.84662903,3.09059372 0.0734032258,7.35868159 0.0734032258,12.503849 C0.0734032258,14.070351 0.423822581,15.5553427 1.05004839,16.8863594 C1.10395161,16.9118615 1.15698387,16.9380372 1.21040323,16.9645979 C1.37279032,17.0453385 1.53827419,17.1273301 1.74691935,17.1886314" id="Fill-21" fill="#000000"></path>
                            <path d="M2.11134194,17.804146 C1.81918065,17.7657485 1.6112129,17.6861628 1.41737419,17.5950289 C1.87366452,18.3972381 2.43437419,19.1328531 3.08130968,19.7836858 C3.28772903,19.7427862 3.45272903,19.6814849 3.60224516,19.6138322 C3.03689032,19.0721293 2.53569677,18.4648908 2.11134194,17.804146" id="Fill-23" fill="#000000"></path>
                            <path d="M10.4878839,22.3798854 C8.00214194,22.3798854 5.72698065,21.4670067 3.98310968,19.9607473 C3.91014194,19.9937556 3.84065806,20.0281113 3.77185161,20.0623707 C3.68427097,20.1058686 3.59785161,20.1485967 3.50610968,20.1880527 C5.35323871,21.848672 7.80172258,22.8601908 10.4878839,22.8601908 C13.1001097,22.8601908 15.487529,21.903718 17.3157871,20.3238393 C17.1031742,20.2805339 16.9368194,20.2138435 16.7794645,20.1395506 C15.0653032,21.5387975 12.8735613,22.3798854 10.4878839,22.3798854" id="Fill-25" fill="#000000"></path>
                            <path d="M19.0026871,17.5821238 C18.5128161,18.3914544 17.9093323,19.1254335 17.2146871,19.7625046 C17.3881065,19.8046552 17.5917194,19.832082 17.8442032,19.8345841 C18.598171,19.0862661 19.237171,18.2235255 19.7331387,17.2750402 C19.4966226,17.3374962 19.3160419,17.4271866 19.1390419,17.5153372 C19.0935581,17.5379523 19.0483645,17.5602787 19.0026871,17.5821238" id="Fill-27" fill="#000000"></path>
                            <path d="M12.1663161,2.28199456 C12.1865419,2.44838368 12.2103484,2.6147728 12.2368645,2.78116192 C16.8820258,3.60521632 20.4193161,7.65138787 20.4193161,12.5038105 C20.4193161,14.0666556 20.0517677,15.5455845 19.3991226,16.8604339 C19.5738968,16.781618 19.764929,16.714254 20.0208,16.6786473 C20.5873161,15.4015218 20.9023161,13.9893795 20.9023161,12.5038105 C20.9023161,7.35238787 17.1198968,3.08016192 12.1663161,2.28199456" id="Fill-29" fill="#000000"></path>
                            <g id="Group-33" transform="translate(8.903226, 0.029448)">
                                <mask id="mask-6" fill="white">
                                    <use xlink:href="#path-5"></use>
                                </mask>
                                <g id="Clip-32"></g>
                                <path d="M2.55343548,1.31162552 L2.62233871,1.27948326 L2.62233871,2.09593515 C2.83524194,2.11691423 3.04630645,2.14443724 3.25533871,2.17783054 C3.1965,1.67009833 3.16562903,1.16246234 3.16562903,0.655403766 L3.16562903,0.337060669 C3.16562903,0.187993724 3.04369355,0.0667384937 2.89398387,0.0667384937 C2.74417742,0.0667384937 2.62233871,0.187993724 2.62233871,0.337060669 L2.62233871,0.686679916 L2.59359677,0.699382845 C1.68043548,1.10298954 0.818274194,1.59590167 0.0196935484,2.16118201 C0.395758065,2.10498117 0.778403226,2.06927824 1.16627419,2.05397699 C1.61230645,1.7827887 2.07556452,1.53431172 2.55343548,1.31162552" id="Fill-31" fill="#000000" mask="url(#mask-6)"></path>
                            </g>
                            <path d="M12.0688742,4.54537741 L12.1636161,4.85640669 C12.6602613,6.48796318 13.4431645,8.10845272 14.4903581,9.67293389 C15.1038097,10.5889883 15.7885839,11.4592351 16.5257129,12.2594234 C16.564229,12.3016703 16.6034226,12.3437247 16.6430032,12.3858753 L16.7405516,12.4898084 L16.5995516,12.4661347 C15.1560677,12.2243941 13.6112613,12.3386243 12.1315839,12.7964109 L12.0688742,12.815754 L12.0688742,4.54537741 Z M17.8214226,14.6449757 L17.6987129,15.3778 L4.75042258,15.3778 L4.25880968,14.6449757 L17.8214226,14.6449757 Z M17.3848742,17.2510008 L17.3363903,17.2419548 C17.0155839,17.1821933 16.7930032,17.0716201 16.5777774,16.9646075 C16.2536806,16.8035113 15.9476806,16.6514611 15.3190355,16.6514611 C14.6900032,16.6514611 14.3839065,16.8036075 14.0598097,16.9646075 C13.7400677,17.1235866 13.4093903,17.2879548 12.7576161,17.2879548 C12.1060355,17.2879548 11.7753581,17.1235866 11.4556161,16.9647038 C11.1314226,16.8036075 10.8253258,16.6514611 10.1962935,16.6514611 C9.56745484,16.6514611 9.26135806,16.8035113 8.93745484,16.9646075 C8.61761613,17.1235866 8.28684194,17.2879548 7.63516452,17.2879548 C6.9834871,17.2879548 6.65280968,17.1235866 6.33297097,16.9646075 C6.1281,16.8627916 5.93464839,16.7666536 5.65835806,16.7074695 L5.63919677,16.7033314 L5.11284194,15.9182519 L17.608229,15.9182519 L17.3848742,17.2510008 Z M11.5255839,12.8165238 L11.4634548,12.7982393 C9.60684194,12.2534569 6.38213226,12.1993732 4.27526129,12.677369 L4.22600323,12.6885322 L4.21690645,12.6390678 C3.87113226,10.7613439 4.32839032,8.62850293 5.5044871,6.63356569 C6.3887129,5.13365774 7.63042258,3.79648201 9.1101,2.72327699 C8.70829355,2.77899665 8.31413226,2.85858243 7.92916452,2.96068703 C6.76816452,3.94410544 5.78222903,5.0937205 5.03561613,6.36026025 C3.6497129,8.7111682 3.2211,11.1941096 3.82613226,13.3582268 C5.78697097,12.7287582 9.56155161,12.734051 11.4922935,13.3740092 L11.5253903,13.3848837 L11.5253903,14.1042351 L3.24335806,14.1042351 L4.95142258,16.6524234 L4.86742258,16.6575238 C4.37251935,16.6874527 4.10164839,16.8220845 3.81490645,16.9646075 C3.49497097,17.1235866 3.16419677,17.2879548 2.51261613,17.2879548 C2.19180968,17.2879548 1.9491,17.2480176 1.74693871,17.188641 C1.86113226,17.398528 1.98258387,17.6036996 2.11129355,17.8041556 C2.22984194,17.8196494 2.36174516,17.8286954 2.51280968,17.8286954 C3.14174516,17.8286954 3.44774516,17.6764527 3.77184194,17.5152603 C4.09158387,17.3561849 4.42235806,17.1917205 5.07413226,17.1917205 C5.7257129,17.1917205 6.05639032,17.3561849 6.37613226,17.5152603 C6.70013226,17.6764527 7.00622903,17.8286954 7.63516452,17.8286954 C8.26400323,17.8286954 8.5701,17.6764527 8.8941,17.5152603 C9.21393871,17.3561849 9.54461613,17.1917205 10.1962935,17.1917205 C10.8482613,17.1917205 11.1790355,17.3562812 11.4988742,17.5152603 C11.8228742,17.6764527 12.1288742,17.8286954 12.7576161,17.8286954 C13.3864548,17.8286954 13.6924548,17.6764527 14.0165516,17.5152603 C14.3364871,17.3562812 14.6671645,17.1917205 15.3190355,17.1917205 C15.9706161,17.1917205 16.3012935,17.3561849 16.6211323,17.5152603 C16.9451323,17.6764527 17.251229,17.8286954 17.8800677,17.8286954 C18.4207452,17.8286954 18.7226806,17.7161013 19.0026484,17.5821431 C19.1445194,17.3477163 19.2767129,17.1069381 19.3991323,16.860482 C19.3252935,16.8936828 19.2541645,16.9289046 19.1823581,16.9646075 C18.8809065,17.1144444 18.5691968,17.2694778 17.9884548,17.2864151 L17.9297129,17.2881473 L18.4633258,14.1042351 L12.0688742,14.1042351 L12.0688742,13.3848837 L12.101971,13.3740092 C13.9168742,12.7720636 15.7786161,12.7203858 17.4863903,13.2244611 L17.4999387,13.2309088 C17.6053258,13.3026996 17.7561968,13.2886494 17.8457129,13.1991515 C17.8972935,13.1479548 17.9255516,13.0800134 17.9255516,13.0077414 C17.9255516,12.9356619 17.8971968,12.8678167 17.8458097,12.817005 C17.839229,12.8101724 17.8328419,12.8044946 17.8263581,12.7992979 C17.6616484,12.649846 16.1961,11.2941933 14.7997452,9.14682092 C13.4348419,7.04795063 12.5773258,4.91482092 12.2368742,2.78121004 C12.0024871,2.73963682 11.7652935,2.70643598 11.5255839,2.6815113 L11.5255839,12.8165238 Z" id="Fill-34" fill="#000000"></path>
                            <path d="M1.04862857,16.8863979 C1.01667235,16.8711929 0.984334562,16.8562766 0.951329032,16.8418414 C1.05988479,17.0802138 1.17721659,17.313582 1.30256129,17.541946 C1.33842857,17.5599418 1.37439124,17.577649 1.41073548,17.5949711 C1.28119355,17.3642013 1.16052304,17.1278498 1.04862857,16.8863979" id="Fill-36" fill="#000000"></path>
                            <path d="M9.94617097,2.16232757 C9.98749355,2.13628669 10.0279452,2.10907544 10.0694613,2.08342469 C9.6816871,2.09893218 9.29904194,2.13511632 8.92297742,2.19207464 C8.87894516,2.22367481 8.83510645,2.2556651 8.79136452,2.2876554 C9.16994516,2.22513778 9.55510645,2.18251657 9.94617097,2.16232757" id="Fill-38" fill="#000000"></path>
                            <path d="M20.0179229,16.6786088 C19.9291103,16.8808933 19.8341661,17.0797134 19.7330903,17.2749728 C19.7621197,17.2672741 19.7922029,17.2600565 19.8229568,17.2531276 C19.9207752,17.0617176 20.0123661,16.8665544 20.0985919,16.6686004 C20.0709039,16.6714874 20.0440781,16.6749519 20.0179229,16.6786088" id="Fill-40" fill="#000000"></path>
                            <path d="M11.5255645,2.19947653 C11.7412742,2.22093343 11.9547581,2.24951013 12.1663065,2.28413377 C12.1633065,2.25887314 12.161371,2.23361251 12.1585645,2.20844941 C11.9495323,2.17450849 11.7384677,2.14661452 11.5255645,2.12545021 L11.5255645,2.19947653 Z" id="Fill-42" fill="#000000"></path>
                            <path d="M1.74691935,17.1886314 C1.53827419,17.1273301 1.37279032,17.0453385 1.21040323,16.9645979 C1.15698387,16.9380372 1.10395161,16.9118615 1.05004839,16.8863594 C1.16356452,17.1278113 1.28598387,17.3641628 1.41740323,17.5950289 C1.61124194,17.6861628 1.81920968,17.7657485 2.11137097,17.804146 C1.98266129,17.60369 1.8611129,17.3985184 1.74691935,17.1886314" id="Fill-44" fill="#000000"></path>
                            <path d="M12.2369032,2.78121004 C12.2103871,2.61482092 12.1864839,2.4484318 12.1663548,2.28204268 C11.9547097,2.2478795 11.7412258,2.21968285 11.5255161,2.1985113 L11.5255161,2.6815113 C11.7653226,2.70643598 12.0025161,2.73963682 12.2369032,2.78121004" id="Fill-46" fill="#000000"></path>
                            <path d="M9.11008065,2.72326736 C9.38104839,2.5267569 9.65995161,2.3393887 9.94620968,2.161259 C9.55514516,2.1811795 9.16998387,2.22323389 8.79140323,2.28492008 C8.49440323,2.50019623 8.20679032,2.72557699 7.92914516,2.96067741 C8.3141129,2.8585728 8.70837097,2.77898703 9.11008065,2.72326736" id="Fill-48" fill="#000000"></path>
                            <path d="M19.0026871,17.5821238 C19.0483645,17.5602787 19.0935581,17.5379523 19.1390419,17.5153372 C19.3160419,17.4271866 19.4966226,17.3374962 19.7331387,17.2750402 C19.8352355,17.0797808 19.9311387,16.8808644 20.0208484,16.6785799 C19.7648806,16.7141866 19.5738484,16.7816469 19.399171,16.8604628 C19.2767516,17.1070151 19.1445581,17.3476971 19.0026871,17.5821238" id="Fill-50" fill="#000000"></path>
                            <path d="M15.3190355,19.198177 C14.6900032,19.198177 14.3839065,19.3504197 14.0598097,19.5116121 C13.7400677,19.6706874 13.4093903,19.8351519 12.7576161,19.8351519 C12.1060355,19.8351519 11.7753581,19.6706874 11.4556161,19.5116121 C11.1315194,19.3504197 10.8253258,19.198177 10.1962935,19.198177 C9.56745484,19.198177 9.26135806,19.3504197 8.93745484,19.5115159 C8.61761613,19.6705912 8.28684194,19.8351519 7.63516452,19.8351519 C6.98339032,19.8351519 6.65261613,19.6706874 6.33287419,19.5115159 C6.00887419,19.3504197 5.70277742,19.198177 5.07393871,19.198177 C4.44500323,19.198177 4.13900323,19.3504197 3.81490645,19.5115159 C3.74561613,19.5459678 3.67574516,19.5806121 3.60229355,19.613813 C3.72626129,19.7325661 3.85313226,19.8484322 3.9831,19.9607377 C4.24903548,19.8402523 4.56258387,19.7389176 5.07413226,19.7389176 C5.7257129,19.7389176 6.05629355,19.9032858 6.37613226,20.0622649 C6.70013226,20.2234573 7.00622903,20.3756038 7.63516452,20.3756038 C8.26400323,20.3756038 8.5701,20.2234573 8.8941,20.0623611 C9.21393871,19.9032858 9.54461613,19.7389176 10.1962935,19.7389176 C10.8482613,19.7389176 11.1790355,19.903382 11.4988742,20.0623611 C11.8228742,20.2234573 12.1288742,20.3756038 12.7576161,20.3756038 C13.3864548,20.3756038 13.6924548,20.2234573 14.0165516,20.0623611 C14.3364871,19.903382 14.6671645,19.7389176 15.3190355,19.7389176 C15.9706161,19.7389176 16.3012935,19.9032858 16.6211323,20.0622649 C16.6738742,20.0885368 16.726229,20.1144238 16.7794548,20.139541 C16.9282935,20.0180933 17.0733581,19.8921226 17.2147452,19.762495 C16.957229,19.699654 16.7653258,19.6048632 16.5778742,19.5115159 C16.2538742,19.3504197 15.9477774,19.198177 15.3190355,19.198177" id="Fill-52" fill="#000000"></path>
                            <path d="M3.08118464,19.7837146 C3.05491502,19.7889813 3.02777618,19.7939554 2.99996129,19.7985394 C3.14106392,19.9439587 3.28583657,20.0857693 3.43495529,20.2228009 C3.45871385,20.2133404 3.48208608,20.2035872 3.50516858,20.1935415 C3.36000961,20.0609964 3.21871383,19.9241598 3.08118464,19.7837146" id="Fill-54" fill="#000000"></path>
                            <path d="M17.8442323,19.8345552 C17.6738129,20.0036389 17.4974903,20.1668523 17.3157484,20.3238105 C17.3434258,20.3295845 17.3718774,20.3347812 17.4012968,20.3395929 C17.5870065,20.1773418 17.7669097,20.0088356 17.9406194,19.8341703 C17.9204903,19.834459 17.9008452,19.8351326 17.8800387,19.8351326 C17.8676516,19.8351326 17.8562323,19.8346515 17.8442323,19.8345552" id="Fill-56" fill="#000000"></path>
                            <path d="M3.98312903,19.960728 C3.85306452,19.8484226 3.72629032,19.7325565 3.60222581,19.6138033 C3.45280645,19.6814561 3.28770968,19.7427573 3.0813871,19.7837531 C3.21909677,19.9223305 3.36067742,20.057251 3.50612903,20.1880335 C3.59787097,20.1486736 3.68429032,20.1058494 3.77177419,20.0623515 C3.84058065,20.0280921 3.91016129,19.9937364 3.98312903,19.960728" id="Fill-58" fill="#000000"></path>
                            <path d="M16.7794355,20.1395699 C16.9367903,20.2137665 17.1032419,20.2804569 17.3157581,20.3238586 C17.4975,20.1668042 17.6738226,20.0035908 17.8442419,19.8346033 C17.5917581,19.8321013 17.3881452,19.8046745 17.2147258,19.7625238 C17.0733387,19.8921515 16.9282742,20.0181222 16.7794355,20.1395699" id="Fill-60" fill="#000000"></path>
                        </g>
                    </g>
                </g>
            </g>
        </g>
    </g>
</svg>