<svg height="28" viewBox="0 0 24 28" width="24" xmlns="http://www.w3.org/2000/svg" xmlns:xlink="http://www.w3.org/1999/xlink"><mask id="a" fill="#fff"><path d="m0 27.9893536h23.9863318v-27.9893536h-23.9863318z" fill="none"/></mask><g fill="none" fill-rule="evenodd" transform=""><path d="m10.3576466 11.0009125-.37775781-.3735817-.97560538-.5915133c.03142601.1867376.03142601.3735817.06295964.5604258l.47203587.3735818c.34622422.249019.40918386.8406388.44060987 1.0896578.06295961.0622814.18887891.1556502.34622421.2491255l.1573453-.2180381v-.1867376c-.0629596-.0311939-.1258117-.0622814-.1887713-.0933688-.0944933-.0934753-.1259193-.2179316-.1259193-.3114069v-.0310874c.0629597-.1557567.1259193-.3114069.1888789-.4670571" fill="#00b8fb"/><path d="m20.8066762 12.900111c-.1259192.5604259-.6610224.7160761-.9127533.7160761h-2.3289686c-.2832646 0-.8499014-.1556502-.8813274-.7783574-.031426-.4981445.2518386-.74727.5035695-.8406388.0629597-.3113004.2832646-.4981445.2832646-.4981445.1888789-.1868441.4407175-.2802129.6924484-.2802129.0629597 0 .1258117.0311939.1887713.0311939.1573453-.1868441.4091839-.3424943.6924484-.3735818.3147983-.0622813.5980628.0310875.8497938.1867377.3461166.249019.4406098.5915133.4090762.8718327.4407175.1555437.5980628.5292319.5351031.8094448 0 .0622814-.031426.0933689-.031426.1556502m-8.8886098-6.95592393c-.9756054 0-1.91989241.12456274-2.83264577.37358175-.06285202.28021293-.15734529.59151331-.3775426.90292015 0 0-.15745292.31130038-.09449328.65379468l.03153364.24912548c.06295964.34249429.15723766.87172623.25173094 1.46323954l1.29040357.31130038c.0629597-.09336882.1258117-.15565019.2203049-.24901901l-.72387439-1.49443346c-.03153363-.09336882-.03153363-.18684411.06295964-.24912548.09438565-.06228137.22019731-.06228137.28315695 0l1.2590852 1.15204563c.125704-.06228137.283157-.09347529.4405022-.12456274l.4721435-1.40106464c.0314261-.09336882.1259193-.15565019.220305-.15565019.0943856 0 .1573453.06228137.1888789.15565019l.3462242 1.43215209c.0629597.03119392.1572377.06228137.2201973.09347529l1.3219372-.99628897c.0943857-.06228137.220305-.06228137.283157 0 .0629596.06228137.0943856.15565019.0315336.24901901l-.8497937 1.43215209c.0315336.06228137.0629596.12456274.0944933.18684411l1.4476412-.31140685c.1259193-.03108745.2204126.03119392.2518386.12456274.0315336.09336882 0 .18684411-.0943857.24912547l-1.4477488.87172627c0 .0933688-.0315337.1868441-.0629597.249019.031426.1556502.0629597.3424943.0629597.5293384.0943856.8717262.031426.965095-.0315337 1.0273764-.0566098.028-.1131121.1053993-.1696143.1661901v.089962c.2352646.851711.2946726 1.2112395.2641076 1.3628441.0943857.0622814.1888789.1245627.2832646.2179316l.4720359.4669505c.2203049.2180381.3776502.4981445.4091838.8095514l.0943857.6537946.8183677.9650951.5978475-.6226008c.0629597-.0934752.1888789-.0934752.2833722-.0311939l2.2030493 1.5879088c.0629597.0310874.0944933.0933688.0944933.1556502 0 .0622813-.0315336.1245627-.0629596.1556502l-.4091839.4358631c0 .0310874.031426.0933688.031426.1556502 0 .1245627-.031426.2802129-.1258116.3735817-.0944933.0622814-.188879.1245627-.2833722.1556502 0 .0934753-.0629597.1868441-.1258117.2803194-.0629596.0621749-.1574529.1244563-.2518386.1556502 0 .0933688-.0315336.1867376-.0943856.2801064-.062852.0934753-.1887713.1557567-.3146906.1868442 0 .0934752-.031426.1868441-.0943856.2802129-.0944933.1245627-.2518386.1868441-.4091839.1868441-.0944933 0-.1574529-.0310875-.2518386-.0622814l-.031426.0311939c.031426.4357567-.1259193 1.2141141-.8497937 1.5878023l.3461166 2.708654v.0310875c0 .0310874-.0629596.5915133-.4405022 1.0585703.031426.1244563.031426.249019.0629596.3735817 3.9654888-1.6811711 6.7351749-5.5729581 6.7981345-9.9316958 0-6.0400152-4.9727354-10.99026613-11.1099551-10.99026613" fill="#5cd8ff"/><path d="m8.2174278 26.4744578.15734529-3.0822357-.5035695-1.6812776c-.03142601-.0622814 0-.1245628.06295964-.1556502l.31469058-.3735818.25183857-1.6812775h-.09438565c-.12591929 0-.22030494-.0310875-.28326458-.0621749-.4721435-.2491255-.5035695-1.0585704-.5035695-1.1520457v-.0622813c.06295964-.249019.34622421-.529232.6923408-.8405323l-.22019731-.280213c-.03153363 0-.03153363-.0310874-.03153363-.0310874l-.18887892-.498251c-.03142601-.0622813-.03142601-.1245627 0-.1867376l.28326457-.4981445-.69244843-.8095513c-.03142601-.0621749-.03142601-.1244563-.03142601-.1867377l.09438565-.5293384c-.06295964-.0310874-.12581166-.0621749-.1887713-.0933688-.84979372-.5292319-.18887892-2.0236654-.09438565-2.2727909-.15745291-1.7434524-.03153363-3.9228745 0-4.35873761l-.25183856-.31130038c0-.03119392-.03142601-.06228137-.03142601-.12456274v-.15565019c-3.30468162 1.65008365-5.66518386 4.88807602-6.07436771 8.68628132.15745291-.1556501.40918385-.249019.75540807-.249019.12591928-.249019.47214349-.6849886 1.10152466-.6849886.18887892 0 .40918386.031194.62948879.1245628.03142601 0 .62938117.2802129.81826009.9652015.37775785.0933688.88121973.3735817.91275336 1.0585703.03142601.3735818-.09449327.6848822-.34622421.9340076-.25173094.2490191-.56652915.3735818-.78683408.3735818h-3.05284305c.53499551 4.2030874 3.4620269 7.6589049 7.42762332 9.0288821.031426-.218038.06295964-.4047756.09438565-.5605323-.03142601 0-.06295965-.0310874-.09438565-.0310874-.09449328-.0622814-.12591929-.1245628-.12591929-.2179316" fill="#5cd8ff"/><g fill="#fff"><path d="m13.5005919 13.8403042h.8609866v-1.8098859h-.8609866z" mask="url(#a)"/><path d="m11.1139587 9.46472395.2184691.24901902c.062435-.06228137.1560341-.09336883.2184691-.15565019l-.187305-.31130038c-.0935991.09336882-.1871982.15565019-.2496332.21793155" mask="url(#a)"/><path d="m7.5889722 5.63525019h.56652915c.06295964 0 .09438565-.06228137.09438565-.09336882 0-.03119392-.03142601-.06228137-.06295965-.06228137h-.031426-.03153364-.28326457-.28315695c-.06295964 0-.09449328.03108745-.06295964.06228137 0 .06228137.06295964.09336882.09438565.09336882" mask="url(#a)"/><path d="m11.7415686 12.6403392v-.3424943c-.0312708-.0310875-.0312708-.0310875-.062435-.0621749l-.156034.249019c.0935991.0622813.156034.1245627.218469.1556502" mask="url(#a)"/><path d="m14.1342413 8.96655817.1873049-.34249429-.3120682.24912547c.062435.03108746.0935991.06228137.1247633.09336882" mask="url(#a)"/><path d="m14.3871067 14.2282053c-.1259193.0933688-.2832645.1556502-.4406098.2179316.031426.0310874.1259192.0933688.2832645.1245627.251731.0310875.4091839-.0311939.5035695-.0934753-.0943856-.1245627-.2203049-.1867376-.3462242-.249019" mask="url(#a)"/><path d="m13.9149955 9.71378555c.0312709 0 .062435.03108745.0937058.06228137l.0935991-.09336882c-.0311641-.06228137-.0624349-.12456274-.0935991-.18684411z" mask="url(#a)"/><path d="m11.1438009 8.90428745c.062435-.03108745.0937058-.06228137.1561408-.09336882l-.343339-.31140684z" mask="url(#a)"/><path d="m8.37581704 3.95345287v-.03094445-.0930453h-.72387444v.03105042l.50356951.03094445c.09438565 0 .15734529.03105043.22030493.06199488" mask="url(#a)"/><path d="m7.46306368 4.35878023c0 .0621749.06295964.09336882.09438565.09336882l.56652915.03108745c.06295964 0 .09449327-.06228137.09449327-.09336882s-.03153363-.03108745-.03153363-.03108745-.03142601-.03108745-.06295964-.03108745l-.56652915-.03119392c-.03142601 0-.06295964.03119392-.09438565.06228137" mask="url(#a)"/><path d="m7.55749238 5.07480304h.28326457.28326457.03142601c.03153364 0 .06295964-.03108745.06295964-.0621749 0-.06228137-.06295964-.09347529-.09438565-.09347529l-.56652914-.03108745c-.06295964 0-.09438565.03108745-.09438565.09336882s.06295964.09336882.09438565.09336882" mask="url(#a)"/><path d="m8.34433722 13.9791011-.12591928.4670571.5035695.5915133.62948879-1.6189962c-.31469058.2491255-.6609148.4982509-1.00713901.5604258" mask="url(#a)"/><path d="m10.7047964 9.99397719.2184691.21793151c.0312708 0 .0312708-.0310874.0312708-.0310874.0311641-.0622814.062435-.0934753.0935991-.1245627l-.218469-.24901906c-.062435.09336883-.0937059.15565019-.12487.18673765" mask="url(#a)"/><path d="m8.4072861 13.0139529c-.09438565.0622813-.22030493.0622813-.28326458 0-.18887892-.1556502-.3147982-.3113004-.37775784-.529232-.09438565.4047757-.09438565.8405323.18887892 1.0273764.50356951.3114069 1.38478924-.6537946 1.66805381-1.0273764.06295964-.0934753.18887893-.0934753.28326458-.0311939.09449327.0622814.09449327.1868441.03153363.2802129-.06295964.0622814-.22030493.280213-.44071749.4981445h.12591928c.12591929.0622814.15745292.1868441.12591929.2802129l-.75530045 1.992578-.03153364.0310874-.31469058.5293384.15734529.3735818.18887893.249019c1.35336325-.996289 3.61937215-2.1170342 4.75243045-2.6463726-.1259192-.0310875-.2518385-.0310875-.3462242-.0310875-.7868341-.0622813-1.4792825-.6849886-1.5736681-.7783574-.6924485-.5292319-1.7310135-1.2765019-1.7939731-1.3075893-.06295967-.0310875-.09438568-.0933689-.09438568-.1556502 0-.1557567-.03153363-.4359696-.12591928-.6537947-.28326458.498038-.91275337 1.5255209-1.38478924 1.8991027" mask="url(#a)"/><path d="m14.0721749 11.2704578c0 .0933688 0 .2179316-.0312709.3424943l.2184691.4047757c0-.0934753 0-.3736883-.0311641-.6539012z" mask="url(#a)"/><path d="m11.3630457 11.4884213c-.0311641.0310874-.0623282.0310874-.0935991.0310874v.2491255c0 .0622814 0 .0933688-.0311641.1245628l-.1873049.2802129c.0311641.0310874.062435.0622814.1248699.0933688v-.023422.023422l.2702314-.4494905c-.0121668-.0239544-.0205982-.0478023-.0205982-.0798479-.0311641-.0933688-.062435-.1867376-.062435-.249019" mask="url(#a)"/><path d="m12.1491462 8.93541749c-.1560341.03108745-.280904.06228137-.405774.12456274l.1873049.34249429c.0935991-.03119391.1871982-.06228136.2809041-.09347528z" mask="url(#a)"/><path d="m12.6555794 9.27789049h.0937058c.0623283 0 .1247632.03108746.1871982.03108746l.062435-.4046692c-.0935991-.03119392-.1873049-.03119392-.3120682-.03119392h-.0937058z" mask="url(#a)"/><path d="m11.3028161 10.3987316c-.1574529.249019-.2518385.467057-.2832645.6849886.062852 0 .1573453.0310874.3776502-.031194v-.249019c0-.0622813.031426-.1245627.0943856-.1557566l1.1644843-.8094449c.0629597-.03108745.188879-.03108745.2518386.03108746.5351032.49825094 1.069991.77835744 1.069991.77835744l.0315337.0311939.1573453.1245627c-.220305-.7783574-.8496861-.99628895-.8496861-.99628895-.2204126-.06228137-.4091839-.09347528-.6294888-.12456274-.5349955-.03119391-1.0700987.24901901-1.3847893.71607609" mask="url(#a)"/><path d="m8.81639462 5.41727605v.65390114.34238783c.06243498-.15565019.15603408-.31130038.18730493-.43586312.06243498-.21793156.0935991-.43586312.0935991-.62260076 0-.28031939-.03116412-.46705703-.06243497-.56053232-.09359911-.12445627-.18730494-.18673764-.21846906-.15565019z" mask="url(#a)"/><path d="m12.7182664 8.46844563h.218469l-.1248699-.56042586-.1871982.5293384c.0311641 0 .0311641 0 .0624349.03108746z" mask="url(#a)"/><path d="m11.1139587 17.5595133c-.6610224.467057-1.57366812 1.0896578-1.82539906 1.2765019l-.18887892 1.2142205z" mask="url(#a)"/><path d="m13.4114583 12.0176745c.2518386-.2802129.2832646-.7783574.2203049-1.0273764-.1573453-.1245627-.5351031-.3424943-.9441793-.6849886l-.9441794.6537947c0 .2179315 0 .7472699.2832646 1.0585703.1573452.1868441.3776502.280213.6923408.280213.3147982 0 .5351031-.0933689.6924484-.280213" mask="url(#a)"/><path d="m12.1525561 12.6092091v.3735818c.1259192.1245627.5351031.4359696 1.0070313.5604258v-.9029201c-.1258116.0311939-.2831569.0622813-.4405022.0622813-.2203049 0-.4091839-.0310874-.5665291-.0933688" mask="url(#a)"/><path d="m14.8592287 16.0962099-.0315336-1.2142205c-.1258117.0622813-.251731.0934752-.4090763.0934752h-.1259192c-.0629597.0310875-.157453.1244563-.2518386.2179316l-.1258117 3.6114677c.3776503-.4358631.7553005-.9652015.7238745-1.245308 0-.1868441-.0315337-.3114069-.0629597-.4359696-.0944932-.3423878-.1573453-.6537947.2832646-1.0273764" mask="url(#a)"/><path d="m13.723087 9.15339163c-.0937058-.06228136-.1873049-.12456273-.3121749-.15565019l-.062435.40466921c.062435 0 .0937059.03119391.12487.03119391 0 0 .0311641 0 .0935991.03108746z" mask="url(#a)"/><path d="m13.789087 14.8197399c-.1258117-.0622813-.1887713-.1556502-.2517309-.2179315-2.203157 1.0585703-4.84681619 2.5218099-5.1930404 3.2690798.03153363.2802129.12591928.6537947.28326457.7471635.09438565.0311939.25173094-.0310874.34622421-.0933688.06295965-.0622814 2.01427802-1.4010646 2.54927352-1.7435589.3776503-.2179316 1.5421346-1.2763955 2.266009-1.9613841" mask="url(#a)"/><path d="m16.1488664 17.7152061.343339-.3424943-.4370449-.4981445z" mask="url(#a)"/><path d="m18.6044987 19.4897992c.0315336 0 .0629596 0 .0943856-.0310874.0315336-.0310875.0315336-.0622814.0315336-.0622814s0-.0310874-.0315336-.0622814l-.4406099-.3735817c-.031426-.0311939-.0629596-.0311939-.0629596-.0311939-.031426 0-.031426 0-.0629596.0311939-.0314261.0310875-.0314261.0622814-.0314261.0622814 0 .0310874 0 .0310874.0314261.0622813l.2203049.1867377.2204125.1868441z" mask="url(#a)"/><path d="m17.4085561 19.894543c-.0315337 0-.0315337 0-.0629597.0310874-.0315336.0311939-.0315336.0934753 0 .1245628l.4406099.3424943c.0629596.0622813.0944933.0311939.1259193 0 .031426-.0310875.031426-.0622814.031426-.0622814 0-.0310875 0-.0310875-.031426-.0622814l-.4406099-.3424943c-.0315336-.0310874-.0629596-.0310874-.0629596-.0310874" mask="url(#a)"/><path d="m19.1080359 19.0228274c.0315336-.0310875.0315336-.0622814.0315336-.0622814 0-.0310874 0-.0310874-.0315336-.0622814l-.4406099-.3735817c-.0315336-.0311939-.0629596-.0311939-.0629596-.0311939-.031426 0-.031426 0-.0629597.0311939-.031426.0310874-.031426.0933688 0 .1245627l.4406099.3735818c.0629596.0621749.0944933.0310874.1259193 0" mask="url(#a)"/><path d="m19.3912789 18.1510479-1.8568251-1.3387833-1.3533632 1.4010647.2832646 2.2727909.4405022.2802129.3147982-.3113004-.1573453-.1245627c-.2203049-.1868441-.2831569-.4981445-.0944933-.7160761.0629597-.0934753.188879-.1557566.3147982-.1868441 0-.0933688.0314261-.1868441.0943857-.2802129.0944933-.0622814.1888789-.1245628.2832646-.1556502 0-.1245627.0629596-.2179316.1259193-.3113004.0944932-.0934753.1888789-.1245627.2832645-.1557566 0-.0933689.0629597-.1867377.1259193-.280213.1888789-.2178251.5034619-.249019.7238744-.0622813l.2832646.2491254z" mask="url(#a)"/><path d="m18.3526709 19.894543c.0315336-.0310875.0315336-.0622814.0315336-.0622814h-.0132377.0132377c0-.0310875-.0315336-.0310875-.0315336-.0310875l-.220305-.1868441-.2203049-.1867376c-.031426-.0311939-.0629597-.0311939-.0629597-.0311939-.031426 0-.031426 0-.0629596.0311939-.031426.0310874-.031426.0621749-.031426.0621749 0 .0311939 0 .0311939.031426.0622814l.4407175.3424943c.0629596.0622813.0943856.0310874.1258117 0" mask="url(#a)"/><path d="m15.4886744 15.4735452c-.031426-.1867376-.0943856-.3424942-.2203049-.4981444l.0629596 1.2142205c0 .0934753-.0315336.1556502-.0944932.1867376-.3146906.2180381-.2832646.3424943-.220305.6539012.0315337.1556502.0629597.3113004.0629597.4981445 0 .0622813-.031426.1245627-.031426.1868441l.6609148 6.5691407c0 .0622813-.031426.1557566-.0943857.1868441l-.1573453.1245627 1.1329507.249019z" mask="url(#a)"/><path d="m14.6389345 9.93156346v.06199488l.1560341-.09293933z" mask="url(#a)"/><path d="m15.7404915 25.0627787.1258116 1.8057338c.1259193-.0310874.2518386-.0933688.4407175-.1556501-.0944932-.7160761-.1888789-1.3075894-.2203049-1.5878023z" mask="url(#a)"/><path d="m16.5587085 21.0776548.0944933.8406387c.2832646-.1868441.3776502-.467057.4406099-.6849886-.031426.0310875-.0943857.0622814-.1259193.0622814-.0629597 0-.0943857 0-.1258117-.0311939z" mask="url(#a)"/><path d="m19.5171874 10.8657567c-.2203049.0310874-.3776502.1244562-.4721435.3113003-.0629596.0933689-.1887713.1245628-.2832645.0933689 0 0-.0943857-.0310875-.2201973-.0310875-.1259193 0-.2832646.0622814-.3776503.1556502 0 0-.1574529.1245627-.1574529.3424943 0 .1245627-.0943856.1867376-.1887713.2179315-.0315336.0310875-.3147982.0933689-.2832646.4670571 0 .3735817.3776503.4046692.4406099.4046692h2.2975426c.0315336 0 .4405023-.0310875.5349955-.4046692 0-.0311939 0-.0311939.031426-.0622814 0-.2802129-.1259192-.4359696-.4091838-.467057-.062852 0-.1257041-.0310875-.1572377-.0933688-.031426-.0622814-.0629596-.1245628-.031426-.1868441 0 0 .1258117-.4046692-.1888789-.6227073-.1573453-.0933688-.3462242-.1555437-.5351032-.1244562" mask="url(#a)"/><path d="m16.4958565 25.2495589c0 .0933689.0309515.1868441.0309515.280213.0309515-.0933689.0620089-.1868441.0929604-.2491255z" mask="url(#a)"/><path d="m13.8835695 27.086476c0 .0933689-.0315336.1868442-.0629596.280213.1259192-.0311939.2518385-.0622814.4091838-.0933688.0629597-.6849886.0943857-1.3698708.1259193-1.8681217l-.4721435.3736882z" mask="url(#a)"/><path d="m8.56463139 3.39357871h.31469058v-.49814449h-1.85682511v.49814449h.37765023z" mask="url(#a)"/><path d="m4.81935067 17.1858996c.15734529-.1556502.22030494-.3735817.22030494-.6227072-.03153364-.6226008-.6609148-.6848821-.69244844-.6848821-.09438565-.031194-.15734529-.0934753-.1887713-.1868441-.12591928-.5915133-.59795515-.8094449-.59795515-.8094449-.15745292-.0622814-.2833722-.0934753-.44071749-.0934753-.53499552 0-.78683408.5293384-.78683408.5604259-.03142601.0934752-.12581166.1245627-.22019731.1245627-.78683408-.0933688-.88132736.6227072-.88132736.6537947 0 .0934753-.09438565.1868441-.22030493.1868441-.53499551 0-.59795515.4669506-.59795515.5292319 0 .1557567.06295964.280213.22030493.4047757.15734529.1244563.34622421.1867376.56652915.1867376h3.11580269c.06295964 0 .31469058-.0622813.5035695-.249019" mask="url(#a)"/><path d="m15.0795121 24.9382266h-.0629596l-.220305.1556502-.0943856.0622814.0629596-.0310875-.0944932 2.0859468c.1259192-.0310875.2832645-.0622814.4091838-.0933688.1259193-.0311939.2518386-.0622814.3777579-.1245628l-.157453-2.0237718z" mask="url(#a)"/><path d="m8.59610045 7.62780684-.03142601-.24901901c-.03153363-.1868441 0-.37368821.03142601-.5293384-.03142601.06228137-.09438565.09336882-.15734529.09336882h-.44060987l.03142601.06228137c.03153363.06228137.03153363.09347528.03153363.15565019 0 .03119392-.22041255 3.11342969.09438565 5.01263879.03142601.1556502.09438565.2802129.15734529.3735817.22030494-.2491254.47203588-.6227072.72387444-.9962889l-.03142601-.9029202c-.06295964-1.02737641-.28326457-2.36615968-.40918385-3.01995436" mask="url(#a)"/><path d="m9.00526278 25.5298038 4.15436772-4.3276502.2832646-1.8680152.1574529-3.7360304c-.3462242.3113004-.7869417.6848821-1.1331659.996289l-3.80814353 4.7012319.5035695 1.6188897v.0622814z" mask="url(#a)"/><path d="m7.52602332 2.49072243h1.00713901c.25173094-.12456273.40918386-.28021292.4721435-.49814448.03142601-.18684411.03142601-.37358175 0-.49814449-.15745292.18673764-.25183857.28021293-.25183857.28021293-.06295964.09336882-.18887892.09336882-.28326457.03108745s-.09438565-.18673764-.03153363-.28010646c.09449327-.12456274 0-.46705704-.12581166-.80955133-.15734529.40477566-.22030493.77835741-.22030493.77835741-.03142601.09347529-.12591929.18673764-.25183857.15565019-.12581166-.03108745-.22030493-.12445627-.1887713-.24901901.03142601-.12456274 0-.24912548-.06295964-.3424943-.06295964.18684411-.12591928.31130038-.15734529.37358175-.31479821.56042586-.06295964.93400761.09438565 1.05857034" mask="url(#a)"/><path d="m9.28850583 25.8722768c-.03142601.1244563-.12591928.5604259-.22030493 1.1207453.40907623.1245627.81826009.218038 1.2274439.2803193.2832646-.8095513.6294888-2.1171406.9441794-3.4559239z" mask="url(#a)"/><path d="m14.6703605 18.4623802c-.2832645.4358631-.6609148.8406388-.8183677.996289l-.9756054 6.5381597 2.3605023-1.7746464z" mask="url(#a)"/><path d="m8.09250942 6.0711346h-.34622422v.3424943.15565019h.40918386.06295964.12591928v-.56042586c-.06295964.03119392-.12591928.06228137-.15745291.06228137z" mask="url(#a)"/><path d="m13.4428843 26.8685551v-.7472699l-.5979552.4359696c.0629597.1244562.251731.2802129.5979552.3113003" mask="url(#a)"/><path d="m12.3728502 26.5572228v-.0933688l.6924485-4.5455818-1.2275516 1.2765019c-.251731 1.0273765-.6923408 2.9265856-1.1015247 4.1408061.5351032.0933688 1.038565.1244563 1.5736682.1244563.3147982 0 .6610224-.0310875.9756054-.0310875.0315336-.0310874.0629596-.0933688.0944932-.1244562-.6609148-.0622814-.9441793-.498251-1.007139-.74727" mask="url(#a)"/></g><path d="m14.6389345 9.99397719v-.06228137l.1573453-.03108745zm1.9380807 16.45676041c-.031426-.1245627-.031426-.2491254-.0629596-.3735817.3777579-.467057.4407175-1.0273764.4407175-1.0585703v-.0310875l-.3462242-2.708654c.7237668-.3736882.8811121-1.1520456.8496861-1.5878023l.031426-.0311939c.0944933.0311939.1574529.0622814.2518386.0622814.1573452 0 .3147982-.0622814.4091838-.1868441.0629596-.0933689.0943857-.1867377.0943857-.280213.1259192-.0310874.2518385-.0933688.3147982-.1868441.0629596-.0932623.0943856-.1867376.0943856-.2801064.0944933-.0311939.1887713-.0934753.251731-.1556502.0629596-.0934753.1259192-.1868441.1259192-.2803194.0943857-.0310875.188879-.0933688.2832646-.1556502.0943857-.0933688.1259193-.249019.1259193-.3735817 0-.0622814-.0315336-.1245628-.0315336-.1556502l.4091838-.4358632c.0315337-.0310874.0629597-.0933688.0629597-.1556501 0-.0622814-.031426-.1245628-.0943857-.1556502l-2.2031569-1.5879088c-.0943857-.0622814-.220305-.0622814-.2832646.0311939l-.5979552.6226008-.8183677-.9650951-.0943856-.6537946c-.031426-.3114069-.188879-.5915133-.4090763-.8095514l-.4721435-.4669505c-.0943856-.0933689-.1887713-.1556502-.2832645-.2179316.0315336-.1556502-.031426-.5293384-.2832646-1.4321521.0629596-.0622814.1259193-.1556502.1888789-.1868441.0629597-.0622814.1259193-.1556502.031426-1.0273764 0-.1868441-.031426-.3736882-.0629596-.529232.0315336-.0622813.0629596-.1557566.0629596-.2491254l1.4477489-.87172627c.0944933-.06228137.1259193-.15575666.0944933-.24912548-.0315337-.09336882-.1259193-.15565019-.2518386-.12456274l-1.4477489.31140685c-.031426-.06228137-.0629596-.12456274-.0943856-.18684411l.8497937-1.43215209c.0629596-.09336882.031426-.18673764-.0315336-.24901901-.0628521-.06228137-.1887713-.06228137-.2832646 0l-1.3218296.99628897c-.0629596-.03119391-.1573453-.06228137-.2203049-.09347528l-.3462243-1.43215209c-.031426-.09336882-.0943856-.15565019-.1888789-.15565019-.0943856 0-.1887713.06228137-.2203049.15565019l-.4721435 1.40106464c-.1572377.03108745-.314583.06228136-.4405022.12456273l-1.2589776-1.15204562c-.0629597-.06228137-.1887713-.06228137-.283157 0-.09449325.06228136-.09449325.15575665-.0629596.24912547l.7237668 1.49443346c-.0943857.09336882-.1573453.15565019-.2203049.24901901l-1.290296-.31130038c-.09449327-.59151331-.18887892-1.12074524-.25183856-1.46323954l-.03142601-.24912548c-.06295964-.34249429.09438565-.65379467.09438565-.65379467.22030493-.31130038.3147982-.62270723.37765022-.90292016.9126457-.24901901 1.8569327-.37358174 2.8325381-.37358174 6.1373274 0 11.1100628 4.95025093 11.1100628 10.99026613-.0629596 4.3587377-2.8326457 8.2505247-6.7982422 9.9316958zm-.0811479-1.2012319.1258116.0311939c-.031426.0622814-.0629596.1556502-.0943856.2491255 0-.0934753-.031426-.1868441-.031426-.2803194zm-.3462243-7.5343422-.0944932-.8406388.4407175.498251zm.9441794 3.5180989c-.0629596.218038-.1573453.4982509-.4406098.6849886l-.0944933-.8406388.2833722.1868441c.031426.0310874.062852.0310874.1258116.0310874.0315337 0 .0944933-.0310874.1259193-.0622813zm1.8253991-3.0510419c-.2203049-.1868441-.5349955-.1556502-.7238744.0622814-.0629597.0933688-.1259193.1867376-.1259193.2801065-.0943856.0311939-.1887713.0622813-.2832646.1557566-.0629596.0933688-.1259193.1867377-.1259193.3113004-.0943856.0311939-.1887713.0934753-.2832645.1556502-.0629597.0934753-.0943857.1868441-.0943857.2802129-.1258116.0310875-.2517309.0933688-.3146906.1868441-.1887713.2179316-.1258116.529232.0944933.7160761l.1572377.1245627-.3146906.3113004-.4406099-.2802129-.2832645-2.2727909 1.3533632-1.4010647 1.8568251 1.3387833-.1887713.2802129zm-.3776502.4669506c-.031426-.0310874-.031426-.0933688 0-.1245627.0315336-.0310875.0315336-.0310875.0629596-.0310875 0 0 .0314261 0 .0629597.0310875l.4405022.3736882c.0315337.0310874.0315337.0310874.0315337.0622813 0 0 0 .0310875-.0315337.0622814-.031426.0310875-.0629596.0621749-.1259193 0zm-.1888789.6227072-.220305-.1867376c-.031426-.0311939-.031426-.0311939-.031426-.0622814 0 0 0-.0311939.031426-.0622814.0315337-.0311939.0315337-.0311939.0629597-.0311939 0 0 .0315336 0 .0629596.0311939l.4406099.3735818c.0315336.0310874.0315336.0622814.0315336.0622814s0 .0310874-.0315336.0621749c-.031426.0311939-.062852.0311939-.0943857.0311939l-.031426-.0311939zm-.4091839 1.0585704s0 .0310874-.031426.0622813c-.031426.0310875-.0629596.0621749-.1259193 0l-.4406098-.3424943c-.0315337-.0310874-.0315337-.0933688 0-.1245627.031426-.0310874.031426-.0310874.0629596-.0310874 0 0 .031426 0 .0629596.0310874l.4406099.3424943c.031426.0310875.031426.0310875.031426.0622814zm-.1573453-.7783574c-.031426-.031194-.031426-.031194-.031426-.0622814 0 0 0-.0311939.031426-.0622814.0315337-.0310874.0315337-.0310874.0629597-.0310874 0 0 .0315336 0 .0629596.0310874l.2203049.1868441.220305.1867377s.0315336 0 .0315336.0311939c0 0 0 .0310874-.0315336.0622814-.031426.0310874-.062852.0622813-.1258117 0zm-2.328861 5.0436197.1572377-.1244562c.0629597-.031194.0943857-.1245628.0943857-.1868442l-.6608072-6.5692471c0-.0622814.031426-.1245627.031426-.1867376 0-.1868442-.031426-.3424943-.0629596-.4981445-.0629597-.3114069-.0943857-.4358631.2203049-.6539012.0629596-.0310874.0944933-.0933688.0944933-.1867376l-.0629597-1.2142205c.1259193.1556501.1888789.3113003.220305.4981444l1.1015246 9.37127zm.4089687 2.2727909-.1258117-1.8057338.3462242.0622813c.031426.280213.1258117.8717263.2203049 1.5878023-.1888789.0622814-.3147982.1245627-.4407174.1556502zm-.7867265.2491255c-.1259193.0310874-.2832646.0622813-.4091839.0933688l.0944933-2.0859468-.0629596.0311939.0943856-.0622813.220305-.1557567h.0629596l.2203049.0311939.1574529 2.0236654c-.1259192.0622814-.2518385.0933689-.3777578.1245628zm-2.203157-1.1208517.9756054-6.5381597c.1574529-.1556502.5351032-.5603194.8183677-.996289l.5665292 5.7599087zm1.3533633 1.2765019c-.1573453.0310874-.2832646.0622813-.4091839.0933688.031426-.0933688.0629597-.1867377.0629597-.2802129v-1.3075894l.4721435-.3735817c-.0315337.4981444-.0629597 1.183133-.1259193 1.8680152zm-.7868341-.4047757c-.3462242-.0310875-.5349955-.1867376-.5979552-.3113004l.5979552-.4358631zm-.1573453.5604259c-.3146906 0-.6609148.0311939-.975713.0311939-.5349955 0-1.038565-.0311939-1.5736682-.1245628.4091839-1.2142205.8499014-3.1134296 1.1016323-4.140806l1.227444-1.2765019-.6924485 4.5455817v.0933688c.0629597.2491255.3462243.6849886 1.0072467.74727-.0315337.0310874-.0629597.0933688-.0944933.1244563zm-2.9898834-.1556502c-.40918386-.0622814-.81836772-.1556502-1.22744395-.280213.09438565-.5604258.1887713-.9962889.22030493-1.1207452l1.95131842-2.0548593c-.3147982 1.3387832-.6610225 2.6463726-.9441794 3.4558175zm-1.63662781-5.9777339 3.80814351-4.7011254c.3462242-.3114069.7869417-.6849886 1.1331659-.996289l-.1574529 3.7360304-.2832646 1.8680152-4.1543677 4.3276502.1573453-2.5530038v-.0622814zm.03142601 5.5729582c-3.96559641-1.3698707-6.89252018-4.8256882-7.42762332-9.0287757h3.05295067c.22030494 0 .53499552-.1245627.78683408-.3735817.25173095-.2491255.37765023-.5604259.3461166-.9340076-.03142601-.6849886-.53499552-.9652015-.91264574-1.0585704-.18887893-.6849886-.78683409-.9652015-.81836772-.9652015-.22019731-.0933688-.44060986-.1245627-.62938116-.1245627-.62948879 0-.97571301.4359696-1.10163229.6849886-.34611659 0-.59795516.0933688-.75530045.249019.40918386-3.7982053 2.76957848-7.03619773 6.07426009-8.68628138v.15565019c0 .06228137.03153363.09336882.03153363.12456273l.25173094.31130039c-.031426.43586311-.15734529 2.61528517 0 4.35873767-.09438565.2491254-.75530044 1.7435589.09449328 2.2727908.06285202.031194.12581166.0622814.1887713.0933689l-.09438565.5293384c0 .0622813 0 .1245627.03142601.1867376l.69244843.8095513-.28326458.4981445c-.03153363.0621749-.03153363.1244563 0 .1867377l.18887893.4982509s0 .0310875.03142601.0310875l.22030493.2802129c-.34622422.3113004-.62948879.5915133-.69244843.8405323v.0622814c0 .0934753.03153363.9029201.50356951 1.1520456.06295964.0310875.15745291.0621749.28326457.0621749h.09438565l-.25173094 1.6812776-.31469058.3735817c-.06295965.0310875-.09449328.0933689-.06295965.1556502l.50356951 1.6812776-.15734529 3.0822357c0 .0933689.03142601.1556502.12581166.2179316.03153363 0 .06295964.0310874.09438565.0310874-.03142601.1557567-.06285202.3424943-.09438565.5604259zm-8.05700449-9.620289c-.15745291-.1245627-.22030493-.2491254-.22030493-.4047756 0-.0622814.06285202-.529232.59795516-.529232.12591928 0 .22030493-.0934753.22030493-.1868441 0-.0311939.09438565-.7472699.88121973-.6537947.09438565 0 .18887893-.0311939.22030493-.1245627 0-.0310875.25183857-.5604259.78683409-.5604259.15734529 0 .28326457.031194.44060986.0934753 0 0 .4721435.2178251.59806278.8094449.03142601.0933688.09438565.1556502.1887713.1868441.03153363 0 .6609148.0621749.69244843.6848821 0 .249019-.06295964.4669506-.22030493.6227073-.18887892.1867376-.44060987.249019-.50356951.249019h-3.11591031c-.22019731 0-.40907623-.0622814-.56642153-.1867377zm6.38895068-13.85467678v-.49803802h1.85693273v.49803802h-.31469058-1.16459193zm.40918385-1.96138403c.03142601-.06228137.09438565-.18673764.15734529-.37358175.06295965.09336882.09449328.21793156.06295965.3424943-.03142601.12456274.06295964.21793156.1887713.24901901.12591928.03108745.22041255-.06228137.25183856-.15565019 0 0 .06295964-.37358175.22030493-.77835741.12591929.34249429.22030494.68498859.12591929.80955133-.06295964.09336882-.06295964.21782509.03142601.28010646.09449327.06228137.22030493.06228137.28326457-.03108745 0 0 .09438565-.09347529.25183856-.28021293.03142601.12456274.03142601.31130038 0 .49814449-.06295964.21793156-.22041255.37358175-.47214349.49814448h-1.00713902c-.15734529-.12456273-.40918385-.49814448-.09438565-1.05857034zm.88121973 11.11482891c-.06295964-.0933688-.12591928-.2179316-.15734529-.3735818-.3147982-1.8992091-.09438565-4.98144483-.09438565-5.01263874 0-.06217491 0-.09336883-.03153363-.15565019l-.03142601-.06228137h.44060987c.06295964 0 .12591928-.03108746.15734529-.09336882-.03142601.15565019-.06295964.34249429-.03142601.5293384l.03142601.24901901c.12591928.65379468.34622421 1.99257795.40918385 3.01995441l.03142601.9029201c-.25183856.3735818-.5035695.7471635-.72387444.996289zm.03153364-6.53815971v.56042586h-.12591929-.06295964-.40918385v-.15565019-.3424943h.34622421.09438565c.03153363 0 .09449328-.03108745.15745292-.06228137zm-.78683408-.52923194h.28315695.28326457.03153363.03142601c.03153363 0 .06295964.03108746.06295964.06228137 0 .03108745-.03142601.09336882-.09438565.09336882h-.56652915c-.031426 0-.09438565-.03108745-.09438565-.09336882-.03153363-.03119391 0-.06228137.06295965-.06228137zm0-.5915133.56642152.03108745c.03153363 0 .09449327.03108745.09449327.09336882 0 .03119392-.03153363.06228137-.06295964.06228137h-.03153363-.28326457-.28315695c-.03153364 0-.09449328-.03108745-.09449328-.09336882s.03153363-.09336882.09449328-.09336882zm.09438565-1.02748289v-.03108746h.72387444v.09336882.03119392c-.06295965-.03119392-.12591929-.06228137-.22030494-.06228137zm.47203587.46705703c.03153363 0 .06295964.03108745.06295964.03108745s.03153363 0 .03153363.03108746c0 .03119391-.03153363.09347528-.09449327.09347528l-.56642152-.03119392c-.03153364 0-.09449328-.03108745-.09449328-.09336882.03153363-.03108745.06295964-.06228137.09449328-.06228137zm.09449327 10.11843351.12591929-.4669506c.34611659-.0622814.6923408-.3114069 1.00713901-.5604259l-.62948879 1.6189962zm1.57366817-3.3312548c.09438565.2179316.12591928.4981445.12591928.6537947 0 .0622813.03142601.1245627.09438563.1556502.0629597.0310874 1.1015247.7783574 1.7939731 1.3076958.0943857.0933688.7867265.716076 1.5736682.7782509.0943856 0 .2203049 0 .3462242.0311939-1.1331659.529232-3.3990673 1.6500837-4.75253813 2.6463727l-.18887892-.2491255-.15723767-.3735818.31469058-.5292319.03142601-.0311939.75540807-1.992578c.03142601-.0933688 0-.2179315-.12591928-.2801064h-.12591928c.22030493-.218038.37775785-.4359696.44071749-.498251.06295964-.0933688.06295964-.2179315-.03153363-.2801064-.09438565-.0622814-.22030494-.0622814-.28326458.0310874-.28326457.3735818-1.1644843 1.3387833-1.66805381 1.0273764-.28326457-.1867376-.28326457-.6226007-.18887892-1.0273764.06295964.2179316.18887892.3735818.37765022.529232.06295964.0622813.18887892.0622813.2833722 0 .47203587-.3735818 1.10152466-1.4009582 1.38478924-1.8991027zm1.25886991-1.0585703c-.031426.0310874-.0629596.0622813-.0943856.1245627 0 0 0 .0310874-.0315336.0310874l-.220305-.21793151c.031426-.03108746.0629597-.09336882.1259193-.18673765zm.0943857-1.15193921-.1887713-.40477566.3462242.31140684c-.0629596.03108745-.0944933.06217491-.1574529.09336882zm.1888789.80944487-.2203049-.24901901c.0629596-.06228137.1573453-.12456274.2517309-.21803803l.1888789.31140685c-.0629596.06228137-.1573452.09336882-.2203049.15565019zm.1573453 2.17942204c-.0152825-.0303422-.0304574-.0531255-.0421883-.0759087l-.2725023.4494905c-.0629596-.0310875-.0944933-.0622814-.1259193-.0933689l.188879-.2802129c.031426-.0311939.031426-.0622814.031426-.1245627v-.249019c.0315336 0 .0629596 0 .0943856-.031194 0 .0622814.0315337.1556502.0629597.2490191 0 .0320456.0085022.0558935.0207713.0798479l.0107623-.0175666c0 .0311939.031426.0622814.031426.0934753zm.2518386.4046692v.3424943c-.0629597-.0311939-.1259193-.0933688-.220305-.1556502l.1573453-.249019c.031426.0310875.031426.0310875.0629597.0621749zm2.3603946-2.61517869-.0943857.09336882c-.0315336-.03108746-.0629596-.06228137-.0944932-.06228137l.0944932-.21793156c.031426.06228137.0629597.12456274.0943857.18684411zm.031426-.71607605c-.031426-.03119392-.062852-.06228137-.1258117-.09347528l.3146906-.24901902zm.0944933 5.60404564c-.1573453-.0310875-.2518386-.0933688-.2832646-.1245627.1573453-.0622814.3146906-.1245628.4406099-.2179316.1259192.0622814.2518385.1245627.3462242.2491255-.0943857.0622813-.2518386.1245627-.5035695.0933688zm-.188879-2.957673c.0315337-.1245628.0315337-.2491255.0315337-.3424943l.1573453.0933688c.031426.2802129.031426.5604259.031426.6537947v.023422-.023422zm-.4405022.8094449c.031426-.0310875.0943857-.0622814.1259193-.1245628.031426-.0310874.062852-.0933688.094278-.1244563l.1573453.3113004c.1259193.4669506.2518386.996289.2832646 1.245308-.251731-.0933688-.5034619-.1245627-.6923408-.1245627zm-.4407175.2179315v.9029202c-.4720359-.1245628-.8812197-.4358632-1.007139-.5604259v-.3736882c.1573453.0622814.3462242.0934753.5665292.0934753.1573452 0 .3147982-.0311939.4406098-.0622814zm-.4406098-.3424943c-.3147983 0-.5351032-.0933688-.6923409-.2802129-.2832645-.3113004-.2832645-.8405323-.2832645-1.0585704l.9441793-.6537946c.4090763.3424943.7868341.5604258.9441794.6849886.0629597.249019.0315336.7471635-.2203049 1.0273764-.1573453.1868441-.3776502.2802129-.6924484.2802129zm-1.6050942 5.2616578-2.01427804 2.4907224.18887892-1.2142205c.25173094-.1868441 1.16437672-.8094449 1.82539912-1.2765019zm-2.14019733.9650951c-.09438565.0622813-.25173094.1245627-.34611659.0934753-.15745291-.0934753-.25183856-.4670571-.28326457-.74727.34611659-.7471635 2.98988339-2.2104031 5.19304039-3.2689734.0629596.0621749.1259192.1556502.2517309.2179316-.7238744.6848821-1.8883587 1.7434524-2.266009 1.961384-.5351031.3424943-2.48642149 1.6811711-2.54938113 1.7434525zm5.60222423-1.4009582c.031426.1245627.0629596.2491255.0629596.4358631.031426.2802129-.3462242.8095513-.723982 1.245308l.1259192-3.6114677c.0943857-.0934753.188879-.1868441.2518386-.2179315h.1259193c.1573453 0 .2832646-.0310875.4090762-.0933689l.0315337 1.2141141c-.4406099.3736882-.3777579.6849886-.2832646 1.0274829zm-1.227444-7.72118632.0629597-.40477567c.1259193.03119392.2203049.09347529.3147982.15565019l-.1574529.31140685c-.0629597-.03119392-.0943857-.03119392-.0943857-.03119392-.031426 0-.0629596-.03108745-.1259193-.03108745zm-.7238744-.96520152.1887713-.52923194.1259193.56042585h-.2203049-.0314261c-.0315336-.03119391-.0315336-.03119391-.0629596-.03119391zm.0629596.43586312h.0132377-.0132377c.1258117 0 .220305 0 .3146906.03119391l-.0629596.4046692c-.0629597 0-.1259193-.03108745-.1887713-.03108745h-.0944933l-.0629596-.40477566zm-.9441793.1868441c.1259193-.06228137.2518385-.09336882.4090762-.12456274l.0629596.37358175c-.0944932.03119392-.1887713.06228137-.2831569.09347529zm.9441793.62270723c.220305.03108745.4090763.06228136.6294888.12456273 0 0 .6293812.21782506.8496861.99628896l-.1573453-.1245627-.0315336-.0311939s-.5348879-.280213-1.069991-.77835745c-.0629597-.06217491-.1888789-.06217491-.2518386-.03108745l-1.1644843.8094449c-.0629596.0311939-.0943856.0934752-.0943856.1557566v.249019c-.220305.0622814-.3147983.0310875-.3776503.0310875.031426-.2179316.1258117-.4358631.2832646-.6848821.3146906-.46705708.8496861-.74727001 1.3847892-.71607609zm-2.0458116 1.71236499.1888789.0933688v.1868442l-.1573453.2179315c-.1574529-.0934753-.2832646-.1868441-.3461166-.2491255-.0315336-.249019-.0944932-.8405323-.44071746-1.0896578l-.47203588-.3735817c-.03153363-.18684411-.03153363-.37358176-.06295964-.56042586l.97571298.59151326.3775426.3735818c-.0629596.1557566-.1259193.3113004-.1888789.467057v.0310875c0 .0934753.0315336.2179315.1259193.3114068zm-1.60509419-6.60044104c.03153364.09347529.06295965.28021293.06295965.56042586 0 .1868441-.03142601.40477566-.09438566.62270722-.03153363.12445627-.12591928.28021293-.18887892.43586312v-.3424943-.65379468-.77835741c.03142601-.03108745.12591928.03119392.22030493.15565019zm3.27314799.09347529c-.9441794 0-1.8883587.12445627-2.76957848.34238783 0-.34238783-.06295964-.59151331-.09438565-.59151331 0-.03108745-.03142601-.06228137-.03142601-.06228137-.25183856-.31130038-.44071749-.43586312-.59806278-.43586312v-.21793156-.09336882h.31469058c.12591929 0 .22041256-.09347528.22041256-.21793156v-.90292015c0-.09336882-.06295964-.15565019-.12591928-.1868441.09438565-.12445628.18887892-.24901902.22030493-.37358175.1887713-.56042586-.09438565-1.0896578-.12591928-1.0896578-.03142601-.06228137-.09438565-.09347528-.15734529-.09347528s-.12591929 0-.18887893.06228137l-.09438565.09347528c-.09449327-.40477566-.31469058-.84063878-.37765022-.96520152-.06295964-.12456274-.15734529-.15565019-.22030493-.15565019-.06295965 0-.15745292.06228137-.18887893.12456274-.09438565.18673764-.18887892.37358175-.25183856.56042585-.12581166-.1868441-.28315695-.31140684-.28315695-.31140684-.06295965-.06228137-.15745292-.06228137-.25183857-.03108745-.06295964.06228137-.12591928.15565019-.09438565.21793156.03142601.15565019-.06295964.46695057-.15745291.65379467-.31469059.49814449-.22019731.96520152-.06285202 1.2765019h-.15734529c-.12591929 0-.22030494.09336882-.22030494.21793156v.90292015c0 .12445628.09438565.21793156.22030494.21793156h.37765022v.18684411c-.09449327.09326236-.15745291.21782509-.15745291.34238783s.03153363.21793156.09449327.31140685c-.06295964.09336882-.09449327.18673764-.09449327.28010646 0 .12456274.03153363.21793156.09449327.31140684-.06295964.09336883-.09449327.18673765-.09449327.31130038 0 .18684411.09449327.3424943.25183856.43586312-3.8081435 1.77464639-6.48344394 5.57295821-6.67221525 9.96288971-.44071748.1556502-.62948878.5915133-.62948878.8405323-.03142601.280213.12591928.5605324.37765022.74727.09438565.0622814.18887892.1245627.31479821.1556502.50346188 4.5143878 3.6507982 8.2505247 7.89965919 9.6826768.12591928.0310875.28326457.0933688.40918385.1245627.37765023.1244563.75530045.1867377 1.1330583.2801065.1259193.0311939.283157.0622814.4090762.0622814.5665292.0934753 1.1644843.1245627 1.7624395.1245627h.2518386.3462242c.1259193 0 .2832646-.0310874.4091838-.0310874.2832646-.031194.5664216-.0622814.8181525-.0934753.1574529-.0310875.2833722-.0622814.4407175-.0622814h.0629596c.1573453-.0310874.2832646-.0622814.4406099-.0933688.1259193-.0310875.2832646-.0622814.4091839-.1244563.1258116-.0311939.2831569-.0934753.4090762-.1245627.1573453-.0622814.2832646-.0934753.4406098-.1557567.1259193-.0621749.2832646-.0933688.4091839-.1556502 4.248861-1.7434524 7.238852-5.8842585 7.238852-10.6788593 0-6.3825095-5.224574-11.58177945-11.6765919-11.58177945z" fill="#000" mask="url(#a)"/><path d="m11.4909396 11.8927462c0-.0309445-.0309514-.0619949-.0309514-.0929394l-.0105999.0174858c.0115538.0225725.0264996.0452509.0415513.0754536" fill="#fff" mask="url(#a)"/><path d="m20.2411265 11.6129308c-.0315337.0622814 0 .1245627.031426.1868441.0315336.0622814.0943856.0933688.1573453.0933688.2832645.0310875.4091838.1868441.4091838.4670571-.031426.0310874-.031426.0310874-.031426.0622813-.0944933.3735818-.5035695.4046692-.5351031.4046692h-2.2975426c-.0629597 0-.4405023-.0310874-.4405023-.4046692-.0315336-.3736882.2516233-.4359696.283157-.467057.0943856-.0311939.1887713-.0933688.1887713-.2179316 0-.2179315.1574529-.3424943.1574529-.3424943.0943856-.0933688.2517309-.1556502.3776502-.1556502s.2203049.0310875.2203049.0310875c.0944933.0311939.220305 0 .2832646-.0933688.0944933-.1868441.2518386-.2802129.4720359-.3113004.1888789-.0311939.3777578.0310875.5351031.1244563.3146906.218038.188879.6227072.188879.6227072m-.8497938-1.1519392c-.2832645.031194-.5349955.1868441-.6924484.3735818-.062852 0-.1258117-.0310875-.1887713-.0310875-.2518386 0-.5036771.0933689-.6924484.280213 0 0-.2201973.1867376-.283157.4981444-.2518385.0933689-.5351031.3423879-.5036771.8406388.0315336.6226008.5980628.7783574.8812197.7783574h2.3290763c.2517309 0 .786834-.1557566.9126457-.7161825 0-.0621749.031426-.0933688.031426-.1556502.0629596-.2802129-.094278-.6537946-.5348879-.8094448.031426-.280213-.0629596-.6227072-.4091838-.8717263-.2518386-.1556501-.5351032-.2491254-.8497938-.1868441" fill="#000" mask="url(#a)"/></g></svg>