<svg height="24" viewBox="0 0 24 24" width="24" xmlns="http://www.w3.org/2000/svg" xmlns:xlink="http://www.w3.org/1999/xlink"><mask id="a" fill="#fff"><path d="m.15891204.03721838h.0887555v1.77387353h-.0887555z" fill="none"/></mask><mask id="b" fill="#fff"><path d="m0 .05215267h.28028792v.88240314h-.28028792z" fill="none"/></mask><mask id="c" fill="#fff"><path d="m.08519156.09890766h6.93658681v.6478068h-6.93658681z" fill="none"/></mask><mask id="d" fill="#fff"><path d="m.15891204.00948327h.0887555v.75439495h-.0887555z" fill="none"/></mask><mask id="e" fill="#fff"><path d="m0 23.1214798h23.0422825v-23.1214798h-23.0422825z" fill="none"/></mask><g fill="none" fill-rule="evenodd" transform=""><path d="m0 13.6727273v-6.56363639h.10855263l1.95394737-3.10909091 17.875.34545455 1.9411765 2.76363636h.1213235v6.56363639c0 5.1513105-4.9248678 9.3272727-11 9.3272727-6.07513225 0-11-4.1759622-11-9.3272727z" fill="#fff" fill-rule="nonzero"/><path d="m22.1447396 15.9701208h.0354057c.1567113-.2689239.2992304-.5431815.4275573-.8221327v-.0809651c-.1369916.3067929-.2917608.6079322-.462963.9030978" fill="#916af9"/><path d="m.17657901.92004822c0 .12630141-.0070107.25185612-.01766697.37719747v.51384622c.05860948-.29281874.08861529-.58851767.08861529-.8869901 0-.29847244-.03000581-.59417136-.08861529-.88688343v.50563236c.01065627.12534136.01766697.25089606.01766697.37719748" fill="#916af9" mask="url(#a)" transform="translate(22.93578 10.640681)"/><path d="m11.5076665.61336192c-2.89564221 0-5.53070846 1.14076634-7.48428475 2.99805854h14.96867565c-1.9535763-1.8572922-4.5887487-2.99805854-7.4843909-2.99805854" fill="#5cd8ff"/><path d="m19.2679239 20.0896057c1.1051648-1.0018774 2.014526-2.2175286 2.6634174-3.5820959h-.02421c-.6439008 1.3608338-1.5445548 2.5760582-2.6392074 3.5820959" fill="#916af9"/><g fill="#000"><path d="m15.5204723 22.3564175v.0394692c.7432892-.2788445 1.4503695-.6326805 2.1122154-1.0524407h-.0298377c-.6534574.4048259-1.3503441.745541-2.0823777 1.0129715"/><path d="m19.2644941 20.0979715c.0030847-.0027957.005889-.0055914.0089737-.0083871-.0030847.0027957-.005889.0053118-.0089737.0081075z"/><path d="m4.28817321 20.5690216c.10469759.0910167.21066938.1805487.31844631.2676826h.22893306c-.18677795-.1484588-.36941471-.3028559-.54737937-.4629629z"/><path d="m.54404519 14.4187788v.655722c.09683996.3042328.2058911.6029186.32651631.8956306h.18964492c-.20705912-.5002987-.38045786-1.0181985-.51616123-1.5513526"/><path d="m1.29884472 16.5074991h-.19070677c.645175 1.3631806 1.54784659 2.5804319 2.64515376 3.5875363v-.1995861c-1.01108563-.9633683-1.84675501-2.1103217-2.45444699-3.3879502"/><path d="m-.00014021.49335424c0 .14784946.00981498.29473887.02439724.44120157v-.88240314c-.01458226.14646271-.02439724.29345878-.02439724.44120157" mask="url(#b)" transform="translate(0 11.067375)"/><path d="m5.62729358 21.3434886h-.24464832c.66757985.4233871 1.38103126.77989 2.13154094 1.0596945v-.120861c-.66078406-.2552697-1.29183656-.5703832-1.88689262-.9388335"/><path d="m11.615093.0849441c3.2376614 0 6.1604868 1.3530466 8.2397851 3.52651903h.0005309c-2.0985176-2.22296893-5.0647723-3.61143113-8.3477744-3.61143113-3.283002 0-6.2490443 1.3884622-8.34756197 3.61143113h.2152353c2.07929834-2.17347243 5.00222987-3.52651903 8.23978507-3.52651903"/><path d="m3.65128058.6698242c-1.24543408 0-2.44393476-.20086619-3.56608902-.57091654v.1139273c1.09210414.3464755 2.25407747.53390083 3.45863065.53390083 1.2117737 0 2.38011807-.18977214 3.47795616-.5400879v-.04469619c-1.06545192.33004779-2.19726894.5078725-3.37049779.5078725" mask="url(#c)" transform="translate(7.963812 22.374765)"/><path d="m18.4142328 21.01087c.1499677-.1470543.2974409-.2981244.4432999-.4516805v-.0112824c-.1520221.1579543-.3062452.3122753-.462963.4629629z"/><path d="m1.53464789 15.9701208c-.57955317-1.3178444-.90755606-2.7712707-.92263421-4.2986218h-.06795787v2.7472691c.13570336.5331542.30910211 1.051054.51616123 1.5513527z"/><path d="m4.28817321 19.7532322v.6205197c.17796466.1495563.36060142.2937788.54737937.4324544h.84299609c-.49163268-.3139401-.95629459-.6663894-1.39037546-1.0529741"/><path d="m11.5076665.61336192c2.8956422 0 5.5308146 1.14076634 7.4843909 2.99805854h.8627464c-2.0792984-2.17347243-5.0020175-3.52651903-8.2396789-3.52651903-3.23766143 0-6.16048678 1.3530466-8.23978511 3.52651903h.64804196c1.95357629-1.8572922 4.58864254-2.99805854 7.48428475-2.99805854"/><path d="m3.75331295 19.8954813v-.651455c-.78693086-.8015446-1.45228084-1.723737-1.96515036-2.7364952h-.48929664c.6075858 1.2775218 1.44336137 2.4245819 2.454447 3.3879502"/><path d="m22.4737725 11.671467h-.0702939c-.0151843 1.5274577-.3431872 2.9807774-.9227404 4.2986218h.6639696c.1217932-.2950589.2316938-.5963049.3290647-.9030978z"/><path d="m.17657901.38668075c0-.12630142-.0070107-.25185612-.01766697-.37719748v.75439495c.01065627-.12534135.01766697-.25089606.01766697-.37719747" mask="url(#d)" transform="translate(22.93578 11.174048)"/><path d="m21.9071738 16.5074991h-.6800034c-.5123386 1.0117981-1.1767329 1.9331371-1.9627081 2.7340417v.8510411c.001168-.00096.002336-.0019201.0035041-.0029868 1.0945463-1.0060378 1.9953066-2.2212622 2.6392074-3.582096"/><path d="m15.5204723 21.7389273v.6175328c.7320336-.2675371 1.4289203-.6082522 2.0823777-1.0129715h-1.2081635c-.2844673.1441159-.5760491.2763911-.8742142.3954387"/><path d="m17.3369011 20.8061636h1.0577005c.1132985-.0840587.2250042-.1701442.335011-.2582565v-.796851c-.4348241.3874381-.9002293.740634-1.3927115 1.0551075"/><path d="m6.62059336 21.3434886h-.99324669c.59494988.3684503 1.22600238.6835638 1.88678644.9388335v-.535501c-.30485474-.1210744-.60280751-.256123-.89353975-.4033325"/><path d="m11.5076665 22.5080965c-1.208482 0-2.37151716-.198946-3.45863065-.5654762v.5310207c1.12215426.3700503 2.32065495.5709165 3.56608905.5709165 1.1732288 0 2.3050458-.1778247 3.3704978-.5077658v-.6004651c-1.0927413.3706904-2.2623599.5717699-3.4779562.5717699"/><path d="m.54404519 6.83542413h.46190112c.08123089-.18155828.16681533-.36076975.25707187-.53731438h-.43482416l1.71328152-2.14936423h.14218059c.15343612-.18401178.31218145-.36332992.47644836-.53731439h-.74403245c-.01656473-.0016001-.03344802-.0016001-.05011893 0-.06328576.01322751-.11977574.04896314-.15874533.10069978l-2.13950476 2.68667861c-.03790774.04768306-.05850747.10699352-.05850747.16790408v4.5528247c.04013761-1.0671616.22457951-2.09773424.53484964-3.0726233z"/><path d="m20.3371241 4.14874552h.1393136l1.7131754 2.14936423h-.4186842c.0907875.17654463.1777523.35554275.2596203.53731438h.4432127v1.14610002c.2806447.85861495.4637062 1.76171275.5348496 2.69638595v-4.1111965c0-.06091056-.0204935-.12011435-.0585074-.16790408l-2.1393986-2.68667861c-.0508622-.06368408-.1277396-.10080645-.2089705-.10069978l-.7463685-.00000023c.0033979.00362713.0066897.0073607.0101937.0109876.162568.17046424.3195082.34615549.4715639.52632702"/><path d="m20.3371241 4.14874552c-.1520557-.18017153-.3089959-.35586278-.4715639-.52632702.1605505.17067759.3158979.34626216.4660423.52632702z"/><path d="m18.9920893 3.61142046h-14.96878188c-.18199966.17302441-.35773445.35234255-.52741675.53731439h16.02372153c-.1697885-.18497184-.3456294-.36428998-.5275229-.53731439"/><path d="m22.1802384 6.83542413h.0351774c-.1362903-.18177163-.2810657-.36076975-.4322048-.53731438h-.0307581c.1500784.17654463.2925558.3557561.4277855.53731438"/><path d="m22.3258185 15.9701208c-.1317405.1814516-.2711533.360663-.4186128.537421h.0424788c.1480209-.176758.2879951-.3558628.4204841-.537421z"/><path d="m22.4737725 8.05446749c.3150484.99206349.5000212 2.04183731.5348497 3.12905361v-.5056324c-.0711434-.93467313-.2542049-1.83766426-.5348497-2.69638588z"/><path d="m22.4737725 15.066991v.0809651c.2806448-.8586149.4637063-1.761606.5348497-2.6962792v-.5137395c-.0348285 1.0872162-.2198013 2.1369901-.5348497 3.1290536"/><path d="m8.03219504 15.9700888h6.95336396v-4.2986218h-6.95336396zm-3.72727659-4.8359362h6.95325775v-4.29872847h-6.95325775zm7.48810735 0h6.9533639v-4.29872847h-6.9533639zm3.727489 4.8359362v-4.2986218h6.8829638c.0003185-.0369091.0013804-.0737114.0013804-.1107271 0-.1429425-.0037165-.2849249-.0090257-.4265873h-3.1144877v-4.29872847h2.0549821c-.0869648-.18198498-.1791327-.3609831-.2758664-.53731438h-19.10561081c-.0965214.17633128-.18879544.3553294-.27586646.53731438h2.09097859v4.29872847h-3.15037801c-.00541539.1416624-.00902566.2836448-.00902566.4265873 0 .0370157.00095566.073818.0013804.1107271h6.88540605v4.2986218h-5.96266565c.07995668.1817716.1642669.3610897.2534616.537421h1.96515036v2.7364951c.17244308.1756913.35093867.3455155.53484964.5092593v-3.2457544h6.95336395v4.2986218h-5.56298848c.30411145.1942524.61852277.3735706.94206592.5373144h.89353975v-.3307945h.53484965v.3307945h6.93658686v-.2774578h.5349558v.2774578h.8742142c.3235432-.1637438.6380607-.343062.9421721-.5373144h-5.5605462v-4.2986218h6.9532577v3.2435143c.1840172-.1637438.3624066-.3336747.5348497-.5094726v-2.7340417h1.9627081c.0894071-.1763313.1736111-.3556494.2535678-.537421z" mask="url(#e)"/><path d="m3.75331295 19.8954813v.1995861c.17339874.1591569.35189432.31266.53484964.4610429v-.1824117c-.18316769-.1539299-.36166327-.3133001-.53484964-.4782173" mask="url(#e)"/><path d="m18.7296339 20.5492856v.0063126c.1829553-.1489356.3614509-.3031139.5348496-.4628559v-.000107c-.1735049.1576021-.3518943.3098545-.5348496.4566503" mask="url(#e)"/><path d="m.54404519 14.4187788c-.23233095-.9124851-.35614169-1.8687063-.35614169-2.8539427 0-.985343.12381074-1.94156421.35614169-2.85404928v-.66382915c-.31027013.97478239-.49471203 2.00535503-.53484964 3.07262333v.8822965c.04013761 1.0672683.22457951 2.0978409.53484964 3.0726233z" mask="url(#e)"/><path d="m1.46881371 6.29809908h-.20053418c-.09202893.17654463-.17939679.3557561-.26242878.53731439h.19793265c.08357398-.18177164.1722426-.36076976.26503031-.53731439" mask="url(#e)"/><path d="m2.89315749 4.14874552c.15524125-.18411845.3158979-.36343659.4821823-.53731439h-.2152353c-.16426691.17398447-.32301224.35330261-.47644836.53731439z" mask="url(#e)"/><path d="m19.8831164 3.6404424c-.0089737-.00950538-.017667-.01929033-.0269211-.02907527h-.0014021c.0095345.00978494.0190691.01929032.0283232.02907527" mask="url(#e)"/><path d="m1.07561489 15.9701208h-.20502153c.08092955.1814516.16645085.360663.25679349.537421h.20616947c-.09080181-.176758-.17666749-.3558628-.25794143-.537421" mask="url(#e)"/><path d="m18.394591 20.8061636c-.2559039.1897721-.5199839.3690903-.7917092.5373144h.0297316c.2662037-.1687575.5252931-.3478623.7762063-.5373144z" mask="url(#e)"/><path d="m4.83558444 20.8061636h-.22893306c.250807.1894521.50989636.3685569.77599388.5373144h.24464832c-.27172528-.1682241-.53569912-.3475423-.79170914-.5373144" mask="url(#e)"/><path d="m4.28817321 20.3737413v-.6205198c-.18391098-.1637438-.36240656-.3334613-.53484965-.5091525v.651455c.17318638.1649172.35157578.3242874.53484965.4782173" mask="url(#e)"/><path d="m5.67852744 20.8061636h-.84288991c.25601002.1897721.51998386.3690903.79170914.5373144h.99324669c-.32354316-.1637438-.63795447-.343062-.94206592-.5373144" mask="url(#e)"/><path d="m.64273009 11.671467c-.00045556-.0369091-.00159446-.0737114-.00159446-.1107271 0-.1429425.00398615-.2849249.00979454-.4265873h-.0810897v-2.42330177c-.24919138.91248506-.38187326 1.86870627-.38187326 2.85394267s.13268188 1.9414576.38187326 2.8539426v-2.7472691z" mask="url(#e)"/><path d="m4.02333928 3.61142046h-.64804196c-.16628441.1738778-.32694105.35330262-.4821823.53731439h.60270132c.16978849-.18497184.34552328-.36428998.52752294-.53731439" mask="url(#e)"/><path d="m1.29884472 16.5074991h.48929663c-.0891947-.1763312-.17350492-.3556494-.2534616-.537421h-.47443085c.07517839.1815583.15460414.3607697.23859582.537421" mask="url(#e)"/><path d="m21.2271385 16.5074991h.6800034c.0836732-.1767579.1627804-.3558627.2376402-.537421h-.6639696c-.0799567.1817716-.1642669.3610898-.253674.537421" mask="url(#e)"/><path d="m18.7296339 19.7510454v.796851c.1829553-.146356.3613447-.2981524.5348496-.4552825v-.8510411c-.1724431.1757979-.3509386.3456221-.5348496.5094726" mask="url(#e)"/><path d="m16.394729 21.3434886h1.2081635c.2717252-.168224.5358053-.3475422.7917091-.5373143h-1.0577005c-.3041114.1942524-.6186289.3735705-.9421721.5373143" mask="url(#e)"/><path d="m1.19971118 6.83542413h.47931532c.08707102-.18198498.17923888-.3609831.27576028-.53731438h-.49545532c-.09089364.17654463-.17775229.35554275-.25962028.53731438" mask="url(#e)"/><path d="m19.519591 4.14874552h.8119903c-.1501444-.18006486-.3053857-.35564943-.4660423-.52632702-.0035041-.0036269-.0072205-.0072538-.0107246-.01098737h-.8627464c.1818935.17291773.3577345.35234255.527523.53731439" mask="url(#e)"/><path d="m21.7524635 6.29809908h-.6920022c.0967337.17633128.1889016.35532941.2758664.53731439h.6731015c-.0812309-.18155829-.1668154-.36076976-.2569657-.53731439" mask="url(#e)"/><path d="m22.3957909 11.1341419c.0054154.1416624.0090256.2836448.0090256.4265873 0 .0370157-.0010618.0738181-.0013804.1107271h.0702939v3.395524c.3150485-.9920635.5000213-2.0417307.5348497-3.1290536v-.754395c-.0348284-1.0872162-.2198012-2.13699005-.5348497-3.12905355v3.07966375z" mask="url(#e)"/><path d="m15.5204723 21.7389273v-.3954387h-.5348496v.5928913c.1804069-.0612306.3586901-.1271548.5348496-.1974526" mask="url(#e)"/><path d="m14.9856014 22.7276212v.0918019c.1801946-.1183762.358584-.2457569.5348497-.3819225v-.0810405c-.1762657.1324321-.3546551.2562988-.5348497.3711611" mask="url(#e)"/><path d="m14.9856014 21.9363373v.6003584c.1801946-.0557903.358584-.1158474.5348497-.1802782v-.6175329c-.1761596.0704045-.3544428.1362221-.5348497.1974527" mask="url(#e)"/><path d="m14.9856651 21.5289512h.5348497v-.462963h-.5348497z" mask="url(#e)"/><path d="m8.04900399 21.9425883v-.5990783h-.53484964v.4033325c.17594716.0698711.35444274.1349419.53484964.1957458" mask="url(#e)"/><path d="m7.51414373 22.2823541v.1831146c.17626572.0998072.35454893.1931439.53484964.2798483v-.1729236c-.18030071-.0901014-.35869011-.1868351-.53484964-.2900393" mask="url(#e)"/><path d="m7.51414373 21.7467998v.5356076c.17615953.0680577.35454893.1318484.53484964.1912656v-.5311273c-.18040689-.0606973-.35890248-.1258748-.53484964-.1957459" mask="url(#e)"/><path d="m7.51412249 21.4756144h.53484965v-.4629629h-.53484965z" mask="url(#e)"/></g></g></svg>