<svg height="25" viewBox="0 0 20 25" width="20" xmlns="http://www.w3.org/2000/svg" xmlns:xlink="http://www.w3.org/1999/xlink"><mask id="a" fill="#fff"><path d="m.01954839.08993542h1.24773272v6.01909595h-1.24773272z" fill="none"/></mask><mask id="b" fill="#fff"><path d="m0 24.9314576h19.9769585v-24.9314576h-19.9769585z" fill="none"/></mask><g fill="none" fill-rule="evenodd" transform=""><path d="m6.21212121 23.9329268v-1.8292683h-.75757576v-1.0670731h1.21212122v-.6097561h.3030303v-3.0487805h.3030303v-1.8292683l.30303031-5.79268294.3030303-.30487805v-1.82926829h1.21212121l1.21212121-6.09756098 1.5151515 6.09756098h.9090909l-.3030303 2.13414634.6060606.30487804v7.3170732h.3030303v2.7439024l.6060606.3048781v.6097561h1.2121213l-.3030304 1.0670731h-.6060606v1.3719513l-1.8181818.9146341-2.1212121.3048781-2.72727272-.3048781z" fill="#fff" fill-rule="nonzero"/><path d="m14.6179447 18.8848985c0-.7511992.6105069-1.3622693 1.3610138-1.3622693h.3670968c-.0273733-.1360702-.0411982-.2747233-.0411982-.4143912 0-1.0564576.7965899-1.9509225 1.8327189-2.0823801.2450692-.4924354.5971429-.9119003 1.0181567-1.2389299-.6159447-4.07130992-3.8318894-7.2999077-7.8945622-7.93127302l.3824885 1.94464945h.7378802c.1070046 0 .1936405.08662361.1936405.19363468v1.77758303l.4158526.23671586c.0015668.0009225.0027649.0023985.0043318.003321.012811.0077491.0249769.0166052.0356682.0271218.0002765.0002768.0006451.0004613.0009216.000738.0106913.0107011.0197235.0229705.027742.0359779.0021198.0035055.0039631.0071956.0058986.0108856.0054378.0102398.0099539.0208487.0134562.0321033.0011981.0039668.0026728.0078413.0036866.0119926.0036867.0148524.0061751.0301661.0061751.04631v1.1178967 4.329797h.12553c.1069124 0 .1935484.0867159.1935484.193727 0 .107011-.086636.1936346-.1935484.1936346h-.12553v1.316144h.12553c.1069124 0 .1935484.0867158.1935484.1937269v3.000369h.2120737c.1068203 0 .1934562.0867159.1934562.1937269v.525h1.0563134c.0652535 0 .1262673.0329336.1619355.0875462.0357604.0546125.0415668.1236162.015576.1835793l-.4055299.9315498c-.0307834.0706642-.1004609.1163284-.1774194.1163284h-.138894v.9644834c1.4214747-.777583 2.6223042-1.9099631 3.4839631-3.2770295h-1.8305069c-.7505069 0-1.3610138-.6110701-1.3610138-1.3622694" fill="#5cd8ff"/><path d="m5.44937327 22.559714c-.08313364 0-.15705069-.0531365-.1835023-.1321033l-.3124424-.9315498c-.01990783-.0591329-.01004608-.1241698.02626728-.1747233.03640553-.0506457.09493088-.0806273.15714286-.0806273h1.05631336v-.525c0-.107011.08672811-.1937269.19354839-.1937269h.19880184v-3.000369c0-.1070111.08663595-.1937269.19354839-.1937269h.12552996v-1.3160517h-.12552996c-.10691244 0-.19354839-.0867159-.19354839-.1937269 0-.1070111.08663595-.193727.19354839-.193727h.31170507v-4.329797-1.1178967c0-.0161439.00239631-.0314576.00617512-.04631.00101382-.0041513.00239631-.0080258.00368663-.0119926.00350231-.0112546.00792627-.0218635.01345622-.0321033.00193549-.00369.00368664-.0073801.00589862-.0108856.00792627-.0130074.01695853-.0252768.02764977-.0359779.00036866-.0002767.00073733-.0004612.00101382-.000738.01059908-.0105166.02276498-.0192804.03566821-.0271218.00147465-.0009225.00267281-.0023985.00433179-.003321l.41585254-.23671586v-1.77758303c0-.10701107.08672811-.19363468.19354839-.19363468h.85769585l.39870968-2.02730628c-1.92940093.15212178-3.69751152.88643912-5.12940093 2.02675277.64571429.18505535 1.12009217.77998155 1.12009217 1.48487085 0 .85212173-.69262673 1.54547973-1.5440553 1.54547973h-2.08c-.68635945 1.3106088-1.0753917 2.8008302-1.0753917 4.3804428 0 3.7417896 2.18009216 6.9833026 5.33557603 8.5193727v-1.170203z" fill="#5cd8ff"/><path d="m9.33100461 12.8482749c0-.4068266.33069124-.7379151.73723499-.7379151.4064516 0 .7371429.3310885.7371429.7379151v2.0940037h-1.47437789z" fill="#00b8fb"/><path d="m4.86078341 9.0078321c0-.63071955-.49870968-1.1454797-1.12193548-1.17380073-.76211982.67287822-1.41548387 1.46623616-1.92976959 2.35027673h1.87631337c.64811059 0 1.1753917-.52776751 1.1753917-1.176476" fill="#fff"/><path d="m5.229447 9.0078321c0-.7048893-.47437788-1.29972324-1.12-1.48477859-.06064516.04824723-.12055299.09723247-.17990783.14695572.63419355.1152214 1.11557604.66974169 1.11557604 1.33782287 0 .75166052-.60875576 1.3609779-1.3597235 1.3609779h-1.9808295c-.03373272.0610701-.06672811.1226014-.0991705.1845018h2.08c.85142857 0 1.54405529-.69335793 1.54405529-1.5454797" fill="#000"/><path d="m5.04511521 9.0078321c0-.66808118-.48138249-1.22260147-1.11557604-1.33782287-.0643318.05378228-.12792627.10857933-.19069124.16402214.6232258.02832103 1.12193548.54308118 1.12193548 1.17380073 0 .64870849-.52728111 1.176476-1.1753917 1.176476h-1.87631337c-.03557604.0610701-.07032258.1226015-.10451613.1845019h1.9808295c.75096774 0 1.3597235-.60931738 1.3597235-1.3609779" fill="#000"/><path d="m19.3952719 13.9429889c-.3254378.2904059-.5956682.6469557-.7846083 1.0565498l-.04553.0986163-.1082027.0080258c-.8966821.0667897-1.5990784.824631-1.5990784 1.725369 0 .1841329.0291245.3661439.0867281.5412362l.0795392.2421586h-.8608295c-.5471889 0-.9923502.445572-.9923502.9931735 0 .5476937.4451613.9932657.9923502.9932657h2.0517051c.7836866-1.3783211 1.2320737-2.9714945 1.2320737-4.66762 0-.3345941-.017788-.6650369-.0517972-.9907749" fill="#fff"/><g fill="#000"><path d="m14.9866083 18.6081458c0-.6504613.5268203-1.1777676 1.176682-1.1777676h.6061751c-.0619354-.1884686-.0959447-.3896679-.0959447-.598893 0-1.0093173.7802765-1.8356088 1.7697696-1.9092251.2157604-.4676199.5348387-.876845.9262673-1.201845-.0090323-.0703874-.018894-.1404059-.0294931-.2102398-.4210138.3270295-.7730875.7464944-1.0181567 1.2389299-1.036129.1314575-1.8327189 1.0259225-1.8327189 2.08238 0 .1396679.0138249.2783211.0411982.4143912h-.3670968c-.7505069 0-1.3610138.6110701-1.3610138 1.3622694 0 .7511992.6105069 1.3622693 1.3610138 1.3622693h1.8305069c.0385254-.0610701.0763134-.1226014.1134563-.1845018h-1.9439632c-.6498617 0-1.176682-.5273063-1.176682-1.1777675"/><path d="m15.1709401 18.6081458c0-.5476938.4451613-.9932657.9923502-.9932657h.8608295l-.0795392-.2421587c-.0576036-.175-.0867281-.3571033-.0867281-.5412362 0-.9006457.7023963-1.658487 1.5990784-1.7252767l.1082027-.0080258.04553-.0986163c.1889401-.4096863.4591705-.7661439.7846083-1.0565498-.0077419-.0744465-.0162212-.1487085-.0257143-.2226015-.3914286.325-.7105069.7342251-.9262673 1.201845-.9894931.0736163-1.7697696.8999078-1.7697696 1.9092251 0 .2092251.0340093.4104244.0959447.598893h-.6061751c-.6498617 0-1.176682.5273063-1.176682 1.1777676 0 .6504612.5268203 1.1777675 1.176682 1.1777675h1.9439632c.0365898-.0611624.0725345-.1226015.1077419-.1845019h-2.0517051c-.5471889 0-.9923502-.4455719-.9923502-.9932656"/><path d="m8.15354839 24.663238c-.65889401-.1233395-1.29474655-.3119926-1.9008295-.5588561v.1010148c.59760369.2421587 1.22377881.4278598 1.87207374.5508302.00884792-.030904.01852534-.0619003.02875576-.0929889"/><path d="m12.2269401 24.6781919c.6590783-.1516605 1.2932719-.3688192 1.8957604-.644096v-.1021217c-.6113364.2810885-1.2562212.501845-1.9269125.6543358.0110599.0308118.0215668.0614391.0311521.0918819"/><path d="m.06990783 14.9057657c0-1.5613469.360553-3.0381919 1.00211982-4.3524908h-.06073733c-.6472811 1.3236162-1.01124424 2.8102399-1.01124424 4.3805351 0 4.0420664 2.40903226 7.5314575 5.86552996 9.1056273v-.1021218c-3.41963134-1.5665129-5.79566821-5.0211255-5.79566821-9.0315498"/><path d="m19.7649217 13.2257472c.02-.0114391.0397235-.0233395.0598156-.0344096-.7491244-4.2489852-4.1882949-7.58035052-8.4876497-8.1638376l.0084792.04345018c4.2843318.58680812 7.696682 3.91153137 8.4193549 8.15479702"/><path d="m14.5098525 23.7442435v.1027676c1.7101383-.8726015 3.1369586-2.2241698 4.103871-3.8766605h-.0933641c-.9530875 1.6050738-2.3448847 2.9185424-4.0105069 3.7738929"/><path d="m9.33632258 4.99991697.0083871-.04252767c-2.28912443.14649446-4.37069125 1.06808118-5.98543779 2.50498155h.06682028c1.59640553-1.41116236 3.65004608-2.31559041 5.91023041-2.46245388"/><path d="m9.9884977 24.8307701c-.49059908 0-.97262673-.0356745-1.44414747-.1033926-.01124424.0307727-.02294931.0618177-.03262673.0920457.48202765.0707137.97511521.1077499 1.4767742.1077499.6341014 0 1.2542857-.0591853 1.8560369-.1709292-.0105991-.0303188-.0202765-.0604561-.0322581-.0908657-.5912442.1082037-1.2006452.1653919-1.8237788.1653919"/><path d="m9.9884977 24.8334594c.6231336 0 1.2325346-.0581181 1.8237788-.1680812-.0529032-.1370848-.1224885-.2741697-.2065438-.403321-.5257143.0909594-1.0659908.1390221-1.617235.1390221-.42414747 0-.84165899-.0285978-1.25105991-.0830258-.07990784.1344096-.14396314.2736162-.19308756.4103321.47152074.0688192.95354839.1050738 1.44414747.1050738"/><path d="m19.3401014 13.5101568c.1348387-.1047048.2767742-.1997232.4247926-.2844096-.7225806-4.24326565-4.135023-7.5679889-8.4192627-8.15479702l.0999079.50793358c4.0626728.63145757 7.2785253 3.86005535 7.8945622 7.93127304"/><path d="m4.10941014 7.52303506c1.43179723-1.14031366 3.2-1.874631 5.12930875-2.02684502l.09760369-.49630997c-2.2602765.14695572-4.31382488 1.05129152-5.91023041 2.46245388h.25926267c.14718894 0 .28912442.02204797.4240553.06070111"/><path d="m.52997235 14.9337823c0-1.5796126.38903226-3.069834 1.07539171-4.3804428h-.53336406c-.64156682 1.3142066-1.00211982 2.7910516-1.00211982 4.3523985 0 4.0104244 2.37603687 7.4650369 5.79576037 9.0315498v-.4841328c-3.15557603-1.5360701-5.3356682-4.777583-5.3356682-8.5193727"/><path d="m14.5098525 23.2473985v.4968635c1.6656222-.8553506 3.0574194-2.1689114 4.0105069-3.773893h-.5265437c-.861659 1.3671587-2.0624885 2.4994465-3.4839632 3.2770295"/><path d="m8.32582488 24.2544557c-.72267281-.1287823-1.41686635-.3403136-2.07308755-.623893v.473893c.60608295.2467712 1.24184332.4354244 1.90082949.5587639.0446083-.1357011.10193548-.2737085.17225806-.4087639"/><path d="m12.0118249 24.1822048c.075576.1339483.136129.270572.1839631.4041513.6706913-.152583 1.3155761-.3733395 1.9269125-.6543358v-.4845018c-.6640553.3243542-1.3715208.5727859-2.1108756.7346863"/><path d="m3.03069124 7.83136531h-.06470046c-.69723502.69068266-1.29382488 1.48302583-1.76506912 2.35295199h.06046083c.47142857-.87121767 1.06967742-1.66346859 1.76930875-2.35295199"/><path d="m3.73881106 7.83406827c-.01788018-.00083026-.03539171-.00267528-.05345622-.00267528h-.65465438c-.69963134.68939114-1.29788018 1.48173432-1.76930875 2.35295201h.54764976c.51437788-.88404057 1.16764977-1.67749076 1.92976959-2.35027673"/><path d="m1.16262857 10.3688007h-.05994746c-.03120553.060093-.06149862.1207307-.09133549.1815499h.06003871c.02992811-.0608192.06012996-.1214569.09124424-.1815499"/><path d="m3.22242212 7.64395756c.06615207-.06145461.13312535-.12200147.20101106-.18154981h-.06615207c-.0674295.05963911-.13412904.1200952-.19982489.18154981z"/><path d="m1.704553 10.3688007h-.54036867c-.03142857.060093-.06202765.1207307-.0921659.1815499h.53336406c.03244239-.06091.06543779-.1214569.09917051-.1815499"/><path d="m3.92949309 7.66665129c.05935484-.04892767.11935484-.09712915.17990783-.14460443-.13493087-.03803468-.27686636-.05963911-.42396313-.05963911h-.25926267c-.06857143.05954834-.1362212.1200952-.20313365.18154981h.46239632c.08341014 0 .16479262.00853285.2440553.02269373"/><path d="m1.19999355 10.1842989c-.03275668.060093-.06487466.1207306-.09644516.1815498h.06003871c.03147926-.0608192.06350599-.1214568.09626267-.1815498z"/><path d="m3.03004424 7.82841328c.06268479-.06136383.12619078-.12181992.19042673-.18154981h-.0649659c-.06396221.05972989-.12719447.12018598-.18951429.18154981z"/><path d="m3.68539171 7.82841328c.01797235 0 .03557603.00190628.05345622.00263248.06276497-.05455572.12635944-.10847602.19059907-.16148856-.07926267-.01416089-.16055299-.02269373-.24405529-.02269373h-.46230415c-.06497696.05972989-.12912443.12018598-.1924424.18154981z"/><path d="m1.80904147 10.1842989h-.54764976c-.03308756.060093-.06543779.1207306-.09723503.1815498h.54036867c.03419354-.06091.06894009-.1214568.10451612-.1815498"/><path d="m.01954839 6.10903137h.09004608c.73843318-1.3941882 1.15769585-2.98274908 1.15769585-4.66761993 0-.45830258-.03170507-.90931734-.0916129-1.35147602-.02036866.01226938-.04110599.02361624-.06119816.03625462.05456221.42140221.08285715.85101476.08285715 1.28726937 0 1.69861624-.42663595 3.29750922-1.17778802 4.69557196" mask="url(#a)" transform="translate(18.709677 13.492343)"/><path d="m19.447023 14.9337823c0 1.6961254-.4482949 3.2892066-1.2319815 4.6676199h.5141935c.7511521-1.398155 1.177788-2.9969557 1.177788-4.6956642 0-.4362546-.0282949-.8657749-.0828571-1.2871771-.1516129.0957564-.2946544.2047048-.4289401.3244465.0341014.325738.0517972.6561808.0517972.9907749"/><path d="m18.6261843 19.7858764c-.0346728.0609099-.0699843.121366-.1058433.1815498h.0925217c.0353115-.060093.0699843-.1206399.1041097-.1815498z"/><path d="m19.7988124 13.41459c.0219-.0118915.0433-.0244184.0654-.0358561-.0108-.0626346-.0222-.1250878-.0343-.1873594-.0219.0108023-.0433.022603-.065.0338591.0118.062907.0235.1259956.0339.1893564"/><path d="m17.993788 19.9674262h.5265438c.0362212-.0601838.0718894-.1206399.1069124-.1815498h-.52c-.0371428.0610007-.0749308.1214568-.1134562.1815498"/><path d="m19.3692359 13.7124638c.1326692-.1094745.273824-.2087823.4223696-.2972878-.0095806-.0634516-.0201649-.1264494-.0309318-.1894472-.1465382.0833313-.2870543.1768295-.4205447.279859.0104019.0688074.020165.1377056.0291069.206876"/><path d="m18.7282065 19.6013745c-.0329392.06091-.0666996.1213661-.1009162.1815499h.090788c.0336692-.0601838.0667908-.1206399.0992738-.1815499z"/><path d="m19.826529 13.6147904c.0218-.0124362.0443-.0236922.0664-.0356745-.0099-.0659934-.0201-.1318052-.0313-.1973447-.0222.0115284-.0436.0239646-.0655.0358561.0109.0655395.021.1311697.0304.1971631"/><path d="m19.3950147 13.9429889c.1328517-.1197417.274554-.22869.4245595-.3244465-.0084857-.0669741-.0177926-.1337638-.027647-.2002767-.1485456.0899446-.2897005.1908671-.4223696.3021218.0093982.0738929.0177926.1481549.0254571.2226014"/><path d="m18.215023 19.6013745c-.0352073.06091-.071152.1214569-.1077419.1815499h.52c.0345622-.0601838.0686636-.1206399.1019355-.1815499z"/><path d="m14.1227373 22.2829613v1.1645756c.1293844-.0638376.2572175-.1305351.3832258-.2000923v-.9644833z"/><path d="m5.86560369 22.2829613v1.1702029c.12609954.0619926.25402396.1210332.3832258.1773985v-1.3476014z"/><path d="m6.24884793 24.1017443c-.1291106-.0522864-.25694378-.1069329-.38322581-.1644842v.1004879c.12628203.0571882.25411521.1113808.38322581.163304z"/><path d="m14.1227373 23.9289797v.1004878c.1292019-.0587313.2569438-.1200952.3832258-.1840915v-.1011232c-.1260995.0643594-.2540239.1257232-.3832258.1847269"/><path d="m14.1227373 23.4474908v.4845018c.1292019-.0599631.2571263-.1223247.3832258-.1877306v-.4968635c-.1260083.0696495-.2538414.1362546-.3832258.2000923"/><path d="m5.86560369 23.4531642v.4841328c.12628202.0584871.2541152.1140222.3832258.1671587v-.473893c-.12920184-.0563653-.25712626-.1154059-.3832258-.1773985"/><path d="m6.05916129 21.895572h-.28626728l-.18248848-.5441882h.98064516c-.10682028 0-.19354839-.0867159-.19354839-.193727v-.1937269h-1.05631336c-.06230415 0-.12073733.0300738-.15714286.0806273-.03631336.0505535-.04617511.1155904-.02635944.1747232l.31253456.9316421c.02645161.0788745.1002765.1320111.1835023.1320111h.2318894v-.1936347c0-.1071033.08663595-.1937269.19354839-.1937269"/><path d="m13.8043871 21.3513469h.9543779l-.2368664.5441882h-.2056221c.1069124 0 .1935484.0867158.1935484.1937269v.1937269h.138894c.0769585 0 .1466359-.0456642.1774193-.1163284l.40553-.931642c.026083-.0598709.0201843-.1288746-.015576-.1834871-.0356682-.0547048-.0965899-.0875462-.1618434-.0875462h-1.0563133v.1936347c0 .1071033-.0867281.193727-.1935484.193727"/><path d="m14.3162488 21.895572h-8.25705064c-.10691245 0-.19354839.0852376-.19354839.1906273v.1905365h.38709677 7.86995396.3871889v-.1905365c0-.1053897-.0867281-.1906273-.1936406-.1906273"/><path d="m13.3988203 20.6326199h.2119815v.3313653h.3870968v-.5250922c0-.1070111-.0866359-.1936347-.1935484-.1936347h-.2119815v.1936347c0 .1071033-.0867281.1937269-.1935484.1937269"/><path d="m6.76462673 20.6326199h.19870968c-.10682028 0-.19354839-.0866236-.19354839-.1937269v-.1936347h-.19870968c-.10691244 0-.19354839.0866236-.19354839.1936347v.5250922h.38709678z"/><path d="m6.76462673 20.9639668h-.38709678v.1906273c0 .1052989.08663595.1905365.19354839.1905365h7.23327186c.1069125 0 .1935484-.0852376.1935484-.1905365v-.1906273h-.3870968z"/><path d="m7.15692166 17.438524h.12552995c-.10682027 0-.19354838-.0866236-.19354838-.193727v-.1936346h-.12552996c-.10691244 0-.19354839.0866236-.19354839.1936346v3.0004613h.38709678z"/><path d="m13.079659 17.438524h.1255299v2.8067343h.3870968v-3.0004613c0-.107011-.0866359-.1936346-.1934562-.1936346h-.12553v.1936346c0 .1071034-.0867281.193727-.1936405.193727"/><path d="m10.1811152 16.4389852c-.53096773 0-1.03179723.2219558-1.38847926.6121772h-1.31668202v.1936346c0 .1071034-.08663595.193727-.19345622.193727h1.59815668c.05760368 0 .1121659-.0256458.14903226-.0700185.28543778-.3444649.70506912-.5421586 1.15142856-.5421586.4462673 0 .8659908.1976937 1.1513364.5421586.0368664.0443727.0914286.0700185.1490323.0700185h1.5981567c-.1068203 0-.1934563-.0866236-.1934563-.193727v-.1936346h-1.316682c-.356682-.3902214-.8575115-.6121772-1.3883871-.6121772"/><path d="m7.15692166 20.2452399h-.38709678v.1906273c0 .1052989.08663595.1905365.19354839.1905365h6.43548383c.1068203 0 .1934563-.0852376.1934563-.1905365v-.1906273h-.3870968z"/><path d="m10.1876866 19.4327768c-.47115204 0-.85456218-.3837639-.85456218-.8554429 0-.4716789.38341014-.8554428.85456218-.8554428.4712443 0 .8546544.3837639.8546544.8554428 0 .471679-.3834101.8554429-.8546544.8554429m0-2.0640222c-.66580642 0-1.2074654.5420664-1.2074654 1.2085793 0 .6663285.54165898 1.2085794 1.2074654 1.2085794.6658987 0 1.2075576-.5422509 1.2075576-1.2085794 0-.6665129-.5416589-1.2085793-1.2075576-1.2085793"/><path d="m12.8861475 15.7350369v1.3161439h.3832258v-1.3161439h-.1916129z"/><path d="m12.8861475 17.2417343c0 .1052989.0857696.1906273.1916129.1906273s.1916129-.0853284.1916129-.1906273v-.1906273h-.3832258z"/><path d="m7.47211982 15.7350369h-.00729954-.37592627v1.3161439h.38322581z"/><path d="m7.28054378 17.4323262c.10575207 0 .1916129-.0852376.1916129-.1906273v-.1905365h-.3832258v.1905365c0 .1053897.08576958.1906273.1916129.1906273"/><path d="m13.2732627 15.7288391h.1242746c.1057521 0 .1916129-.0852376.1916129-.1906273 0-.1052989-.0858608-.1905365-.1916129-.1905365h-.1242746v.1905365z"/><path d="m7.27505069 15.3483646v-.0007262h-.31170507c-.10691244 0-.19354838.0853284-.19354838.1906273s.08663594.1905365.19354838.1905365h.12552996v-.1905365c0-.102848.08276497-.1859978.18617511-.1899011"/><path d="m13.079659 15.7319373h.1917041v-.1906273c0 .1053896-.0858608.1906273-.1917041.1906273"/><path d="m7.27318894 15.538259v-.1899011c-.10237604.0039941-.18431336.0870532-.18431336.1899011v.1906273h.37592626c-.10584331 0-.1916129-.0853284-.1916129-.1906273"/><path d="m9.53694009 12.5349908c0-.4068266.33069125-.7379152.73723501-.7379152.4064516 0 .7371429.3310886.7371429.7379152v2.0940037h-1.47437791zm-.19354838 2.4813653h1.86156679c.1068203 0 .1934562-.0866236.1934562-.1936347v-2.2877306c0-.620572-.5042396-1.1252768-1.1242396-1.1252768-.61999998 0-1.12433178.5047048-1.12433178 1.1252768v2.2877306c0 .1070111.08663594.1936347.19354839.1936347z"/><path d="m8.10488479 15.3476937h.38322581v-4.1361623h-.38322581z" mask="url(#b)"/><path d="m12.0682949 15.3476937h.3832258v-4.1361623h-.3832258z" mask="url(#b)"/><path d="m7.28490323 9.84430185c.0039-.0121.0087-.0237.0146-.0348-.0059.0111-.0107.0226-.0146.0348" mask="url(#b)"/><path d="m7.33296774 9.76419705c.0114-.0113.0246-.0209.0387-.0294-.014.0085-.0272.018-.0387.0294" mask="url(#b)"/><path d="m7.30425806 9.80170295c.0086-.014.0184-.0273.0301-.039-.0116.0116-.0214.0249-.0301.039" mask="url(#b)"/><path d="m7.27505069 9.90377934c0-.0172.0027-.0339.0067-.0502-.004.0162-.0067.0328-.0067.0502" mask="url(#b)"/><path d="m8.49197235 11.0147048v.1906273h3.57631335v-.1906273c0-.1052989.086636-.1906273.1934562-.1906273h-3.9634101c.10700461 0 .19364055.0853284.19364055.1906273" mask="url(#b)"/><path d="m13.1796498 9.73480627c.0141.0085.0272.0181.0388.0294-.0117-.0114-.0248-.021-.0388-.0294" mask="url(#b)"/><path d="m12.5659078 10.0910937h.3170738v-.0797003l-.1292019-.07316462c-.0177014.08723472-.0949852.15286492-.1878719.15286492" mask="url(#b)"/><path d="m13.2670507 9.85358856c.004.0163.0067.033.0067.0502 0-.0174-.0027-.034-.0067-.0502" mask="url(#b)"/><path d="m13.2162857 9.7626845c.0117.0117.0215.025.0301.039-.0087-.0141-.0185-.0274-.0301-.039" mask="url(#b)"/><path d="m13.2499447 9.80952952c.0059.0111.0107.0227.0146.0348-.0039-.0122-.0087-.0237-.0146-.0348" mask="url(#b)"/><path d="m7.7914129 9.93826568-.12929308.07316462v.0797003h.31707373c-.09279539 0-.17017051-.065721-.18778065-.15286492" mask="url(#b)"/><path d="m8.49197235 11.2052967v-.1906273c0-.1052989-.08663594-.1905366-.19364055-.1905366h-.6362212v.3811639h.44276498z" mask="url(#b)"/><path d="m12.0682581 11.0147048v.1906273h.3870967.4307834v-.3812546h-.6243317c-.1069125 0-.1935484.0853284-.1935484.1906273" mask="url(#b)"/><path d="m8.17596313 7.91091328h.82331798c-.05788019 0-.11281106-.02583025-.14949309-.0706642-.03686636-.0447417-.0516129-.10359779-.04046083-.16042436l.03069124-.15627306h-.85769585c-.10682028 0-.19345622.08662362-.19345622.19363469v1.77758302l.38709677-.22038745z" mask="url(#b)"/><path d="m11.8182304 7.84028598c-.036682.0447417-.0916129.0706642-.1494931.0706642h.7036867v1.36346864l.3870967.22038745v-1.77758302c0-.10701107-.0867281-.19372694-.1936405-.19372694h-.7379724l.0306913.15636531c.0112442.05682657-.0035945.11568266-.0403687.16042436" mask="url(#b)"/><path d="m8.2004424 9.70619926-.40774194.22838967c.01788019.08714387.0959447.15277417.18967742.15277417h4.58350232c.0938249 0 .1718894-.0656303.1897696-.15277417l-.407742-.22838967z" mask="url(#b)"/><path d="m7.33198157 9.76274649c.0003-.0003.0007-.0005.0011-.0008-.0004.0003-.0008.0005-.0011.0008" mask="url(#b)"/><path d="m7.29835945 9.81044391c.0021-.004.0041-.008.0064-.0118-.0024.0038-.0043.0078-.0064.0118" mask="url(#b)"/><path d="m7.78464516 9.70281624v-.20805609l-.41178525.23292841c-.00155115.00090775-.00273733.00236015-.00428848.0032679.02901567-.01751956.06268479-.02814022.099-.02814022z" mask="url(#b)"/><path d="m10.1785069 8.13451107-2.00258063 1.1398524v.43182657h.02451613l2.0737327-1.18044281 2.0737327 1.18044281h.0245162v-.43182657l-2.0025807-1.1398524c-.0592627-.03385609-.1319815-.03385609-.1913364 0" mask="url(#b)"/><path d="m13.2153825 9.76191882c.0003.0003.0007.0005.001.0008-.0003-.0003-.0007-.0005-.001-.0008" mask="url(#b)"/><path d="m13.0764571 9.70281624c.0364065 0 .0700756.01062066.099.02814022-.0015511-.00090775-.002646-.00236015-.0042884-.0032679l-.411694-.23292841v.20805609z" mask="url(#b)"/><path d="m13.2440092 9.79868081c.0023.0038.0043.0078.0064.0118-.0021-.004-.0041-.008-.0064-.0118" mask="url(#b)"/><path d="m7.28121659 9.85459594c.0011-.0044.0026-.0087.004-.013-.0014.0044-.0029.0086-.004.013" mask="url(#b)"/><path d="m13.2633548 9.84160517c.0014.0043.0029.0085.004.013-.0011-.0045-.0026-.0087-.004-.013" mask="url(#b)"/><path d="m8.49197235 15.5382472c0 .1052989-.08663594.1906273-.19364055.1906273h3.9634101c-.1068202 0-.1934562-.0853284-.1934562-.1906273v-.1906273h-3.57631335z" mask="url(#b)"/><path d="m7.65824885 15.3476476v-4.1361624h-.19161291c-.10584331 0-.1916129-.0866236-.1916129-.1937269v4.3298893h.00739078z" mask="url(#b)"/><path d="m8.49197235 15.5382472v-.1906273h-.38709677-.44276498-.37963134c.10682028 0 .19354839.0853284.19354839.1906273v.1906273h.82230415c.10700461 0 .19364055-.0853284.19364055-.1906273" mask="url(#b)"/><path d="m7.28311382 15.3476476h-.0081v.0008c.0028-.0001.0053-.0008.0081-.0008" mask="url(#b)"/><path d="m7.28240461 15.3476476c-.00255484 0-.00483595.0006354-.00739079.0007262v.1899011c0 .1052989.08576959.1905365.19170415.1905365h.00729954v-.1905365c0-.1053897-.08586083-.1906273-.1916129-.1906273" mask="url(#b)"/><path d="m13.0777235 11.2114945h-.1916129v4.1361623h.1916129.1917041v-4.3298893c0 .1071033-.0858608.193727-.1917041.193727" mask="url(#b)"/><path d="m12.0682581 15.3476476v.1906273c0 .1052989.0866359.1905365.1935484.1905365h.6243317v-.1905365c0-.1053897.086636-.1906273.1935484-.1906273h-.1935484-.4307834z" mask="url(#b)"/><path d="m13.2713263 15.5382472v-.1906273h-.1917042c.1059346 0 .1917042.0853284.1917042.1906273" mask="url(#b)"/><path d="m12.8861475 15.5382472v.1906273h.1916129c.1058433 0 .1916129-.0853284.1916129-.1906273s-.0857696-.1906273-.1916129-.1906273-.1916129.0853284-.1916129.1906273" mask="url(#b)"/><path d="m12.7595023 9.70619926v.19372694c0 .01309963-.0013825.02592251-.003871.03837638l.1305069.07426202v.0809963.730535h.1935484c.1069125 0 .1935484.0867159.1935484.193727v-1.1178967c0-.01586716-.0024885-.03136531-.0061751-.04630996-.0010138-.0041513-.0024885-.00802583-.0036866-.01199262-.0035023-.01116237-.0080185-.02186347-.0134562-.03210332-.0019355-.00359779-.0037789-.00738008-.0058987-.01088561-.0079262-.01291513-.0169585-.02518451-.0277419-.03597786-.0002765-.00027676-.0006452-.00046126-.0009217-.00073801-.010599-.01042436-.0227649-.01928044-.0356682-.02712177-.0293087-.01780443-.0632258-.02859779-.1-.02859779z" mask="url(#b)"/><path d="m7.46860829 10.8241144h.19354839v-.7305351-.0809963l.13059908-.07435422c-.00258064-.01236162-.00387097-.0251845-.00387097-.03837638v-.19363469h-.3202765c-.03668202 0-.07078341.01079336-.1.02859779-.01299539.00784133-.02506912.01669742-.0356682.02712177-.00036866.00027675-.00064516.00046125-.00092166.00073801-.01087557.01079335-.01981567.02306273-.02774193.03597786-.00221198.00350553-.00396314.00719557-.00589862.01088561-.00543779.01023985-.00995392.02094095-.01345622.03210332-.00129032.00396679-.00267281.00784132-.00368664.01190037-.00368663.0150369-.00617511.03053505-.00617511.04630996v1.1179889c0-.1071033.08663594-.1937269.19354838-.1937269" mask="url(#b)"/><path d="m7.46667281 11.2052967h.1916129v-.3811639h-.1916129c-.10584332 0-.1916129.0852377-.1916129.1905366 0 .1053896.08576958.1906273.1916129.1906273" mask="url(#b)"/><path d="m13.0777235 10.8241144h-.1916129v.3811638h.1916129c.1058433 0 .1917041-.0852376.1917041-.1905365 0-.1053897-.0858608-.1906273-.1917041-.1906273" mask="url(#b)"/><path d="m12.3723871 9.69929004h.3832258v-.20805609l-.3832258-.21686126z" mask="url(#b)"/><path d="m8.17209217 9.69929004v-.42491735l-.38322581.21686126v.20805609z" mask="url(#b)"/><path d="m8.17209217 9.70619926h-.38322581v.19062731c0 .01289004.00127742.02550775.00383226.03776236l.40366451-.22838967z" mask="url(#b)"/><path d="m12.7515631 9.93455203c.0024636-.01216384.0038323-.02478155.0038323-.03776236v-.19062731h-.3832258-.024271z" mask="url(#b)"/><path d="m10.3339447 1.9327952.5995392 3.04824724c.1352995.01282287.2698617.02832103.4035944.04649446l-.7147465-3.6347786h-.2883871-.2882949l-.70092169 3.5646679c.13198157-.00848709.26470046-.01494465.39806452-.01826568z" mask="url(#b)"/><path d="m11.8279447 7.52353321-.3823963-1.94464945c-.1341014-.0208487-.2692166-.03837638-.4050691-.05350553l.3929032 1.99815498z" mask="url(#b)"/><path d="m9.23460829 7.52353321.40304148-2.0498155c-.13364055.0048893-.26672811.01208487-.39889401.02250923l-.39870968 2.02730627z" mask="url(#b)"/><path d="m10.9417594 5.02747934c.1341291.014.2673457.0312.3997411.051l-.0084858-.047c-.1323953-.0197-.2656119-.0365-.3995585-.0504z" mask="url(#b)"/><path d="m9.73052535 4.98476052.00821198-.0456c-.13203042.0036-.26342212.0106-.39408387.0198l-.00830323.0461c.130753-.0093.26205346-.0166.39417512-.0203" mask="url(#b)"/><path d="m11.4441513 5.57887454-.099638-.50793358c-.1333716-.01835793-.2675704-.03413284-.4026884-.04704797l.0983512.50147601c.1354857.01512915.270236.03265683.4039752.05350554" mask="url(#b)"/><path d="m9.63367005 5.47369926.09589769-.49243542c-.13212166.00332103-.26342212.01005535-.39426636.01863468l-.0965364.49630997c.13084424-.01042436.26260092-.01761993.39490507-.02250923" mask="url(#b)"/><path d="m9.23460829 7.52353321h-.39456221l-.03069124.15377269c-.01115208.05600812.00359447.11383174.04036866.15794834.0367742.04402583.09161291.06944281.14949309.06944281h2.66949311c.0578802 0 .112811-.02541698.1494931-.06944281.0368663-.0441166.0516129-.10194022.0404608-.15794834l-.0306912-.15377269h-.3946544z" mask="url(#b)"/><path d="m10.3320092.95884686c.0534691 0 .1022848.01743543.1424323.04649447h.0492719v-.81162362c0-.10701107-.0858609-.19372694-.1917042-.19372694-.1057521 0-.1916129.08671587-.1916129.19372694v.81162362h.0491807c.0402387-.02905904.0889631-.04649447.1424322-.04649447" mask="url(#b)"/><path d="m10.332506.95884686c-.0534691 0-.1021936.0189-.1424323.0504h.2848645c-.0401474-.0315-.0889631-.0504-.1424322-.0504" mask="url(#b)"/><path d="m10.1404332 1.05139188v-.04602288h-.40718896c-.10691244 0-.19364055.08523764-.19364055.19053654 0 .10529889.08672811.1906273.19364055.1906273h.31244236l.0446083-.22348782c.0070968-.04239188.024977-.08024502.0501383-.11165314" mask="url(#b)"/><path d="m10.5775853 1.16303579.0447004.22348783h.3124424c.1069125 0 .1936406-.08532842.1936406-.19062731s-.0867281-.19053653-.1936406-.19053653h-.4071889v.04602288c.0251613.03140811.0430414.06926125.0500461.11165313" mask="url(#b)"/><path d="m10.525612 1.05214022v.14451365c0 .1052989-.0857696.19062731-.1917042.19062731h.2855033l-.0442535-.22348782c-.0069346-.04239188-.0246359-.08024502-.0495456-.11165314" mask="url(#b)"/><path d="m10.1394857 1.19667232v-.14451365c-.0249097.03140812-.042611.06926126-.0496369.11165314l-.0441622.22348782h.285412c-.1058433 0-.1916129-.08532841-.1916129-.19062731" mask="url(#b)"/><path d="m10.1943332 1.0053321h-.0539v.0507c.0154-.0195.0337-.0363.0539-.0507" mask="url(#b)"/><path d="m10.5317788 1.056069v-.0507h-.054c.0202.0144.0386.0311.054.0507" mask="url(#b)"/><path d="m10.2796175 1.19592251h.001zm.2440784 0v-.14451365c-.0140517-.01779189-.0308406-.03304207-.0492719-.04611366h-.2847733c-.0184313.01307159-.035129.02832177-.0491807.04611366v.14451365c0 .10529889.0857696.19062731.1915217.19062731.1058433 0 .1917042-.08532842.1917042-.19062731z" mask="url(#b)"/><path d="m10.1879539 23.1133026h-.0927189c-.88617509 0-1.45714283.5406826-1.7694009 1.1411439.13612903.024262.27345622.0452952.4116129.0636531.02165899-.0363468.04304148-.0728782.06709678-.1082103.21990783-.323524.62230415-.7092251 1.29069122-.7092251h.0927189c.5914286 0 1.0576959.2392066 1.3859908.7109779.0113364.0163284.0210138.0336716.0317972.050369.1364056-.0236163.2717051-.050369.406083-.0797971-.0365899-.0648524-.0764977-.129059-.1202765-.1919741-.278341-.4000923-.7999078-.8769373-1.7035945-.8769373" mask="url(#b)"/><path d="m11.8441843 24.7549528c.127012-.0238738.253294-.0495631.3785724-.078248-.0094894-.0298649-.0198-.0600022-.0307493-.090321-.1256433.0284125-.2522903.0541018-.3797586.0777033.0118618.0304096.0215337.0606376.0319355.0908657" mask="url(#b)"/><path d="m8.15326083 24.663238c-.01012811.0305912-.01970876.0610915-.0284682.0915011.12682949.0238738.25448018.0456598.38304331.0647225.00958065-.0303188.02116867-.0613638.03230047-.0921365-.12984056-.0187904-.25876867-.0402133-.38687558-.0640871" mask="url(#b)"/><path d="m8.73741935 24.3170458c-.13815668-.0180643-.2753917-.0386702-.4116129-.062544-.07032258.1328945-.12764977.2686938-.17225806.4022237.12940092.023783.25963133.0452059.39078341.064087.04912442-.1345284.11317972-.2715077.19308755-.4037667" mask="url(#b)"/><path d="m11.8122857 24.6576207c.1286636-.0236015.2565899-.0492908.3835023-.0777034-.0478341-.131442-.1083871-.2658797-.1839631-.3976848-.1343779.0289572-.2696774.0552819-.406083.0785203.0840553.1270848.1536406.2620671.2065438.3968679" mask="url(#b)"/></g></g></svg>