<svg height="26" viewBox="0 0 23 26" width="23" xmlns="http://www.w3.org/2000/svg" xmlns:xlink="http://www.w3.org/1999/xlink"><mask id="a" fill="#fff"><path d="m0 .05226639h.35968936v4.58718853h-.35968936z" fill="none"/></mask><mask id="b" fill="#fff"><path d="m0 25.9483197h22.9682028v-25.9483197h-22.9682028z" fill="none"/></mask><g fill="none" fill-rule="evenodd"><path d="m12.545455 0h2.439394v1.756757h-2.439394z" fill="#fff" fill-rule="nonzero"/><ellipse cx="11.325758" cy="14.405405" fill="#fff" fill-rule="nonzero" rx="11.325758" ry="11.243243"/><g transform=""><path d="m11.06017 25.8738254c2.369742 0 4.5647051-.7661475 6.3535116-2.0644426h-12.70712907c1.78891245 1.2982951 3.98376959 2.0644426 6.35361747 2.0644426" fill="#5cd8ff"/><path d="m15.8442442 9.6028123h.5769079c.1668295 0 .3028156.1344754.3053594.30209016v1.84173774h1.1298618c.1686313 0 .3053594.1373524.3053594.3068852v1.1528443h3.6419493c-.7520046-4.73924593-4.542447-8.47269675-9.2939078-9.11150822v1.21059836c1.885364.60588524 3.208659 2.31144262 3.33447 4.29735246" fill="#5cd8ff"/><path d="m4.06456636 11.528027c0-.1695327.13662212-.3069918.30525346-.3069918h1.12996774v-1.84408192c0-.16953279.13662212-.30688525.30525345-.30688525h.57701383c.1253871-1.98527049 1.44762212-3.69061475 3.33203226-4.29735246v-1.21027868c-4.75273272.64009016-8.54359908 4.37641803-9.29263595 9.11843441h3.64311521z" fill="#5cd8ff"/><g fill="#000"><path d="m11.4817484 5.15944426h.0011624.0011625z"/><path d="m5.13047327 23.2766492h12.70723503c.2711244-.1968115.5331336-.4055574.7848617-.6260246h-14.27685249c.25162212.2204672.51363134.4292131.78475576.6260246"/><path d="m12.9337373 2.94906066v-.20416394c.000106-.16484426-.1294147-.30038524-.2932765-.30688524h-.851v-2.13104099c0-.16953278-.1367281-.30688524-.3053594-.30688524-.1686314 0-.3053595.13735246-.3053595.30688524v2.13104099h-.8413548c-.1686313 0-.3053595.13745901-.3053595.30688524v.20448361c.4756867-.06063115.9603825-.09195902 1.4520738-.09195902.4909493 0 .9747972.03122131 1.4496359.09163935"/><path d="m15.6576157 9.07002541h-8.34698621c.15739632-2.20094262 1.97747005-3.90671311 4.17222121-3.91054918h-.0010599.0023318-.0012719c2.1957051.00255738 4.0172627 1.70864754 4.174765 3.91054918zm.8822672.60663115v1.53719674h-10.11395848l.00731337-1.53719674zm1.4352212 2.15341804v1.1529508 6.3974918h-3.1252442v-7.5504426zm-6.1856221 7.5504426h2.4424516v-7.5504426h-2.4424516zm-3.05560827 0h2.44488937v-7.5504426h-2.44488937zm-.61782027 0h-3.12535023v-7.5504426-.0023443h3.12535023zm4.20952994-14.7552131c-.5561336-.10538525-1.126788-.10538525-1.6828157 0v-1.12812295c-.2053041.01587705-.4088064.03804098-.6107189.06521311v1.21027869c-1.8843041.60673771-3.20664511 2.31208197-3.33203221 4.29735246h-.57701383c-.16863133 0-.30525345.13745902-.30525345.30688525v1.84418854h-1.12996774c-.16863134 0-.30525346.137459-.30525346.3068852v1.1529508h-3.64311521c-.03116129.1973443-.05755299.3961804-.07800921.5969345h3.72112442v6.0906065h-1.20204147c-.16863134 0-.30535945.137459-.30535945.3069918v1.3291968l-.05956682.0002131c.21219355.2808852.43752995.5511147.6750553.809836v-1.8226639h15.98701383l-.0016959 1.824582c.2362535-.2572295.460212-.5256476.6713457-.8046148h-.0541613v-1.3293033c0-.1695328-.1367281-.3069918-.3053595-.3069918h-1.2020414v-6.0858114h3.7223963c-.0208802-.2072541-.0482258-.4125902-.080553-.6163279h-3.6418433v-1.1528443c0-.1695328-.1367282-.3068852-.3053595-.3068852h-1.1298617v-1.84173773c-.0025438-.16761475-.138636-.30209016-.3053595-.30209016h-.5769078c-.1258111-1.98590984-1.449106-3.69146721-3.3344701-4.29735246v-1.21059836c-.2011705-.02706557-.4038249-.04912295-.6081751-.06489344z"/><path d="m20.9450507 16.9920016c.1731889 0 .3135207-.1410819.3135207-.3151967v-2.3921065c0-.1741148-.1403318-.3151968-.3135207-.3151968-.173083 0-.3134148.141082-.3134148.3151968v2.3921065c0 .1741148.1403318.3151967.3134148.3151967"/><path d="m2.06989401 13.969523c-.17318894 0-.31341475.1410819-.31341475.3151967v2.3921065c0 .1741148.14022581.3151968.31341475.3151968s.31352074-.141082.31352074-.3151968v-2.3921065c0-.1741148-.1403318-.3151967-.31352074-.3151967"/><path d="m2.62514839 21.6379672h-.08335162c.11028388.1362935.22344194.2699332.33958065.4010254v-.0964881c-.08718387-.0998848-.17245161-.2015742-.25622903-.3045373"/><path d="m2.62478756 21.6379672c.08377742.1029631.16904516.2046525.25622903.3045373v-.3045373z"/><path d="m20.0930862 21.9385238v.0951082c.1144355-.1293939.2261032-.2612291.3347903-.3957181h-.0820742c-.0826064.1015832-.1665968.2019988-.2527161.3006099"/><path d="m20.0930862 21.9385238c.0861193-.0986111.1701097-.1990267.2527161-.3006099h-.2527161z"/><path d="m.35810046 16.949027v.3191394c.34637788 1.3583934.93335484 2.6206721 1.71175115 3.7388852l.07991705-.0002131c-.84188479-1.2030328-1.45938709-2.5760246-1.7916682-4.0578115"/><path d="m.60413687 14.4028811c0-.3797704.0195023-.7550655.05723502-1.1250327h-.30323963v3.6712213c.33217511 1.4816803.94978341 2.8547787 1.7916682 4.0578114l.66572811-.001918c-1.38699539-1.8360901-2.2113917-4.1239836-2.2113917-6.602082"/><path d="m11.4847479 25.8837139c-2.74950689 0-5.27166357-.9781967-7.2412903-2.6070328h-.0977235c1.99146083 1.6671968 4.55029032 2.6716066 7.3383779 2.6716066 2.7880875 0 5.346917-1.0044098 7.3382719-2.6716066h-.0963457c-1.9696267 1.6288361-4.4917834 2.6070328-7.2412903 2.6070328"/><path d="m11.4841332 25.3410385c-2.36984795 0-4.56470509-.7661475-6.35361753-2.0644426h-.88703687c1.96962673 1.6289426 4.49167742 2.6071393 7.2412903 2.6071393 2.7495069 0 5.2716636-.9781967 7.2412903-2.6071393h-.8884147c-1.7888065 1.2982951-3.9837696 2.0644426-6.3535115 2.0644426"/><path d="m22.7601429 12.6736148h.0792811c-.7615438-5.07479513-4.8204609-9.07772955-9.9056867-9.72453283v.0917459c5.0456913.64307377 9.0631659 4.59997541 9.8264056 9.63278693"/><path d="m12.9337373 3.04078525v.52127868c4.7514609.63881148 8.5419033 4.3722623 9.2939079 9.11150817h.5324977c-.7632397-5.03281144-4.7808203-8.98971308-9.8264056-9.63278685"/><path d="m3.49062627 22.6501002h.05643174c-.01891626-.0182603-.03762116-.0366262-.05643174-.054992z"/><path d="m3.49062627 21.8147672v.7803197c.01886636.0186475.03762673.037082.05659908.0555164h.79842857c-.29995392-.2627705-.58528111-.5419508-.85502765-.8358361"/><path d="m10.0320382 3.04120082v-.09185246c-5.08639166.64808197-9.14562668 4.654-9.90420272 9.73156554h.08044701c.76037788-5.03504915 4.77753456-8.99482783 9.82375571-9.63971308"/><path d="m10.0320382 3.56239426v-.52117213c-5.04622115.64488525-9.06337783 4.60466394-9.82375571 9.63971307h.53111981c.74914286-4.74201635 4.53990323-8.47845077 9.2926359-9.11854094"/><path d="m20.8161765 21.0119959h.0787511c.7755346-1.1127787 1.3614517-2.3683443 1.7089954-3.7194918l.000318-.3105082c-.3345069 1.4713443-.9506313 2.8346393-1.7880645 4.03"/><path d="m22.308124 13.2899107c.0369907.3660245.0558571.7372704.0558571 1.1129918 0 2.4811885-.8265161 4.7718524-2.2166912 6.6091147h.6689078c.8374332-1.1954672 1.4535576-2.5586557 1.7880645-4.0301065l.0033917-3.692z"/><path d="m19.4750986 22.6501334v-.0515088c-.0175424.0172048-.0350849.0344096-.0528387.0515088z"/><path d="m18.62257 22.6506246h.7997005c.0178065-.0172623.0354009-.0346312.0529954-.052l.0007419-.7820246c-.2693225.2931393-.5541198.5717869-.8534378.8340246"/><path d="m20.3447083 21.6379672h.0817189c.1630138-.2032049.3192442-.4118442.4684793-.6260246h-.0787512c-.1500829.2142869-.3074793.4229263-.471447.6260246"/><path d="m19.4752553 22.5986459v.052h-.0529954c-.2234286.2179098-.4555484.4269754-.6961475.6260246h.0963457c.4545944-.380623.8792995-.7958771 1.2706175-1.2415v-.0954754c-.1971429.2279262-.4036129.4474344-.6178203.6589508"/><path d="m17.8376765 23.2766492h.8884147c.2405991-.1990492.4727189-.4081148.6961475-.6260246h-.7997005c-.2517281.2204672-.5136313.4292131-.7848617.6260246"/><path d="m19.475976 21.8165893-.0007419.7820246c.2143134-.2115164.4206774-.4310246.6178203-.6589508v-.3016639h.2516221c.1639677-.2030984.32147-.4118443.471553-.6260246h-.6689078c-.2111337.2789672-.4350922.5474918-.6713457.8046147"/><path d="m22.8404479 12.6736148h-.0796258c.0865452.5682704.1314678 1.1502868.1314678 1.7427459 0 .8820819-.0996387 1.7407213-.2880581 2.5655819l-.0003194.3106148c.238771-.9238525.3658742-1.8922459.3658742-2.889623 0-.5876639-.0443903-1.1650983-.1293387-1.7293196"/><path d="m22.308124 13.2899107h.2995299l-.0033917 3.692c.1874977-.8248607.2868111-1.6835.2868111-2.5654755 0-.5925655-.0447281-1.1744754-.1308986-1.7428524h-.5326037c.0323272.2037377.0596728.4090738.080553.6163279"/><path d="m.07876355 1.78776639c0-.59000819.04460322-1.16957377.13050968-1.7355h-.08090323c-.08430968.56187705-.12838065 1.13686066-.12838065 1.72196722 0 .9887459.12508065 1.94872131.35970001 2.86522131v-.31903279c-.18352259-.81484426-.28092581-1.66240164-.28092581-2.53265574" mask="url(#a)" transform="translate(0 12.628648)"/><path d="m.66137189 13.2778377c.02045622-.2006475.04684793-.3995902.07800922-.5969344h-.53101383c-.08553456.5659262-.1299447 1.1454918-.1299447 1.7355 0 .8703606.09698157 1.7178115.27970968 2.5326557v-3.6712213z"/><path d="m3.54723594 22.6506246h-.05659907v-.0555164c-.2116636-.2091721-.41558987-.4262295-.6107189-.6513852v.0968606c.39015208.4435984.81316129.857041 1.26574194 1.2360656h.0977235c-.24059908-.1990492-.47271889-.4081148-.69614747-.6260246"/><path d="m2.14980046 21.0068385-.07991705.0002131c.15029493.2157787.30769124.426123.47187097.6309263h.08299078c-.16523963-.2046968-.32369585-.4151476-.4749447-.6311394"/><path d="m4.34568571 22.6506246h-.79842857c.22342857.2179098.45554839.4269754.69614747.6260246h.88703686c-.27101843-.1968115-.53313364-.4055574-.78475576-.6260246"/><path d="m2.81554977 21.0049205-.66572811.001918c.15124885.2159918.30970507.4264426.4749447.6311394h.25511982v.3057131c.19512903.2251557.39905529.4422131.61071889.6513852v-.7803196c-.23752535-.2587214-.46286175-.5289509-.6750553-.8098361"/><path d="m11.4847479 2.9487082c.4908433 0 .9744793.03110123 1.449.09139303v-.09139303c-.4749447-.06018566-.9586866-.09128689-1.4496359-.09128689-.4917973 0-.9763871.03120738-1.4520738.09160533v.09149918c.4756867-.06061025.9604885-.09181762 1.4527097-.09181762"/><path d="m10.6427253 3.49714918v-.44530328h1.6828157v.44530328c.2044562.01577049.4071106.03782787.6081751.06489344v-.52127869c-.4744147-.06052459-.9581567-.0917459-1.449-.0917459-.4921152 0-.976917.03143443-1.4527096.09217213v.52117214c.2020184-.02717214.4054147-.04933607.6107188-.06521312"/><path d="m12.7061751 1.54604098h2.0465761v-1.08209016h-2.0465761zm-.2252304.45286886h2.4969309c.1244332 0 .2252304-.10133607.2252304-.22643443v-1.53495902c0-.12509836-.1007972-.22643442-.2252304-.22643442h-2.4969309c-.1244332 0-.2252304.10133606-.2252304.22643442v1.53495902c0 .12509836.1007972.22643443.2252304.22643443z" mask="url(#b)"/></g></g></g></svg>