<?xml version="1.0" encoding="UTF-8"?>
<svg width="64px" height="102px" viewBox="0 0 64 102" version="1.1" xmlns="http://www.w3.org/2000/svg" xmlns:xlink="http://www.w3.org/1999/xlink">
    <!-- Generator: Sketch 52 (66869) - http://www.bohemiancoding.com/sketch -->
    <title>Group 10</title>
    <desc>Created with Sketch.</desc>
    <defs>
        <polygon id="path-1" points="0 0.33896 63.9311823 0.33896 63.9311823 73.1511149 0 73.1511149"></polygon>
    </defs>
    <g id="Future-Project-Desktop" stroke="none" stroke-width="1" fill="none" fill-rule="evenodd">
        <g id="Future-Camp-update-video-thumb" transform="translate(-688.000000, -5224.000000)">
            <g id="Group-2" transform="translate(-291.000000, 5056.000000)">
                <g id="Group" transform="translate(456.000000, 0.000000)">
                    <g id="Group-10" transform="translate(523.000000, 168.000000)">
                        <g id="Group-3" transform="translate(0.000000, 0.061200)">
                            <mask id="mask-2" fill="white">
                                <use xlink:href="#path-1"></use>
                            </mask>
                            <g id="Clip-2"></g>
                            <path d="M32.48916,55.50816 C31.59436,55.72616 30.47356,55.52816 30.35276,55.50536 C26.77916,54.60336 15.17676,52.03896 4.78516,53.69936 C5.21916,50.33816 6.40196,45.90776 9.46676,42.19696 C15.14196,47.31896 22.87236,49.44536 30.40036,47.89736 C37.10116,46.52016 42.83556,42.39936 46.28196,36.52416 C55.49796,39.97736 58.35156,47.76736 59.10636,53.79496 C59.11036,53.82496 59.11316,53.85336 59.11676,53.88296 C48.45556,51.86056 36.16116,54.57976 32.48916,55.50816 M56.23156,66.34696 C56.23116,66.34936 56.22836,66.36216 56.22716,66.36496 C56.22196,66.39016 55.55636,68.94136 49.30636,69.94176 C48.39316,70.08816 47.50156,70.21896 46.64156,70.21896 L46.63596,70.21896 C43.15636,70.21656 40.86796,69.88376 39.82636,69.22456 C39.81836,69.21936 39.03516,68.73016 38.21276,67.43256 C37.44756,66.22576 36.49236,64.05536 36.28476,60.56256 C36.28236,60.52496 36.24236,59.62216 37.21236,58.57376 C37.62276,58.13096 38.16196,57.81376 38.77236,57.65616 C40.29836,57.26176 44.00716,56.42816 47.99996,56.42816 C50.81596,56.42816 53.77316,56.84256 56.20516,58.11936 C56.49556,58.27176 56.60716,58.52496 56.77476,59.02656 C56.99636,59.68576 57.38516,61.71896 56.23156,66.34696 M26.56676,60.56136 L26.56676,60.56816 C26.35916,64.05496 25.40356,66.22576 24.63876,67.43256 C23.81636,68.72976 23.03276,69.21936 23.01556,69.23016 C21.98276,69.88376 19.69436,70.21656 16.21516,70.21896 L16.20756,70.21896 C15.34836,70.21896 14.45796,70.08816 13.54516,69.94176 C7.29476,68.94136 6.62956,66.39016 6.62556,66.37456 C6.62396,66.36496 6.62196,66.35616 6.61956,66.34656 C5.46596,61.71816 5.85516,59.68496 6.07636,59.02576 C6.24436,58.52456 6.35596,58.27136 6.64636,58.11936 C9.07876,56.84216 12.03556,56.42736 14.85116,56.42736 C18.84396,56.42736 22.55276,57.26176 24.07876,57.65616 C24.68956,57.81296 25.22876,58.13096 25.63836,58.57376 C26.60156,59.61376 26.56916,60.51096 26.56676,60.56136 M57.70276,23.54816 C57.70236,23.54776 57.70156,23.54696 57.70116,23.54656 L42.93476,7.77016 C42.90196,7.73536 42.86756,7.70256 42.83196,7.67256 C38.22996,2.91736 32.03076,0.33416 25.59036,0.33936 C25.58596,0.33936 25.58156,0.33896 25.57756,0.33896 C25.57356,0.33896 25.56996,0.33936 25.56636,0.33936 C25.17516,0.34016 24.78276,0.34936 24.38996,0.36896 C24.34276,0.37136 24.29596,0.37496 24.24836,0.37776 C23.93796,0.39536 23.62676,0.41936 23.31556,0.44896 C23.22636,0.45736 23.13676,0.46456 23.04796,0.47376 C22.73796,0.50696 22.42756,0.54736 22.11716,0.59256 C21.97836,0.61256 21.84076,0.63456 21.70276,0.65736 C21.46756,0.69576 21.23276,0.73816 20.99756,0.78336 C20.51716,0.87696 20.03996,0.98136 19.57036,1.10336 C7.25636,4.26736 -0.55724,16.61856 2.03076,29.20496 C2.19956,30.02616 2.42196,30.86656 2.69356,31.71056 C1.58036,33.58296 0.85676,35.44936 0.54036,37.26496 C-0.35484,42.39696 -0.12004,48.85856 1.11276,54.82176 C1.00036,54.99016 0.92556,55.18536 0.90316,55.39536 L0.55836,58.59776 C0.49396,59.19536 0.85396,59.76216 1.41396,59.94576 C2.05596,60.15696 2.45036,60.66496 2.58356,61.43896 C2.61156,61.64096 3.26356,66.41456 4.23796,68.48056 C4.24676,68.49976 4.25716,68.51816 4.26796,68.53616 C4.36116,68.68376 6.62116,72.14976 14.01436,73.00936 C14.10236,73.01776 16.19876,73.22216 18.62316,73.12496 C21.94556,72.99296 24.18276,72.36856 25.27476,71.26856 C25.61276,70.99136 28.21516,68.67056 29.84196,61.82136 C29.85316,61.76696 30.12196,60.49456 31.42516,60.49456 L31.42556,60.49456 C32.68996,60.49456 32.98076,61.68856 33.01316,61.84016 C34.63636,68.67096 37.23796,70.99096 37.57676,71.26856 C38.66836,72.36856 40.90596,72.99336 44.22836,73.12576 C44.69076,73.14416 45.14076,73.15096 45.56836,73.15096 C47.37996,73.15096 48.76716,73.01696 48.84596,73.00896 C56.22996,72.15056 58.48996,68.68376 58.58316,68.53616 C58.59436,68.51856 58.60476,68.49976 58.61396,68.48096 C59.58716,66.41536 60.23996,61.64136 60.26436,61.45816 C60.40116,60.66576 60.79556,60.15696 61.43756,59.94656 C61.99756,59.76256 62.35716,59.19576 62.29316,58.59856 L62.16436,57.40536 C62.97796,54.38536 63.55396,51.17776 63.87356,47.81296 C63.91516,47.13736 64.81436,31.17696 57.70276,23.54816" id="Fill-1" fill="#5CD8FF" mask="url(#mask-2)"></path>
                        </g>
                        <path d="M60.29776,53.70492 C60.27376,53.85892 60.25016,54.01452 60.22656,54.17372 C60.27016,54.18372 60.31296,54.19372 60.35656,54.20372 C60.33896,54.04052 60.31896,53.87372 60.29776,53.70492" id="Fill-4" fill="#D7C265"></path>
                        <path d="M34.50788,84.93264 C34.45508,84.93264 34.40188,84.93744 34.34948,84.94664 C32.96628,85.19344 31.63068,85.31864 30.37948,85.31864 C21.70948,85.31864 19.15068,79.39384 19.04628,79.14144 C18.90628,78.79624 18.57668,78.57384 18.20588,78.57384 C18.09228,78.57384 17.98108,78.59544 17.87508,78.63784 C17.65108,78.72664 17.47548,78.89744 17.38068,79.11864 C17.28548,79.33984 17.28228,79.58464 17.37148,79.80784 C17.41028,79.90584 18.34588,82.21904 20.99348,84.23144 C23.50908,86.14384 26.67708,87.11384 30.40868,87.11384 C31.77308,87.11384 33.20548,86.98184 34.66628,86.72144 C34.90388,86.67904 35.11028,86.54704 35.24788,86.34944 C35.38548,86.15224 35.43788,85.91264 35.39548,85.67544 C35.31908,85.24504 34.94588,84.93264 34.50788,84.93264" id="Fill-6" fill="#162842"></path>
                        <path d="M45.72664,35.119 C42.64544,40.9214 37.09624,45.357 30.15864,46.7834 C22.34064,48.391 14.63784,45.7886 9.39264,40.5314 C2.27384,48.0642 3.37384,61.4274 3.31344,62.8842 C3.31344,62.8842 2.46584,68.8106 3.89864,75.945 C4.98184,81.3362 8.15864,86.3446 13.01104,90.2898 C13.06504,90.3338 13.11864,90.3774 13.17384,90.421 C13.17384,90.421 16.09864,92.8454 18.56544,95.6962 C18.56544,95.6962 21.46024,99.865 31.46064,99.861 L31.46064,99.8606 C41.37344,99.865 44.28624,95.6962 44.28624,95.6962 C46.75224,92.8454 49.67784,90.421 49.67784,90.421 C49.73224,90.3774 49.78624,90.3338 49.84024,90.2898 C54.69304,86.3446 57.86984,81.3362 58.95264,75.945 C60.38544,68.8106 59.53744,62.8842 59.53744,62.8842 C59.42384,60.1366 59.86824,56.477 60.29784,53.707 C59.55944,47.8118 56.60904,38.689 45.72664,35.119 Z" id="Stroke-8" stroke="#231F20" stroke-width="2.8" stroke-linecap="round" stroke-linejoin="round"></path>
                    </g>
                </g>
            </g>
        </g>
    </g>
</svg>